<svg viewBox="0 0 365.24 51.09" xmlns="http://www.w3.org/2000/svg"><g fill="#1f3244"><path d="m66.61 6.77h13.55c13.2 0 24.26 5.62 24.26 20.62 0 13.26-10.83 20.39-23 20.39h-14.81zm9 32.66h4.69c8.4 0 14.71-3.19 14.71-12.51 0-8-6.43-11.81-14.07-11.81h-5.3z"/><path d="m109.12 19.63h8.69v4.52h.12c1.85-3.42 4.29-5.21 8.11-5.21a11.41 11.41 0 0 1 2.9.29v7.93a13.32 13.32 0 0 0 -3.71-.58c-6.6 0-7.41 3.82-7.41 9.44v11.75h-8.69z"/><path d="m158.41 42.91a15.29 15.29 0 0 1 -11.87 5.56c-8.69 0-15.64-5.79-15.64-14.77s6.95-14.77 15.64-14.77c8.11 0 13.2 5.79 13.2 14.77v2.72h-20.16a6.49 6.49 0 0 0 6.54 5.44 7.41 7.41 0 0 0 6.2-3.42zm-7.35-12.39a5.21 5.21 0 0 0 -5.33-5.33 5.8 5.8 0 0 0 -6.14 5.33z"/><path d="m181.65 44.24h-.12c-1.91 3-5.39 4.23-8.92 4.23-5.27 0-10-3-10-8.69 0-9.73 11.81-9.9 19.05-9.9 0-3.07-2.55-5-5.56-5a9.28 9.28 0 0 0 -7.1 3.32l-4.63-4.75a18.16 18.16 0 0 1 12.39-4.52c10.13 0 12.86 5.15 12.86 14.54v14.3h-8zm-2.14-8.8c-2.66 0-8.57.23-8.57 4.05 0 2.08 2.2 3.07 4.11 3.07 3.42 0 6.6-1.79 6.6-5.27v-1.85z"/><path d="m195.09 19.63h8.34v3.82h.12a9.12 9.12 0 0 1 8.22-4.52c3.94 0 7.18 1.62 8.69 5 2-3.59 4.75-5 8.92-5 7.65 0 10 5.39 10 12.22v16.62h-8.69v-16.39c0-2.6-1-4.81-3.82-4.81-4 0-5.27 2.84-5.27 6.31v14.89h-8.69v-14.88c0-2.08.12-6.31-3.88-6.31-4.52 0-5.21 3.53-5.21 7.18v14h-8.69v-28.13z"/><path d="m244.84 6.77h9.03v15.29h17.55v-15.29h9.03v41h-9.03v-17.72h-17.55v17.72h-9.03z"/><path d="m300 18.93c8.69 0 15.64 5.79 15.64 14.77s-6.98 14.77-15.64 14.77-15.64-5.79-15.64-14.77 6.93-14.77 15.64-14.77m0 21.89c4.34 0 7-2.9 7-7.12s-2.61-7.12-7-7.12-7 2.9-7 7.12 2.61 7.12 7 7.12"/><path d="m335.53 27.91a6.2 6.2 0 0 0 -5-2.37c-1.45 0-3.19.64-3.19 2.32 0 4.17 14.65.64 14.65 11.35 0 7.18-6.95 9.27-13 9.27-3.94 0-8.28-1-11.06-3.82l5.27-5.85a7.55 7.55 0 0 0 6.14 3.07c2 0 3.94-.52 3.94-2 0-4.52-14.65-.69-14.65-11.41 0-6.6 5.91-9.5 11.81-9.5 3.71 0 7.82.93 10.42 3.71z"/><path d="m365.24 26.58h-7.65v9.42c0 3 .35 5.21 4.11 5.21.93 0 2.78-.12 3.53-.81v7.2a18 18 0 0 1 -6.08.87c-5.79 0-10.25-2.37-10.25-8.51v-13.38h-5.56v-7h5.56v-8.29h8.69v8.34h7.65z"/><path d="m51.09 38.38a28 28 0 0 1 -14.24 3.53c-15.25-.31-27.38-12.67-27.08-27.61a26.5 26.5 0 0 1 4.23-13.79 27 27 0 0 0 -14 23c-.3 14.9 11.84 27.27 27.1 27.57a27.74 27.74 0 0 0 24-12.71"/></g><path d="m36.57 38.69h.51a24.34 24.34 0 0 0 11.4-2.84 23.83 23.83 0 0 0 -20.48-35.85 23.61 23.61 0 0 0 -11.47 2.93 23.16 23.16 0 0 0 -3.53 11.74 23.81 23.81 0 0 0 23.53 24" fill="#0073ec"/></svg>