<?xml version="1.0" encoding="UTF-8"?>
<svg id="Layer_1" data-name="Layer 1" xmlns="http://www.w3.org/2000/svg" width="95" height="95" viewBox="0 0 95 95">
  <defs>
    <style>
      .cls-1 {
        fill: #fff;
      }

      .cls-2 {
        fill: #28006c;
      }
    </style>
  </defs>
  <circle class="cls-2" cx="47.5" cy="47.5" r="47.5"/>
  <g>
    <path class="cls-1" d="M59.6,33.3c.1,.1,.2,.2,.4,.3q.3,.3,.7,.6c3,2.4,4.9,6.9,5.4,10.6,.5,5.1-.5,10.2-3.8,14.3-.3,.3-.6,.7-.9,1-.2,.2-.4,.4-.5,.6-2.4,3-6.9,4.9-10.6,5.4-5.1,.5-10.2-.5-14.3-3.8-.3-.3-.7-.6-1-.9-.2-.2-.4-.4-.6-.5-3-2.4-4.9-6.9-5.4-10.6-.5-5.2,.6-10.2,3.9-14.4,1.9-2.4,4.2-4.2,7-5.4,.2,0,.3-.1,.5-.2,6.2-2.6,14.3-1.7,19.4,3Zm-24.1,3.1c-1.9,2-3.2,4.5-3.9,7.2,0,.2,0,.3-.1,.5-.9,4-.1,8.5,2,12,.5,.8,1,1.5,1.6,2.1q.1,.2,.3,.3c.6,.8,1.4,1.4,2.2,2,.1,0,.2,.2,.3,.3,3.4,2.6,7.7,3.5,11.8,3,3.2-.4,6-1.8,8.5-3.8,.1,0,.2-.2,.3-.3,.8-.6,1.4-1.4,2-2.2,0-.1,.2-.2,.3-.3,1.3-1.7,2.1-3.6,2.7-5.7,0-.2,0-.3,.1-.5,.9-4,.1-8.5-2-12-.5-.8-1-1.5-1.6-2.1,0-.1-.2-.2-.3-.3-.6-.8-1.4-1.4-2.2-2-.1,0-.2-.2-.3-.3-6.7-5.1-15.9-3.7-21.7,2.1Z"/>
    <path class="cls-1" d="M50.9,35.4c.3,.3,.6,.5,.9,.8q.1,.1,.3,.3c.7,1,1,2,1,3.2q0,.2,0,.4t0,.4c0,.1,0,.3,0,.4,0,.4,0,.7,0,1.1,0,0,.2,0,.2,0,1,0,1.7,.4,2.4,1.2,.6,.8,.8,1.7,.8,2.7q0,.2,0,.3c0,.3,0,.7,0,1,0,.2,0,.5,0,.7,0,.5,0,1,0,1.5,0,.6,0,1.3,0,1.9,0,.5,0,1,0,1.5,0,.2,0,.5,0,.7,0,.3,0,.7,0,1,0,0,0,.2,0,.3,0,1.1-.3,2-1.1,2.8-.9,.8-1.8,.9-2.9,.9-.1,0-.2,0-.4,0-.4,0-.8,0-1.1,0-.3,0-.5,0-.8,0-.6,0-1.1,0-1.7,0-.7,0-1.4,0-2.1,0-.6,0-1.1,0-1.7,0-.3,0-.5,0-.8,0-.4,0-.7,0-1.1,0-.1,0-.2,0-.3,0-1.1,0-2-.3-2.9-1.1-.7-.8-.9-1.7-.9-2.8,0-.1,0-.2,0-.3,0-.3,0-.7,0-1,0-.1,0-.2,0-.4,0-.6,0-1.3,0-1.9,0-.6,0-1.3,0-1.9,0-.5,0-1,0-1.5,0-.2,0-.5,0-.7q0-2.9,1-4.1c.7-.6,1.4-.9,2.4-.9,0,0,0-.2,0-.3,0-.4,0-.8,0-1.2,0-.1,0-.3,0-.4,0-1.6,.5-3,1.6-4.2,2-1.9,5.1-2.1,7.3-.5Zm-6,2.6q-.7,1.4-.5,4h6.4q.2-2.4-.7-4.3c-.7-.7-1.5-1.1-2.5-1.2-1.1,0-2.1,.6-2.7,1.5Zm-3.7,6.8c-.2,.5-.1,.9-.1,1.3,0,0,0,.2,0,.3,0,.3,0,.6,0,1,0,.2,0,.5,0,.7,0,.5,0,.9,0,1.4,0,.6,0,1.2,0,1.8,0,.5,0,.9,0,1.4,0,.2,0,.4,0,.7,0,.3,0,.6,0,.9,0,0,0,.2,0,.3,0,.6,0,.9,.4,1.4,.5,.4,1,.3,1.6,.3,.1,0,.2,0,.3,0,.4,0,.7,0,1.1,0,.3,0,.5,0,.8,0,.5,0,1.1,0,1.6,0,.7,0,1.3,0,2,0,.5,0,1,0,1.6,0,.2,0,.5,0,.7,0,.3,0,.7,0,1,0q.2,0,.3,0c.6,0,1,0,1.4-.4,.3-.4,.3-1,.3-1.5q0-.1,0-.3c0-.3,0-.6,0-1,0-.2,0-.4,0-.7,0-.5,0-.9,0-1.4,0-.6,0-1.2,0-1.8,0-.5,0-.9,0-1.4,0-.2,0-.4,0-.7,0-.3,0-.6,0-.9,0,0,0-.2,0-.3,0-.6,0-.9-.4-1.4-.5-.3-.9-.3-1.5-.3-.1,0-.2,0-.3,0-.4,0-.7,0-1.1,0-.3,0-.5,0-.8,0-.5,0-1.1,0-1.6,0-.7,0-1.4,0-2.1,0-.5,0-1.1,0-1.6,0-.3,0-.5,0-.8,0-.4,0-.7,0-1.1,0-.1,0-.2,0-.3,0-.6,0-1,0-1.4,.6Z"/>
    <path class="cls-1" d="M31.1,60.5c.7,.1,1.1,.8,1.6,1.3,1.6,1.9,3.7,3.2,5.9,4.2,.1,0,.2,.1,.4,.2,.1,0,.2,.1,.3,.2,.4,.3,.5,.5,.7,1q0,.4,0,.8t0,.5c0,.2,0,.3,0,.5,0,.2,0,.3,0,.5,0,.4,0,.7,0,1.1,0,.5,0,.9,0,1.4,0,.4,0,.7,0,1.1,0,.3,0,.5,0,.8,0,.9,0,1.6-.6,2.3-.6,.6-1.2,.8-2.1,.8-.2,0-.3,0-.5,0-.2,0-.4,0-.5,0-.2,0-.4,0-.5,0-.5,0-1,0-1.4,0-.5,0-1,0-1.5,0-1,0-1.9,0-2.9,0,0,0,0,.2-.1,.3q0,.2-.2,.3,0,.2-.2,.3c-.5,1-1.3,1.6-2.3,2-1.1,.3-2.6,.3-3.6-.2-1.1-.7-2-1.7-2.3-3-.1-1.6,0-2.9,1.1-4.1,.9-.9,2-1.4,3.3-1.4,1.5,.1,2.6,.6,3.6,1.8,.3,.5,.5,1,.7,1.5q3.8,0,7.7,.1v-6.5l-.8-.3c-1.7-.8-3.2-1.9-4.6-3.2-.3-.2-.5-.5-.8-.7q-1.7-1.5-1.8-2.3,0-.7,.3-1c.4-.3,.7-.3,1.1-.3Zm-7.3,14.3c-.4,.5-.3,1-.3,1.6,.3,.7,.7,1.2,1.4,1.5,.9,0,1.5,0,2.2-.5,.4-.5,.6-1,.7-1.6,0-.7-.4-1.2-.8-1.6-1.2-.8-2.2-.5-3.1,.6Z"/>
    <path class="cls-1" d="M78.4,32.8c1,.7,1.6,1.5,1.9,2.7,.2,1.4,0,2.7-.8,3.8-.7,.9-1.5,1.3-2.6,1.7-1.6,.1-2.8,0-4-1.1-.5-.5-1-1.1-1.2-1.8v-.4q-1.6,0-3.2,.1c.2,.4,.3,.8,.5,1.2,.8,2.1,1.5,4.4,1.5,6.6q0,.2,0,.4c0,0,0,.2,0,.3,.1,0,.2,0,.3,0,1.1,0,2.2,0,3.2,0,.6,0,1.1,0,1.7,0,.5,0,1.1,0,1.6,0,.2,0,.4,0,.6,0,.3,0,.6,0,.9,0,.2,0,.3,0,.5,0,.5,0,.7,.3,1.1,.7q0,.3,0,.5t0,.2c-.1,.4-.4,.6-.7,.9-.4,0-.7,0-1.1,0-.1,0-.2,0-.3,0-.3,0-.7,0-1,0-.2,0-.5,0-.7,0-.5,0-1,0-1.5,0-.6,0-1.3,0-1.9,0-.5,0-1,0-1.5,0-.2,0-.5,0-.7,0-.3,0-.7,0-1,0,0,0-.2,0-.3,0-.5,0-.7,0-1.1-.4-.3-.4-.4-.6-.4-1.1,0-.2,0-.3,0-.5,0-.2,0-.3,0-.5,0-.3,0-.7,0-1,0,0,0-.2,0-.3-.2-2.5-1.1-5-2.3-7.2-.3-.6-.4-1-.3-1.6,.3-.4,.5-.6,.9-.7,.3,0,.7,0,1,0,.1,0,.3,0,.4,0,.4,0,.8,0,1.2,0,.3,0,.6,0,.8,0,.7,0,1.3,0,2,0,0-.1,0-.2,0-.4,.2-.9,.8-1.6,1.5-2.2,1.6-1.1,3.5-1.1,5.2-.1Zm-4.1,2.4c-.4,.6-.6,1.2-.5,1.9,.2,.6,.7,1.1,1.2,1.4,.6,.2,1.2,.2,1.8,0,.5-.3,.9-.7,1.1-1.3,0-.9,0-1.5-.5-2.2-1-.9-2.2-.8-3.2,.1Z"/>
    <path class="cls-1" d="M71.5,15c1.1,.7,2,1.7,2.3,3,.1,1.6,0,2.9-1.1,4.1-.9,.9-2,1.4-3.3,1.4-1.5-.1-2.6-.6-3.6-1.8-.3-.5-.5-1-.7-1.5q-3.8,0-7.7-.1v6.5c.3,0,.5,.2,.8,.3q.3,.1,.5,.3c0,0,.2,.1,.3,.2,0,0,.2,.1,.3,.2,0,0,.2,.1,.3,.2,1.2,.7,2.3,1.6,3.3,2.5,0,0,.1,.1,.2,.2q1.2,1,1.3,1.8c0,.5-.2,.7-.6,1.1-.5,.1-.8,.2-1.2,0-.4-.3-.7-.6-1.1-1-1.5-1.5-3.3-2.5-5.2-3.5-.1,0-.3-.1-.4-.2-.1,0-.2-.1-.3-.2-.3-.2-.4-.4-.5-.8q0-.4,0-.8c0-.2,0-.3,0-.5,0-.2,0-.3,0-.5,0-.2,0-.3,0-.5,0-.4,0-.7,0-1.1,0-.5,0-.9,0-1.4,0-.4,0-.7,0-1.1,0-.3,0-.5,0-.8,0-.9,0-1.6,.6-2.3,.6-.6,1.2-.8,2.1-.8q.2,0,.5,0c.2,0,.4,0,.5,0,.2,0,.4,0,.5,0,.5,0,1,0,1.4,0,.5,0,1,0,1.5,0,1,0,1.9,0,2.9,0,0,0,0-.2,.1-.3,0-.1,.1-.2,.2-.3,0-.1,.1-.2,.2-.3,.5-1,1.3-1.6,2.3-2,1.1-.3,2.6-.3,3.6,.2Zm-3.8,2.7c-.4,.6-.4,1.1-.3,1.8,.2,.6,.5,.9,.9,1.3,.7,.4,1.2,.4,1.9,.2,.6-.3,1-.8,1.3-1.4,0-.7,0-1.3-.4-1.9-.5-.5-.9-.8-1.7-.8-.8,0-1.3,.2-1.8,.8Z"/>
    <path class="cls-1" d="M63.8,61.7c.4,.3,.5,.6,.6,1.1-.3,1.5-2.3,2.7-3.5,3.5q-2.9,1.9-3.5,1.9v6.5c2.5,0,5.1,0,7.7-.1,.3-.5,.5-1,.8-1.5,.8-.8,1.7-1.5,3-1.7,0,0,.2,0,.2,0,1.2,0,2.4,.3,3.3,1.1,1,1,1.5,1.9,1.5,3.3,0,1.4-.4,2.4-1.4,3.4-1.1,1-2.4,1.1-3.8,1.1-1,0-2-.7-2.7-1.4-.4-.5-.7-1.1-.9-1.7-.1,0-.2,0-.3,0-1,0-1.9,0-2.9,0-.5,0-1,0-1.5,0-.5,0-.9,0-1.4,0-.2,0-.4,0-.5,0-1,0-1.8,0-2.7-.6-.6-.6-.8-1.2-.8-2.1,0-.2,0-.3,0-.5,0-.2,0-.3,0-.5,0-.2,0-.4,0-.5,0-.4,0-.7,0-1.1,0-.5,0-.9,0-1.4,0-.4,0-.7,0-1.1,0-.3,0-.5,0-.8,0-.2,0-.3,0-.5,0-.1,0-.3,0-.4,0-.5,.2-.8,.4-1.2q.3-.2,.6-.4c.1,0,.2-.1,.4-.2,.1,0,.3-.1,.4-.2,2-1,3.8-2.3,5.4-3.9,.4-.4,.9-.4,1.5-.2Zm3.9,12.9c-.4,.6-.5,1.1-.4,1.8,.2,.6,.5,1,1,1.4,.6,.3,1.2,.3,1.8,.2,.6-.3,.9-.6,1.3-1.2,.2-.5,.2-1,.1-1.5-.3-.6-.7-1-1.3-1.4-1-.3-1.8,0-2.5,.7Z"/>
    <path class="cls-1" d="M27.9,15.2c0,0,.2,.1,.3,.2,.9,.6,1.4,1.4,1.8,2.4q.2,0,.3,0c1,0,1.9,0,2.9,0,.5,0,1,0,1.5,0,.5,0,.9,0,1.4,0,.2,0,.4,0,.5,0,1,0,1.8,0,2.7,.6,.5,.6,.8,1.1,.8,1.9q0,.2,0,.4c0,.1,0,.3,0,.4,0,.1,0,.3,0,.4,0,.4,0,.8,0,1.3,0,.3,0,.6,0,.9,0,.7,0,1.4,0,2.1,.1,0,.3,0,.4-.1,.2,0,.4-.1,.6-.2,0,0,.2,0,.3,0q.1,0,.3,0c0,0,.2,0,.3,0,.6-.2,1.2-.3,1.9-.2,.3,.2,.5,.4,.6,.8,0,.4,0,.7-.2,1.1-.5,.5-1.1,.6-1.8,.8-.3,0-.6,.2-.8,.2-.1,0-.3,0-.4,.1-.6,.2-1.2,.4-1.8,.7-.5,.1-.8,0-1.3-.2-.4-.4-.4-.7-.4-1.3,0-.2,0-.3,0-.5,0-.2,0-.3,0-.5,0-.2,0-.3,0-.5,0-.6,0-1.1,0-1.7,0-1.3,0-2.5,0-3.8-2.5,0-5.1,0-7.7,.1-.3,.5-.5,1-.8,1.5-.9,.9-1.8,1.6-3.1,1.7-.2,0-.3,0-.5,0-1.1,0-2.3-.4-3.1-1.2-1.1-1.1-1.4-2.4-1.3-3.9,0-1.3,.7-2.2,1.7-3.1,1.4-1,3.5-1.2,5-.3Zm-4,2.6c-.4,.6-.4,1.2-.3,1.9,.3,.6,.7,1,1.3,1.4,.6,.2,1.1,.2,1.7,0,.5-.3,.8-.7,1.2-1.2,.2-.7,0-1.3-.2-1.9-.4-.5-.9-.8-1.5-.9-.9,0-1.4,.2-2,.9Z"/>
    <path class="cls-1" d="M34.9,28.9c.4,.3,.5,.4,.6,.9,0,.4,0,.6-.2,1q-.3,.2-.6,.5c-1.8,1.4-3.3,3-4.5,4.9q-.9,1.4-1.5,1.6c-.2,0-.4,0-.6,0-.1,0-.2,0-.3,0-.1,0-.2,0-.4,0-.1,0-.2,0-.4,0-.4,0-.8,0-1.2,0-.3,0-.5,0-.8,0-.6,0-1.3,0-1.9,0,0,.1,0,.2,0,.3-.2,1-1,1.8-1.9,2.4-1.1,.6-2.3,.7-3.6,.4-1.2-.4-2.1-1.2-2.7-2.2-.5-1.1-.5-2.5-.3-3.6,.4-1.1,1.2-1.9,2.3-2.5,1.1-.5,2.3-.6,3.5-.2,1.2,.5,2,1.2,2.6,2.4q.1,.3,.1,.8,2.5,.2,4.9-.3c.5-.4,.7-1,.9-1.6,.2-.5,.6-.9,1-1.3,0,0,.1-.2,.2-.2,.7-.8,1.4-1.5,2.2-2.2,.1,0,.2-.2,.4-.3,.1,0,.2-.2,.3-.3,0,0,.2-.1,.3-.2,.4-.3,.9-.2,1.4-.2Zm-17.6,6.4c-.4,.6-.4,1.3-.3,2,.3,.6,.6,.9,1.2,1.3,.5,.2,1,.2,1.5,.1,.6-.3,1.3-.8,1.5-1.5,.1-.7,0-1.2-.3-1.8-.5-.6-1-.8-1.8-.9-.7,0-1.3,.4-1.7,.9Z"/>
    <path class="cls-1" d="M26.5,50.7c.4,.2,.6,.4,.8,.8,.1,.4,.2,.8,.3,1.2,0,.3,.2,.6,.2,.8,0,.1,0,.3,.1,.4,.3,1,.7,1.9,1.1,2.8,0,0,0,.2,.1,.2,.1,.2,.2,.4,.4,.7,.2,.5,.2,.8,.2,1.3-.3,.4-.5,.6-.9,.7-.3,0-.7,0-1,0q-.2,0-.4,0c-.4,0-.8,0-1.2,0-.3,0-.6,0-.8,0-.7,0-1.3,0-2,0,0,.1,0,.2,0,.4-.2,.9-.8,1.6-1.5,2.2-1.1,.7-2.2,.9-3.5,.8-1.3-.3-2.2-1-3-2-.7-1.1-.7-2.3-.6-3.6,.3-1.1,1-2,2-2.6,1.2-.6,2.4-.8,3.8-.5,1.2,.4,2.1,1.4,2.7,2.5q0,.2,0,.6,1.6,0,3.2-.1-.2-.6-.5-1.2-1.2-3.2-1.1-4.5c.4-.6,.8-.7,1.5-.6Zm-9.1,6.4c-.5,.6-.5,1.1-.4,1.9,.2,.5,.5,.8,.9,1.2,.6,.3,1.2,.5,1.9,.3,.7-.3,1.1-.7,1.4-1.4,.1-.5,.1-.9,0-1.4-.4-.6-.8-1-1.4-1.3-.9-.1-1.7,0-2.3,.8Z"/>
    <path class="cls-1" d="M69.3,50.7c.4,.2,.5,.2,.8,.6,.1,.8,0,1.6-.3,2.5,0,.1,0,.2-.1,.4-.3,1-.7,2-1.1,3,1.1,0,2.1,0,3.2,.1,0-.2,0-.4,.1-.6,.5-1,1.4-1.9,2.4-2.4,1.1-.4,2.6-.4,3.7,.1,1.1,.7,1.9,1.5,2.3,2.7,.2,1.2,.2,2.6-.5,3.6,0,0-.1,.2-.2,.3-.7,1-1.6,1.6-2.7,1.9-1.3,.2-2.4,0-3.5-.7-.8-.5-1.3-1.2-1.7-2.1v-.5c0,0-.1,0-.2,0-.7,0-1.5,0-2.2,0-.3,0-.6,0-.8,0-.4,0-.8,0-1.2,0-.1,0-.2,0-.4,0-.6,0-.9,0-1.4-.4-.3-.5-.3-.7-.2-1.2,.2-.5,.4-.9,.7-1.4,.8-1.6,1.3-3.1,1.7-4.8,.1-.4,.2-.6,.5-.9,.4-.2,.7-.2,1.1-.2Zm4.9,6.5c-.4,.6-.5,1-.4,1.7,.3,.8,.7,1.2,1.4,1.6,.7,.2,1.3,0,1.9-.3,.5-.4,.8-.9,.9-1.5,0-.7,0-1.2-.6-1.7-.6-.6-1.1-.7-1.9-.7-.6,0-1,.5-1.4,.9Z"/>
    <path class="cls-1" d="M43.3,67.8c.1,0,.3,0,.4,0,.2,0,.3,0,.5,0,.5,0,.9,0,1.4,.1,.1,0,.2,0,.3,0,1.2,.1,2.4,0,3.6,0q.2,0,.3,0t1.4-.1,.3,0c.1,0,.2,0,.3,0,.4,0,.6,.1,.9,.4,.3,.5,.3,.6,.3,1.2-.2,.4-.3,.6-.7,.8-.1,0-.3,0-.4,0-.1,0-.3,0-.4,0-.8,.1-1.5,.2-2.2,.2-.1,0-.2,0-.3,0q-.1,0-.3,0,0,.2,0,.3c0,1.1,0,2.2,0,3.2,0,.6,0,1.1,0,1.7,0,.5,0,1.1,0,1.6,0,.2,0,.4,0,.6,0,.3,0,.6,0,.9q0,.2,0,.5c0,.5-.3,.7-.7,1.1q-.3,0-.5,0-.1,0-.2,0c-.4-.1-.6-.4-.9-.7q0-.4,0-.9c0,0,0-.2,0-.3,0-.3,0-.6,0-.9,0-.2,0-.4,0-.6,0-.5,0-1.1,0-1.6,0-.6,0-1.1,0-1.7,0-1.1,0-2.2,0-3.3,0,0-.2,0-.3,0q-.2,0-.3,0c-.1,0-.2,0-.3,0-.5,0-1.1,0-1.6-.2-.1,0-.2,0-.3,0-.7-.1-1.1-.3-1.5-.8-.1-.4,0-.6,0-1,.4-.5,.7-.7,1.3-.6Z"/>
    <path class="cls-1" d="M26.7,39.5q.5,0,.8,.3c.3,.5,.4,.9,.3,1.5,0,.3-.2,.6-.3,.9-.3,1.2-.6,2.4-.7,3.7q0,.2,0,.4c0,.3,0,.5,0,.8,0,.1,0,.2,0,.4,0,.1,0,.2,0,.3-.1,.5-.4,.7-.7,1-.4,0-.7,0-1.1,0-.1,0-.2,0-.3,0-.3,0-.7,0-1,0-.2,0-.5,0-.7,0-.5,0-1,0-1.5,0-.6,0-1.3,0-1.9,0-.5,0-1,0-1.5,0-.2,0-.5,0-.7,0-.3,0-.7,0-1,0,0,0-.2,0-.3,0-.5,0-.7,0-1.1-.4-.3-.3-.3-.4-.3-.8,0,0,0-.2,0-.2,.1-.4,.4-.6,.7-.9q.4,0,.9,0t.3,0c.3,0,.6,0,.9,0,.2,0,.4,0,.6,0,.5,0,1.1,0,1.6,0,.6,0,1.1,0,1.7,0,1.1,0,2.2,0,3.3,0,0,0,0-.2,0-.3q0-.2,0-.4c0-.1,0-.2,0-.4,0-.5,0-1,.2-1.5,0-.1,0-.2,0-.3,.1-.8,.3-1.5,.5-2.2,0,0,0-.2,0-.3,.2-.7,.6-1.5,1.4-1.5Z"/>
    <path class="cls-1" d="M47.5,14.6c0,0,.2,0,.2,0,.4,.1,.6,.4,.9,.7q0,.4,0,.9c0,0,0,.2,0,.3,0,.3,0,.6,0,.9,0,.2,0,.4,0,.6,0,.5,0,1.1,0,1.6,0,.6,0,1.1,0,1.7,0,1.1,0,2.2,0,3.3,0,0,.2,0,.3,0,.1,0,.2,0,.3,0,.1,0,.2,0,.3,0,.5,0,1.1,0,1.6,.2,.1,0,.2,0,.3,0,.7,.1,1.1,.3,1.5,.8,0,.5,0,.8-.2,1.3-.4,.3-.7,.4-1.2,.4-.4,0-.8-.1-1.1-.2-.4,0-.8-.1-1.3-.1-.1,0-.3,0-.4,0-.3,0-.5,0-.8,0-.1,0-.2,0-.4,0-.1,0-.2,0-.3,0-.5-.1-.7-.4-1-.7,0-.4,0-.7,0-1.1,0-.1,0-.2,0-.3,0-.3,0-.7,0-1,0-.2,0-.5,0-.7,0-.5,0-1,0-1.5,0-.6,0-1.3,0-1.9,0-.5,0-1,0-1.5,0-.2,0-.5,0-.7,0-.3,0-.7,0-1,0,0,0-.2,0-.3,0-.5,0-.7,.4-1.1,.3-.3,.4-.3,.8-.3Z"/>
    <path class="cls-1" d="M49.4,46.9c.7,.5,1.2,1.2,1.4,2.1,.1,1.2,0,2-.8,3.1-.3,.3-.6,.6-1,.8h-.4c0,.1,0,.3,0,.4q0,.5-.2,.7c-.4,.2-.7,.3-1.1,.3-.5-.2-.6-.3-.9-.8q0-.3,0-.6t-.2,0c-.7-.2-1.2-.7-1.6-1.3-.5-.9-.6-1.8-.3-2.8,.4-1,1-1.7,2-2.1,1.1-.3,2.1-.2,3.1,.4Zm-2.7,2.1c-.3,.3-.3,.5-.2,1q0,.4,.3,.7c.4,.2,.6,.2,1.1,.1q.4-.2,.6-.6c0-.5,0-.8-.3-1.1-.5-.3-1-.4-1.5,0Z"/>
  </g>
</svg>