<?xml version="1.0" encoding="UTF-8"?>
<svg id="Layer_1" data-name="Layer 1" xmlns="http://www.w3.org/2000/svg" width="95" height="95" viewBox="0 0 95 95">
  <defs>
    <style>
      .cls-1 {
        fill: #fff;
      }

      .cls-2 {
        fill: #28006c;
      }
    </style>
  </defs>
  <circle class="cls-2" cx="47.5" cy="47.5" r="47.5"/>
  <g>
    <path class="cls-1" d="M49.4,6.5c.5,.2,.8,.6,1.2,.9,.1,.1,.2,.2,.4,.3,.3,.2,.5,.5,.8,.7,.3,.3,.7,.6,1,.9,.6,.5,1.2,1.1,1.8,1.7q.2,.2,.3,.3c1.4,1.3,2.7,2.6,3.9,4,.1,.1,.3,.3,.4,.4,3.2,3.7,5.2,8.1,5.5,13q0,.2,0,.4c.1,2.9-.6,5.7-1.2,8.5-.1,.5-.2,1.1-.3,1.6-.2,.9-.4,1.8-.6,2.7-.2,1.2-.5,2.3-.7,3.5-.2,1-.4,2-.6,3,0,.3-.1,.6-.2,1-.2,1.2-.5,2.3-.7,3.5,0,.4-.2,.8-.2,1.1-.1,.6-.2,1.1-.4,1.7,0,.2,0,.3-.1,.5-.2,.9-.4,1.5-1.1,2.2-.5,.3-.8,.3-1.4,.4q-.2,0-.5,0c-.2,0-.3,0-.5,0-.2,0-.4,0-.5,0-.6,0-1.2,0-1.8,0-.2,0-.4,0-.6,0-1.1,0-2.2,0-3.2,0-1,0-2,0-3,0-.9,0-1.7,0-2.6,0-.5,0-1,0-1.6,0-.6,0-1.2,0-1.7,0-.2,0-.3,0-.5,0-1,0-1.6,0-2.4-.7-.7-.9-.8-1.8-1-2.9,0-.2,0-.4-.1-.6-.1-.5-.2-1-.3-1.5-.1-.5-.2-1.1-.3-1.6-.2-1-.4-2-.6-3-.3-1.2-.5-2.5-.8-3.7,0-.4-.2-.9-.3-1.3,0-.1,0-.2,0-.3-.1-.7-.3-1.4-.4-2.2,0-.4-.2-.8-.2-1.2,0-.2,0-.4-.1-.6-.2-1-.4-1.9-.6-2.9,0-.2,0-.4-.1-.6,0-.4-.2-.7-.2-1.1-1.2-5.5-.5-11,2.5-15.9,1-1.5,2.1-2.8,3.3-4.1,.1-.1,.3-.3,.4-.4,1.4-1.6,2.9-3.2,4.6-4.6,.4-.3,.7-.6,1-1q3-2.8,4.9-2.4Zm-6.2,20.4c-1.4,1.8-1.8,3.7-1.6,5.9,.3,1.8,1.3,3.2,2.7,4.2,1.6,1.1,3.2,1.5,5,1.3,1.3-.3,2.4-.7,3.4-1.5,.1,0,.3-.2,.4-.3,1.4-1.3,2.1-2.9,2.1-4.8,0-2.1-.5-3.6-1.9-5.2-1.6-1.4-3.3-2.1-5.4-2.1-1.8,.2-3.6,1-4.8,2.3Z"/>
    <path class="cls-1" d="M68.3,63.6c.6,.5,1,.9,1.1,1.7q0,.2,0,.4c0,.2,0,.3,0,.5,0,.2,0,.3,0,.5q0,.3,0,.6c0,.5,0,1,0,1.5,0,.4,0,.8,0,1.3,0,1,0,2,0,3,0,1,0,2.1,0,3.1,0,.9,0,1.8,0,2.6,0,.5,0,1.1,0,1.6,0,.6,0,1.2,0,1.8q0,.3,0,.5c0,.9,0,1.5-.5,2.2-.8,.7-1.3,.8-2.4,.8-.6,0-.9-.2-1.4-.7-.7-1-.7-1.8-.7-2.9,0-.2,0-.4,0-.6,0-.5,0-1,0-1.5,0-.5,0-1,0-1.6,0-.9,0-1.8,0-2.6,0-1,0-2,0-3,0-1,0-2,0-2.9,0-.4,0-.8,0-1.2,0-.6,0-1.2,0-1.7,0-.2,0-.3,0-.5,0-1,0-1.7,.8-2.5,.9-.7,2-1,3-.3Z"/>
    <path class="cls-1" d="M31.1,63.6c.6,.5,1,.9,1.1,1.7q0,.2,0,.4c0,.2,0,.3,0,.5,0,.2,0,.3,0,.5q0,.3,0,.6c0,.5,0,1,0,1.5,0,.4,0,.8,0,1.3,0,1,0,2,0,3,0,1,0,2.1,0,3.1,0,.9,0,1.8,0,2.6,0,.5,0,1.1,0,1.6,0,.6,0,1.2,0,1.8q0,.3,0,.5c0,.9,0,1.5-.5,2.2-.8,.7-1.3,.8-2.4,.8-.6,0-.9-.2-1.4-.7-.7-1-.7-1.8-.7-2.9,0-.2,0-.4,0-.6,0-.5,0-1,0-1.5,0-.5,0-1,0-1.6,0-.9,0-1.8,0-2.6,0-1,0-2,0-3,0-1,0-2,0-2.9,0-.4,0-.8,0-1.2,0-.6,0-1.2,0-1.7,0-.2,0-.3,0-.5,0-1,0-1.7,.8-2.5,.9-.7,2-1,3-.3Z"/>
    <path class="cls-1" d="M59,69.8c.5,.4,.8,.8,1.1,1.4,0,.4,0,.8,0,1.2q0,.2,0,.4c0,.4,0,.8,0,1.2,0,.3,0,.6,0,.9,0,.6,0,1.2,0,1.8,0,.8,0,1.5,0,2.3,0,.6,0,1.2,0,1.8,0,.3,0,.6,0,.8,0,.4,0,.8,0,1.2q0,.2,0,.4c0,.7-.1,1.2-.5,1.9-.8,.7-1.3,.8-2.4,.8-.6,0-.9-.2-1.4-.7-.5-.8-.7-1.4-.7-2.4,0-.1,0-.2,0-.4,0-.4,0-.8,0-1.2,0-.3,0-.6,0-.8,0-.6,0-1.2,0-1.8,0-.8,0-1.5,0-2.3,0-.6,0-1.2,0-1.7,0-.3,0-.6,0-.8,0-.4,0-.8,0-1.2,0-.1,0-.2,0-.3,0-.8,.2-1.5,.8-2.1,.9-.7,2-1,3-.3Z"/>
    <path class="cls-1" d="M40.4,69.8c.5,.4,.8,.8,1.1,1.4,0,.4,0,.8,0,1.2q0,.2,0,.4c0,.4,0,.8,0,1.2,0,.3,0,.6,0,.9,0,.6,0,1.2,0,1.8,0,.8,0,1.5,0,2.3,0,.6,0,1.2,0,1.8,0,.3,0,.6,0,.8,0,.4,0,.8,0,1.2q0,.2,0,.4c0,.7-.1,1.2-.5,1.9-.8,.7-1.3,.8-2.4,.8-.6,0-.9-.2-1.4-.7-.5-.8-.7-1.4-.7-2.4,0-.1,0-.2,0-.4,0-.4,0-.8,0-1.2,0-.3,0-.6,0-.8,0-.6,0-1.2,0-1.8,0-.8,0-1.5,0-2.3,0-.6,0-1.2,0-1.7,0-.3,0-.6,0-.8,0-.4,0-.8,0-1.2,0-.1,0-.2,0-.3,0-.8,.2-1.5,.8-2.1,.9-.7,2-1,3-.3Z"/>
    <path class="cls-1" d="M29.2,40.3h.3c0,0,0,.2,0,.3,.4,2.1,.9,4.2,1.3,6.3,.2,1,.4,2,.6,3.1,.2,1,.4,2,.6,3,0,.4,.2,.8,.2,1.1,.1,.5,.2,1.1,.3,1.6,0,.2,0,.3,0,.5,.2,.9,.4,1.8,.6,2.6-.7,0-1.4,0-2.1,0-.2,0-.4,0-.6,0q-1.9,0-2.7-.7c-.8-1.2-.7-2.6-.7-4,0-.3,0-.5,0-.8,0-.6,0-1.1,0-1.7,0-.7,0-1.4,0-2.1,0-.6,0-1.1,0-1.7,0-.3,0-.5,0-.8,0-2,0-3.8,1.1-5.6,0-.2,.2-.3,.3-.5q.3-.4,.6-.7Z"/>
    <path class="cls-1" d="M67.3,40.3c.6,.3,.8,.6,1.2,1.2,0,.2,.2,.3,.3,.5,.8,1.7,.8,3.6,.8,5.5,0,.3,0,.5,0,.8,0,.6,0,1.1,0,1.7,0,.7,0,1.4,0,2.1,0,.6,0,1.1,0,1.7,0,.3,0,.5,0,.8q0,2.6-.7,3.6c-1,.8-2,.7-3.2,.7-.2,0-.4,0-.6,0-.5,0-1,0-1.4,0,.1-1,.3-2,.5-3,0-.2,0-.3,.1-.5,.1-.6,.2-1.1,.3-1.7,0-.4,.2-.8,.2-1.2,.2-.9,.4-1.8,.6-2.7,.2-1,.4-2.1,.6-3.1,.4-2.1,.9-4.2,1.3-6.3Z"/>
    <path class="cls-1" d="M43.3,63.3h10.2c0,2.7-1.5,5.1-3,7.3,0,0-.1,.2-.2,.3-.4,.7-.8,1.1-1.6,1.3-.6,0-1.1,0-1.6-.4-1.6-1.7-2.7-4.1-3.6-6.2,0-.2-.1-.3-.2-.5q-.1-.4-.1-1.8Z"/>
    <path class="cls-1" d="M49.9,77.6c.6,.5,.8,.9,.9,1.7,0,.2,0,.5,0,.7,0,.1,0,.2,0,.4,0,.3,0,.5,0,.8,0,.4,0,.8,0,1.2,0,.2,0,.5,0,.7q0,.2,0,.3c0,.8-.2,1.2-.7,1.9-.8,.6-1.6,.6-2.6,.5-.7-.3-1.1-.7-1.4-1.4,0-.4,0-.8,0-1.3,0-.1,0-.2,0-.4,0-.3,0-.5,0-.8,0-.4,0-.8,0-1.2,0-.2,0-.5,0-.7,0-.1,0-.2,0-.3,0-.8,.2-1.2,.7-1.9,1-.8,2.1-.8,3.2-.2Z"/>
    <path class="cls-1" d="M49.6,29.2c.6,.4,.9,.8,1.2,1.4,0,.8,.1,1.5-.3,2.2-.6,.7-1.1,1-2,1-.6,0-1-.2-1.6-.5-.7-.8-.8-1.3-.8-2.4,0-.7,.4-1.2,1-1.6,.8-.5,1.7-.5,2.5-.2Z"/>
  </g>
</svg>