<?xml version="1.0" encoding="UTF-8"?><svg id="a" xmlns="http://www.w3.org/2000/svg" width="42.604" height="79.496" viewBox="0 0 42.604 79.496"><path d="M22.404.096c.5.2.8.6,1.2.9.1.1.2.2.4.3.3.2.5.5.8.7.3.3.7.6,1,.9.6.5,1.2,1.1,1.8,1.7.133.133.233.233.3.3,1.4,1.3,2.7,2.6,3.9,4,.1.1.3.3.4.4,3.2,3.7,5.2,8.1,5.5,13v.4c.1,2.9-.6,5.7-1.2,8.5-.1.5-.2,1.1-.3,1.6-.2.9-.4,1.8-.6,2.7-.2,1.2-.5,2.3-.7,3.5-.2,1-.4,2-.6,3,0,.3-.1.6-.2,1-.2,1.2-.5,2.3-.7,3.5,0,.4-.2.8-.2,1.1-.1.6-.2,1.1-.4,1.7,0,.2,0,.3-.1.5-.2.9-.4,1.5-1.1,2.2-.5.3-.8.3-1.4.4H13.704c-1,0-1.6,0-2.4-.7-.7-.9-.8-1.8-1-2.9,0-.2,0-.4-.1-.6-.1-.5-.2-1-.3-1.5s-.2-1.1-.3-1.6c-.2-1-.4-2-.6-3-.3-1.2-.5-2.5-.8-3.7,0-.4-.2-.9-.3-1.3v-.3c-.1-.7-.3-1.4-.4-2.2,0-.4-.2-.8-.2-1.2,0-.2,0-.4-.1-.6-.2-1-.4-1.9-.6-2.9,0-.2,0-.4-.1-.6,0-.4-.2-.7-.2-1.1-1.2-5.5-.5-11,2.5-15.9,1-1.5,2.1-2.8,3.3-4.1.1-.1.3-.3.4-.4,1.4-1.6,2.9-3.2,4.6-4.6.4-.3.7-.6,1-1C20.104.329,22.554-.072,22.49.01c-.197.042-.086.086-.086.086ZM16.204,20.496c-1.4,1.8-1.8,3.7-1.6,5.9.3,1.8,1.3,3.2,2.7,4.2,1.6,1.1,3.2,1.5,5,1.3,1.3-.3,2.4-.7,3.4-1.5.1,0,.3-.2.4-.3,1.4-1.3,2.1-2.9,2.1-4.8,0-2.1-.5-3.6-1.9-5.2-1.6-1.4-3.3-2.1-5.4-2.1-1.8.2-3.6,1-4.8,2.3l.1.2Z" fill="#28006c"/><path d="M41.304,57.196c.6.5,1,.9,1.1,1.7v17.4c0,.9,0,1.5-.5,2.2-.8.7-1.3.8-2.4.8-.6,0-.9-.2-1.4-.7-.7-1-.7-1.8-.7-2.9v-15.6c0-1,0-1.7.8-2.5.9-.7,2-1,3-.3l.1-.1Z" fill="#28006c"/><path d="M4.104,57.196c.6.5,1,.9,1.1,1.7v17.4c0,.9,0,1.5-.5,2.2-.8.7-1.3.8-2.4.8-.6,0-.9-.2-1.4-.7-.7-1-.7-1.8-.7-2.9v-15.6c0-1,0-1.7.8-2.5.9-.7,2-1,3-.3l.1-.1Z" fill="#28006c"/><path d="M32.004,63.396c.5.4.8.8,1.1,1.4v1.2c0,.133,0,.267,0,.4v10c0,.133,0,.267,0,.4,0,.7-.1,1.2-.5,1.9-.8.7-1.3.8-2.4.8-.6,0-.9-.2-1.4-.7-.5-.8-.7-1.4-.7-2.4v-10.5c0-.8.2-1.5.8-2.1.9-.7,2-1,3-.3l.1-.1Z" fill="#28006c"/><path d="M13.404,63.396c.5.4.8.8,1.1,1.4v12c0,.7-.1,1.2-.5,1.9-.8.7-1.3.8-2.4.8-.6,0-.9-.2-1.4-.7-.5-.8-.7-1.4-.7-2.4v-10.5c0-.8.2-1.5.8-2.1.9-.7,2-1,3-.3l.1-.1Z" fill="#28006c"/><path d="M2.204,33.896h.3v.3c.4,2.1.9,4.2,1.3,6.3.2,1,.4,2,.6,3.1.2,1,.4,2,.6,3,0,.4.2.8.2,1.1.1.5.2,1.1.3,1.6v.5c.2.9.4,1.8.6,2.6h-2.7c-1.267,0-2.167-.233-2.7-.7C-.096,50.496.004,49.096.004,47.696v-7.1C.004,38.596.004,36.796,1.104,34.996c0-.2.2-.3.3-.5.2-.267.4-.5.6-.7l.2.1Z" fill="#28006c"/><path d="M40.304,33.896c.6.3.8.6,1.2,1.2,0,.2.2.3.3.5.8,1.7.8,3.6.8,5.5v7.1c0,1.733-.233,2.933-.7,3.6-1,.8-2,.7-3.2.7h-2c.1-1,.3-2,.5-3,0-.2,0-.3.1-.5.1-.6.2-1.1.3-1.7,0-.4.2-.8.2-1.2.2-.9.4-1.8.6-2.7.2-1,.4-2.1.6-3.1.4-2.1.9-4.2,1.3-6.3v-.1Z" fill="#28006c"/><path d="M16.304,56.896h10.2c0,2.7-1.5,5.1-3,7.3,0,0-.1.2-.2.3-.4.7-.8,1.1-1.6,1.3-.6,0-1.1,0-1.6-.4-1.6-1.7-2.7-4.1-3.6-6.2,0-.2-.1-.3-.2-.5-.067-.267-.1-.867-.1-1.8h.1Z" fill="#28006c"/><path d="M22.904,71.196c.6.5.8.9.9,1.7v4.1c0,.8-.2,1.2-.7,1.9-.8.6-1.6.6-2.6.5-.7-.3-1.1-.7-1.4-1.4v-4.7c0-.8.2-1.2.7-1.9,1-.8,2.1-.8,3.2-.2h-.1Z" fill="#28006c"/><path d="M22.604,22.796c.6.4.9.8,1.2,1.4,0,.8.1,1.5-.3,2.2-.6.7-1.1,1-2,1-.6,0-1-.2-1.6-.5-.7-.8-.8-1.3-.8-2.4,0-.7.4-1.2,1-1.6.8-.5,1.7-.5,2.5-.2v.1Z" fill="#28006c"/></svg>