<?xml version="1.0" encoding="UTF-8"?><svg id="a" xmlns="http://www.w3.org/2000/svg" width="63.057" height="63.019" viewBox="0 0 63.057 63.019"><path d="M5.894,10.451c.135,0,.27-.001.409-.002.449-.002.897,0,1.346,0,.323,0,.646-.002.97-.003.785-.002,1.569-.002,2.354-.002.638,0,1.276,0,1.915,0q.137,0,.276,0c.185,0,.37,0,.555,0,1.733-.002,3.465-.001,5.198,0,1.582.001,3.165,0,4.747-.003,1.628-.003,3.256-.004,4.884-.003.913,0,1.825,0,2.738-.002.777-.002,1.554-.002,2.331,0,.396.001.792.001,1.187,0q3.822-.014,5.432,1.292c.077.062.154.123.233.187,1.055.945,1.523,2.3,1.635,3.683.011.313.016.626.017.939,0,.114.002.229.002.347.001.24.002.481.002.721,0,.363.005.726.01,1.089.012,2.004-.232,3.655-1.698,5.142-.106.099-.213.198-.322.299.073.074.145.149.22.226,1.316,1.396,1.784,2.71,1.782,4.607,0,.118.001.236.002.357,0,.248,0,.496,0,.744,0,.376.002.751.006,1.127.007,2.122-.263,3.757-1.764,5.347l-.246.246c.062.054.125.108.189.163,1.017.937,1.684,2.168,1.8,3.562.01.313.013.624.013.937,0,.115.001.23.002.348,0,.242,0,.484,0,.726,0,.365.002.73.006,1.096.007,2.124-.191,3.784-1.664,5.431-1.185,1.11-2.693,1.414-4.255,1.402-.13,0-.259,0-.393,0-.425,0-.851-.002-1.276-.004-.296,0-.592,0-.888-.001-.777,0-1.554-.003-2.331-.006-.934-.003-1.867-.004-2.801-.006-1.416-.002-2.833-.007-4.249-.011v6.142c.459-.004.917-.009,1.39-.013.446-.003.892-.005,1.338-.007.309-.002.618-.004.927-.008.445-.004.89-.007,1.336-.008.137-.002.275-.004.416-.006.872,0,1.622.054,2.34.604.056.068.112.136.169.205.058.067.116.133.176.202.193.36.21.717.262,1.119q.196-.001.396-.002c1.233-.007,2.465-.013,3.698-.017.634-.002,1.267-.005,1.901-.009.612-.004,1.223-.006,1.835-.007.233,0,.466-.002.7-.004.327-.003.654-.003.981-.003q.144-.002.291-.004c.589.003.986.095,1.499.414.267.325.246.495.23.921-.122.49-.195.627-.599.921-.369.046-.691.062-1.059.056q-.16,0-.323,0c-.352,0-.705-.004-1.057-.008-.244,0-.489-.002-.733-.002-.643-.002-1.286-.007-1.929-.012-.656-.005-1.313-.007-1.969-.01-1.288-.005-2.575-.014-3.863-.024-.016.134-.031.267-.048.405-.102.618-.352,1.003-.82,1.415-.472.289-.873.285-1.415.287-.082,0-.165,0-.25.001-.277.001-.554.002-.831.002-.198,0-.397.002-.595.002-.652.003-1.304.004-1.956.005-.224,0-.449.001-.673.002-1.055.002-2.109.004-3.164.005-1.217.001-2.434.004-3.651.009-.941.004-1.882.006-2.823.006-.562,0-1.124.001-1.686.004-.529.003-1.058.003-1.586.002-.194,0-.388,0-.581.002q-1.816.015-2.526-.552c-.411-.461-.528-.998-.614-1.597-.11.001-.219.002-.332.003-1.034.01-2.068.017-3.102.022-.532.003-1.063.006-1.595.012-.513.005-1.026.008-1.539.01-.196,0-.391.003-.587.005-.274.004-.548.004-.822.004-.156.001-.312.002-.473.003-.464-.069-.607-.181-.886-.55-.09-.376-.07-.726,0-1.106.283-.404.509-.527.983-.614.274-.014.548-.022.823-.025.082-.001.163-.002.247-.004.269-.004.537-.007.806-.01.187-.003.373-.005.56-.008.49-.007.981-.013,1.471-.019.501-.006,1.001-.013,1.502-.02.982-.013,1.964-.026,2.945-.038.036-.135.072-.27.109-.409.18-.595.425-.919.928-1.28.524-.255,1.02-.292,1.596-.29.13,0,.261,0,.395,0q.209,0,.422.002t.435,0c.458,0,.916.002,1.374.004.311,0,.622.001.933.002.761.001,1.523.004,2.284.006v-6.142c-.941.004-1.881.009-2.85.013-.598.002-1.196.004-1.794.005-.948.002-1.896.005-2.844.01-.765.004-1.529.006-2.294.007-.291,0-.582.002-.873.004-.409.003-.818.003-1.228.003q-.178.002-.36.004c-1.598-.007-2.959-.439-4.136-1.542C.348,47.696.027,46.466.024,44.813c0-.137-.002-.275-.002-.416-.001-.29-.002-.58-.002-.87,0-.44-.005-.88-.01-1.321,0-.283-.001-.566-.001-.848-.002-.13-.004-.26-.005-.394.011-1.744.788-3.018,1.905-4.299-.055-.051-.11-.101-.167-.154-1.06-1.013-1.665-2.12-1.726-3.609-.003-.249-.004-.498-.004-.747,0-.134-.001-.268-.002-.406,0-.281,0-.563,0-.844.001-.427-.002-.853-.006-1.28,0-.275,0-.55,0-.825-.001-.126-.003-.251-.004-.381.013-1.37.394-2.512,1.294-3.548.118-.143.236-.287.353-.43.086-.101.172-.203.261-.307-.073-.073-.145-.146-.22-.221-.946-.992-1.629-2.07-1.644-3.471-.002-.123-.003-.247-.005-.374,0-.133-.002-.266-.003-.403,0-.138-.002-.276-.003-.418-.002-.292-.003-.584-.004-.876-.001-.297-.004-.594-.008-.892-.005-.431-.007-.861-.008-1.292-.002-.131-.004-.262-.007-.398.003-1.196.303-2.247,1.042-3.203.049-.068.097-.135.147-.205,1.164-1.51,2.876-1.942,4.699-1.931ZM3.228,13.462q-.115.095-.232.193c-.658.816-.795,1.668-.789,2.69,0,.121-.002.242-.002.367,0,.254,0,.509.001.763.002.386-.002.772-.007,1.158,0,.248,0,.497,0,.745-.002.114-.003.228-.005.345.013.93.275,1.74.912,2.437.86.805,1.71.924,2.845.917q.201,0,.406.002c.448.002.896,0,1.344,0,.321,0,.643.002.964.003.782.002,1.564.002,2.347.002.636,0,1.272,0,1.908,0,.091,0,.181,0,.275,0,.184,0,.368,0,.552,0,1.725.002,3.451.001,5.176,0,1.577-.001,3.155,0,4.732.003,1.621.003,3.242.004,4.862.003.909,0,1.819,0,2.728.002.855.002,1.711.001,2.566,0,.314,0,.627,0,.941.001.429.002.857,0,1.286-.002q.186.002.375.004c.952-.01,1.697-.224,2.441-.833.814-.994,1.031-1.753,1.043-3.022,0-.105.002-.21.003-.318.002-.222.003-.444.004-.666.001-.225.004-.45.008-.675q.061-2.152-.927-4.003c-.897-.771-1.784-.94-2.941-.929q-.201-.001-.405-.002c-.446-.002-.892,0-1.338.002-.321,0-.641-.001-.962-.002-.779-.002-1.558,0-2.337.001-.908.002-1.815.002-2.723.001-1.62,0-3.24.001-4.86.004-1.571.003-3.141.004-4.712.003-1.712-.001-3.424-.002-5.136,0-.183,0-.365,0-.548,0-.09,0-.18,0-.272,0-.632,0-1.264,0-1.897,0-.851,0-1.703,0-2.554.003-.312,0-.625,0-.937,0-.426,0-.853,0-1.279.003-.124,0-.247-.001-.374-.002-.939.008-1.749.165-2.482.802ZM3.013,26.223c-.454.603-.749,1.142-.759,1.908-.002.112-.003.225-.005.341,0,.121-.002.243-.003.368,0,.125-.002.251-.003.38-.002.265-.003.531-.004.796-.002.404-.008.808-.013,1.212-.001.258-.002.517-.003.775-.002.12-.004.24-.007.364.003.947.222,1.585.842,2.303,1.094.938,2.092,1.051,3.494,1.045.13,0,.259,0,.393.001.432,0,.864,0,1.296,0,.311,0,.621,0,.932.001.755.001,1.51,0,2.264,0,.614,0,1.227,0,1.841,0,.087,0,.175,0,.265,0,.178,0,.356,0,.533,0,1.665,0,3.33,0,4.995-.001,1.427-.001,2.855,0,4.282,0,1.659.001,3.319.002,4.978.001.177,0,.354,0,.531,0q.131,0,.264,0c.613,0,1.225,0,1.838,0,.825,0,1.65,0,2.476-.001.303,0,.605,0,.908,0,.414,0,.827,0,1.241-.001.119,0,.239.001.362.002,1.214-.007,2.156-.161,3.056-1.016.783-.848.898-1.829.897-2.944,0-.102.001-.204.002-.309,0-.215,0-.429,0-.644,0-.325.002-.65.006-.974.006-1.424.005-2.683-1.032-3.767-.96-.828-2.037-.84-3.249-.839-.13,0-.259,0-.393-.001-.435-.001-.869-.001-1.304-.001-.312,0-.623-.001-.935-.002-.846-.002-1.693-.002-2.539-.003-.529,0-1.058,0-1.587-.001-1.465-.001-2.931-.003-4.396-.003-.094,0-.187,0-.284,0q-.141,0-.285,0c-.19,0-.381,0-.571,0-.094,0-.189,0-.286,0-1.53,0-3.059-.003-4.589-.005-1.572-.003-3.143-.004-4.715-.005-.882,0-1.764,0-2.646-.003-.83-.002-1.659-.002-2.489-.001-.304,0-.608,0-.912-.002-.416-.002-.832,0-1.248,0-.12,0-.239-.002-.363-.003-1.116.008-2.257.216-3.076,1.031ZM2.799,39.117c-.495.805-.58,1.457-.58,2.387,0,.121-.002.243-.003.368-.001.256-.002.511-.001.767,0,.388-.005.776-.01,1.165,0,.25,0,.499,0,.749-.002.115-.004.229-.006.347.01.934.272,1.738.905,2.443.861.823,1.843.924,2.981.918.133,0,.267.001.404.002.446.002.891.001,1.337,0,.32,0,.64.002.96.003.778.003,1.557.003,2.335.003.633,0,1.266,0,1.899.001.183,0,.365,0,.548,0,.091,0,.182,0,.275,0,1.717.002,3.435.002,5.152.001,1.57,0,3.139.002,4.709.006,1.613.004,3.227.006,4.84.005.905,0,1.81,0,2.715.003.851.003,1.702.003,2.554,0,.312,0,.624,0,.936.002.427.002.853,0,1.28-.002.123.002.246.003.372.005,1.097-.014,1.95-.369,2.721-1.156.683-.772.801-1.78.794-2.772,0-.105,0-.21.001-.318,0-.22,0-.44-.002-.66-.002-.334,0-.668.002-1.002,0-.215,0-.431-.001-.646q.001-.147.002-.298c-.013-1.04-.295-2.05-1.034-2.812-.653-.502-1.216-.752-2.043-.754-.114,0-.229-.001-.347-.002-.125,0-.251,0-.38,0-.133,0-.267-.001-.405-.002-.449-.002-.898-.002-1.347-.003-.321,0-.642-.002-.964-.003-.965-.003-1.93-.005-2.895-.006-.273,0-.545,0-.818-.001-1.694-.003-3.388-.006-5.082-.007-.392,0-.785,0-1.177-.001q-.146,0-.295,0c-1.579-.002-3.158-.006-4.736-.011-1.622-.005-3.243-.008-4.865-.009-.91,0-1.82-.002-2.731-.006-.856-.004-1.713-.004-2.569-.003-.314,0-.628,0-.942-.003-.429-.003-.859-.002-1.288,0-.124-.002-.247-.003-.375-.005-1.153.013-2.085.405-2.826,1.304ZM20.089,50.424v6.142h1.966v-6.142h-1.966ZM11.613,58.778v1.966h18.796v-1.966H11.613Z" fill="#28006c"/><path d="M47.73.056q.228.156.456.367c.085.078.171.157.259.238q.133.127.269.256c.088.083.175.166.265.252.603.58,1.196,1.171,1.79,1.76.217.215.435.43.654.644.318.311.633.624.948.937.098.095.196.19.296.288.523.525.863.901.96,1.647-.178.498-.295.688-.737.983q-.376.084-.86,0c-.912-.609-1.668-1.544-2.44-2.316-.108-.108-.216-.216-.328-.328-.265-.265-.53-.53-.795-.796,0,.084,0,.168-.001.254-.01,2.037-.021,4.074-.034,6.112-.006.985-.012,1.97-.017,2.956-.004.859-.009,1.717-.015,2.576-.003.455-.006.909-.007,1.364-.002.507-.006,1.015-.01,1.522,0,.151,0,.302,0,.458-.001.138-.003.276-.004.419q-.001.18-.002.364c-.034.333-.095.528-.278.807-.451.3-.827.334-1.351.246-.299-.23-.447-.403-.614-.737-.013-.216-.018-.433-.019-.65-.001-.138-.002-.276-.004-.418q-.001-.228-.002-.46c-.001-.159-.002-.319-.004-.483-.003-.438-.006-.876-.008-1.313-.003-.457-.006-.915-.009-1.372-.006-.866-.012-1.732-.017-2.599-.006-.986-.013-1.972-.02-2.958-.014-2.029-.027-4.057-.04-6.086-.099.1-.198.2-.301.303-.367.37-.735.739-1.103,1.108-.159.16-.319.32-.478.48-.228.23-.457.459-.686.689-.071.072-.143.144-.216.218q-.625.625-1.186.689-.453-.046-.806-.322-.384-.497-.384-.829c.27-.904.891-1.447,1.551-2.095.117-.117.235-.234.352-.351.245-.244.49-.487.736-.729.316-.311.63-.623.944-.936.3-.299.6-.597.901-.894.113-.112.226-.224.343-.34.105-.103.209-.206.317-.312.092-.091.184-.182.279-.276.431-.397.892-.453,1.456-.332Z" fill="#28006c"/><path d="M57.19,8.41c.365.271.47.428.614.86.013.22.018.44.019.66.001.137.002.274.004.415q.001.225.002.455c.001.158.002.316.004.479.003.434.006.868.008,1.302.003.454.006.907.009,1.361.006.859.012,1.718.017,2.576.006.978.013,1.955.02,2.933.014,2.011.027,4.023.04,6.034.099-.1.198-.2.301-.303.367-.37.735-.739,1.103-1.108.159-.16.319-.32.478-.48.228-.23.457-.459.686-.689.071-.072.143-.144.216-.218q.625-.625,1.186-.689.453.046.814.292c.256.373.376.626.34,1.083-.404,1.247-2.183,2.506-3.093,3.413-.298.297-.595.595-.893.893-.19.19-.379.379-.569.569-.089.089-.177.178-.269.269-.082.082-.165.164-.25.249-.072.072-.144.144-.219.219-.41.378-.726.507-1.286.492-.328-.076-.474-.201-.72-.428q-.128-.117-.259-.237c-.464-.442-.923-.888-1.377-1.34-.102-.101-.203-.202-.308-.306-.213-.212-.426-.424-.639-.636-.326-.325-.653-.648-.98-.971-.208-.207-.415-.414-.622-.62-.098-.096-.196-.192-.296-.292-.09-.091-.181-.181-.274-.275-.079-.079-.159-.158-.241-.239-.323-.395-.449-.727-.438-1.236.15-.469.303-.611.729-.852q.407-.084.86,0c.865.61,1.592,1.454,2.334,2.204.12.12.24.241.359.361.29.291.58.583.869.875,0-.084,0-.169,0-.255.002-2.051.007-4.101.016-6.152.004-.992.007-1.983.008-2.975,0-.864.003-1.729.008-2.593.003-.458.004-.915.003-1.373-.001-.511.003-1.022.007-1.533-.001-.152-.002-.303-.003-.46q.015-1.141.38-1.522c.495-.332.714-.297,1.301-.213Z" fill="#28006c"/><path d="M11.367,40.35c.732.599,1.279,1.414,1.381,2.362.032,1.023-.209,1.888-.905,2.659-.74.667-1.632.968-2.623.923-.878-.135-1.581-.464-2.152-1.153-.089-.099-.177-.198-.269-.299-.55-.778-.545-1.603-.468-2.526.167-.829.64-1.51,1.327-2.001,1.154-.689,2.57-.681,3.709.036ZM8.542,42.685q-.092.374,0,.737c.238.326.415.462.791.607.419.01.602-.105.929-.361.215-.293.248-.435.23-.799-.135-.386-.268-.557-.599-.799-.667-.128-.956.08-1.351.614Z" fill="#28006c"/><path d="M11.624,27.979c.681.608,1.028,1.275,1.121,2.194.041,1.002-.283,1.799-.904,2.581-.576.566-1.38.917-2.187.969-1.189-.036-1.938-.435-2.749-1.29-.597-.907-.71-1.689-.576-2.772.275-.918.819-1.545,1.597-2.088,1.203-.63,2.636-.387,3.697.405ZM8.726,29.793c-.24.471-.201.717-.061,1.221q.12.254.369.369c.484.062.748.08,1.152-.207.227-.322.313-.504.322-.898q-.215-.456-.614-.737c-.515-.057-.76-.083-1.167.253Z" fill="#28006c"/><path d="M11.086,15.005c.797.458,1.25,1.067,1.551,1.93.253,1,.097,1.883-.41,2.777-.504.683-1.143,1.136-1.966,1.351-1.147.149-1.959-.096-2.918-.706-.718-.718-1.027-1.442-1.052-2.449.009-.898.239-1.526.806-2.219,1.232-1.008,2.474-1.373,3.988-.684ZM8.787,17.132c-.288.432-.317.597-.246,1.106.305.413.481.59.99.683.448-.086.589-.19.852-.56q.143-.357.123-.737c-.239-.43-.389-.582-.86-.729-.385-.008-.55.017-.86.238Z" fill="#28006c"/><path d="M32.543,41.894q.21-.006.423-.012,1.025-.007,1.527.35c.283.437.297.679.215,1.191-.263.416-.39.581-.86.737-.424.031-.849.028-1.275.031-.116.003-.232.005-.352.008q-1.083.006-1.567-.407c-.286-.428-.287-.602-.246-1.106.35-.97,1.268-.786,2.134-.791Z" fill="#28006c"/><path d="M32.543,16.741c.13-.002.259-.003.393-.005.125,0,.25,0,.378,0q.171,0,.346-.002c.328.031.525.102.803.276.312.421.3.843.246,1.351-.229.291-.408.45-.737.614-.462.036-.926.034-1.39.038q-.193.005-.389.011-.951.008-1.436-.282c-.269-.31-.341-.44-.386-.85.047-.481.197-.663.53-1.006.488-.244,1.106-.146,1.643-.146Z" fill="#28006c"/><path d="M26.293,41.863c.139-.003.277-.007.42-.01q.975.003,1.348.247c.236.263.369.51.428.859-.068.354-.127.65-.338.947-.556.364-1.205.281-1.843.284-.116.003-.232.005-.352.008-.623.003-1.065.005-1.567-.407-.311-.311-.289-.537-.314-.962.281-1.092,1.304-.977,2.218-.965Z" fill="#28006c"/><path d="M26.209,16.733c.123-.003.245-.005.372-.008q1.128-.006,1.617.407c.256.326.246.5.238.921q-.115.43-.341.7c-.59.336-1.143.284-1.809.268-.128,0-.256,0-.387,0q-1.079-.012-1.509-.291c-.3-.451-.334-.827-.246-1.351.572-.744,1.196-.641,2.065-.645Z" fill="#28006c"/><path d="M32.551,29.256c.102-.002.205-.004.31-.006.624,0,1.065.059,1.602.413.307.461.312.683.246,1.228q-.214.331-.614.614c-.516.089-1.021.08-1.543.069-.14.001-.279.003-.423.004q-1.024-.009-1.387-.297c-.294-.376-.324-.655-.332-1.128.151-.376.262-.555.618-.751.511-.152.994-.149,1.525-.147Z" fill="#28006c"/><path d="M26.27,29.263c.103-.003.207-.005.314-.008.632-.004,1.066.055,1.614.407.267.325.246.495.23.921-.12.481-.216.619-.599.921-.504.101-1.015.074-1.528.069-.139.003-.278.006-.422.009q-1.015-.002-1.52-.363c-.287-.439-.307-.675-.215-1.19.628-.781,1.198-.762,2.127-.768Z" fill="#28006c"/></svg>