<?xml version="1.0" encoding="UTF-8"?>
<svg id="Layer_1" data-name="Layer 1" xmlns="http://www.w3.org/2000/svg" width="95" height="95" viewBox="0 0 95 95">
  <defs>
    <style>
      .cls-1 {
        font-family: AcuminConcept-Bold, 'Acumin Variable Concept';
        font-size: 12px;
        font-variation-settings: 'wght' 700, 'wdth' 100, 'slnt' 0;
      }

      .cls-1, .cls-2 {
        fill: #fff;
      }

      .cls-3 {
        letter-spacing: 0em;
      }

      .cls-4 {
        letter-spacing: 0em;
      }

      .cls-5 {
        fill: #28006c;
      }
    </style>
  </defs>
  <circle class="cls-5" cx="47.5" cy="47.5" r="47.5"/>
  <g>
    <path class="cls-2" d="M74,39.9c.6,0,1-.5,1-1s-.5-1-1-1h-3.1v-4.1h3.1c.6,0,1-.5,1-1s-.5-1-1-1h-3.1v-2.1c0-2.8-2.3-5.1-5.1-5.1h-2.1v-3.1c0-.6-.5-1-1-1s-1,.5-1,1v3.1h-4.1v-3.1c0-.6-.5-1-1-1s-1,.5-1,1v3.1h-4.1v-3.1c0-.6-.5-1-1-1s-1,.5-1,1v3.1h-4.1v-3.1c0-.6-.5-1-1-1s-1,.5-1,1v3.1h-4.1v-3.1c0-.6-.5-1-1-1s-1,.5-1,1v3.1h-4.1v-3.1c0-.6-.5-1-1-1s-1,.5-1,1v3.1h-2.1c-2.8,0-5.1,2.3-5.1,5.1v2.1h-3.1c-.6,0-1,.5-1,1s.5,1,1,1h3.1v4.1h-3.1c-.6,0-1,.5-1,1s.5,1,1,1h3.1v4.1h-3.1c-.6,0-1,.5-1,1s.5,1,1,1h3.1v4.1h-3.1c-.6,0-1,.5-1,1s.5,1,1,1h3.1v4.1h-3.1c-.6,0-1,.5-1,1s.5,1,1,1h3.1v4.1h-3.1c-.6,0-1,.5-1,1s.5,1,1,1h3.1v2.1c0,2.8,2.3,5.1,5.1,5.1h2.1v3.1c0,.6,.5,1,1,1s1-.5,1-1v-3.1h4.1v3.1c0,.6,.5,1,1,1s1-.5,1-1v-3.1h4.1v3.1c0,.6,.5,1,1,1s1-.5,1-1v-3.1h4.1v3.1c0,.6,.5,1,1,1s1-.5,1-1v-3.1h4.1v3.1c0,.6,.5,1,1,1s1-.5,1-1v-3.1h4.1v3.1c0,.6,.5,1,1,1s1-.5,1-1v-3.1h2.1c2.8,0,5.1-2.3,5.1-5.1v-2.1h3.1c.6,0,1-.5,1-1s-.5-1-1-1h-3.1v-4.1h3.1c.6,0,1-.5,1-1s-.5-1-1-1h-3.1v-4.1h3.1c.6,0,1-.5,1-1s-.5-1-1-1h-3.1v-4.1h3.1c.6,0,1-.5,1-1s-.5-1-1-1h-3.1v-4.1h3.1Zm-5.1,26.5c0,1.7-1.4,3.1-3.1,3.1H29.1c-1.7,0-3.1-1.4-3.1-3.1V29.7c0-1.7,1.4-3.1,3.1-3.1h36.7c1.7,0,3.1,1.4,3.1,3.1v36.7h0Z"/>
    <path class="cls-2" d="M63.8,29.7H31.2c-1.1,0-2,.9-2,2v32.6c0,1.1,.9,2,2,2H63.8c1.1,0,2-.9,2-2V31.8c0-1.1-.9-2-2-2ZM31.2,64.4V31.8H63.8v32.6s-32.6,0-32.6,0h0Z"/>
  </g>
  <text class="cls-1" transform="translate(34.3 51.7)"><tspan class="cls-4" x="0" y="0">C</tspan><tspan class="cls-3" x="8.4" y="0">PU</tspan></text>
</svg>