<?xml version="1.0" encoding="UTF-8"?><svg id="a" xmlns="http://www.w3.org/2000/svg" width="56.1" height="56.1" viewBox="0 0 56.1 56.1"><path d="M54.6,19.9c.6,0,1-.5,1-1s-.5-1-1-1h-3.1v-4.1h3.1c.6,0,1-.5,1-1s-.5-1-1-1h-3.1v-2.1c0-2.8-2.3-5.1-5.1-5.1h-2.1V1.5c0-.6-.5-1-1-1s-1,.5-1,1v3.1h-4.1V1.5c0-.6-.5-1-1-1s-1,.5-1,1v3.1h-4.1V1.5c0-.6-.5-1-1-1s-1,.5-1,1v3.1h-4.1V1.5c0-.6-.5-1-1-1s-1,.5-1,1v3.1h-4.1V1.5c0-.6-.5-1-1-1s-1,.5-1,1v3.1h-4.1V1.5c0-.6-.5-1-1-1s-1,.5-1,1v3.1h-2.1c-2.8,0-5.1,2.3-5.1,5.1v2.1H1.5c-.6,0-1,.5-1,1s.5,1,1,1h3.1v4.1H1.5c-.6,0-1,.5-1,1s.5,1,1,1h3.1v4.1H1.5c-.6,0-1,.5-1,1s.5,1,1,1h3.1v4.1H1.5c-.6,0-1,.5-1,1s.5,1,1,1h3.1v4.1H1.5c-.6,0-1,.5-1,1s.5,1,1,1h3.1v4.1H1.5c-.6,0-1,.5-1,1s.5,1,1,1h3.1v2.1c0,2.8,2.3,5.1,5.1,5.1h2.1v3.1c0,.6.5,1,1,1s1-.5,1-1v-3.1h4.1v3.1c0,.6.5,1,1,1s1-.5,1-1v-3.1h4.1v3.1c0,.6.5,1,1,1s1-.5,1-1v-3.1h4.1v3.1c0,.6.5,1,1,1s1-.5,1-1v-3.1h4.1v3.1c0,.6.5,1,1,1s1-.5,1-1v-3.1h4.1v3.1c0,.6.5,1,1,1s1-.5,1-1v-3.1h2.1c2.8,0,5.1-2.3,5.1-5.1v-2.1h3.1c.6,0,1-.5,1-1s-.5-1-1-1h-3.1v-4.1h3.1c.6,0,1-.5,1-1s-.5-1-1-1h-3.1v-4.1h3.1c.6,0,1-.5,1-1s-.5-1-1-1h-3.1v-4.1h3.1c.6,0,1-.5,1-1s-.5-1-1-1h-3.1v-4.1s3.1,0,3.1,0ZM49.5,46.4c0,1.7-1.4,3.1-3.1,3.1H9.7c-1.7,0-3.1-1.4-3.1-3.1V9.7c0-1.7,1.4-3.1,3.1-3.1h36.7c1.7,0,3.1,1.4,3.1,3.1v36.7h0Z" fill="none" stroke="#28006c" stroke-miterlimit="10"/><path d="M44.4,9.7H11.8c-1.1,0-2,.9-2,2v32.6c0,1.1.9,2,2,2h32.6c1.1,0,2-.9,2-2V11.8c0-1.1-.9-2-2-2,0,0,0-.1,0-.1ZM11.8,44.4V11.8h32.6v32.6s-32.6,0-32.6,0Z" fill="none" stroke="#28006c" stroke-miterlimit="10"/><g isolation="isolate"><g isolation="isolate"><path d="M22.612,29.338c-.372,1.415-1.427,2.471-3.322,2.471-2.495,0-3.754-1.896-3.754-4.258,0-2.267,1.259-4.318,3.79-4.318,1.967,0,3.034,1.128,3.286,2.519h-1.104c-.3-.911-.899-1.595-2.219-1.595-1.847,0-2.591,1.679-2.591,3.358,0,1.643.708,3.37,2.639,3.37,1.283,0,1.847-.744,2.159-1.547,0,0,1.116,0,1.116,0Z" fill="#28006c" stroke="#28006c" stroke-miterlimit="10"/></g><g isolation="isolate"><path d="M24.404,23.353h3.166c1.619,0,2.734.912,2.734,2.435,0,1.619-1.176,2.483-2.806,2.483h-1.979v3.43h-1.115v-8.348ZM25.519,27.335h1.931c1.139,0,1.714-.552,1.714-1.523,0-1.02-.695-1.523-1.679-1.523h-1.967v3.047h.001Z" fill="#28006c" stroke="#28006c" stroke-miterlimit="10"/><path d="M32.995,23.353v5.025c0,1.967,1.079,2.507,2.146,2.507,1.248,0,2.136-.576,2.136-2.507v-5.025h1.115v4.966c0,2.71-1.499,3.49-3.274,3.49-1.739,0-3.25-.84-3.25-3.406v-5.05s1.127,0,1.127,0Z" fill="#28006c" stroke="#28006c" stroke-miterlimit="10"/></g></g></svg>