<?xml version="1.0" encoding="UTF-8"?><svg id="a" xmlns="http://www.w3.org/2000/svg" width="63.409" height="52.937" viewBox="0 0 63.409 52.937"><path d="M24.571.024q.203-.002.41-.005,5.491-.052,8.013.701c.228.062.457.124.685.186,4.487,1.266,8.392,3.712,11.637,7.043.095.09.191.18.289.272.516.494.964.942,1.341,1.554q.667,1.09,1.78,1.63c.476.057.952.081,1.431.105,3.047.16,5.897,1.869,8.139,3.832q.329.493.298,1.078-.133.565-.626.893c-.775.015-1.181-.148-1.725-.667-2.574-2.41-6.209-3.054-9.605-2.962-3.146.137-6.225,1.532-8.494,3.699-2.948,3.238-3.822,6.952-3.699,11.241.232,4.295,3.39,8.167,5.84,11.491.264.36.525.723.785,1.086,1.062,1.486,2.152,2.947,3.266,4.394.548.714,1.086,1.433,1.605,2.168q.146.207.296.418c.184.261.366.524.547.788.081.116.162.231.246.35.07.102.14.204.213.309q.104.107.21.217h.493c.252-.306.469-.605.688-.934.716-1.041,1.468-2.049,2.239-3.05,1.101-1.436,2.17-2.891,3.222-4.363.262-.364.526-.725.791-1.086,3.501-4.774,6.772-9.414,5.988-15.623-.298-1.728-.889-3.32-1.807-4.815-.304-.574-.391-.871-.277-1.51.316-.445.523-.618,1.047-.77.714.187,1.034.67,1.417,1.263,2.061,3.67,2.718,8.116,1.643,12.22-.424,1.432-1.065,2.754-1.807,4.046-.067.117-.135.235-.204.356-1.014,1.747-2.137,3.408-3.321,5.043-.255.353-.508.708-.761,1.063-1.062,1.487-2.156,2.947-3.267,4.397-.748.977-1.484,1.961-2.212,2.953-.094.128-.189.257-.286.389-.343.466-.685.933-1.027,1.4-.205.28-.411.56-.618.839-.111.151-.222.302-.336.458-.411.5-.684.669-1.328.754-.736-.087-1.085-.387-1.592-.893-.276-.353-.531-.698-.78-1.068-.14-.203-.281-.406-.422-.608-.072-.103-.143-.206-.217-.312-.434-.608-.899-1.193-1.365-1.777q-.501-.637-.501-1c-.652.354-1.252.728-1.848,1.171-3.412,2.402-7.235,3.521-11.296,4.251-.16.03-.32.059-.485.089-3.836.574-7.891-.092-11.509-1.404-.201-.072-.403-.145-.61-.219-6.337-2.407-11.842-7.245-14.675-13.461-1.402-3.208-2.709-6.918-2.295-10.472q.219-.313.493-.493c.574-.086.861-.091,1.336.255.419.548.42.96.472,1.644.167,1.573.496,3.125.822,4.672,3.145.054,6.29.108,9.53.164-.108-.813-.217-1.627-.329-2.465-.389-3.854-.309-7.843.329-11.666q-4.717.081-9.53.164-.598,2.942-.986,5.915-.277.442-.657.657c-.509.073-.825.11-1.258-.185-.629-.876-.261-2.559-.113-3.581.803-4.867,2.854-9.455,6.136-13.157.075-.086.15-.172.227-.26,1.093-1.246,2.224-2.354,3.552-3.355.166-.129.332-.259.503-.392C14.562,2.124,19.632.072,24.571.024ZM21.217,4.499c-2.876,2.968-5.802,8.403-5.802,12.651h9.858V2.363c-1.627,0-2.936,1.029-4.056,2.136ZM27.573,2.363c-.054,4.88-.108,9.76-.164,14.787q1.998.041,4.036.082.628.018,1.268.036c.334.004.668.007,1.002.01q.257.01.52.02c.695,0,1.188,0,1.758-.421.544-.588.854-1.055.946-1.863-.084-.428-.18-.818-.308-1.232-.036-.12-.073-.24-.111-.364-.979-3.095-2.366-5.969-4.511-8.426-.101-.116-.202-.233-.306-.353-1.16-1.251-2.439-2.034-4.131-2.276ZM33.324,3.185c.129.166.258.332.39.503,2.337,3.149,3.893,6.423,5.032,10.177.575-.127,1.064-.352,1.591-.613,1.666-.824,3.298-1.402,5.145-1.687-2.223-3.99-7.224-6.943-11.459-8.282q-.36-.111-.7-.098ZM18.679,3.338c-.219.081-.438.163-.656.247-.117.045-.234.089-.354.136-6.425,2.522-10.935,7.225-13.756,13.43h9.365c.271-1.139.542-2.277.822-3.45,1.177-3.88,2.762-7.269,5.422-10.351q-.35-.222-.843-.011ZM14.922,19.287q-.28,2.526-.372,5.042,0,.245,0,.495c0,.34,0,.679.002,1.019.002.509,0,1.018-.002,1.528,0,.335,0,.67.001,1.005,0,.147-.001.293-.002.444.011,1.56.208,3.02.374,4.598h10.351v-14.13h-10.351ZM27.409,19.287v14.13h5.915c-.163-.542-.325-1.084-.493-1.643-.092-.335-.182-.67-.267-1.006-.039-.153-.079-.306-.119-.463-.724-3.412-.261-7.127,1.316-10.24q.245-.414.221-.777h-6.572ZM3.913,35.553c3.189,6.378,7.361,10.988,14.092,13.628.507.166.989.267,1.517.338-.058-.076-.116-.152-.175-.23-3.164-4.18-5.038-8.585-6.068-13.736H3.913ZM15.415,35.553q.405,1.931.934,3.82c.042.13.084.261.127.395,1.073,3.248,2.574,6.186,5.018,8.6.113.115.227.23.343.349.938.892,2.118,1.623,3.436,1.623v-14.787h-9.858ZM27.409,35.553c.054,4.88.108,9.76.164,14.787,2.205-.315,3.804-1.669,5.146-3.402,1.467-1.991,2.529-4.187,3.418-6.487q.079-.198.159-.399c.046-.125.092-.249.14-.378.042-.11.083-.22.126-.333.166-1.182-1.639-3.332-1.924-3.788h-7.229ZM38.088,40.975c-.08.197-.159.394-.241.596-.958,2.339-1.953,4.527-3.525,6.521-.358.463-.679.937-.999,1.427,1.23-.298,2.353-.69,3.491-1.243.148-.071.296-.142.448-.215q2.31-1.091,4.112-2.814-.152-.194-.307-.392c-.886-1.137-1.727-2.292-2.533-3.488-.093-.129-.186-.259-.282-.392h-.164Z" fill="#28006c"/><path d="M47.68,15.764c.165.001.33.002.5.003,1.288.028,2.357.203,3.546.726.144.06.287.119.435.18,2.725,1.237,4.602,3.555,5.685,6.289.924,2.724.742,5.522-.422,8.149-1.487,2.88-3.888,4.801-6.955,5.783-2.807.672-5.605.32-8.141-1.054-2.704-1.687-4.478-4.125-5.215-7.209-.514-2.868-.037-5.772,1.633-8.195,2.238-2.878,5.227-4.712,8.934-4.672ZM41.532,20.4c-1.893,2.149-2.43,4.434-2.323,7.206.153,2.068,1.286,3.944,2.774,5.343,1.245,1.005,2.584,1.655,4.155,1.947.139.027.279.054.422.082,2.302.33,4.611-.392,6.462-1.745,1.624-1.356,2.856-3.275,3.138-5.402.214-2.394-.162-4.611-1.643-6.572-1.565-1.822-3.363-2.955-5.751-3.286-2.753-.139-5.198.465-7.236,2.427Z" fill="#28006c"/><path d="M52.249,21.916c.868.354,1.527,1.145,1.941,1.972.083.904.125,1.707-.267,2.536-.509.55-1.027,1.068-1.705,1.407-.419.012-.834.015-1.253.01-.116,0-.232-.001-.352-.002-.287-.002-.573-.005-.86-.008.006.157.011.313.017.474.004.206.009.412.013.624.006.204.011.408.017.618-.051.621-.158.92-.541,1.405q-.472.185-.986.164c-.481-.334-.776-.602-.897-1.19-.03-.461-.034-.916-.027-1.378,0-.169,0-.337-.001-.511,0-.356.002-.712.006-1.068.006-.545.003-1.089,0-1.634.001-.346.003-.692.005-1.038,0-.163-.002-.326-.002-.494q.019-1.127.409-1.657c1.103-.742,3.214-.576,4.482-.231ZM49.59,24.051v1.643c.318.013.637.023.955.031.177.006.355.011.537.017q.476-.009.792-.264.232-.294.139-.79-.075-.452-.288-.637c-.359-.012-.719-.014-1.078-.01-.197.001-.394.003-.596.004q-.228.003-.461.006Z" fill="#28006c"/><path d="M44.661,22.08c.407.407.372.533.379,1.095.003.159.005.318.008.482,0,.172.002.345.003.522.001.177.003.353.004.535.002.374.004.749.004,1.123.002.573.01,1.146.018,1.719.002.363.003.727.004,1.09.003.172.006.343.01.52q-.007,1.187-.491,1.736-.432.215-.863.204c-.424-.167-.602-.292-.883-.647q-.063-.362-.064-.787c-.002-.16-.003-.319-.005-.484,0-.172.002-.344.003-.521,0-.177,0-.354-.001-.536,0-.374,0-.748.003-1.122.003-.573,0-1.147-.003-1.72,0-.363,0-.726.002-1.089,0-.172-.002-.344-.003-.521.002-.16.003-.319.005-.484,0-.14,0-.281.001-.426.077-.445.2-.584.556-.855.6-.2.761-.105,1.314.164Z" fill="#28006c"/></svg>