<?xml version="1.0" encoding="UTF-8"?><svg id="a" xmlns="http://www.w3.org/2000/svg" width="65.94" height="65.705" viewBox="0 0 65.94 65.705"><path d="M45.125,18.7c.1.1.2.2.4.3.2.2.433.4.7.6,3,2.4,4.9,6.9,5.4,10.6.5,5.1-.5,10.2-3.8,14.3-.3.3-.6.7-.9,1-.2.2-.4.4-.5.6-2.4,3-6.9,4.9-10.6,5.4-5.1.5-10.2-.5-14.3-3.8-.3-.3-.7-.6-1-.9-.2-.2-.4-.4-.6-.5-3-2.4-4.9-6.9-5.4-10.6-.5-5.2.6-10.2,3.9-14.4,1.9-2.4,4.2-4.2,7-5.4.2,0,.3-.1.5-.2,6.2-2.6,14.3-1.7,19.4,3h-.2ZM21.025,21.8c-1.9,2-3.2,4.5-3.9,7.2,0,.2,0,.3-.1.5-.9,4-.1,8.5,2,12,.5.8,1,1.5,1.6,2.1.067.133.167.233.3.3.6.8,1.4,1.4,2.2,2,.1,0,.2.2.3.3,3.4,2.6,7.7,3.5,11.8,3,3.2-.4,6-1.8,8.5-3.8.1,0,.2-.2.3-.3.8-.6,1.4-1.4,2-2.2,0-.1.2-.2.3-.3,1.3-1.7,2.1-3.6,2.7-5.7,0-.2,0-.3.1-.5.9-4,.1-8.5-2-12-.5-.8-1-1.5-1.6-2.1,0-.1-.2-.2-.3-.3-.6-.8-1.4-1.4-2.2-2-.1,0-.2-.2-.3-.3-6.7-5.1-15.9-3.7-21.7,2.1Z" fill="#28006c"/><path d="M36.425,20.8c.3.3.6.5.9.8.067.067.167.167.3.3.7,1,1,2,1,3.2v2.3h.2c1,0,1.7.4,2.4,1.2.6.8.8,1.7.8,2.7v8.9c0,1.1-.3,2-1.1,2.8-.9.8-1.8.9-2.9.9h-10c-1.1,0-2-.3-2.9-1.1-.7-.8-.9-1.7-.9-2.8v-7.7c0-1.933.333-3.3,1-4.1.7-.6,1.4-.9,2.4-.9v-1.9c0-1.6.5-3,1.6-4.2,2-1.9,5.1-2.1,7.3-.5l-.1.1ZM30.425,23.4c-.467.933-.633,2.267-.5,4h6.4c.133-1.6-.1-3.033-.7-4.3-.7-.7-1.5-1.1-2.5-1.2-1.1,0-2.1.6-2.7,1.5ZM26.725,30.2c-.2.5-.1.9-.1,1.3v8.5c0,.6,0,.9.4,1.4.5.4,1,.3,1.6.3h9.4c.6,0,1,0,1.4-.4.3-.4.3-1,.3-1.5v-8.5c0-.6,0-.9-.4-1.4-.5-.3-.9-.3-1.5-.3h-9.7c-.6,0-1,0-1.4.6Z" fill="#28006c"/><path d="M16.625,45.9c.7.1,1.1.8,1.6,1.3,1.6,1.9,3.7,3.2,5.9,4.2.1,0,.2.1.4.2.1,0,.2.1.3.2.4.3.5.5.7,1v6.7c0,.9,0,1.6-.6,2.3-.6.6-1.2.8-2.1.8h-7.3s0,.2-.1.3c0,.133-.067.233-.2.3,0,.133-.067.233-.2.3-.5,1-1.3,1.6-2.3,2-1.1.3-2.6.3-3.6-.2-1.1-.7-2-1.7-2.3-3-.1-1.6,0-2.9,1.1-4.1.9-.9,2-1.4,3.3-1.4,1.5.1,2.6.6,3.6,1.8.3.5.5,1,.7,1.5,2.533,0,5.1.033,7.7.1v-6.5l-.8-.3c-1.7-.8-3.2-1.9-4.6-3.2-.3-.2-.5-.5-.8-.7-1.133-1-1.733-1.767-1.8-2.3,0-.467.1-.8.3-1,.4-.3.7-.3,1.1-.3h0ZM9.325,60.2c-.4.5-.3,1-.3,1.6.3.7.7,1.2,1.4,1.5.9,0,1.5,0,2.2-.5.4-.5.6-1,.7-1.6,0-.7-.4-1.2-.8-1.6-1.2-.8-2.2-.5-3.1.6h-.1Z" fill="#28006c"/><path d="M63.925,18.2c1,.7,1.6,1.5,1.9,2.7.2,1.4,0,2.7-.8,3.8-.7.9-1.5,1.3-2.6,1.7-1.6.1-2.8,0-4-1.1-.5-.5-1-1.1-1.2-1.8v-.4c-1.067,0-2.133.033-3.2.1.2.4.3.8.5,1.2.8,2.1,1.5,4.4,1.5,6.6v.7h8.8c.5,0,.7.3,1.1.7v.7c-.1.4-.4.6-.7.9h-10c-.5,0-.7,0-1.1-.4-.3-.4-.4-.6-.4-1.1v-2.3c-.2-2.5-1.1-5-2.3-7.2-.3-.6-.4-1-.3-1.6.3-.4.5-.6.9-.7h5.4v-.4c.2-.9.8-1.6,1.5-2.2,1.6-1.1,3.5-1.1,5.2-.1l-.2.2ZM59.825,20.6c-.4.6-.6,1.2-.5,1.9.2.6.7,1.1,1.2,1.4.6.2,1.2.2,1.8,0,.5-.3.9-.7,1.1-1.3,0-.9,0-1.5-.5-2.2-1-.9-2.2-.8-3.2.1l.1.1Z" fill="#28006c"/><path d="M57.025.4c1.1.7,2,1.7,2.3,3,.1,1.6,0,2.9-1.1,4.1-.9.9-2,1.4-3.3,1.4-1.5-.1-2.6-.6-3.6-1.8-.3-.5-.5-1-.7-1.5-2.533,0-5.1-.033-7.7-.1v6.5c.3,0,.5.2.8.3.2.067.367.167.5.3,0,0,.2.1.3.2,0,0,.2.1.3.2,0,0,.2.1.3.2,1.2.7,2.3,1.6,3.3,2.5,0,0,.1.1.2.2.8.667,1.233,1.267,1.3,1.8,0,.5-.2.7-.6,1.1-.5.1-.8.2-1.2,0-.4-.3-.7-.6-1.1-1-1.5-1.5-3.3-2.5-5.2-3.5-.1,0-.3-.1-.4-.2-.1,0-.2-.1-.3-.2-.3-.2-.4-.4-.5-.8v-6.7c0-.9,0-1.6.6-2.3.6-.6,1.2-.8,2.1-.8h7.3s0-.2.1-.3c0-.1.1-.2.2-.3,0-.1.1-.2.2-.3.5-1,1.3-1.6,2.3-2,1.1-.3,2.6-.3,3.6.2v-.2ZM53.225,3.1c-.4.6-.4,1.1-.3,1.8.2.6.5.9.9,1.3.7.4,1.2.4,1.9.2.6-.3,1-.8,1.3-1.4,0-.7,0-1.3-.4-1.9-.5-.5-.9-.8-1.7-.8s-1.3.2-1.8.8h.1Z" fill="#28006c"/><path d="M49.325,47.1c.4.3.5.6.6,1.1-.3,1.5-2.3,2.7-3.5,3.5-1.933,1.267-3.1,1.9-3.5,1.9v6.5c2.5,0,5.1,0,7.7-.1.3-.5.5-1,.8-1.5.8-.8,1.7-1.5,3-1.7h.2c1.2,0,2.4.3,3.3,1.1,1,1,1.5,1.9,1.5,3.3s-.4,2.4-1.4,3.4c-1.1,1-2.4,1.1-3.8,1.1-1,0-2-.7-2.7-1.4-.4-.5-.7-1.1-.9-1.7h-6.6c-1,0-1.8,0-2.7-.6-.6-.6-.8-1.2-.8-2.1v-6.8c0-.5.2-.8.4-1.2.2-.133.4-.267.6-.4.1,0,.2-.1.4-.2.1,0,.3-.1.4-.2,2-1,3.8-2.3,5.4-3.9.4-.4.9-.4,1.5-.2l.1.1ZM53.225,60c-.4.6-.5,1.1-.4,1.8.2.6.5,1,1,1.4.6.3,1.2.3,1.8.2.6-.3.9-.6,1.3-1.2.2-.5.2-1,.1-1.5-.3-.6-.7-1-1.3-1.4-1-.3-1.8,0-2.5.7Z" fill="#28006c"/><path d="M13.425.6s.2.1.3.2c.9.6,1.4,1.4,1.8,2.4h6.6c1,0,1.8,0,2.7.6.5.6.8,1.1.8,1.9v5.5c.1,0,.3,0,.4-.1.2,0,.4-.1.6-.2h.3c.067,0,.167,0,.3,0h.3c.6-.2,1.2-.3,1.9-.2.3.2.5.4.6.8,0,.4,0,.7-.2,1.1-.5.5-1.1.6-1.8.8-.3,0-.6.2-.8.2-.1,0-.3,0-.4.1-.6.2-1.2.4-1.8.7-.5.1-.8,0-1.3-.2-.4-.4-.4-.7-.4-1.3v-7c-2.5,0-5.1,0-7.7.1-.3.5-.5,1-.8,1.5-.9.9-1.8,1.6-3.1,1.7h-.5c-1.1,0-2.3-.4-3.1-1.2-1.1-1.1-1.4-2.4-1.3-3.9,0-1.3.7-2.2,1.7-3.1C9.925,0,12.025-.2,13.525.7l-.1-.1ZM9.425,3.2c-.4.6-.4,1.2-.3,1.9.3.6.7,1,1.3,1.4.6.2,1.1.2,1.7,0,.5-.3.8-.7,1.2-1.2.2-.7,0-1.3-.2-1.9-.4-.5-.9-.8-1.5-.9-.9,0-1.4.2-2,.9l-.2-.2Z" fill="#28006c"/><path d="M20.425,14.3c.4.3.5.4.6.9,0,.4,0,.6-.2,1-.2.133-.4.3-.6.5-1.8,1.4-3.3,3-4.5,4.9-.6.933-1.1,1.467-1.5,1.6h-5.6v.3c-.2,1-1,1.8-1.9,2.4-1.1.6-2.3.7-3.6.4-1.2-.4-2.1-1.2-2.7-2.2-.5-1.1-.5-2.5-.3-3.6.4-1.1,1.2-1.9,2.3-2.5,1.1-.5,2.3-.6,3.5-.2,1.2.5,2,1.2,2.6,2.4.067.2.1.467.1.8,1.667.133,3.3.033,4.9-.3.5-.4.7-1,.9-1.6.2-.5.6-.9,1-1.3,0,0,.1-.2.2-.2.7-.8,1.4-1.5,2.2-2.2.1,0,.2-.2.4-.3.1,0,.2-.2.3-.3,0,0,.2-.1.3-.2.4-.3.9-.2,1.4-.2l.2-.1ZM2.825,20.7c-.4.6-.4,1.3-.3,2,.3.6.6.9,1.2,1.3.5.2,1,.2,1.5.1.6-.3,1.3-.8,1.5-1.5.1-.7,0-1.2-.3-1.8-.5-.6-1-.8-1.8-.9-.7,0-1.3.4-1.7.9l-.1-.1Z" fill="#28006c"/><path d="M12.025,36.1c.4.2.6.4.8.8.1.4.2.8.3,1.2,0,.3.2.6.2.8,0,.1,0,.3.1.4.3,1,.7,1.9,1.1,2.8,0,0,0,.2.1.2.1.2.2.4.4.7.2.5.2.8.2,1.3-.3.4-.5.6-.9.7h-5.4v.4c-.2.9-.8,1.6-1.5,2.2-1.1.7-2.2.9-3.5.8-1.3-.3-2.2-1-3-2-.7-1.1-.7-2.3-.6-3.6.3-1.1,1-2,2-2.6,1.2-.6,2.4-.8,3.8-.5,1.2.4,2.1,1.4,2.7,2.5v.6c1.067,0,2.133-.033,3.2-.1-.133-.4-.3-.8-.5-1.2-.8-2.133-1.167-3.633-1.1-4.5.4-.6.8-.7,1.5-.6l.1-.3ZM2.925,42.5c-.5.6-.5,1.1-.4,1.9.2.5.5.8.9,1.2.6.3,1.2.5,1.9.3.7-.3,1.1-.7,1.4-1.4.1-.5.1-.9,0-1.4-.4-.6-.8-1-1.4-1.3-.9-.1-1.7,0-2.3.8l-.1-.1Z" fill="#28006c"/><path d="M54.825,36.1c.4.2.5.2.8.6.1.8,0,1.6-.3,2.5,0,.1,0,.2-.1.4-.3,1-.7,2-1.1,3,1.1,0,2.1,0,3.2.1,0-.2,0-.4.1-.6.5-1,1.4-1.9,2.4-2.4,1.1-.4,2.6-.4,3.7.1,1.1.7,1.9,1.5,2.3,2.7.2,1.2.2,2.6-.5,3.6,0,0-.1.2-.2.3-.7,1-1.6,1.6-2.7,1.9-1.3.2-2.4,0-3.5-.7-.8-.5-1.3-1.2-1.7-2.1v-.5h-4.8c-.6,0-.9,0-1.4-.4-.3-.5-.3-.7-.2-1.2.2-.5.4-.9.7-1.4.8-1.6,1.3-3.1,1.7-4.8.1-.4.2-.6.5-.9.4-.2.7-.2,1.1-.2ZM59.725,42.6c-.4.6-.5,1-.4,1.7.3.8.7,1.2,1.4,1.6.7.2,1.3,0,1.9-.3.5-.4.8-.9.9-1.5,0-.7,0-1.2-.6-1.7-.6-.6-1.1-.7-1.9-.7-.6,0-1,.5-1.4.9h.1Z" fill="#28006c"/><path d="M28.825,53.2h.9c.5,0,.9,0,1.4.1h.3c1.2.1,2.4,0,3.6,0h.3c.067,0,.533-.033,1.4-.1s.967-.067.3,0h.3c.4,0,.6.1.9.4.3.5.3.6.3,1.2-.2.4-.3.6-.7.8h-.8c-.8.1-1.5.2-2.2.2h-.6v8.8c0,.5-.3.7-.7,1.1h-.7c-.4-.1-.6-.4-.9-.7v-9.3h-.9c-.5,0-1.1,0-1.6-.2h-.3c-.7-.1-1.1-.3-1.5-.8-.1-.4,0-.6,0-1,.4-.5.7-.7,1.3-.6l-.1.1Z" fill="#28006c"/><path d="M12.225,24.9c.333,0,.6.1.8.3.3.5.4.9.3,1.5,0,.3-.2.6-.3.9-.3,1.2-.6,2.4-.7,3.7,0,.133,0,.267,0,.4v1.5c-.1.5-.4.7-.7,1H1.625c-.5,0-.7,0-1.1-.4-.3-.3-.3-.4-.3-.8v-.2c.1-.4.4-.6.7-.9h.9c.333,0,.433,0,.3,0h8.1v-1.1c0-.5,0-1,.2-1.5v-.3c.1-.8.3-1.5.5-2.2v-.3c.2-.7.6-1.5,1.4-1.5l-.1-.1Z" fill="#28006c"/><path d="M33.025,0h.2c.4.1.6.4.9.7v9.3h.9c.5,0,1.1,0,1.6.2h.3c.7.1,1.1.3,1.5.8,0,.5,0,.8-.2,1.3-.4.3-.7.4-1.2.4-.4,0-.8-.1-1.1-.2-.4,0-.8-.1-1.3-.1h-1.9c-.5-.1-.7-.4-1-.7V1.7c0-.5,0-.7.4-1.1.3-.3.4-.3.8-.3l.1-.3Z" fill="#28006c"/><path d="M34.925,32.3c.7.5,1.2,1.2,1.4,2.1.1,1.2,0,2-.8,3.1-.3.3-.6.6-1,.8h-.4v.4c0,.333-.067.567-.2.7-.4.2-.7.3-1.1.3-.5-.2-.6-.3-.9-.8,0-.2,0-.4,0-.6,0-.2-.067-.2-.2,0-.7-.2-1.2-.7-1.6-1.3-.5-.9-.6-1.8-.3-2.8.4-1,1-1.7,2-2.1,1.1-.3,2.1-.2,3.1.4v-.2ZM32.225,34.4c-.3.3-.3.5-.2,1,0,.267.1.5.3.7.4.2.6.2,1.1.1.267-.133.467-.333.6-.6,0-.5,0-.8-.3-1.1-.5-.3-1-.4-1.5,0v-.1Z" fill="#28006c"/></svg>