<?xml version="1.0" encoding="UTF-8"?><svg id="a" xmlns="http://www.w3.org/2000/svg" width="55.1" height="59.1" viewBox="0 0 55.1 59.1"><path d="M10.1,0h35.3c.667,0,1.133.1,1.4.3.2.6.2,1.1.2,1.7v29.5c0,.6,0,.9-.5,1.4-.4.3-.6.4-1.1.4h-6l.2.2c.4.3.7.7,1.1,1l.4.4.4.4.3.3c.133.2.2.4.2.6s-.167.367-.5.5c-.333.133-.567.4-.7.8-.4-.2-.7-.4-1.1-.8v1.1c0,.133.067.3.2.5h3.7c2.2,0,3.667.3,4.4.9.9.9.9,1.7.9,2.9,0,0,.2,0,.3.1,1.6.8,2.5,1.6,3.2,3.2.4,1.7-.1,3.1-.9,4.6.133,0,.233.067.3.2,1.7,1,2.8,2.3,3.3,4.3v2.6c0,.867-.133,1.433-.4,1.7h-13c-.6,0-1.033-.133-1.3-.4-.2-.5-.2-1.1-.2-1.6v-.4c0-1.7.4-3,1.4-4.4.133-.133.233-.3.3-.5.6-.6,1.4-1.1,2.1-1.5,0-.1-.1-.2-.2-.4,0-.2-.2-.3-.3-.5,0-.2-.2-.3-.3-.5-.5-1.2-.5-2.3,0-3.5.6-1.4,1.5-2.3,2.9-2.9.2,0,.3-.1.5-.2v-.9c0-.2-.067-.333-.2-.4h-3.7c-2.267,0-3.8-.367-4.6-1.1-.7-.8-.7-1.8-.8-2.8-.1.1-.2.3-.4.4-.267.267-.5.4-.7.4-.133-.133-.3-.3-.5-.5-.2-.267-.467-.5-.8-.7.6-1.2,1.7-2,2.6-2.9h-9.2l2.6,2.6v.3c-.133.133-.3.3-.5.5-.267.2-.5.467-.7.8-.5-.2-.7-.4-1.1-.8,0,1.8-.1,3.5-.2,5.4.5.3,1,.5,1.5.8,1,.7,1.8,1.7,2.1,3,.2,1.6-.3,2.8-1,4.2.1,0,.2.1.3.2,1.7,1,2.7,2.3,3.3,4.3.2.8.2,1.5.2,2.3v1.1c0,.4-.2.6-.5.9h-13c-.6,0-1.033-.133-1.3-.4-.2-.5-.2-1.1-.2-1.6v-.4c0-1.7.4-3,1.4-4.4.1-.2.2-.3.3-.5.6-.6,1.4-1.1,2.1-1.5,0-.1-.1-.2-.2-.4,0-.2-.2-.3-.3-.5,0-.2-.2-.3-.3-.5-.5-1.2-.5-2.3,0-3.5.7-1.6,1.7-2.4,3.4-3.1,0-1.8-.1-3.5-.2-5.4l-.8.8h-.3c-.133-.133-.3-.3-.5-.5-.2-.267-.467-.5-.8-.7.6-1.2,1.7-2,2.6-2.9h-9.2l2.6,2.6v.3c-.133.133-.3.3-.5.5-.267.2-.5.467-.7.8-.4-.2-.7-.4-1.1-.8v.4c-.1,1.2-.3,2-1.2,2.8-.9.6-1.8.7-2.9.7h-3.8c-.4,0-.767.067-1.1.2v1.2c.067,0,.167.033.3.1,1.6.8,2.5,1.6,3.2,3.2.4,1.7-.1,3.1-.9,4.6.133,0,.233.067.3.2,1.7,1,2.7,2.3,3.3,4.3.2.8.2,1.5.2,2.3v1.1c0,.4-.2.6-.5.9H1.2c-.6,0-1-.133-1.2-.4v-2.4c0-1.8.6-3.2,1.7-4.6.6-.6,1.3-1,2-1.4,0-.133-.067-.267-.2-.4,0-.2-.2-.3-.3-.5,0-.2-.2-.3-.3-.5-.5-1.2-.5-2.3,0-3.5.6-1.4,1.5-2.3,2.9-2.9.2,0,.3-.1.5-.2v-.5c0-.8.3-1.4.7-2.2.9-.9,2-1.1,3.3-1.1h3.8c.4,0,.767-.067,1.1-.2v-1.4c-.1.1-.2.3-.4.4-.267.267-.5.4-.7.4-.133-.133-.3-.3-.5-.5-.2-.267-.467-.5-.8-.7.2-.5.5-.8.8-1.2l.3-.3c.133-.133.233-.233.3-.3.133-.133.233-.233.3-.3l.8-.8h-6.4c-.5-.2-.8-.4-1.1-.9,0-.5-.1-.8,0-1.3V1.7c0-.5,0-.9.2-1.3C8.5,0,9.2.1,9.8.1l.3-.1ZM10.3,2.1v5.2h34.6V2.1H10.3ZM10.3,9.4v21.7h34.6V9.5H10.3v-.1ZM5.2,45.3c-.5.7-.5,1.5-.4,2.4.3.9.9,1.4,1.7,1.8.8,0,1.6.1,2.4-.3.6-.6,1.1-1.1,1.2-1.9,0-.8,0-1.4-.5-2.1-.7-.7-1.2-.9-2.1-1-1,0-1.5.3-2.2,1.1h-.1ZM25.4,45.3c-.5.7-.5,1.5-.4,2.4.3.9.9,1.4,1.7,1.8.8,0,1.6.1,2.4-.3.6-.6,1.1-1.1,1.2-1.9,0-.8,0-1.4-.5-2.1-.7-.7-1.2-.9-2.1-1-1,0-1.5.3-2.2,1.1h-.1ZM45.6,45.3c-.5.7-.5,1.5-.4,2.4.3.9.9,1.4,1.7,1.8.8,0,1.6.1,2.4-.3.6-.6,1.1-1.1,1.2-1.9,0-.8,0-1.4-.5-2.1-.7-.7-1.2-.9-2.1-1-1,0-1.5.3-2.2,1.1h-.1ZM2.8,53.3c-.8,1.2-.8,2-.8,3.5h10.7c0-1.9-.2-2.8-1.4-4.2-1.2-1-2.4-1.1-3.9-1.1h-.5c-1.7,0-3,.5-4.1,1.7v.1ZM23,53.3c-.8,1.2-.8,2-.8,3.5h10.7c0-1.9-.2-2.8-1.4-4.2-1.2-1-2.4-1.1-3.9-1.1h-.5c-1.7,0-3,.5-4.1,1.7v.1ZM43.2,53.3c-.8,1.2-.8,2-.8,3.5h10.7c0-1.9-.2-2.8-1.4-4.2-1.2-1-2.4-1.1-3.9-1.1h-.5c-1.7,0-3,.5-4.1,1.7v.1Z" fill="#28006c"/><path d="M33.6,13.1c2.1,1.8,3.2,4.1,3.4,6.8.1,2.6-1,4.9-2.6,6.8-1.7,1.8-3.9,2.7-6.4,2.9-2.5,0-4.9-.9-6.7-2.5-1.9-1.8-2.9-4.2-3-6.8,0-2.7,1.1-4.9,2.9-6.8,3.5-3.4,8.6-3.2,12.4-.4ZM27.5,13.4c-.2.3-.5.6-.7,1,0,0-.1.2-.2.3-.3.4-.5.7-.6,1.2h3.4c-.333-.667-.7-1.3-1.1-1.9,0-.1-.2-.2-.2-.3,0,0-.1-.1-.2-.2h-.3l-.1-.1ZM23.8,14.1c-.1,0-.2.2-.4.2-.267.2-.533.433-.8.7-.267.267.2.367,1.4.3.1-.2.3-.4.4-.7,0-.1.1-.2.2-.4.133-.2.2-.4.2-.6-.4,0-.6.2-1,.4v.1ZM30.6,13.7c.2.6.4,1.1.8,1.7.5-.1.9-.2,1.4-.3-.6-.6-1.1-1-1.8-1.4h-.4ZM21.3,16.8c-.1.2-.2.5-.3.7,0,.133-.067.267-.2.4-.133.333-.233.767-.3,1.3h2.6c.1-.6.2-1.2.3-1.8-.3-.1-.6-.2-.9-.3-.2,0-.3-.1-.5-.2-.267-.067-.5-.1-.7-.1ZM32.9,17.1c-.2,0-.3.1-.5.2-.133,0-.267.033-.4.1l.3,1.8h2.6c-.067-.267-.133-.567-.2-.9,0-.2,0-.3-.1-.5-.1-.4-.2-.7-.4-1.1-.4,0-.8.2-1.2.3l-.1.1ZM25.4,17.7c-.133.533-.233,1.033-.3,1.5h5.2c0-.467-.067-.933-.2-1.4-.4-.2-.5-.1-.9,0-1.3.2-2.5,0-3.8,0v-.1ZM20.5,21.4c0,.3.1.6.2.9,0,.2,0,.3.1.5.1.4.2.7.4,1.1.7-.1,1.4-.4,2.1-.6-.1-.6-.2-1.2-.3-1.8h-2.6l.1-.1ZM25.1,21.4c0,.5.1.9.2,1.4.5.2,1,.1,1.5,0h3.2c.133-.533.233-1.033.3-1.5h-5.2v.1ZM32.3,21.4l-.3,1.8c.3.1.6.2.9.3.2,0,.3.1.5.2.267.067.5.1.7.1.1-.2.2-.5.3-.7,0-.1.1-.3.2-.4.133-.333.233-.767.3-1.3,0,0-2.6,0-2.6,0ZM26,24.8c.333.667.7,1.3,1.1,1.9,0,.1.2.2.2.3l.2.2h.3c.2-.3.5-.6.7-1,0,0,.1-.2.2-.3.3-.4.5-.7.6-1.2h-3.4l.1.1ZM31.4,25.3c-.1.2-.3.4-.4.7,0,.1-.1.2-.2.4-.133.2-.2.4-.2.6.9-.2,1.5-.7,2.1-1.2-.4-.4-.8-.4-1.4-.5h.1ZM22.7,25.6c.6.6,1.1,1,1.8,1.4h.3c-.2-.6-.4-1.2-.8-1.7-.5,0-.9.1-1.4.3h.1Z" fill="#28006c"/><path d="M29.3,3.6h14.1v2.1h-14.1s0-2.1,0-2.1Z" fill="#28006c"/><path d="M19.2,3.6h2.1v2.1h-2.1v-2.1Z" fill="#28006c"/><path d="M15.5,3.6h2.1v2.1h-2.1v-2.1Z" fill="#28006c"/><path d="M11.8,3.6h2.1v2.1h-2.1s0-2.1,0-2.1Z" fill="#28006c"/></svg>