<?xml version="1.0" encoding="UTF-8"?>
<svg id="Layer_1" data-name="Layer 1" xmlns="http://www.w3.org/2000/svg" width="95" height="95" viewBox="0 0 95 95">
  <defs>
    <style>
      .cls-1 {
        fill: #fff;
      }

      .cls-2 {
        fill: #28006c;
      }
    </style>
  </defs>
  <circle class="cls-2" cx="47.5" cy="47.5" r="47.5"/>
  <g>
    <path class="cls-1" d="M30,15.7c.2,0,.3,0,.5,0,.5,0,1,0,1.6,0,.4,0,.7,0,1.1,0,.9,0,1.8,0,2.7,0,.7,0,1.5,0,2.2,0,.1,0,.2,0,.3,0,.2,0,.4,0,.6,0,2,0,4,0,6,0,1.7,0,3.4,0,5.2,0,2,0,4,0,6,0,.2,0,.4,0,.6,0,.1,0,.2,0,.3,0,.7,0,1.5,0,2.2,0,1,0,2,0,3,0,.4,0,.7,0,1.1,0,.5,0,1,0,1.5,0,.1,0,.3,0,.4,0q1,0,1.4,.3c.2,.6,.2,1.1,.2,1.7,0,.1,0,.3,0,.4,0,.4,0,.9,0,1.3,0,.3,0,.6,0,.9,0,.8,0,1.7,0,2.5,0,.7,0,1.4,0,2.1,0,1.7,0,3.3,0,5,0,1.7,0,3.4,0,5.2,0,1.5,0,3,0,4.4,0,.9,0,1.8,0,2.7,0,.8,0,1.7,0,2.5,0,.3,0,.6,0,.9,0,.4,0,.8,0,1.2,0,.1,0,.2,0,.4,0,.6,0,.9-.5,1.4-.4,.3-.6,.4-1.1,.4-.1,0-.3,0-.4,0-.1,0-.3,0-.4,0-.1,0-.3,0-.4,0-.5,0-.9,0-1.4,0-.3,0-.6,0-1,0-.8,0-1.6,0-2.4,0,0,0,.2,.2,.2,.2,.4,.3,.7,.7,1.1,1,.1,.1,.2,.2,.4,.4,.1,.1,.2,.2,.4,.4,.1,.1,.2,.2,.3,.3q.2,.3,.2,.6t-.5,.5-.7,.8c-.4-.2-.7-.4-1.1-.8,0,.2,0,.5,0,.7q0,.2,0,.4t.2,.5c.5,0,.9,0,1.4,0,.3,0,.6,0,.9,0,.5,0,.9,0,1.4,0q3.3,0,4.4,.9c.9,.9,.9,1.7,.9,2.9,0,0,.2,0,.3,.1,1.6,.8,2.5,1.6,3.2,3.2,.4,1.7-.1,3.1-.9,4.6q.2,0,.3,.2c1.7,1,2.8,2.3,3.3,4.3,0,.7,0,1.4,0,2.1q0,.3,0,.5,0,1.3-.4,1.7c-.4,0-.9,0-1.3,0q-.2,0-.4,0c-.5,0-.9,0-1.4,0-.3,0-.6,0-.9,0-.7,0-1.3,0-2,0-.8,0-1.7,0-2.5,0-.6,0-1.3,0-1.9,0-.3,0-.6,0-.9,0-.4,0-.9,0-1.3,0-.1,0-.3,0-.4,0q-.9,0-1.3-.4c-.2-.5-.2-1.1-.2-1.6,0-.1,0-.2,0-.4,0-1.7,.4-3,1.4-4.4q.2-.2,.3-.5c.6-.6,1.4-1.1,2.1-1.5,0-.1-.1-.2-.2-.4,0-.2-.2-.3-.3-.5,0-.2-.2-.3-.3-.5-.5-1.2-.5-2.3,0-3.5,.6-1.4,1.5-2.3,2.9-2.9,.2,0,.3-.1,.5-.2,0-.2,0-.4,0-.6,0-.1,0-.2,0-.3q0-.3-.2-.4c-.5,0-.9,0-1.4,0-.3,0-.6,0-.9,0-.5,0-.9,0-1.4,0q-3.4,0-4.6-1.1c-.7-.8-.7-1.8-.8-2.8-.1,.1-.2,.3-.4,.4q-.4,.4-.7,.4-.2-.2-.5-.5-.3-.4-.8-.7c.6-1.2,1.7-2,2.6-2.9h-9.2l2.6,2.6v.3q-.2,.2-.5,.5-.4,.3-.7,.8c-.5-.2-.7-.4-1.1-.8,0,1.8-.1,3.5-.2,5.4,.5,.3,1,.5,1.5,.8,1,.7,1.8,1.7,2.1,3,.2,1.6-.3,2.8-1,4.2,.1,0,.2,.1,.3,.2,1.7,1,2.7,2.3,3.3,4.3,.2,.8,.2,1.5,.2,2.3,0,.1,0,.2,0,.4q0,.2,0,.4,0,.2,0,.3c0,.4-.2,.6-.5,.9-.5,0-.9,0-1.3,0q-.2,0-.4,0c-.5,0-.9,0-1.4,0-.3,0-.6,0-.9,0-.7,0-1.3,0-2,0-.8,0-1.7,0-2.5,0-.6,0-1.3,0-1.9,0-.3,0-.6,0-.9,0-.4,0-.9,0-1.3,0-.1,0-.3,0-.4,0q-.9,0-1.3-.4c-.2-.5-.2-1.1-.2-1.6,0-.1,0-.2,0-.4,0-1.7,.4-3,1.4-4.4,.1-.2,.2-.3,.3-.5,.6-.6,1.4-1.1,2.1-1.5,0-.1-.1-.2-.2-.4,0-.2-.2-.3-.3-.5,0-.2-.2-.3-.3-.5-.5-1.2-.5-2.3,0-3.5,.7-1.6,1.7-2.4,3.4-3.1,0-1.8-.1-3.5-.2-5.4-.3,.3-.5,.5-.8,.8h-.3q-.2-.2-.5-.5-.3-.4-.8-.7c.6-1.2,1.7-2,2.6-2.9h-9.2l2.6,2.6v.3q-.2,.2-.5,.5-.4,.3-.7,.8c-.4-.2-.7-.4-1.1-.8,0,.1,0,.3,0,.4-.1,1.2-.3,2-1.2,2.8-.9,.6-1.8,.7-2.9,.7q-.2,0-.4,0c-.4,0-.9,0-1.3,0-.4,0-.9,0-1.3,0-.3,0-.6,0-.8,0q-.6,0-1.1,.2c0,.2,0,.4,0,.6,0,.2,0,.4,0,.6q.1,0,.3,.1c1.6,.8,2.5,1.6,3.2,3.2,.4,1.7-.1,3.1-.9,4.6q.2,0,.3,.2c1.7,1,2.7,2.3,3.3,4.3,.2,.8,.2,1.5,.2,2.3,0,.1,0,.2,0,.4q0,.2,0,.4c0,.1,0,.2,0,.3,0,.4-.2,.6-.5,.9-.5,0-.9,0-1.3,0q-.2,0-.4,0c-.5,0-.9,0-1.4,0-.3,0-.6,0-.9,0-.7,0-1.3,0-2,0-.8,0-1.7,0-2.5,0-.6,0-1.3,0-1.9,0-.3,0-.6,0-.9,0-.4,0-.9,0-1.3,0q-.2,0-.4,0-.9,0-1.2-.4c0-.6,0-1.3,0-1.9q0-.3,0-.5c0-1.8,.6-3.2,1.7-4.6,.6-.6,1.3-1,2-1.4q0-.2-.2-.4c0-.2-.2-.3-.3-.5,0-.2-.2-.3-.3-.5-.5-1.2-.5-2.3,0-3.5,.6-1.4,1.5-2.3,2.9-2.9,.2,0,.3-.1,.5-.2,0-.2,0-.4,0-.5,0-.8,.3-1.4,.7-2.2,.9-.9,2-1.1,3.3-1.1,.1,0,.3,0,.4,0,.4,0,.9,0,1.3,0,.4,0,.9,0,1.3,0,.3,0,.6,0,.8,0q.6,0,1.1-.2c0-.2,0-.5,0-.7,0-.1,0-.3,0-.4,0,0,0-.2,0-.3-.1,.1-.2,.3-.4,.4q-.4,.4-.7,.4-.2-.2-.5-.5-.3-.4-.8-.7c.2-.5,.5-.8,.8-1.2,.1-.1,.2-.2,.3-.3q.2-.2,.3-.3,.2-.2,.3-.3c.3-.3,.5-.5,.8-.8-.2,0-.4,0-.6,0-.7,0-1.5,0-2.2,0-.3,0-.6,0-1,0-.5,0-.9,0-1.4,0-.1,0-.3,0-.4,0q-.2,0-.4,0c-.1,0-.2,0-.4,0-.5-.2-.8-.4-1.1-.9,0-.5-.1-.8,0-1.3q0-.2,0-.4c0-.4,0-.9,0-1.3,0-.3,0-.6,0-.9,0-.8,0-1.7,0-2.5,0-.9,0-1.8,0-2.7,0-1.5,0-3,0-4.5,0-1.7,0-3.4,0-5.2,0-1.7,0-3.3,0-5,0-.7,0-1.4,0-2.1,0-.8,0-1.7,0-2.5,0-.3,0-.6,0-.9,0-.4,0-.8,0-1.2q0-.2,0-.4c0-.5,0-.9,.2-1.3,.5-.4,1.2-.3,1.8-.3Zm.2,2.1v5.2h34.6v-5.2H30.2Zm0,7.3v21.7h34.6V25.2H30.2Zm-5.1,35.9c-.5,.7-.5,1.5-.4,2.4,.3,.9,.9,1.4,1.7,1.8,.8,0,1.6,.1,2.4-.3,.6-.6,1.1-1.1,1.2-1.9,0-.8,0-1.4-.5-2.1-.7-.7-1.2-.9-2.1-1-1,0-1.5,.3-2.2,1.1Zm20.2,0c-.5,.7-.5,1.5-.4,2.4,.3,.9,.9,1.4,1.7,1.8,.8,0,1.6,.1,2.4-.3,.6-.6,1.1-1.1,1.2-1.9,0-.8,0-1.4-.5-2.1-.7-.7-1.2-.9-2.1-1-1,0-1.5,.3-2.2,1.1Zm20.2,0c-.5,.7-.5,1.5-.4,2.4,.3,.9,.9,1.4,1.7,1.8,.8,0,1.6,.1,2.4-.3,.6-.6,1.1-1.1,1.2-1.9,0-.8,0-1.4-.5-2.1-.7-.7-1.2-.9-2.1-1-1,0-1.5,.3-2.2,1.1Zm-42.8,8c-.8,1.2-.8,2-.8,3.5h10.7c0-1.9-.2-2.8-1.4-4.2-1.2-1-2.4-1.1-3.9-1.1-.2,0-.4,0-.5,0-1.7,0-3,.5-4.1,1.7Zm20.2,0c-.8,1.2-.8,2-.8,3.5h10.7c0-1.9-.2-2.8-1.4-4.2-1.2-1-2.4-1.1-3.9-1.1-.2,0-.4,0-.5,0-1.7,0-3,.5-4.1,1.7Zm20.2,0c-.8,1.2-.8,2-.8,3.5h10.7c0-1.9-.2-2.8-1.4-4.2-1.2-1-2.4-1.1-3.9-1.1-.2,0-.4,0-.5,0-1.7,0-3,.5-4.1,1.7Z"/>
    <path class="cls-1" d="M53.5,28.8c2.1,1.8,3.2,4.1,3.4,6.8,.1,2.6-1,4.9-2.6,6.8-1.7,1.8-3.9,2.7-6.4,2.9-2.5,0-4.9-.9-6.7-2.5-1.9-1.8-2.9-4.2-3-6.8,0-2.7,1.1-4.9,2.9-6.8,3.5-3.4,8.6-3.2,12.4-.4Zm-6.1,.3c-.2,.3-.5,.6-.7,1,0,0-.1,.2-.2,.3-.3,.4-.5,.7-.6,1.2h3.4q-.5-1-1.1-1.9c0-.1-.2-.2-.2-.3,0,0-.1-.1-.2-.2h-.3Zm-3.7,.7c-.1,0-.2,.2-.4,.2q-.4,.3-.8,.7t1.4,.3c.1-.2,.3-.4,.4-.7,0-.1,.1-.2,.2-.4q.2-.3,.2-.6c-.4,0-.6,.2-1,.4Zm6.8-.4c.2,.6,.4,1.1,.8,1.7,.5-.1,.9-.2,1.4-.3-.6-.6-1.1-1-1.8-1.4h-.3Zm-9.3,3.1c-.1,.2-.2,.5-.3,.7q0,.2-.2,.4-.2,.5-.3,1.3h2.6c.1-.6,.2-1.2,.3-1.8-.3-.1-.6-.2-.9-.3-.2,0-.3-.1-.5-.2q-.4-.1-.7-.1Zm11.6,.3c-.2,0-.3,.1-.5,.2q-.2,0-.4,.1l.3,1.8h2.6q-.1-.4-.2-.9c0-.2,0-.3-.1-.5-.1-.4-.2-.7-.4-1.1-.4,0-.8,.2-1.2,.3Zm-7.5,.6q-.2,.8-.3,1.5h5.2q0-.7-.2-1.4c-.4-.2-.5-.1-.9,0-1.3,.2-2.5,0-3.8,0Zm-4.9,3.7c0,.3,.1,.6,.2,.9,0,.2,0,.3,.1,.5,.1,.4,.2,.7,.4,1.1,.7-.1,1.4-.4,2.1-.6-.1-.6-.2-1.2-.3-1.8h-2.6Zm4.6,0c0,.5,.1,.9,.2,1.4,.5,.2,1,.1,1.5,0,1.1,0,2.1,0,3.2,0q.2-.8,.3-1.5h-5.2Zm7.2,0l-.3,1.8c.3,.1,.6,.2,.9,.3,.2,0,.3,.1,.5,.2q.4,.1,.7,.1c.1-.2,.2-.5,.3-.7,0-.1,.1-.3,.2-.4q.2-.5,.3-1.3h-2.6Zm-6.3,3.4q.5,1,1.1,1.9c0,.1,.2,.2,.2,.3,0,0,.1,.1,.2,.2h.3c.2-.3,.5-.6,.7-1,0,0,.1-.2,.2-.3,.3-.4,.5-.7,.6-1.2h-3.4Zm5.4,.5c-.1,.2-.3,.4-.4,.7,0,.1-.1,.2-.2,.4q-.2,.3-.2,.6c.9-.2,1.5-.7,2.1-1.2-.4-.4-.8-.4-1.4-.5Zm-8.7,.3c.6,.6,1.1,1,1.8,1.4h.3c-.2-.6-.4-1.2-.8-1.7-.5,0-.9,.1-1.4,.3Z"/>
    <path class="cls-1" d="M49.2,19.3h14.1v2.1h-14.1v-2.1Z"/>
    <path class="cls-1" d="M39.1,19.3h2.1v2.1h-2.1v-2.1Z"/>
    <path class="cls-1" d="M35.4,19.3h2.1v2.1h-2.1v-2.1Z"/>
    <path class="cls-1" d="M31.7,19.3h2.1v2.1h-2.1v-2.1Z"/>
  </g>
</svg>