<?xml version="1.0" encoding="UTF-8"?><svg id="a" xmlns="http://www.w3.org/2000/svg" width="62.25" height="61.848" viewBox="0 0 62.25 61.848"><path d="M10.8,12.248h11.6c.6,0,.9,0,1.4.4.133.2.2.433.2.7s-.167.467-.5.6h-12.9c-.9,0-1.6.2-2.3.9-.2.6-.2,1.1-.2,1.7v24.2c0,.6.2,1,.6,1.5.5.3.8.4,1.4.4h40.4c.733,0,1.4-.2,2-.6.3-.7.4-1.3.4-2.1V15.948c0-.7-.2-1.1-.7-1.6-.7-.4-1.3-.4-2.1-.4h-11.5c-.533,0-.933-.1-1.2-.3-.133-.2-.167-.433-.1-.7.067-.267.267-.5.6-.7h12.7c1.1,0,2,.2,2.8.9.9,1.1,1.2,1.8,1.2,3.1v23.2c0,1.4,0,2.6-.7,3.9.1,0,.2.2.3.3,1.3,1.3,1.9,3.5,2.6,5.2.7,1.7,1.4,3.4,2.1,5.1.3.8.7,1.6,1,2.4.1.3.2.6.4.8.5,1.1.6,2,.4,3.2-.4.7-.9,1.2-1.6,1.5H3.6c-1.4,0-2.367-.233-2.9-.7-.7-.7-.7-1.4-.7-2.4.1-1.1.6-2,1-3,0-.2.2-.5.3-.7.2-.4.4-.9.6-1.3.3-.7.6-1.4.9-2.1,0-.2.2-.5.3-.7.2-.6.5-1.2.7-1.8.2-.5.4-.9.6-1.4,0-.2.2-.4.3-.7.733-1.867,1.467-3.167,2.2-3.9,0-.067-.033-.133-.1-.2-.6-1.2-.6-2.5-.6-3.8v-21.8c0-1.5,0-2.7.8-3.9,1-1,2.1-1.2,3.5-1.2h.3ZM7.8,44.748c-.2.267-.367.6-.5,1,0,.133-.033.233-.1.3-.2.4-.3.7-.5,1.1,0,.1-.1.3-.2.4-.5,1.1-1,2.3-1.4,3.4-.2.5-.4,1-.6,1.5-.1.3-.3.7-.4,1-.4.9-.7,1.7-1.1,2.6-.067.2-.133.367-.2.5-.1.3-.3.7-.4,1,0,.133-.067.3-.2.5,0,.1-.1.3-.2.4-.1.5,0,.7,0,1.2.4.4.6.4,1.3.4h55.4c.333,0,.567-.167.7-.5.133-.267.167-.533.1-.8,0-.1,0-.2-.1-.3,0-.1,0-.3-.1-.4,0-.1-.1-.3-.2-.4,0-.133-.033-.267-.1-.4-.1-.4-.3-.7-.4-1.1,0-.133-.067-.267-.2-.4-.2-.4-.4-.9-.5-1.3-.1-.3-.2-.6-.4-.9-.8-1.9-1.6-3.8-2.4-5.7,0-.1,0-.2-.1-.3-.1-.3-.3-.6-.4-1,0-.2-.2-.4-.2-.5,0-.2-.1-.3-.2-.5,0-.2-.2-.4-.2-.5-.3-.5-.4-.6-.9-.8H9.2c-.4,0-.7.1-1,.4l-.4.1Z" fill="#28006c"/><path d="M11.6,15.548h8.6c.5,0,.7.2,1.1.6v.8c0,.267-.167.433-.5.5-.333.067-.633.067-.9,0h-8.2v9.8c.6-.2,1.3-.4,2-.7,1.3-.2,2.7.3,3.7,1,1.2,1,1.9,2.1,2.1,3.6v1.3h.6c.9.1,1.7.6,2.3,1.2,0,0,.2.1.2.2.267,0,.533-.033.8-.1h1.5c1.3,0,2.1-.4,3-1.2.3-.6.3-1.2.4-1.8,0-.267.1-.567.3-.9.267-.133.533-.2.8-.2.267.133.5.333.7.6.2,1.3-.1,2.4-.9,3.4-.6.7-1.3,1.1-2.1,1.5-.067,0-.167.067-.3.2-.6.3-1,.4-1.6.2-.9,0-1.5.1-2.3.5h-.8c-.2-.2-.4-.4-.6-.6-.6-.7-1.1-1.1-2-1.2h-1c-.5,0-.6-.2-.9-.6v-1.4c0-.933-.2-1.8-.6-2.6-.8-.8-1.6-1.2-2.8-1.3-.9,0-1.8.4-2.4,1,0,3.1-.1,6.2-.2,9.5h38.2c0-3.1-.1-6.2-.2-9.5-1.2-.8-1.9-1.2-3.3-.9-1.1.3-1.9,1-2.4,2-.3.8-.2,1.6-.2,2.5v.9c-.5.4-.7.4-1.4.4-.9,0-1.6.2-2.2.9,0,.1-.2.2-.3.4-.333.4-.7.633-1.1.7-.333-.067-.633-.2-.9-.4-.6-.3-.9-.3-1.6-.2-1.5,0-2.8-.5-3.9-1.5-.8-.9-1.1-1.6-1.1-2.9v-.6c0-.333.1-.6.3-.8.2-.133.433-.167.7-.1s.5.233.7.5c0,.3,0,.7.1,1,0,.7.1,1,.6,1.6.133.133.3.233.5.3.2.1.3.2.5.4.8.4,1.7.3,2.5.3.7,0,1.1.1,1.7.3,0,0,0-.2.1-.3.3-.6.9-.9,1.5-1.2.5-.1,1-.2,1.5-.2v-.3c0-1.6.4-2.7,1.5-3.9,1.1-1,2.2-1.5,3.7-1.7.9.1,1.8.5,2.7.7v-9.8h-9.1c-.267,0-.5-.1-.7-.3-.133-.2-.233-.433-.3-.7,0-.267.1-.5.3-.7.5-.3.8-.3,1.4-.3.2,0,.4,0,.6,0h7.6c.2,0,.367,0,.5,0,.5,0,.7.2,1.1.6v24c-.5.3-.6.4-1.2.4h-16.3c-.133,0-.267,0-.4,0-.133,0-.267,0-.4,0H11.6c-.133,0-.3,0-.5,0-.4,0-.7,0-1.1-.1-.5-.5-.6-1.1-.6-1.8v-20.5c0-.933.167-1.633.5-2.1.5-.3.8-.4,1.5-.4h.2Z" fill="#28006c"/><path d="M31.2.648c2.6,1.4,4.3,3.8,5.2,6.5,0,.1.1.3.2.4.8,2.5.7,6.2-.5,8.5.1,0,.3,0,.4.1,1.7.6,3.6,1.4,4.5,3,.7,1.5.5,2.8,0,4.3,0,.1,0,.3-.2.4-.1.3-.2.6-.3.9-.2.5-.3.9-.5,1.4-.1.3-.2.6-.3.9,0,.1,0,.3-.1.4,0,.1,0,.3-.1.4,0,.1,0,.2-.1.3-.2.3-.3.6-.6.8-.5,0-.8,0-1.1-.5,0-.4-.1-.8-.2-1.2v-.7c0-.4-.1-.8-.1-1.1,0-.4,0-.7-.1-1.1v-.3c0-.5-.1-.8-.5-1.2-.6-.3-1-.2-1.7-.2v.4c-.1.5-.2,1.1-.3,1.6,0,.2,0,.4-.1.6,0,.2,0,.4-.1.6v.5c-.1.5-.2.8-.6,1.1h-4.9c-.6,0-1-.133-1.2-.4-.2-.267-.267-.533-.2-.8,0-.2,0-.3-.1-.5,0-.2,0-.3-.1-.5,0-.2,0-.3-.1-.5-.2-.7-.3-1.4-.3-2.2h-1.1c-.267,0-.567.133-.9.4-.133.333-.233.7-.3,1.1v.3c-.2,1-.3,2.1-.4,3.1-.1.6-.2.9-.6,1.4-.2.133-.433.2-.7.2-.7-.4-.9-1.1-1.2-1.8,0-.1,0-.3-.1-.4,0-.3-.2-.6-.3-.8-.1-.4-.3-.8-.4-1.3-.6-1.8-1.2-3.7-.5-5.6,1.1-1.7,3-2.4,4.8-3.2,0-.7-.1-1.4-.3-2.2-.7-3.1-.3-6.6,1.4-9.3.9-1.4,2-2.5,3.4-3.5.133-.067.267-.167.4-.3.5-.3.672-.215.65-.2s.25.2.25.2ZM30.5,2.248c-1.2.867-2.167,1.9-2.9,3.1h6.2c-1-1.3-1.8-2.3-3.3-3.1ZM26.7,6.948c-1.3,3.4-.5,6.8.2,10.2.1.7.3,1.3.4,2,.5,2.2.9,4.5,1.5,6.7h3.6c.2-1.1.5-2.3.7-3.4.1-.5.2-1.1.3-1.6.5-2.2.9-4.5,1.4-6.7,0-.2,0-.4.1-.5.4-2.1.6-4.7-.4-6.7h-7.8ZM23.9,18.348c-.1,0-.2.1-.4.2-.9.4-1.5.9-2,1.9-.2,1.5.3,2.7.8,4.1.133,0,.233-.067.3-.2,0-.2.033-.433.1-.7.2-.9.5-1.5,1.3-2.1.7-.3,1.3-.4,2-.4,0-1.1-.3-2.2-.5-3.3-.6,0-1.1.3-1.7.6l.1-.1ZM35.7,17.748l-.7,3.3c.5,0,1,.1,1.5.2.9.5,1.4,1,1.8,1.9.1.5.2,1.1.3,1.7.7-1,1.2-2.7,1.2-3.9-.2-.9-.8-1.5-1.5-2-.4-.2-.7-.4-1.1-.5-.1,0-.3-.1-.4-.2-.333-.2-.7-.333-1.1-.4v-.1Z" fill="#28006c"/><path d="M11,45.548h25.7c.333,0,.6.1.8.3s.233.433.1.7c-.133.267-.3.5-.5.7s-.533.2-1,0H10.8c-.2.5-.3,1-.5,1.5-.4,1-.8,2-1.1,3.1h42.8c-.5-1.4-1.1-2.8-1.6-4.2v-.3h-4.5c-.5,0-.8,0-1.2-.3-.133-.2-.167-.433-.1-.7s.233-.5.5-.7h5.4c.6,0,1.033.1,1.3.3.3.6.5,1.2.7,1.8,0,.133.067.267.2.4.1.3.2.6.3.8.2.4.3.8.5,1.3.1.3.2.5.3.8,0,.1,0,.3.1.4.267.733.333,1.333.2,1.8-.5.3-.7.4-1.3.4H9c-.8,0-1.367-.133-1.7-.4-.133-.2-.2-.433-.2-.7,0-.1,0-.3.1-.4,0-.2.1-.3.2-.5,0-.2.1-.4.2-.6,0-.1,0-.2.1-.3,0-.2.2-.4.2-.7.1-.3.2-.7.4-1,.8-2.2,1.667-3.3,2.6-3.3l.1-.2Z" fill="#28006c"/><path d="M25.6,54.248h10.4c.5,0,.8,0,1.3.3.4.5.5,1,.5,1.6v.4c.1.7.2,1.5.1,2.2-.7.5-1.3.6-2.1.6h-10.9c-.7,0-1.2,0-1.7-.6v-1.9c0-.2.167-.933.5-2.2.5-.4,1-.4,1.6-.4h.3ZM25.4,55.948c0,.5-.1,1-.2,1.5h11.1c0-.467-.067-.967-.2-1.5h-10.8.1Z" fill="#28006c"/><path d="M31.7,8.448c1,.5,1.4,1.3,1.8,2.3.4,1.2.2,2.3-.3,3.5-.4.8-1.1,1.3-1.9,1.7-.8,0-1.4,0-2.2-.4-.8-.7-1.4-1.7-1.5-2.7,0-1.5,0-2.7,1.2-3.9.9-.8,1.7-.9,2.8-.5h.1ZM29.7,10.448c-.5.8-.5,1.6-.4,2.6.2.6.5,1,1.1,1.3.333,0,.633-.133.9-.4.6-.7.7-1.3.7-2.2-.1-.8-.4-1.3-1-1.9-.7-.2-.9,0-1.3.5v.1Z" fill="#28006c"/><path d="M40.2,45.448c.133,0,.267,0,.4,0h1.2c.133,0,.267,0,.4,0,.133,0,.4.133.8.4.4.267.4.6,0,1-.5.5-.8.4-1.4.4h-.8c-.133,0-.267,0-.4,0h-.4c-.4,0-.6-.2-.8-.6,0-.8.3-1.2,1.1-1.2h-.1Z" fill="#28006c"/><path d="M48.2,1.348c.3.2.5.5.8.7l.2.2c.1.1.3.3.4.4.2.2.4.4.6.6.5.5.9.9,1.4,1.4l1.5,1.5c.2.2.4.4.6.6.1.1.3.3.4.4,0,0,.2.2.3.3.8.8,1.6,1.3,2.7,1.3s1.9-.4,2.7-1.2c.7-.8.8-1.7.8-2.7,0-.9-.5-1.6-1.2-2.2s-1.6-.8-2.5-.8c-1.2.2-2,.8-2.8,1.7-.3.3-.5.5-.9.5-.3,0-.5-.2-.7-.5v-.7c.2-.3.5-.6.7-.8h0c.5-.5,1-.9,1.6-1.2h.2c1.2-.5,2.6-.6,3.8-.2,1.3.5,2.4,1.4,3,2.7.6,1.4.6,2.7,0,4.2-.2.4-.4.8-.7,1.1,0,0,0,.1-.1.2-.8,1-2.1,1.6-3.3,1.7-1.5.1-2.8-.4-3.9-1.3-.2-.2-.4-.4-.6-.6l-.2-.2c-.1-.1-.3-.3-.4-.4-.2-.2-.4-.4-.6-.6-.6-.6-1.2-1.2-1.8-1.8-.3-.3-.7-.7-1-1-.2-.2-.4-.4-.6-.6-.1-.1-.3-.3-.4-.4,0,0-.2-.2-.3-.3-.8-.7-1.6-1.3-2.7-1.3-1,0-1.8.3-2.6,1-.7.7-.9,1.6-.9,2.5s.4,1.7,1,2.3c.7.6,1.5.9,2.5.9,1.3,0,2.2-.8,3-1.7.3-.3.5-.5.9-.5.3,0,.5.2.7.5v.7c-.2.3-.5.6-.7.8h0c-.5.5-1,.9-1.6,1.2h-.2c-1.2.5-2.6.6-3.8.2-1.3-.5-2.4-1.4-3-2.7-.5-1.1-.6-2.5-.2-3.7v-.3c.6-1.3,1.6-2.3,2.9-2.9,1.7-.7,3.5-.3,5,.8v.2Z" fill="#28006c"/></svg>