<?xml version="1.0" encoding="UTF-8"?>
<svg id="Layer_1" data-name="Layer 1" xmlns="http://www.w3.org/2000/svg" width="95" height="95" viewBox="0 0 95 95">
  <defs>
    <style>
      .cls-1 {
        fill: #fff;
      }

      .cls-2 {
        fill: #28006c;
      }
    </style>
  </defs>
  <circle class="cls-2" cx="47.5" cy="47.5" r="47.5"/>
  <g>
    <path class="cls-1" d="M27.2,26.9c.1,0,.3,0,.4,0,.4,0,.9,0,1.3,0,.2,0,.3,0,.5,0,.8,0,1.6,0,2.4,0,.8,0,1.7,0,2.5,0,.6,0,1.3,0,1.9,0,.3,0,.6,0,.9,0,.4,0,.9,0,1.3,0,.1,0,.3,0,.4,0,.6,0,.9,0,1.4,.4q.2,.3,.2,.7t-.5,.6c-.4,0-.8,0-1.3,0-.1,0-.3,0-.4,0-.3,0-.6,0-.9,0-.5,0-.9,0-1.4,0-1.3,0-2.6,0-3.9,0-.8,0-1.6,0-2.4,0-.3,0-.6,0-.9,0-.4,0-.8,0-1.3,0-.1,0-.2,0-.4,0-.9,0-1.6,.2-2.3,.9-.2,.6-.2,1.1-.2,1.7,0,.1,0,.2,0,.3,0,.4,0,.7,0,1.1,0,.3,0,.5,0,.8,0,.7,0,1.4,0,2.1,0,.4,0,.9,0,1.3,0,1.3,0,2.7,0,4,0,1.5,0,3.1,0,4.6,0,1.2,0,2.4,0,3.6,0,.7,0,1.4,0,2.1,0,.7,0,1.3,0,2,0,.2,0,.5,0,.7,0,.3,0,.7,0,1,0,.2,0,.4,0,.6,0,.6,.2,1,.6,1.5,.5,.3,.8,.4,1.4,.4,.1,0,.3,0,.5,0,.2,0,.3,0,.5,0,.2,0,.3,0,.5,0,.6,0,1.2,0,1.7,0,.4,0,.8,0,1.3,0,1,0,2,0,3,0,.8,0,1.7,0,2.5,0q.2,0,.4,0c.2,0,.5,0,.7,0,2.2,0,4.5,0,6.7,0,2,0,4.1,0,6.1,0,2.1,0,4.2,0,6.3,0,1.2,0,2.4,0,3.5,0,1.1,0,2.2,0,3.3,0,.4,0,.8,0,1.2,0,.6,0,1.1,0,1.7,0,.2,0,.3,0,.5,0q1.1,0,2-.6c.3-.7,.4-1.3,.4-2.1,0-.1,0-.2,0-.3,0-.3,0-.7,0-1,0-.3,0-.5,0-.8,0-.7,0-1.4,0-2,0-.7,0-1.4,0-2.1,0-1.2,0-2.4,0-3.6,0-1.4,0-2.8,0-4.2,0-1.2,0-2.4,0-3.6,0-.7,0-1.4,0-2.1,0-.7,0-1.3,0-2,0-.2,0-.5,0-.7,0-.3,0-.7,0-1,0-.2,0-.4,0-.6,0-.7-.2-1.1-.7-1.6-.7-.4-1.3-.4-2.1-.4-.1,0-.3,0-.4,0-.3,0-.6,0-.9,0-.5,0-.9,0-1.4,0-1.3,0-2.6,0-3.8,0-.8,0-1.6,0-2.4,0-.3,0-.6,0-.9,0-.4,0-.8,0-1.3,0-.1,0-.2,0-.4,0q-.8,0-1.2-.3-.2-.3-.1-.7,.1-.4,.6-.7c.4,0,.9,0,1.3,0,.1,0,.3,0,.4,0,.4,0,.9,0,1.3,0,.3,0,.6,0,.9,0,.6,0,1.3,0,1.9,0,.8,0,1.6,0,2.4,0,.6,0,1.3,0,1.9,0,.3,0,.6,0,.9,0,.4,0,.8,0,1.3,0,.1,0,.2,0,.4,0,1.1,0,2,.2,2.8,.9,.9,1.1,1.2,1.8,1.2,3.1,0,.1,0,.2,0,.3,0,.4,0,.7,0,1.1,0,.3,0,.5,0,.8,0,.8,0,1.7,0,2.5,0,.3,0,.6,0,.9,0,1.4,0,2.7,0,4.1,0,1.6,0,3.2,0,4.7,0,1.2,0,2.4,0,3.7,0,.7,0,1.5,0,2.2,0,.7,0,1.4,0,2.1,0,.3,0,.5,0,.8,0,1.4,0,2.6-.7,3.9,.1,0,.2,.2,.3,.3,1.3,1.3,1.9,3.5,2.6,5.2,.7,1.7,1.4,3.4,2.1,5.1,.3,.8,.7,1.6,1,2.4,.1,.3,.2,.6,.4,.8,.5,1.1,.6,2,.4,3.2-.4,.7-.9,1.2-1.6,1.5q-.4,0-1,0c-.2,0-.4,0-.6,0-.2,0-.4,0-.7,0-.2,0-.5,0-.7,0-.7,0-1.3,0-2,0-.7,0-1.4,0-2.1,0-1.4,0-2.8,0-4.1,0-1.1,0-2.2,0-3.4,0-3.2,0-6.3,0-9.5,0-.2,0-.3,0-.5,0q-.3,0-.5,0c-2.8,0-5.6,0-8.3,0-2.8,0-5.7,0-8.5,0-1.6,0-3.2,0-4.8,0-1.4,0-2.7,0-4.1,0-.7,0-1.4,0-2.1,0-.6,0-1.3,0-1.9,0-.2,0-.5,0-.7,0q-2.1,0-2.9-.7c-.7-.7-.7-1.4-.7-2.4,.1-1.1,.6-2,1-3,0-.2,.2-.5,.3-.7,.2-.4,.4-.9,.6-1.3,.3-.7,.6-1.4,.9-2.1,0-.2,.2-.5,.3-.7,.2-.6,.5-1.2,.7-1.8,.2-.5,.4-.9,.6-1.4,0-.2,.2-.4,.3-.7q1.1-2.8,2.2-3.9,0-.1-.1-.2c-.6-1.2-.6-2.5-.6-3.8,0-.3,0-.5,0-.8,0-.7,0-1.4,0-2.1,0-.7,0-1.5,0-2.2,0-1.2,0-2.5,0-3.7,0-1.4,0-2.8,0-4.3,0-1.4,0-2.7,0-4.1,0-.6,0-1.2,0-1.7,0-.7,0-1.4,0-2.1,0-.3,0-.5,0-.8,0-1.5,0-2.7,.8-3.9,1-1,2.1-1.2,3.5-1.2Zm-3,32.5q-.3,.4-.5,1,0,.2-.1,.3c-.2,.4-.3,.7-.5,1.1,0,.1-.1,.3-.2,.4-.5,1.1-1,2.3-1.4,3.4-.2,.5-.4,1-.6,1.5-.1,.3-.3,.7-.4,1-.4,.9-.7,1.7-1.1,2.6q-.1,.3-.2,.5c-.1,.3-.3,.7-.4,1q0,.2-.2,.5c0,.1-.1,.3-.2,.4-.1,.5,0,.7,0,1.2,.4,.4,.6,.4,1.3,.4q.3,0,.6,0c.2,0,.4,0,.7,0,.2,0,.5,0,.7,0,.6,0,1.3,0,1.9,0,.7,0,1.4,0,2.1,0,1.5,0,3,0,4.6,0,.9,0,1.9,0,2.8,0,2.6,0,5.3,0,7.9,0,.2,0,.3,0,.5,0h1c.2,0,.3,0,.5,0,.2,0,.3,0,.5,0,2.7,0,5.5,0,8.2,0,2.8,0,5.6,0,8.5,0,1.6,0,3.2,0,4.8,0,1.3,0,2.7,0,4,0,.7,0,1.4,0,2.1,0,.6,0,1.3,0,1.9,0,.2,0,.5,0,.7,0,.3,0,.6,0,.9,0,.2,0,.3,0,.5,0q.5,0,.7-.5,.2-.4,.1-.8c0-.1,0-.2-.1-.3,0-.1,0-.3-.1-.4,0-.1-.1-.3-.2-.4q0-.2-.1-.4c-.1-.4-.3-.7-.4-1.1q0-.2-.2-.4c-.2-.4-.4-.9-.5-1.3-.1-.3-.2-.6-.4-.9-.8-1.9-1.6-3.8-2.4-5.7,0-.1,0-.2-.1-.3-.1-.3-.3-.6-.4-1,0-.2-.2-.4-.2-.5,0-.2-.1-.3-.2-.5,0-.2-.2-.4-.2-.5-.3-.5-.4-.6-.9-.8q-.4,0-.8,0c-.2,0-.3,0-.5,0q-.3,0-.5,0-.3,0-.5,0c-.6,0-1.2,0-1.8,0-.4,0-.9,0-1.3,0-1.1,0-2.1,0-3.2,0-.9,0-1.7,0-2.6,0-.1,0-.2,0-.4,0-.2,0-.5,0-.7,0-2.3,0-4.7,0-7,0-2,0-4,0-6,0-2.3,0-4.7,0-7,0-.2,0-.5,0-.7,0-.1,0-.2,0-.4,0-.9,0-1.7,0-2.6,0-1.1,0-2.1,0-3.2,0-.5,0-1.1,0-1.6,0-.6,0-1.2,0-1.7,0-.2,0-.3,0-.5,0q-.2,0-.5,0c-.1,0-.3,0-.4,0-.4,0-.7,.1-1,.4Z"/>
    <path class="cls-1" d="M28,30.2c.2,0,.4,0,.6,0,.2,0,.4,0,.6,0,.2,0,.4,0,.7,0,.5,0,.9,0,1.4,0,.6,0,1.2,0,1.8,0,.5,0,.9,0,1.4,0,.3,0,.6,0,1,0,.2,0,.4,0,.6,0,.2,0,.3,0,.5,0,.5,0,.7,.2,1.1,.6q0,.4,0,.8t-.5,.5-.9,0c-.2,0-.4,0-.6,0q-.3,0-.6,0t-.5,0c-.7,0-1.3,0-2,0q-2.2,0-4.5,0v9.8c.6-.2,1.3-.4,2-.7,1.3-.2,2.7,.3,3.7,1,1.2,1,1.9,2.1,2.1,3.6,0,.4,0,.9,0,1.3,.2,0,.4,0,.6,0,.9,.1,1.7,.6,2.3,1.2,0,0,.2,.1,.2,.2q.4,0,.8-.1c.5,0,1,0,1.5,0,1.3,0,2.1-.4,3-1.2,.3-.6,.3-1.2,.4-1.8q0-.4,.3-.9,.4-.2,.8-.2,.4,.2,.7,.6c.2,1.3-.1,2.4-.9,3.4-.6,.7-1.3,1.1-2.1,1.5q-.1,0-.3,.2c-.6,.3-1,.4-1.6,.2-.9,0-1.5,.1-2.3,.5q-.4,0-.8,0-.3-.3-.6-.6c-.6-.7-1.1-1.1-2-1.2-.3,0-.7,0-1,0-.5,0-.6-.2-.9-.6,0-.5,0-.9,0-1.4q0-1.4-.6-2.6c-.8-.8-1.6-1.2-2.8-1.3-.9,0-1.8,.4-2.4,1,0,3.1-.1,6.2-.2,9.5h38.2c0-3.1-.1-6.2-.2-9.5-1.2-.8-1.9-1.2-3.3-.9-1.1,.3-1.9,1-2.4,2-.3,.8-.2,1.6-.2,2.5q0,.3,0,.9c-.5,.4-.7,.4-1.4,.4-.9,0-1.6,.2-2.2,.9,0,.1-.2,.2-.3,.4q-.5,.6-1.1,.7-.5-.1-.9-.4c-.6-.3-.9-.3-1.6-.2-1.5,0-2.8-.5-3.9-1.5-.8-.9-1.1-1.6-1.1-2.9,0-.2,0-.4,0-.6q0-.5,.3-.8,.3-.2,.7-.1,.4,.1,.7,.5c0,.3,0,.7,.1,1,0,.7,.1,1,.6,1.6q.2,.2,.5,.3c.2,.1,.3,.2,.5,.4,.8,.4,1.7,.3,2.5,.3,.7,0,1.1,.1,1.7,.3,0,0,0-.2,.1-.3,.3-.6,.9-.9,1.5-1.2,.5-.1,1-.2,1.5-.2,0-.1,0-.2,0-.3,0-1.6,.4-2.7,1.5-3.9,1.1-1,2.2-1.5,3.7-1.7,.9,.1,1.8,.5,2.7,.7v-9.8q-3.1,0-6.2,0c-.4,0-.8,0-1.2,0q-.3,0-.6,0-.3,0-.6,0c-.2,0-.3,0-.5,0q-.4,0-.7-.3-.2-.3-.3-.7,0-.4,.3-.7c.5-.3,.8-.3,1.4-.3q.3,0,.6,0c.2,0,.4,0,.7,0,.2,0,.5,0,.7,0,.5,0,1,0,1.4,0,.6,0,1.2,0,1.8,0,.5,0,.9,0,1.4,0,.2,0,.5,0,.7,0,.3,0,.6,0,.9,0q.3,0,.5,0c.5,0,.7,.2,1.1,.6q0,.4,0,1c0,.2,0,.4,0,.6,0,.2,0,.4,0,.7,0,.2,0,.5,0,.7,0,.6,0,1.3,0,1.9,0,.7,0,1.3,0,2,0,1.1,0,2.3,0,3.4,0,1.3,0,2.6,0,3.9,0,1.3,0,2.5,0,3.8,0,.5,0,1.1,0,1.6,0,.6,0,1.3,0,1.9,0,.2,0,.5,0,.7,0,.3,0,.6,0,.9q0,.3,0,.5c0,.1,0,.3,0,.4-.5,.3-.6,.4-1.2,.4-.1,0-.3,0-.4,0-.2,0-.3,0-.5,0-.2,0-.3,0-.5,0-.6,0-1.1,0-1.7,0-.4,0-.8,0-1.2,0-1.1,0-2.2,0-3.3,0-.7,0-1.4,0-2,0-1.9,0-3.8,0-5.6,0-.1,0-.2,0-.4,0-.2,0-.5,0-.7,0q-.2,0-.4,0-.2,0-.4,0c-2,0-3.9,0-5.9,0-2,0-4,0-6,0-1.1,0-2.3,0-3.4,0-1.1,0-2.1,0-3.2,0-.4,0-.8,0-1.2,0-.5,0-1.1,0-1.6,0q-.2,0-.5,0c-.4,0-.7,0-1.1-.1-.5-.5-.6-1.1-.6-1.8q0-.3,0-.6c0-.2,0-.4,0-.6,0-.2,0-.5,0-.7,0-.6,0-1.2,0-1.8,0-.5,0-1,0-1.5,0-1.2,0-2.4,0-3.6,0-1.3,0-2.5,0-3.8,0-1.1,0-2.1,0-3.2,0-.6,0-1.3,0-1.9,0-.6,0-1.2,0-1.8,0-.3,0-.7,0-1q0-1.4,.5-2.1c.5-.3,.8-.4,1.5-.4Z"/>
    <path class="cls-1" d="M47.6,15.3c2.6,1.4,4.3,3.8,5.2,6.5,0,.1,.1,.3,.2,.4,.8,2.5,.7,6.2-.5,8.5,.1,0,.3,0,.4,.1,1.7,.6,3.6,1.4,4.5,3,.7,1.5,.5,2.8,0,4.3,0,.1,0,.3-.2,.4-.1,.3-.2,.6-.3,.9-.2,.5-.3,.9-.5,1.4-.1,.3-.2,.6-.3,.9,0,.1,0,.3-.1,.4,0,.1,0,.3-.1,.4,0,.1,0,.2-.1,.3-.2,.3-.3,.6-.6,.8-.5,0-.8,0-1.1-.5,0-.4-.1-.8-.2-1.2,0-.2,0-.5,0-.7,0-.4-.1-.8-.1-1.1,0-.4,0-.7-.1-1.1q0-.2,0-.3c0-.5-.1-.8-.5-1.2-.6-.3-1-.2-1.7-.2q0,.2,0,.4c-.1,.5-.2,1.1-.3,1.6,0,.2,0,.4-.1,.6,0,.2,0,.4-.1,.6,0,.2,0,.3,0,.5-.1,.5-.2,.8-.6,1.1-.5,0-.8,0-1.3,0-.1,0-.3,0-.4,0-.3,0-.5,0-.8,0-.4,0-.8,0-1.2,0-.3,0-.5,0-.8,0-.1,0-.2,0-.4,0q-.9,0-1.2-.4t-.2-.8c0-.2,0-.3-.1-.5,0-.2,0-.3-.1-.5,0-.2,0-.3-.1-.5-.2-.7-.3-1.4-.3-2.2-.2,0-.5,0-.7,0q-.2,0-.4,0-.4,0-.9,.4-.2,.5-.3,1.1,0,.2,0,.3c-.2,1-.3,2.1-.4,3.1-.1,.6-.2,.9-.6,1.4q-.3,.2-.7,.2c-.7-.4-.9-1.1-1.2-1.8,0-.1,0-.3-.1-.4,0-.3-.2-.6-.3-.8-.1-.4-.3-.8-.4-1.3-.6-1.8-1.2-3.7-.5-5.6,1.1-1.7,3-2.4,4.8-3.2,0-.7-.1-1.4-.3-2.2-.7-3.1-.3-6.6,1.4-9.3,.9-1.4,2-2.5,3.4-3.5q.2-.1,.4-.3c.5-.3,.8-.3,1.4-.2Zm-.7,1.6q-1.8,1.3-2.9,3.1h6.2c-1-1.3-1.8-2.3-3.3-3.1Zm-3.8,4.7c-1.3,3.4-.5,6.8,.2,10.2,.1,.7,.3,1.3,.4,2,.5,2.2,.9,4.5,1.5,6.7h3.6c.2-1.1,.5-2.3,.7-3.4,.1-.5,.2-1.1,.3-1.6,.5-2.2,.9-4.5,1.4-6.7,0-.2,0-.4,.1-.5,.4-2.1,.6-4.7-.4-6.7h-7.8Zm-2.8,11.4c-.1,0-.2,.1-.4,.2-.9,.4-1.5,.9-2,1.9-.2,1.5,.3,2.7,.8,4.1q.2,0,.3-.2,0-.3,.1-.7c.2-.9,.5-1.5,1.3-2.1,.7-.3,1.3-.4,2-.4,0-1.1-.3-2.2-.5-3.3-.6,0-1.1,.3-1.7,.6Zm11.8-.6l-.7,3.3c.5,0,1,.1,1.5,.2,.9,.5,1.4,1,1.8,1.9,.1,.5,.2,1.1,.3,1.7,.7-1,1.2-2.7,1.2-3.9-.2-.9-.8-1.5-1.5-2-.4-.2-.7-.4-1.1-.5-.1,0-.3-.1-.4-.2q-.5-.3-1.1-.4Z"/>
    <path class="cls-1" d="M27.4,60.2q.2,0,.3,0c.4,0,.8,0,1.1,0,.3,0,.5,0,.8,0,.7,0,1.5,0,2.2,0,.5,0,.9,0,1.4,0,1.4,0,2.8,0,4.3,0,1.6,0,3.3,0,4.9,0,1.3,0,2.5,0,3.8,0,.8,0,1.5,0,2.3,0,.7,0,1.4,0,2.1,0,.3,0,.5,0,.8,0,.4,0,.7,0,1.1,0,.2,0,.4,0,.6,0q.5,0,.8,.3t.1,.7-.5,.7-1,0c-.1,0-.2,0-.3,0-.4,0-.7,0-1.1,0-.3,0-.5,0-.8,0-.7,0-1.4,0-2.1,0-.7,0-1.5,0-2.2,0-1.4,0-2.8,0-4.2,0-1.6,0-3.2,0-4.8,0-3.3,0-6.5,0-9.8,0-.2,.5-.3,1-.5,1.5-.4,1-.8,2-1.1,3.1h42.8c-.5-1.4-1.1-2.8-1.6-4.2v-.3c-.2,0-.3,0-.5,0-.6,0-1.2,0-1.8,0-.3,0-.5,0-.8,0-.4,0-.7,0-1.1,0q-.2,0-.3,0c-.5,0-.8,0-1.2-.3q-.2-.3-.1-.7,.1-.4,.5-.7c.5,0,.9,0,1.4,0,.1,0,.3,0,.4,0,.3,0,.6,0,.9,0,.5,0,.9,0,1.4,0,.3,0,.6,0,.9,0q.2,0,.4,0,.9,0,1.3,.3c.3,.6,.5,1.2,.7,1.8q0,.2,.2,.4c.1,.3,.2,.6,.3,.8,.2,.4,.3,.8,.5,1.3,.1,.3,.2,.5,.3,.8,0,.1,0,.3,.1,.4q.4,1.1,.2,1.8c-.5,.3-.7,.4-1.3,.4q-.2,0-.5,0-.3,0-.5,0c-.2,0-.4,0-.6,0-.5,0-1,0-1.6,0-.6,0-1.1,0-1.7,0-1.1,0-2.2,0-3.3,0-.9,0-1.8,0-2.7,0-2.5,0-5,0-7.6,0q-.2,0-.4,0-.2,0-.4,0c-2.2,0-4.4,0-6.6,0-2.3,0-4.5,0-6.8,0-1.3,0-2.5,0-3.8,0-1.1,0-2.2,0-3.3,0-.6,0-1.1,0-1.7,0-.6,0-1.2,0-1.8,0q-.3,0-.5,0-1.2,0-1.7-.4-.2-.3-.2-.7c0-.1,0-.3,.1-.4,0-.2,.1-.3,.2-.5,0-.2,.1-.4,.2-.6,0-.1,0-.2,.1-.3,0-.2,.2-.4,.2-.7,.1-.3,.2-.7,.4-1q1.2-3.3,2.6-3.3Z"/>
    <path class="cls-1" d="M42,68.9c.1,0,.2,0,.4,0,.4,0,.8,0,1.2,0,.3,0,.6,0,.8,0,.6,0,1.2,0,1.8,0,.7,0,1.5,0,2.2,0,.6,0,1.2,0,1.7,0,.3,0,.6,0,.8,0,.4,0,.8,0,1.2,0,.1,0,.2,0,.3,0,.5,0,.8,0,1.3,.3,.4,.5,.5,1,.5,1.6,0,.1,0,.2,0,.4,.1,.7,.2,1.5,.1,2.2-.7,.5-1.3,.6-2.1,.6-.1,0-.3,0-.4,0-.4,0-.8,0-1.2,0-.3,0-.6,0-.9,0-.6,0-1.2,0-1.8,0-.8,0-1.6,0-2.3,0-.6,0-1.2,0-1.8,0-.3,0-.6,0-.9,0-.4,0-.8,0-1.2,0-.1,0-.2,0-.4,0-.7,0-1.2,0-1.7-.6,0-.5,0-.8,0-1.3q0-.3,0-.6t.5-2.2c.5-.4,1-.4,1.6-.4Zm-.2,1.7c0,.5-.1,1-.2,1.5h11.1q0-.7-.2-1.5h-10.8Z"/>
    <path class="cls-1" d="M48.1,23.1c1,.5,1.4,1.3,1.8,2.3,.4,1.2,.2,2.3-.3,3.5-.4,.8-1.1,1.3-1.9,1.7-.8,0-1.4,0-2.2-.4-.8-.7-1.4-1.7-1.5-2.7,0-1.5,0-2.7,1.2-3.9,.9-.8,1.7-.9,2.8-.5Zm-2,2c-.5,.8-.5,1.6-.4,2.6,.2,.6,.5,1,1.1,1.3q.5,0,.9-.4c.6-.7,.7-1.3,.7-2.2-.1-.8-.4-1.3-1-1.9-.7-.2-.9,0-1.3,.5Z"/>
    <path class="cls-1" d="M56.6,60.1q.2,0,.4,0c.1,0,.3,0,.4,0,.1,0,.3,0,.4,0,.1,0,.3,0,.4,0q.2,0,.4,0t.8,.4,0,1c-.5,.5-.8,.4-1.4,.4-.1,0-.3,0-.4,0-.1,0-.3,0-.4,0q-.2,0-.4,0c-.1,0-.3,0-.4,0-.4,0-.6-.2-.8-.6,0-.8,.3-1.2,1.1-1.2Z"/>
  </g>
  <path class="cls-1" d="M64.6,16c.3,.2,.5,.5,.8,.7,0,0,.1,.1,.2,.2,.1,.1,.3,.3,.4,.4,.2,.2,.4,.4,.6,.6,.5,.5,.9,.9,1.4,1.4,.5,.5,1,1,1.5,1.5,.2,.2,.4,.4,.6,.6,.1,.1,.3,.3,.4,.4,0,0,.2,.2,.3,.3,.8,.8,1.6,1.3,2.7,1.3,1.1,0,1.9-.4,2.7-1.2,.7-.8,.8-1.7,.8-2.7,0-.9-.5-1.6-1.2-2.2-.7-.6-1.6-.8-2.5-.8-1.2,.2-2,.8-2.8,1.7-.3,.3-.5,.5-.9,.5-.3,0-.5-.2-.7-.5,0-.3,0-.4,0-.7,.2-.3,.5-.6,.7-.8,0,0,0,0,0,0,.5-.5,1-.9,1.6-1.2q0,0,.2,0c1.2-.5,2.6-.6,3.8-.2,1.3,.5,2.4,1.4,3,2.7,.6,1.4,.6,2.7,0,4.2-.2,.4-.4,.8-.7,1.1,0,0,0,.1-.1,.2-.8,1-2.1,1.6-3.3,1.7-1.5,.1-2.8-.4-3.9-1.3-.2-.2-.4-.4-.6-.6,0,0-.1-.1-.2-.2-.1-.1-.3-.3-.4-.4-.2-.2-.4-.4-.6-.6-.6-.6-1.2-1.2-1.8-1.8-.3-.3-.7-.7-1-1-.2-.2-.4-.4-.6-.6-.1-.1-.3-.3-.4-.4,0,0-.2-.2-.3-.3-.8-.7-1.6-1.3-2.7-1.3-1,0-1.8,.3-2.6,1-.7,.7-.9,1.6-.9,2.5,0,.9,.4,1.7,1,2.3,.7,.6,1.5,.9,2.5,.9,1.3,0,2.2-.8,3-1.7,.3-.3,.5-.5,.9-.5,.3,0,.5,.2,.7,.5,0,.3,0,.4,0,.7-.2,.3-.5,.6-.7,.8,0,0,0,0,0,0-.5,.5-1,.9-1.6,1.2,0,0-.1,0-.2,0-1.2,.5-2.6,.6-3.8,.2-1.3-.5-2.4-1.4-3-2.7-.5-1.1-.6-2.5-.2-3.7q0-.1,0-.2s0,0,0-.1c.6-1.3,1.6-2.3,2.9-2.9,1.7-.7,3.5-.3,5,.8Z"/>
</svg>