<svg width="111" height="111" viewBox="0 0 111 111" fill="none" xmlns="http://www.w3.org/2000/svg">
<circle cx="55.5" cy="55.5" r="55.5" fill="#270069"/>
<path d="M39.375 45.8438C39.375 42.7357 40.6096 39.755 42.8073 37.5573C45.005 35.3597 47.9857 34.125 51.0937 34.125C54.2017 34.125 57.1824 35.3597 59.3801 37.5573C61.5778 39.755 62.8125 42.7357 62.8125 45.8438C62.8125 46.2582 62.6479 46.6556 62.3548 46.9486C62.0618 47.2416 61.6644 47.4062 61.25 47.4062C60.8356 47.4062 60.4381 47.2416 60.1451 46.9486C59.8521 46.6556 59.6875 46.2582 59.6875 45.8438C59.6875 43.5645 58.7821 41.3787 57.1704 39.7671C55.5588 38.1554 53.3729 37.25 51.0937 37.25C48.8145 37.25 46.6287 38.1554 45.017 39.7671C43.4054 41.3787 42.5 43.5645 42.5 45.8438C42.5 46.2582 42.3354 46.6556 42.0423 46.9486C41.7493 47.2416 41.3519 47.4062 40.9375 47.4062C40.5231 47.4062 40.1256 47.2416 39.8326 46.9486C39.5396 46.6556 39.375 46.2582 39.375 45.8438ZM66.7187 54.4375C65.8073 54.4365 64.9101 54.6641 64.1094 55.0996C63.8701 54.3592 63.4756 53.6783 62.9521 53.1026C62.4287 52.5268 61.7884 52.0693 61.0741 51.7608C60.3597 51.4522 59.5878 51.2997 58.8097 51.3133C58.0317 51.3269 57.2656 51.5065 56.5625 51.8398V45.8438C56.5625 44.3933 55.9863 43.0023 54.9607 41.9768C53.9351 40.9512 52.5441 40.375 51.0937 40.375C49.6433 40.375 48.2523 40.9512 47.2267 41.9768C46.2011 43.0023 45.625 44.3933 45.625 45.8438V61.4688L44.8789 60.2715C44.1493 59.0177 42.9515 58.105 41.549 57.7344C40.1465 57.3637 38.6542 57.5653 37.4004 58.2949C36.1465 59.0245 35.2339 60.2223 34.8632 61.6248C34.4926 63.0273 34.6942 64.5196 35.4238 65.7734L41.1504 75.5391C41.2464 75.7293 41.3803 75.8978 41.5439 76.0343C41.7075 76.1709 41.8973 76.2725 42.1016 76.333C42.3059 76.3935 42.5204 76.4115 42.732 76.3861C42.9435 76.3606 43.1476 76.2921 43.3317 76.1849C43.5158 76.0776 43.676 75.9338 43.8025 75.7623C43.929 75.5909 44.0191 75.3954 44.0672 75.1878C44.1154 74.9802 44.1206 74.765 44.0825 74.5554C44.0444 74.3457 43.9638 74.1461 43.8457 73.9688L38.125 64.2031C37.9644 63.9364 37.8585 63.6403 37.8136 63.3321C37.7687 63.024 37.7857 62.71 37.8635 62.4085C37.9413 62.107 38.0784 61.824 38.2669 61.5761C38.4553 61.3282 38.6912 61.1203 38.9608 60.9646C39.2305 60.8089 39.5285 60.7085 39.8374 60.6692C40.1462 60.6299 40.4599 60.6526 40.7599 60.7359C41.0599 60.8192 41.3404 60.9615 41.5848 61.1544C41.8292 61.3473 42.0328 61.5869 42.1836 61.8594L42.2109 61.9043L45.8594 67.7637C46.0385 68.0527 46.307 68.2754 46.6242 68.398C46.9414 68.5206 47.2899 68.5364 47.6169 68.4429C47.9438 68.3495 48.2314 68.1519 48.4359 67.8802C48.6404 67.6085 48.7506 67.2775 48.75 66.9375V45.8438C48.75 45.2221 48.9969 44.626 49.4364 44.1865C49.876 43.7469 50.4721 43.5 51.0937 43.5C51.7153 43.5 52.3115 43.7469 52.751 44.1865C53.1905 44.626 53.4375 45.2221 53.4375 45.8438V59.125C53.4375 59.5394 53.6021 59.9368 53.8951 60.2299C54.1882 60.5229 54.5856 60.6875 55 60.6875C55.4144 60.6875 55.8118 60.5229 56.1048 60.2299C56.3979 59.9368 56.5625 59.5394 56.5625 59.125V56.7812C56.5625 56.1596 56.8094 55.5635 57.2489 55.124C57.6885 54.6844 58.2846 54.4375 58.9062 54.4375C59.5278 54.4375 60.124 54.6844 60.5635 55.124C61.003 55.5635 61.25 56.1596 61.25 56.7812V60.6875C61.25 61.1019 61.4146 61.4993 61.7076 61.7924C62.0006 62.0854 62.3981 62.25 62.8125 62.25C63.2269 62.25 63.6243 62.0854 63.9173 61.7924C64.2104 61.4993 64.375 61.1019 64.375 60.6875V59.9062C64.375 59.2846 64.6219 58.6885 65.0614 58.249C65.501 57.8094 66.0971 57.5625 66.7187 57.5625C67.3403 57.5625 67.9365 57.8094 68.376 58.249C68.8155 58.6885 69.0625 59.2846 69.0625 59.9062V66.9375C69.0625 71.1582 67.6758 74.0273 67.664 74.0508C67.4789 74.4214 67.4486 74.8504 67.5797 75.2434C67.7109 75.6364 67.9927 75.9612 68.3633 76.1465C68.58 76.2561 68.8196 76.313 69.0625 76.3125C69.3528 76.3127 69.6374 76.232 69.8844 76.0796C70.1314 75.9271 70.331 75.7088 70.4609 75.4492C70.5332 75.3066 72.1894 71.9336 72.1894 66.9375V59.9062C72.1894 59.1879 72.0479 58.4766 71.773 57.813C71.498 57.1494 71.095 56.5464 70.587 56.0386C70.079 55.5307 69.4759 55.1279 68.8121 54.8532C68.1484 54.5785 67.4371 54.4372 66.7187 54.4375Z" fill="white"/>
</svg>
