<?xml version="1.0" encoding="UTF-8"?>
<svg id="Layer_1" data-name="Layer 1" xmlns="http://www.w3.org/2000/svg" width="95" height="95" viewBox="0 0 95 95">
  <defs>
    <style>
      .cls-1 {
        fill: #fff;
      }

      .cls-2 {
        fill: #28006c;
      }
    </style>
  </defs>
  <circle class="cls-2" cx="47.5" cy="47.5" r="47.5"/>
  <g>
    <path class="cls-1" d="M20.1,21.6c.1,0,.2,0,.3,0,.2,0,.5,0,.7,0,.4,0,.7,0,1.1,0,.2,0,.5,0,.7,0,.1,0,.2,0,.3,0,.5,0,.8,0,1.2,.3,.2,.4,.2,.7,.2,1.1,0,.1,0,.3,0,.4,0,.2,0,.4,0,.6,0,.6,0,1.2,0,1.8h4.1q0-1.2,0-2.3c0-.1,0-.3,0-.4q0-.2,0-.4t.2-.7c.5-.3,.9-.3,1.5-.3,.1,0,.2,0,.3,0,.2,0,.5,0,.7,0,.4,0,.7,0,1.1,0,.2,0,.5,0,.7,0,.1,0,.2,0,.3,0,.5,0,.8,0,1.2,.3,.2,.4,.2,.7,.2,1.1,0,.1,0,.3,0,.4,0,.2,0,.4,0,.6,0,.6,0,1.2,0,1.8h4.1q0-1.2,0-2.3c0-.1,0-.3,0-.4,0-.1,0-.3,0-.4q0-.4,.2-.7c.5-.3,.9-.3,1.5-.3q.2,0,.3,0c.2,0,.5,0,.7,0,.4,0,.7,0,1.1,0,.2,0,.5,0,.7,0,.1,0,.2,0,.3,0,.5,0,.8,0,1.2,.3,.2,.4,.2,.7,.2,1.1,0,.1,0,.3,0,.4,0,.2,0,.4,0,.6,0,.6,0,1.2,0,1.8h4.1q0-1.2,0-2.3c0-.1,0-.3,0-.4,0-.1,0-.3,0-.4q0-.4,.2-.7c.5-.3,.9-.3,1.5-.3q.2,0,.3,0c.2,0,.5,0,.7,0,.4,0,.7,0,1.1,0,.2,0,.5,0,.7,0,.1,0,.2,0,.3,0,.5,0,.8,0,1.2,.3,.2,.4,.2,.7,.2,1.1,0,.1,0,.3,0,.4,0,.2,0,.4,0,.6,0,.6,0,1.2,0,1.8h4.1q0-1.2,0-2.3c0-.1,0-.3,0-.4,0-.1,0-.3,0-.4q0-.4,.2-.7c.5-.3,.9-.3,1.5-.3q.2,0,.3,0c.2,0,.5,0,.7,0,.4,0,.7,0,1.1,0,.2,0,.5,0,.7,0,.1,0,.2,0,.3,0,.5,0,.8,0,1.2,.3,.2,.4,.2,.7,.2,1.1,0,.1,0,.3,0,.4,0,.2,0,.4,0,.6,0,.6,0,1.2,0,1.8h4.1q0-1.2,0-2.3c0-.1,0-.3,0-.4,0-.1,0-.3,0-.4q0-.4,.2-.7c.5-.3,.9-.3,1.5-.3q.2,0,.3,0c.2,0,.5,0,.7,0,.4,0,.7,0,1.1,0,.2,0,.5,0,.7,0,.1,0,.2,0,.3,0,.5,0,.8,0,1.2,.3,.2,.4,.2,.7,.2,1.1q0,.2,0,.5,0,.3,0,.5c0,.2,0,.3,0,.5,0,.4,0,.8,0,1.3,0,0,.2,0,.2,0,.3,0,.7,0,1,0,.1,0,.2,0,.4,0,.1,0,.2,0,.3,0,.1,0,.2,0,.3,0,.4,0,.5,.2,.8,.6,0,.4,0,.9,0,1.3q0,.2,0,.4c0,.5,0,.9,0,1.4,0,.3,0,.6,0,.9,0,.7,0,1.3,0,2,0,.8,0,1.7,0,2.5,0,.7,0,1.3,0,2,0,.3,0,.6,0,.9,0,.4,0,.9,0,1.3,0,.1,0,.3,0,.4,0,.8,0,1.2-.6,1.8q-.2,.2-.4,.3c0,0-.2,.1-.2,.2,0,0-.2,.1-.2,.2-1.2,.9-2.2,1.9-2.5,3.4-.1,1.7,0,3,1.1,4.4,.5,.5,1.1,1,1.7,1.4q.8,.7,1,1.2c0,.6,0,1.1,0,1.7,0,.3,0,.5,0,.8,0,.2,0,.3,0,.5,0,.2,0,.3,0,.5,0,.5-.2,.6-.6,.9q-.3,0-.5,0-.1,0-.3,0c-.4-.1-.5-.3-.8-.6q0-.3,0-.7,0-.2,0-.4,0-.2,0-.4c0-.1,0-.3,0-.4,0-.4,0-.7,0-1.1,0,0-.2,0-.2-.1-1.8-.9-3.1-2.6-3.7-4.5-.2-.7-.3-1.4-.2-2.1,0-.1,0-.2,0-.4,0-2.1,.9-3.5,2.3-5.1,.6-.4,1.1-.8,1.7-1.3,0-2.5,0-5,.1-7.6-19.7,0-39.3,0-59.6-.1v7.7c.2,0,.3,.2,.5,.3,1.8,1.2,3.1,2.8,3.6,5,0,.5,0,.9,0,1.4,0,.1,0,.2,0,.4,0,2.1-.9,3.5-2.3,5.1-.6,.4-1.1,.8-1.7,1.3,0,3.9-.2,7.8-.3,11.8h59.7v-5.7q.5-.5,.8-.6c0,0,.2,0,.3,0q.1,0,.3,0c.4,0,.5,.3,.8,.6q0,.3,0,.7c0,.1,0,.3,0,.4q0,.2,0,.5c0,.2,0,.3,0,.5,0,.3,0,.7,0,1,0,.5,0,1,0,1.5,0,.3,0,.6,0,1,0,.2,0,.3,0,.5,0,.1,0,.3,0,.4,0,.1,0,.3,0,.4,0,.4-.2,.6-.6,.8q-.3,0-.6,0-.2,0-.3,0c-.1,0-.2,0-.4,0-.1,0-.2,0-.4,0-.3,0-.6,0-.9,0,0,.1,0,.2,0,.3,0,.5,0,1,0,1.4,0,.2,0,.3,0,.5,0,.2,0,.3,0,.5,0,.1,0,.3,0,.4q0,.4-.2,.7c-.5,.3-.9,.3-1.5,.3-.1,0-.2,0-.3,0-.2,0-.5,0-.7,0-.4,0-.7,0-1.1,0-.2,0-.5,0-.7,0-.1,0-.2,0-.3,0-.5,0-.8,0-1.2-.3-.2-.4-.2-.7-.2-1.1,0-.1,0-.3,0-.4,0-.2,0-.4,0-.6,0-.6,0-1.2,0-1.8h-4.1q0,1.2,0,2.3c0,.1,0,.3,0,.4,0,.1,0,.3,0,.4q0,.4-.2,.7c-.5,.3-.9,.3-1.5,.3-.1,0-.2,0-.3,0-.2,0-.5,0-.7,0-.4,0-.7,0-1.1,0-.2,0-.5,0-.7,0-.1,0-.2,0-.3,0-.5,0-.8,0-1.2-.3-.2-.4-.2-.7-.2-1.1,0-.1,0-.3,0-.4,0-.2,0-.4,0-.6,0-.6,0-1.2,0-1.8h-4.1q0,1.2,0,2.3c0,.1,0,.3,0,.4,0,.1,0,.3,0,.4q0,.4-.2,.7c-.5,.3-.9,.3-1.5,.3-.1,0-.2,0-.3,0-.2,0-.5,0-.7,0-.4,0-.7,0-1.1,0-.2,0-.5,0-.7,0-.1,0-.2,0-.3,0-.5,0-.8,0-1.2-.3-.2-.4-.2-.7-.2-1.1,0-.1,0-.3,0-.4,0-.2,0-.4,0-.6,0-.6,0-1.2,0-1.8h-4.1q0,1.2,0,2.3c0,.1,0,.3,0,.4,0,.1,0,.3,0,.4q0,.4-.2,.7c-.5,.3-.9,.3-1.5,.3-.1,0-.2,0-.3,0-.2,0-.5,0-.7,0-.4,0-.7,0-1.1,0-.2,0-.5,0-.7,0-.1,0-.2,0-.3,0-.5,0-.8,0-1.2-.3-.2-.4-.2-.7-.2-1.1,0-.1,0-.3,0-.4,0-.2,0-.4,0-.6,0-.6,0-1.2,0-1.8h-4.1q0,1.2,0,2.3c0,.1,0,.3,0,.4,0,.1,0,.3,0,.4q0,.4-.2,.7c-.5,.3-.9,.3-1.5,.3-.1,0-.2,0-.3,0-.2,0-.5,0-.7,0-.4,0-.7,0-1.1,0-.2,0-.5,0-.7,0-.1,0-.2,0-.3,0-.5,0-.8,0-1.2-.3-.2-.4-.2-.7-.2-1.1,0-.1,0-.3,0-.4,0-.2,0-.4,0-.6,0-.6,0-1.2,0-1.8h-4.1q0,1.2,0,2.3c0,.1,0,.3,0,.4q0,.2,0,.4,0,.4-.2,.7c-.5,.3-.9,.3-1.5,.3-.1,0-.2,0-.3,0-.2,0-.5,0-.7,0-.4,0-.7,0-1.1,0-.2,0-.5,0-.7,0-.1,0-.2,0-.3,0-.5,0-.8,0-1.2-.3-.2-.4-.2-.7-.2-1.1,0-.2,0-.3,0-.5,0-.2,0-.3,0-.5q0-.3,0-.5c0-.4,0-.8,0-1.3,0,0-.2,0-.2,0-.3,0-.7,0-1,0-.1,0-.2,0-.4,0q-.2,0-.3,0c-.1,0-.2,0-.3,0-.4,0-.5-.2-.8-.6,0-.4,0-.9,0-1.3,0-.1,0-.3,0-.4,0-.5,0-.9,0-1.4,0-.3,0-.6,0-.9,0-.7,0-1.3,0-2,0-.8,0-1.7,0-2.5,0-.7,0-1.3,0-2,0-.3,0-.6,0-.9,0-.4,0-.9,0-1.3,0-.1,0-.3,0-.4,0-.8,0-1.2,.6-1.8q.2-.2,.4-.3c0,0,.2-.1,.2-.2,0,0,.2-.1,.2-.2,1.2-.9,2.2-1.9,2.5-3.4,.1-1.7,0-3-1.1-4.4-.5-.5-1.1-1-1.7-1.4q-.8-.6-1-1.2,0-.3,0-.6c0-.1,0-.2,0-.4,0-.1,0-.3,0-.4q0-.2,0-.4c0-.5,0-.9,0-1.4,0-.3,0-.6,0-.9,0-.7,0-1.3,0-2,0-.8,0-1.7,0-2.5,0-.7,0-1.3,0-2,0-.3,0-.6,0-.9,0-.4,0-.9,0-1.3,0-.1,0-.3,0-.4q0-.9,.3-1.3c.3-.2,.5-.2,.9-.2q.2,0,.3,0,.2,0,.4,0c.1,0,.2,0,.4,0,.3,0,.6,0,.9,0,0-.1,0-.2,0-.3,0-.5,0-1,0-1.4q0-.3,0-.5c0-.2,0-.3,0-.5,0-.1,0-.3,0-.4q0-.4,.2-.7c.5-.3,.9-.3,1.5-.3Zm.4,2.1v2.1h2.1v-2.1h-2.1Zm10.3,0v2.1h2.1v-2.1h-2.1Zm10.3,0v2.1h2.1v-2.1h-2.1Zm10.3,0v2.1h2.1v-2.1h-2.1Zm10.3,0v2.1h2.1v-2.1h-2.1Zm10.3,0v2.1h2.1v-2.1h-2.1Zm-54.6,4.1v2.1h4.1v-2.1h-4.1Zm6.2,0v2.1h4.1v-2.1h-4.1Zm6.2,0v2.1h4.1v-2.1h-4.1Zm6.2,0v2.1h4.1v-2.1h-4.1Zm6.2,0v2.1h4.1v-2.1h-4.1Zm6.2,0v2.1h4.1v-2.1h-4.1Zm6.2,0v2.1h4.1v-2.1h-4.1Zm6.2,0v2.1h4.1v-2.1h-4.1Zm6.2,0v2.1h4.1v-2.1h-4.1Zm6.2,0v2.1h4.1v-2.1h-4.1ZM20.5,67v2.1h2.1v-2.1h-2.1Zm10.3,0v2.1h2.1v-2.1h-2.1Zm10.3,0v2.1h2.1v-2.1h-2.1Zm10.3,0v2.1h2.1v-2.1h-2.1Zm10.3,0v2.1h2.1v-2.1h-2.1Zm10.3,0v2.1h2.1v-2.1h-2.1Z"/>
    <path class="cls-1" d="M30.8,33.9h.3c.4,.1,.5,.2,.8,.6,0,.4,0,.9,0,1.3,0,.1,0,.2,0,.4,0,.3,0,.6,0,.9h2.1c0-.2,0-.4,0-.5,0-.2,0-.5,0-.7,0-.1,0-.2,0-.4q0-.9,.3-1.3c.3-.2,.5-.2,.8-.2,0,0,.2,0,.3,0,.4,.1,.5,.2,.8,.6,0,.4,0,.9,0,1.3,0,.1,0,.2,0,.4,0,.3,0,.6,0,.9h2.1c0-.2,0-.4,0-.5,0-.2,0-.5,0-.7,0-.1,0-.2,0-.4q0-.9,.3-1.3c.3-.2,.5-.2,.8-.2,0,0,.2,0,.3,0,.4,.1,.5,.2,.8,.6,0,.4,0,.9,0,1.3,0,.1,0,.2,0,.4,0,.3,0,.6,0,.9h2.1c0-.2,0-.4,0-.5,0-.2,0-.5,0-.7,0-.1,0-.2,0-.4q0-.9,.3-1.3c.3-.2,.5-.2,.8-.2,0,0,.2,0,.3,0,.4,.1,.5,.2,.8,.6,0,.4,0,.9,0,1.3,0,.1,0,.2,0,.4,0,.3,0,.6,0,.9h2.1c0-.2,0-.4,0-.5,0-.2,0-.5,0-.7,0-.1,0-.2,0-.4q0-.9,.3-1.3c.3-.2,.5-.2,.8-.2,0,0,.2,0,.3,0,.4,.1,.5,.2,.8,.6,0,.4,0,.9,0,1.3,0,.1,0,.2,0,.4,0,.3,0,.6,0,.9h2.1c0-.2,0-.4,0-.5,0-.2,0-.5,0-.7,0-.1,0-.2,0-.4q0-.9,.3-1.3c.3-.2,.5-.2,.8-.2,0,0,.2,0,.3,0,.4,.1,.5,.2,.8,.6,0,.4,0,.9,0,1.3,0,.1,0,.2,0,.4,0,.3,0,.6,0,.9h2.1c0-.2,0-.4,0-.5,0-.2,0-.5,0-.7,0-.1,0-.2,0-.4q0-.9,.3-1.3c.3-.2,.5-.2,.8-.2,0,0,.2,0,.3,0,.4,.1,.5,.2,.8,.6,0,.4,0,.9,0,1.3,0,.1,0,.2,0,.4,0,.3,0,.6,0,.9h2.1c0-.2,0-.4,0-.5,0-.2,0-.5,0-.7,0-.1,0-.2,0-.4q0-.9,.3-1.3c.3-.2,.5-.2,.8-.2,0,0,.2,0,.3,0,.4,.1,.5,.2,.8,.6,0,.4,0,.9,0,1.3,0,.1,0,.2,0,.4,0,.3,0,.6,0,.9h2.1c0-.2,0-.4,0-.5,0-.2,0-.5,0-.7,0-.1,0-.2,0-.4q0-.9,.3-1.3c.3-.2,.5-.2,.8-.2q.1,0,.3,0c.4,.1,.5,.2,.8,.6,0,.4,0,.9,0,1.3,0,.1,0,.2,0,.4,0,.3,0,.6,0,.9q.2,0,.3,0c.1,0,.3,0,.4,0,.1,0,.3,0,.4,0,.5,0,.6,.2,.9,.6q0,.4,0,.8t0,.5c0,.2,0,.4,0,.5,0,.2,0,.4,0,.6,0,.5,0,1,0,1.6,0,.5,0,1.1,0,1.6,0,.9,0,1.8,0,2.7,0,1.1,0,2.1,0,3.2,0,.9,0,1.8,0,2.7,0,.5,0,1.1,0,1.6,0,.5,0,1,0,1.5,0,.2,0,.4,0,.6,0,.3,0,.5,0,.8q0,.2,0,.4c0,.5-.2,.6-.6,.9q-.4,0-.8,0c-.1,0-.3,0-.4,0-.1,0-.2,0-.3,0q0,.1,0,.2c0,.3,0,.7,0,1q0,.2,0,.4,0,.9-.3,1.3c-.3,.2-.5,.2-.8,.2q-.1,0-.3,0c-.4-.1-.5-.2-.8-.6,0-.4,0-.9,0-1.3,0-.1,0-.2,0-.4,0-.3,0-.6,0-.9h-2.1c0,.2,0,.4,0,.5,0,.2,0,.5,0,.7q0,.2,0,.4,0,.9-.3,1.3c-.3,.2-.5,.2-.8,.2q-.1,0-.3,0c-.4-.1-.5-.2-.8-.6,0-.4,0-.9,0-1.3,0-.1,0-.2,0-.4,0-.3,0-.6,0-.9h-2.1c0,.2,0,.4,0,.5,0,.2,0,.5,0,.7q0,.2,0,.4,0,.9-.3,1.3c-.3,.2-.5,.2-.8,.2q-.1,0-.3,0c-.4-.1-.5-.2-.8-.6,0-.4,0-.9,0-1.3,0-.1,0-.2,0-.4,0-.3,0-.6,0-.9h-2.1c0,.2,0,.4,0,.5,0,.2,0,.5,0,.7q0,.2,0,.4,0,.9-.3,1.3c-.3,.2-.5,.2-.8,.2q-.1,0-.3,0c-.4-.1-.5-.2-.8-.6,0-.4,0-.9,0-1.3,0-.1,0-.2,0-.4,0-.3,0-.6,0-.9h-2.1c0,.2,0,.4,0,.5,0,.2,0,.5,0,.7q0,.2,0,.4,0,.9-.3,1.3c-.3,.2-.5,.2-.8,.2q-.1,0-.3,0c-.4-.1-.5-.2-.8-.6,0-.4,0-.9,0-1.3,0-.1,0-.2,0-.4,0-.3,0-.6,0-.9h-2.1c0,.2,0,.4,0,.5,0,.2,0,.5,0,.7q0,.2,0,.4,0,.9-.3,1.3c-.3,.2-.5,.2-.8,.2q-.1,0-.3,0c-.4-.1-.5-.2-.8-.6,0-.4,0-.9,0-1.3,0-.1,0-.2,0-.4,0-.3,0-.6,0-.9h-2.1c0,.2,0,.4,0,.5,0,.2,0,.5,0,.7,0,.1,0,.2,0,.4q0,.9-.3,1.3c-.3,.2-.5,.2-.8,.2q-.1,0-.3,0c-.4-.1-.5-.2-.8-.6,0-.4,0-.9,0-1.3,0-.1,0-.2,0-.4,0-.3,0-.6,0-.9h-2.1c0,.2,0,.4,0,.5,0,.2,0,.5,0,.7,0,.1,0,.2,0,.4q0,.9-.3,1.3c-.3,.2-.5,.2-.8,.2q-.1,0-.3,0c-.4-.1-.5-.2-.8-.6,0-.4,0-.9,0-1.3,0-.1,0-.2,0-.4,0-.3,0-.6,0-.9h-2.1c0,.2,0,.4,0,.5,0,.2,0,.5,0,.7,0,.1,0,.2,0,.4q0,.9-.3,1.3c-.3,.2-.5,.2-.8,.2,0,0-.2,0-.3,0-.4-.1-.5-.2-.8-.6,0-.4,0-.9,0-1.3,0-.1,0-.2,0-.4,0-.3,0-.6,0-.9-.1,0-.2,0-.3,0-.1,0-.3,0-.4,0-.1,0-.3,0-.4,0q-.4,0-.7-.2c-.4-.5-.3-.9-.3-1.5,0-.1,0-.2,0-.4,0-.4,0-.8,0-1.2,0-.3,0-.6,0-.8,0-.6,0-1.2,0-1.7,0-.7,0-1.5,0-2.2,0-.6,0-1.1,0-1.7,0-.3,0-.5,0-.8,0-.4,0-.8,0-1.1,0-.1,0-.2,0-.3q0-.8,.3-1.2c.3-.2,.4-.3,.8-.3,0,0,.2,0,.3,0q.3,0,.8,.6v10.8h35v-16.5H29.8v2.6q-.5,.5-.8,.6-.1,0-.3,0c0,0-.2,0-.3,0-.4-.1-.5-.3-.8-.6q0-.4,0-.9c0,0,0-.2,0-.3,0-.2,0-.4,0-.6,0-.3,0-.6,0-.9,0-.2,0-.4,0-.6,0-.2,0-.3,0-.5q0-.4,.3-.7c.4-.3,.6-.3,1.1-.2,.1,0,.3,0,.4,0q.2,0,.3,0c0,0,0-.2,0-.2,0-.3,0-.7,0-1,0-.1,0-.2,0-.4q0-.9,.3-1.3c.3-.2,.5-.2,.8-.2Z"/>
    <path class="cls-1" d="M54.8,41.1c.7,.2,1,.9,1.4,1.5,0,.1,.2,.3,.2,.4,0,.1,.2,.3,.2,.4,.2,.3,.3,.6,.5,.9,0,.1,.1,.3,.2,.4,0,0,.1,.2,.2,.3h.3c.2-.2,.3-.5,.5-.8,0,0,0-.2,.1-.2,.1-.2,.3-.5,.4-.7,.2-.3,.4-.6,.6-1,0-.1,.2-.3,.3-.4q.2-.3,.6-.6t1.3,.2c.3,.5,.3,.9,.3,1.4,0,.1,0,.2,0,.3,0,.4,0,.7,0,1.1,0,.3,0,.5,0,.8,0,.5,0,1.1,0,1.6,0,.7,0,1.4,0,2,0,.5,0,1,0,1.6,0,.2,0,.5,0,.7,0,.3,0,.7,0,1,0,.1,0,.2,0,.3,0,.5,0,.7-.3,1.1-.3,.2-.4,.3-.8,.3q-.1,0-.3,0c-.4,0-.5-.3-.8-.6q0-.3,0-.7c0-.1,0-.3,0-.4,0-.1,0-.3,0-.4,0-.1,0-.3,0-.4,0-.5,0-.9,0-1.4,0-.3,0-.6,0-.9,0-.8,0-1.5,0-2.3,0,.1-.2,.3-.2,.4-.1,.2-.2,.3-.3,.5q0,.1-.2,.3-.4,.6-.7,.8-.9,0-1.4-.2c-.3-.3-.5-.7-.7-1.1,0-.1-.1-.2-.2-.4,0,0-.1-.2-.2-.3,0,0,0,.2,0,.2,0,.8,0,1.7,0,2.5,0,.3,0,.6,0,.9,0,.5,0,.9,0,1.4q0,.2,0,.4,0,.2,0,.4c0,.1,0,.2,0,.4,0,.4-.3,.6-.6,.8q-.3,0-.5,0c0,0-.2,0-.3,0-.4-.1-.5-.3-.8-.6,0-.4,0-.7,0-1.1,0-.1,0-.2,0-.3,0-.4,0-.7,0-1.1,0-.3,0-.5,0-.8,0-.5,0-1.1,0-1.6,0-.7,0-1.4,0-2,0-.5,0-1,0-1.6,0-.2,0-.5,0-.7,0-.3,0-.7,0-1,0-.1,0-.2,0-.3,0-.5,0-.7,.3-1.1,.3-.2,.6-.3,1-.3Z"/>
    <path class="cls-1" d="M33.9,41.1c0,0,.2,0,.3,0q.2,0,.3,0c.1,0,.2,0,.3,0,.2,0,.5,0,.7,0,.4,0,.7,0,1.1,0,1.3,0,2.5,0,3.5,1,.8,.9,1.1,1.8,1.1,3,0,1.2-.6,2-1.4,2.8,0,0,.1,.2,.2,.2,0,.1,.2,.2,.2,.3,0,.1,.2,.2,.2,.3,.6,1,.7,1.9,.7,2.9,0,.1,0,.2,0,.4q0,.9-.3,1.3c-.3,.2-.5,.2-.8,.2q-.1,0-.3,0c-.4-.1-.5-.3-.8-.6,0-.4-.1-.7-.1-1.1,0-1-.2-1.7-.9-2.5,0,0-.1-.1-.2-.2,0,0-.1-.1-.2-.2-.6-.4-1.2-.5-1.8-.6-.2,0-.3,0-.5,0q-.2,0-.4,0c0,.1,0,.3,0,.4,0,.5,0,1,0,1.5,0,.2,0,.4,0,.7,0,.3,0,.6,0,1,0,0,0,.2,0,.3,0,.5,0,.7-.3,1.1-.3,.2-.4,.3-.8,.3,0,0-.2,0-.3,0-.4-.1-.5-.3-.8-.6,0-.4,0-.7,0-1.1,0-.1,0-.2,0-.3,0-.4,0-.7,0-1.1,0-.3,0-.5,0-.8,0-.5,0-1.1,0-1.6,0-.7,0-1.4,0-2,0-.5,0-1,0-1.6,0-.2,0-.5,0-.7,0-.3,0-.7,0-1,0-.1,0-.2,0-.3,0-.5,0-.7,.3-1.1,.3-.2,.4-.3,.8-.3Zm1,2.1v3.1q.6,0,1.2,0c.1,0,.3,0,.4,0,.9,0,1.5,0,2.2-.7,.3-.5,.3-.9,.2-1.4-.4-.6-.7-.9-1.4-1-.4,0-.9,0-1.3,0q-.6,0-1.2,0Z"/>
    <path class="cls-1" d="M49.4,41.6c1.1,.6,1.7,1.5,2.1,2.7q0,.4,0,.9c0,0,0,.2,0,.3,0,.3,0,.6,0,.8,0,.2,0,.4,0,.6,0,.4,0,.8,0,1.2,0,.5,0,1,0,1.6,0,.4,0,.8,0,1.2,0,.2,0,.4,0,.6,0,.3,0,.5,0,.8,0,.2,0,.3,0,.5,0,.5-.2,.6-.6,.9q-.3,0-.5,0t-.3,0c-.4-.1-.5-.3-.8-.6,0-.4,0-.7,0-1.1,0-.1,0-.2,0-.3,0-.3,0-.7,0-1,0-.2,0-.4,0-.7,0-.5,0-1.1,0-1.6h-4.1c0,.3,0,.7,0,1,0,.3,0,.6,0,1,0,.2,0,.4,0,.7,0,.3,0,.6,0,1,0,0,0,.2,0,.3,0,.5,0,.7-.3,1.1-.3,.2-.4,.3-.8,.3,0,0-.2,0-.3,0-.4-.1-.5-.3-.8-.6q0-.4,0-.8,0-.1,0-.3c0-.3,0-.6,0-.8,0-.2,0-.4,0-.6,0-.4,0-.8,0-1.2,0-.5,0-1,0-1.5,0-.4,0-.8,0-1.2,0-.2,0-.4,0-.6,0-1.4,.1-2.7,1.1-3.7,1.4-1.2,3.4-1.5,5.1-.7Zm-3.5,2.4c-.7,.8-.6,1.4-.6,2.4h4.1q0-1.3-.6-2.4c-.6-.5-1-.6-1.8-.6-.5,0-.7,.2-1.1,.6Z"/>
    <path class="cls-1" d="M73.5,56.9c.8,.5,1.4,1.2,1.6,2,.1,1,.1,2-.5,2.8-.6,.6-1.2,1.1-2.1,1.2-1.1,0-1.9,0-2.7-.8-.8-.9-1-1.6-.9-2.8,0-1,.6-1.5,1.3-2.2,.9-.6,2.3-.7,3.3-.3Zm-2.2,2.2c-.3,.4-.3,.6-.2,1.1q.2,.3,.5,.5c.5,0,.7,0,1.1-.2,.3-.4,.3-.6,.2-1.1q-.2-.3-.5-.5c-.5,0-.7,0-1.1,.2Z"/>
    <path class="cls-1" d="M24.1,56.9c.8,.5,1.4,1.2,1.6,2,.1,1,.1,2-.5,2.8-.6,.6-1.2,1.1-2.1,1.2-1.1,0-1.9,0-2.7-.8-.8-.9-1-1.6-.9-2.8,0-1,.6-1.5,1.3-2.2,.9-.6,2.3-.7,3.3-.3Zm-2.2,2.2c-.3,.4-.3,.6-.2,1.1q.2,.3,.5,.5c.5,0,.7,0,1.1-.2,.3-.4,.3-.6,.2-1.1q-.2-.3-.5-.5c-.5,0-.7,0-1.1,.2Z"/>
    <path class="cls-1" d="M73.5,34.2c.8,.5,1.4,1.2,1.6,2,.1,1,.1,2-.5,2.8-.6,.6-1.2,1.1-2.1,1.2-1.1,0-1.9,0-2.7-.8-.8-.9-1-1.6-.9-2.8,0-1,.6-1.5,1.3-2.2,.9-.6,2.3-.7,3.3-.3Zm-2.2,2.2c-.3,.4-.3,.6-.2,1.1q.2,.3,.5,.5c.5,0,.7,0,1.1-.2,.3-.4,.3-.6,.2-1.1q-.2-.3-.5-.5c-.5,0-.7,0-1.1,.2Z"/>
    <path class="cls-1" d="M24.1,34.2c.8,.5,1.4,1.2,1.6,2,.1,1,.1,2-.5,2.8-.6,.6-1.2,1.1-2.1,1.2-1.1,0-1.9,0-2.7-.8-.8-.9-1-1.6-.9-2.8,0-1,.6-1.5,1.3-2.2,.9-.6,2.3-.7,3.3-.3Zm-2.2,2.2c-.3,.4-.3,.6-.2,1.1q.2,.3,.5,.5c.5,0,.7,0,1.1-.2,.3-.4,.3-.6,.2-1.1q-.2-.3-.5-.5c-.5,0-.7,0-1.1,.2Z"/>
  </g>
</svg>