<?xml version="1.0" encoding="UTF-8"?><svg id="a" xmlns="http://www.w3.org/2000/svg" width="64.1" height="50.1" viewBox="0 0 64.1 50.1"><path d="M5.1.1h3.1c.5,0,.8,0,1.2.3.2.4.2.7.2,1.1v2.8h4.1V1.2c0-.133.067-.367.2-.7.5-.3.9-.3,1.5-.3h3.1c.5,0,.8,0,1.2.3.2.4.2.7.2,1.1v2.8h4.1V1.3c0-.267.067-.5.2-.7.5-.3.9-.3,1.5-.3h3.1c.5,0,.8,0,1.2.3.2.4.2.7.2,1.1v2.8h4.1V1.4c0-.267.067-.5.2-.7.5-.3.9-.3,1.5-.3h3.1c.5,0,.8,0,1.2.3.2.4.2.7.2,1.1v2.8h4.1V1.5c0-.267.067-.5.2-.7.5-.3.9-.3,1.5-.3h3.1c.5,0,.8,0,1.2.3.2.4.2.7.2,1.1v2.8h4.1V1.6c0-.267.067-.5.2-.7.5-.3.9-.3,1.5-.3.133,0,.233,0,.3,0h2.8c.5,0,.8,0,1.2.3.2.4.2.7.2,1.1v2.8h2.2c.4,0,.5.2.8.6v13.1c0,.8,0,1.2-.6,1.8-.133.133-.267.233-.4.3,0,0-.2.1-.2.2,0,0-.2.1-.2.2-1.2.9-2.2,1.9-2.5,3.4-.1,1.7,0,3,1.1,4.4.5.5,1.1,1,1.7,1.4.533.467.867.867,1,1.2v3.5c0,.5-.2.6-.6.9-.2,0-.367,0-.5,0-.067,0-.167,0-.3,0-.4-.1-.5-.3-.8-.6v-3s-.2,0-.2-.1c-1.8-.9-3.1-2.6-3.7-4.5-.2-.7-.3-1.4-.2-2.1v-.4c0-2.1.9-3.5,2.3-5.1.6-.4,1.1-.8,1.7-1.3,0-2.5,0-5,.1-7.6-19.7,0-39.3,0-59.6-.1v7.7c.2,0,.3.2.5.3,1.8,1.2,3.1,2.8,3.6,5v1.8c0,2.1-.9,3.5-2.3,5.1-.6.4-1.1.8-1.7,1.3,0,3.9-.2,7.8-.3,11.8h59.7v-5.7c.333-.333.6-.533.8-.6h.6c.4,0,.5.3.8.6v6.9c0,.4-.2.6-.6.8h-2.6v3.1c0,.267-.067.5-.2.7-.5.3-.9.3-1.5.3h-3.1c-.5,0-.8,0-1.2-.3-.2-.4-.2-.7-.2-1.1v-2.8h-4.1v3.1c0,.267-.067.5-.2.7-.5.3-.9.3-1.5.3h-3.1c-.5,0-.8,0-1.2-.3-.2-.4-.2-.7-.2-1.1v-2.8h-4.1v3.1c0,.267-.067.5-.2.7-.5.3-.9.3-1.5.3h-3.1c-.5,0-.8,0-1.2-.3-.2-.4-.2-.7-.2-1.1v-2.8h-4.1v3.1c0,.267-.067.5-.2.7-.5.3-.9.3-1.5.3h-3.1c-.5,0-.8,0-1.2-.3-.2-.4-.2-.7-.2-1.1v-2.8h-4.1v3.1c0,.267-.067.5-.2.7-.5.3-.9.3-1.5.3h-3.1c-.5,0-.8,0-1.2-.3-.2-.4-.2-.7-.2-1.1v-2.8h-4.1v3.1c0,.267-.067.5-.2.7-.5.3-.9.3-1.5.3h-3.1c-.5,0-.8,0-1.2-.3-.2-.4-.2-.7-.2-1.1v-2.8H.8c-.4,0-.5-.2-.8-.6v-13.1c0-.8,0-1.2.6-1.8.133-.133.267-.233.4-.3,0,0,.2-.1.2-.2,0,0,.2-.1.2-.2,1.2-.9,2.2-1.9,2.5-3.4.1-1.7,0-3-1.1-4.4-.5-.5-1.1-1-1.7-1.4-.533-.4-.867-.8-1-1.2V5.6c0-.6.1-1.033.3-1.3.3-.2.5-.2.9-.2h2V1c0-.267.067-.5.2-.7.5-.3.9-.3,1.5-.3l.1.1ZM5.5,2.2v2.1h2.1v-2.1h-2.1ZM15.8,2.2v2.1h2.1v-2.1s-2.1,0-2.1,0ZM26.1,2.2v2.1h2.1v-2.1h-2.1ZM36.4,2.2v2.1h2.1v-2.1h-2.1ZM46.7,2.2v2.1h2.1v-2.1h-2.1ZM57,2.2v2.1h2.1v-2.1h-2.1ZM2.4,6.3v2.1h4.1v-2.1H2.4ZM8.6,6.3v2.1h4.1v-2.1h-4.1ZM14.8,6.3v2.1h4.1v-2.1s-4.1,0-4.1,0ZM21,6.3v2.1h4.1v-2.1h-4.1ZM27.2,6.3v2.1h4.1v-2.1h-4.1ZM33.4,6.3v2.1h4.1v-2.1h-4.1ZM39.6,6.3v2.1h4.1v-2.1h-4.1ZM45.8,6.3v2.1h4.1v-2.1h-4.1ZM52,6.3v2.1h4.1v-2.1h-4.1ZM58.2,6.3v2.1h4.1v-2.1h-4.1ZM5.5,45.5v2.1h2.1v-2.1h-2.1ZM15.8,45.5v2.1h2.1v-2.1s-2.1,0-2.1,0ZM26.1,45.5v2.1h2.1v-2.1h-2.1ZM36.4,45.5v2.1h2.1v-2.1h-2.1ZM46.7,45.5v2.1h2.1v-2.1h-2.1ZM57,45.5v2.1h2.1v-2.1h-2.1Z" fill="#28006c"/><path d="M15.8,12.4h.3c.4.1.5.2.8.6v2.6h2.1v-1.6c0-.6.1-1.033.3-1.3.3-.2.5-.2.8-.2h.3c.4.1.5.2.8.6v2.6h2.1v-1.6c0-.6.1-1.033.3-1.3.3-.2.5-.2.8-.2h.3c.4.1.5.2.8.6v2.6h2.1v-1.6c0-.6.1-1.033.3-1.3.3-.2.5-.2.8-.2h.3c.4.1.5.2.8.6v2.6h2.1v-1.6c0-.6.1-1.033.3-1.3.3-.2.5-.2.8-.2h.3c.4.1.5.2.8.6v2.6h2.1v-1.6c0-.6.1-1.033.3-1.3.3-.2.5-.2.8-.2h.3c.4.1.5.2.8.6v2.6h2.1v-1.6c0-.6.1-1.033.3-1.3.3-.2.5-.2.8-.2h.3c.4.1.5.2.8.6v2.6h2.1v-1.6c0-.6.1-1.033.3-1.3.3-.2.5-.2.8-.2h.3c.4.1.5.2.8.6v2.6h2.1v-1.6c0-.6.1-1.033.3-1.3.3-.2.5-.2.8-.2h.3c.4.1.5.2.8.6v2.6h1.1c.5,0,.6.2.9.6v19.1c0,.5-.2.6-.6.9h-1.5v1.6c0,.6-.1,1.033-.3,1.3-.3.2-.5.2-.8.2h-.3c-.4-.1-.5-.2-.8-.6v-2.6h-2.1v1.6c0,.6-.1,1.033-.3,1.3-.3.2-.5.2-.8.2h-.3c-.4-.1-.5-.2-.8-.6v-2.6h-2.1v1.6c0,.6-.1,1.033-.3,1.3-.3.2-.5.2-.8.2h-.3c-.4-.1-.5-.2-.8-.6v-2.6h-2.1v1.6c0,.6-.1,1.033-.3,1.3-.3.2-.5.2-.8.2h-.3c-.4-.1-.5-.2-.8-.6v-2.6h-2.1v1.6c0,.6-.1,1.033-.3,1.3-.3.2-.5.2-.8.2h-.3c-.4-.1-.5-.2-.8-.6v-2.6h-2.1v1.6c0,.6-.1,1.033-.3,1.3-.3.2-.5.2-.8.2h-.3c-.4-.1-.5-.2-.8-.6v-2.6h-2.1v1.6c0,.6-.1,1.033-.3,1.3-.3.2-.5.2-.8.2h-.3c-.4-.1-.5-.2-.8-.6v-2.6h-2.1v1.6c0,.6-.1,1.033-.3,1.3-.3.2-.5.2-.8.2h-.3c-.4-.1-.5-.2-.8-.6v-2.6h-2.1v1.6c0,.6-.1,1.033-.3,1.3-.3.2-.5.2-.8.2h-.3c-.4-.1-.5-.2-.8-.6v-2.6h-1.1c-.267,0-.5-.067-.7-.2-.4-.5-.3-.9-.3-1.5v-10.2c0-.533.1-.933.3-1.2.3-.2.4-.3.8-.3h.3c.2,0,.467.2.8.6v10.8h35v-16.5H14.8v2.6c-.333.333-.6.533-.8.6h-.6c-.4-.1-.5-.3-.8-.6,0-.267,0-.567,0-.9v-2.9c0-.267.1-.5.3-.7.4-.3.6-.3,1.1-.2h.7v-1.6c0-.6.1-1.033.3-1.3.3-.2.5-.2.8-.2h0Z" fill="#28006c"/><path d="M39.8,19.6c.7.2,1,.9,1.4,1.5,0,.1.2.3.2.4s.2.3.2.4c.2.3.3.6.5.9,0,.1.1.3.2.4,0,0,.1.2.2.3h.3c.2-.2.3-.5.5-.8,0,0,0-.2.1-.2.1-.2.3-.5.4-.7.2-.3.4-.6.6-1,0-.1.2-.3.3-.4.133-.2.333-.4.6-.6.267-.2.7-.133,1.3.2.3.5.3.9.3,1.4v9.4c0,.5,0,.7-.3,1.1-.3.2-.4.3-.8.3h-.3c-.4,0-.5-.3-.8-.6v-6.5c0,.1-.2.3-.2.4-.1.2-.2.3-.3.5,0,.067-.067.167-.2.3-.267.4-.5.667-.7.8-.6,0-1.067-.067-1.4-.2-.3-.3-.5-.7-.7-1.1,0-.1-.1-.2-.2-.4,0,0-.1-.2-.2-.3v5c0,.133,0,.267,0,.4,0,.133,0,.267,0,.4v.4c0,.4-.3.6-.6.8-.2,0-.367,0-.5,0h-.3c-.4-.1-.5-.3-.8-.6v-10.5c0-.5,0-.7.3-1.1.3-.2.6-.3,1-.3h-.1Z" fill="#28006c"/><path d="M18.9,19.6h2.7c1.3,0,2.5,0,3.5,1,.8.9,1.1,1.8,1.1,3s-.6,2-1.4,2.8c0,0,.1.2.2.2,0,.1.2.2.2.3s.2.2.2.3c.6,1,.7,1.9.7,2.9v.4c0,.6-.1,1.033-.3,1.3-.3.2-.5.2-.8.2h-.3c-.4-.1-.5-.3-.8-.6,0-.4-.1-.7-.1-1.1,0-1-.2-1.7-.9-2.5l-.2-.2-.2-.2c-.6-.4-1.2-.5-1.8-.6h-.9v3.9c0,.5,0,.7-.3,1.1-.3.2-.4.3-.8.3h-.3c-.4-.1-.5-.3-.8-.6v-10.5c0-.5,0-.7.3-1.1.3-.2.4-.3.8-.3h.2ZM19.9,21.7v3.1c.4,0,.8,0,1.2,0h.4c.9,0,1.5,0,2.2-.7.3-.5.3-.9.2-1.4-.4-.6-.7-.9-1.4-1h-2.6Z" fill="#28006c"/><path d="M34.4,20.1c1.1.6,1.7,1.5,2.1,2.7v8.5c0,.5-.2.6-.6.9h-.8c-.4-.1-.5-.3-.8-.6v-4.7h-4.1v4c0,.5,0,.7-.3,1.1-.3.2-.4.3-.8.3h-.3c-.4-.1-.5-.3-.8-.6,0-.267,0-.533,0-.8,0-.067,0-.167,0-.3v-5.9c0-1.4.1-2.7,1.1-3.7,1.4-1.2,3.4-1.5,5.1-.7l.2-.2ZM30.9,22.5c-.7.8-.6,1.4-.6,2.4h4.1c0-.867-.2-1.667-.6-2.4-.6-.5-1-.6-1.8-.6-.5,0-.7.2-1.1.6Z" fill="#28006c"/><path d="M58.5,35.4c.8.5,1.4,1.2,1.6,2,.1,1,.1,2-.5,2.8-.6.6-1.2,1.1-2.1,1.2-1.1,0-1.9,0-2.7-.8-.8-.9-1-1.6-.9-2.8,0-1,.6-1.5,1.3-2.2.9-.6,2.3-.7,3.3-.3v.1ZM56.3,37.6c-.3.4-.3.6-.2,1.1.133.2.3.367.5.5.5,0,.7,0,1.1-.2.3-.4.3-.6.2-1.1-.133-.2-.3-.367-.5-.5-.5,0-.7,0-1.1.2Z" fill="#28006c"/><path d="M9.1,35.4c.8.5,1.4,1.2,1.6,2,.1,1,.1,2-.5,2.8-.6.6-1.2,1.1-2.1,1.2-1.1,0-1.9,0-2.7-.8-.8-.9-1-1.6-.9-2.8,0-1,.6-1.5,1.3-2.2.9-.6,2.3-.7,3.3-.3v.1ZM6.9,37.6c-.3.4-.3.6-.2,1.1.133.2.3.367.5.5.5,0,.7,0,1.1-.2.3-.4.3-.6.2-1.1-.133-.2-.3-.367-.5-.5-.5,0-.7,0-1.1.2Z" fill="#28006c"/><path d="M58.5,12.7c.8.5,1.4,1.2,1.6,2,.1,1,.1,2-.5,2.8-.6.6-1.2,1.1-2.1,1.2-1.1,0-1.9,0-2.7-.8-.8-.9-1-1.6-.9-2.8,0-1,.6-1.5,1.3-2.2.9-.6,2.3-.7,3.3-.3v.1ZM56.3,14.9c-.3.4-.3.6-.2,1.1.133.2.3.367.5.5.5,0,.7,0,1.1-.2.3-.4.3-.6.2-1.1-.133-.2-.3-.367-.5-.5-.5,0-.7,0-1.1.2Z" fill="#28006c"/><path d="M9.1,12.7c.8.5,1.4,1.2,1.6,2,.1,1,.1,2-.5,2.8-.6.6-1.2,1.1-2.1,1.2-1.1,0-1.9,0-2.7-.8-.8-.9-1-1.6-.9-2.8,0-1,.6-1.5,1.3-2.2.9-.6,2.3-.7,3.3-.3v.1ZM6.9,14.9c-.3.4-.3.6-.2,1.1.133.2.3.367.5.5.5,0,.7,0,1.1-.2.3-.4.3-.6.2-1.1-.133-.2-.3-.367-.5-.5-.5,0-.7,0-1.1.2Z" fill="#28006c"/></svg>