<?xml version="1.0" encoding="UTF-8"?><svg id="a" xmlns="http://www.w3.org/2000/svg" width="62.7" height="49.2" viewBox="0 0 62.7 49.2"><path d="M14.5,6.4h32.2c.133,0,.567.1,1.3.3.3.4.3.8.4,1.3.2,1.5.8,2.8,2.1,3.7.7.5,1.4.7,2.3.9h.8c.4.1.6.3.9.6v21.6c0,.5-.2.6-.6.9-.3,0-.7.1-1,.2-1.5.2-2.8.8-3.7,2.1-.5.7-.7,1.4-.9,2.3v.8c-.1.5-.2.6-.6.9H14.1c-.6,0-1.033-.1-1.3-.3-.3-.4-.3-.8-.4-1.3-.2-1.3-.6-2.5-1.6-3.4-.8-.6-1.8-1.1-2.9-1.1h-1.9c-.4,0-.6-.3-.8-.6v-9c0-.5.2-.6.6-.9h.8c.4.1.5.3.8.6,0,.267,0,.533,0,.8,0,.133,0,.3,0,.5,0,.2,0,.367,0,.5v6.1h1.1c1.4,0,2.6.7,3.6,1.6.133.067.233.133.3.2,1.4,1.2,2,2.7,2.3,4.5h31.4c0-.4.2-.9.3-1.3.8-2,2.1-3.6,4-4.5.6-.3,1.3-.5,2-.5V15.1c-.4,0-.9-.2-1.3-.3-2-.8-3.6-2.1-4.5-4-.3-.6-.5-1.3-.5-2H14.7c0,.4-.2.9-.3,1.3-.2.4-.3.7-.5,1.1,0,0,0,.2-.1.3-1,1.9-2.6,2.8-4.5,3.5h-1.9v7.5c0,.5-.2.6-.6.9h-.8c-.4-.1-.5-.3-.8-.6v-9c0-.5.2-.6.6-.9h1.3c1.6,0,2.8-.4,4-1.6.8-1,1.2-2,1.3-3.3,0-.4.1-.7.3-1,.5-.4,1.1-.3,1.7-.3l.1-.3Z" fill="#28006c"/><path d="M42,.2h.4c.133,0,.3,0,.5,0h13.9c.133,0,.3,0,.5,0,1.5,0,2.8.4,3.9,1.5,1.5,1.6,1.5,3.3,1.5,5.4v8.6c0,.5,0,.8-.3,1.2-.4.3-.7.3-1.1.2h-2.8v2.1h3.3c.5,0,.6.2.9.6v.8c-.1.4-.3.5-.6.8h-3.7v2.1c.267,0,.533,0,.8,0h2.5c.5,0,.6.2.9.6v.8c-.1.4-.3.5-.6.8-.267,0-.567,0-.9,0-.133,0-.3,0-.5,0-.2,0-.367,0-.5,0h-1.8v2.1h3.3c.5,0,.6.2.9.6v.8c-.1.4-.3.5-.6.8h-3.7v2.1c.267,0,.533,0,.8,0h2.5c.267,0,.5.1.7.3.3.5.3.9.3,1.5v8.8c0,2,0,3.5-1.5,5-1.2,1.2-2.5,1.5-4.2,1.5H22.1c-.667,0-1.133-.1-1.4-.3-.2-.3-.2-.5-.2-.8v-.3c.1-.4.2-.5.6-.8h35c1.2,0,2.3,0,3.2-1,.8-.9.9-1.8.9-3v-8.5h-3.3c-.5,0-.6-.2-.9-.6v-17.6c0-.4.2-.6.6-.9h3.7v-7.5c0-1.333-.267-2.6-.8-3.8v-.3s-.1,0-.2-.1c-.2-.1-.5-.2-.7-.4-.9-.4-1.9-.3-2.9-.3h-14.3c-.4,0-.6-.3-.8-.6v-.8c.2-.7.7-.9,1.3-.9l.1-.5Z" fill="#28006c"/><path d="M5.5.2h31.4c.133,0,.267,0,.4,0,.133,0,.567.1,1.3.3.2.3.3.4.2.8v.3c-.1.4-.3.5-.6.8H6.2c-1.1,0-2,.1-3,.8h-.3c-.7,1.3-.8,2.3-.8,3.7v35c0,1.2.1,2.1.8,3.1v.3c1.2.6,2.2.8,3.5.8h11c.533,0,.933.1,1.2.3.2.3.3.4.3.8v.3c-.1.4-.2.5-.6.8H5.2c-1.4,0-2.6-.5-3.7-1.5-1.2-1.3-1.5-2.6-1.5-4.3V5.3c0-1.5.5-2.7,1.5-3.8C2.7.4,4,0,5.6,0l-.1.2Z" fill="#28006c"/><path d="M39.2,16.9h1.9c1.4,0,2.7.1,3.8,1.2.8.8,1.1,1.8,1.2,2.9v5.9c0,1.4-.2,2.6-1.1,3.7-.9.8-1.9,1.2-3.1,1.2h-2.8c-.4,0-.7,0-1-.3-.4-.5-.3-1-.3-1.6v-11.4c0-.533.1-.967.3-1.3.4-.3.8-.3,1.3-.3h-.2ZM39.7,19.1v10.5c1.2.067,2.367-.133,3.5-.6.8-.8.7-1.9.7-3v-3.8c0-.8,0-1.8-.6-2.5-1-.9-2.3-.7-3.6-.7v.1Z" fill="#28006c"/><path d="M34,17.7c.8.6,1.4,1.5,1.6,2.4.067.933,0,1.567-.2,1.9-.3.2-.4.3-.8.3h-.3c-.4-.1-.5-.3-.8-.6-.067-.2-.133-.433-.2-.7-.1-.6-.3-1-.7-1.4-.6-.4-1.2-.3-1.8-.3-.6.3-.9.6-1.2,1.2,0,.7,0,1.2.2,1.8.6.6,1.2.8,2,.9,1.2.2,2.3.6,3.1,1.6.8,1.2.9,2.3.7,3.7-.3,1.1-.9,2-1.8,2.6-1.1.7-2.5.7-3.8.5-1.3-.5-2.1-1.4-2.7-2.6-.1-.7-.2-1.3,0-2,.2-.3.4-.5.8-.6h.6c.4.1.5.3.8.6.067.2.133.433.2.7.1.6.3,1,.7,1.4.6.4,1.2.3,1.8.3.6-.3.9-.6,1.2-1.2,0-.7,0-1.2-.2-1.8-.6-.6-1.2-.8-2-.9-1.2-.2-2.3-.6-3.1-1.6-.8-1.2-.9-2.3-.7-3.7.2-1,.8-1.8,1.6-2.4,1.6-1,3.6-1,5.2,0l-.2-.1Z" fill="#28006c"/><path d="M23.5,17.7c.8.6,1.4,1.5,1.6,2.4.067.933,0,1.567-.2,1.9-.3.2-.4.3-.8.3h-.3c-.4-.1-.5-.3-.8-.6-.067-.2-.133-.433-.2-.7-.1-.6-.3-1-.7-1.4-.6-.4-1.2-.3-1.8-.3-.6.3-.9.6-1.2,1.2,0,.7,0,1.2.2,1.8.6.6,1.2.8,2,.9,1.2.2,2.3.6,3.1,1.6.8,1.2.9,2.3.7,3.7-.3,1.1-.9,2-1.8,2.6-1.1.7-2.5.7-3.8.5-1.3-.5-2.1-1.4-2.7-2.6-.1-.7-.2-1.3,0-2,.2-.3.4-.5.8-.6h.6c.4.1.5.3.8.6.067.2.133.433.2.7.1.6.3,1,.7,1.4.6.4,1.2.3,1.8.3.6-.3.9-.6,1.2-1.2,0-.7,0-1.2-.2-1.8-.6-.6-1.2-.8-2-.9-1.2-.2-2.3-.6-3.1-1.6-.8-1.2-.9-2.3-.7-3.7.2-1,.8-1.8,1.6-2.4,1.6-1,3.6-1,5.2,0l-.2-.1Z" fill="#28006c"/><path d="M8.8,38.1c.8.5,1.4,1.2,1.6,2,.1,1,.1,2-.5,2.9-.6.7-1.2,1.1-2.1,1.2-1.1,0-1.9,0-2.7-.8-.8-.9-1-1.6-1-2.8,0-1,.6-1.6,1.3-2.2.9-.6,2.3-.7,3.3-.3h.1ZM6.6,40.3c-.3.4-.3.6-.2,1.1.133.2.3.367.5.5.5,0,.7,0,1.1-.2.3-.4.3-.6.2-1.1-.133-.2-.3-.367-.5-.5-.5,0-.7,0-1.1.2Z" fill="#28006c"/><path d="M54.9,4.6c.8.5,1.4,1.2,1.6,2,.1,1,.1,2-.5,2.9-.6.7-1.2,1.1-2.1,1.2-1.1,0-1.9,0-2.7-.8-.8-.9-1-1.6-1-2.8,0-1,.6-1.6,1.3-2.2.9-.6,2.3-.7,3.3-.3h.1ZM52.7,6.8c-.3.4-.3.6-.2,1.1.133.2.3.367.5.5.5,0,.7,0,1.1-.2.3-.4.3-.6.2-1.1-.133-.2-.3-.367-.5-.5-.5,0-.7,0-1.1.2Z" fill="#28006c"/><path d="M8.8,4.6c.8.5,1.4,1.2,1.6,2,.1,1,.1,2-.5,2.9-.6.7-1.2,1.1-2.1,1.2-1.1,0-1.9,0-2.7-.8-.8-.9-1-1.6-1-2.8,0-1,.6-1.6,1.3-2.2.9-.6,2.3-.7,3.3-.3h.1ZM6.6,6.8c-.3.4-.3.6-.2,1.1.133.2.3.367.5.5.5,0,.7,0,1.1-.2.3-.4.3-.6.2-1.1-.133-.2-.3-.367-.5-.5-.5,0-.7,0-1.1.2Z" fill="#28006c"/><path d="M54.9,38.1c.8.5,1.4,1.2,1.6,2,0,.6.1,1.2-.2,1.8-.5.2-.9.3-1.4.2-.5-.3-.7-.9-.8-1.4,0-.2-.133-.333-.4-.4-.267-.067-.6-.033-1,.1-.2.4-.2.6-.1,1,.3.5.8.5,1.3.7.2.067.367.233.5.5,0,.6-.067,1.067-.2,1.4-.6.4-1.4.3-2.1.1-.8-.4-1.4-1-1.8-1.8-.3-.8-.3-1.9,0-2.8.9-1.5,2.8-2.2,4.4-1.4h.2Z" fill="#28006c"/></svg>