<?xml version="1.0" encoding="UTF-8"?>
<svg id="Layer_1" data-name="Layer 1" xmlns="http://www.w3.org/2000/svg" width="95" height="95" viewBox="0 0 95 95">
  <defs>
    <style>
      .cls-1 {
        fill: #fff;
      }

      .cls-2 {
        fill: #28006c;
      }
    </style>
  </defs>
  <circle class="cls-2" cx="47.5" cy="47.5" r="47.5"/>
  <g>
    <path class="cls-1" d="M30.4,29.4c.1,0,.3,0,.4,0,.5,0,.9,0,1.4,0,.3,0,.7,0,1,0,.8,0,1.7,0,2.5,0,.7,0,1.3,0,2,0q.1,0,.3,0c.2,0,.4,0,.6,0,1.8,0,3.6,0,5.5,0,1.6,0,3.1,0,4.7,0,1.8,0,3.6,0,5.4,0,.2,0,.4,0,.6,0q.1,0,.3,0c.7,0,1.3,0,2,0,.9,0,1.8,0,2.7,0,.3,0,.7,0,1,0,.5,0,.9,0,1.4,0q.2,0,.4,0t1.3,.3c.3,.4,.3,.8,.4,1.3,.2,1.5,.8,2.8,2.1,3.7,.7,.5,1.4,.7,2.3,.9q.2,0,.4,0c.1,0,.3,0,.4,0,.4,.1,.6,.3,.9,.6q0,.4,0,.9,0,.1,0,.3c0,.3,0,.6,0,.9,0,.2,0,.4,0,.6,0,.6,0,1.2,0,1.8,0,.6,0,1.2,0,1.8,0,1,0,2.1,0,3.1,0,1.2,0,2.4,0,3.6,0,1,0,2,0,3.1,0,.6,0,1.2,0,1.8,0,.6,0,1.1,0,1.7,0,.2,0,.4,0,.6,0,.3,0,.6,0,.9q0,.2,0,.5c0,.5-.2,.6-.6,.9-.3,0-.7,.1-1,.2-1.5,.2-2.8,.8-3.7,2.1-.5,.7-.7,1.4-.9,2.3q0,.2,0,.4c0,.1,0,.3,0,.4-.1,.5-.2,.6-.6,.9-.5,0-.9,0-1.4,0-.1,0-.3,0-.4,0-.5,0-.9,0-1.4,0-.3,0-.7,0-1,0-.8,0-1.7,0-2.5,0-.7,0-1.3,0-2,0q-.1,0-.3,0c-.2,0-.4,0-.6,0-1.8,0-3.6,0-5.5,0-1.6,0-3.1,0-4.7,0-1.8,0-3.6,0-5.4,0-.2,0-.4,0-.6,0,0,0-.2,0-.3,0-.7,0-1.3,0-2,0-.9,0-1.8,0-2.7,0-.3,0-.7,0-1,0-.5,0-.9,0-1.4,0q-.2,0-.4,0-.9,0-1.3-.3c-.3-.4-.3-.8-.4-1.3-.2-1.3-.6-2.5-1.6-3.4-.8-.6-1.8-1.1-2.9-1.1-.1,0-.2,0-.4,0-.3,0-.5,0-.8,0q-.2,0-.4,0c-.1,0-.2,0-.3,0-.4,0-.6-.3-.8-.6q0-.4,0-.9c0,0,0-.2,0-.3,0-.3,0-.6,0-.9,0-.2,0-.4,0-.6,0-.4,0-.9,0-1.3,0-.6,0-1.1,0-1.7,0-.4,0-.9,0-1.3,0-.2,0-.4,0-.6,0-.3,0-.6,0-.9,0-.2,0-.3,0-.5,0-.5,.2-.6,.6-.9q.3,0,.5,0c0,0,.2,0,.3,0,.4,.1,.5,.3,.8,.6q0,.4,0,.8,0,.2,0,.5,0,.3,0,.5c0,.2,0,.4,0,.5,0,.5,0,.9,0,1.4,0,.5,0,.9,0,1.4,0,.9,0,1.8,0,2.8,0,0,.2,0,.3,0q.2,0,.4,0,.2,0,.4,0c1.4,0,2.6,.7,3.6,1.6q.2,.1,.3,.2c1.4,1.2,2,2.7,2.3,4.5h31.4c0-.4,.2-.9,.3-1.3,.8-2,2.1-3.6,4-4.5,.6-.3,1.3-.5,2-.5v-18.8c-.4,0-.9-.2-1.3-.3-2-.8-3.6-2.1-4.5-4-.3-.6-.5-1.3-.5-2H30.6c0,.4-.2,.9-.3,1.3-.2,.4-.3,.7-.5,1.1,0,0,0,.2-.1,.3-1,1.9-2.6,2.8-4.5,3.5-.4,0-.8,0-1.2,0q-.2,0-.4,0c0,0-.2,0-.3,0,0,0,0,.2,0,.3,0,.9,0,1.8,0,2.7,0,.5,0,.9,0,1.4,0,.5,0,.9,0,1.4,0,.3,0,.5,0,.8,0,.2,0,.3,0,.5,0,.1,0,.3,0,.4,0,.5-.2,.6-.6,.9q-.3,0-.5,0c0,0-.2,0-.3,0-.4-.1-.5-.3-.8-.6q0-.4,0-.9c0,0,0-.2,0-.3,0-.3,0-.6,0-.9,0-.2,0-.4,0-.6,0-.4,0-.9,0-1.3,0-.6,0-1.1,0-1.7,0-.4,0-.9,0-1.3,0-.2,0-.4,0-.6,0-.3,0-.6,0-.9,0-.2,0-.3,0-.5,0-.5,.2-.6,.6-.9q.3,0,.6,0c.1,0,.2,0,.3,0,.1,0,.2,0,.4,0,1.6,0,2.8-.4,4-1.6,.8-1,1.2-2,1.3-3.3,0-.4,.1-.7,.3-1,.5-.4,1.1-.3,1.7-.3Z"/>
    <path class="cls-1" d="M57.9,23.2c.1,0,.3,0,.4,0q.2,0,.5,0c.2,0,.3,0,.5,0,.5,0,.9,0,1.4,0,.5,0,1,0,1.4,0,.8,0,1.6,0,2.4,0,.9,0,1.9,0,2.8,0,.8,0,1.6,0,2.4,0,.5,0,1,0,1.4,0,.5,0,1.1,0,1.6,0q.2,0,.5,0c1.5,0,2.8,.4,3.9,1.5,1.5,1.6,1.5,3.3,1.5,5.4,0,.3,0,.5,0,.8,0,.6,0,1.1,0,1.7,0,.7,0,1.4,0,2.2,0,.6,0,1.1,0,1.7,0,.3,0,.5,0,.8,0,.4,0,.7,0,1.1,0,.1,0,.2,0,.3,0,.5,0,.8-.3,1.2-.4,.3-.7,.3-1.1,.2q-.2,0-.5,0t-.5,0c-.2,0-.3,0-.5,0-.4,0-.9,0-1.3,0v2.1q.4,0,.8,0c.3,0,.7,0,1,0,.2,0,.3,0,.5,0,.2,0,.3,0,.5,0,.2,0,.3,0,.5,0,.5,0,.6,.2,.9,.6q0,.3,0,.5,0,.1,0,.3c-.1,.4-.3,.5-.6,.8q-.4,0-.9,0-.2,0-.5,0-.3,0-.5,0c-.2,0-.3,0-.5,0-.4,0-.9,0-1.3,0v2.1q.4,0,.8,0c.3,0,.7,0,1,0,.2,0,.3,0,.5,0,.2,0,.3,0,.5,0,.2,0,.3,0,.5,0,.5,0,.6,.2,.9,.6q0,.3,0,.5,0,.1,0,.3c-.1,.4-.3,.5-.6,.8q-.4,0-.9,0-.2,0-.5,0-.3,0-.5,0c-.2,0-.3,0-.5,0-.4,0-.9,0-1.3,0v2.1q.4,0,.8,0c.3,0,.7,0,1,0,.2,0,.3,0,.5,0,.2,0,.3,0,.5,0,.2,0,.3,0,.5,0,.5,0,.6,.2,.9,.6q0,.3,0,.5,0,.1,0,.3c-.1,.4-.3,.5-.6,.8q-.4,0-.9,0-.2,0-.5,0-.3,0-.5,0c-.2,0-.3,0-.5,0-.4,0-.9,0-1.3,0v2.1q.4,0,.8,0c.3,0,.7,0,1,0,.2,0,.3,0,.5,0,.2,0,.3,0,.5,0,.2,0,.3,0,.5,0q.4,0,.7,.3c.3,.5,.3,.9,.3,1.5q0,.2,0,.4c0,.4,0,.8,0,1.2,0,.3,0,.5,0,.8,0,.6,0,1.1,0,1.7,0,.7,0,1.4,0,2.2,0,.6,0,1.1,0,1.7,0,.3,0,.5,0,.8,0,2,0,3.5-1.5,5-1.2,1.2-2.5,1.5-4.2,1.5-.2,0-.3,0-.5,0-.4,0-.8,0-1.3,0-.5,0-.9,0-1.4,0-.9,0-1.8,0-2.7,0-.7,0-1.4,0-2.2,0-.1,0-.2,0-.3,0-.2,0-.4,0-.6,0-2,0-3.9,0-5.9,0-1.7,0-3.4,0-5,0-2,0-3.9,0-5.9,0-.2,0-.4,0-.6,0-.1,0-.2,0-.3,0-.7,0-1.4,0-2.2,0-.9,0-1.8,0-2.6,0-.4,0-.9,0-1.3,0-.5,0-1,0-1.5,0q-.2,0-.4,0-1,0-1.4-.3c-.2-.3-.2-.5-.2-.8,0,0,0-.2,0-.3,.1-.4,.2-.5,.6-.8,.5,0,.9,0,1.4,0q.2,0,.4,0c.5,0,1,0,1.5,0,.4,0,.7,0,1.1,0,.8,0,1.5,0,2.3,0,1.1,0,2.2,0,3.3,0,1.8,0,3.6,0,5.4,0q.2,0,.3,0c.1,0,.2,0,.3,0,1.5,0,3,0,4.6,0,.1,0,.2,0,.3,0,1.8,0,3.6,0,5.4,0,1.1,0,2.2,0,3.3,0,.8,0,1.5,0,2.3,0,.4,0,.9,0,1.3,0,.5,0,.9,0,1.4,0,.1,0,.3,0,.4,0,1.2,0,2.3,0,3.2-1,.8-.9,.9-1.8,.9-3,0,0,0-.2,0-.3,0-.3,0-.6,0-.9,0-.2,0-.4,0-.6,0-.6,0-1.1,0-1.7,0-.6,0-1.1,0-1.7,0-1.1,0-2.2,0-3.3-.1,0-.2,0-.3,0-.5,0-1,0-1.5,0-.2,0-.3,0-.5,0-.2,0-.3,0-.5,0-.2,0-.3,0-.5,0-.5,0-.6-.2-.9-.6q0-.3,0-.7,0-.2,0-.5,0-.2,0-.5c0-.2,0-.3,0-.5,0-.5,0-.9,0-1.4,0-.5,0-1,0-1.5,0-.8,0-1.7,0-2.5,0-1,0-1.9,0-2.9,0-.8,0-1.7,0-2.5,0-.5,0-1,0-1.5,0-.5,0-.9,0-1.4,0-.3,0-.5,0-.8,0-.1,0-.3,0-.5q0-.2,0-.4c0-.4,.2-.6,.6-.9q.4,0,.9,0c.2,0,.3,0,.5,0,.2,0,.3,0,.5,0,.2,0,.3,0,.5,0,.4,0,.9,0,1.3,0,0-1.2,0-2.4,0-3.6,0-.6,0-1.1,0-1.7,0-.5,0-1.1,0-1.6,0-.2,0-.4,0-.6q0-2-.8-3.8v-.3c0,0-.1,0-.2-.1-.2-.1-.5-.2-.7-.4-.9-.4-1.9-.3-2.9-.3-.2,0-.3,0-.5,0-.3,0-.7,0-1,0-.5,0-1.1,0-1.6,0-.2,0-.4,0-.6,0,0,0-.2,0-.3,0-1.3,0-2.5,0-3.8,0-.8,0-1.7,0-2.5,0-.4,0-.9,0-1.3,0-.5,0-1,0-1.5,0-.1,0-.3,0-.4,0-.1,0-.3,0-.4,0-.1,0-.2,0-.4,0-.4,0-.6-.3-.8-.6q0-.3,0-.5,0-.1,0-.3c.2-.7,.7-.9,1.3-.9Z"/>
    <path class="cls-1" d="M21.4,23.2c.1,0,.3,0,.4,0,.5,0,.9,0,1.4,0,.3,0,.7,0,1,0,.8,0,1.6,0,2.4,0,.7,0,1.3,0,2,0,0,0,.2,0,.3,0,.2,0,.4,0,.6,0,1.8,0,3.6,0,5.4,0,1.5,0,3.1,0,4.6,0,1.8,0,3.6,0,5.4,0,.2,0,.4,0,.6,0,0,0,.2,0,.3,0,.7,0,1.3,0,2,0,.9,0,1.8,0,2.7,0,.3,0,.7,0,1,0,.4,0,.9,0,1.3,0q.2,0,.4,0t1.3,.3c.2,.3,.3,.4,.2,.8q0,.1,0,.3c-.1,.4-.3,.5-.6,.8-.4,0-.9,0-1.3,0-.1,0-.3,0-.4,0-.5,0-.9,0-1.4,0-.3,0-.6,0-1,0-.7,0-1.4,0-2.1,0-1,0-2,0-3,0-1.6,0-3.3,0-4.9,0,0,0-.2,0-.3,0,0,0-.2,0-.3,0-1.4,0-2.8,0-4.2,0,0,0-.2,0-.3,0-1.6,0-3.3,0-4.9,0-1,0-2,0-3,0-.8,0-1.5,0-2.3,0-.3,0-.6,0-.9,0-.4,0-.9,0-1.3,0-.1,0-.2,0-.4,0-1.1,0-2,.1-3,.8h-.3c-.7,1.3-.8,2.3-.8,3.7,0,.2,0,.3,0,.5,0,.4,0,.9,0,1.3,0,.5,0,.9,0,1.4,0,.9,0,1.8,0,2.7,0,.7,0,1.5,0,2.2,0,2.1,0,4.1,0,6.2q0,.2,0,.3c0,.1,0,.2,0,.3,0,1.8,0,3.6,0,5.4,0,1.9,0,3.7,0,5.6,0,1,0,2.1,0,3.1,0,.9,0,1.8,0,2.7,0,.5,0,.9,0,1.4,0,.5,0,1,0,1.5,0,.1,0,.3,0,.4,0,1.2,.1,2.1,.8,3.1v.3c1.2,.6,2.2,.8,3.5,.8q.2,0,.4,0c.3,0,.5,0,.8,0,.4,0,.9,0,1.3,0,1.2,0,2.5,0,3.7,0,.8,0,1.5,0,2.3,0,.3,0,.6,0,.9,0,.4,0,.8,0,1.2,0,.1,0,.2,0,.4,0q.8,0,1.2,.3c.2,.3,.3,.4,.3,.8,0,0,0,.2,0,.3-.1,.4-.2,.5-.6,.8-.4,0-.9,0-1.3,0-.1,0-.3,0-.4,0-.5,0-.9,0-1.4,0-.3,0-.6,0-.9,0-.7,0-1.3,0-2,0-.8,0-1.7,0-2.5,0-.7,0-1.3,0-2,0-.3,0-.6,0-.9,0-.4,0-.9,0-1.3,0-.1,0-.3,0-.4,0-1.4,0-2.6-.5-3.7-1.5-1.2-1.3-1.5-2.6-1.5-4.3,0-.2,0-.3,0-.5,0-.5,0-.9,0-1.4,0-.5,0-1,0-1.5,0-1,0-1.9,0-2.9,0-.8,0-1.5,0-2.3,0-.1,0-.2,0-.3,0-.2,0-.4,0-.7,0-2.1,0-4.2,0-6.3,0-1.8,0-3.6,0-5.4,0-2.1,0-4.2,0-6.3,0-.2,0-.4,0-.7,0-.1,0-.2,0-.3,0-.8,0-1.5,0-2.3,0-.9,0-1.9,0-2.8,0-.5,0-1,0-1.4,0-.5,0-1,0-1.6,0-.2,0-.3,0-.5,0-1.5,.5-2.7,1.5-3.8,1.2-1.1,2.5-1.5,4.1-1.5Z"/>
    <path class="cls-1" d="M55.1,39.9c.1,0,.2,0,.3,0,.2,0,.4,0,.6,0,.3,0,.6,0,1,0,1.4,0,2.7,.1,3.8,1.2,.8,.8,1.1,1.8,1.2,2.9,0,.2,0,.3,0,.5,0,.2,0,.4,0,.5,0,.2,0,.4,0,.6,0,.4,0,.8,0,1.2,0,.5,0,1,0,1.5,0,.4,0,.8,0,1.1,0,.2,0,.4,0,.5,0,1.4-.2,2.6-1.1,3.7-.9,.8-1.9,1.2-3.1,1.2-.1,0-.2,0-.3,0-.2,0-.4,0-.6,0-.3,0-.7,0-1,0-.2,0-.4,0-.6,0,0,0-.2,0-.3,0-.4,0-.7,0-1-.3-.4-.5-.3-1-.3-1.6,0-.1,0-.3,0-.4,0-.4,0-.9,0-1.3,0-.3,0-.6,0-.9,0-.6,0-1.3,0-1.9,0-.8,0-1.6,0-2.4,0-.6,0-1.3,0-1.9,0-.3,0-.6,0-.9,0-.4,0-.8,0-1.3,0-.1,0-.2,0-.4q0-.8,.3-1.3c.4-.3,.8-.3,1.3-.3Zm.5,2.2v10.5q1.8,.1,3.5-.6c.8-.8,.7-1.9,.7-3q0-.2,0-.4c0-.3,0-.6,0-.9,0-.4,0-.9,0-1.3,0-.3,0-.6,0-.8,0-.1,0-.3,0-.4,0-.8,0-1.8-.6-2.5-1-.9-2.3-.7-3.6-.7Z"/>
    <path class="cls-1" d="M49.9,40.7c.8,.6,1.4,1.5,1.6,2.4q.1,1.4-.2,1.9c-.3,.2-.4,.3-.8,.3,0,0-.2,0-.3,0-.4-.1-.5-.3-.8-.6q-.1-.3-.2-.7c-.1-.6-.3-1-.7-1.4-.6-.4-1.2-.3-1.8-.3-.6,.3-.9,.6-1.2,1.2,0,.7,0,1.2,.2,1.8,.6,.6,1.2,.8,2,.9,1.2,.2,2.3,.6,3.1,1.6,.8,1.2,.9,2.3,.7,3.7-.3,1.1-.9,2-1.8,2.6-1.1,.7-2.5,.7-3.8,.5-1.3-.5-2.1-1.4-2.7-2.6-.1-.7-.2-1.3,0-2,.2-.3,.4-.5,.8-.6q.1,0,.3,0c0,0,.2,0,.3,0,.4,.1,.5,.3,.8,.6q.1,.3,.2,.7c.1,.6,.3,1,.7,1.4,.6,.4,1.2,.3,1.8,.3,.6-.3,.9-.6,1.2-1.2,0-.7,0-1.2-.2-1.8-.6-.6-1.2-.8-2-.9-1.2-.2-2.3-.6-3.1-1.6-.8-1.2-.9-2.3-.7-3.7,.2-1,.8-1.8,1.6-2.4,1.6-1,3.6-1,5.2,0Z"/>
    <path class="cls-1" d="M39.4,40.7c.8,.6,1.4,1.5,1.6,2.4q.1,1.4-.2,1.9c-.3,.2-.4,.3-.8,.3,0,0-.2,0-.3,0-.4-.1-.5-.3-.8-.6q-.1-.3-.2-.7c-.1-.6-.3-1-.7-1.4-.6-.4-1.2-.3-1.8-.3-.6,.3-.9,.6-1.2,1.2,0,.7,0,1.2,.2,1.8,.6,.6,1.2,.8,2,.9,1.2,.2,2.3,.6,3.1,1.6,.8,1.2,.9,2.3,.7,3.7-.3,1.1-.9,2-1.8,2.6-1.1,.7-2.5,.7-3.8,.5-1.3-.5-2.1-1.4-2.7-2.6-.1-.7-.2-1.3,0-2,.2-.3,.4-.5,.8-.6q.1,0,.3,0c0,0,.2,0,.3,0,.4,.1,.5,.3,.8,.6q.1,.3,.2,.7c.1,.6,.3,1,.7,1.4,.6,.4,1.2,.3,1.8,.3,.6-.3,.9-.6,1.2-1.2,0-.7,0-1.2-.2-1.8-.6-.6-1.2-.8-2-.9-1.2-.2-2.3-.6-3.1-1.6-.8-1.2-.9-2.3-.7-3.7,.2-1,.8-1.8,1.6-2.4,1.6-1,3.6-1,5.2,0Z"/>
    <path class="cls-1" d="M24.7,61.1c.8,.5,1.4,1.2,1.6,2,.1,1,.1,2-.5,2.9-.6,.7-1.2,1.1-2.1,1.2-1.1,0-1.9,0-2.7-.8-.8-.9-1-1.6-1-2.8,0-1,.6-1.6,1.3-2.2,.9-.6,2.3-.7,3.3-.3Zm-2.2,2.2c-.3,.4-.3,.6-.2,1.1q.2,.3,.5,.5c.5,0,.7,0,1.1-.2,.3-.4,.3-.6,.2-1.1q-.2-.3-.5-.5c-.5,0-.7,0-1.1,.2Z"/>
    <path class="cls-1" d="M70.8,27.6c.8,.5,1.4,1.2,1.6,2,.1,1,.1,2-.5,2.9-.6,.7-1.2,1.1-2.1,1.2-1.1,0-1.9,0-2.7-.8-.8-.9-1-1.6-1-2.8,0-1,.6-1.6,1.3-2.2,.9-.6,2.3-.7,3.3-.3Zm-2.2,2.2c-.3,.4-.3,.6-.2,1.1q.2,.3,.5,.5c.5,0,.7,0,1.1-.2,.3-.4,.3-.6,.2-1.1q-.2-.3-.5-.5c-.5,0-.7,0-1.1,.2Z"/>
    <path class="cls-1" d="M24.7,27.6c.8,.5,1.4,1.2,1.6,2,.1,1,.1,2-.5,2.9-.6,.7-1.2,1.1-2.1,1.2-1.1,0-1.9,0-2.7-.8-.8-.9-1-1.6-1-2.8,0-1,.6-1.6,1.3-2.2,.9-.6,2.3-.7,3.3-.3Zm-2.2,2.2c-.3,.4-.3,.6-.2,1.1q.2,.3,.5,.5c.5,0,.7,0,1.1-.2,.3-.4,.3-.6,.2-1.1q-.2-.3-.5-.5c-.5,0-.7,0-1.1,.2Z"/>
    <path class="cls-1" d="M70.8,61.1c.8,.5,1.4,1.2,1.6,2,0,.6,.1,1.2-.2,1.8-.5,.2-.9,.3-1.4,.2-.5-.3-.7-.9-.8-1.4q0-.3-.4-.4t-1,.1c-.2,.4-.2,.6-.1,1,.3,.5,.8,.5,1.3,.7q.3,.1,.5,.5,0,.9-.2,1.4c-.6,.4-1.4,.3-2.1,.1-.8-.4-1.4-1-1.8-1.8-.3-.8-.3-1.9,0-2.8,.9-1.5,2.8-2.2,4.4-1.4Z"/>
  </g>
</svg>