<svg id="Layer_1" data-name="Layer 1" xmlns="http://www.w3.org/2000/svg" xmlns:xlink="http://www.w3.org/1999/xlink" viewBox="0 0 500 500"><defs><style>.cls-1,.cls-105,.cls-108,.cls-111,.cls-2,.cls-88{opacity:0.25;}.cls-1{fill:url(#linear-gradient);}.cls-2{fill:url(#linear-gradient-2);}.cls-3{fill:#4b24c6;}.cls-4{fill:url(#linear-gradient-3);}.cls-5{fill:url(#linear-gradient-4);}.cls-6{fill:url(#linear-gradient-5);}.cls-7{fill:url(#linear-gradient-6);}.cls-8{fill:url(#linear-gradient-7);}.cls-9{fill:url(#linear-gradient-8);}.cls-10{fill:url(#linear-gradient-9);}.cls-11{fill:url(#linear-gradient-10);}.cls-12{fill:url(#linear-gradient-11);}.cls-13{fill:url(#linear-gradient-12);}.cls-14{fill:url(#linear-gradient-13);}.cls-15{fill:url(#linear-gradient-14);}.cls-16{fill:url(#linear-gradient-15);}.cls-17{fill:url(#linear-gradient-16);}.cls-18{fill:url(#linear-gradient-17);}.cls-19{fill:url(#linear-gradient-18);}.cls-20{fill:url(#linear-gradient-19);}.cls-21{fill:url(#linear-gradient-20);}.cls-22{fill:url(#linear-gradient-21);}.cls-23{fill:url(#linear-gradient-22);}.cls-24{fill:url(#linear-gradient-23);}.cls-25{fill:url(#linear-gradient-24);}.cls-26{fill:url(#linear-gradient-25);}.cls-27{fill:url(#linear-gradient-26);}.cls-28{fill:url(#linear-gradient-27);}.cls-29{fill:url(#linear-gradient-28);}.cls-30{fill:url(#linear-gradient-29);}.cls-31{fill:url(#linear-gradient-30);}.cls-32{fill:url(#linear-gradient-31);}.cls-33{fill:url(#linear-gradient-32);}.cls-34{fill:url(#linear-gradient-33);}.cls-35{fill:url(#linear-gradient-34);}.cls-36{fill:url(#linear-gradient-35);}.cls-37{fill:url(#linear-gradient-36);}.cls-38{fill:url(#linear-gradient-37);}.cls-39{fill:url(#linear-gradient-38);}.cls-40{fill:url(#linear-gradient-39);}.cls-41{fill:url(#linear-gradient-40);}.cls-42{fill:url(#linear-gradient-41);}.cls-43{fill:url(#linear-gradient-42);}.cls-44{fill:url(#linear-gradient-43);}.cls-45{fill:url(#linear-gradient-44);}.cls-46{fill:url(#linear-gradient-45);}.cls-47{fill:url(#linear-gradient-46);}.cls-48{fill:url(#linear-gradient-47);}.cls-49{fill:url(#linear-gradient-48);}.cls-50{fill:url(#linear-gradient-49);}.cls-51{fill:url(#linear-gradient-50);}.cls-52{fill:url(#linear-gradient-51);}.cls-53{fill:url(#linear-gradient-52);}.cls-54{fill:url(#linear-gradient-53);}.cls-55{fill:url(#linear-gradient-54);}.cls-56{fill:url(#linear-gradient-55);}.cls-57{fill:url(#linear-gradient-56);}.cls-58{fill:url(#linear-gradient-57);}.cls-59{fill:url(#linear-gradient-58);}.cls-60{fill:url(#linear-gradient-59);}.cls-61{fill:url(#linear-gradient-60);}.cls-62{fill:url(#linear-gradient-61);}.cls-63,.cls-66{fill:#8353f9;}.cls-64{fill:#c6c4c5;}.cls-65,.cls-68{fill:#fff;}.cls-66{opacity:0.24;}.cls-67{fill:url(#linear-gradient-62);}.cls-68{opacity:0.5;}.cls-69{mask:url(#mask);}.cls-70{fill:#ff5693;}.cls-71{fill:#f3f2f1;}.cls-72{fill:url(#linear-gradient-63);}.cls-73{fill:url(#linear-gradient-64);}.cls-74{fill:url(#linear-gradient-65);}.cls-75{fill:url(#linear-gradient-66);}.cls-76{fill:url(#linear-gradient-67);}.cls-77{fill:#ff4d87;}.cls-78{fill:none;stroke:#fff;stroke-miterlimit:10;stroke-width:5px;}.cls-79{fill:url(#linear-gradient-68);}.cls-80{opacity:0.8;}.cls-81{fill:url(#linear-gradient-69);}.cls-82{fill:url(#linear-gradient-70);}.cls-83{fill:#b5bfc7;}.cls-84{fill:#33215d;}.cls-85{fill:url(#linear-gradient-71);}.cls-86{fill:url(#linear-gradient-72);}.cls-87{fill:url(#linear-gradient-73);}.cls-88{fill:url(#linear-gradient-74);}.cls-89{fill:url(#linear-gradient-75);}.cls-90{fill:url(#linear-gradient-76);}.cls-91{fill:#c9c4bc;}.cls-92{fill:url(#linear-gradient-77);}.cls-93{fill:url(#linear-gradient-78);}.cls-94{fill:url(#linear-gradient-79);}.cls-95{fill:url(#linear-gradient-80);}.cls-96{fill:url(#linear-gradient-81);}.cls-97{fill:url(#linear-gradient-82);}.cls-98{fill:url(#linear-gradient-83);}.cls-99{fill:url(#linear-gradient-84);}.cls-100{fill:url(#linear-gradient-85);}.cls-101{fill:url(#linear-gradient-86);}.cls-102{fill:url(#linear-gradient-87);}.cls-103{fill:url(#linear-gradient-88);}.cls-104{fill:url(#linear-gradient-89);}.cls-105{fill:url(#linear-gradient-90);}.cls-106{fill:url(#linear-gradient-91);}.cls-107{fill:url(#linear-gradient-92);}.cls-108{fill:url(#linear-gradient-93);}.cls-109{fill:url(#linear-gradient-94);}.cls-110{fill:#ffc219;}.cls-111{fill:url(#linear-gradient-95);}.cls-112{fill:url(#linear-gradient-96);}.cls-113{fill:url(#linear-gradient-97);}.cls-114{fill:url(#linear-gradient-98);}.cls-115{fill:url(#linear-gradient-99);}.cls-116{fill:url(#linear-gradient-100);}.cls-117{fill:url(#linear-gradient-101);}.cls-118{fill:url(#linear-gradient-102);}.cls-119{fill:url(#linear-gradient-103);}.cls-120{fill:url(#linear-gradient-104);}.cls-121{fill:url(#linear-gradient-105);}.cls-122{fill:url(#linear-gradient-106);}.cls-123{fill:url(#linear-gradient-107);}.cls-124{fill:url(#linear-gradient-108);}.cls-125{fill:#ffc21c;}.cls-126{fill:url(#linear-gradient-109);}.cls-127{fill:url(#linear-gradient-110);}.cls-128{fill:url(#linear-gradient-111);}.cls-129{fill:url(#linear-gradient-112);}.cls-130{fill:url(#linear-gradient-113);}.cls-131{filter:url(#luminosity-noclip);}</style><linearGradient id="linear-gradient" x1="183.11" y1="298.35" x2="206.96" y2="339.33" gradientUnits="userSpaceOnUse"><stop offset="0" stop-color="#02000c"/><stop offset="1" stop-color="#140d02"/></linearGradient><linearGradient id="linear-gradient-2" x1="173.43" y1="328.83" x2="293.87" y2="328.83" xlink:href="#linear-gradient"/><linearGradient id="linear-gradient-3" x1="254.55" y1="318.02" x2="168.84" y2="338.82" gradientUnits="userSpaceOnUse"><stop offset="0" stop-color="#e4e4e4"/><stop offset="1" stop-color="#fcfcfc"/></linearGradient><linearGradient id="linear-gradient-4" x1="156.74" y1="323.63" x2="277.18" y2="323.63" xlink:href="#linear-gradient-3"/><linearGradient id="linear-gradient-5" x1="159.86" y1="323.63" x2="273.95" y2="323.63" gradientUnits="userSpaceOnUse"><stop offset="0" stop-color="#565656"/><stop offset="1" stop-color="#3f3b36"/></linearGradient><linearGradient id="linear-gradient-6" x1="224.28" y1="297.9" x2="238.84" y2="297.9" xlink:href="#linear-gradient-3"/><linearGradient id="linear-gradient-7" x1="218.39" y1="303.19" x2="227.06" y2="303.19" xlink:href="#linear-gradient-3"/><linearGradient id="linear-gradient-8" x1="212.5" y1="306.72" x2="221.16" y2="306.72" xlink:href="#linear-gradient-3"/><linearGradient id="linear-gradient-9" x1="206.6" y1="310.25" x2="215.27" y2="310.25" xlink:href="#linear-gradient-3"/><linearGradient id="linear-gradient-10" x1="200.71" y1="313.77" x2="209.38" y2="313.77" xlink:href="#linear-gradient-3"/><linearGradient id="linear-gradient-11" x1="194.82" y1="317.3" x2="203.49" y2="317.3" xlink:href="#linear-gradient-3"/><linearGradient id="linear-gradient-12" x1="188.93" y1="320.83" x2="197.6" y2="320.83" xlink:href="#linear-gradient-3"/><linearGradient id="linear-gradient-13" x1="183.04" y1="324.35" x2="191.7" y2="324.35" xlink:href="#linear-gradient-3"/><linearGradient id="linear-gradient-14" x1="177.15" y1="327.88" x2="185.81" y2="327.88" xlink:href="#linear-gradient-3"/><linearGradient id="linear-gradient-15" x1="171.25" y1="331.41" x2="179.92" y2="331.41" xlink:href="#linear-gradient-3"/><linearGradient id="linear-gradient-16" x1="165.36" y1="334.94" x2="174.03" y2="334.94" xlink:href="#linear-gradient-3"/><linearGradient id="linear-gradient-17" x1="236.77" y1="300.05" x2="245.44" y2="300.05" xlink:href="#linear-gradient-3"/><linearGradient id="linear-gradient-18" x1="230.88" y1="303.58" x2="239.55" y2="303.58" xlink:href="#linear-gradient-3"/><linearGradient id="linear-gradient-19" x1="224.99" y1="307.11" x2="233.65" y2="307.11" xlink:href="#linear-gradient-3"/><linearGradient id="linear-gradient-20" x1="219.09" y1="310.63" x2="227.76" y2="310.63" xlink:href="#linear-gradient-3"/><linearGradient id="linear-gradient-21" x1="213.2" y1="314.16" x2="221.87" y2="314.16" xlink:href="#linear-gradient-3"/><linearGradient id="linear-gradient-22" x1="207.31" y1="317.69" x2="215.98" y2="317.69" xlink:href="#linear-gradient-3"/><linearGradient id="linear-gradient-23" x1="201.42" y1="321.22" x2="210.09" y2="321.22" xlink:href="#linear-gradient-3"/><linearGradient id="linear-gradient-24" x1="195.53" y1="324.74" x2="204.19" y2="324.74" xlink:href="#linear-gradient-3"/><linearGradient id="linear-gradient-25" x1="189.64" y1="328.27" x2="198.3" y2="328.27" xlink:href="#linear-gradient-3"/><linearGradient id="linear-gradient-26" x1="183.74" y1="331.8" x2="192.41" y2="331.8" xlink:href="#linear-gradient-3"/><linearGradient id="linear-gradient-27" x1="177.85" y1="335.32" x2="186.52" y2="335.32" xlink:href="#linear-gradient-3"/><linearGradient id="linear-gradient-28" x1="171.96" y1="338.85" x2="180.63" y2="338.85" xlink:href="#linear-gradient-3"/><linearGradient id="linear-gradient-29" x1="237.48" y1="305.73" x2="252.04" y2="305.73" xlink:href="#linear-gradient-3"/><linearGradient id="linear-gradient-30" x1="231.58" y1="311.02" x2="240.25" y2="311.02" xlink:href="#linear-gradient-3"/><linearGradient id="linear-gradient-31" x1="225.69" y1="314.55" x2="234.36" y2="314.55" xlink:href="#linear-gradient-3"/><linearGradient id="linear-gradient-32" x1="219.8" y1="318.08" x2="228.47" y2="318.08" xlink:href="#linear-gradient-3"/><linearGradient id="linear-gradient-33" x1="213.91" y1="321.6" x2="222.58" y2="321.6" xlink:href="#linear-gradient-3"/><linearGradient id="linear-gradient-34" x1="208.02" y1="325.13" x2="216.68" y2="325.13" xlink:href="#linear-gradient-3"/><linearGradient id="linear-gradient-35" x1="202.13" y1="328.66" x2="210.79" y2="328.66" xlink:href="#linear-gradient-3"/><linearGradient id="linear-gradient-36" x1="196.23" y1="332.19" x2="204.9" y2="332.19" xlink:href="#linear-gradient-3"/><linearGradient id="linear-gradient-37" x1="190.34" y1="335.71" x2="199.01" y2="335.71" xlink:href="#linear-gradient-3"/><linearGradient id="linear-gradient-38" x1="184.45" y1="339.24" x2="193.12" y2="339.24" xlink:href="#linear-gradient-3"/><linearGradient id="linear-gradient-39" x1="178.56" y1="342.77" x2="187.22" y2="342.77" xlink:href="#linear-gradient-3"/><linearGradient id="linear-gradient-40" x1="249.97" y1="307.88" x2="258.63" y2="307.88" xlink:href="#linear-gradient-3"/><linearGradient id="linear-gradient-41" x1="244.07" y1="311.41" x2="252.74" y2="311.41" xlink:href="#linear-gradient-3"/><linearGradient id="linear-gradient-42" x1="238.18" y1="314.94" x2="246.85" y2="314.94" xlink:href="#linear-gradient-3"/><linearGradient id="linear-gradient-43" x1="232.29" y1="318.47" x2="240.96" y2="318.47" xlink:href="#linear-gradient-3"/><linearGradient id="linear-gradient-44" x1="226.4" y1="321.99" x2="235.07" y2="321.99" xlink:href="#linear-gradient-3"/><linearGradient id="linear-gradient-45" x1="220.51" y1="325.52" x2="229.17" y2="325.52" xlink:href="#linear-gradient-3"/><linearGradient id="linear-gradient-46" x1="214.61" y1="329.05" x2="223.28" y2="329.05" xlink:href="#linear-gradient-3"/><linearGradient id="linear-gradient-47" x1="208.72" y1="332.57" x2="217.39" y2="332.57" xlink:href="#linear-gradient-3"/><linearGradient id="linear-gradient-48" x1="202.83" y1="336.1" x2="211.5" y2="336.1" xlink:href="#linear-gradient-3"/><linearGradient id="linear-gradient-49" x1="196.94" y1="339.63" x2="205.61" y2="339.63" xlink:href="#linear-gradient-3"/><linearGradient id="linear-gradient-50" x1="191.05" y1="343.16" x2="199.71" y2="343.16" xlink:href="#linear-gradient-3"/><linearGradient id="linear-gradient-51" x1="185.16" y1="346.68" x2="193.82" y2="346.68" xlink:href="#linear-gradient-3"/><linearGradient id="linear-gradient-52" x1="256.56" y1="311.8" x2="265.23" y2="311.8" xlink:href="#linear-gradient-3"/><linearGradient id="linear-gradient-53" x1="250.67" y1="315.33" x2="259.34" y2="315.33" xlink:href="#linear-gradient-3"/><linearGradient id="linear-gradient-54" x1="244.78" y1="318.85" x2="253.45" y2="318.85" xlink:href="#linear-gradient-3"/><linearGradient id="linear-gradient-55" x1="209.4" y1="331.13" x2="247.53" y2="331.13" xlink:href="#linear-gradient-3"/><linearGradient id="linear-gradient-56" x1="203.54" y1="343.54" x2="212.2" y2="343.54" xlink:href="#linear-gradient-3"/><linearGradient id="linear-gradient-57" x1="197.65" y1="347.07" x2="206.31" y2="347.07" xlink:href="#linear-gradient-3"/><linearGradient id="linear-gradient-58" x1="191.75" y1="350.6" x2="200.42" y2="350.6" xlink:href="#linear-gradient-3"/><linearGradient id="linear-gradient-59" x1="198.54" y1="283.89" x2="122.78" y2="289.26" gradientUnits="userSpaceOnUse"><stop offset="0" stop-color="#006f6c"/><stop offset="1" stop-color="#004345"/></linearGradient><linearGradient id="linear-gradient-60" x1="198.54" y1="283.21" x2="122.78" y2="288.59" xlink:href="#linear-gradient-3"/><linearGradient id="linear-gradient-61" x1="163.89" y1="279.69" x2="174.39" y2="297.72" xlink:href="#linear-gradient-3"/><linearGradient id="linear-gradient-62" x1="117.69" y1="149.63" x2="110.28" y2="184.59" gradientUnits="userSpaceOnUse"><stop offset="0" stop-color="#acaaab"/><stop offset="1" stop-color="#7c7c7c"/></linearGradient><filter id="luminosity-noclip" x="141.48" y="-8442" width="37.13" height="32766" filterUnits="userSpaceOnUse" color-interpolation-filters="sRGB"><feFlood flood-color="#fff" result="bg"/><feBlend in="SourceGraphic" in2="bg"/></filter><mask id="mask" x="141.48" y="-8442" width="37.13" height="32766" maskUnits="userSpaceOnUse"><g class="cls-131"/></mask><linearGradient id="linear-gradient-63" x1="44.6" y1="194.06" x2="37.26" y2="228.69" xlink:href="#linear-gradient-3"/><linearGradient id="linear-gradient-64" x1="24.68" y1="213.26" x2="86.73" y2="233.23" xlink:href="#linear-gradient-3"/><linearGradient id="linear-gradient-65" x1="22.17" y1="267.86" x2="60.85" y2="267.86" gradientUnits="userSpaceOnUse"><stop offset="0" stop-color="#02a2ff"/><stop offset="0.84" stop-color="#0673e7"/></linearGradient><linearGradient id="linear-gradient-66" x1="229.09" y1="103.95" x2="287.77" y2="122.85" xlink:href="#linear-gradient-62"/><linearGradient id="linear-gradient-67" x1="233.07" y1="105.02" x2="239.85" y2="105.02" gradientTransform="translate(178.7 -147.2) rotate(53.2)" xlink:href="#linear-gradient-62"/><linearGradient id="linear-gradient-68" x1="114.81" y1="101.39" x2="176.73" y2="121.33" xlink:href="#linear-gradient-62"/><linearGradient id="linear-gradient-69" x1="191.74" y1="125.38" x2="180.65" y2="177.69" gradientUnits="userSpaceOnUse"><stop offset="0" stop-color="#e5ae35"/><stop offset="0.93" stop-color="#ffcb64"/></linearGradient><linearGradient id="linear-gradient-70" x1="174" y1="183.28" x2="212.38" y2="119.44" xlink:href="#linear-gradient-65"/><linearGradient id="linear-gradient-71" x1="119.67" y1="200.94" x2="131.64" y2="200.94" gradientUnits="userSpaceOnUse"><stop offset="0" stop-color="#ffd6bb"/><stop offset="1" stop-color="#ddb37c"/></linearGradient><linearGradient id="linear-gradient-72" x1="97.23" y1="214.27" x2="106.24" y2="214.27" xlink:href="#linear-gradient-71"/><linearGradient id="linear-gradient-73" x1="113.97" y1="218.79" x2="124.82" y2="218.79" xlink:href="#linear-gradient-71"/><linearGradient id="linear-gradient-74" x1="268.77" y1="280.38" x2="282.22" y2="303.48" xlink:href="#linear-gradient"/><linearGradient id="linear-gradient-75" x1="257.3" y1="203.5" x2="252.98" y2="223.91" gradientUnits="userSpaceOnUse"><stop offset="0" stop-color="#3f576c"/><stop offset="1" stop-color="#1c2730"/></linearGradient><linearGradient id="linear-gradient-76" x1="255.2" y1="233.1" x2="253.37" y2="241.76" xlink:href="#linear-gradient-75"/><linearGradient id="linear-gradient-77" x1="245.21" y1="237.92" x2="243.37" y2="246.59" xlink:href="#linear-gradient-75"/><linearGradient id="linear-gradient-78" x1="245.47" y1="239.29" x2="243.78" y2="247.29" xlink:href="#linear-gradient-62"/><linearGradient id="linear-gradient-79" x1="298.99" y1="288" x2="277.55" y2="249.03" gradientUnits="userSpaceOnUse"><stop offset="0" stop-color="#e4e4e4"/><stop offset="1" stop-color="#f8f8f8"/></linearGradient><linearGradient id="linear-gradient-80" x1="290.32" y1="242.94" x2="263.32" y2="225.74" xlink:href="#linear-gradient-3"/><linearGradient id="linear-gradient-81" x1="268.04" y1="218.12" x2="275.05" y2="239.95" xlink:href="#linear-gradient-3"/><linearGradient id="linear-gradient-82" x1="268.08" y1="170.2" x2="259.08" y2="166.94" xlink:href="#linear-gradient-71"/><linearGradient id="linear-gradient-83" x1="262.7" y1="195.09" x2="229.2" y2="197.46" xlink:href="#linear-gradient-3"/><linearGradient id="linear-gradient-84" x1="245.99" y1="169.68" x2="230.61" y2="188.29" xlink:href="#linear-gradient-3"/><linearGradient id="linear-gradient-85" x1="239.05" y1="188.55" x2="258.08" y2="202.96" xlink:href="#linear-gradient-3"/><linearGradient id="linear-gradient-86" x1="227.34" y1="179.68" x2="251.4" y2="179.68" xlink:href="#linear-gradient-62"/><linearGradient id="linear-gradient-87" x1="233.87" y1="193.05" x2="258.32" y2="193.05" xlink:href="#linear-gradient-62"/><linearGradient id="linear-gradient-88" x1="239.46" y1="193.6" x2="238.84" y2="196.54" xlink:href="#linear-gradient-71"/><linearGradient id="linear-gradient-89" x1="361.12" y1="218.97" x2="425.71" y2="218.97" xlink:href="#linear-gradient-65"/><linearGradient id="linear-gradient-90" x1="1078.27" y1="329.82" x2="1093.93" y2="356.73" gradientTransform="matrix(-1, 0, 0, 1, 1471.44, 0)" xlink:href="#linear-gradient"/><linearGradient id="linear-gradient-91" x1="1173.36" y1="322.96" x2="1035.87" y2="332.72" gradientTransform="matrix(-1, 0, 0, 1, 1471.44, 0)" xlink:href="#linear-gradient-62"/><linearGradient id="linear-gradient-92" x1="1110.97" y1="318.55" x2="1126.63" y2="345.47" gradientTransform="matrix(-1, 0, 0, 1, 1471.44, 0)" xlink:href="#linear-gradient-3"/><linearGradient id="linear-gradient-93" x1="364.06" y1="381.6" x2="288.96" y2="355.87" xlink:href="#linear-gradient"/><linearGradient id="linear-gradient-94" x1="1188.66" y1="367.4" x2="1120.31" y2="372.25" gradientTransform="matrix(-1, 0, 0, 1, 1471.44, 0)" xlink:href="#linear-gradient-62"/><linearGradient id="linear-gradient-95" x1="269.39" y1="402.16" x2="283.26" y2="426" xlink:href="#linear-gradient"/><linearGradient id="linear-gradient-96" x1="282.08" y1="401.38" x2="215.45" y2="406.1" xlink:href="#linear-gradient-3"/><linearGradient id="linear-gradient-97" x1="251.97" y1="397.75" x2="265.83" y2="421.59" xlink:href="#linear-gradient-3"/><linearGradient id="linear-gradient-98" x1="389.39" y1="199.36" x2="438.42" y2="199.36" xlink:href="#linear-gradient-65"/><linearGradient id="linear-gradient-99" x1="420.01" y1="214.39" x2="423.83" y2="214.39" xlink:href="#linear-gradient-65"/><linearGradient id="linear-gradient-100" x1="412.85" y1="207.02" x2="416.66" y2="207.02" xlink:href="#linear-gradient-65"/><linearGradient id="linear-gradient-101" x1="405.68" y1="197.76" x2="409.5" y2="197.76" xlink:href="#linear-gradient-65"/><linearGradient id="linear-gradient-102" x1="398.52" y1="196.3" x2="402.34" y2="196.3" xlink:href="#linear-gradient-65"/><linearGradient id="linear-gradient-103" x1="416.66" y1="190.39" x2="429.56" y2="190.39" xlink:href="#linear-gradient-65"/><linearGradient id="linear-gradient-104" x1="416.66" y1="192.92" x2="429.56" y2="192.92" xlink:href="#linear-gradient-65"/><linearGradient id="linear-gradient-105" x1="416.66" y1="195.45" x2="429.56" y2="195.45" xlink:href="#linear-gradient-65"/><linearGradient id="linear-gradient-106" x1="416.66" y1="197.97" x2="429.56" y2="197.97" xlink:href="#linear-gradient-65"/><linearGradient id="linear-gradient-107" x1="421.35" y1="201.98" x2="429.56" y2="201.98" xlink:href="#linear-gradient-65"/><linearGradient id="linear-gradient-108" x1="1142.5" y1="162.56" x2="1135.62" y2="195.03" gradientTransform="matrix(-1, 0, 0, 1, 1495.41, 0)" xlink:href="#linear-gradient-3"/><linearGradient id="linear-gradient-109" x1="357.62" y1="204.32" x2="366.22" y2="207.09" xlink:href="#linear-gradient-71"/><linearGradient id="linear-gradient-110" x1="333.28" y1="183.47" x2="343.11" y2="186.63" xlink:href="#linear-gradient-71"/><linearGradient id="linear-gradient-111" x1="324.08" y1="209.66" x2="345.72" y2="216.63" xlink:href="#linear-gradient-71"/><linearGradient id="linear-gradient-112" x1="387.46" y1="209.89" x2="406.35" y2="215.97" gradientTransform="matrix(1, -0.05, 0.05, 1, -10.6, 42.55)" xlink:href="#linear-gradient-71"/><linearGradient id="linear-gradient-113" x1="416.86" y1="240.21" x2="427.83" y2="243.74" xlink:href="#linear-gradient-71"/></defs><polygon class="cls-1" points="71.3 321.3 87.3 330.5 158.8 311.2 300.9 285.6 208.7 237.5 71.3 321.3"/><path class="cls-2" d="M250.4,294l-75.3,44.7a3.3,3.3,0,0,0,0,5.7l32.8,19.3a7.3,7.3,0,0,0,7.4.1l77.1-44.2a3,3,0,0,0,0-5.2L258.3,294A8,8,0,0,0,250.4,294Z"/><path class="cls-3" d="M233.7,293.3l-75.9,41.5c-2.2,1.3-1.6,7.7.6,8.9l32.8,19.4a7.5,7.5,0,0,0,7.4,0l77.1-44.2c2-1.2,2.7-7.1.7-8.3l-34.8-17.2A7.7,7.7,0,0,0,233.7,293.3Z"/><path class="cls-4" d="M233.7,292.5,157.8,334c-2.2,1.2-1.6,7.6.6,8.9l32.8,19.3a7.3,7.3,0,0,0,7.4,0L275.7,318c2-1.1,2.7-7.1.7-8.2l-34.8-17.3A7.7,7.7,0,0,0,233.7,292.5Z"/><path class="cls-5" d="M233.7,288.8l-75.3,44.7a3.3,3.3,0,0,0,0,5.7l32.8,19.3a7.3,7.3,0,0,0,7.4.1l77.1-44.2a3,3,0,0,0,0-5.2l-34.1-20.4A8,8,0,0,0,233.7,288.8Z"/><path class="cls-6" d="M194.9,356.4a3.9,3.9,0,0,1-2.1-.6l-32.9-19.3h0v-.2l75.4-44.7a4.8,4.8,0,0,1,2.3-.7,4.8,4.8,0,0,1,2.4.7l34,20.2-76.9,44.2a5.4,5.4,0,0,1-2.2.5Z"/><path class="cls-7" d="M228.3,302.1a.6.6,0,0,0,.8,0l7.8-4.4h.1l1.7-.9c.2-.2.2-.5,0-.6l-4-2.4a.8.8,0,0,0-.9,0l-1.6.9H232l-7.5,4.5a.4.4,0,0,0,0,.7Z"/><path class="cls-8" d="M222.4,305.6a.8.8,0,0,0,.8.1l3.7-2a.4.4,0,0,0,0-.6l-4-2.4H222l-3.4,2c-.3.2-.3.6,0,.7Z"/><path class="cls-9" d="M216.5,309.2a1.4,1.4,0,0,0,.9,0l3.6-2c.2-.1.2-.4,0-.6l-4-2.3a.7.7,0,0,0-.9,0l-3.4,2a.3.3,0,0,0,0,.6Z"/><path class="cls-10" d="M210.6,312.7a.7.7,0,0,0,.9,0l3.6-1.9c.2-.2.2-.5,0-.6l-4-2.4a.7.7,0,0,0-.9,0l-3.4,2c-.3.1-.3.5,0,.7Z"/><path class="cls-11" d="M204.7,316.2a.7.7,0,0,0,.9,0l3.6-1.9a.4.4,0,0,0,0-.6l-3.9-2.4a1.7,1.7,0,0,0-1,0l-3.4,2a.5.5,0,0,0,0,.7Z"/><path class="cls-12" d="M198.8,319.8h.9l3.6-2c.2-.1.2-.4,0-.6l-3.9-2.3a.9.9,0,0,0-1,0l-3.4,2a.4.4,0,0,0,0,.6Z"/><path class="cls-13" d="M192.9,323.3h.9l3.6-2c.3-.1.3-.4,0-.6l-3.9-2.3a.9.9,0,0,0-1,0l-3.4,2a.4.4,0,0,0,0,.6Z"/><path class="cls-14" d="M187,326.8a.8.8,0,0,0,.9,0l3.6-1.9c.3-.2.3-.5,0-.6l-3.9-2.4a.7.7,0,0,0-.9,0l-3.5,2a.5.5,0,0,0,0,.7Z"/><path class="cls-15" d="M181.1,330.3a.8.8,0,0,0,.9,0l3.6-1.9a.3.3,0,0,0,0-.6l-3.9-2.4h-.9l-3.5,2a.5.5,0,0,0,0,.7Z"/><path class="cls-16" d="M175.3,333.9a1.1,1.1,0,0,0,.8,0l3.6-2c.3-.1.3-.4.1-.6l-4-2.3a.7.7,0,0,0-.9,0l-3.5,2a.4.4,0,0,0,0,.6Z"/><path class="cls-17" d="M173.9,334.9l-4-2.4a.7.7,0,0,0-.9,0l-3.4,2a.3.3,0,0,0-.1.6l3.9,2.3a1.1,1.1,0,0,0,.8,0l3.7-1.9C174.1,335.3,174.1,335,173.9,334.9Z"/><path class="cls-18" d="M237,300.3l3.8,2.2a.6.6,0,0,0,.8,0l3.7-1.9c.2-.2.2-.5,0-.6l-4-2.4a.8.8,0,0,0-.9,0l-3.4,2A.4.4,0,0,0,237,300.3Z"/><path class="cls-19" d="M239.4,303.5l-4-2.4a1.4,1.4,0,0,0-.9,0l-3.4,2a.4.4,0,0,0,0,.7l3.8,2.2a.6.6,0,0,0,.8,0l3.7-1.9A.4.4,0,0,0,239.4,303.5Z"/><path class="cls-20" d="M228.6,304.7l-3.4,2a.3.3,0,0,0,0,.6l3.8,2.3h.8l3.7-2c.2-.1.2-.4,0-.6l-4-2.3A.8.8,0,0,0,228.6,304.7Z"/><path class="cls-21" d="M222.7,308.2l-3.4,2a.3.3,0,0,0,0,.6l3.8,2.3h.9l3.6-1.9c.2-.2.2-.5,0-.6l-4-2.4A.8.8,0,0,0,222.7,308.2Z"/><path class="cls-22" d="M216.8,311.7l-3.4,2a.4.4,0,0,0,0,.7l3.8,2.2a.7.7,0,0,0,.9,0l3.6-1.9c.2-.2.2-.5,0-.6l-4-2.4A.7.7,0,0,0,216.8,311.7Z"/><path class="cls-23" d="M210.9,315.2l-3.4,2c-.3.2-.3.6,0,.7l3.8,2.2a.7.7,0,0,0,.9,0l3.6-1.9a.4.4,0,0,0,0-.6l-4-2.4Z"/><path class="cls-24" d="M205,318.8l-3.4,2a.4.4,0,0,0,0,.6l3.8,2.3a1.4,1.4,0,0,0,.9,0l3.6-2c.2-.1.2-.4,0-.6l-3.9-2.3A.9.9,0,0,0,205,318.8Z"/><path class="cls-25" d="M199.1,322.3l-3.4,2c-.2.1-.2.5,0,.7l3.8,2.2a.7.7,0,0,0,.9,0l3.6-1.9c.3-.2.3-.5,0-.6l-3.9-2.4A.9.9,0,0,0,199.1,322.3Z"/><path class="cls-26" d="M193.3,325.8l-3.5,2a.5.5,0,0,0,0,.7l3.8,2.2a.8.8,0,0,0,.9,0l3.6-1.9a.3.3,0,0,0,0-.6l-3.9-2.4A1.4,1.4,0,0,0,193.3,325.8Z"/><path class="cls-27" d="M187.4,329.3l-3.5,2.1a.4.4,0,0,0,0,.6l3.8,2.3h.9l3.6-2a.3.3,0,0,0,0-.6l-3.9-2.3A1,1,0,0,0,187.4,329.3Z"/><path class="cls-28" d="M181.5,332.9l-3.5,2a.4.4,0,0,0,0,.6l3.9,2.3h.8l3.6-2c.3-.1.3-.4,0-.6l-3.9-2.3A.7.7,0,0,0,181.5,332.9Z"/><path class="cls-29" d="M180.5,338.8l-4-2.4a.7.7,0,0,0-.9,0l-3.5,2a.5.5,0,0,0,0,.7l3.9,2.2a.6.6,0,0,0,.8,0l3.7-1.9C180.7,339.2,180.7,338.9,180.5,338.8Z"/><path class="cls-30" d="M241.1,305l-3.4,2.1a.3.3,0,0,0,0,.6l3.8,2.3a1.1,1.1,0,0,0,.8,0l3.7-2c.1,0,.1-.1.1-.2l5.8-3.3a.4.4,0,0,0,0-.6l-4-2.4a1.4,1.4,0,0,0-.9,0l-5.8,3.5Z"/><path class="cls-31" d="M236.4,313.5l3.7-2c.2-.1.2-.4,0-.6l-4-2.3a.8.8,0,0,0-.9,0l-3.4,2a.3.3,0,0,0,0,.6l3.8,2.3A1.1,1.1,0,0,0,236.4,313.5Z"/><path class="cls-32" d="M230.6,317l3.6-1.9c.2-.2.2-.5,0-.6l-4-2.4a.8.8,0,0,0-.9,0l-3.4,2a.4.4,0,0,0,0,.7l3.8,2.2A.7.7,0,0,0,230.6,317Z"/><path class="cls-33" d="M224.7,320.5l3.6-1.9a.4.4,0,0,0,0-.6l-4-2.4a1.4,1.4,0,0,0-.9,0l-3.4,2a.4.4,0,0,0,0,.7l3.8,2.2A.7.7,0,0,0,224.7,320.5Z"/><path class="cls-34" d="M218.8,324.1l3.6-2c.2-.1.2-.4,0-.6l-4-2.3a.7.7,0,0,0-.9,0l-3.4,2a.3.3,0,0,0,0,.6l3.8,2.3Z"/><path class="cls-35" d="M212.9,327.6l3.6-2c.2-.1.2-.4,0-.6l-3.9-2.3a.9.9,0,0,0-1,0l-3.4,2a.4.4,0,0,0,0,.6l3.8,2.3Z"/><path class="cls-36" d="M207,331.1l3.6-1.9c.2-.2.3-.5,0-.6l-3.9-2.4a.9.9,0,0,0-1,0l-3.4,2a.5.5,0,0,0,0,.7l3.8,2.2A.7.7,0,0,0,207,331.1Z"/><path class="cls-37" d="M201.1,334.6l3.6-1.9a.3.3,0,0,0,0-.6l-3.9-2.4h-.9l-3.5,2c-.2.2-.2.6,0,.7l3.8,2.2A.7.7,0,0,0,201.1,334.6Z"/><path class="cls-38" d="M194,333.3l-3.5,2a.4.4,0,0,0,0,.6l3.8,2.3a1.4,1.4,0,0,0,.9,0l3.6-2c.3-.1.3-.4,0-.6l-3.9-2.3A.7.7,0,0,0,194,333.3Z"/><path class="cls-39" d="M188.4,341.7a.7.7,0,0,0,.9,0l3.6-1.9c.3-.2.3-.5,0-.6l-3.9-2.4a.7.7,0,0,0-.9,0l-3.5,2c-.2.1-.2.5,0,.7Z"/><path class="cls-40" d="M187.1,342.7l-4-2.4a1.4,1.4,0,0,0-.9,0l-3.5,2a.5.5,0,0,0,0,.7l3.9,2.2a.6.6,0,0,0,.8,0l3.6-1.9A.3.3,0,0,0,187.1,342.7Z"/><path class="cls-41" d="M250.2,308.1l3.8,2.2a.6.6,0,0,0,.8,0l3.7-1.9a.4.4,0,0,0,0-.6l-4-2.4h-.9l-3.4,2C249.9,307.6,249.9,308,250.2,308.1Z"/><path class="cls-42" d="M248.9,313.9l3.7-2c.2-.1.2-.4,0-.6l-4-2.3a.7.7,0,0,0-.9,0l-3.4,2a.3.3,0,0,0,0,.6l3.8,2.3A1.1,1.1,0,0,0,248.9,313.9Z"/><path class="cls-43" d="M243,317.4l3.7-1.9c.2-.2.2-.5,0-.6l-4-2.4a.7.7,0,0,0-.9,0l-3.4,2c-.3.1-.3.5,0,.7l3.8,2.2A.6.6,0,0,0,243,317.4Z"/><path class="cls-44" d="M237.2,320.9l3.6-1.9a.4.4,0,0,0,0-.6l-4-2.4a1,1,0,0,0-.9,0l-3.4,2a.4.4,0,0,0,0,.7l3.8,2.2A.8.8,0,0,0,237.2,320.9Z"/><path class="cls-45" d="M231.3,324.5l3.6-2a.4.4,0,0,0,0-.6l-4-2.4a1.4,1.4,0,0,0-.9,0l-3.4,2c-.3.2-.3.6,0,.7l3.8,2.2A1,1,0,0,0,231.3,324.5Z"/><path class="cls-46" d="M225.4,328l3.6-2c.2-.1.2-.4,0-.6l-4-2.3a.7.7,0,0,0-.9,0l-3.4,2a.3.3,0,0,0,0,.6l3.8,2.3A1.4,1.4,0,0,0,225.4,328Z"/><path class="cls-47" d="M219.5,331.5l3.6-1.9c.2-.2.2-.5,0-.6l-3.9-2.4a.9.9,0,0,0-1,0l-3.4,2a.5.5,0,0,0,0,.7l3.8,2.2A.7.7,0,0,0,219.5,331.5Z"/><path class="cls-48" d="M213.6,335l3.6-1.9a.4.4,0,0,0,0-.6l-3.9-2.4a1.7,1.7,0,0,0-1,0l-3.4,2a.5.5,0,0,0,0,.7l3.8,2.2A.7.7,0,0,0,213.6,335Z"/><path class="cls-49" d="M207.7,338.6l3.6-2c.3-.1.3-.4,0-.6l-3.9-2.3a.9.9,0,0,0-1,0l-3.4,2a.4.4,0,0,0,0,.6l3.8,2.3Z"/><path class="cls-50" d="M201.8,342.1l3.6-2c.3-.1.3-.4,0-.6l-3.9-2.3a.7.7,0,0,0-.9,0l-3.5,2a.4.4,0,0,0,0,.6l3.8,2.3Z"/><path class="cls-51" d="M195,345.6a.8.8,0,0,0,.9,0l3.6-1.9c.3-.2.3-.5,0-.6l-3.9-2.4a.7.7,0,0,0-.9,0l-3.5,2a.5.5,0,0,0,0,.7Z"/><path class="cls-52" d="M193.7,346.6l-4-2.4h-.9l-3.5,2a.5.5,0,0,0,0,.7l3.9,2.2a.6.6,0,0,0,.8,0l3.6-1.9A.3.3,0,0,0,193.7,346.6Z"/><path class="cls-53" d="M265.1,311.7l-4-2.3a.8.8,0,0,0-.9,0l-3.4,2a.3.3,0,0,0,0,.6l3.8,2.3h.8l3.7-2C265.3,312.2,265.3,311.9,265.1,311.7Z"/><path class="cls-54" d="M255.2,312.9a.7.7,0,0,0-.9,0l-3.4,2a.3.3,0,0,0,0,.6l3.8,2.3h.8l3.7-2c.2-.1.2-.4,0-.6Z"/><path class="cls-55" d="M249.3,316.4a.8.8,0,0,0-.9,0l-3.4,2a.4.4,0,0,0,0,.7l3.8,2.2a.6.6,0,0,0,.8,0l3.7-1.9c.2-.2.2-.5,0-.6Z"/><path class="cls-56" d="M247.4,322.2l-4-2.4a.8.8,0,0,0-.9,0l-32.9,19.8a.3.3,0,0,0,0,.6l3.8,2.3a1.4,1.4,0,0,0,.9,0l33.1-19.6c.1-.1.1-.2.1-.4A.2.2,0,0,0,247.4,322.2Z"/><path class="cls-57" d="M208.1,341.1a.7.7,0,0,0-.9,0l-3.5,2c-.2.1-.2.5,0,.7l3.8,2.2a.7.7,0,0,0,.9,0l3.6-1.9c.3-.2.3-.5,0-.6Z"/><path class="cls-58" d="M202.2,344.6a1.4,1.4,0,0,0-.9,0l-3.5,2a.5.5,0,0,0,0,.7l3.8,2.2a.8.8,0,0,0,.9,0l3.6-1.9a.3.3,0,0,0,0-.6Z"/><path class="cls-59" d="M196.3,348.2a1,1,0,0,0-.9-.1l-3.5,2.1a.4.4,0,0,0,0,.6l3.9,2.3h.8l3.6-2c.3-.1.3-.4.1-.6Z"/><path class="cls-60" d="M125.3,295.9l26.8,14.4a10.4,10.4,0,0,0,10.5-.3l42.7-25.9c2.4-1.4,3.3-8.9.9-10.2L175.5,262a7.4,7.4,0,0,0-7.5.1l-42.9,26A4.5,4.5,0,0,0,125.3,295.9Z"/><path class="cls-61" d="M125.3,295.3l26.8,14.3a10.6,10.6,0,0,0,10.5-.2l42.7-26c2.4-1.4,3.3-8.8.9-10.2l-30.7-11.9a7.5,7.5,0,0,0-7.5.2l-42.9,26A4.5,4.5,0,0,0,125.3,295.3Z"/><path class="cls-62" d="M125.3,290.9l26.8,14.3a10.6,10.6,0,0,0,10.5-.2l42.7-25.9a3.7,3.7,0,0,0-.1-6.3l-29.7-15.9a7.5,7.5,0,0,0-7.5.2l-42.9,26A4.5,4.5,0,0,0,125.3,290.9Z"/><path class="cls-63" d="M217,100.2,211.3,98h0a4.3,4.3,0,0,0-4.4-.1L74.6,173.4a13.8,13.8,0,0,0-6.9,11.9V315.8a5.9,5.9,0,0,0,3.5,5.4h.5l6.2,2.5,3.5-5.5,125.4-71.5a12.9,12.9,0,0,0,6.4-11.2V106.2Z"/><path class="cls-3" d="M80.9,175.9l132.3-75.5a4.2,4.2,0,0,1,6.3,3.7V238.2a13,13,0,0,1-6.5,11.2L83,323.5a6,6,0,0,1-9-5.2V187.8A13.6,13.6,0,0,1,80.9,175.9Z"/><path class="cls-64" d="M74.6,318.5V188a13.9,13.9,0,0,1,6.9-11.9l132.3-75.4a4.3,4.3,0,0,1,3.3-.4,4.2,4.2,0,0,0-3.9.1L80.9,175.9A13.6,13.6,0,0,0,74,187.8V318.3a5.9,5.9,0,0,0,4.2,5.7A5.9,5.9,0,0,1,74.6,318.5Z"/><path class="cls-65" d="M80,306.3a2.1,2.1,0,0,1-2.1-2.1V187.8a9.8,9.8,0,0,1,4.9-8.5l132.3-75.5h.2a.3.3,0,0,1,.3.3v120a9,9,0,0,1-4.5,7.8L81.1,306A2.3,2.3,0,0,1,80,306.3Z"/><path class="cls-64" d="M162,270.1a8.7,8.7,0,0,1-1.8,4.9,9.1,9.1,0,0,1-3.3,2.9,4.7,4.7,0,0,1-2.4.7c-1.6,0-2.6-1.1-2.6-3s2.3-6.2,5-7.8,3.6-.8,4.5.3A3.2,3.2,0,0,1,162,270.1Z"/><path class="cls-66" d="M91.3,162.2l35.5-20.3a1.2,1.2,0,0,1,1.7,1v34.7a3.4,3.4,0,0,1-1.8,3L91.9,200.5a1.7,1.7,0,0,1-2.5-1.4V165.4A3.5,3.5,0,0,1,91.3,162.2Z"/><path class="cls-67" d="M133.4,145.2l-2.2-1.1h0a1.1,1.1,0,0,0-1.2,0L94.5,164.3a3.8,3.8,0,0,0-1.8,3.2v33.8a1.6,1.6,0,0,0,.9,1.4h0c.1.1.8.5.8.6l1.7.6.9-1.5,33.7-19.2a3.2,3.2,0,0,0,1.7-2.9V146.8Z"/><path class="cls-64" d="M96.9,165.5l35.5-20.3a1.1,1.1,0,0,1,1.7,1v34.7a3.5,3.5,0,0,1-1.7,3L97.5,203.8a1.7,1.7,0,0,1-2.5-1.4V168.7A3.7,3.7,0,0,1,96.9,165.5Z"/><path class="cls-65" d="M126.4,159.2l-23.7,13.1c-.4.2-.8.1-.8-.4h0a2,2,0,0,1,.8-1.4l23.7-13.1c.5-.2.9-.1.9.4h0A1.8,1.8,0,0,1,126.4,159.2Z"/><path class="cls-65" d="M126.4,164.2l-23.7,13.1c-.4.2-.8.1-.8-.4h0a2,2,0,0,1,.8-1.4l23.7-13.1c.5-.2.9-.1.9.4h0A1.8,1.8,0,0,1,126.4,164.2Z"/><path class="cls-65" d="M126.4,169.2l-23.7,13.1c-.4.2-.8,0-.8-.4h0a2,2,0,0,1,.8-1.4l23.7-13.1c.5-.3.9-.1.9.4h0A1.8,1.8,0,0,1,126.4,169.2Z"/><path class="cls-65" d="M126.4,174.1l-23.7,13.1c-.4.3-.8.1-.8-.3h0a2,2,0,0,1,.8-1.4l23.7-13.1c.5-.3.9-.1.9.4h0A1.5,1.5,0,0,1,126.4,174.1Z"/><path class="cls-65" d="M117.2,184.5l-14.5,8.1c-.4.3-.8.1-.8-.3h0a2,2,0,0,1,.8-1.4l14.5-8.1c.5-.3.8-.1.8.4h0A1.4,1.4,0,0,1,117.2,184.5Z"/><path class="cls-68" d="M95.4,202.5V168.8a3.6,3.6,0,0,1,1.8-3.2l35.6-20.3h.7a1.1,1.1,0,0,0-1.1,0L96.9,165.5a3.7,3.7,0,0,0-1.9,3.2v33.7a1.7,1.7,0,0,0,1.4,1.6A1.5,1.5,0,0,1,95.4,202.5Z"/><g class="cls-69"><path class="cls-66" d="M143.2,225.7,177,206.5a1.1,1.1,0,0,1,1.6.9v33a3.4,3.4,0,0,1-1.6,2.9l-33.2,18.9a1.5,1.5,0,0,1-2.3-1.3V228.8A3.8,3.8,0,0,1,143.2,225.7Z"/></g><path class="cls-63" d="M184.4,208.6l-2.1-1h0a1.3,1.3,0,0,0-1.2,0l-33.7,19.2a3.7,3.7,0,0,0-1.8,3.1V262a1.4,1.4,0,0,0,.9,1.3h0l.8.5,1.6.6.9-1.4,32-18.3a3.2,3.2,0,0,0,1.6-2.8V210.1Z"/><path class="cls-70" d="M149.6,227.9l33.8-19.2a1.1,1.1,0,0,1,1.6.9v33a3.4,3.4,0,0,1-1.6,2.9l-33.2,18.9a1.5,1.5,0,0,1-2.3-1.3V231A3.8,3.8,0,0,1,149.6,227.9Z"/><path class="cls-68" d="M148.2,263.2V231.1A3.7,3.7,0,0,1,150,228l33.7-19.2c.3-.1.5-.2.7-.1a.9.9,0,0,0-1,0l-33.8,19.2a3.8,3.8,0,0,0-1.7,3.1v32.1a1.7,1.7,0,0,0,1.3,1.5A1.6,1.6,0,0,1,148.2,263.2Z"/><path class="cls-71" d="M180.2,230c0,3.7-1.7,8-4.4,11.6a24,24,0,0,1-7.6,7,11.9,11.9,0,0,1-5.9,1.6c-3.7,0-6.1-2.6-6.1-7.1,0-6.6,5.3-14.9,12-18.5,4.5-2.5,8.5-2.1,10.5.5A7.9,7.9,0,0,1,180.2,230Z"/><path class="cls-3" d="M180.2,230c0,3.7-1.7,8-4.4,11.6l-7.6-5,10.5-11.5A7.9,7.9,0,0,1,180.2,230Z"/><path class="cls-66" d="M175.8,241.6a24,24,0,0,1-7.6,7,11.9,11.9,0,0,1-5.9,1.6l5.9-13.6Z"/><path class="cls-72" d="M60.2,189.6l-2.2-1h0a1.3,1.3,0,0,0-1.2-.1L21.7,208.6a3.7,3.7,0,0,0-1.9,3.2v33.4a1.7,1.7,0,0,0,.9,1.5h.1l.8.5,1.6.6.9-1.4,33.4-19a3.8,3.8,0,0,0,1.7-3V191.2Z"/><path class="cls-73" d="M24,209.8l35.2-20.1a1.2,1.2,0,0,1,1.7,1v34.4a3.3,3.3,0,0,1-1.8,2.9L24.6,247.7a1.6,1.6,0,0,1-2.4-1.4V212.9A3.5,3.5,0,0,1,24,209.8Z"/><path class="cls-65" d="M53.2,203.5l-23.4,13c-.5.2-.9.1-.9-.4h0a1.5,1.5,0,0,1,.9-1.3l23.4-13c.5-.3.9-.1.9.4h0A1.9,1.9,0,0,1,53.2,203.5Z"/><path class="cls-65" d="M53.2,208.5,29.8,221.4c-.5.3-.9.1-.9-.4h0a1.9,1.9,0,0,1,.9-1.3l23.4-13c.5-.2.9-.1.9.4h0A1.8,1.8,0,0,1,53.2,208.5Z"/><path class="cls-65" d="M53.2,213.4l-23.4,13c-.5.2-.9.1-.9-.4h0a1.8,1.8,0,0,1,.9-1.4l23.4-12.9c.5-.3.9-.1.9.4h0A1.9,1.9,0,0,1,53.2,213.4Z"/><path class="cls-65" d="M53.2,218.3l-23.4,13c-.5.3-.9.1-.9-.4h0a1.9,1.9,0,0,1,.9-1.3l23.4-13c.5-.2.9-.1.9.4h0A1.5,1.5,0,0,1,53.2,218.3Z"/><path class="cls-65" d="M44.1,228.6l-14.3,8.1c-.5.2-.9.1-.9-.4h0a1.8,1.8,0,0,1,.9-1.4l14.3-8c.5-.2.8-.1.8.4h0A1.4,1.4,0,0,1,44.1,228.6Z"/><path class="cls-68" d="M22.5,246.4V213a3.5,3.5,0,0,1,1.8-3.1l35.2-20.1c.3-.1.5-.2.7-.1a.9.9,0,0,0-1,0L24,209.8a3.5,3.5,0,0,0-1.8,3.1v33.4a1.5,1.5,0,0,0,1.3,1.6A1.5,1.5,0,0,1,22.5,246.4Z"/><path class="cls-65" d="M60.2,238.8,58,237.7h0a1.1,1.1,0,0,0-1.2,0l-35.1,20a3.7,3.7,0,0,0-1.9,3.2v33.4a1.7,1.7,0,0,0,.9,1.5h.1l.8.5,1.6.7.9-1.5,33.4-19a3.6,3.6,0,0,0,1.7-3V240.3Z"/><path class="cls-74" d="M24,258.9l35.2-20.1a1.2,1.2,0,0,1,1.7,1v34.4a3.3,3.3,0,0,1-1.8,2.9L24.6,296.9a1.6,1.6,0,0,1-2.4-1.4V262A3.5,3.5,0,0,1,24,258.9Z"/><path class="cls-68" d="M22.5,295.6V262.1a3.5,3.5,0,0,1,1.8-3.1l35.2-20.1c.3-.1.5-.2.7-.1a.9.9,0,0,0-1,0L24,258.9a3.5,3.5,0,0,0-1.8,3.1v33.5a1.5,1.5,0,0,0,1.3,1.5A1.4,1.4,0,0,1,22.5,295.6Z"/><polygon class="cls-65" points="44.2 270.1 59.1 241.6 43.4 266.4 23.1 260.1 44.2 270.1"/><path class="cls-65" d="M262.7,81.6l-2.1-1h0a1.1,1.1,0,0,0-1.1,0l-33.3,19a3.4,3.4,0,0,0-1.7,2.9v31.7a1.4,1.4,0,0,0,.9,1.3h0l.8.5,1.5.7.9-1.4,31.5-18a3.3,3.3,0,0,0,1.6-2.8V83.1Z"/><path class="cls-75" d="M228.5,100.6l33.2-18.9a1.1,1.1,0,0,1,1.6.9v32.5a3.2,3.2,0,0,1-1.6,2.8L229,136.6a1.6,1.6,0,0,1-2.3-1.4V103.6A3.5,3.5,0,0,1,228.5,100.6Z"/><path class="cls-68" d="M227,135.3V103.7a3.5,3.5,0,0,1,1.8-3L262,81.8a1.1,1.1,0,0,1,.7-.2,1.2,1.2,0,0,0-1,.1l-33.2,18.9a3.5,3.5,0,0,0-1.8,3v31.6a1.5,1.5,0,0,0,1.3,1.5A1.4,1.4,0,0,1,227,135.3Z"/><polygon class="cls-65" points="229.3 125.9 229.3 102.5 261.7 84.2 261.7 109.7 254 99.1 244.7 116.7 237.7 112.2 229.3 125.9"/><ellipse class="cls-76" cx="236.5" cy="105" rx="4.5" ry="2.5" transform="translate(10.6 231.3) rotate(-53.2)"/><path class="cls-63" d="M264.9,124l-2.1-1h0a1.1,1.1,0,0,0-1.1,0l-33.2,19a3.4,3.4,0,0,0-1.8,3v31.6a1.7,1.7,0,0,0,.9,1.4h0l.8.5,1.5.6.9-1.4,31.5-18a3.3,3.3,0,0,0,1.7-2.8V125.5Z"/><path class="cls-70" d="M230.7,143.1l33.2-19a1.1,1.1,0,0,1,1.6.9v32.5a3.1,3.1,0,0,1-1.6,2.8L231.2,179a1.5,1.5,0,0,1-2.3-1.3V146A3.3,3.3,0,0,1,230.7,143.1Z"/><path class="cls-77" d="M229.3,177.8V146.1a3.2,3.2,0,0,1,1.7-2.9l33.3-19a.7.7,0,0,1,.6-.1.9.9,0,0,0-1,0l-33.2,19a3.3,3.3,0,0,0-1.8,2.9v31.7a1.5,1.5,0,0,0,1.3,1.4A1.4,1.4,0,0,1,229.3,177.8Z"/><polygon class="cls-65" points="244.1 147.3 244.1 159.3 253.2 148.9 244.1 147.3"/><path class="cls-65" d="M101.3,105.5l-2.2-1h0a1.3,1.3,0,0,0-1.2-.1L62.8,124.5a3.5,3.5,0,0,0-1.8,3.1V161a1.5,1.5,0,0,0,.9,1.4h0l.9.6,1.6.6.9-1.4,33.3-19a3.6,3.6,0,0,0,1.7-3V107.1Z"/><path class="cls-63" d="M65.2,125.6l35.1-20a1.2,1.2,0,0,1,1.7,1v34.3a3.3,3.3,0,0,1-1.8,2.9L65.7,163.5a1.5,1.5,0,0,1-2.3-1.4V128.8A3.6,3.6,0,0,1,65.2,125.6Z"/><path class="cls-68" d="M63.7,162.2V128.9a3.8,3.8,0,0,1,1.8-3.2l35.1-20c.3-.1.5-.2.7-.1a.9.9,0,0,0-1,0l-35.1,20a3.6,3.6,0,0,0-1.8,3.2v33.3a1.6,1.6,0,0,0,1.3,1.6A1.5,1.5,0,0,1,63.7,162.2Z"/><path class="cls-78" d="M67.6,151.9l7-13.7,3.9,3.8,7-16.8,4.6,15.4,7.3-25.1"/><path class="cls-65" d="M150.3,77.8l-2.3-1h0a.9.9,0,0,0-1.1-.1L111.8,96.8a3.5,3.5,0,0,0-1.8,3.1v33.4a1.6,1.6,0,0,0,.9,1.4h0l.8.5,1.6.7,1-1.5,33.2-18.9a3.5,3.5,0,0,0,1.8-3V79.4Z"/><path class="cls-79" d="M114.1,97.9l35.1-20a1.1,1.1,0,0,1,1.7.9v34.4a3.2,3.2,0,0,1-1.7,2.9l-34.5,19.7a1.6,1.6,0,0,1-2.4-1.4V101A3.5,3.5,0,0,1,114.1,97.9Z"/><path class="cls-68" d="M112.7,134.5V101.1a3.5,3.5,0,0,1,1.8-3.1l35.1-20a1,1,0,0,1,.7-.2,1.4,1.4,0,0,0-1.1.1l-35.1,20a3.5,3.5,0,0,0-1.8,3.1v33.4a1.7,1.7,0,0,0,1.3,1.6A1.7,1.7,0,0,1,112.7,134.5Z"/><g class="cls-80"><path class="cls-65" d="M124.1,120.9l-1.1.6c-.6.3-1,.1-1-.5v-3.1a1.9,1.9,0,0,1,1-1.6l1.1-.6c.5-.3,1-.1,1,.5v3.1A2.3,2.3,0,0,1,124.1,120.9Z"/><path class="cls-65" d="M130,117.6l-1.1.6c-.6.3-1.1.1-1.1-.4V109a2,2,0,0,1,1.1-1.5l1.1-.6c.5-.4,1-.2,1,.4V116A2.1,2.1,0,0,1,130,117.6Z"/><path class="cls-65" d="M135.9,114.4l-1.2.6c-.5.3-1,.1-1-.5V97.1a2.1,2.1,0,0,1,1-1.6l1.2-.6c.5-.3,1-.1,1,.4v17.5A2.3,2.3,0,0,1,135.9,114.4Z"/><path class="cls-65" d="M141.7,111.1l-1.1.6c-.5.3-1,.1-1-.4V97.9a2.2,2.2,0,0,1,1-1.5l1.1-.7c.6-.3,1.1-.1,1.1.5v13.3A2,2,0,0,1,141.7,111.1Z"/></g><g class="cls-80"><path class="cls-65" d="M127.5,96.5l-9.9,5.5c-.2.1-.3,0-.3-.2h0a.7.7,0,0,1,.3-.6l9.9-5.4c.2-.1.3-.1.3.1h0A.7.7,0,0,1,127.5,96.5Z"/><path class="cls-65" d="M127.5,98.6l-9.9,5.4c-.2.1-.3.1-.3-.1h0a.7.7,0,0,1,.3-.6l9.9-5.4c.2-.2.3-.1.3.1h0A.7.7,0,0,1,127.5,98.6Z"/><path class="cls-65" d="M127.5,100.7l-9.9,5.4c-.2.1-.3.1-.3-.1h0a.7.7,0,0,1,.3-.6l9.9-5.5c.2-.1.3,0,.3.2h0A.7.7,0,0,1,127.5,100.7Z"/><path class="cls-65" d="M127.5,102.7l-9.9,5.5c-.2.1-.3,0-.3-.2h0a.5.5,0,0,1,.3-.5l9.9-5.5c.2-.1.3,0,.3.2h0A.5.5,0,0,1,127.5,102.7Z"/><path class="cls-65" d="M123.6,107.1l-6,3.3c-.2.2-.3.1-.3-.1h0a.7.7,0,0,1,.3-.6l6-3.4c.2-.1.4,0,.4.2h0A.8.8,0,0,1,123.6,107.1Z"/></g><path class="cls-66" d="M153.2,143.6l51.1-29.1a1.3,1.3,0,0,1,2,1.1v55.2a4.2,4.2,0,0,1-2,3.5L153.9,203a1.9,1.9,0,0,1-2.8-1.6V147.3A4.1,4.1,0,0,1,153.2,143.6Z"/><path class="cls-81" d="M213.2,118l-2.6-1.2h0a1,1,0,0,0-1.3,0l-51.1,29.1a4.2,4.2,0,0,0-2.2,3.7v54.1a2,2,0,0,0,1.1,1.7h0l1,.6,1.9.8,1.1-1.8,49-27.9a4,4,0,0,0,2-3.4V119.9Z"/><path class="cls-82" d="M160.9,147.2,212,118.1a1.3,1.3,0,0,1,2,1.1v55.2a4,4,0,0,1-2,3.5l-50.4,28.7a1.9,1.9,0,0,1-2.8-1.6V150.9A4.4,4.4,0,0,1,160.9,147.2Z"/><path class="cls-65" d="M159,205.1V151a4.1,4.1,0,0,1,2.2-3.7l51.1-29.1a1.5,1.5,0,0,1,.9-.2,1.7,1.7,0,0,0-1.2.1l-51.1,29.1a4.4,4.4,0,0,0-2.1,3.7V205a1.9,1.9,0,0,0,1.5,1.8A1.8,1.8,0,0,1,159,205.1Z"/><path class="cls-78" d="M162.7,189.8s5-22,10-23.3,6,3.4,9,3.2,6.3-29.2,9.9-28.8,3,19.5,7.4,18.4,4.1-18.8,12.1-18.4"/><g class="cls-80"><path class="cls-65" d="M208.5,164.6l-10,5.5c-.2.1-.4,0-.4-.2h0a.7.7,0,0,1,.4-.5l10-5.6c.2-.1.3,0,.3.2h0A.7.7,0,0,1,208.5,164.6Z"/><path class="cls-65" d="M208.5,166.7l-10,5.5c-.2.1-.4,0-.4-.2h0a.7.7,0,0,1,.4-.5l10-5.6c.2-.1.3,0,.3.2h0A.7.7,0,0,1,208.5,166.7Z"/><path class="cls-65" d="M208.5,168.8l-10,5.5c-.2.1-.4.1-.4-.1h0a.8.8,0,0,1,.4-.6l10-5.5c.2-.2.3-.1.3.1h0A.7.7,0,0,1,208.5,168.8Z"/><path class="cls-65" d="M208.5,170.9l-10,5.5c-.2.1-.4.1-.4-.1h0a.8.8,0,0,1,.4-.6l10-5.5c.2-.2.3-.1.3.1h0A.7.7,0,0,1,208.5,170.9Z"/><path class="cls-65" d="M204.6,175.3l-6.1,3.4c-.2.1-.4,0-.4-.2h0a.7.7,0,0,1,.4-.5l6.1-3.4c.2-.2.3-.1.3.1h0A.7.7,0,0,1,204.6,175.3Z"/></g><polygon class="cls-63" points="75.8 226.7 79.2 224.9 81.2 224.9 120.4 377.9 118.2 377.9 75.8 226.7"/><polygon class="cls-3" points="77.9 226.7 81.2 224.9 123.7 376.3 120.2 377.9 77.9 226.7"/><polygon class="cls-63" points="109 207.7 112.3 205.9 114.4 205.9 153.6 358.8 151.3 358.8 109 207.7"/><polygon class="cls-3" points="111 207.7 114.4 205.9 156.8 357.3 153.4 358.8 111 207.7"/><polygon class="cls-63" points="120.6 365.5 150.4 348.2 149.6 345.5 119.9 362.8 120.6 365.5"/><polygon class="cls-3" points="149.6 345.5 147.6 345.5 119.5 361.5 119.9 362.8 149.6 345.5"/><polygon class="cls-63" points="116.6 350.8 146.4 333.6 145.6 330.9 115.9 348.1 116.6 350.8"/><polygon class="cls-3" points="145.6 330.9 143.6 330.9 115.5 346.8 115.9 348.1 145.6 330.9"/><polygon class="cls-63" points="112.6 336.2 142.3 318.9 141.6 316.2 111.8 333.5 112.6 336.2"/><polygon class="cls-3" points="141.6 316.2 139.5 316.2 111.5 332.2 111.8 333.5 141.6 316.2"/><polygon class="cls-63" points="108.6 321.5 138.3 304.3 137.6 301.6 107.8 318.8 108.6 321.5"/><polygon class="cls-3" points="137.6 301.6 135.5 301.6 107.4 317.5 107.8 318.8 137.6 301.6"/><polygon class="cls-63" points="104.5 306.9 134.3 289.6 133.5 286.9 103.8 304.2 104.5 306.9"/><polygon class="cls-3" points="133.5 286.9 131.5 286.9 103.4 302.9 103.8 304.2 133.5 286.9"/><polygon class="cls-63" points="100.5 292.2 130.3 275 129.5 272.3 99.7 289.5 100.5 292.2"/><polygon class="cls-3" points="129.5 272.3 127.4 272.3 99.4 288.2 99.7 289.5 129.5 272.3"/><polygon class="cls-63" points="96.5 277.6 126.2 260.3 125.5 257.6 95.7 274.9 96.5 277.6"/><polygon class="cls-3" points="125.5 257.6 123.4 257.6 95.4 273.6 95.7 274.9 125.5 257.6"/><polygon class="cls-63" points="92.4 262.9 122.2 245.7 121.5 243 91.7 260.2 92.4 262.9"/><polygon class="cls-3" points="121.5 243 119.4 243 91.3 258.9 91.7 260.2 121.5 243"/><polygon class="cls-63" points="88.4 248.3 118.2 231 117.4 228.3 87.7 245.6 88.4 248.3"/><polygon class="cls-3" points="117.4 228.3 115.4 228.3 87.3 244.3 87.7 245.6 117.4 228.3"/><polygon class="cls-63" points="84.4 233.6 114.2 216.4 113.4 213.7 83.6 230.9 84.4 233.6"/><polygon class="cls-3" points="113.4 213.7 111.3 213.7 83.3 229.6 83.6 230.9 113.4 213.7"/><path class="cls-83" d="M136.1,314.7s-2.3,1.9-3.2,1.9-4,.2-3.5,1.9,6,.8,7.3,2,3.1.5,5.2,0,1.7-1.8,1.4-3.1a16.9,16.9,0,0,0-2.4-3.9Z"/><path class="cls-83" d="M119.1,308.6s-5.2-1.8-6-1.4-4.8,1.9.6,4.4,6.9,3.1,8.6,3.1a6.5,6.5,0,0,0,4.2-2.3c.2-.4-1.3-5.2-1.3-5.2Z"/><path class="cls-84" d="M139.8,260s.6,1.3,0,5.6.9,26,.9,26a94.9,94.9,0,0,1,1.2,11.4,59.5,59.5,0,0,1-.8,11.8s-.3,1.3-2.6,1.1-2.9-.8-2.9-.8a171.1,171.1,0,0,0-5.2-22.3c-1.5-4.6-3.9-27.3-3.9-27.3S134.8,266.7,139.8,260Z"/><path class="cls-84" d="M118.3,261.9s-7.1,20.5-7.3,22.5,3.5,7.6,4.6,12.1,2.7,13.2,2.7,13.2.6,1,3.3,1a2.5,2.5,0,0,0,2.8-2.1,51.8,51.8,0,0,0-.3-13.1,24.2,24.2,0,0,0-4.5-10.6s8.3-6.9,11.9-13.8,2.9-9.2,2.9-9.2Z"/><path class="cls-83" d="M124.8,222.3s-6.6,2.9-7.3,3.6-.7,2.5-.7,2.5-1.9,1-2.9.6-6.6-5.2-6.6-5.2a6,6,0,0,0-3.3,1.9,8.2,8.2,0,0,0-1.6,4.5s12.3,7.8,12.6,9,3.6,23,3.6,23,1.8,3.9,10.9,3.8,10.3-6.8,10.3-6.8-4.5-32.3-4.6-34.6-3.6-11.2-3.6-11.2a3.7,3.7,0,0,0-3.5-.6c-2.1.6-2.3,1.3-2.3,1.3s1.9,7.1,1.4,8.2S124.9,223.1,124.8,222.3Z"/><path class="cls-85" d="M126.6,213.4s-4-14.4-4.5-15.1l-2.4-2.1,1.5-.9s1.5.1,1.5-.3-1.1-6.1-.1-6.5,2.5,2.1,2.8,3.7a17.5,17.5,0,0,0,.8,4.1l5.4,17.1A4.7,4.7,0,0,0,126.6,213.4Z"/><path class="cls-86" d="M106.2,224.1s-1.8-2.3-1.6-3.4-1.9-11.2-1.5-11.5.6-2.2.9-2.9a1.6,1.6,0,0,0,0-1.3s-1.1,1.5-1.6.8-2.5-6-3.8-6-2,2.3-.6,6.4,1,7.3.6,11.6.2,7,1.4,8.5a8.3,8.3,0,0,0,2.6,2.4A14.2,14.2,0,0,1,106.2,224.1Z"/><path class="cls-87" d="M115.2,212.6a24.9,24.9,0,0,0-1,3.2,4.2,4.2,0,0,0,.2,1.1,4.3,4.3,0,0,0-.4,1.7,10.3,10.3,0,0,0,1.4,4.4c.2.2,1.2.5,2.1,1.1a2.1,2.1,0,0,1,.9,1.2l6.4-3V217s-2.8-4.4-5.1-4.6A14.5,14.5,0,0,0,115.2,212.6Z"/><path class="cls-84" d="M113,208.9a3.6,3.6,0,0,0,1,2.9c1.1,1.4,2.9,2.1,2.9,3s-.3,3.1,0,3.4,1.2-2.3,1.9-1.8.4,1.4.9,2.4,3.3,2.1,5.1.6,2.9-4.2,2.5-5.5a23.1,23.1,0,0,0-.7-2.4,3.3,3.3,0,0,0-1.5-3.4c-2-1.4-6.3.4-8.2-.1S113.3,208.1,113,208.9Z"/><polyline class="cls-88" points="254.9 264.2 230.1 277.1 283 303.2 309.9 287.9 254.3 262.9"/><path class="cls-89" d="M262.9,201.6s-12.7-4.6-16-5.3-3.8,2.4-2.1,11.3,5.6,28.8,5.6,28.8a3.5,3.5,0,0,1,1.9-2.6,6.1,6.1,0,0,1,3.2-1l-3.4-19.5s18.1,3.5,17.9-1.9S262.9,201.6,262.9,201.6Z"/><path class="cls-90" d="M256.1,231.2s-2.8.3-3.8,2a12.2,12.2,0,0,0-1.2,2.2s-.4,4.7-.6,6.2-1.2,5-.3,5,5.8-6.8,7.1-8.4S259.1,232,256.1,231.2Z"/><path class="cls-91" d="M257.6,233c-1.4-.4-3.2.7-4.9,5.2s-3.8,7.5-2.2,8.4,3,1.5,5.5-4S259.3,233.5,257.6,233Z"/><path class="cls-92" d="M246.1,236s-2.8.4-3.8,2.1a10.7,10.7,0,0,0-1.2,2.1s-.4,4.8-.6,6.2-1.2,5-.3,5,5.8-6.8,7.1-8.4S249.1,236.8,246.1,236Z"/><path class="cls-93" d="M247.6,237.8c-1.4-.4-3.2.7-4.9,5.3s-3.8,7.5-2.2,8.3,3,1.6,5.5-3.9S249.3,238.3,247.6,237.8Z"/><path class="cls-94" d="M304.6,277.4l3.3,11.1,2-.6-16.7-56.1-1.9.6,2.8,9.4-20.9,11.6L271.1,243l-2,.4,12.2,58.1,2-.4-2.4-11.2.3.5Zm-3.9-13.2-22.6,12.6-2-9.6L298,255Zm-6-20.4,2.7,9.2-21.7,12.1-2-9.6Zm-16.1,35,22.7-12.6,2.7,9.2-23.4,13.1Z"/><path class="cls-91" d="M266.5,233.7l6.2-16.5-1.9-.8-6.4,17.1L247,242.9l4.5-10.4-1.8-.8-19.6,45.4,1.9.8,5.2-12.1L256,255.5l-3,8,1.9.7L266,234.9l.9-.5Zm-9.6,19-18.4,10,3-6.9,18.2-9.9L257,253Zm3.9-9.7-18,9.8,3-7.1h.1l17.4-9.4Z"/><path class="cls-95" d="M293.4,228.8h-4.1l-16.7-9.2a3.3,3.3,0,0,0-3.2.1l-14.9,9.1-4.3,1.2v2.8h0a2.1,2.1,0,0,0,1,1.3l18.7,10.3a4.8,4.8,0,0,0,4.5-.1l18.2-11.1.4-.4.4-.6Z"/><path class="cls-96" d="M251.2,231.7l18.7,10.2a4.3,4.3,0,0,0,4.5-.1l18.2-11a1.6,1.6,0,0,0,0-2.7l-20-10.9a3.1,3.1,0,0,0-3.2.1l-18.3,11.1A1.9,1.9,0,0,0,251.2,231.7Z"/><path class="cls-97" d="M255,162.6s-.7,2.5-.4,3,1.4,4.7,1.6,5.3,2.7-.3,3,.2l1.3,2.9,6.3-1.5-4-10.7Z"/><path class="cls-63" d="M277.5,208.8s4,6.8,0,9.8-6.4,2.1-8.8,3.8-4.6,2.9-7.9,2.2-14.9-7.6-15.7-7.8,1,19.2,1,19.2-1,0-3,1.5-1.9,2.3-1.9,2.3-5.2-17.2-5.8-25.7-.3-13,5.6-11.5,18.5,6.4,18.5,6.4Z"/><path class="cls-98" d="M230.3,200.4l12,6.4a4.7,4.7,0,0,0,4.7-.1l19-11.5a1.6,1.6,0,0,0,0-2.8l-13.3-7.1a3,3,0,0,0-3.3.1L230.2,197A2,2,0,0,0,230.3,200.4Z"/><path class="cls-99" d="M226.9,174.7,249.2,162c.4-.2,2.1.2,2.1.7l-1.2,19.6a1.7,1.7,0,0,1-.9,1.5l-21,13.1c-.6.3-2.2-.6-2.2-1.3V176.3A1.9,1.9,0,0,1,226.9,174.7Z"/><path class="cls-100" d="M230.3,199.5l12,6.4a4.9,4.9,0,0,0,4.7-.1l19-11.6a1.6,1.6,0,0,0,0-2.8l-13.3-7.1a3.3,3.3,0,0,0-3.3.1L230.2,196A2.1,2.1,0,0,0,230.3,199.5Z"/><path class="cls-101" d="M228.3,175.2l22.2-12.7a.6.6,0,0,1,.9.5v19.8a1.6,1.6,0,0,1-.9,1.5l-21.9,12.5a.8.8,0,0,1-1.3-.7V176.8A1.8,1.8,0,0,1,228.3,175.2Z"/><path class="cls-65" d="M228.3,176.8a1.2,1.2,0,0,1,.4-.8l21.8-12.4v19.2a.8.8,0,0,1-.4.7l-21.8,12.4Z"/><path class="cls-102" d="M234.7,197.9,239,200a3.8,3.8,0,0,0,3.7-.1l15-9.1a1.3,1.3,0,0,0,0-2.2l-5.3-2.6a2.6,2.6,0,0,0-2.7,0l-15.1,9.2A1.6,1.6,0,0,0,234.7,197.9Z"/><path class="cls-65" d="M262.8,172.8s-7.8,2.1-9,4.2,2.2,33.3,2.2,33.3,1.6,4.4,10.2,3.8,12.1-6.2,12.1-6.2-2.6-7.3-1.7-13.6,3.3-12.7,1.7-18.6-3.6-5.4-6.8-5.1A59,59,0,0,0,262.8,172.8Z"/><path class="cls-65" d="M254.8,176.1c3.1-.4,6,2,2.7,11.8s-3.6,14.7-5.6,14.7-11.9-3.4-11.9-3.4-.2-2.7,1.1-3.6a5.2,5.2,0,0,1,2.7-.7s3.9.8,4.6-.6S251.1,176.5,254.8,176.1Z"/><path class="cls-63" d="M253.6,154.9c-2,3.1-2.1,6.4-.2,8.2a13.6,13.6,0,0,0,3.7,2.4s.7-2.7,2.2-2.2-.9,5.4,1.9,6.9,3.7,2.9,1.9,6.3-1.5,8.9,6.4,10.2,13.9-2.8,15.9-8a8.8,8.8,0,0,0-4.6-11.4c-3.6-1.3-8.4-2.1-8.7-6.3s-.8-7.3-5.3-9S255.6,151.7,253.6,154.9Z"/><path class="cls-103" d="M240,198.7s-1.4-.2-1.6-2.3-2.1-1.2-2.8-1.8,1.2-1.9,3-1.9,4.5,2.3,4.5,2.3S240.5,195.2,240,198.7Z"/><path class="cls-63" d="M425.7,312l-61.8-40.3a4.3,4.3,0,0,1-2.2-3.8l-4.3-139.4c0-2.8,7.4-5.9,9.8-4.4l62.9,36.5a8.2,8.2,0,0,1,4,7V306C434.1,308.9,428.2,313.5,425.7,312Z"/><path class="cls-65" d="M424,311.5l-64.6-37.6a4.1,4.1,0,0,1-2.2-3.7V129.5a3.7,3.7,0,0,1,5.5-3.2l62.9,36.6a8.1,8.1,0,0,1,4,7V308.3A3.7,3.7,0,0,1,424,311.5Z"/><path class="cls-104" d="M361.3,270.6a.8.8,0,0,1-.2-.4V129.9l62.5,36.4a4.1,4.1,0,0,1,2.1,3.6V308Z"/><path class="cls-64" d="M425.6,162.9l-62.9-36.6a3.5,3.5,0,0,0-3.3-.1,3.4,3.4,0,0,1,2.9.3l62.9,36.6a8,8,0,0,1,4,7V308.4a3.5,3.5,0,0,1-2.2,3.4,3.6,3.6,0,0,0,2.6-3.5V169.9A8.1,8.1,0,0,0,425.6,162.9Z"/><path class="cls-105" d="M464.1,355.1l-39.5,21.1a15.2,15.2,0,0,1-15.3-.4l-91.2-55.6a5.3,5.3,0,0,1,.2-9.2l43.6-23.3a11.3,11.3,0,0,1,11.1.2l91.3,55.7A6.7,6.7,0,0,1,464.1,355.1Z"/><path class="cls-3" d="M431.4,351.2l-39.5,21.1a15.5,15.5,0,0,1-15.3-.3l-91.2-55.7c-3.5-2.1-4.8-13-1.3-14.9l45.1-17.6a11.3,11.3,0,0,1,11.1.2l91.3,55.8A6.6,6.6,0,0,1,431.4,351.2Z"/><path class="cls-106" d="M431.4,350.2l-39.5,21.1a15.5,15.5,0,0,1-15.3-.3l-91.2-55.7c-3.5-2.1-4.8-13-1.3-14.9l45.1-17.6a11.3,11.3,0,0,1,11.1.2l91.3,55.8A6.6,6.6,0,0,1,431.4,350.2Z"/><path class="cls-107" d="M431.4,343.8l-39.5,21.1a15.5,15.5,0,0,1-15.3-.3l-91.2-55.7a5.2,5.2,0,0,1,.2-9.1l43.6-23.4a11.3,11.3,0,0,1,11.1.2l91.3,55.8A6.6,6.6,0,0,1,431.4,343.8Z"/><path class="cls-108" d="M366.3,379.3l-23.6,12.6a9.5,9.5,0,0,1-9.1-.2L294,367.6a3.2,3.2,0,0,1,.2-5.5l26-13.9a6.5,6.5,0,0,1,6.6.1l39.7,24.1A4,4,0,0,1,366.3,379.3Z"/><path class="cls-3" d="M348.9,379.3l-23.6,12.6a9.5,9.5,0,0,1-9.1-.2l-39.6-24.1c-2.1-1.3-2.8-7.8-.7-9l26.9-10.4a6.5,6.5,0,0,1,6.6.1L349,372.4A4,4,0,0,1,348.9,379.3Z"/><path class="cls-109" d="M348.9,378.7l-23.6,12.6a9.2,9.2,0,0,1-9.1-.2L276.6,367c-2.1-1.3-2.8-7.8-.7-8.9l26.9-10.5a6.5,6.5,0,0,1,6.6.1L349,371.8A4,4,0,0,1,348.9,378.7Z"/><path class="cls-110" d="M348.9,374.9l-23.6,12.5a9,9,0,0,1-9.1-.2l-39.6-24a3.2,3.2,0,0,1,.1-5.5l26.1-14a6.7,6.7,0,0,1,6.6.2L349,368A4,4,0,0,1,348.9,374.9Z"/><path class="cls-65" d="M314.1,354.5l-15.9,8.7a2.5,2.5,0,0,1-2-.3h0c-.6-.4-.8-.9-.3-1.2l15.9-8.6a2.1,2.1,0,0,1,2,.2h0C314.5,353.7,314.6,354.2,314.1,354.5Z"/><path class="cls-65" d="M320,358.2l-19,10.3a2.3,2.3,0,0,1-2.1-.2h0c-.6-.4-.7-.9-.2-1.2l19-10.4a2.5,2.5,0,0,1,2,.3h0C320.3,357.4,320.5,357.9,320,358.2Z"/><path class="cls-65" d="M325.8,361.8l-19,10.4a2.1,2.1,0,0,1-2-.2h0c-.6-.4-.8-1-.3-1.2l19-10.4a2.3,2.3,0,0,1,2.1.2h0C326.2,361,326.3,361.6,325.8,361.8Z"/><path class="cls-65" d="M327.2,368l-14.5,7.9a2.5,2.5,0,0,1-2-.3h0c-.7-.4-.8-.9-.3-1.2l14.5-7.8a2.1,2.1,0,0,1,2,.2h0C327.5,367.2,327.6,367.7,327.2,368Z"/><path class="cls-111" d="M307.9,411.5a3.3,3.3,0,0,1-1.5,1.6l-23.6,12.6a9.2,9.2,0,0,1-9.2-.2L239,404.4l-4.9-3a3.2,3.2,0,0,1,0-5.4.1.1,0,0,0,.1-.1l1.6-.8L260.3,382a6.7,6.7,0,0,1,6.6.1l6.6,4,33,20.1A4,4,0,0,1,307.9,411.5Z"/><path class="cls-3" d="M288.9,413.1l-23.5,12.6a9.2,9.2,0,0,1-9.2-.2l-39.5-24.1c-2.1-1.2-2.9-7.8-.8-8.9l27-10.5a6.7,6.7,0,0,1,6.6.1l39.6,24.1A4,4,0,0,1,288.9,413.1Z"/><path class="cls-112" d="M288.9,412.5l-23.5,12.6a9.2,9.2,0,0,1-9.2-.2l-34.7-21.1-4.8-3c-2.1-1.2-2.9-7.7-.8-8.9l.8-.3,1.8-.7,24.4-9.5a6.7,6.7,0,0,1,6.6.1l39.6,24.2a3.8,3.8,0,0,1,1.4,1.4A3.9,3.9,0,0,1,288.9,412.5Z"/><path class="cls-113" d="M290.5,407.1a3.5,3.5,0,0,1-1.6,1.6l-23.5,12.6a9.4,9.4,0,0,1-9.2-.2L221.5,400l-4.8-3a3.1,3.1,0,0,1,0-5.4.1.1,0,0,1,.1-.1l1.6-.9,24.5-13a6.5,6.5,0,0,1,6.6.1l6.5,4,33.1,20.1A4,4,0,0,1,290.5,407.1Z"/><path class="cls-3" d="M256,381.7,221.5,400l-4.8-3a3.2,3.2,0,0,1,.1-5.5l26.1-13.9a6.5,6.5,0,0,1,6.6.1Z"/><path class="cls-3" d="M221.5,400v3.8l-4.8-3c-2.1-1.2-2.9-7.7-.8-8.9l.8-.3a3.1,3.1,0,0,0,0,5.4Z"/><polygon class="cls-3" points="232.5 400.8 236.8 398.5 233.3 396.4 229 398.6 232.5 400.8"/><polygon class="cls-3" points="238.3 398 242.6 395.7 239.1 393.6 234.8 395.9 238.3 398"/><polygon class="cls-3" points="244 395.2 248.4 392.9 244.9 390.8 240.6 393.1 244 395.2"/><polygon class="cls-3" points="249.8 392.4 254.1 390.1 250.7 388 246.4 390.3 249.8 392.4"/><polygon class="cls-3" points="255.6 389.6 259.9 387.3 256.5 385.2 252.1 387.5 255.6 389.6"/><polygon class="cls-3" points="238.3 404.4 242.6 402.1 239.1 400 234.8 402.3 238.3 404.4"/><polygon class="cls-3" points="244 401.6 248.4 399.3 244.9 397.2 240.6 399.5 244 401.6"/><polygon class="cls-3" points="249.8 398.8 254.1 396.5 250.7 394.4 246.4 396.7 249.8 398.8"/><polygon class="cls-3" points="255.6 396 259.9 393.8 256.5 391.6 252.1 393.9 255.6 396"/><polygon class="cls-3" points="261.4 393.3 265.7 391 262.3 388.8 257.9 391.1 261.4 393.3"/><polygon class="cls-3" points="244 408.1 248.4 405.8 244.9 403.6 240.6 405.9 244 408.1"/><polygon class="cls-3" points="249.8 405.3 254.1 403 250.7 400.8 246.4 403.1 249.8 405.3"/><polygon class="cls-3" points="255.6 402.5 259.9 400.2 256.5 398.1 252.1 400.3 255.6 402.5"/><polygon class="cls-3" points="261.4 399.7 265.7 397.4 262.3 395.3 257.9 397.6 261.4 399.7"/><polygon class="cls-3" points="267.2 396.9 271.5 394.6 268 392.5 263.7 394.8 267.2 396.9"/><polygon class="cls-3" points="249.8 411.7 254.1 409.4 250.7 407.3 246.4 409.6 249.8 411.7"/><polygon class="cls-3" points="255.6 408.9 259.9 406.6 256.5 404.5 252.1 406.8 255.6 408.9"/><polygon class="cls-3" points="261.4 406.1 265.7 403.8 262.3 401.7 257.9 404 261.4 406.1"/><polygon class="cls-3" points="267.2 403.3 271.5 401 268 398.9 263.7 401.2 267.2 403.3"/><polygon class="cls-3" points="273 400.5 277.3 398.2 273.8 396.1 269.5 398.4 273 400.5"/><polygon class="cls-3" points="255.6 415.3 259.9 413 256.5 410.9 252.1 413.2 255.6 415.3"/><polygon class="cls-3" points="261.4 412.5 265.7 410.3 262.3 408.1 257.9 410.4 261.4 412.5"/><polygon class="cls-3" points="267.2 409.8 271.5 407.5 268 405.3 263.7 407.6 267.2 409.8"/><polygon class="cls-3" points="273 407 277.3 404.7 273.8 402.5 269.5 404.8 273 407"/><polygon class="cls-3" points="278.7 404.2 283.1 401.9 279.6 399.8 275.3 402 278.7 404.2"/><path class="cls-3" d="M439.4,173.2l2.3-1.1h0a.9.9,0,0,1,1.1,0l35.5,20.2a3.7,3.7,0,0,1,1.9,3.2v77.7a1.7,1.7,0,0,1-.9,1.5h-.1l-.8.5-1.6.7-1-1.5-33.6-19.2a3.4,3.4,0,0,1-1.8-3V174.8Z"/><path class="cls-63" d="M476,193.5l-35.6-20.3a1.1,1.1,0,0,0-1.6,1v78.7a3.4,3.4,0,0,0,1.7,3l34.9,19.9a1.6,1.6,0,0,0,2.4-1.4V196.7A3.6,3.6,0,0,0,476,193.5Z"/><path class="cls-65" d="M446.4,187.2l23.7,13.1c.5.2.9.1.9-.4h0a1.8,1.8,0,0,0-.9-1.4l-23.7-13.1c-.4-.2-.8-.1-.8.4h0A2,2,0,0,0,446.4,187.2Z"/><path class="cls-65" d="M446.4,192.2l23.7,13.1c.5.2.9.1.9-.4h0a1.8,1.8,0,0,0-.9-1.4l-23.7-13.1c-.4-.2-.8-.1-.8.4h0A2,2,0,0,0,446.4,192.2Z"/><path class="cls-65" d="M446.4,197.2l23.7,13.1c.5.2.9,0,.9-.4h0a1.8,1.8,0,0,0-.9-1.4l-23.7-13.1c-.4-.2-.8-.1-.8.4h0A2,2,0,0,0,446.4,197.2Z"/><path class="cls-65" d="M446.4,202.1l23.7,13.1c.5.3.9.1.9-.3h0a1.8,1.8,0,0,0-.9-1.4l-23.7-13.1a.5.5,0,0,0-.8.4h0A1.7,1.7,0,0,0,446.4,202.1Z"/><path class="cls-65" d="M446.4,208.9l14.5,8.1c.5.3.9.1.9-.4h0a1.8,1.8,0,0,0-.9-1.4l-14.5-8.1c-.4-.2-.8,0-.8.4h0A2,2,0,0,0,446.4,208.9Z"/><path class="cls-65" d="M446.4,221.6l23.7,13c.5.3.9.1.9-.3h0a1.8,1.8,0,0,0-.9-1.4l-23.7-13.1a.5.5,0,0,0-.8.4h0A2,2,0,0,0,446.4,221.6Z"/><path class="cls-65" d="M446.4,226.5l23.7,13.1c.5.3.9.1.9-.3h0a1.8,1.8,0,0,0-.9-1.4l-23.7-13.1a.5.5,0,0,0-.8.4h0A1.7,1.7,0,0,0,446.4,226.5Z"/><path class="cls-65" d="M446.4,231.5l23.7,13.1c.5.3.9.1.9-.4h0a1.9,1.9,0,0,0-.9-1.3l-23.7-13.1a.5.5,0,0,0-.8.4h0A1.7,1.7,0,0,0,446.4,231.5Z"/><path class="cls-65" d="M446.4,236.5l23.7,13.1c.5.3.9.1.9-.4h0a1.7,1.7,0,0,0-.9-1.3l-23.7-13.1a.5.5,0,0,0-.8.4h0A1.7,1.7,0,0,0,446.4,236.5Z"/><path class="cls-65" d="M446.4,243.3l14.5,8.1c.5.2.9.1.9-.4h0a1.8,1.8,0,0,0-.9-1.4l-14.5-8.1c-.4-.2-.8-.1-.8.4h0A2,2,0,0,0,446.4,243.3Z"/><path class="cls-68" d="M477.5,274.5V196.8a3.6,3.6,0,0,0-1.9-3.2l-35.5-20.3h-.7a.9.9,0,0,1,1,0L476,193.5a3.6,3.6,0,0,1,1.8,3.2v77.7a1.7,1.7,0,0,1-1.3,1.6A1.8,1.8,0,0,0,477.5,274.5Z"/><path class="cls-3" d="M368,74.4l2.2-1h0a1.3,1.3,0,0,1,1.2-.1L433,108.6a3.8,3.8,0,0,1,1.8,3.2v33.4a1.7,1.7,0,0,1-.9,1.5h0l-.8.5-1.7.7-.9-1.5-59.8-34.3a3.4,3.4,0,0,1-1.7-2.9V76Z"/><path class="cls-63" d="M430.6,109.8,369,74.5a1.1,1.1,0,0,0-1.7.9v34.4a3.4,3.4,0,0,0,1.8,3l61,35a1.6,1.6,0,0,0,2.4-1.4V112.9A3.4,3.4,0,0,0,430.6,109.8Z"/><path class="cls-65" d="M375,88.3l49.8,28.2c.5.3.9.1.9-.4h0a1.9,1.9,0,0,0-.9-1.3L375,86.6c-.5-.3-.9-.1-.9.4h0A1.9,1.9,0,0,0,375,88.3Z"/><path class="cls-65" d="M375,93.2l49.8,28.3c.5.2.9.1.9-.4h0a1.8,1.8,0,0,0-.9-1.4L375,91.5c-.5-.2-.9-.1-.9.4h0A1.5,1.5,0,0,0,375,93.2Z"/><path class="cls-65" d="M375,98.2l49.8,28.2c.5.3.9.1.9-.4h0a1.5,1.5,0,0,0-.9-1.3L375,96.5c-.5-.3-.9-.1-.9.3h0A1.8,1.8,0,0,0,375,98.2Z"/><path class="cls-65" d="M375,103.1l49.8,28.2c.5.3.9.1.9-.3h0a1.8,1.8,0,0,0-.9-1.4L375,101.4c-.5-.3-.9-.1-.9.4h0A1.5,1.5,0,0,0,375,103.1Z"/><path class="cls-65" d="M384.1,113.4l40.7,23.3c.5.3.9.1.9-.4h0a1.5,1.5,0,0,0-.9-1.3l-40.7-23.3c-.5-.3-.9-.1-.9.4h0A1.5,1.5,0,0,0,384.1,113.4Z"/><path class="cls-68" d="M432.1,146.5V113a3.5,3.5,0,0,0-1.8-3.1L368.7,74.6a.6.6,0,0,0-.7-.1.9.9,0,0,1,1,0l61.6,35.3a3.4,3.4,0,0,1,1.9,3.1v33.5a1.5,1.5,0,0,1-1.4,1.5A1.4,1.4,0,0,0,432.1,146.5Z"/><path class="cls-66" d="M439.2,183.9l-42.7-24.4a1.4,1.4,0,0,0-2.1,1.2v41.8a4.2,4.2,0,0,0,2.1,3.6l42,23.9a1.9,1.9,0,0,0,2.9-1.7V187.7A4.5,4.5,0,0,0,439.2,183.9Z"/><path class="cls-114" d="M389.4,164.8l2.7-1.3h0a1.4,1.4,0,0,1,1.4-.1l42.7,24.4a4.4,4.4,0,0,1,2.2,3.8v40.7a1.9,1.9,0,0,1-1.1,1.7h0l-1,.7-2,.8-1.1-1.8-40.5-23.1a4.2,4.2,0,0,1-2.1-3.6V166.7Z"/><path class="cls-65" d="M433.3,189.2l-42.7-24.4a1.4,1.4,0,0,0-2,1.2v41.8a4.2,4.2,0,0,0,2.1,3.6l42,23.9a1.9,1.9,0,0,0,2.9-1.7V193A4.4,4.4,0,0,0,433.3,189.2Z"/><path class="cls-68" d="M435.2,233.8V193.2a4.5,4.5,0,0,0-2.3-3.9L390.2,165a1.5,1.5,0,0,0-.9-.2,1.5,1.5,0,0,1,1.3,0l42.7,24.4a4.4,4.4,0,0,1,2.3,3.8v40.6a1.9,1.9,0,0,1-1.6,1.9A2,2,0,0,0,435.2,233.8Z"/><g class="cls-80"><path class="cls-115" d="M421.2,217.1l1.4.8c.7.4,1.2.1,1.2-.6v-3.7a2.5,2.5,0,0,0-1.2-2l-1.4-.7c-.6-.4-1.2-.1-1.2.5v3.8A2.5,2.5,0,0,0,421.2,217.1Z"/><path class="cls-116" d="M414.1,213.2l1.3.7c.7.4,1.3.2,1.3-.5V202.8a2.7,2.7,0,0,0-1.3-2l-1.3-.7c-.7-.4-1.3-.1-1.3.6v10.6A2.5,2.5,0,0,0,414.1,213.2Z"/><path class="cls-117" d="M406.9,209.2l1.4.8a.7.7,0,0,0,1.2-.6V188.2a2.6,2.6,0,0,0-1.2-1.9l-1.4-.8c-.7-.3-1.2-.1-1.2.6v21.2A2.2,2.2,0,0,0,406.9,209.2Z"/><path class="cls-118" d="M399.8,205.3l1.3.7c.7.4,1.2.2,1.2-.5V189.2a2.5,2.5,0,0,0-1.2-1.9l-1.3-.7c-.7-.4-1.3-.2-1.3.5v16.3A2.7,2.7,0,0,0,399.8,205.3Z"/></g><g class="cls-80"><path class="cls-119" d="M417.1,187.5l12,6.6c.3.2.5.1.5-.2h0a.7.7,0,0,0-.5-.6l-12-6.7c-.2-.1-.4,0-.4.2h0A.8.8,0,0,0,417.1,187.5Z"/><path class="cls-120" d="M417.1,190l12,6.7c.3.1.5,0,.5-.2h0a.8.8,0,0,0-.5-.7l-12-6.6c-.2-.2-.4-.1-.4.2h0A.8.8,0,0,0,417.1,190Z"/><path class="cls-121" d="M417.1,192.6l12,6.6c.3.1.5.1.5-.2h0a1,1,0,0,0-.5-.7l-12-6.6c-.2-.2-.4-.1-.4.2h0A1.3,1.3,0,0,0,417.1,192.6Z"/><path class="cls-122" d="M417.1,195.1l12,6.6c.3.2.5.1.5-.2h0a.7.7,0,0,0-.5-.6l-12-6.7c-.2-.1-.4,0-.4.2h0A.8.8,0,0,0,417.1,195.1Z"/><path class="cls-123" d="M421.8,200.4l7.3,4.1c.3.1.5,0,.5-.2h0a.8.8,0,0,0-.5-.7l-7.3-4.1c-.2-.1-.4-.1-.4.2h0A1.3,1.3,0,0,0,421.8,200.4Z"/></g><path class="cls-124" d="M338.3,158.4l2.1-1h0a.9.9,0,0,1,1,0l33,18.8a3.3,3.3,0,0,1,1.7,3v31.3a1.6,1.6,0,0,1-.8,1.4h0l-.8.5-1.5.6-.9-1.4-31.3-17.8a3.3,3.3,0,0,1-1.6-2.8V159.9Z"/><path class="cls-125" d="M372.2,177.3l-33-18.8a1,1,0,0,0-1.5.9v32.2a3.2,3.2,0,0,0,1.6,2.8l32.4,18.5a1.5,1.5,0,0,0,2.2-1.3V180.2A3.2,3.2,0,0,0,372.2,177.3Z"/><path class="cls-68" d="M373.6,211.7V180.3a3.2,3.2,0,0,0-1.7-2.9l-33-18.8a.7.7,0,0,0-.6-.2,1,1,0,0,1,.9.1l33,18.8a3.2,3.2,0,0,1,1.7,2.9v31.4a1.5,1.5,0,0,1-1.2,1.5A1.7,1.7,0,0,0,373.6,211.7Z"/><polygon class="cls-65" points="351.7 177.4 351.7 189.4 358.9 186.8 351.7 177.4"/><path class="cls-3" d="M329.8,307.8s-.8,3.6-.5,4.2,2,2.4,3.9,1.8,11.9-4.7,12.1-5.4.1-4.4-3.3-4.4S329.8,307.8,329.8,307.8Z"/><path class="cls-3" d="M315.5,301.4s-1,4.1,0,4.8,3.6,2,5.3.9,9-7.4,8-8.2-1.6-2.4-3.3-1.7l-3.5,1.7Z"/><path class="cls-63" d="M315.6,246.9s-3.2,3.6-.7,9,1.7,17.6,1.7,17.6a75,75,0,0,0-1.3,14.8c.3,6.6,0,12.7,0,12.7s1.5,2.9,4.1,2.1a10.4,10.4,0,0,0,4.3-3.1s1.5-25.5,1.5-25.9,5.3-25.7,5.3-25.7Z"/><path class="cls-65" d="M322.2,213.8s14.6,9.3,16.5,9.9,11.8-3.7,11.8-3.7l6-11a2.1,2.1,0,0,1,2.6,0,4.6,4.6,0,0,1,1.9,2.9s-6,14.3-7.6,15.2-14.2,6.5-14.2,6.5l-1.8,16.1s-1.6,3.2-9.7,3a15.9,15.9,0,0,1-12.1-5.8s2.2-7.2,1.6-12.9-5-19-3.8-21.4,17.9-24,17.9-24a2.8,2.8,0,0,1,3.8.6,8.7,8.7,0,0,1,2,2.8Z"/><path class="cls-126" d="M356.9,208.7a3,3,0,0,1,0-3.2,15.4,15.4,0,0,0,1.1-2.8s.7.2.6,1.5.1.6,1.1-.9,1.7-3.7,2.6-3.1,1.8,1.2.5,5.3a32.7,32.7,0,0,1-2.1,5.5S359.6,208.1,356.9,208.7Z"/><path class="cls-127" d="M336.6,191.2a11.8,11.8,0,0,0,1.7-3.6,10.8,10.8,0,0,0,.2-2.7s-.7-.8-.9,0-.6,2-.7,2.1.8-8.5-.5-9.1-2.8,2.2-3.2,5a28.3,28.3,0,0,1-1.4,5.4S334.4,187.8,336.6,191.2Z"/><path class="cls-128" d="M336.8,203.7a12.3,12.3,0,0,1,.3,2.6,3.1,3.1,0,0,1-.3,1.2s1.1,1.6.8,2.6-1.3,6.1-2,6.4a29.1,29.1,0,0,1-3.8.2l-.9,2.9a7.6,7.6,0,0,1-5.6.5,4.3,4.3,0,0,1-3.2-4.3s1-5.9,1-6.1,3.4-4.6,3.8-4.6Z"/><path class="cls-63" d="M338.3,201c0,2.8-.6,4-2.1,4.5s-2.3,1.4-2.1,3.5-.4,2.9-.8,2.5.1-3.1-1.3-3.3-2.2,1.2-1.5,2.8-.7,3.1-1.6,3.5-5.9.4-7.3-1a13.2,13.2,0,0,1-3-7c-.2-2.4,3-3.6,3-3.6s0-6.2,5.2-5.3,7.8,1.8,9.2,1.4S338.2,199.1,338.3,201Z"/><path class="cls-63" d="M321.6,251.4a23.4,23.4,0,0,0,2.9,8.6c2.6,4.6,5.4,17.7,5.4,17.7a104.5,104.5,0,0,0-.8,15.2,108.8,108.8,0,0,0,.8,15.3s.3.5,3.8,0,3.4-1.9,3.4-1.9l1.5-28.3-1-29.6S333.9,254.5,321.6,251.4Z"/><path class="cls-65" d="M395.7,240.2l7.1-1.7a2,2,0,0,1,2,1.7,13.6,13.6,0,0,1,.3,3.4l-9.8,3.2S391.6,241.2,395.7,240.2Z"/><path class="cls-84" d="M378.3,270.5a18.7,18.7,0,0,0-3,11.2c.4,6.4,2.3,19.8,2.3,19.8s-2.9,3.4-3.4,10.8a55.3,55.3,0,0,0,.5,13.2,4.2,4.2,0,0,0,3.6,1.4,9.4,9.4,0,0,0,3.7-.9s-1.5-11,1.8-17.3,6.4-31.3,6.4-31.3S382.5,275.2,378.3,270.5Z"/><path class="cls-84" d="M384.3,275.7s-1.9,3.7,2.4,13.7,5.8,15.1,5.8,15.1a30.4,30.4,0,0,0-2.3,14.6c.8,8.2,1.4,13.4,1.4,13.4s-.3.9,1.8,1.3a13,13,0,0,0,5.3-.4s1.6-20.4,3.5-26.6-1.5-32.6-1.5-32.6S398.5,279.9,384.3,275.7Z"/><path class="cls-63" d="M391.6,332.5a21.6,21.6,0,0,0-1.8,5.9,19.5,19.5,0,0,0,.9,5.9H392s.8-7.4,1.9-6.4,1.7,4.6,2.6,4.8,10.5.1,10.3-1.5a3.4,3.4,0,0,0-3.3-3c-2,0-3.6-.4-4.1-1.2a16.4,16.4,0,0,1-1.1-3.5S394.4,334.2,391.6,332.5Z"/><path class="cls-63" d="M375,325.8a33.7,33.7,0,0,0-1,7.3c.2,3,1.1,5.3,1,5.7s1.7-.4,1.7-.4l1.2-6.2s.9,3.7,2.6,4.6,5.6-.5,5.7-.9-1.7.3-2.7-2.8a45.9,45.9,0,0,1-1.5-7.7S377.5,327,375,325.8Z"/><path class="cls-83" d="M400.6,243.6v31.2s-4,3.6-12.5,2.4a15.8,15.8,0,0,1-11.6-7.3s2.8-8.3,2.6-12.4-2.3-14.3-1.1-17.3,8.8-3.3,12.3-2.2S400.6,243.6,400.6,243.6Z"/><path class="cls-3" d="M408.1,241.3l17.8,10.2a1.1,1.1,0,0,0,1.7-.7l3.7-12.2a1.3,1.3,0,0,0-.6-1.6l-17.8-10.3a1.2,1.2,0,0,0-1.7.7l-3.7,12.2A1.4,1.4,0,0,0,408.1,241.3Z"/><polygon class="cls-63" points="408.3 240.1 412.1 227.6 430.6 238.2 426.7 250.7 408.3 240.1"/><path class="cls-65" d="M400.6,243.6c-2.8-.3-4.8,3-3.6,8.1s6,16.6,10,17.2,13.4-20.6,13.4-20.6-.8-2.8-2.7-3.4a9.6,9.6,0,0,0-3-.4s-5.7,12.3-6.5,11.9S403.8,244.1,400.6,243.6Z"/><path class="cls-129" d="M398.4,225.7a21.2,21.2,0,0,1,.5,3.3,4.5,4.5,0,0,1-.3.8,3.1,3.1,0,0,1,.5,1.8c-.1.9-.5,4.8-1.3,5s-3.2.9-3.3,1.4-.2,2.1-.2,2.1-.2.8-3.1.9a10.2,10.2,0,0,1-5-.9l1.1-11.2c0-.1,3.1-3.2,3.5-3.2Z"/><path class="cls-84" d="M399.4,222.8c.7,3.1,1,4.3-1.3,5.5a4.9,4.9,0,0,0-2.4,3.8s-.7-2.9-1.8-2.9a1.7,1.7,0,0,0-1.6,2.4c.4,1.2-.7,2.6-2.3,2.7s-5.6.9-6.7-1.5S380,223,384.4,221s6.6-3,10.4-2.2A5.9,5.9,0,0,1,399.4,222.8Z"/><path class="cls-84" d="M389.7,223.7c.5,2.1.4,4.7-.9,5.2s-2.9,1.2-1.7,5.3,3.6,8.6.4,12.5-10.9.1-10.9.1,4.6-2.4,3.6-6.4-3.8-12.5-1.6-16.8S388.3,218.1,389.7,223.7Z"/><path class="cls-130" d="M416.3,244.6c-.1,0-.4-3.8.2-4.8s3.7-4.8,3.7-4.8,1.3.1.8,1.3a15.2,15.2,0,0,0-.9,3.3c.1.4,3.1,2.9,3,3.3s-2.9,4.7-2.9,4.7A5.3,5.3,0,0,0,416.3,244.6Z"/><path class="cls-83" d="M403.9,238.8s1.9-2.7,2.5-2.7,4.7.3,4.7.3,1.1,1.2-.7,1.3a8,8,0,0,0-2.4.4s-1,3.4-1.7,3.9l-1.2.7S404.7,239.2,403.9,238.8Z"/></svg>