<svg id="Layer_1" data-name="Layer 1" xmlns="http://www.w3.org/2000/svg" xmlns:xlink="http://www.w3.org/1999/xlink" viewBox="0 0 500 500"><defs><style>.cls-1{fill:#080344;opacity:0.24;}.cls-14,.cls-2,.cls-26,.cls-32,.cls-34,.cls-35,.cls-39,.cls-42,.cls-43,.cls-9{fill:none;}.cls-2,.cls-43{stroke:#dee3fc;}.cls-14,.cls-2,.cls-26,.cls-32,.cls-33,.cls-34,.cls-35,.cls-39,.cls-42,.cls-43,.cls-46{stroke-miterlimit:10;}.cls-2{stroke-width:0.79px;}.cls-3{fill:#ffc41d;}.cls-4{fill:#a4afff;}.cls-33,.cls-5{fill:#fff;}.cls-6{fill:#dee3fc;}.cls-7{fill:#3945ba;}.cls-8{fill:url(#linear-gradient);}.cls-9{stroke:#fcfcfc;stroke-linejoin:round;stroke-dasharray:2.84;}.cls-35,.cls-39,.cls-42,.cls-43,.cls-9{stroke-linecap:round;}.cls-10{fill:#4b5a9b;}.cls-11{fill:#7f95f4;}.cls-12{fill:#b2c1f9;}.cls-13{fill:#3052ce;}.cls-14,.cls-26,.cls-32,.cls-39,.cls-42,.cls-46{stroke:#fff;}.cls-15{fill:#f0f5ff;}.cls-16{fill:#d1d4de;}.cls-17{fill:#413887;}.cls-18{fill:url(#linear-gradient-2);}.cls-19{fill:#281616;}.cls-20{fill:#8353f9;}.cls-21{fill:#e5918f;}.cls-22{fill:#c7e5f2;}.cls-23{fill:url(#linear-gradient-3);}.cls-24{fill:#002c54;}.cls-25{fill:#cc6362;}.cls-26{stroke-width:0.5px;}.cls-27{opacity:0.5;}.cls-28{fill:#375f84;}.cls-29{fill:#edf3fc;}.cls-30{fill:#e49191;}.cls-31{fill:url(#linear-gradient-4);}.cls-32,.cls-33,.cls-39{stroke-width:0.9px;}.cls-33,.cls-34,.cls-35{stroke:#495ad6;}.cls-34,.cls-35{stroke-width:1.67px;}.cls-36{fill:#193091;}.cls-37{fill:url(#linear-gradient-5);}.cls-38{fill:#f0f4ff;}.cls-40{fill:#6589d1;}.cls-41{fill:#3b5fb7;}.cls-42{stroke-width:2px;}.cls-44,.cls-46{fill:#ff5595;}.cls-45{fill:#7e89fd;}.cls-47{fill:#b4c1ef;}</style><linearGradient id="linear-gradient" x1="194.28" y1="236.26" x2="307.94" y2="236.26" gradientUnits="userSpaceOnUse"><stop offset="0" stop-color="#02a2ff"/><stop offset="0.84" stop-color="#0673e7"/></linearGradient><linearGradient id="linear-gradient-2" x1="378.61" y1="347.4" x2="393.16" y2="347.4" gradientTransform="translate(771.8 694.8) rotate(-180)" xlink:href="#linear-gradient"/><linearGradient id="linear-gradient-3" x1="352.03" y1="269.93" x2="389.45" y2="269.93" gradientUnits="userSpaceOnUse"><stop offset="0" stop-color="#e6e6e6"/><stop offset="1" stop-color="#fcfcfc"/></linearGradient><linearGradient id="linear-gradient-4" x1="152.8" y1="301.21" x2="217.27" y2="301.21" xlink:href="#linear-gradient-3"/><linearGradient id="linear-gradient-5" x1="401.01" y1="357.41" x2="438.79" y2="357.41" xlink:href="#linear-gradient"/></defs><ellipse class="cls-1" cx="250" cy="379.7" rx="230.2" ry="7.8"/><path class="cls-2" d="M174.7,175v-7.4a1.3,1.3,0,0,0-1.3-1.4h-2a1.1,1.1,0,0,1-1.1-.9,24.8,24.8,0,0,0-3.4-8,1.4,1.4,0,0,1,.2-1.6l1.4-1.3a1.4,1.4,0,0,0,0-1.9l-5.3-5.3a1.4,1.4,0,0,0-1.9,0l-1.3,1.4a1.2,1.2,0,0,1-1.6.1,27,27,0,0,0-8-3.3,1.1,1.1,0,0,1-.9-1.2v-1.9a1.3,1.3,0,0,0-1.4-1.3h-7.4a1.3,1.3,0,0,0-1.3,1.3v1.9a1.2,1.2,0,0,1-1,1.2,27,27,0,0,0-8,3.3,1.1,1.1,0,0,1-1.5-.1l-1.4-1.4a1.4,1.4,0,0,0-1.9,0l-5.2,5.3a1.4,1.4,0,0,0,0,1.9l1.3,1.3a1.2,1.2,0,0,1,.2,1.5,26.1,26.1,0,0,0-3.3,8.1,1.3,1.3,0,0,1-1.2.9h-1.9a1.4,1.4,0,0,0-1.4,1.4V175a1.3,1.3,0,0,0,1.4,1.3h1.9a1.4,1.4,0,0,1,1.2,1,24.6,24.6,0,0,0,3.3,8,1.2,1.2,0,0,1-.2,1.5l-1.3,1.4a1.4,1.4,0,0,0,0,1.9l5.2,5.2a1.4,1.4,0,0,0,1.9,0l1.4-1.3a1.2,1.2,0,0,1,1.5-.2,24.6,24.6,0,0,0,8,3.3,1.4,1.4,0,0,1,1,1.2v1.9a1.3,1.3,0,0,0,1.3,1.4h7.4a1.4,1.4,0,0,0,1.4-1.4v-1.9a1.3,1.3,0,0,1,.9-1.2,24.6,24.6,0,0,0,8-3.3,1.4,1.4,0,0,1,1.6.2l1.3,1.3a1.4,1.4,0,0,0,1.9,0l5.3-5.2a1.4,1.4,0,0,0,0-1.9l-1.4-1.4a1.2,1.2,0,0,1-.2-1.5,25.8,25.8,0,0,0,3.4-8,1.2,1.2,0,0,1,1.1-1h2A1.3,1.3,0,0,0,174.7,175Zm-30.3,17.3a21,21,0,1,1,21-21A21,21,0,0,1,144.4,192.3Z"/><path class="cls-3" d="M209,200.2v-5a.9.9,0,0,0-.9-.9h-1.3a1,1,0,0,1-.9-.7,18.6,18.6,0,0,0-2.2-5.5.8.8,0,0,1,.1-1l.9-.9a.9.9,0,0,0,0-1.3l-3.6-3.6a1,1,0,0,0-1.3,0l-.9.9a.8.8,0,0,1-1,.1,17.6,17.6,0,0,0-5.5-2.2.8.8,0,0,1-.6-.8V178a.9.9,0,0,0-.9-.9h-5.1a.9.9,0,0,0-.9.9v1.3a1,1,0,0,1-.6.8,16.7,16.7,0,0,0-5.5,2.2.9.9,0,0,1-1.1-.1l-.9-.9a1,1,0,0,0-1.3,0l-3.6,3.6a1.1,1.1,0,0,0,0,1.3l1,.9a.9.9,0,0,1,.1,1,18.9,18.9,0,0,0-2.3,5.5.8.8,0,0,1-.8.7h-1.3a.9.9,0,0,0-.9.9v5a.9.9,0,0,0,.9.9h1.3a.8.8,0,0,1,.8.7,18.9,18.9,0,0,0,2.3,5.5.9.9,0,0,1-.1,1l-1,.9a1.1,1.1,0,0,0,0,1.3l3.6,3.6a1,1,0,0,0,1.3,0l.9-.9a.9.9,0,0,1,1.1-.2,15,15,0,0,0,5.5,2.3.9.9,0,0,1,.6.8v1.3a.9.9,0,0,0,.9.9h5.1a.9.9,0,0,0,.9-.9v-1.3a.8.8,0,0,1,.6-.8,15.7,15.7,0,0,0,5.5-2.3.8.8,0,0,1,1,.2l.9.9a1,1,0,0,0,1.3,0l3.6-3.6a.9.9,0,0,0,0-1.3l-.9-.9a.8.8,0,0,1-.1-1,18.6,18.6,0,0,0,2.2-5.5,1,1,0,0,1,.9-.7h1.3A.9.9,0,0,0,209,200.2Zm-20.7,11a13.5,13.5,0,1,1,13.5-13.5A13.5,13.5,0,0,1,188.3,211.2Z"/><circle class="cls-4" cx="113.3" cy="332.2" r="2.5"/><circle class="cls-4" cx="443.1" cy="265" r="2.5"/><circle class="cls-4" cx="438.2" cy="177.1" r="2.5"/><circle class="cls-4" cx="349.7" cy="147.2" r="1.5"/><path class="cls-4" d="M123,126.6a1.6,1.6,0,0,1-1.6,1.6,1.6,1.6,0,0,1-1.5-1.6,1.5,1.5,0,0,1,1.5-1.5A1.6,1.6,0,0,1,123,126.6Z"/><path class="cls-4" d="M157.1,221.7a1.5,1.5,0,1,1-3,0,1.5,1.5,0,0,1,3,0Z"/><path class="cls-4" d="M100.5,334.7a1.5,1.5,0,0,1-1.6,1.5,1.5,1.5,0,0,1,0-3A1.5,1.5,0,0,1,100.5,334.7Z"/><circle class="cls-4" cx="407" cy="333.7" r="2.5"/><circle class="cls-4" cx="459.4" cy="333.7" r="2.5"/><circle class="cls-4" cx="165.4" cy="119.9" r="2.5"/><path class="cls-4" d="M335.3,231.9a3.3,3.3,0,1,1-3.3-3.3A3.3,3.3,0,0,1,335.3,231.9Z"/><path class="cls-4" d="M92.3,191.2a3.3,3.3,0,1,1-3.3-3.3A3.3,3.3,0,0,1,92.3,191.2Z"/><rect class="cls-5" x="78.4" y="136.9" width="5.1" height="5.11" rx="0.5"/><rect class="cls-5" x="85.3" y="136.9" width="5.1" height="5.11" rx="0.5"/><rect class="cls-5" x="92.1" y="136.9" width="5.1" height="5.11" rx="0.5"/><rect class="cls-6" x="426.4" y="316.3" width="5.1" height="5.11" rx="0.5"/><rect class="cls-6" x="433.2" y="316.3" width="5.1" height="5.11" rx="0.5"/><rect class="cls-6" x="440" y="316.3" width="5.1" height="5.11" rx="0.5"/><rect class="cls-6" x="110.5" y="313.5" width="5.1" height="5.11" rx="0.5"/><rect class="cls-6" x="117.3" y="313.5" width="5.1" height="5.11" rx="0.5"/><rect class="cls-6" x="124.2" y="313.5" width="5.1" height="5.11" rx="0.5"/><rect class="cls-7" x="186.4" y="112.5" width="129.4" height="250" rx="15.5"/><rect class="cls-5" x="188.8" y="114.7" width="124.6" height="244.26" rx="13.6"/><path class="cls-8" d="M307.9,127.9V344.7a9.2,9.2,0,0,1-9.2,9.2H203.5a9.2,9.2,0,0,1-9.2-9.2V127.9a9.3,9.3,0,0,1,9.2-9.3h15.9a2.3,2.3,0,0,1,2.1,1.3l1.6,3.4a4.5,4.5,0,0,0,4.1,2.5H275a4.5,4.5,0,0,0,4.1-2.5l1.7-3.4a2.3,2.3,0,0,1,2-1.3h15.9A9.3,9.3,0,0,1,307.9,127.9Z"/><path class="cls-6" d="M271.2,121.9H232.7a1.6,1.6,0,0,1-1.6-1.6h0a1.7,1.7,0,0,1,1.6-1.7h38.5a1.7,1.7,0,0,1,1.6,1.7h0A1.6,1.6,0,0,1,271.2,121.9Z"/><rect class="cls-9" x="201.1" y="303.9" width="97.8" height="42.42" rx="6.1"/><rect class="cls-9" x="241.6" y="212.5" width="51.3" height="29.79" rx="4.4"/><rect class="cls-10" x="204.6" y="249.4" width="98.2" height="47.48" rx="5.2"/><path class="cls-11" d="M298.9,250.8v37a5.2,5.2,0,0,1-5.2,5.2H206.3a5.2,5.2,0,0,1-5.2-5.2v-37a5.2,5.2,0,0,1,5.2-5.2h87.4A5.2,5.2,0,0,1,298.9,250.8Z"/><rect class="cls-5" x="205.6" y="256.4" width="32.8" height="32.81" rx="3.5"/><path class="cls-12" d="M265.4,260.5H242.7a1.1,1.1,0,0,1-1.1-1.1h0a1.1,1.1,0,0,1,1.1-1.1h22.7a1.1,1.1,0,0,1,1.1,1.1h0A1.1,1.1,0,0,1,265.4,260.5Z"/><path class="cls-12" d="M255.1,265H242.7a1.1,1.1,0,0,1-1.1-1.1h0a1.1,1.1,0,0,1,1.1-1.2h12.4a1.1,1.1,0,0,1,1.1,1.2h0A1.1,1.1,0,0,1,255.1,265Z"/><path class="cls-12" d="M293,265H259.6a1.1,1.1,0,0,1-1.1-1.1h0a1.1,1.1,0,0,1,1.1-1.2H293a1.1,1.1,0,0,1,1.1,1.2h0A1.1,1.1,0,0,1,293,265Z"/><path class="cls-12" d="M261.8,269.4H242.7a1.1,1.1,0,0,1-1.1-1.1h0a1.1,1.1,0,0,1,1.1-1.1h19.1a1.1,1.1,0,0,1,1.1,1.1h0A1.1,1.1,0,0,1,261.8,269.4Z"/><path class="cls-12" d="M278,269.4H266a1.1,1.1,0,0,1-1.1-1.1h0a1.1,1.1,0,0,1,1.1-1.1h12a1.1,1.1,0,0,1,1.1,1.1h0A1.1,1.1,0,0,1,278,269.4Z"/><path class="cls-12" d="M293,269.4H281.9a1.1,1.1,0,0,1-1.1-1.1h0a1.1,1.1,0,0,1,1.1-1.1H293a1.1,1.1,0,0,1,1.1,1.1h0A1.1,1.1,0,0,1,293,269.4Z"/><path class="cls-12" d="M293,273.9H242.7a1.1,1.1,0,0,1-1.1-1.1h0a1.1,1.1,0,0,1,1.1-1.2H293a1.1,1.1,0,0,1,1.1,1.2h0A1.1,1.1,0,0,1,293,273.9Z"/><path class="cls-12" d="M270.4,278.3H242.7a1.1,1.1,0,0,1-1.1-1.1h0a1.1,1.1,0,0,1,1.1-1.1h27.7a1.1,1.1,0,0,1,1.1,1.1h0A1.1,1.1,0,0,1,270.4,278.3Z"/><path class="cls-12" d="M293,278.3H274.8a1.1,1.1,0,0,1-1.1-1.1h0a1.1,1.1,0,0,1,1.1-1.1H293a1.1,1.1,0,0,1,1.1,1.1h0A1.1,1.1,0,0,1,293,278.3Z"/><path class="cls-12" d="M259,282.8H242.7a1.1,1.1,0,0,1-1.1-1.1h0a1.1,1.1,0,0,1,1.1-1.1H259a1.1,1.1,0,0,1,1.1,1.1h0A1.1,1.1,0,0,1,259,282.8Z"/><path class="cls-12" d="M279.6,282.8H263.4a1.1,1.1,0,0,1-1.1-1.1h0a1.1,1.1,0,0,1,1.1-1.1h16.2a1.1,1.1,0,0,1,1.1,1.1h0A1.1,1.1,0,0,1,279.6,282.8Z"/><path class="cls-12" d="M293,282.8h-9.4a1.1,1.1,0,0,1-1.2-1.1h0a1.1,1.1,0,0,1,1.2-1.1H293a1.1,1.1,0,0,1,1.1,1.1h0A1.1,1.1,0,0,1,293,282.8Z"/><path class="cls-12" d="M265.4,287.2H242.7a1.1,1.1,0,0,1-1.1-1.1h0a1.1,1.1,0,0,1,1.1-1.1h22.7a1.1,1.1,0,0,1,1.1,1.1h0A1.1,1.1,0,0,1,265.4,287.2Z"/><path class="cls-12" d="M293,260.5H270.3a1.1,1.1,0,0,1-1.1-1.1h0a1.1,1.1,0,0,1,1.1-1.1H293a1.1,1.1,0,0,1,1.1,1.1h0A1.1,1.1,0,0,1,293,260.5Z"/><path class="cls-13" d="M298.9,250.8v1.5H201.1v-1.5a5.2,5.2,0,0,1,5.2-5.2h87.4A5.2,5.2,0,0,1,298.9,250.8Z"/><path class="cls-6" d="M280.5,249.1a1.3,1.3,0,0,1-1.2,1.2,1.3,1.3,0,0,1-1.3-1.2,1.2,1.2,0,0,1,1.3-1.2A1.2,1.2,0,0,1,280.5,249.1Z"/><path class="cls-6" d="M286.7,249.1a1.3,1.3,0,0,1-1.2,1.2,1.3,1.3,0,0,1-1.3-1.2,1.2,1.2,0,0,1,1.3-1.2A1.2,1.2,0,0,1,286.7,249.1Z"/><path class="cls-6" d="M292.9,249.1a1.3,1.3,0,0,1-1.2,1.2,1.3,1.3,0,0,1-1.3-1.2,1.2,1.2,0,0,1,1.3-1.2A1.2,1.2,0,0,1,292.9,249.1Z"/><rect class="cls-14" x="206.8" y="212.5" width="29.8" height="29.76" rx="5.2"/><polyline class="cls-14" points="217.1 223.1 212.8 227.4 217.1 231.7"/><polyline class="cls-14" points="226.3 223.1 230.6 227.4 226.3 231.7"/><line class="cls-14" x1="223.7" y1="223.1" x2="219.7" y2="231.7"/><rect class="cls-15" x="201.1" y="133.9" width="97.8" height="72.43" rx="5.9"/><circle class="cls-16" cx="279.1" cy="153" r="14.2"/><path class="cls-16" d="M258.6,206.3H207a5.9,5.9,0,0,1-5.9-5.9v-9.5l22.5-39.1a3.1,3.1,0,0,1,5.4,0l17,29.5,12.6,21.9A2.7,2.7,0,0,1,258.6,206.3Z"/><path class="cls-16" d="M280.8,206.3H231.5l14.5-25,7.8-13.5a2.7,2.7,0,0,1,4.8,0Z"/><rect class="cls-17" x="340.6" y="318.8" width="38" height="57.12"/><rect class="cls-18" x="378.6" y="318.8" width="14.6" height="57.12" transform="translate(771.8 694.8) rotate(180)"/><rect class="cls-12" x="380.7" y="321" width="10.7" height="1.82"/><rect class="cls-12" x="380.7" y="324.9" width="10.7" height="1.82"/><rect class="cls-12" x="380.7" y="328.9" width="10.7" height="1.82"/><rect class="cls-12" x="380.7" y="332.8" width="10.7" height="1.82"/><rect class="cls-12" x="380.7" y="336.7" width="10.7" height="1.82"/><rect class="cls-12" x="380.7" y="340.6" width="10.7" height="1.82"/><rect class="cls-12" x="380.7" y="344.5" width="10.7" height="1.82"/><rect class="cls-12" x="380.7" y="348.4" width="10.7" height="1.82"/><rect class="cls-12" x="380.7" y="352.4" width="10.7" height="1.82"/><rect class="cls-12" x="380.7" y="356.3" width="10.7" height="1.82"/><rect class="cls-12" x="380.7" y="360.2" width="10.7" height="1.82"/><rect class="cls-12" x="380.7" y="364.1" width="10.7" height="1.82"/><rect class="cls-12" x="380.7" y="368" width="10.7" height="1.82"/><rect class="cls-12" x="380.7" y="371.9" width="10.7" height="1.82"/><path class="cls-19" d="M334.4,376h19.3a10.6,10.6,0,0,0-1.2-7.7s-1.6,1.2-6.2.4A29.6,29.6,0,0,1,343,371C341.6,371.6,333.9,373.1,334.4,376Z"/><path class="cls-20" d="M335.8,321.5c1.2,7.4,7,32.6,9.5,47.5a21.3,21.3,0,0,0,7.8-.4c-.2-5.2-.7-17.6-.6-23,.1-9.2.5-21.4-3.6-28l-13.6,1c.1.8.2,1.3.3,1.8A4.3,4.3,0,0,0,335.8,321.5Z"/><path class="cls-19" d="M299.5,376h19.3a10.3,10.3,0,0,0-1.3-7.7s-1.5,1.2-6.2.4A21.9,21.9,0,0,1,308,371C306.7,371.6,299,373.1,299.5,376Z"/><path class="cls-20" d="M310.8,368.6a20.3,20.3,0,0,0,7.6.6c1-5.9,2.7-19.1,4.1-25.3,2.3-9.5,4.5-22.7,3-27.4l-13.4-3.4C312,313.5,310.9,353.9,310.8,368.6Z"/><path class="cls-20" d="M364.1,299.4h0c-.3-2.7-.6-4.6-.6-4.6l-15,3.7-12.7,2.8-15.4,3.5c-5.6,1.3-9.4,5.6-8.1,11.2l1.4,6.8c7.9-.1,44.9-3.6,48-5.2S366.4,309.4,364.1,299.4Z"/><path class="cls-20" d="M386.4,299.4h0a22.6,22.6,0,0,0-1.5-5.5l-14,4.6-12.7,2.8-15.5,3.5c-5.6,1.3-9.3,5.6-8.1,11.2l1.4,6.8c7.9-.1,40.8-1.2,48.1-5.2C387.6,315.6,388.7,309.4,386.4,299.4Z"/><path class="cls-21" d="M344.5,277.9s6.7-3,8.5,0,.3,4.7-2,6-15,6.7-27.1,9.8a23.9,23.9,0,0,0-1.4-3.5,57.7,57.7,0,0,0,10.8-6,70.8,70.8,0,0,1,11.2-6.3Z"/><path class="cls-21" d="M346.2,257.2l-5.7,22.7s.6,5.8,6.4,3,9.7-21,9.7-21Z"/><path class="cls-5" d="M355.8,269.9l-2-.6a10.6,10.6,0,0,1-1.9-.6,31.1,31.1,0,0,1-8.3-4,62,62,0,0,1,5.5-15.7l.2-.2v-.3a14.2,14.2,0,0,1,4-4.1l.5-.3.6,11.9.2,1.2Z"/><path class="cls-22" d="M355.8,269.9l-2-.6a10.6,10.6,0,0,1-1.9-.6c1.1-8,2.2-13,2.2-13l.6,1.5Z"/><path class="cls-23" d="M389.5,249.4c-.2,3.5-.8,9.1-1.3,14.8-.2,1.8-.4,3.6-.5,5.3s-1.7,6.9-1.8,8c-.3,4.9-2.7,8.6-.4,16.2a13.8,13.8,0,0,1,.7,3.5c0,.5-.7,1-1,1.2a17.2,17.2,0,0,1-5.1,1.2h0c-4.6.5-10.7.7-14.4.7s-12.4-.8-13.3-2.1-.1-2.8.3-5.1c1.9-10.3,1.2-15.7,1.1-23.2v-.6c-.2-11.5-.9-21.3-.4-24.9l.5-.3,2.3-1.5h.2l.7-.4h.2c1.7-.8,4.2-1.7,5.6-2.2h4.7l5.7.5h0c2.5.4,5.3.8,7.5,1.4h0a17.2,17.2,0,0,1,5.9,4.2A23.7,23.7,0,0,1,389.5,249.4Z"/><path class="cls-10" d="M385.5,293.7a13.8,13.8,0,0,1,.7,3.5c0,.5-.7,1-1,1.2a17.2,17.2,0,0,1-5.1,1.2,3.6,3.6,0,0,0,2.5-3c0-.9-1.2-7.3-.8-11.5s1-10.7-.3-16-2.5-12.2-2.5-12.2l7.2,4.4,2,2.9c-.2,1.8-.4,3.6-.5,5.3S383.2,286.1,385.5,293.7Z"/><path class="cls-24" d="M353.7,218.9s.6,7.6,3.1,8.1,1.9-2.7,1.9-2.7l-.3-3.6Z"/><path class="cls-21" d="M365.3,246.3c-4.9-.6-3.1-5.4-2.4-6.5l1-.3h.1l.3-.6a11.9,11.9,0,0,0,.3-3.9h0v-.5c.1-.3.1-.6.2-.8l2.6-2.1,5.4-4.2s-1.4,7.1-.2,11.6a1.2,1.2,0,0,0,.7,1.1h0l.5.2C375.2,241,373.3,247.2,365.3,246.3Z"/><path class="cls-25" d="M369.6,231.9a8.3,8.3,0,0,1-5.3,7,11.9,11.9,0,0,0,.3-3.9l2.2-1.7Z"/><path class="cls-21" d="M354.9,220s1.1,15.6,5.4,17a10.9,10.9,0,0,0,9.2-4.7c1.1-1.5,2.6-1.9,3-3.7s1.8-8.3.5-11.6S355.1,208.6,354.9,220Z"/><path class="cls-17" d="M371.5,214.6a4.5,4.5,0,0,0-2.9-3.9c-2.9-1.4-8.9-.8-15,.6-1.5.3-3.3-.6-4.3.1s0,4.7,0,4.7c2.4,7.2,11.1,4.8,13.7,4,.7,1.8.6,4.4,2.1,5.7s2.5.8,4,.5.9.7,1.1,1.2a25.7,25.7,0,0,1,.4,6.3l.7-.3C371.4,232.9,379.1,214.8,371.5,214.6Z"/><path class="cls-26" d="M359.3,225.3a2.1,2.1,0,0,1-1.5,2.6c-1,.2-2-.7-2.2-2a2.2,2.2,0,0,1,1.4-2.7C358,223,359,224,359.3,225.3Z"/><path class="cls-26" d="M364.4,224.3a2.3,2.3,0,0,1-1.5,2.7,2.3,2.3,0,0,1-2.2-2.1c-.2-1.3.4-2.5,1.4-2.6S364.1,223,364.4,224.3Z"/><path class="cls-26" d="M359.3,225.3s.2-.4,1.4-.3"/><line class="cls-26" x1="364.4" y1="224.6" x2="368.8" y2="223.9"/><path class="cls-21" d="M369.1,229.5c3,1.1,3.9-6.3,1.1-6.6s-2.3,2.8-2.3,2.8S367.4,228.8,369.1,229.5Z"/><g class="cls-27"><path class="cls-25" d="M370.1,224a4.5,4.5,0,0,0-.7,1.8c0,.6.1,1.3.1,2a2.4,2.4,0,0,1-.6-.9,5,5,0,0,1-.2-1.2,3.6,3.6,0,0,1,.4-1.1A2.1,2.1,0,0,1,370.1,224Z"/><path class="cls-25" d="M370.6,225.4a1.1,1.1,0,0,0-.8.5,1.6,1.6,0,0,0-.4.7l-.6-.2a1.1,1.1,0,0,1,.7-.8A2.2,2.2,0,0,1,370.6,225.4Z"/></g><path class="cls-21" d="M398,280.9h0c-1.3,1.6-6.3,2.7-8.7.6-.8-.7-1.6-2.5-2.5-4.7-2.1-5.7-4.2-14.1-4.2-14.1l11.3-5.8,2.7,12.7v.2l1.1,5.5v.2A20.9,20.9,0,0,1,398,280.9Z"/><path class="cls-5" d="M378.4,254.8c1.1,4.5,4.5,13.1,4.5,13.1a18.2,18.2,0,0,0,8.2-1,15.3,15.3,0,0,0,5.3-3.4s-2.3-6.4-4.3-10.9-2.9-5.7-3.7-6.5a17.3,17.3,0,0,0-4.5-3.3Z"/><path class="cls-5" d="M392.6,257.8l-6.6-2.9-5.2-13.4,2.2.8h.3c1.1.6,5.5,3.1,8.5,12.4v.3a16.4,16.4,0,0,1,.7,2.3c0,.1,0,.1.1.2Z"/><path class="cls-21" d="M398,280.9h0a2.3,2.3,0,0,1-.7,1.7l-1.1.6a50.3,50.3,0,0,1-6.9,3.6,253.7,253.7,0,0,1-24.3,8.7s-.6-1.6-1.5-3.4a57.2,57.2,0,0,0,10.5-6.5c5.3-3.9,12.8-8.8,12.8-8.8l1.9-2.2s6.8-6.3,7.9-5v.2a55.6,55.6,0,0,1,1.1,5.5v.2A20.9,20.9,0,0,1,398,280.9Z"/><path class="cls-21" d="M364.3,291.7a4.9,4.9,0,0,1-2.7.6,16.6,16.6,0,0,0-1.6-.6,14.7,14.7,0,0,1-2.7-.6c-.8-.4-1.1-.4-1,.3s1.4,1.4,1.8,1.6a2.5,2.5,0,0,1,.9.9c.1.1-2.3,1.4-3,1.1a2,2,0,0,0-.1.9c.1.3.6.5.7.6a2.1,2.1,0,0,0,0,.8c.1.2.5.2.7.7s0,.4.1.8.7.6.8.8.1.5.3.7a16.2,16.2,0,0,0,3.2-.9c.8-.4,3-3.5,5.4-4.5Z"/><path class="cls-28" d="M375.5,305.5H358.4v-1.7h17.1a.8.8,0,0,1,.8.9h0A.8.8,0,0,1,375.5,305.5Z"/><path class="cls-28" d="M366.2,305.5H323.5a1.1,1.1,0,0,1-1.1-.8l-8.8-31.5a1.1,1.1,0,0,1,1.1-1.4H356a2.2,2.2,0,0,1,2.1,1.5l8.7,31.5A.6.6,0,0,1,366.2,305.5Z"/><path class="cls-29" d="M364.7,305.5H321.9a1.2,1.2,0,0,1-1.1-.8l-8.7-31.5a1.1,1.1,0,0,1,1-1.4h41.4a2.2,2.2,0,0,1,2.1,1.5l8.7,31.5A.6.6,0,0,1,364.7,305.5Z"/><path class="cls-30" d="M195.2,285.2l4.9-5.1a12.8,12.8,0,0,1,.5-2.8c.2-.4.9-2.2,1.3-2.4s1,0,1,0l1-.2.9.2h1.5l1.7-1.9c.6-.4,1.5-1.3,1.8-1.3s.3.5.1.9a3.3,3.3,0,0,1-.9,1.2l-2.3,3.5.6-.3,1.7-1.5c.1,0,.7-.5,1,0s-2.3,3.6-2.8,4.1a26,26,0,0,1-2.9,1.7s-2.6,4.7-2.9,5S195.2,285.2,195.2,285.2Z"/><path class="cls-30" d="M199.8,261.7s-2.7,16-5.3,16.4c0,0-10.4.4-12.8-12.2-2-10.9,6.1-13.3,9.9-12.4S200.6,254.9,199.8,261.7Z"/><path class="cls-30" d="M190.6,275.5s-1.4,2-1.9,6.8a15.2,15.2,0,0,1-8.3-1.5,61.5,61.5,0,0,0,2.4-14"/><path class="cls-17" d="M187.7,250.8c-5.7,1.2-5.2,4.8-5.2,4.8-2.7.6-3.2,1.7-3.2,6.7s1.8,10.8,2.8,11.2,6.5.5,7,.4,2.4-4.7,1.9-5.5,0-3.9,1.3-4,1.1,1.9,1.1,1.9l1-.3.8-2c7.6.5,9.5-8.1,9.5-8.1C202.9,254.7,193.4,249.5,187.7,250.8Z"/><path class="cls-21" d="M124.6,359.3l5.8.9-1.9,6.7-6.3-1.6a4.1,4.1,0,0,1,1.3-6A4,4,0,0,1,124.6,359.3Z"/><path class="cls-20" d="M167.5,342.1,159,316.4s-2.5-.9-3.8,0-8.9,4.8-7.9,18.3a213.6,213.6,0,0,0,3.7,25.7l-22.6-.8a7.6,7.6,0,0,0-1,7.6s28.4,7.6,32.4,8.3,6.8,1.1,8.6-.4S167.5,342.1,167.5,342.1Z"/><path class="cls-21" d="M151.4,359.3l5.7.9-1.9,6.7-6.2-1.6a4.1,4.1,0,0,1,1.3-6A4,4,0,0,1,151.4,359.3Z"/><path class="cls-17" d="M149.3,362.8c-.1,1.4,1,2.6.8,2.9l-4.1,6.8s3,1.3,2.5,3.1h-7.4a6.2,6.2,0,0,1-1.9-4.2A21.2,21.2,0,0,1,141,366c1.4-2.6,4.3-8.3,4.3-8.3a4.3,4.3,0,0,1,2.5,0,16.6,16.6,0,0,1,3.6,1.6S149.6,359.6,149.3,362.8Z"/><path class="cls-20" d="M208.5,369.7c-1.9-6.8-19-35.8-24.8-43.7-11.9-5.2-24.7-9.6-24.7-9.6-5.2,1.3-7.8,11.9-4.8,18.9,2,4.9,15,17.1,22.9,24.3h-22s-2.6,3.9-.2,7.6c0,0,36.6,8.3,39.8,8.8s10.5,0,10.5,0S210,375.4,208.5,369.7Z"/><path class="cls-17" d="M122.5,362.8c-.1,1.4,1.1,2.6.9,2.9s-4.1,6.8-4.1,6.8,2.9,1.3,2.4,3.1h-7.4a5.8,5.8,0,0,1-1.8-4.2,21.2,21.2,0,0,1,1.8-5.4l4.3-8.3a4.1,4.1,0,0,1,2.5,0,14.7,14.7,0,0,1,3.5,1.6S122.9,359.6,122.5,362.8Z"/><path class="cls-30" d="M236.1,280.2,224.2,301l-8.4-8.4-7,10.4,2,1-.7.6s16.3,7.9,18.3,6.2,11-28.2,11-28.2Z"/><path class="cls-31" d="M217.3,293.9s-2.3,9.4-6.7,13.9l-11.4-4.4s-5.3,8.9-10.5,15.8c-2,2.6-2.7,6.3-5,6.8h-.5c-6.3-1.9-15.7.1-23.4-2.8s-6.9-4.9-6.9-4.9A110.5,110.5,0,0,0,161,299a102.6,102.6,0,0,0,2.9-11.6,13.3,13.3,0,0,1,11.2-10.8h.2c6.4-.8,23.4,1.2,26.7,2.6S217.3,293.9,217.3,293.9Z"/><path class="cls-10" d="M199.2,303.4s-5.3,8.9-10.5,15.8c-2,2.6-2.7,6.3-5,6.8,1-.4,2.7-5.7,3.3-7s1.6-2.4,3.7-6.6,4.9-10.5,4.9-10.5Z"/><path d="M177.1,359.6a10.3,10.3,0,0,1,3-.4l2.9.2a15.5,15.5,0,0,1,5.5,1.8l-2.8-.4-2.9-.4Z"/><path class="cls-30" d="M244.9,272.6c-.2-.1-1.4.9-2,1.4l.7-1.3,1.2-1.3c.3-.5.1-1-.1-1a9.1,9.1,0,0,0-1.9,1.3l.2-.2a11,11,0,0,0,1.2-1.4c.3-.4.1-.9-.1-.9s-2.3,1.7-2.3,1.7l-1,1.3.7-1.5a4.2,4.2,0,0,0,.7-1c.2-.5.1-.7-.1-.8s-1.5.8-1.9,1.2l-1.5,2.3-1.2,2.4c-.1-.7-.2-1.9-.3-2.6s-1.1-1.4-1.1-.8a23.9,23.9,0,0,0-.4,4.5c.1,1.4.3,2.4.4,3.1a6.3,6.3,0,0,1-.7,2.4s3.3,2.1,3.8,1.5,1.7-2,2.3-2.9a19.3,19.3,0,0,0,1.2-2.9l1.1-2.2a11,11,0,0,0,1.2-1.4C245.3,273.1,245.1,272.6,244.9,272.6Z"/><path class="cls-32" d="M433.7,206.3H395.2a4.5,4.5,0,0,0-4.5,4.5v9.1a4.5,4.5,0,0,0,3.9,4.5.6.6,0,0,1,.6.6v5a.3.3,0,0,0,.5.2l3.9-5.5a.6.6,0,0,1,.6-.3h33.5a4.5,4.5,0,0,0,4.5-4.5v-9.1A4.5,4.5,0,0,0,433.7,206.3Z"/><path class="cls-32" d="M401.1,215.4a1.5,1.5,0,0,1-3,0,1.5,1.5,0,1,1,3,0Z"/><path class="cls-32" d="M408.5,215.4a1.5,1.5,0,0,1-3,0,1.5,1.5,0,1,1,3,0Z"/><path class="cls-32" d="M415.9,215.4a1.4,1.4,0,0,1-1.5,1.4,1.4,1.4,0,0,1-1.4-1.4,1.5,1.5,0,0,1,1.4-1.5A1.5,1.5,0,0,1,415.9,215.4Z"/><path class="cls-32" d="M423.3,215.4a1.4,1.4,0,0,1-1.4,1.4,1.5,1.5,0,0,1-1.5-1.4,1.5,1.5,0,0,1,1.5-1.5A1.5,1.5,0,0,1,423.3,215.4Z"/><path class="cls-32" d="M430.8,215.4a1.5,1.5,0,0,1-3,0,1.5,1.5,0,0,1,3,0Z"/><path class="cls-32" d="M128.9,246.3h38.6a4.5,4.5,0,0,1,4.4,4.5v9.1a4.4,4.4,0,0,1-3.9,4.4.7.7,0,0,0-.5.7v5c0,.3-.4.4-.6.1l-3.9-5.5-.5-.2H128.9a4.5,4.5,0,0,1-4.5-4.5v-9.1A4.5,4.5,0,0,1,128.9,246.3Z"/><path class="cls-32" d="M161.5,255.3a1.5,1.5,0,1,0,1.5-1.5A1.5,1.5,0,0,0,161.5,255.3Z"/><path class="cls-32" d="M154.1,255.3a1.5,1.5,0,1,0,1.5-1.5A1.5,1.5,0,0,0,154.1,255.3Z"/><path class="cls-32" d="M146.7,255.3a1.5,1.5,0,1,0,1.5-1.5A1.5,1.5,0,0,0,146.7,255.3Z"/><path class="cls-32" d="M139.3,255.3a1.5,1.5,0,0,0,1.5,1.5,1.5,1.5,0,0,0,0-3A1.5,1.5,0,0,0,139.3,255.3Z"/><path class="cls-32" d="M131.9,255.3a1.5,1.5,0,0,0,1.4,1.5,1.5,1.5,0,0,0,0-3A1.5,1.5,0,0,0,131.9,255.3Z"/><path class="cls-33" d="M361.9,185.3H291.6a7,7,0,0,1-7.1-7h0a7,7,0,0,1,7.1-7h70.3a7,7,0,0,1,7,7h0A7,7,0,0,1,361.9,185.3Z"/><path class="cls-34" d="M360.8,177.8a3.6,3.6,0,0,1-3.7,3.7,3.7,3.7,0,0,1-3.7-3.7,3.8,3.8,0,0,1,3.7-3.7A3.7,3.7,0,0,1,360.8,177.8Z"/><line class="cls-35" x1="359.8" y1="180.5" x2="361.8" y2="182.5"/><rect class="cls-36" x="232.1" y="347.4" width="28.9" height="28.9" rx="5.6"/><rect class="cls-3" x="226.8" y="347.4" width="28.9" height="28.9" rx="5.6"/><path class="cls-5" d="M237.8,356.4l8.3,4.8a.8.8,0,0,1,0,1.3l-8.3,4.8a.7.7,0,0,1-1.1-.7v-9.5A.7.7,0,0,1,237.8,356.4Z"/><rect class="cls-36" x="407.9" y="338.5" width="37.8" height="37.78" rx="7.3"/><rect class="cls-37" x="401" y="338.5" width="37.8" height="37.78" rx="7.3"/><path class="cls-5" d="M424.4,347.8a4.5,4.5,0,1,1-9,0,4.5,4.5,0,1,1,9,0Z"/><path class="cls-5" d="M429.4,363.2v6.7a1,1,0,0,1-1.1,1H411.5a1,1,0,0,1-1.1-1v-6.7a9.5,9.5,0,0,1,9.5-9.5h0A9.5,9.5,0,0,1,429.4,363.2Z"/><path class="cls-38" d="M335.4,193.4H320.6a1.1,1.1,0,0,1-1.1-1.1h0a1.1,1.1,0,0,1,1.1-1.1h14.8a1.1,1.1,0,0,1,1.1,1.1h0A1.1,1.1,0,0,1,335.4,193.4Z"/><path class="cls-38" d="M350.3,193.4H339.5a1.1,1.1,0,0,1-1.1-1.1h0a1.1,1.1,0,0,1,1.1-1.1h10.8a1.1,1.1,0,0,1,1.1,1.1h0A1.1,1.1,0,0,1,350.3,193.4Z"/><path class="cls-38" d="M326.9,198.3h-6.3a1.1,1.1,0,0,1-1.1-1.1h0a1.1,1.1,0,0,1,1.1-1.1h6.3a1.1,1.1,0,0,1,1.1,1.1h0A1.1,1.1,0,0,1,326.9,198.3Z"/><path class="cls-38" d="M350.3,198.3H330.6a1.1,1.1,0,0,1-1.1-1.1h0a1.1,1.1,0,0,1,1.1-1.1h19.7a1.1,1.1,0,0,1,1.1,1.1h0A1.1,1.1,0,0,1,350.3,198.3Z"/><path class="cls-38" d="M340.1,203.2H320.6a1.1,1.1,0,0,1-1.1-1.1h0a1.1,1.1,0,0,1,1.1-1.1h19.5a1.1,1.1,0,0,1,1.2,1.1h0A1.1,1.1,0,0,1,340.1,203.2Z"/><path class="cls-38" d="M350.3,203.2H344a1.1,1.1,0,0,1-1.1-1.1h0A1.1,1.1,0,0,1,344,201h6.3a1.1,1.1,0,0,1,1.1,1.1h0A1.1,1.1,0,0,1,350.3,203.2Z"/><rect class="cls-36" x="92.7" y="275.7" width="57.4" height="31.73" rx="2.8"/><line class="cls-39" x1="95.2" y1="280" x2="147.7" y2="280"/><circle class="cls-5" cx="146.3" cy="277.8" r="0.6"/><circle class="cls-5" cx="143" cy="277.8" r="0.6"/><circle class="cls-5" cx="139.7" cy="277.8" r="0.6"/><path class="cls-40" d="M104.9,284.2H96a.9.9,0,0,1-.8-.9h0a.9.9,0,0,1,.8-.8h8.9a.9.9,0,0,1,.9.8h0A.9.9,0,0,1,104.9,284.2Z"/><path class="cls-40" d="M104.9,288.3H96a.9.9,0,0,1-.8-.9h0a.9.9,0,0,1,.8-.9h8.9a.9.9,0,0,1,.9.9h0A.9.9,0,0,1,104.9,288.3Z"/><path class="cls-40" d="M104.9,292.3H96a.8.8,0,0,1-.8-.8h0a.9.9,0,0,1,.8-.9h8.9a.9.9,0,0,1,.9.9h0A.8.8,0,0,1,104.9,292.3Z"/><path class="cls-40" d="M104.9,296.4H96a.9.9,0,0,1-.8-.9h0a.9.9,0,0,1,.8-.9h8.9a.9.9,0,0,1,.9.9h0A.9.9,0,0,1,104.9,296.4Z"/><path class="cls-40" d="M104.9,300.5H96a.9.9,0,0,1-.8-.9h0a.9.9,0,0,1,.8-.9h8.9a.9.9,0,0,1,.9.9h0A.9.9,0,0,1,104.9,300.5Z"/><path class="cls-40" d="M104.9,304.5H96a.9.9,0,0,1-.8-.9h0a.9.9,0,0,1,.8-.8h8.9a.9.9,0,0,1,.9.8h0A.9.9,0,0,1,104.9,304.5Z"/><path class="cls-41" d="M146.8,284.2H108.4a.9.9,0,0,1-.9-.9h0a.9.9,0,0,1,.9-.8h38.4a.9.9,0,0,1,.9.8h0A.9.9,0,0,1,146.8,284.2Z"/><path class="cls-41" d="M146.8,288.3H108.4a.9.9,0,0,1-.9-.9h0a.9.9,0,0,1,.9-.9h38.4a.9.9,0,0,1,.9.9h0A.9.9,0,0,1,146.8,288.3Z"/><path class="cls-41" d="M146.8,292.3H108.4a.8.8,0,0,1-.9-.8h0a.9.9,0,0,1,.9-.9h38.4a.9.9,0,0,1,.9.9h0A.8.8,0,0,1,146.8,292.3Z"/><path class="cls-41" d="M146.8,296.4H108.4a.9.9,0,0,1-.9-.9h0a.9.9,0,0,1,.9-.9h38.4a.9.9,0,0,1,.9.9h0A.9.9,0,0,1,146.8,296.4Z"/><path class="cls-41" d="M146.8,300.5H108.4a.9.9,0,0,1-.9-.9h0a.9.9,0,0,1,.9-.9h38.4a.9.9,0,0,1,.9.9h0A.9.9,0,0,1,146.8,300.5Z"/><path class="cls-41" d="M146.8,304.5H108.4a.9.9,0,0,1-.9-.9h0a.9.9,0,0,1,.9-.8h38.4a.9.9,0,0,1,.9.8h0A.9.9,0,0,1,146.8,304.5Z"/><circle class="cls-2" cx="393.5" cy="136.1" r="23.6" transform="translate(169.4 487.1) rotate(-76.5)"/><circle class="cls-7" cx="393.5" cy="136.1" r="20.5" transform="translate(-21.4 170.9) rotate(-23.9)"/><path class="cls-5" d="M395.4,136.1a1.9,1.9,0,1,1-1.9-1.8A1.9,1.9,0,0,1,395.4,136.1Z"/><path class="cls-5" d="M393.3,135.8h0a.7.7,0,0,1-.8-.3l-6-10.9a.6.6,0,0,1,.2-.8h0a.7.7,0,0,1,.8.3l6,10.9A.6.6,0,0,1,393.3,135.8Z"/><path class="cls-5" d="M393.8,136.4h0a.6.6,0,0,1,.8,0l5.3,5.3a.6.6,0,0,1,0,.8h0a.7.7,0,0,1-.9,0l-5.2-5.2A.8.8,0,0,1,393.8,136.4Z"/><line class="cls-42" x1="393.6" y1="119.7" x2="393.6" y2="117.3"/><line class="cls-42" x1="410" y1="136.3" x2="412.3" y2="136.3"/><line class="cls-42" x1="393.4" y1="152.6" x2="393.4" y2="154.9"/><line class="cls-42" x1="377.1" y1="136" x2="374.7" y2="136"/><g class="cls-27"><line class="cls-43" x1="385.4" y1="121.8" x2="384.2" y2="119.8"/><line class="cls-43" x1="407.8" y1="128" x2="409.9" y2="126.8"/><line class="cls-43" x1="401.6" y1="150.4" x2="402.8" y2="152.5"/><line class="cls-43" x1="379.2" y1="144.2" x2="377.2" y2="145.4"/></g><g class="cls-27"><line class="cls-43" x1="379.3" y1="127.8" x2="377.3" y2="126.6"/><line class="cls-43" x1="401.8" y1="121.9" x2="403" y2="119.9"/><line class="cls-43" x1="407.7" y1="144.5" x2="409.7" y2="145.6"/><line class="cls-43" x1="385.2" y1="150.3" x2="384" y2="152.4"/></g><rect class="cls-36" x="79.8" y="215.2" width="39.9" height="39.87" rx="7"/><rect class="cls-44" x="76.7" y="211.7" width="39.9" height="39.87" rx="5.6"/><path class="cls-6" d="M103.6,227.1h-.2v-2.3a6.8,6.8,0,0,0-13.6,0v2.3h-.1a2,2,0,0,0-1.9,1.9v8.6a1.9,1.9,0,0,0,1.9,1.9h13.9a1.9,1.9,0,0,0,1.9-1.9V229A2,2,0,0,0,103.6,227.1Zm-12.1-2.3a5.1,5.1,0,0,1,5.1-5.1,5,5,0,0,1,5,5.1v2.3H91.5Z"/><path class="cls-45" d="M98.9,231.5a2.2,2.2,0,0,0-2.7-2.1,2.1,2.1,0,0,0-1.7,1.7,2.2,2.2,0,0,0,1,2.3.4.4,0,0,1,.2.5l-.3,1.4a1.3,1.3,0,0,0,1.2,1.7,1.3,1.3,0,0,0,1.3-1.7l-.4-1.4c0-.2.1-.4.3-.4A2.4,2.4,0,0,0,98.9,231.5Z"/><path class="cls-6" d="M104.6,242.5h-16a.8.8,0,0,1-.8-.8h0a.9.9,0,0,1,.8-.8h16a.9.9,0,0,1,.9.8h0A.8.8,0,0,1,104.6,242.5Z"/><path class="cls-6" d="M104.6,245.3h-16a.8.8,0,0,1-.8-.8h0a.8.8,0,0,1,.8-.8h16a.8.8,0,0,1,.9.8h0A.8.8,0,0,1,104.6,245.3Z"/><rect class="cls-36" x="407.4" y="278.5" width="23.5" height="23.47" rx="4.1"/><rect class="cls-46" x="405.5" y="276.4" width="23.5" height="23.47" rx="3.3"/><path class="cls-5" d="M412.5,295.2h-.2a.8.8,0,0,1-.5-.9l3.6-12.5a.7.7,0,1,1,1.4.4l-3.6,12.5C413.2,295,412.9,295.2,412.5,295.2Z"/><path class="cls-5" d="M418.5,295.2h-.2a.7.7,0,0,1-.5-.9l3.5-12.5a.7.7,0,1,1,1.4.4l-3.5,12.5A.7.7,0,0,1,418.5,295.2Z"/><path class="cls-5" d="M423.6,286H411a.7.7,0,1,1,0-1.4h12.6a.7.7,0,1,1,0,1.4Z"/><path class="cls-5" d="M423.6,291.8H411a.8.8,0,0,1-.7-.8.7.7,0,0,1,.7-.7h12.6a.7.7,0,0,1,.7.7A.8.8,0,0,1,423.6,291.8Z"/><path class="cls-38" d="M143.4,227.4h-9.1a1.1,1.1,0,0,1-1-1h0a1,1,0,0,1,1-1h9.1a.9.9,0,0,1,1,1h0A1,1,0,0,1,143.4,227.4Z"/><path class="cls-38" d="M152.6,231.8H134.3a1.1,1.1,0,0,1-1-1h0a1,1,0,0,1,1-1h18.3a1,1,0,0,1,1,1h0A1.1,1.1,0,0,1,152.6,231.8Z"/><path class="cls-38" d="M136.5,236.2h-2.2a1,1,0,0,1-1-1h0a1.1,1.1,0,0,1,1-1h2.2a1.1,1.1,0,0,1,1,1h0A1,1,0,0,1,136.5,236.2Z"/><path class="cls-38" d="M152.6,236.2H139.9a.9.9,0,0,1-1-1h0a1,1,0,0,1,1-1h12.7a1.1,1.1,0,0,1,1,1h0A1,1,0,0,1,152.6,236.2Z"/><path class="cls-38" d="M152.6,227.4h-5.5a1,1,0,0,1-1-1h0a.9.9,0,0,1,1-1h5.5a1,1,0,0,1,1,1h0A1.1,1.1,0,0,1,152.6,227.4Z"/><path class="cls-5" d="M101.3,363.3a5.7,5.7,0,0,0-3.2.9,6.8,6.8,0,0,0-13.6.7c0,.3.1.5.1.8h-1a5.2,5.2,0,0,0-5.2,5.2,5.3,5.3,0,0,0,5.2,5.2h17.7a6.4,6.4,0,0,0,6.4-6.4A6.4,6.4,0,0,0,101.3,363.3Z"/><path class="cls-6" d="M56.3,336a5.3,5.3,0,0,1,.1-2.8,28.7,28.7,0,0,0-.3-15.4c-3.4-10.6-17.2-20-17.2-20s3.7,15.7,6.8,22.3a89.8,89.8,0,0,0,8.4,13.4,6.6,6.6,0,0,1,1.2,2.7,117.6,117.6,0,0,1,1.9,22h1A120.2,120.2,0,0,0,56.3,336Z"/><path class="cls-47" d="M67.3,326.1a129.9,129.9,0,0,0,4-18.9s-12.4,10.2-13.4,18.1a26.7,26.7,0,0,0,.9,11,7,7,0,0,1,.3,2.9,104.7,104.7,0,0,0-.3,20.7h.9a105,105,0,0,1,.2-19.4,7.1,7.1,0,0,1,1.7-4.1A33.9,33.9,0,0,0,67.3,326.1Z"/><path class="cls-6" d="M79.8,306.8s-13.3,5-16.8,15.8a29.5,29.5,0,0,0-.3,15.9,4.2,4.2,0,0,1,0,2.7,120.5,120.5,0,0,0-3.1,25.6h1a122.5,122.5,0,0,1,3.1-25,8.2,8.2,0,0,1,1.6-3.4c2.2-3.1,6.1-8.6,8.3-13.4C76.8,318.2,79.8,306.8,79.8,306.8Z"/><path class="cls-47" d="M56.3,352.6a35.8,35.8,0,0,0-3-12,4.2,4.2,0,0,1-.3-2.2,21.8,21.8,0,0,0-.3-6.5c-1.1-5.3-8.2-16.8-18.4-17.5a76.9,76.9,0,0,1,5.3,10.4c2.3,6,5.6,12.3,11,14.7a4.3,4.3,0,0,1,2.2,2.2,36.2,36.2,0,0,1,2.6,11Z"/><path class="cls-6" d="M49.4,376H66.3l4.4-26.8a2,2,0,0,0-1.9-2.3H47a2,2,0,0,0-2,2.3Z"/></svg>