<?xml version="1.0" encoding="utf-8"?>
<!-- Generator: Adobe Illustrator 22.0.0, SVG Export Plug-In . SVG Version: 6.00 Build 0)  -->
<svg version="1.1" id="layer_1" xmlns="http://www.w3.org/2000/svg" xmlns:xlink="http://www.w3.org/1999/xlink" x="0px" y="0px"
	 viewBox="0 0 571.8 326" style="enable-background:new 0 0 571.8 326;" xml:space="preserve">
<style type="text/css">
	.st0{clip-path:url(#SVGID_2_);}
	.st1{fill:#A3BCCF;}
	.st2{fill:#FFBB00;}
	.st3{fill:#FFFFFF;}
	.st4{fill:#E6EDF1;}
	.st5{clip-path:url(#SVGID_2_);fill:#FFBB00;}
	.st6{fill:#00CF76;}
	.st7{fill:#00BB5F;}
	.st8{fill:#86A4B6;}
	.st9{fill:#291A6D;}
	.st10{fill:#CFE0E4;}
	.st11{fill:#FF3F54;}
	.st12{fill:#F3203F;}
	.st13{fill:#E7EDFF;}
	.st14{fill:#F1CDC2;}
	.st15{fill:#F7D0BD;}
	.st16{fill:#F2F2F2;}
	.st17{fill:#FFC520;}
	.st18{fill:#EAC6BB;}
	.st19{fill:#393082;}
	.st20{fill:#F12743;}
</style>
<g>
	<defs>
		<rect id="SVGID_1_" x="-187.3" y="-88.7" width="800" height="500"/>
	</defs>
	<clipPath id="SVGID_2_">
		<use xlink:href="#SVGID_1_"  style="overflow:visible;"/>
	</clipPath>
	<g class="st0">
		<path class="st1" d="M563.7,120.9h-150c-4.3,0-7.8-3.5-7.8-7.8V96.9c0-4.3,3.5-7.8,7.8-7.8h150c4.3,0,7.8,3.5,7.8,7.8v16.3
			C571.5,117.4,568,120.9,563.7,120.9z"/>
		<path class="st2" d="M480.3,112.4h-58.5c-3.8,0-7-3.1-7-7v0c0-3.8,3.1-7,7-7h58.5c3.9,0,7,3.2,7,7v0
			C487.3,109.3,484.1,112.4,480.3,112.4z"/>
		<g>
			<path class="st3" d="M545.1,104.3c0-1.5,1.3-2.8,2.8-2.8s2.8,1.3,2.8,2.8c0,1.5-1.3,2.8-2.8,2.8S545.1,105.9,545.1,104.3z"/>
			<path class="st3" d="M532.1,104.3c0-1.5,1.3-2.8,2.8-2.8c1.5,0,2.8,1.3,2.8,2.8c0,1.5-1.3,2.8-2.8,2.8
				C533.4,107.1,532.1,105.9,532.1,104.3z"/>
			<path class="st3" d="M519.2,104.3c0-1.5,1.3-2.8,2.8-2.8s2.8,1.3,2.8,2.8c0,1.5-1.3,2.8-2.8,2.8S519.2,105.9,519.2,104.3z"/>
		</g>
	</g>
	<g class="st0">
		<path class="st1" d="M563.7,153h-150c-4.3,0-7.8-3.5-7.8-7.8V129c0-4.3,3.5-7.8,7.8-7.8h150c4.3,0,7.8,3.5,7.8,7.8v16.3
			C571.5,149.5,568,153,563.7,153z"/>
		<path class="st2" d="M480.3,144.5h-58.5c-3.9,0-7-3.1-7-7v0c0-3.9,3.1-7,7-7h58.5c3.8,0,7,3.1,7,7v0
			C487.3,141.4,484.1,144.5,480.3,144.5z"/>
		<g>
			<path class="st3" d="M545.1,136.4c0-1.5,1.3-2.8,2.8-2.8s2.8,1.3,2.8,2.8c0,1.5-1.3,2.8-2.8,2.8S545.1,138,545.1,136.4z"/>
			<path class="st3" d="M532.1,136.4c0-1.5,1.3-2.8,2.8-2.8c1.5,0,2.8,1.3,2.8,2.8c0,1.5-1.3,2.8-2.8,2.8
				C533.4,139.2,532.1,138,532.1,136.4z"/>
			<path class="st3" d="M519.2,136.4c0-1.5,1.3-2.8,2.8-2.8s2.8,1.3,2.8,2.8c0,1.5-1.3,2.8-2.8,2.8S519.2,138,519.2,136.4z"/>
		</g>
	</g>
	<g class="st0">
		<path class="st1" d="M564,185.1H414c-4.3,0-7.8-3.5-7.8-7.8V161c0-4.3,3.5-7.8,7.8-7.8h150c4.3,0,7.8,3.5,7.8,7.8v16.3
			C571.8,181.6,568.3,185.1,564,185.1z"/>
		<path class="st2" d="M480.5,176.6H422c-3.9,0-7-3.1-7-7v0c0-3.8,3.1-7,7-7h58.5c3.8,0,7,3.1,7,7v0
			C487.5,173.4,484.4,176.6,480.5,176.6z"/>
		<g>
			<path class="st3" d="M545.3,168.5c0-1.5,1.3-2.8,2.8-2.8s2.8,1.3,2.8,2.8c0,1.5-1.3,2.8-2.8,2.8S545.3,170,545.3,168.5z"/>
			<path class="st3" d="M532.4,168.5c0-1.5,1.3-2.8,2.8-2.8c1.5,0,2.8,1.3,2.8,2.8c0,1.5-1.3,2.8-2.8,2.8
				C533.6,171.3,532.4,170,532.4,168.5z"/>
			<path class="st3" d="M519.4,168.5c0-1.5,1.3-2.8,2.8-2.8s2.8,1.3,2.8,2.8c0,1.5-1.3,2.8-2.8,2.8S519.4,170,519.4,168.5z"/>
		</g>
	</g>
	<g class="st0">
		<path class="st1" d="M563.8,217.3h-150c-4.3,0-7.8-3.5-7.8-7.8v-16.3c0-4.3,3.5-7.8,7.8-7.8h150c4.3,0,7.8,3.5,7.8,7.8v16.3
			C571.6,213.9,568.1,217.3,563.8,217.3z"/>
		<path class="st2" d="M480.3,208.8h-58.5c-3.9,0-7-3.1-7-7v0c0-3.8,3.1-7,7-7h58.5c3.8,0,7,3.1,7,7v0
			C487.3,205.7,484.2,208.8,480.3,208.8z"/>
		<g>
			<path class="st3" d="M545.1,200.7c0-1.5,1.3-2.8,2.8-2.8s2.8,1.3,2.8,2.8c0,1.5-1.3,2.8-2.8,2.8S545.1,202.3,545.1,200.7z"/>
			<path class="st3" d="M532.2,200.7c0-1.5,1.3-2.8,2.8-2.8c1.5,0,2.8,1.3,2.8,2.8c0,1.5-1.3,2.8-2.8,2.8
				C533.4,203.5,532.2,202.3,532.2,200.7z"/>
			<path class="st3" d="M519.2,200.7c0-1.5,1.3-2.8,2.8-2.8s2.8,1.3,2.8,2.8c0,1.5-1.3,2.8-2.8,2.8S519.2,202.3,519.2,200.7z"/>
		</g>
	</g>
	<g class="st0">
		<path class="st1" d="M563.7,249.5h-150c-4.3,0-7.8-3.5-7.8-7.8v-16.3c0-4.3,3.5-7.8,7.8-7.8h150c4.3,0,7.8,3.5,7.8,7.8v16.3
			C571.4,246.1,567.9,249.5,563.7,249.5z"/>
		<path class="st2" d="M480.2,241h-58.5c-3.8,0-7-3.1-7-7v0c0-3.9,3.1-7,7-7h58.5c3.9,0,7,3.1,7,7v0C487.2,237.9,484,241,480.2,241z
			"/>
		<g>
			<path class="st3" d="M545,233c0-1.5,1.3-2.8,2.8-2.8s2.8,1.3,2.8,2.8c0,1.5-1.3,2.8-2.8,2.8S545,234.5,545,233z"/>
			<path class="st3" d="M532,233c0-1.5,1.3-2.8,2.8-2.8c1.5,0,2.8,1.3,2.8,2.8c0,1.5-1.3,2.8-2.8,2.8C533.3,235.8,532,234.5,532,233
				z"/>
			<path class="st3" d="M519.1,233c0-1.5,1.3-2.8,2.8-2.8s2.8,1.3,2.8,2.8c0,1.5-1.3,2.8-2.8,2.8S519.1,234.5,519.1,233z"/>
		</g>
	</g>
	<g class="st0">
		<path class="st1" d="M563.7,281.7h-150c-4.3,0-7.8-3.5-7.8-7.8v-16.3c0-4.3,3.5-7.8,7.8-7.8h150c4.3,0,7.8,3.5,7.8,7.8v16.3
			C571.5,278.2,568,281.7,563.7,281.7z"/>
		<path class="st2" d="M480.3,273.2h-58.5c-3.8,0-7-3.1-7-7l0,0c0-3.9,3.1-7,7-7h58.5c3.9,0,7,3.1,7,7l0,0
			C487.3,270,484.1,273.2,480.3,273.2z"/>
		<g>
			<path class="st3" d="M545,265.1c0-1.5,1.3-2.8,2.8-2.8s2.8,1.3,2.8,2.8c0,1.5-1.3,2.8-2.8,2.8S545,266.6,545,265.1z"/>
			<path class="st3" d="M532.1,265.1c0-1.5,1.3-2.8,2.8-2.8c1.5,0,2.8,1.3,2.8,2.8c0,1.5-1.3,2.8-2.8,2.8
				C533.3,267.9,532.1,266.6,532.1,265.1z"/>
			<path class="st3" d="M519.1,265.1c0-1.5,1.3-2.8,2.8-2.8s2.8,1.3,2.8,2.8c0,1.5-1.3,2.8-2.8,2.8S519.1,266.6,519.1,265.1z"/>
		</g>
	</g>
	<g class="st0">
		<path class="st1" d="M311.2,0.8l9.4,14c0.5,0.8,0.3,1.9-0.5,2.4l-20.1,13.5c-0.8,0.5-1.9,0.3-2.4-0.5l-9.4-14
			c-0.5-0.8-0.3-1.9,0.5-2.4l20.1-13.5C309.6-0.2,310.7,0,311.2,0.8z"/>
		<path class="st4" d="M316.5,8.6l4.2,6.2c0.5,0.8,0.3,1.8-0.4,2.3L300,30.7c-0.8,0.5-1.8,0.3-2.3-0.4l-0.4-0.5l1.3-9
			c0.1-0.4,0.5-0.7,0.9-0.6l6.4,1.4c0.4,0.1,0.8-0.2,0.9-0.6l2.1-13.7c0.1-0.5,0.5-0.7,1-0.6L316.5,8.6z"/>
		<path class="st4" d="M297.6,14c-0.9-1.3-2.6-1.6-3.8-0.7c-1.3,0.9-1.6,2.6-0.7,3.8c0.9,1.3,2.6,1.6,3.8,0.7
			C298.2,17,298.5,15.3,297.6,14z"/>
	</g>
	<g class="st0">
		<path class="st4" d="M264.9,24.9l-12.4,6.5c-2.9,1.5-6.4,0.4-7.9-2.5l-6.5-12.4c-1.5-2.9-0.4-6.4,2.5-7.9l12.4-6.5
			c2.9-1.5,6.4-0.4,7.9,2.5l6.5,12.4C268.9,19.9,267.7,23.4,264.9,24.9z"/>
		<g>
			<path class="st1" d="M253.7,10.5c-1.1-2-3.6-2.8-5.6-1.7c-2,1.1-2.8,3.6-1.7,5.6c1.1,2,3.6,2.8,5.6,1.7
				C254,15,254.8,12.5,253.7,10.5z"/>
			<path class="st1" d="M252.5,17.1c-3.8,2-5.2,6.6-3.2,10.3l13.6-7.1C260.9,16.6,256.3,15.1,252.5,17.1z"/>
		</g>
	</g>
	<path class="st5" d="M265.6,19.1c0.3,1.2,0.8,2.4,1.4,3.4l-1.7,2.1l3,3l2.1-1.7c1,0.7,2.2,1.2,3.4,1.4L274,30h4.2l0.2-2.7
		c1.2-0.3,2.4-0.8,3.4-1.4l2.1,1.7l3-3l-1.7-2.1c0.7-1,1.2-2.2,1.4-3.4l2.7-0.2v-4.2l-2.7-0.2c-0.3-1.2-0.8-2.4-1.4-3.4l1.7-2.1
		l-3-3l-2.1,1.7c-1-0.7-2.2-1.2-3.4-1.4l-0.2-2.7H274l-0.2,2.7c-1.2,0.3-2.4,0.8-3.4,1.4l-2.1-1.7l-3,3L267,11
		c-0.7,1-1.2,2.2-1.4,3.4l-2.7,0.2v4.2L265.6,19.1z M270.5,16.7c0-3.1,2.5-5.7,5.7-5.7c3.1,0,5.7,2.5,5.7,5.7c0,3.1-2.5,5.7-5.7,5.7
		C273,22.4,270.5,19.9,270.5,16.7z"/>
	<g class="st0">
		<rect x="270.6" y="56.4" class="st6" width="12.4" height="28.8"/>
		<polygon class="st7" points="283,63.2 270.6,63.2 236.8,34.3 316.8,34.3 		"/>
		<path class="st6" d="M317,35.2h-80.3c-4,0-7.2-3.2-7.2-7.2l0,0c0-4,3.2-7.2,7.2-7.2H317c4,0,7.2,3.2,7.2,7.2l0,0
			C324.2,32,321,35.2,317,35.2z"/>
	</g>
	<g class="st0">
		<rect x="247.4" y="192.5" class="st8" width="40" height="82.1"/>
		<path class="st1" d="M322.9,285.5H211.8l0,0c6.6-12.7,19.8-20.6,34-20.6h43.1C303.2,265,316.3,272.9,322.9,285.5L322.9,285.5z"/>
		<path class="st1" d="M389.1,241.9H145.7c-4.3,0-7.8-3.5-7.8-7.8V81.2c0-4.3,3.5-7.8,7.8-7.8h243.4c4.3,0,7.8,3.5,7.8,7.8v152.9
			C396.8,238.4,393.4,241.9,389.1,241.9z"/>
		<path class="st3" d="M383.3,223.1H151.5c-2.2,0-4-1.8-4-4V86.7c0-2.2,1.8-4,4-4h231.8c2.2,0,4,1.8,4,4v132.3
			C387.3,221.3,385.5,223.1,383.3,223.1z"/>
	</g>
	<path class="st5" d="M147.5,85.8v19.5h239.8V85.8c0-2.2-1.8-4-4-4H151.5C149.2,81.8,147.5,83.6,147.5,85.8z"/>
	<g class="st0">
		<path class="st3" d="M181.4,94.6c0-1.5,1.3-2.8,2.8-2.8s2.8,1.3,2.8,2.8c0,1.5-1.3,2.8-2.8,2.8S181.4,96.1,181.4,94.6z"/>
		<path class="st3" d="M168.4,94.6c0-1.5,1.3-2.8,2.8-2.8c1.5,0,2.8,1.3,2.8,2.8c0,1.5-1.3,2.8-2.8,2.8
			C169.7,97.4,168.4,96.1,168.4,94.6z"/>
		<path class="st3" d="M155.5,94.6c0-1.5,1.3-2.8,2.8-2.8c1.5,0,2.8,1.3,2.8,2.8c0,1.5-1.3,2.8-2.8,2.8
			C156.7,97.4,155.5,96.1,155.5,94.6z"/>
	</g>
	<g class="st0">
		<path class="st3" d="M363.2,94.6c0-4.4,3.6-8,8-8c4.4,0,8,3.6,8,8s-3.6,8-8,8C366.8,102.6,363.2,99,363.2,94.6z"/>
		<g>
			<path class="st9" d="M367.7,98.7c0.2,0,0.3-0.1,0.4-0.2l6.9-6.9c0.2-0.2,0.2-0.6,0-0.8c-0.2-0.2-0.6-0.2-0.8,0l-6.9,6.9
				c-0.2,0.2-0.2,0.6,0,0.9C367.4,98.6,367.6,98.7,367.7,98.7z"/>
			<path class="st9" d="M374.6,98.7c0.2,0,0.3-0.1,0.4-0.2c0.2-0.2,0.2-0.6,0-0.9l-6.9-6.9c-0.2-0.2-0.6-0.2-0.9,0
				c-0.2,0.2-0.2,0.6,0,0.8l6.9,6.9C374.3,98.6,374.5,98.7,374.6,98.7z"/>
		</g>
	</g>
	<g class="st0">
		<g>
			<path class="st10" d="M251.4,159.9c0.2-0.1,0.4-0.1,0.5-0.2v-37.5c-0.2,0.2-0.4,0.3-0.6,0.5L251.4,159.9
				C251.4,159.9,251.4,159.9,251.4,159.9z"/>
			<path class="st10" d="M250,160v-36c-0.1,0.2-0.3,0.3-0.4,0.5c0,0.1-0.1,0.1-0.1,0.2V160H250z"/>
			<path class="st10" d="M248.1,160v-33.9c-0.2,0.2-0.4,0.3-0.6,0.5V160H248.1z"/>
			<path class="st10" d="M246.1,160v-31.2c-0.2,0.2-0.4,0.4-0.6,0.6V160H246.1z"/>
			<path class="st10" d="M244.2,160v-29.4c-0.2,0.2-0.4,0.3-0.6,0.5V160H244.2z"/>
			<path class="st10" d="M242.3,160v-28.2c-0.2,0.1-0.4,0.1-0.6,0.2v28H242.3z"/>
			<path class="st10" d="M240.3,160v-28.1c-0.2-0.1-0.4-0.1-0.6-0.2V160H240.3z"/>
			<path class="st10" d="M238.4,160v-28.9c0,0,0,0,0,0c-0.2-0.1-0.4-0.1-0.6-0.2V160H238.4z"/>
			<path class="st10" d="M236.4,160v-29.7c-0.2-0.1-0.4-0.2-0.6-0.3v30H236.4z"/>
			<path class="st10" d="M234.5,160v-30.7c-0.1,0-0.2-0.1-0.2-0.1c-0.1,0.1-0.2,0.2-0.3,0.3V160H234.5z"/>
			<path class="st10" d="M232.5,160v-29.6c-0.2,0.2-0.4,0.4-0.6,0.6v29H232.5z"/>
			<path class="st10" d="M230.6,160v-27.4c-0.2,0.2-0.4,0.5-0.6,0.7V160H230.6z"/>
			<path class="st10" d="M228.6,160v-25.2c-0.2,0.2-0.4,0.5-0.6,0.7V160H228.6z"/>
			<path class="st10" d="M226.7,160v-22.5c-0.2,0.3-0.4,0.6-0.6,0.8V160H226.7z"/>
			<path class="st10" d="M224.7,160v-19.9c-0.1,0.1-0.1,0.2-0.2,0.3c-0.1,0.1-0.2,0.2-0.4,0.3V160H224.7z"/>
			<path class="st10" d="M222.8,160v-17.3c-0.2,0.3-0.4,0.6-0.6,0.8V160H222.8z"/>
			<path class="st10" d="M220.9,160v-14.8c0,0-0.1,0.1-0.1,0.1c-0.2,0.2-0.3,0.5-0.5,0.7v14H220.9z"/>
			<path class="st10" d="M218.9,160v-11.8c-0.2,0.3-0.4,0.6-0.6,0.8V160H218.9z"/>
			<path class="st10" d="M217,160v-8.8c-0.2,0.2-0.4,0.4-0.6,0.5v8.3H217z"/>
			<path class="st10" d="M215,160v-8.2c-0.2-0.1-0.4-0.2-0.6-0.3v8.6H215z"/>
			<path class="st10" d="M213.1,160v-10.9c-0.2-0.2-0.4-0.4-0.6-0.6V160H213.1z"/>
			<path class="st10" d="M211.1,160v-13c-0.2-0.2-0.4-0.4-0.6-0.7c0,0,0,0,0,0V160H211.1z"/>
			<path class="st10" d="M209.2,160v-14.8c-0.2-0.2-0.4-0.4-0.6-0.6V160H209.2z"/>
			<path class="st10" d="M207.2,160v-16.5c-0.2-0.2-0.4-0.3-0.6-0.5v17H207.2z"/>
			<path class="st10" d="M205.3,160v-18.2c-0.2-0.2-0.4-0.4-0.6-0.7V160H205.3z"/>
			<path class="st10" d="M203.4,160v-20.9c-0.2-0.3-0.4-0.5-0.6-0.8V160H203.4z"/>
			<path class="st10" d="M201.4,160v-23.2c-0.2-0.2-0.4-0.3-0.6-0.5V160H201.4z"/>
			<path class="st10" d="M199.5,160v-24.5c-0.2-0.1-0.4-0.1-0.6-0.1V160H199.5z"/>
			<path class="st10" d="M197.5,160v-24.3c-0.2,0.1-0.4,0.2-0.6,0.3v24H197.5z"/>
			<path class="st10" d="M195.6,160v-22.8c-0.2,0.2-0.4,0.4-0.6,0.6V160H195.6z"/>
			<path class="st10" d="M193.6,160v-20.7c-0.2,0.2-0.4,0.4-0.6,0.7V160H193.6z"/>
			<path class="st10" d="M191.7,160v-18.4c-0.2,0.2-0.4,0.5-0.6,0.7V160H191.7z"/>
			<path class="st10" d="M189.7,160v-16c-0.2,0.2-0.4,0.5-0.6,0.7V160H189.7z"/>
			<path class="st10" d="M187.8,160v-13.8c-0.2,0.2-0.4,0.4-0.6,0.6V160H187.8z"/>
			<path class="st10" d="M185.9,160v-11.7c-0.2,0.2-0.3,0.4-0.6,0.6V160H185.9z"/>
			<path class="st10" d="M183.9,160v-10.8c-0.2,0-0.4,0-0.6-0.1V160H183.9z"/>
			<path class="st10" d="M182,160v-11.5c-0.2-0.1-0.4-0.3-0.6-0.4V160H182z"/>
			<path class="st10" d="M180,160v-13.2c-0.2-0.2-0.4-0.3-0.6-0.5V160H180z"/>
			<path class="st10" d="M178.1,160v-14.9c-0.2-0.2-0.4-0.3-0.6-0.4V160H178.1z"/>
			<path class="st10" d="M176.1,160v-16c-0.1,0-0.2-0.1-0.3-0.1c-0.1,0-0.2,0-0.3,0V160H176.1z"/>
			<path class="st10" d="M174.2,160v-16.1c-0.2,0.1-0.4,0.1-0.6,0.2V160H174.2z"/>
			<path class="st10" d="M172.2,160v-15.2c-0.2,0.1-0.4,0.2-0.6,0.3V160H172.2z"/>
			<path class="st10" d="M170.3,160v-13.9c-0.2,0.1-0.4,0.3-0.6,0.4V160H170.3z"/>
			<path class="st10" d="M168.4,160v-12.5c-0.2,0.2-0.4,0.3-0.6,0.5v12H168.4z"/>
			<path class="st10" d="M166.4,160v-10.8c-0.2,0.2-0.4,0.3-0.6,0.4V160H166.4z"/>
			<path class="st10" d="M163.9,159.5c0.1,0.2,0.3,0.2,0.5,0.3v-9.4c-0.2,0.1-0.4,0.2-0.6,0.2L163.9,159.5
				C163.9,159.5,163.9,159.5,163.9,159.5z"/>
		</g>
		<g>
			<rect x="167" y="124.6" class="st1" width="47.9" height="1.7"/>
			<rect x="167" y="120.8" class="st1" width="47.9" height="1.7"/>
			<rect x="167" y="124.6" class="st9" width="8.9" height="1.7"/>
			<rect x="167" y="120.8" class="st9" width="17.5" height="1.7"/>
			<path class="st9" d="M172.5,118.8h-4.9c-0.4,0-0.7-0.4-0.7-0.8l0,0c0-0.5,0.3-0.8,0.7-0.8h4.9c0.4,0,0.7,0.4,0.7,0.8l0,0
				C173.2,118.4,172.9,118.8,172.5,118.8z"/>
		</g>
		<path class="st11" d="M254.9,119.3l-5.5,0.8l2.6,1.4l-10.3,10.3l-9.2-3.4L216,151.9l-17.4-18.3l-14,15.9l-9.6-7.3l-11.2,8.5
			c-0.6,0.5-1,1.2-1,2l0,0l12.2-9.3l9.7,7.4l13.9-15.8l17.5,18.4l16.8-23.7l9.1,3.3l10.8-10.7l1.3,2.9L254.9,119.3z"/>
		<g>
			<path class="st12" d="M199.9,134.3c0-0.7-0.6-1.3-1.3-1.3c-0.7,0-1.3,0.6-1.3,1.3c0,0.7,0.6,1.3,1.3,1.3
				C199.4,135.6,199.9,135,199.9,134.3z"/>
			<path class="st12" d="M217.4,152.6c0-0.7-0.6-1.3-1.3-1.3c-0.7,0-1.3,0.6-1.3,1.3c0,0.7,0.6,1.3,1.3,1.3
				C216.8,153.9,217.4,153.3,217.4,152.6z"/>
			<path class="st12" d="M234,129.3c0-0.7-0.6-1.3-1.3-1.3c-0.7,0-1.3,0.6-1.3,1.3s0.6,1.3,1.3,1.3C233.4,130.5,234,130,234,129.3z"
				/>
			<path class="st12" d="M243.1,132.5c0-0.7-0.6-1.3-1.3-1.3c-0.7,0-1.3,0.6-1.3,1.3c0,0.7,0.6,1.3,1.3,1.3
				C242.5,133.8,243.1,133.2,243.1,132.5z"/>
			<path class="st12" d="M176.3,143c0-0.8-0.6-1.4-1.3-1.4c-0.7,0-1.3,0.6-1.3,1.4c0,0.8,0.6,1.4,1.3,1.4
				C175.7,144.4,176.3,143.8,176.3,143z"/>
			<path class="st12" d="M185.9,150.1c0-0.7-0.6-1.3-1.3-1.3c-0.7,0-1.3,0.6-1.3,1.3c0,0.7,0.6,1.3,1.3,1.3
				C185.3,151.4,185.9,150.8,185.9,150.1z"/>
		</g>
	</g>
	<g class="st0">
		<path class="st4" d="M251.9,215.4h-87.3c-1.9,0-3.5-1.5-3.5-3.5v-39.2c0-1.9,1.5-3.5,3.5-3.5h87.3c1.9,0,3.5,1.5,3.5,3.5v39.2
			C255.4,213.8,253.8,215.4,251.9,215.4z"/>
		<rect x="207.3" y="173.8" class="st1" width="1" height="37.5"/>
		<g>
			<g>
				<path class="st1" d="M216,188c0-0.9-0.7-1.6-1.6-1.6c-0.9,0-1.6,0.7-1.6,1.6c0,0.9,0.7,1.6,1.6,1.6
					C215.3,189.5,216,188.8,216,188z"/>
				<path class="st1" d="M221.7,188c0-0.9-0.7-1.6-1.6-1.6c-0.9,0-1.6,0.7-1.6,1.6c0,0.9,0.7,1.6,1.6,1.6
					C221,189.5,221.7,188.8,221.7,188z"/>
				<path class="st1" d="M227.4,188c0-0.9-0.7-1.6-1.6-1.6c-0.9,0-1.6,0.7-1.6,1.6c0,0.9,0.7,1.6,1.6,1.6
					C226.7,189.5,227.4,188.8,227.4,188z"/>
				<path class="st1" d="M233.1,188c0-0.9-0.7-1.6-1.6-1.6c-0.9,0-1.6,0.7-1.6,1.6c0,0.9,0.7,1.6,1.6,1.6
					C232.4,189.5,233.1,188.8,233.1,188z"/>
				<path class="st1" d="M238.8,188c0-0.9-0.7-1.6-1.6-1.6c-0.9,0-1.6,0.7-1.6,1.6c0,0.9,0.7,1.6,1.6,1.6
					C238.1,189.5,238.8,188.8,238.8,188z"/>
				<path class="st1" d="M244.5,188c0-0.9-0.7-1.6-1.6-1.6c-0.9,0-1.6,0.7-1.6,1.6c0,0.9,0.7,1.6,1.6,1.6
					C243.8,189.5,244.5,188.8,244.5,188z"/>
				<path class="st1" d="M250.2,188c0-0.9-0.7-1.6-1.6-1.6c-0.9,0-1.6,0.7-1.6,1.6c0,0.9,0.7,1.6,1.6,1.6
					C249.5,189.5,250.2,188.8,250.2,188z"/>
				<path class="st1" d="M216,193.8c0-0.9-0.7-1.6-1.6-1.6c-0.9,0-1.6,0.7-1.6,1.6c0,0.9,0.7,1.6,1.6,1.6
					C215.3,195.4,216,194.7,216,193.8z"/>
				<path class="st1" d="M221.7,193.8c0-0.9-0.7-1.6-1.6-1.6c-0.9,0-1.6,0.7-1.6,1.6c0,0.9,0.7,1.6,1.6,1.6
					C221,195.4,221.7,194.7,221.7,193.8z"/>
				<path class="st1" d="M227.4,193.8c0-0.9-0.7-1.6-1.6-1.6c-0.9,0-1.6,0.7-1.6,1.6c0,0.9,0.7,1.6,1.6,1.6
					C226.7,195.4,227.4,194.7,227.4,193.8z"/>
				<path class="st1" d="M233.1,193.8c0-0.9-0.7-1.6-1.6-1.6c-0.9,0-1.6,0.7-1.6,1.6c0,0.9,0.7,1.6,1.6,1.6
					C232.4,195.4,233.1,194.7,233.1,193.8z"/>
				<path class="st1" d="M238.8,193.8c0-0.9-0.7-1.6-1.6-1.6c-0.9,0-1.6,0.7-1.6,1.6c0,0.9,0.7,1.6,1.6,1.6
					C238.1,195.4,238.8,194.7,238.8,193.8z"/>
				<path class="st1" d="M244.5,193.8c0-0.9-0.7-1.6-1.6-1.6c-0.9,0-1.6,0.7-1.6,1.6c0,0.9,0.7,1.6,1.6,1.6
					C243.8,195.4,244.5,194.7,244.5,193.8z"/>
				<path class="st1" d="M250.2,193.8c0-0.9-0.7-1.6-1.6-1.6c-0.9,0-1.6,0.7-1.6,1.6c0,0.9,0.7,1.6,1.6,1.6
					C249.5,195.4,250.2,194.7,250.2,193.8z"/>
				<circle class="st1" cx="214.4" cy="199.7" r="1.6"/>
				<path class="st1" d="M221.7,199.7c0-0.9-0.7-1.6-1.6-1.6c-0.9,0-1.6,0.7-1.6,1.6c0,0.9,0.7,1.6,1.6,1.6
					C221,201.2,221.7,200.5,221.7,199.7z"/>
				<path class="st1" d="M227.4,199.7c0-0.9-0.7-1.6-1.6-1.6c-0.9,0-1.6,0.7-1.6,1.6c0,0.9,0.7,1.6,1.6,1.6
					C226.7,201.2,227.4,200.5,227.4,199.7z"/>
				<circle class="st6" cx="231.5" cy="199.7" r="2.2"/>
				<circle class="st1" cx="237.2" cy="199.7" r="1.6"/>
				<path class="st1" d="M244.5,199.7c0-0.9-0.7-1.6-1.6-1.6c-0.9,0-1.6,0.7-1.6,1.6c0,0.9,0.7,1.6,1.6,1.6
					C243.8,201.2,244.5,200.5,244.5,199.7z"/>
				<path class="st1" d="M250.2,199.7c0-0.9-0.7-1.6-1.6-1.6c-0.9,0-1.6,0.7-1.6,1.6c0,0.9,0.7,1.6,1.6,1.6
					C249.5,201.2,250.2,200.5,250.2,199.7z"/>
				<path class="st1" d="M216,205.5c0-0.9-0.7-1.6-1.6-1.6c-0.9,0-1.6,0.7-1.6,1.6c0,0.9,0.7,1.6,1.6,1.6
					C215.3,207.1,216,206.4,216,205.5z"/>
				<path class="st1" d="M221.7,205.5c0-0.9-0.7-1.6-1.6-1.6c-0.9,0-1.6,0.7-1.6,1.6c0,0.9,0.7,1.6,1.6,1.6
					C221,207.1,221.7,206.4,221.7,205.5z"/>
				<path class="st1" d="M227.4,205.5c0-0.9-0.7-1.6-1.6-1.6c-0.9,0-1.6,0.7-1.6,1.6c0,0.9,0.7,1.6,1.6,1.6
					C226.7,207.1,227.4,206.4,227.4,205.5z"/>
				<path class="st1" d="M233.1,205.5c0-0.9-0.7-1.6-1.6-1.6c-0.9,0-1.6,0.7-1.6,1.6c0,0.9,0.7,1.6,1.6,1.6
					C232.4,207.1,233.1,206.4,233.1,205.5z"/>
				<path class="st1" d="M238.8,205.5c0-0.9-0.7-1.6-1.6-1.6c-0.9,0-1.6,0.7-1.6,1.6c0,0.9,0.7,1.6,1.6,1.6
					C238.1,207.1,238.8,206.4,238.8,205.5z"/>
			</g>
			<path class="st6" d="M222.9,181.2h-8.5c-0.9,0-1.6-0.7-1.6-1.6l0,0c0-0.9,0.7-1.6,1.6-1.6h8.5c0.9,0,1.6,0.7,1.6,1.6l0,0
				C224.6,180.4,223.8,181.2,222.9,181.2z"/>
			<path class="st6" d="M229.9,181.2h-1.6c-0.9,0-1.6-0.7-1.6-1.6l0,0c0-0.9,0.7-1.6,1.6-1.6h1.6c0.9,0,1.6,0.7,1.6,1.6l0,0
				C231.5,180.4,230.8,181.2,229.9,181.2z"/>
		</g>
		<g>
			<g>
				<rect x="165" y="182.5" class="st3" width="36.7" height="1.6"/>
				<rect x="165" y="179" class="st3" width="36.7" height="1.6"/>
				<rect x="165" y="182.5" class="st9" width="29.8" height="1.6"/>
				<rect x="165" y="179" class="st1" width="12.6" height="1.6"/>
				<path class="st9" d="M171.7,177h-5.8c-0.4,0-0.8-0.4-0.8-0.8l0,0c0-0.4,0.4-0.8,0.8-0.8h5.8c0.4,0,0.8,0.4,0.8,0.8l0,0
					C172.4,176.7,172.1,177,171.7,177z"/>
			</g>
			<g>
				<rect x="165" y="195.3" class="st3" width="36.7" height="1.6"/>
				<rect x="165" y="191.8" class="st3" width="36.7" height="1.6"/>
				<rect x="165" y="195.3" class="st9" width="29.8" height="1.6"/>
				<rect x="165" y="191.8" class="st1" width="12.6" height="1.6"/>
				<path class="st3" d="M171.7,189.8h-5.8c-0.4,0-0.8-0.4-0.8-0.8l0,0c0-0.4,0.4-0.8,0.8-0.8h5.8c0.4,0,0.8,0.4,0.8,0.8l0,0
					C172.4,189.5,172.1,189.8,171.7,189.8z"/>
			</g>
			<g>
				<rect x="165" y="208.1" class="st13" width="36.7" height="1.6"/>
				<rect x="165" y="204.6" class="st3" width="36.7" height="1.6"/>
				<rect x="165" y="208.1" class="st9" width="29.8" height="1.6"/>
				<rect x="165" y="204.6" class="st1" width="12.6" height="1.6"/>
				<path class="st3" d="M171.7,202.6h-5.8c-0.4,0-0.8-0.4-0.8-0.8l0,0c0-0.4,0.4-0.8,0.8-0.8h5.8c0.4,0,0.8,0.4,0.8,0.8l0,0
					C172.4,202.3,172.1,202.6,171.7,202.6z"/>
			</g>
		</g>
	</g>
	<g class="st0">
		<g>
			<g>
				<path class="st4" d="M291.4,142.1h16.5c0.8,0,1.4-0.6,1.4-1.4l0,0c0-0.8-0.6-1.4-1.4-1.4h-16.5c-0.8,0-1.4,0.6-1.4,1.4l0,0
					C290,141.4,290.6,142.1,291.4,142.1z"/>
				<path class="st4" d="M313.2,142.1h0.7c0.8,0,1.4-0.6,1.4-1.4l0,0c0-0.8-0.6-1.4-1.4-1.4h-0.7c-0.8,0-1.4,0.6-1.4,1.4l0,0
					C311.8,141.4,312.4,142.1,313.2,142.1z"/>
				<path class="st4" d="M276.5,146.7H293c0.8,0,1.4-0.6,1.4-1.4l0,0c0-0.8-0.6-1.4-1.4-1.4h-16.5c-0.8,0-1.4,0.6-1.4,1.4l0,0
					C275.1,146,275.7,146.7,276.5,146.7z"/>
				<path class="st4" d="M298.3,146.7h0.7c0.8,0,1.4-0.6,1.4-1.4l0,0c0-0.8-0.6-1.4-1.4-1.4h-0.7c-0.8,0-1.4,0.6-1.4,1.4l0,0
					C296.9,146,297.5,146.7,298.3,146.7z"/>
				<path class="st4" d="M276.5,142.1h9.3c0.8,0,1.4-0.6,1.4-1.4l0,0c0-0.8-0.6-1.4-1.4-1.4h-9.3c-0.8,0-1.4,0.6-1.4,1.4l0,0
					C275.1,141.4,275.7,142.1,276.5,142.1z"/>
				<path class="st4" d="M304.5,146.7h9.3c0.8,0,1.4-0.6,1.4-1.4l0,0c0-0.8-0.6-1.4-1.4-1.4h-9.3c-0.8,0-1.4,0.6-1.4,1.4l0,0
					C303.1,146,303.8,146.7,304.5,146.7z"/>
			</g>
			<g>
				<path class="st4" d="M291.4,151.7h16.5c0.8,0,1.4-0.6,1.4-1.4l0,0c0-0.8-0.6-1.4-1.4-1.4h-16.5c-0.8,0-1.4,0.6-1.4,1.4l0,0
					C290,151.1,290.6,151.7,291.4,151.7z"/>
				<path class="st4" d="M313.2,151.7h0.7c0.8,0,1.4-0.6,1.4-1.4l0,0c0-0.8-0.6-1.4-1.4-1.4h-0.7c-0.8,0-1.4,0.6-1.4,1.4l0,0
					C311.8,151.1,312.4,151.7,313.2,151.7z"/>
				<path class="st4" d="M276.5,156.3H293c0.8,0,1.4-0.6,1.4-1.4l0,0c0-0.8-0.6-1.4-1.4-1.4h-16.5c-0.8,0-1.4,0.6-1.4,1.4l0,0
					C275.1,155.7,275.7,156.3,276.5,156.3z"/>
				<path class="st4" d="M298.3,156.3h0.7c0.8,0,1.4-0.6,1.4-1.4l0,0c0-0.8-0.6-1.4-1.4-1.4h-0.7c-0.8,0-1.4,0.6-1.4,1.4l0,0
					C296.9,155.7,297.5,156.3,298.3,156.3z"/>
				<path class="st4" d="M276.5,151.7h9.3c0.8,0,1.4-0.6,1.4-1.4l0,0c0-0.8-0.6-1.4-1.4-1.4h-9.3c-0.8,0-1.4,0.6-1.4,1.4l0,0
					C275.1,151.1,275.7,151.7,276.5,151.7z"/>
				<path class="st4" d="M304.5,156.3h9.3c0.8,0,1.4-0.6,1.4-1.4l0,0c0-0.8-0.6-1.4-1.4-1.4h-9.3c-0.8,0-1.4,0.6-1.4,1.4l0,0
					C303.1,155.7,303.8,156.3,304.5,156.3z"/>
			</g>
		</g>
		<g>
			<g>
				<path class="st4" d="M338.4,142.1H355c0.8,0,1.4-0.6,1.4-1.4l0,0c0-0.8-0.6-1.4-1.4-1.4h-16.5c-0.8,0-1.4,0.6-1.4,1.4l0,0
					C337,141.4,337.7,142.1,338.4,142.1z"/>
				<path class="st4" d="M360.2,142.1h0.7c0.8,0,1.4-0.6,1.4-1.4l0,0c0-0.8-0.6-1.4-1.4-1.4h-0.7c-0.8,0-1.4,0.6-1.4,1.4l0,0
					C358.8,141.4,359.5,142.1,360.2,142.1z"/>
				<path class="st4" d="M323.6,146.7h16.5c0.8,0,1.4-0.6,1.4-1.4l0,0c0-0.8-0.6-1.4-1.4-1.4h-16.5c-0.8,0-1.4,0.6-1.4,1.4l0,0
					C322.2,146,322.8,146.7,323.6,146.7z"/>
				<path class="st4" d="M345.3,146.7h0.7c0.8,0,1.4-0.6,1.4-1.4l0,0c0-0.8-0.6-1.4-1.4-1.4h-0.7c-0.8,0-1.4,0.6-1.4,1.4l0,0
					C343.9,146,344.6,146.7,345.3,146.7z"/>
				<path class="st4" d="M323.6,142.1h9.3c0.8,0,1.4-0.6,1.4-1.4l0,0c0-0.8-0.6-1.4-1.4-1.4h-9.3c-0.8,0-1.4,0.6-1.4,1.4l0,0
					C322.2,141.4,322.8,142.1,323.6,142.1z"/>
				<path class="st4" d="M351.6,146.7h9.3c0.8,0,1.4-0.6,1.4-1.4l0,0c0-0.8-0.6-1.4-1.4-1.4h-9.3c-0.8,0-1.4,0.6-1.4,1.4l0,0
					C350.2,146,350.8,146.7,351.6,146.7z"/>
			</g>
			<g>
				<path class="st4" d="M338.4,151.7H355c0.8,0,1.4-0.6,1.4-1.4l0,0c0-0.8-0.6-1.4-1.4-1.4h-16.5c-0.8,0-1.4,0.6-1.4,1.4l0,0
					C337,151.1,337.7,151.7,338.4,151.7z"/>
				<path class="st4" d="M360.2,151.7h0.7c0.8,0,1.4-0.6,1.4-1.4l0,0c0-0.8-0.6-1.4-1.4-1.4h-0.7c-0.8,0-1.4,0.6-1.4,1.4l0,0
					C358.8,151.1,359.5,151.7,360.2,151.7z"/>
				<path class="st4" d="M323.6,156.3h16.5c0.8,0,1.4-0.6,1.4-1.4l0,0c0-0.8-0.6-1.4-1.4-1.4h-16.5c-0.8,0-1.4,0.6-1.4,1.4l0,0
					C322.2,155.7,322.8,156.3,323.6,156.3z"/>
				<path class="st4" d="M345.3,156.3h0.7c0.8,0,1.4-0.6,1.4-1.4l0,0c0-0.8-0.6-1.4-1.4-1.4h-0.7c-0.8,0-1.4,0.6-1.4,1.4l0,0
					C343.9,155.7,344.6,156.3,345.3,156.3z"/>
				<path class="st4" d="M323.6,151.7h9.3c0.8,0,1.4-0.6,1.4-1.4l0,0c0-0.8-0.6-1.4-1.4-1.4h-9.3c-0.8,0-1.4,0.6-1.4,1.4l0,0
					C322.2,151.1,322.8,151.7,323.6,151.7z"/>
				<path class="st4" d="M351.6,156.3h9.3c0.8,0,1.4-0.6,1.4-1.4l0,0c0-0.8-0.6-1.4-1.4-1.4h-9.3c-0.8,0-1.4,0.6-1.4,1.4l0,0
					C350.2,155.7,350.8,156.3,351.6,156.3z"/>
			</g>
		</g>
		<g>
			<path class="st4" d="M307.9,126.6h52.5c1.6,0,2.9-1.3,2.9-2.9l0,0c0-1.6-1.3-2.9-2.9-2.9h-52.5c-1.6,0-2.9,1.3-2.9,2.9l0,0
				C305,125.3,306.3,126.6,307.9,126.6z"/>
			<path class="st4" d="M278.2,126.6h16.9c1.6,0,2.9-1.3,2.9-2.9l0,0c0-1.6-1.3-2.9-2.9-2.9h-16.9c-1.6,0-2.9,1.3-2.9,2.9l0,0
				C275.3,125.3,276.6,126.6,278.2,126.6z"/>
		</g>
	</g>
	<g class="st0">
		<path class="st14" d="M76.9,166.9c-0.9-0.4-5.9-0.3-5.1-0.3c0.8,0,3.5-0.6,3.4-0.8c-0.1-0.2-0.9-0.5-2.4-0.6
			c-1.5-0.1-4.9,0.2-4.8,0.1c0-0.1,1.6-0.4,2.1-0.4c0.5,0,2.6-0.4,2.1-0.8c-0.5-0.3-3.2-0.5-4.7-0.7c-1.5-0.2-3.8,1-5.2,1.8
			c-0.8,0.4-1.6,0.6-2.5,0.6c-1.3,0-3.4-0.1-4.9-0.2c-2.3-0.2-1.2,5.8-1.2,5.8s3.7-0.5,6.1-0.9c1-0.2,2-0.1,3,0.3
			c2.8,1.1,3.8,0.8,5.2,0.6c1.8-0.2,6.9-1.4,6.6-1.7c-0.2-0.2-1.7-0.2-2.8-0.1c1.7-0.2,4.5-0.7,4.2-1.1c-0.3-0.3-2.7-0.4-3.8-0.4
			C73.7,167.9,77.8,167.3,76.9,166.9z"/>
		<path class="st2" d="M20.6,150.4c0.8-3,7.9-1.6,12.8,4.6c4.9,6.2,7.6,9.5,9.4,10.4c1.7,1,16.1-0.6,17.5-0.6c1.4,0,1.4,5.6,1.4,5.6
			s-16.4,5.4-20.9,4.2C36.3,173.3,17.5,161.5,20.6,150.4z"/>
		<path class="st11" d="M39.9,279.3c0.4,0.2,9.6,2.1,10.1,4.7c0.4,2.2-6.6,1.5-10.7,1.1c-2.2-0.2-2.8-1.9-2.8-4.1c0-1,0.5-1,1-1.6
			C38.6,278.2,39.1,278.9,39.9,279.3z"/>
		<path class="st15" d="M40.5,273.2l-0.6,6.1c0,0,5.8,2.4,4.3,3c-2.2,0.9-7.7-1.2-7.7-1.2l-0.7-7L40.5,273.2z"/>
		<path class="st11" d="M5.9,280.3c0.3,0.3,8.1,5.5,7.6,8.1c-0.4,2.2-6.7-1.1-10.3-2.9c-2-1-1.9-2.8-1.1-4.8
			c0.4-0.9,0.8-0.7,1.5-1.1C5.1,278.7,5.3,279.6,5.9,280.3z"/>
		<path class="st15" d="M8.7,274.8l-2.8,5.4c0,0,4.5,4.4,2.9,4.4c-2.4,0-6.7-4-6.7-4l2-6.7L8.7,274.8z"/>
		<path class="st8" d="M29,193.7c0,0,11.6,30.7,12.5,35.8c0.9,5.2,2,41.5,0.9,46.2h-7.8c0,0-2.1-33.1-5-38.5
			c-2.9-5.3-13.4-19.7-15.9-24C11.2,208.9,29,193.7,29,193.7z"/>
		<path class="st1" d="M25.7,193.5c0,0-4.8,44.4-6.7,49.6c-1.9,5.3-10.1,33.2-10.1,33.2L2,276c0,0,0.1-23.9,2.4-37.8
			c2.3-13.8-8-40.4-0.6-48.1C7,186.8,23.6,188.1,25.7,193.5z"/>
		<path class="st15" d="M34.9,126c0,0,0.4,3.1-0.1,5.8c-0.3,1.4,1.4,3,0,3.7c-0.9,0.4-0.3,6.6-2.3,6.9c-2,0.3-6-0.3-7.8-2.3
			c-1.8-2-7-9.9-3.3-13.3C24.9,123.5,34.9,126,34.9,126z"/>
		<path class="st4" d="M15.6,147.2c0,0-3.8,14.3-4.6,19.6c-0.9,5.3-11,30-11,30s22.8,2.2,31.5,0.2c0,0-2.4-12.5-1.5-17.8
			c0.9-5.3,5.3-15.7,4.9-19.9c-0.4-4.8-2.7-10.9-6.1-13.1C25.3,144.1,15.6,147.2,15.6,147.2z"/>
		<polygon class="st16" points="98.7,169.7 96.3,141.1 67.5,144 74.4,149.7 40.9,190.3 58.3,204.6 91.8,164 		"/>
		<path class="st15" d="M32.3,137.6c0,0-4.3,6.9-3.6,8.7c2.6,6.3-9.5,0.5-9.5,0.5S28.8,136.5,32.3,137.6z"/>
		<path class="st14" d="M73.4,180.4c-0.8-0.5-5.9-1-5-0.9c0.8,0.1,3.5-0.2,3.5-0.4c0-0.2-0.8-0.6-2.3-0.9c-1.5-0.3-4.9-0.4-4.8-0.5
			c0.1-0.1,1.6-0.2,2.1-0.2c0.5,0.1,2.7-0.1,2.2-0.5c-0.5-0.4-3.1-0.9-4.6-1.3c-1.5-0.4-3.9,0.6-5.4,1.2c-0.8,0.3-1.7,0.4-2.5,0.3
			c-1.3-0.2-3.3-0.5-4.8-0.7c-2.3-0.4-1.9,5.6-1.9,5.6s3.8-0.1,6.1-0.2c1-0.1,2,0.2,2.9,0.6c2.7,1.5,3.6,1.2,5.1,1.2
			c1.8,0,7-0.6,6.8-0.9c-0.2-0.2-1.7-0.3-2.8-0.4c1.7,0,4.6-0.2,4.3-0.6c-0.3-0.3-2.6-0.7-3.8-0.8C70.1,181.1,74.2,180.9,73.4,180.4
			z"/>
		<path class="st17" d="M21.2,152.8c1.6-2.7,8,0.5,11.1,7.8c3.1,7.3,4.9,11.1,6.4,12.5c1.4,1.4,15.7,3.5,17.1,3.9
			c1.4,0.4-0.1,5.7-0.1,5.7s-17.2,1-21.2-1.3C30.5,179,15.3,162.8,21.2,152.8z"/>
		<path class="st9" d="M6,150.3c5-5.2,6-8.3,3.3-13.9c-2.9-6.2,2.6-16.3,10.3-19c12.7-4.4,20.9,5.8,18,9.2
			c-2.7,3.2-10.8,0.2-13.2,1.6c-2.5,1.4,0.7,5.5,0.7,5.5s-2.7-1.9-3.2,0.3c-0.5,2,2.3,1.9,2.3,1.9s3.1,3.3,2.1,4.8
			c-1,1.5-4.5,2.1-4.6,6.4c-0.1,4.2,3.9,10.2,0.5,13c-4.8,3.9-0.8,8.8-5.3,11.9c-7.2,4.9-14.2-0.9-15.8-8C-0.1,159,2,154.5,6,150.3z
			"/>
	</g>
	<g class="st0">
		<path class="st4" d="M361.1,215.4h-86.4c-1.2,0-2.1-1-2.1-2.1v-41.9c0-1.2,1-2.1,2.1-2.1h86.4c1.2,0,2.1,1,2.1,2.1v41.9
			C363.3,214.5,362.3,215.4,361.1,215.4z"/>
		<g>
			<rect x="278.6" y="184.5" class="st1" width="4.8" height="23.5"/>
			<rect x="288.7" y="191.7" class="st9" width="4.8" height="16.4"/>
			<rect x="298.7" y="182.3" class="st1" width="4.8" height="25.8"/>
			<rect x="308.7" y="195.2" class="st9" width="4.8" height="12.9"/>
			<rect x="318.8" y="197.5" class="st1" width="4.8" height="10.5"/>
		</g>
		<g>
			<path class="st1" d="M341.6,182.7H334c-1.1,0-1.9-0.9-1.9-1.9l0,0c0-1.1,0.9-1.9,1.9-1.9h7.6c1.1,0,1.9,0.9,1.9,1.9l0,0
				C343.5,181.9,342.7,182.7,341.6,182.7z"/>
			<path class="st9" d="M341.6,189.5H334c-1.1,0-1.9-0.9-1.9-1.9l0,0c0-1.1,0.9-1.9,1.9-1.9h7.6c1.1,0,1.9,0.9,1.9,1.9l0,0
				C343.5,188.6,342.7,189.5,341.6,189.5z"/>
		</g>
		<g>
			<path class="st1" d="M337.1,194.4h-7.3c-0.4,0-0.7-0.3-0.7-0.7l0,0c0-0.4,0.3-0.7,0.7-0.7h7.3c0.4,0,0.7,0.3,0.7,0.7l0,0
				C337.8,194.1,337.5,194.4,337.1,194.4z"/>
			<path class="st1" d="M342.8,194.4h-3.2c-0.4,0-0.7-0.3-0.7-0.7l0,0c0-0.4,0.3-0.7,0.7-0.7h3.2c0.4,0,0.7,0.3,0.7,0.7l0,0
				C343.5,194.1,343.2,194.4,342.8,194.4z"/>
			<path class="st1" d="M337.1,197.2h-2.4c-0.4,0-0.7-0.3-0.7-0.7l0,0c0-0.4,0.3-0.7,0.7-0.7h2.4c0.4,0,0.7,0.3,0.7,0.7l0,0
				C337.8,196.9,337.5,197.2,337.1,197.2z"/>
			<path class="st1" d="M331.6,197.2h-1.8c-0.4,0-0.7-0.3-0.7-0.7l0,0c0-0.4,0.3-0.7,0.7-0.7h1.8c0.4,0,0.7,0.3,0.7,0.7l0,0
				C332.3,196.9,332,197.2,331.6,197.2z"/>
			<path class="st1" d="M342.8,197.2h-3.2c-0.4,0-0.7-0.3-0.7-0.7l0,0c0-0.4,0.3-0.7,0.7-0.7h3.2c0.4,0,0.7,0.3,0.7,0.7l0,0
				C343.5,196.9,343.2,197.2,342.8,197.2z"/>
			<path class="st1" d="M337.1,199.9h-7.3c-0.4,0-0.7-0.3-0.7-0.7l0,0c0-0.4,0.3-0.7,0.7-0.7h7.3c0.4,0,0.7,0.3,0.7,0.7l0,0
				C337.8,199.6,337.5,199.9,337.1,199.9z"/>
			<path class="st1" d="M342.8,199.9h-3.2c-0.4,0-0.7-0.3-0.7-0.7l0,0c0-0.4,0.3-0.7,0.7-0.7h3.2c0.4,0,0.7,0.3,0.7,0.7l0,0
				C343.5,199.6,343.2,199.9,342.8,199.9z"/>
			<path class="st1" d="M337.1,202.8h-2.4c-0.4,0-0.7-0.3-0.7-0.7l0,0c0-0.4,0.3-0.7,0.7-0.7h2.4c0.4,0,0.7,0.3,0.7,0.7l0,0
				C337.8,202.5,337.5,202.8,337.1,202.8z"/>
			<path class="st1" d="M331.6,202.8h-1.8c-0.4,0-0.7-0.3-0.7-0.7l0,0c0-0.4,0.3-0.7,0.7-0.7h1.8c0.4,0,0.7,0.3,0.7,0.7l0,0
				C332.3,202.5,332,202.8,331.6,202.8z"/>
			<path class="st1" d="M342.8,202.8h-3.2c-0.4,0-0.7-0.3-0.7-0.7l0,0c0-0.4,0.3-0.7,0.7-0.7h3.2c0.4,0,0.7,0.3,0.7,0.7l0,0
				C343.5,202.5,343.2,202.8,342.8,202.8z"/>
		</g>
	</g>
	<g class="st0">
		<path class="st4" d="M368.9,82.3l-34.7-5.5c-2.2-0.4-3.7-2.4-3.4-4.7l4.8-30.3c0.4-2.2,2.4-3.7,4.7-3.4l34.7,5.5
			c2.2,0.4,3.7,2.4,3.4,4.7l-4.8,30.3C373.2,81.2,371.1,82.7,368.9,82.3z"/>
		<path class="st1" d="M366.7,79.6L337,74.9c-2.2-0.4-3.8-2.5-3.4-4.7l4-25.7c0.4-2.2,2.5-3.8,4.7-3.4l29.6,4.7
			c2.2,0.4,3.8,2.5,3.4,4.7l-4,25.7C371,78.4,368.9,80,366.7,79.6z"/>
		<path class="st3" d="M364.4,58.8c0.8-5.2-2.7-10.1-7.9-10.9c-5.2-0.8-10.1,2.7-10.9,7.9c-0.8,5.2,2.7,10.1,7.9,10.9
			C358.7,67.6,363.6,64,364.4,58.8z"/>
		<path class="st11" d="M360.5,57.7l-6.9-5.6c-0.3-0.3-0.8-0.1-0.9,0.3l-1.4,8.7c-0.1,0.4,0.3,0.7,0.7,0.6l8.3-3.2
			C360.8,58.5,360.9,58,360.5,57.7z"/>
		<g>
			<path class="st3" d="M368.7,74.1c-0.1,0.8-0.8,1.3-1.6,1.2l-29.2-4.6c-0.8-0.1-1.3-0.8-1.2-1.6c0.1-0.8,0.8-1.3,1.6-1.2l29.2,4.6
				C368.3,72.7,368.8,73.4,368.7,74.1z"/>
			<path class="st11" d="M351.7,70.1l-0.4,2.7l-13.4-2.1c-0.8-0.1-1.3-0.8-1.2-1.6c0.1-0.8,0.8-1.3,1.6-1.2L351.7,70.1z"/>
		</g>
	</g>
	<g class="st0">
		<path class="st8" d="M495.1,326L495.1,326c1.5,0,2.7-1.4,2.3-2.9l-23.9-99h-4.9l24.1,100.1C493,325.3,494,326,495.1,326z"/>
		<path class="st8" d="M407,326L407,326c-1.5,0-2.7-1.4-2.3-2.9l23.9-99h4.9l-24.1,100.1C409,325.3,408.1,326,407,326z"/>
		<path class="st8" d="M425.8,227.7h52.8c2,0,3.7-1.7,3.7-3.7l0,0c0-2-1.7-3.7-3.7-3.7h-52.8c-2,0-3.7,1.7-3.7,3.7l0,0
			C422.1,226.1,423.8,227.7,425.8,227.7z"/>
		
			<rect x="424.6" y="249.4" transform="matrix(-1 -1.224647e-16 1.224647e-16 -1 902.61 504.5855)" class="st8" width="53.5" height="5.7"/>
		
			<rect x="418.7" y="276.9" transform="matrix(-1 -1.224647e-16 1.224647e-16 -1 904.4459 559.4653)" class="st8" width="67.1" height="5.7"/>
		
			<rect x="412.9" y="300.4" transform="matrix(-1 -1.224647e-16 1.224647e-16 -1 903.1081 606.5639)" class="st8" width="77.2" height="5.7"/>
	</g>
	<g class="st0">
		<path class="st18" d="M499.3,175.7c-2.5-1.7-13.5-11.9-13.5-11.9s0.7-3.2,0.3-4.1c-0.2-0.4-0.5-1.2-1.1-1.7c0,0-2.1-1.5-2.6-1.6
			c-0.6-0.1-0.3,1-0.1,1.4c0.2,0.4,1.9,2,1.9,2c0.1,0.2,0.1,0.3,0.1,0.4c0,0.1-0.1,0.1-0.3-0.1c-0.7-0.5-2.2-2.2-3.2-3.2
			c-1.3-1.3-2.6-2.1-2.9-2.2c-0.6,0-0.6,0.5-0.5,0.6c-0.1,0-1.5,0-1.3,0.8c0,0-0.1,0,0.3,0.7c0,0-0.7,0.8-0.1,1.7
			c0,0,1.8,3.6,1.8,3.6c0.7,0.9,2.1,3.2,4.9,3.7c0,0,9.8,14.4,12.5,15.6c2.7,1.2,13,6,13,6l0.9-7.7
			C509.3,179.8,501.8,177.4,499.3,175.7z"/>
		<g>
			<path class="st9" d="M499.5,320.3c0.6-1.3,8.3-2.1,11-2.2c3-0.1,0.4-1.9,2.8-1.6c2.4,0.3,2.4,0.3,2.4,0.3s0.9,1.6,0.9,3.9
				c0,0.2,0,0.3,0,0.5c-0.1,1.6-5,1.7-9.7,1.3c-2.9-0.3-6-0.4-7.2-1.7C499.4,320.6,499.4,320.4,499.5,320.3z"/>
			<path class="st18" d="M516.6,310.8l-0.4,7.4c0,0-6.6,1-5.4-0.2l-0.3-6.9L516.6,310.8z"/>
			<path class="st9" d="M524,318.2c0.6-1.3,7.8-1.5,10.3-1.4c2.8,0.2,0.4-1.9,2.7-1.3c2.2,0.5,2.2,0.5,2.2,0.5s0.7,1.6,0.6,4
				c0,0.2,0,0.3,0,0.5c-0.2,1.6-5,1.4-9.3,0.5c-2.7-0.5-5.2-0.9-6.4-2.3C523.9,318.5,523.9,318.3,524,318.2z"/>
			<path class="st18" d="M540.4,309.9l-0.8,7.4c0,0-6.3,0.7-5.6-0.5l0.3-7L540.4,309.9z"/>
			<path class="st9" d="M512.6,226.7c0,0,19.2,6.1,34.1,3.1c0,0,1.4,20.4-5.3,84.1l-7.8-0.2c0,0-2.2-13.1-3.4-65.8l-1.6-0.1
				c0,0-6.1,44.7-10.2,66.1l-8.9-0.3C509.5,313.6,509.3,245.9,512.6,226.7z"/>
			<path class="st18" d="M552.1,191.3c0,0,5.9,14.1,6.5,18.1c0.7,4-12.7,9.3-12.7,9.3l-2-4.1l7.4-5.9l-7.4-14.8L552.1,191.3z"/>
			<path class="st4" d="M502.2,188.6c0.3-5.2,2.2-11.6,2.2-11.6c8,1.8,16.5-1.3,25.8-2.1c2.1-0.2,10,0,14.6,2.7
				c5.2,3,9.3,12.1,10.2,15c0,0-3.4,0.8-6.7,1.1c0.9,13.5,1,38.5,1,38.5c-16.2,1.6-38.6-4.1-38.6-4.1c0.5-4.7,2.2-20.9,2.5-38.9
				C507.7,189.8,502.2,188.6,502.2,188.6z"/>
			<path class="st18" d="M522.1,154.9c0,0-0.9,3-1.2,4.4c-0.3,1.4-1.7,1.6-1.8,2.1c-0.1,0.4,0.7,1.4,0.7,1.4s-1.8,4-0.7,5.3
				c1.1,1.3,5,1.3,5,1.3v6.7c0,0,4.9,2.7,9.9-0.6V169c0,0,3.5-7.9,0.3-12.7C531.2,151.6,522.1,154.9,522.1,154.9z"/>
			<path class="st9" d="M518.9,152.2c-0.5-2.2,0.3-3.4,2.5-3c4.3,0.9,6.9-2.8,13.1,0.2c1.2,0.6,2.3,1.3,3.2,2.3
				c0-0.7-0.1-1.5-0.1-1.5c0.6,0.8,0.8,1.6,0.9,2.3c0.7,0.1,2.4,0.5,2.7,1.3c0,0-1.1-0.4-2-0.3c2.8,4.1,3,10.1-1.9,14.8
				c-2.9,2.8-7.2,0.4-8.6-2.3c0,0,2.7,0.2,2.9-1.6c0.2-1.5-1-2.5-2-1.8c-1.6,1-1.4,1.3-2,1.2c0,0,0.6-2.6,0.2-4.8
				c0,0-6.8-1.1-8.3-4.5c0,0,1.1,0.7,1.5,0.7C520.9,155.2,519.5,154.4,518.9,152.2z"/>
		</g>
	</g>
	<g class="st0">
		<g>
			
				<rect x="179.8" y="295.8" transform="matrix(-1 -1.224647e-16 1.224647e-16 -1 393.3652 616.4731)" class="st6" width="33.8" height="24.9"/>
			
				<rect x="133.6" y="271.5" transform="matrix(-1 -1.224647e-16 1.224647e-16 -1 300.9765 592.2241)" class="st11" width="33.8" height="49.1"/>
			
				<rect x="87.4" y="245" transform="matrix(-1 -1.224647e-16 1.224647e-16 -1 208.5859 565.6587)" class="st2" width="33.8" height="75.7"/>
			
				<rect x="41.2" y="282.3" transform="matrix(-1 -1.224647e-16 1.224647e-16 -1 116.1973 602.9878)" class="st9" width="33.8" height="38.4"/>
			<path class="st16" d="M37.2,317.4h179.9c1.8,0,3.2,1.4,3.2,3.2l0,0c0,1.8-1.4,3.2-3.2,3.2H37.2c-1.8,0-3.2-1.4-3.2-3.2l0,0
				C34,318.9,35.4,317.4,37.2,317.4z"/>
		</g>
		<g>
			<path class="st9" d="M150.3,302c-0.2,0.8,17,3.4,17.1,2.9c0.3-1.4-0.2-3.4-1.1-3.9c-0.5-0.3-1.1-0.4-1.9-0.5
				c-1.6-0.2-3.6-0.4-5.4-1.1c-0.8-0.4-1.5-0.7-1.9-1.1c0,0,0,0,0,0c-1-0.7-1.2-1.3-1.2-1.3l-3.5-0.9
				C152.5,296.1,150.9,299.8,150.3,302z"/>
			<path class="st9" d="M133.4,314c-0.1,0.8,17.3,1.1,17.4,0.5c0.1-1.5-0.7-3.3-1.6-3.7c-0.5-0.2-1.2-0.2-2-0.3
				c-1.6,0-3.7,0.1-5.5-0.4c-0.9-0.2-1.5-0.5-2-0.8c0,0,0,0,0,0c-1.1-0.6-1.4-1.2-1.4-1.2l-3.6-0.4
				C134.7,307.8,133.7,311.7,133.4,314z"/>
			<path class="st15" d="M139.2,302.9l-0.4,5.7c-0.1,1-0.9,1.8-1.9,1.9l0,0c-1.1,0.1-2.1-0.8-2.1-2l-0.2-5.6L139.2,302.9z"/>
			<path class="st19" d="M139.6,311.9c0.5,0.4,6.8,1,7.1,0.1c0.3-0.9,0.6-1.5,0.6-1.5c-1.6,0-3.7,0.1-5.5-0.4
				c-0.9-0.2-1.5-0.5-2-0.8c0,0,0,0,0,0S139,311.6,139.6,311.9z"/>
			<path class="st15" d="M157.6,291.8l-1.2,5.6c-0.2,1-1.1,1.7-2.1,1.6l0,0c-1.1-0.1-2-1.1-1.9-2.2l0.6-5.5L157.6,291.8z"/>
			<path class="st9" d="M96.7,232.3c0,0-3.6,7.7,4.6,15.5c8.2,7.8,29.7,16.1,30.8,19.3c1.1,3.2,0.1,38.1,0.1,38.1s6.8,0.4,9,0
				c2.2-0.4,5.9-36.1,3.7-41.3c-3.4-8.1-21.4-23-21.4-23s16.4,11.5,23.9,22.4c4.5,6.6,1.6,22.9,2.3,29.7c2.6,1.9,9.6,1,9.6,1
				s3.2-33.2-1.9-40.6c-10.8-15.5-33.8-26.2-33.8-26.2L96.7,232.3z"/>
			<path class="st20" d="M118,184.3c-4.7-1.6-9.7,2.1-5.5,9.1c4.2,7.1,12,21.4,16.7,25.3c2.9,2.4,21,13.3,23.7,11.9l-1.9-4.6
				l-13.3-10c-2.5-1.9-4.5-4.5-5.7-7.4C128.9,201.1,122.7,186,118,184.3z"/>
			<path class="st11" d="M110,179.8c0,0-9.7,3.5-12.8,20.4c-3.1,17-1.2,35-1.2,35s18.2,1.1,31.6-7.3c0,0-2.2-30.6-7.4-42.1
				C117.6,180.2,110,179.8,110,179.8z"/>
			<polygon class="st1" points="132.4,234.5 119.1,233.5 131.2,238.8 			"/>
			<polygon class="st4" points="119.1,233.5 119,234.3 131.2,239.9 131.2,238.8 			"/>
			<polygon class="st1" points="158.8,240.9 131.2,238.8 131.2,239.9 158.8,241.9 			"/>
			<path class="st15" d="M122.8,158.5c0,0,2.2,3.6,1.3,7.8c-0.5,2.6,2,3.5,1.1,4c-1.8,1.1-1.5,2.8-1.5,3.7c0,0.8,0.5,4.6-4.6,3.9
				c-1.9-0.2-2.9,1.5-2.9,3.9c0,0-1,4.3-8.4-0.7c0,0,1.4-8.8-0.9-16C111.5,159.8,115.1,153.6,122.8,158.5z"/>
			<path class="st20" d="M114.9,190.2c-3.4-3.6-9.6-2.1-9.6,6.2c0,8.3,2,19.1,5,23.7c2,3.2,22.6,14.7,25.6,14l-0.7-4.9l-15.8-11.3
				c-1.4-1.4-2.3-3.2-2.3-5.2C116.9,207,117.7,193.1,114.9,190.2z"/>
			<path class="st4" d="M158.8,240.9l-27.6-2.2l6-21.8c0.1-0.5,0.6-0.8,1.1-0.8l25.4,2c0.7,0.1,1.2,0.7,1,1.4L158.8,240.9z"/>
			<path class="st9" d="M105.4,160.7c-0.8,0-1.9,0.7-1.9,0.7c0.3-2.1,2.8-2.7,2.8-2.7c0.6-2.4,2.1-2.9,2.1-2.9
				c-0.8,0.7-0.9,1.5-0.8,2.1c3.5-3.5,8.5-4.3,11.7-4.5c1.8-0.1,3.5-0.9,4.8-2.2c0.6-0.5,1-1,1-1c0.8,0.3,4.9,3.9,3.7,8.7
				c-0.8,3.2-4.5,4.3-6.9,4.6c-1,0.1-2,0-2.9-0.1c-2.6-0.3-4.3,2.8-4.6,5c-0.3,2.4,1.9,6.3,3.9,4.8c2-1.5,5.7-1.6,5.7-1.6
				s1.8,3.6,0.9,5.4c-1.3,2.5-8.9,1.5-11.2,0c-2.4-1.6-0.5-7.7-2.1-9.3c-1.7-1.6-3.1,1.8-1,3.1c1,0.6,0,5.8,0,5.8
				C105.5,176.2,101.5,167.6,105.4,160.7z"/>
			<path class="st19" d="M156.7,300.8c0.5,0.4,6.6,1.9,7,1.1c0.4-0.8,0.8-1.4,0.8-1.4c-1.6-0.2-3.6-0.4-5.4-1.1
				c-0.8-0.4-1.5-0.7-1.9-1.1c0,0,0,0,0,0S156.2,300.4,156.7,300.8z"/>
		</g>
	</g>
	<g class="st0">
		<g>
			<path class="st6" d="M242.3,258.2c-0.1,0.2-0.2,0.4-0.2,0.5c0,0-0.2-0.1-0.6-0.2c-2.8-0.9-15-5.3-17.4-9.8l9.6,0.4l-11.2-3.9
				c-1.4-3.5-2.2-7.4-2.1-11.7l7.9,0.6l-7.5-4.3c0.6-3.9,1.9-8.1,4.3-12.6c0,0,7.8,2.1,14.6,11l-3.7,5.7l4.9-3.9
				c2,2.9,3.8,6.4,5.3,10.6C248.1,246.1,244.5,252.7,242.3,258.2z"/>
			<path class="st3" d="M242.3,258.2c-0.1,0.2-0.2,0.4-0.2,0.5c0,0-0.2-0.1-0.6-0.2c-5.5-16.5-12-31-12.1-31.2
				c-0.1-0.2,0-0.5,0.2-0.6c0.2-0.1,0.5,0,0.6,0.2C230.3,227.2,236.7,241.6,242.3,258.2z"/>
		</g>
		<g>
			<path class="st6" d="M248,282c0,0.2,0.1,0.5,0.1,0.7c0,0,0.3,0,0.7,0c3.6-0.2,19.3-1.4,23.5-6l-11.4-2.6l14.4-1
				c2.7-3.6,4.9-7.9,6.2-13l-9.4-1.8l10.2-2.7c0.6-4.7,0.3-10.1-1-16.1c0,0-9.8-0.1-20.6,8.2l2.5,7.8l-4.6-6.2
				c-3.2,2.8-6.5,6.3-9.6,10.8C245.1,266,247.1,274.8,248,282z"/>
			<path class="st3" d="M248,282c0,0.2,0.1,0.5,0.1,0.7c0,0,0.3,0,0.7,0c11.7-17.6,23.9-32.5,24.1-32.7c0.2-0.2,0.2-0.6-0.1-0.7
				c-0.2-0.2-0.6-0.2-0.7,0.1C272,249.5,259.8,264.3,248,282z"/>
		</g>
		<g>
			<path class="st6" d="M247.9,287c0.2,0,0.4-0.1,0.6-0.1c0,0,0-0.2-0.1-0.6c-0.3-3.2-1.9-17.1-6.2-20.7l-1.9,10.3L239,263
				c-3.3-2.3-7.2-4.1-11.8-5l-1.3,8.4l-2.7-9c-4.2-0.3-9,0.1-14.3,1.5c0,0,0.3,8.7,8,18.1l6.9-2.5l-5.3,4.3c2.6,2.8,5.8,5.5,9.9,8.1
				C233.8,290.2,241.6,288.1,247.9,287z"/>
			<path class="st3" d="M247.9,287c0.2,0,0.4-0.1,0.6-0.1c0,0,0-0.2-0.1-0.6c-16.1-9.8-29.8-20.2-30-20.3c-0.2-0.1-0.5-0.1-0.7,0.1
				c-0.1,0.2-0.1,0.5,0.1,0.7C218.1,266.8,231.8,277.2,247.9,287z"/>
		</g>
		<path class="st6" d="M250.8,304C250.8,304,250.7,304,250.8,304c-0.3,0-0.5-0.2-0.5-0.5c0.1-17.7-9.1-45.7-9.2-46
			c-0.1-0.2,0.1-0.5,0.3-0.6c0.2-0.1,0.5,0.1,0.6,0.3c0.1,0.3,9.4,28.4,9.2,46.3C251.2,303.8,251,304,250.8,304z"/>
		<g>
			<polygon class="st8" points="260.8,324.1 240.7,324.1 238.6,299.3 262.9,299.3 			"/>
			<path class="st1" d="M264.3,302h-27c-0.9,0-1.6-1.2-1.6-2.7l0,0c0-1.5,0.7-2.7,1.6-2.7h27c0.9,0,1.6,1.2,1.6,2.7l0,0
				C265.9,300.8,265.2,302,264.3,302z"/>
		</g>
	</g>
</g>
</svg>
