<svg id="Layer_1" data-name="Layer 1" xmlns="http://www.w3.org/2000/svg" xmlns:xlink="http://www.w3.org/1999/xlink" viewBox="0 0 400 400"><defs><style>.cls-1{opacity:0.15;}.cls-2{fill:#eefbff;}.cls-3{fill:url(#linear-gradient);}.cls-4{fill:url(#linear-gradient-2);}.cls-37,.cls-5{fill:#fff;}.cls-6{fill:#6aafe8;}.cls-7{fill:url(#linear-gradient-3);}.cls-8{fill:url(#linear-gradient-4);}.cls-9{fill:url(#linear-gradient-5);}.cls-10{fill:url(#linear-gradient-6);}.cls-11{fill:url(#linear-gradient-7);}.cls-12{fill:url(#linear-gradient-8);}.cls-13{fill:url(#linear-gradient-9);}.cls-14{fill:url(#linear-gradient-10);}.cls-15{fill:url(#linear-gradient-11);}.cls-16{fill:#1487e3;}.cls-17{fill:#78c2ff;}.cls-18,.cls-19{fill:#d3e5f3;}.cls-19,.cls-21{opacity:0.5;}.cls-20,.cls-21{fill:#354552;}.cls-22,.cls-34{fill:#00d5e0;}.cls-23{fill:#ff7e55;}.cls-24{fill:#424773;}.cls-25{fill:#292c47;}.cls-26{fill:#eea886;}.cls-27{fill:#754836;}.cls-28{fill:#e2d2ca;}.cls-29{fill:#e9f2f9;}.cls-30{fill:#ffcb55;}.cls-31{fill:#a0a0a0;}.cls-32{fill:none;stroke:#8696a4;stroke-miterlimit:22.93;stroke-width:0.57px;}.cls-33{fill:#8696a4;}.cls-33,.cls-34,.cls-37{fill-rule:evenodd;}.cls-35{fill:#a1d4ff;}.cls-36{fill:url(#linear-gradient-12);}.cls-38{fill:url(#linear-gradient-13);}.cls-39{fill:#4d78eb;}.cls-40{fill:#4aafff;}.cls-41{fill:#1a598c;}.cls-42{fill:#2273b5;}.cls-43{fill:#3788cc;}.cls-44{fill:#414773;}.cls-45{fill:#2d314f;}.cls-46{fill:#2b3b57;}.cls-47{fill:#ffc655;}.cls-48{fill:#353a3d;}.cls-49{fill:#d4d8e8;}.cls-50{fill:#e55353;}.cls-51{fill:#6069a8;}.cls-52{fill:#202338;}.cls-53{fill:#464240;}.cls-54{fill:#eb4747;}.cls-55{fill:#325bb3;}.cls-56{fill:#a77860;}.cls-57{fill:#5e5853;}.cls-58{fill:#91887f;}.cls-59{fill:#eddad3;}.cls-60{fill:#6e6760;}.cls-61{fill:#807066;}</style><linearGradient id="linear-gradient" x1="75.89" y1="205.38" x2="305.67" y2="205.38" gradientTransform="translate(371.1 410.8) rotate(-180)" gradientUnits="userSpaceOnUse"><stop offset="0" stop-color="#40d5e6"/><stop offset="1" stop-color="#57f"/></linearGradient><linearGradient id="linear-gradient-2" x1="89.45" y1="195.21" x2="281.29" y2="195.21" gradientTransform="translate(370.7 390.4) rotate(-180)" gradientUnits="userSpaceOnUse"><stop offset="0" stop-color="#404b61"/><stop offset="0.49" stop-color="#3c4860"/><stop offset="1" stop-color="#2f3e5c"/></linearGradient><linearGradient id="linear-gradient-3" x1="336.42" y1="291.64" x2="385.78" y2="291.64" gradientUnits="userSpaceOnUse"><stop offset="0" stop-color="#3076a1"/><stop offset="1" stop-color="#639c38"/></linearGradient><linearGradient id="linear-gradient-4" x1="332.13" y1="284.45" x2="396.58" y2="284.45" xlink:href="#linear-gradient-3"/><linearGradient id="linear-gradient-5" x1="317.33" y1="274.7" x2="358.9" y2="274.7" xlink:href="#linear-gradient-3"/><linearGradient id="linear-gradient-6" x1="328.88" y1="283.69" x2="341.48" y2="283.69" xlink:href="#linear-gradient-3"/><linearGradient id="linear-gradient-7" x1="300.35" y1="286.18" x2="341.04" y2="286.18" xlink:href="#linear-gradient-3"/><linearGradient id="linear-gradient-8" x1="327.6" y1="378.38" x2="361.83" y2="245.24" xlink:href="#linear-gradient-3"/><linearGradient id="linear-gradient-9" x1="340.04" y1="309.36" x2="355.08" y2="309.36" xlink:href="#linear-gradient-3"/><linearGradient id="linear-gradient-10" x1="327.13" y1="336.48" x2="354.94" y2="336.48" gradientUnits="userSpaceOnUse"><stop offset="0" stop-color="#ff9340"/><stop offset="1" stop-color="#ffce45"/></linearGradient><linearGradient id="linear-gradient-11" x1="327.13" y1="336.48" x2="354.94" y2="336.48" gradientUnits="userSpaceOnUse"><stop offset="0" stop-color="#c97332"/><stop offset="1" stop-color="#ffce45"/></linearGradient><linearGradient id="linear-gradient-12" x1="185.58" y1="251.69" x2="185.58" y2="379.09" gradientTransform="matrix(1, 0, 0, 1, 0, 0)" xlink:href="#linear-gradient"/><linearGradient id="linear-gradient-13" x1="-57.22" y1="347.72" x2="194.78" y2="347.72" gradientTransform="matrix(1, 0, 0, 1, 0, 0)" xlink:href="#linear-gradient"/></defs><ellipse class="cls-1" cx="189.7" cy="347.7" rx="174.7" ry="14.8"/><path class="cls-2" d="M248,119.2a14.2,14.2,0,1,0,20-1.5A14.1,14.1,0,0,0,248,119.2Zm3,1.9h0a10.6,10.6,0,0,1,15.1-.4h0a10.7,10.7,0,0,1,.5,15.1h0a10.8,10.8,0,0,1-15.2.5h0A10.7,10.7,0,0,1,251,121.1Z"/><path class="cls-2" d="M239.2,114.8c-.1.3.1.6.7,1.2l2.8,3.3a.8.8,0,0,1,.1.8l-1.5,4c-.2.4-.3.6-.8.6l-5.5.7a21.7,21.7,0,0,0,.1,7.2l5.4.3c.6.1.8.2,1,.8s1.1,2.5,1.7,3.8a1.1,1.1,0,0,1-.1,1.3l-3,3.8c-.3.4-.3.6,0,.9l4.5,4.3c.3.4.6.1.8-.1l3.6-3.1a.9.9,0,0,1,1.3-.2l4.5,1.9c.3,1.8.5,3.8.7,5.9a24.7,24.7,0,0,0,7.2-.2c.2-2.1.3-4.1.5-5.9l4.8-2.3a.9.9,0,0,1,1.1.1l3.8,3a.6.6,0,0,0,.8.1,22.4,22.4,0,0,0,4.3-4.4.8.8,0,0,0-.1-1l-3.2-3.7c-.3-.3-.4-.5-.2-.9s1.1-3,1.6-4.5a.9.9,0,0,1,.7-.5l5.6-.7a21.2,21.2,0,0,0-.2-7.1l-6.1-.4c-.8-1.8-1.5-3.6-2.4-5.5l2.9-3.7c.9-1.1.9-.8,0-1.9l-.2-.4-2.7-2.5-.7-.5a.9.9,0,0,0-1.5,0l-3.7,3.2a.9.9,0,0,1-.7.1l-4-1.4a1.2,1.2,0,0,1-.9-1.1c-.2-1.8-.4-3.5-.7-5.5l-7.1.2c0,.4-.1.7-.1.9l-.3,4.8a.7.7,0,0,1-.6.8l-4.2,1.9a.8.8,0,0,1-.8-.1l-3.1-2.4c-.8-.6-1.1-.9-1.6-.7Zm8.4,4.1a14.8,14.8,0,0,1,20.8-1.6,15.1,15.1,0,0,1,5,10.1,14.7,14.7,0,0,1-13.6,15.8,14.7,14.7,0,0,1-15.7-13.6A14.2,14.2,0,0,1,247.6,118.9Z"/><path class="cls-3" d="M82.1,128.8H289a0,0,0,0,1,0,0v146a7.2,7.2,0,0,1-7.2,7.2H89.4a7.2,7.2,0,0,1-7.2-7.2v-146A0,0,0,0,1,82.1,128.8Z" transform="translate(371.1 410.8) rotate(180)"/><rect class="cls-4" x="89.4" y="136.3" width="191.8" height="117.85" transform="translate(370.7 390.4) rotate(180)"/><rect class="cls-5" x="89.4" y="136.3" width="191.8" height="117.85"/><path class="cls-6" d="M69.3,136.8H20.5v-.4a8.6,8.6,0,0,1,8.4-6.9h1.8a14.6,14.6,0,0,1,12.9-7.8,15,15,0,0,1,11.9,6,10.8,10.8,0,0,1,13.6,8.6Zm-47.9-.7h47a10,10,0,0,0-9.7-8,11.3,11.3,0,0,0-3.2.5h-.2l-.2-.2a13.8,13.8,0,0,0-23.8,1.7v.3h-.3l-1.9-.2A7.8,7.8,0,0,0,21.4,136.1Z"/><path class="cls-6" d="M248.5,76.8h-.2c-17.3-8.9-15-26-14.9-26.2v-.3h.3c11,0,14.5-3.5,14.5-3.6l.3-.2.3.2c0,.1,3.5,3.6,14.5,3.6h.3v.3c.1.2,2.4,17.3-14.9,26.2ZM234.1,51c-.3,2.3-1,17,14.4,24.9C263.9,68,263.2,53.3,263,51c-9.6-.1-13.5-2.8-14.5-3.6C247.5,48.2,243.6,50.9,234.1,51Z"/><path class="cls-7" d="M337.1,329.9c-2.6-11.9,3-14.9,8.4-17.7s8.7-4.6,8.5-11.6c-.3-9.3,6-12.7,11.6-15.7s8.1-4.3,8.7-8.6c1.4-10.1,10.8-22.8,10.9-22.9l.6.4c-.1.1-9.4,12.6-10.8,22.6-.6,4.6-4.7,6.8-9,9.1s-11.6,6.2-11.3,15.1c.2,7.4-4.4,9.9-8.8,12.2s-10.6,5.6-8.1,17Z"/><path class="cls-8" d="M339.9,326.9h-.3c-2.4-.2-4.7-2-7.3-5.7l-.2-.2.2-.2c.1-.1,4.2-5.1,2.7-14.7-.4-2.2-.8-3.9-1.2-5.3s-1-3.3-.3-4.3,2.9-2.1,8.9-3.5,8.5-8.7,10.4-15.1,3.4-11.6,8.4-11.4,11.5-7,17.6-13.3,11-11.3,14.4-11.2a3,3,0,0,1,2.1,1c3,3.7.2,9.2-2.6,14.5s-4.5,8.8-3.1,11.7,2,6.8.7,9.3-5.2,4.9-10.8,5.7-5.7,6.4-6.3,12.3-1.4,14.7-10.1,15.5c-6.4.5-10.7,5-14.5,9S343,326.9,339.9,326.9ZM333,321q3.6,5,6.6,5.1c2.9.3,5.5-2.5,8.5-5.6s8.3-8.7,15-9.2,8.7-7.9,9.4-14.9,1.2-12.1,6.9-12.9,8.8-2.6,10.3-5.4.9-5.3-.8-8.6.7-7.6,3.2-12.3,5.3-10.4,2.6-13.7a2.2,2.2,0,0,0-1.5-.8c-3.1-.1-8.4,5.3-13.9,11.1s-13.1,13.4-18,13.4h-.2c-4.4-.1-5.9,5-7.6,11s-4.2,13.9-11,15.5-7.7,2-8.4,3.1-.1,1.9.4,3.8a34.4,34.4,0,0,1,1.2,5.4C337.1,314.9,333.9,319.9,333,321Z"/><path class="cls-9" d="M340.2,324.4h-.3c-3.8-.4-6.8-8.8-9.7-17a63.8,63.8,0,0,0-3.9-9.9,55.8,55.8,0,0,0-3.4-5.6c-3.1-4.9-6.4-10-5.4-14.4.6-2.4,2.3-4.3,5.2-6,6.3-3.6,5.3-5.7,3.2-10.2a32.7,32.7,0,0,1-3.8-15c0-3.1-.1-5.7-.2-8.1-.2-7.5-.3-11.3,1.3-12.6s1.6-.7,3-.5,3.2,2.3,4.3,4.2,2.8,5.3,7.4,6.3,8.3,2.1,9.5,5,0,4.6-2.3,8a2.3,2.3,0,0,0-.6,2.1c.3,1.4,2.5,2.4,4.9,3.5s7.9,3.7,9.2,7.9-.2,7.7-3.6,13c-7.9,12.6-7.6,21.1-7.3,28.7.2,5.6.4,10.8-3,16.7Q342.5,324.4,340.2,324.4ZM325,225.7a2.5,2.5,0,0,0-1.3.4c-1.3,1.2-1.2,5.1-1,12.1,0,2.4.1,5,.1,8.1a32,32,0,0,0,3.8,14.7c2.1,4.5,3.3,7.2-3.6,11.2-2.7,1.5-4.2,3.3-4.8,5.5-1,4.1,2.2,9,5.3,13.8,1.2,1.9,2.5,3.8,3.5,5.6a69.9,69.9,0,0,1,3.9,10c2.7,7.6,5.7,16.2,9.1,16.6,1.3.1,2.7-1.1,4.1-3.5,3.2-5.8,3-10.7,2.8-16.4-.3-7.6-.6-16.3,7.5-29.1,3.3-5.1,4.4-9.2,3.5-12.4s-5.2-5.7-8.8-7.4-4.9-2.3-5.3-4a3,3,0,0,1,.7-2.7c2.2-3.2,2.9-5.6,2.2-7.4s-5.1-3.7-9-4.5-6.5-4.1-7.9-6.6-1.8-3.5-3.8-3.9Z"/><path class="cls-10" d="M340.3,328.9l-.7-.2c3.9-12.3-3.2-39.9-5.3-46.7-1-3.3,0-8.2.9-13.1s2.4-12.6-.7-15c-5.9-4.5-5.6-15-5.6-15.4h.7c0,.1-.3,10.5,5.3,14.8,3.5,2.7,2.2,9.4,1,15.8-.9,4.7-1.8,9.6-.9,12.7C337.6,290.1,344.2,316.6,340.3,328.9Z"/><path class="cls-11" d="M310.8,249c-1.6-4.2-7.9-3.5-7.3,2.3s4.6,12-1.6,21.9,8,11.8,13,18,6.8,14.8,11.1,20.2,7.1,18.4,10.6,13.6.2-11.2.6-19.9,8.2-14.2.4-19.9-15.6-7.3-13-20C325.7,259.6,315.9,261.8,310.8,249Z"/><path class="cls-5" d="M342.3,326.1c-.1-.2-4.4-25.8-14-32.8s-11.7-13.8-15.1-29.3l.7-.2c3.4,15.4,5.2,21.9,14.8,28.9S342.8,324.9,343,326Z"/><path class="cls-12" d="M333.6,325.2s2.8-7.1-2.4-17.2-9.4-8.5,3.1-16.3.1-32.2,10.8-35.3,20.1-42.7,28.2-37.6-2.7,24.4,3.1,30.2,6.6,13.3-5.4,19.3,8.5,28.9-7.8,35.8S351.6,338.5,333.6,325.2Z"/><path class="cls-5" d="M338.5,332.7c0-.1-1.7-9.1,3.8-20.9s8.3-25,7.2-35c-.6-5.4,2.9-7.5,6.2-9.5s6.7-4.1,6.5-9.4,1.9-16,1.9-16.5h.8c-.1.2-2.1,11.7-2,16.4s-3.3,7.9-6.8,10-6.4,3.9-5.8,8.8c1.1,10.1-1.6,23.3-7.3,35.4s-3.8,20.4-3.7,20.5Z"/><path class="cls-5" d="M351.7,282.6c3.7-3.4,8.5-3.9,7.5,1.1s-4.5,6.5-2.7,9.7,4.6,6.3-.3,10.2-7.7,4.3-9.1,11.7-1.2,12.4-7.5,12.7-3.9-9-1.9-13.1a13.7,13.7,0,0,0,1-11.1c-2-6.2-5.9-9.6,2.3-11.7S349.2,284.9,351.7,282.6Z"/><path class="cls-13" d="M340.1,332.7c-.1-.9-.5-22.1,3.5-25.7s4.8-10,4.9-13.5,6-7.3,6.3-7.4l.3.6c-.1.1-5.8,2.7-5.9,6.8s-1.1,10.5-5.1,14.1-3.3,24.8-3.3,25Z"/><polygon class="cls-14" points="354.9 324 348.4 348.9 333.7 348.9 327.1 324 354.9 324"/><path class="cls-15" d="M354.9,324s-14.4,2.7-14.4,24.9h-6.8L327.1,324Z"/><rect class="cls-16" x="83.1" y="233.3" width="19.3" height="2.19"/><polygon class="cls-17" points="79 172.9 48.2 172.9 48.2 133.5 48.9 133.5 48.9 172.2 79 172.2 79 172.9"/><polygon class="cls-17" points="209.6 146.9 208.9 146.9 208.9 106.3 248.1 106.3 248.1 72 248.9 72 248.9 107 209.6 107 209.6 146.9"/><polygon class="cls-17" points="336.4 192.3 295.6 192.3 295.6 191.5 335.7 191.5 335.7 167.8 336.4 167.8 336.4 192.3"/><rect class="cls-18" x="231.6" y="203" width="34.5" height="7.08"/><rect class="cls-19" x="231.6" y="210.1" width="34.5" height="28.33"/><rect class="cls-18" x="193.4" y="203" width="34.5" height="7.08"/><rect class="cls-20" x="158.8" y="175.5" width="18.6" height="1.55"/><rect class="cls-21" x="158.8" y="179.3" width="18.6" height="1.55"/><rect class="cls-21" x="158.8" y="183.1" width="18.6" height="1.55"/><rect class="cls-21" x="158.8" y="186.8" width="18.6" height="1.55"/><circle class="cls-22" cx="191.1" cy="182" r="9.3"/><rect class="cls-20" x="204.1" y="175.5" width="18.6" height="1.55"/><rect class="cls-21" x="204.1" y="179.3" width="18.6" height="1.55"/><rect class="cls-21" x="204.1" y="183.1" width="18.6" height="1.55"/><rect class="cls-21" x="204.1" y="186.8" width="18.6" height="1.55"/><circle class="cls-18" cx="236.3" cy="182" r="9.3" transform="translate(-26.1 40.2) rotate(-9.2)"/><rect class="cls-20" x="249.4" y="175.5" width="18.6" height="1.55"/><rect class="cls-21" x="249.4" y="179.3" width="18.6" height="1.55"/><rect class="cls-21" x="249.4" y="183.1" width="18.6" height="1.55"/><rect class="cls-21" x="249.4" y="186.8" width="18.6" height="1.55"/><rect class="cls-19" x="193.4" y="210.1" width="34.5" height="28.33"/><rect class="cls-18" x="155.2" y="203" width="34.5" height="7.08"/><rect class="cls-19" x="155.2" y="210.1" width="34.5" height="28.33"/><rect class="cls-20" x="164.6" y="205.9" width="15.7" height="1.3"/><rect class="cls-20" x="202.8" y="205.9" width="15.7" height="1.3"/><rect class="cls-20" x="241" y="205.9" width="15.7" height="1.3"/><path class="cls-23" d="M31.1,225.2s-.9,12.3,1.5,13.8,7.5,4,7.3,4.6-3.4,5.1-3.4,5.1-11.5-7.5-11.9-9.9.6-18,2.2-18.7,1.8-.1,3.3,1A3.5,3.5,0,0,1,31.1,225.2Z"/><path class="cls-24" d="M29.7,314.5s-.3,2.5-.4,2.9-4-.2-4-.2l-.3-3S29.2,314.2,29.7,314.5Z"/><path class="cls-25" d="M29.4,317.1a9.2,9.2,0,0,0,2.4,2.1c1.2.7,3.1.9,3.8,1.6s1.9,2.6-3.1,2.5-7.4.3-8-.5.8-5.9.8-5.9A12,12,0,0,0,29.4,317.1Z"/><path class="cls-24" d="M49.4,314.5s-.3,2.5-.4,2.9-4-.2-4-.2l-.3-3S48.9,314.2,49.4,314.5Z"/><path class="cls-25" d="M49,317.1a10.4,10.4,0,0,0,2.5,2.1c1.2.7,5.6,1.2,6.4,1.9s1.3,2.4-5.7,2.2c-5-.1-7.4.3-8-.5s.8-5.9.8-5.9S46.1,317.4,49,317.1Z"/><path class="cls-25" d="M31.1,250.7s-3.7,5.9-3.4,11.2a102.7,102.7,0,0,1-.9,16.5c-.6,6.2-2.3,19.1-2.4,22.4s.1,15.8.1,15.8H31s2.2-25.1,3.3-27.8,5.7-21.5,5.9-23.5S31.1,250.7,31.1,250.7Z"/><path class="cls-25" d="M50.6,251.5s1.5,14.5,1.8,17.7.1,17.3.3,19.4-1.2,23.5-1.6,27.6h-7s-.5-17.3-.5-25.8S41.4,272,39,266.5s-8.2-5.7-9.7-16.1C29.3,250.4,48.5,248.2,50.6,251.5Z"/><path class="cls-26" d="M35,201.2s4.4-3,7.5.2,4.6,10.6,2.4,12-6,1.9-7.8-.1-3.7-5.1-4.1-7.3A4.9,4.9,0,0,1,35,201.2Z"/><path class="cls-26" d="M43.4,213.9a19.5,19.5,0,0,0,.3,3.8c.4.7-6.4.7-6.4.7a51,51,0,0,0-1.6-6.6C34.6,208.7,43.4,213.9,43.4,213.9Z"/><path class="cls-27" d="M35.9,211.7s.6.6,2.4-.1,3.4-3.7,4.2-4.2.6-.9.6-.9l.6.6h.9s-1.3-2.1-.4-3.2-2.9-6.9-8.3-3.4c0,0-4.3,2.3-3.5,4.9S34.5,210.6,35.9,211.7Z"/><path class="cls-28" d="M44.1,217.6s0-1.2-.6-1.4a53.7,53.7,0,0,0-7-.4v1.5S37.9,218.1,44.1,217.6Z"/><path class="cls-26" d="M42.7,205.6c-.2-.4-1.6-1.4-1.7,0s1.4,3,1.9,2.7S43.3,206.6,42.7,205.6Z"/><rect class="cls-29" x="89.4" y="136.3" width="50.4" height="117.85"/><path class="cls-27" d="M33.8,201.9s-6.3,1.7,1.8,9.6Z"/><path class="cls-26" d="M90.1,235.4H83.6c.6-.3,1.5-.9,1.3-1.2s-2.1.5-2.9.5a13,13,0,0,0-2.6.3l-2.1.9,1.9,1.7,4.3.6c1.6.1,6.5-1.8,6.6-2.1S90.1,235.4,90.1,235.4Z"/><path class="cls-23" d="M52.5,219.4c-4.1-.7-8.4-1.8-8.4-1.8l-7.6-.3s-7,1.5-9.7,2.8c-.3.1-.3,6.2-1,7.8l2.3,4.8s1.3,9.5,1.6,13.8c.1,1.9-2.7,18.2-2.7,18.2a52.3,52.3,0,0,0,8.2,1.5c5.2.6,18.1-.2,18.2-.8s-2.5-22.9-2.6-24,.5-9.9.5-9.9a53.8,53.8,0,0,0,9.4,7.8c2,1.1,6.8.4,8.2.3,3.1-.4,11.6-1,11.7-1.3a8.8,8.8,0,0,0-.8-3.4c-.3-.1-11.3-.6-14-.5-1.1.1-4.8-4-4.8-4S54.7,220.4,52.5,219.4Z"/><polygon class="cls-30" points="5.7 188.6 25.8 188.6 25.8 203.2 25.8 206.3 22.8 203.2 5.7 203.2 5.7 188.6"/><path class="cls-6" d="M323.5,142.2H304V122.7h19.5Zm-18.9-.6h18.2V123.3H304.6Z"/><path class="cls-6" d="M372.1,129.9H327.4v-4.8h44.7Zm-44.1-.7h43.4v-3.5H328Z"/><path class="cls-6" d="M372.1,152.1H304v-4.8h68.1Zm-67.5-.7h66.8v-3.5H304.6Z"/><path class="cls-6" d="M347.4,161.2H304v-4.8h43.4Zm-42.8-.6h42.1v-3.5H304.6Z"/><path class="cls-6" d="M357.7,139H327.4v-4.8h30.3Zm-29.7-.7h29v-3.5H328Z"/><path class="cls-6" d="M379.8,171.6H296.2V112.3h83.6Zm-83-.6h82.4V113H296.8Z"/><polygon class="cls-6" points="272.6 85.8 266.4 85.8 266.4 85.1 271.9 85.1 271.9 79.5 272.6 79.5 272.6 85.8"/><polygon class="cls-6" points="230.6 85.8 224.3 85.8 224.3 79.5 225 79.5 225 85.1 230.6 85.1 230.6 85.8"/><polygon class="cls-6" points="225 43.7 224.3 43.7 224.3 37.5 230.6 37.5 230.6 38.2 225 38.2 225 43.7"/><polygon class="cls-6" points="272.6 43.7 271.9 43.7 271.9 38.2 266.4 38.2 266.4 37.5 272.6 37.5 272.6 43.7"/><rect class="cls-6" x="271.9" y="53.1" width="0.7" height="17.14"/><rect class="cls-31" x="89.4" y="136.3" width="191.8" height="13.61"/><rect class="cls-6" x="224.3" y="53.1" width="0.7" height="17.14"/><rect class="cls-32" x="149.1" y="154.9" width="65.9" height="8" rx="2.3"/><path class="cls-33" d="M212.4,154.7h14.7a2.4,2.4,0,0,1,1.8.7,2.6,2.6,0,0,1,.7,1.7v3.5a2.4,2.4,0,0,1-2.5,2.5H212.2v-8.4Z"/><path class="cls-34" d="M255,154.7h14.7a2.4,2.4,0,0,1,2.4,2.4v3.5a2.4,2.4,0,0,1-.7,1.8,2.6,2.6,0,0,1-1.7.7H239.8a2.4,2.4,0,0,1-1.7-.7,2.5,2.5,0,0,1-.8-1.8v-3.5a2.3,2.3,0,0,1,.8-1.7,2.1,2.1,0,0,1,1.7-.7H255Z"/><path class="cls-17" d="M48.6,133.8a2.7,2.7,0,1,1,2.6-2.6A2.7,2.7,0,0,1,48.6,133.8Zm0-4.6a2,2,0,1,0,0,3.9,2,2,0,0,0,1.9-1.9A2,2,0,0,0,48.6,129.2Z"/><path class="cls-17" d="M248.5,72.4a2.7,2.7,0,1,1,2.7-2.7A2.7,2.7,0,0,1,248.5,72.4Zm0-4.6a1.9,1.9,0,0,0-1.9,1.9,1.9,1.9,0,0,0,1.9,2,2,2,0,1,0,0-3.9Z"/><rect class="cls-21" x="101.7" y="160.4" width="23.5" height="3.17"/><rect class="cls-21" x="101.7" y="189.5" width="23.5" height="3.17"/><rect class="cls-21" x="101.7" y="204.1" width="23.5" height="3.17"/><path class="cls-17" d="M336.1,168.3a2.7,2.7,0,0,1,0-5.4,2.7,2.7,0,0,1,0,5.4Zm0-4.6a1.9,1.9,0,0,0-2,1.9,2,2,0,1,0,3.9,0A1.9,1.9,0,0,0,336.1,163.7Z"/><rect class="cls-5" x="94" y="172.5" width="41" height="7.58"/><path class="cls-35" d="M66.3,59.5H47.9V41.1H66.3Zm-17.6-.8H65.6V41.8H48.7Z"/><rect class="cls-20" x="100.4" y="175.1" width="28.2" height="2.35"/><rect class="cls-35" x="56.8" y="46.1" width="0.7" height="8.57"/><rect class="cls-35" x="52.8" y="50" width="8.6" height="0.73"/><path class="cls-35" d="M346.5,81.6H320.3V62.9h26.2ZM321,80.9h24.8V63.6H321Z"/><polygon class="cls-35" points="333.4 74.2 320.4 63.5 320.9 63 333.4 73.3 345.9 63 346.4 63.5 333.4 74.2"/><rect class="cls-35" x="341.1" y="69.4" width="0.7" height="13.71" transform="translate(41.2 255.9) rotate(-43.5)"/><rect class="cls-35" x="318.5" y="75.9" width="13.7" height="0.73" transform="translate(46.2 260) rotate(-46.6)"/><rect class="cls-5" x="95.7" y="140" width="28.1" height="6.22" rx="3.1"/><circle class="cls-30" cx="98.8" cy="143.1" r="2.5"/><path class="cls-35" d="M112.2,100.5l-.3-.7-.7-.2-.5.5L109,99l.3-.7-.3-.6h-.8l-.3-1.9.7-.3c0-.2.1-.5.1-.7l-.5-.6,1.2-1.6.7.3.6-.4v-.7l2-.4.2.7.8.2.5-.5,1.6,1.1-.3.7a1.6,1.6,0,0,1,.4.7h.8l.3,1.9-.7.3a1.4,1.4,0,0,1-.2.7l.6.6-1.2,1.6-.7-.3-.6.4v.8ZM111.1,99h.1a1.5,1.5,0,0,0,.9.2h.2l.3.6,1-.2V99h.1l.8-.5h.1l.6.2.7-.9-.5-.4v-.2a2.9,2.9,0,0,0,.2-.9V96l.6-.2-.2-1.1h-.6v-.2l-.5-.7v-.2l.3-.6-.9-.6-.5.4h-.2l-.9-.2h-.1l-.3-.7-1.1.2v.7h-.1l-.8.5v.2l-.6-.3-.7.9.5.5h-.1a2.9,2.9,0,0,0-.2.9v.2l-.6.2.2,1.1h.6v.2a3.5,3.5,0,0,0,.5.8h.1l-.3.6.9.6Zm1.3-.9a2.8,2.8,0,0,1-1.2-.4,2.1,2.1,0,0,1-.5-3,2.2,2.2,0,0,1,3-.6,2.4,2.4,0,0,1,.9,1.4,2.5,2.5,0,0,1-.4,1.7,2.2,2.2,0,0,1-1.4.8Zm0-3.8a1.5,1.5,0,0,0-1.3.7,2.4,2.4,0,0,0-.3,1.2,1.8,1.8,0,0,0,.7,1h0a1.4,1.4,0,0,0,1.2.3,1.9,1.9,0,0,0,1.1-.7,1.6,1.6,0,0,0,.2-1.2,1.3,1.3,0,0,0-.6-1A1.7,1.7,0,0,0,112.4,94.3Z"/><path class="cls-35" d="M97,102.8l-.6-1.6a6.7,6.7,0,0,1-1.9-.5l-1.3,1.2-3.3-2.4.7-1.6a9.1,9.1,0,0,1-1.1-1.6H87.8l-.7-4.1,1.6-.6a6.7,6.7,0,0,1,.5-1.9L88,88.4,90.4,85l1.6.7a9.1,9.1,0,0,1,1.6-1.1V82.9l4.1-.7.6,1.6,1.9.5,1.2-1.2,3.4,2.4-.7,1.6a9.1,9.1,0,0,1,1.1,1.6H107l.7,4.1-1.6.6a13.3,13.3,0,0,1-.5,1.9l1.2,1.3-2.4,3.3-1.6-.7a9.1,9.1,0,0,1-1.6,1.1v1.7Zm-2.7-2.9h.2l2.2.5h.2l.6,1.5,2.9-.5V99.9h.3a7.1,7.1,0,0,0,1.8-1.2h.2l1.4.6,1.8-2.4-1.1-1.1v-.2a17.4,17.4,0,0,0,.5-2.2V93l1.4-.6-.4-2.9h-1.6v-.2a7.1,7.1,0,0,0-1.2-1.8v-.2l.6-1.4L101.6,84l-1.1,1.1h-.3l-2.1-.5h-.2l-.6-1.4-2.9.4v1.6h-.2a7.6,7.6,0,0,0-1.9,1.2h-.1l-1.5-.6-1.7,2.4L90,89.4v.3a12.9,12.9,0,0,0-.5,2.1V92l-1.5.6.5,2.9H90v.2a7.6,7.6,0,0,0,1.2,1.9h.1l-.6,1.5,2.4,1.7Zm3.1-2.7a5,5,0,0,1-2.7-.8,4.7,4.7,0,0,1-1.2-6.6,4.8,4.8,0,0,1,6.6-1.1,4.7,4.7,0,0,1,1.1,6.5A4.6,4.6,0,0,1,97.4,97.2Zm0-8.7a4,4,0,0,0-3.3,1.7,3.9,3.9,0,0,0-.6,3,3.9,3.9,0,0,0,1.6,2.6,4,4,0,0,0,5.5-1,3.5,3.5,0,0,0,.7-3,3.8,3.8,0,0,0-1.6-2.5A4,4,0,0,0,97.4,88.5Z"/><path class="cls-17" d="M18.4,106.6A13.6,13.6,0,0,1,4.8,93h.7A12.9,12.9,0,1,0,18.4,80.1v-.7a13.6,13.6,0,1,1,0,27.2Zm0-1.9A11.7,11.7,0,1,1,30.1,93h-.7a11,11,0,1,0-11,11Z"/><polygon class="cls-17" points="16.7 97.5 11.8 92.6 12.4 92.1 16.7 96.5 24.5 88.8 25 89.3 16.7 97.5"/><polygon class="cls-36" points="289 259.9 185.6 259.9 82.2 259.9 59.6 344.4 186.3 344.4 311.6 344.4 289 259.9"/><path class="cls-5" d="M90,274.7h12.7c.6,0,1,.4.9.9l-1.3,5.5c0,.3-.4.6-.8.6H88.6c-.6,0-1-.5-.8-.9l1.4-5.5A.8.8,0,0,1,90,274.7Z"/><polygon class="cls-5" points="108.6 274.7 118.2 274.7 116.9 281.7 107.1 281.7 108.6 274.7"/><polygon class="cls-5" points="123 274.7 132.6 274.7 131.6 281.7 121.8 281.7 123 274.7"/><path class="cls-37" d="M267.6,142.5l2.8-2.8h.6a.6.6,0,0,1,0,.6l-2.8,2.8c-.2.2-.5.2-.6,0h0C267.4,143,267.4,142.7,267.6,142.5Z"/><path class="cls-37" d="M273.8,142.5l-2.8-2.8h-.6c-.2.2-.2.5,0,.6l2.8,2.8c.1.2.4.2.6,0h0A.6.6,0,0,0,273.8,142.5Z"/><path class="cls-37" d="M268.9,141.6h.1l-.5.5h0c0-.2.2-.3.4-.3Zm1.8-.5-2.2,2.1v2.3a.4.4,0,0,0,.4.4H270v-2.1h1.4v2.1h1.1c.2,0,.3-.2.3-.4v-2.3l-2.1-2.1Zm1.7.4h.1a.3.3,0,0,1,.3.3h0Z"/><rect class="cls-5" x="268.5" y="140.1" width="0.7" height="1.83"/><polygon class="cls-5" points="137.4 274.7 147 274.7 146.2 281.7 136.5 281.7 137.4 274.7"/><polygon class="cls-5" points="151.8 274.7 161.4 274.7 160.9 281.7 151.1 281.7 151.8 274.7"/><polygon class="cls-5" points="166.2 274.7 175.8 274.7 175.6 281.7 165.8 281.7 166.2 274.7"/><polygon class="cls-5" points="281.4 274.7 267 274.7 268.6 281.7 283.3 281.7 281.4 274.7"/><polygon class="cls-5" points="262.2 274.7 252.6 274.7 253.9 281.7 263.7 281.7 262.2 274.7"/><polygon class="cls-5" points="247.8 274.7 238.2 274.7 239.2 281.7 249 281.7 247.8 274.7"/><polygon class="cls-5" points="233.4 274.7 223.8 274.7 224.6 281.7 234.3 281.7 233.4 274.7"/><polygon class="cls-5" points="219 274.7 209.4 274.7 209.9 281.7 219.7 281.7 219 274.7"/><polygon class="cls-5" points="204.6 274.7 195 274.7 195.2 281.7 205 281.7 204.6 274.7"/><polygon class="cls-5" points="180.6 274.7 190.2 274.7 190.3 281.7 180.6 281.7 180.6 274.7"/><polygon class="cls-5" points="85.8 286.9 105.9 286.9 104.7 294.1 84.3 294.1 85.8 286.9"/><polygon class="cls-5" points="284.6 286.9 259.8 286.9 261.2 294.1 286.5 294.1 284.6 286.9"/><polygon class="cls-5" points="254.8 286.9 244.9 286.9 246 294.1 256.1 294.1 254.8 286.9"/><polygon class="cls-5" points="239.9 286.9 230 286.9 230.9 294.1 241 294.1 239.9 286.9"/><polygon class="cls-5" points="225 286.9 215.1 286.9 215.7 294.1 225.8 294.1 225 286.9"/><polygon class="cls-5" points="210.2 286.9 200.2 286.9 200.5 294.1 210.6 294.1 210.2 286.9"/><polygon class="cls-5" points="82.8 299.7 103.3 299.7 101.8 306.8 80.9 306.8 82.8 299.7"/><polygon class="cls-5" points="108.4 299.7 118.7 299.7 117.5 306.8 107 306.8 108.4 299.7"/><polygon class="cls-5" points="123.8 299.7 134.1 299.7 200.8 299.7 201 306.8 122.7 306.8 123.8 299.7"/><polygon class="cls-5" points="205.9 299.7 216.2 299.7 216.7 306.8 206.3 306.8 205.9 299.7"/><polygon class="cls-5" points="221.3 299.7 231.5 299.7 232.4 306.8 221.9 306.8 221.3 299.7"/><polygon class="cls-5" points="236.7 299.7 246.9 299.7 248 306.8 237.6 306.8 236.7 299.7"/><polygon class="cls-5" points="252.1 299.7 262.3 299.7 263.7 306.8 253.3 306.8 252.1 299.7"/><polygon class="cls-5" points="267.4 299.7 288 299.7 289.8 306.8 268.9 306.8 267.4 299.7"/><polygon class="cls-5" points="195.3 286.9 185.5 286.9 185.5 294.1 195.5 294.1 195.3 286.9"/><polygon class="cls-5" points="180.4 286.9 170.5 286.9 170.2 294.1 180.3 294.1 180.4 286.9"/><polygon class="cls-5" points="165.5 286.9 155.6 286.9 155 294.1 165.2 294.1 165.5 286.9"/><polygon class="cls-5" points="150.7 286.9 140.7 286.9 139.9 294.1 150 294.1 150.7 286.9"/><polygon class="cls-5" points="135.8 286.9 125.8 286.9 124.7 294.1 134.8 294.1 135.8 286.9"/><polygon class="cls-5" points="120.9 286.9 111 286.9 109.6 294.1 119.7 294.1 120.9 286.9"/><polygon class="cls-5" points="90.5 270.3 92.1 264.1 96.8 264.1 95.3 270.3 90.5 270.3"/><polygon class="cls-5" points="101.5 264.1 110.8 264.1 109.5 270.3 100 270.3 101.5 264.1"/><polygon class="cls-5" points="115.4 264.1 124.8 264.1 123.7 270.3 114.2 270.3 115.4 264.1"/><polygon class="cls-5" points="129.4 264.1 138.8 264.1 137.9 270.3 128.4 270.3 129.4 264.1"/><polygon class="cls-5" points="143.4 264.1 152.7 264.1 152.2 270.3 142.7 270.3 143.4 264.1"/><polygon class="cls-5" points="157.4 264.1 166.7 264.1 166.4 270.3 156.9 270.3 157.4 264.1"/><polygon class="cls-5" points="171.4 264.1 180.7 264.1 180.6 270.3 171.1 270.3 171.4 264.1"/><polygon class="cls-5" points="185.4 264.1 194.7 264.1 194.9 270.3 185.4 270.3 185.4 264.1"/><polygon class="cls-5" points="199.4 264.1 208.7 264.1 209.1 270.3 199.6 270.3 199.4 264.1"/><polygon class="cls-5" points="213.4 264.1 222.7 264.1 223.3 270.3 213.8 270.3 213.4 264.1"/><polygon class="cls-5" points="227.3 264.1 236.7 264.1 237.6 270.3 228.1 270.3 227.3 264.1"/><polygon class="cls-5" points="241.3 264.1 250.7 264.1 251.8 270.3 242.3 270.3 241.3 264.1"/><polygon class="cls-5" points="255.3 264.1 264.6 264.1 266 270.3 256.5 270.3 255.3 264.1"/><polygon class="cls-5" points="269.3 264.1 278.6 264.1 280.3 270.3 270.8 270.3 269.3 264.1"/><path class="cls-38" d="M305,351H66.2a6.5,6.5,0,0,1-6.6-6.6h252A6.6,6.6,0,0,1,305,351Z"/><path class="cls-39" d="M214.9,317.1a3.2,3.2,0,0,0-3.1-2.6H159.3a3,3,0,0,0-3,2.6L153,336.9a3.1,3.1,0,0,0,3,3.6h59.1a3.1,3.1,0,0,0,3.1-3.6Z"/><rect class="cls-40" x="285.7" y="208.8" width="17.7" height="4.73" rx="1.2"/><rect class="cls-40" x="285.7" y="217.7" width="17.7" height="4.73" rx="1.2"/><rect class="cls-40" x="285.7" y="226.5" width="17.7" height="4.73" rx="1.2"/><path class="cls-40" d="M277.3,198.9a24.1,24.1,0,0,0-23.6-16.1,22.1,22.1,0,0,0-7.5,1.4,24.5,24.5,0,0,0-15.1,15.7,24,24,0,0,0,.4,15.4,4.7,4.7,0,0,0,.6,1.5,22.1,22.1,0,0,0,3.7,6.1,24.4,24.4,0,0,0,41.5-24Zm-16.8,25.4a18.1,18.1,0,0,1-20-5.4,14.8,14.8,0,0,1-2.8-4.5l-.5-1.1a17.8,17.8,0,0,1-.2-11.6,18,18,0,0,1,11.2-11.8,19,19,0,0,1,5.7-1A18,18,0,0,1,271.6,201,18.2,18.2,0,0,1,260.5,224.3Z"/><path class="cls-41" d="M237,201.7l-5.9-1.8a24.5,24.5,0,0,1,15.1-15.7,22.1,22.1,0,0,1,7.5-1.4l.2,6.1a19,19,0,0,0-5.7,1A18,18,0,0,0,237,201.7Z"/><path class="cls-42" d="M237.7,214.4l-5.6,2.4a4.7,4.7,0,0,1-.6-1.5,24,24,0,0,1-.4-15.4l5.9,1.8a17.8,17.8,0,0,0,.2,11.6Z"/><path class="cls-43" d="M235.8,222.9a22.1,22.1,0,0,1-3.7-6.1l5.6-2.4a14.8,14.8,0,0,0,2.8,4.5Z"/><path class="cls-26" d="M261.1,222.8s-1.3-2.3.7-8.3a6,6,0,0,1,10.9-1.5c2.2,3.7,1.5,6-1.7,10.2S262.4,224.7,261.1,222.8Z"/><path class="cls-26" d="M276.8,325.8s.4,2.5.4,2.9,3.8-.3,3.8-.3l.3-2.9S277.3,325.5,276.8,325.8Z"/><path class="cls-44" d="M277.2,328.3a12.1,12.1,0,0,1-2.3,2.2c-1.1.6-2.9.9-3.6,1.5s-1.8,2.6,2.9,2.6,7,.3,7.5-.5-.7-5.9-.7-5.9A13.3,13.3,0,0,1,277.2,328.3Z"/><path class="cls-26" d="M251.3,325.8s.3,2.5.4,2.9,3.7-.3,3.7-.3l.3-2.9S251.8,325.5,251.3,325.8Z"/><path class="cls-44" d="M251.6,328.3a9.5,9.5,0,0,1-2.3,2.2c-1.1.6-5.3,1.1-5.9,1.8s-1.3,2.4,5.3,2.3c4.7-.2,7,.3,7.5-.5s-.8-5.9-.8-5.9A23,23,0,0,1,251.6,328.3Z"/><path class="cls-45" d="M275.6,264.6a34.7,34.7,0,0,1,1.6,10.9c-.2,5.1,1,10.6,1.5,15.9s2.9,19.9,3,23.1-.4,13.2-.4,13.2h-4.6s-3.8-24.4-4.8-26.9-6-20.3-6.1-22.3S275.6,264.6,275.6,264.6Z"/><path class="cls-45" d="M256.6,263.9s-2.8,15.6-3.1,18.7-.6,15-.7,17-1.1,25.3-2,28.2h5.1s5.2-17,5.2-25.1,3.5-17.5,5.7-22.8,7.4-5.5,8.8-15.3C275.6,264.6,258.5,260.8,256.6,263.9Z"/><path class="cls-26" d="M263,224.3a5.2,5.2,0,0,1,0,2.9c-.6,1.2,7.3.5,7.3.5a9.1,9.1,0,0,1,.7-4.5C272,221.1,263,224.3,263,224.3Z"/><path class="cls-46" d="M276,265.8s-2.9,3-19.7-.4l.3-1.5,19.1.8Z"/><path class="cls-26" d="M261.7,227.6l-3.7.5c-.9.1-6.5-1.1-7.7-1.2s-6.1-3.5-6.2-3.9-3-7.6-3.2-9.1-2.7-.8-2.5.3.9,6.9,1.2,8.3,1.2,5,1.7,5.4a34.2,34.2,0,0,0,9.3,5.2,40.8,40.8,0,0,1,7.6,3.6h21.4s8.4-11.9,8.5-13.7-5.8-13.8-7-15.3-2.9.5-2.9.5l4.1,12c.4,1.5-4.2,8.1-5.5,8.1s-4.6-.4-6-.4a11.4,11.4,0,0,1-3-.7Z"/><path class="cls-47" d="M252.5,235.6a7,7,0,0,1,2.9,4.7,67.6,67.6,0,0,0,1.6,9.3c.5,1.7-.4,13.4-.5,14.2s16.6,2.9,19.2.9c0,0,.7-11,1-14.1s1.7-10.7,2.2-11.7,6.3-9.1,6.5-10.2-3-4.8-5.1-4.9c0,0-3.5,4-4.6,4.2s-7.9-1-7.9-1.1-.8,1.1-4.7-.1l-5.5.6c-1,.1-7.4-.8-7.4-.8s-2.6,4.4-2.2,6.6Z"/><path class="cls-26" d="M241.1,214.8s-.6-2.8.1-3.6a8.9,8.9,0,0,0,1.4-1.8c.1-.2,1.2-.8,1.2-1.1s-1-.6-1.9.2-1.5,1-1.8.9-.9-3-.9-3.7-.3-2.7-.8-2.5-.4.9-.4.9-.6-1.4-.9-1.1-.3,1-.3,1-.7-.9-.9-.3a4.1,4.1,0,0,0,0,1.2s-.6-.4-.7.5a14.7,14.7,0,0,0,.7,4.6c.5,1,2.3,3.5,2.5,4.5S241.1,214.8,241.1,214.8Z"/><path class="cls-26" d="M278.8,209.9s-2-3.3-2.7-3.6a12.8,12.8,0,0,1-2.5-1.1c-.8-.6-1.9-1.1-1.9-1.3s1.1-.1,2.1.4,1.6.2,1.7,0a6.5,6.5,0,0,0-.9-2.4c-.3-.4-2.6-2.7-2.2-3s1.8.9,2.1,1.2-1.2-2.5-.8-2.6,1.4.7,1.4.7-.1-2.1,2.1,1.4c0,0-.4-1.2.3-.8s1.3,2.5,1.6,3.6,1.2,4.5,2,5.3S278.8,209.9,278.8,209.9Z"/><path class="cls-48" d="M271,223.2a8.6,8.6,0,0,1-3.3-.7c-2.2-.8-2.4-4.7-2.9-4.2a1.4,1.4,0,0,1-2.3-.3s1.1-1.4.6-2.1a5.2,5.2,0,0,0-1.3-1.2s1.6-7.6,8.7-4.1S271,223.2,271,223.2Z"/><path class="cls-49" d="M263,227.2l.2-1.1a53.3,53.3,0,0,1,7.1.3l.2,1.3A9.9,9.9,0,0,1,263,227.2Z"/><path class="cls-26" d="M264.1,217.3c.4-.7,1.9-1.1,2.1.8s-2.7,3.2-2.8,1.8A4.5,4.5,0,0,1,264.1,217.3Z"/><path class="cls-50" d="M241,214.2a4.6,4.6,0,0,0-2.5.7,2.3,2.3,0,0,0,.2.9,8.7,8.7,0,0,1,2.5-.8S241.2,214.4,241,214.2Z"/><path class="cls-48" d="M239,214.6c-.1.4,0,.8.4.9a.6.6,0,0,0,.9-.4.7.7,0,0,0-.3-.9A.8.8,0,0,0,239,214.6Z"/><path class="cls-51" d="M198.6,156s2.3,4,3.3,4.7.5,1.8-.1,1.8-3.9.2-4.7-.6-1-3.3-1.7-3.9-1.4-3.2.3-3.8S198.6,156,198.6,156Z"/><path class="cls-52" d="M197.5,154.3s2.7,4.7,3.2,5.3-.9.7-1.7.4-2.9-3.7-3.2-4.3a1.9,1.9,0,0,1-.1-1.5Z"/><polygon class="cls-51" points="194.8 156.8 195.4 161.6 195.8 161.6 195.7 158.2 194.8 156.8"/><path class="cls-51" d="M175.2,156s2.4,4,3.3,4.7.6,1.8-.1,1.8-3.9.2-4.6-.6-1.1-3.3-1.8-3.9-1.4-3.3.4-3.8S175.2,156,175.2,156Z"/><path class="cls-52" d="M174.3,154.3s2.6,4.7,3,5.3-.8.7-1.7.4-2.9-3.7-3.2-4.3a2.3,2.3,0,0,1,0-1.5Z"/><polygon class="cls-51" points="171.4 156.8 172.1 161.6 172.4 161.6 172.3 158.2 171.4 156.8"/><path class="cls-52" d="M164.8,119.7l21.3,9.7a4.2,4.2,0,0,1,2.6,3.4c.8,8.3,7,21.4,7,21.4,2,.9,1.8.1,1.8.1-1.2-4-2.7-20.5-3.3-27.2-.1-1.4-.2-2.3-.2-2.6s-.2-.5-.6-.8c-2.9-2.4-15-7.3-15-7.3C169.4,116.2,164.8,119.7,164.8,119.7Z"/><path class="cls-52" d="M160.7,123.9c.7,5.7,8.9,5.1,8.9,5.1h10a61.7,61.7,0,0,0-3.6,10.7c-1.1,5.2-3.6,14.5-3.6,14.5s.1.3,1.9.1c0,0,7.8-15.6,10.8-19.5a24.9,24.9,0,0,0,2.8-8.2c.2-.9.1-1.6-.3-1.9l-2.2-1.5c-3.1-2-8.5-5-11.5-5.7s-10.5-2.6-10.5-2.6A11.3,11.3,0,0,0,160.7,123.9Z"/><path class="cls-53" d="M167.5,79.5a8.8,8.8,0,0,1-.7-5.8c.7-3.1,3.5-6.1,7.6-4.7s7.4,4.6,4.9,8.3,2.3,5.3,1.1,7.1-.8,3.5-.3,3.9,2.2,1.9,2,3.6-8-5-8-5S169.9,78.4,167.5,79.5Z"/><path class="cls-54" d="M180,115.7s-.6,3-16.5-.8C163.5,114.9,168.8,113.1,180,115.7Z"/><path class="cls-55" d="M163.3,115.8c-.3.4-.5.9-.8,1.4l17.5.5c-.9-3.1-.6-7.3-.5-10.4s2.4-6.6,2.2-10.5l2.5.4c-1.8-5-2.4-7.5-7.9-9.5a11.4,11.4,0,0,0-4.9-.6c-6.3.6-8.2.6-11.3,6.4,4.8.8,4,2.5,5.5,7.4.7,2.3,1.5,5,1.1,7.5S163.3,113.5,163.3,115.8Z"/><path class="cls-26" d="M173.4,88.9c-2.6-.4-2-1.9-2-1.9a16.2,16.2,0,0,0,.1-1.8c0-.3.1-.6.1-.9s-.1-.8-.1-1.2,4.7-.7,4.7-.7-.3,3.5.4,4.5S176,89.4,173.4,88.9Z"/><path class="cls-26" d="M168.5,87s5.2,6.1,7.1,7.5c0,0,2.3-2.1.9-7.4C176.5,87.1,174,85.9,168.5,87Z"/><path class="cls-26" d="M168.6,72.5s-2.7,5.2,0,10.2,8-2.2,8.3-3,2.2-5.6-1.4-7S169.4,71,168.6,72.5Z"/><path class="cls-53" d="M169.5,74.3s-1.9,2.5-2.1,4.3a9.8,9.8,0,0,1,1.4-6.7c2.1-3.3,7.4-.2,8.2,1.1s2.8,2.5-.8,8.2C176.2,81.2,169.9,76.7,169.5,74.3Z"/><path class="cls-56" d="M173.9,83.2a5.6,5.6,0,0,1-2.4,2c0-.3.1-.6.1-.9A4.3,4.3,0,0,0,173.9,83.2Z"/><path class="cls-26" d="M146.4,111s-1.3.6-1.9.4a5.4,5.4,0,0,0-1.9-.4c-.4,0-1.6-.4-1.6.1s2,.8,2.4,1-1.2,1-1.4,1.4,1.7,3.1,2.8,2.3,1.6-2.2,1.8-2.3l.8-.6Z"/><path class="cls-26" d="M142.2,113.3a25.6,25.6,0,0,0-3,2.8c-.1.4.1.5.4.3l3-2.3-3.2,3.8c0,.2.3.5.4.4s3.4-3.5,3.4-3.5-2.8,3.4-2.8,3.6.3.5.5.3l3.1-3.2s-1.9,2.5-1.8,2.8.3.4.8-.3a22.1,22.1,0,0,1,1.7-2.2Z"/><path class="cls-23" d="M178.5,129h-8.9s-8.2.6-8.9-5.1a11.3,11.3,0,0,1,2.7-9l8.2,2.1a27.7,27.7,0,0,1,6.8-.6s16.1,5.3,15.6,8.1C194,124.5,187.3,120.9,178.5,129Z"/><polygon class="cls-57" points="172.7 119 189.8 118.8 181.2 123.1 172.7 119"/><path class="cls-55" d="M178,116.8a14.6,14.6,0,0,1-8.5.2l-.2-1.8,9.6.6Z"/><polygon class="cls-58" points="181.2 123.1 172.7 119.8 172.7 119 181.8 122.3 181.2 123.1"/><path class="cls-59" d="M178,117.6a.8.8,0,0,0,1.1.9l1-.5a.6.6,0,0,0,.4-.7c-.4-2.6-1.3-12.6,0-14.3a8.2,8.2,0,0,0,1-1.7c.8,2.2,1.9,5,2.3,6.5l8,10.7,2.7.7a88,88,0,0,0-6-12.4c-.5-1.4-2.1-5.7-3.4-9.5l-2-5.8a2.8,2.8,0,0,0-1.2-1.4,57.4,57.4,0,0,0-5.2-2.9h0c-.1,0-.2,0-.2-.1h0c3.6,5.5,2.2,20.7,1.5,30.5Z"/><path class="cls-59" d="M164.7,87.6c-1.2.2-4,2.9-5.5,5.7s-3.5,6.8-4.8,8-9.2,9.9-9.5,9.7a14.6,14.6,0,0,0,2.1,2.5c.1,0,11.1-9.5,12.2-11s3.6-7.1,4.4-7h.1c0,.2,1,2.3,1.9,5.4h.1a18.6,18.6,0,0,1,.2,7.1,27.5,27.5,0,0,1-2.6,6.8c-.2.2-.1.6,0,.9h0l.3.3,3.2,1.2.8.3a1.6,1.6,0,0,0,1.5-.2,1.9,1.9,0,0,0,.7-1.2c.7-5.5,1.6-11.1,2.3-13.2a20.2,20.2,0,0,0-1.2-16.4A55,55,0,0,0,164.7,87.6Z"/><polygon class="cls-60" points="181.2 123.1 186.2 109.3 202.5 109.6 197.7 122.3 181.2 123.1"/><path class="cls-61" d="M191.4,115.4c-.5,1-.3,2.1.4,2.4s1.6-.2,2.1-1.2.4-2-.3-2.4A1.9,1.9,0,0,0,191.4,115.4Z"/><path class="cls-53" d="M174.2,77.7a2.8,2.8,0,0,1,.1,3c-.9,1.4.3,2.8.5,4.3s-4.1,5.4.7,7.4,6.2-1.3,5-3.1a10.3,10.3,0,0,1-2.2-5.9C178.2,80.9,177.4,76.8,174.2,77.7Z"/><polygon class="cls-17" points="140.1 58.2 160.2 58.2 160.2 72.7 160.2 75.8 157.1 72.7 140.1 72.7 140.1 58.2"/></svg>