<svg id="Layer_1" data-name="Layer 1" xmlns="http://www.w3.org/2000/svg" viewBox="0 0 256 256"><defs><style>.cls-1{fill:none;stroke:#fff;stroke-miterlimit:10;stroke-width:11px;}.cls-2{fill:#fff;}</style></defs><circle class="cls-1" cx="128" cy="128" r="114.7"/><path class="cls-2" d="M106.2,180c6.3-2.4,8.8-6.9,7.8-13.5,4,.4,7.5-.3,10.2-3.3a10.8,10.8,0,0,0,2.6-10.1h1.3a10.8,10.8,0,0,0,10.7-6.1,10.6,10.6,0,0,0-2.2-12.1c-3.5-3.5-7.1-6.8-10.7-10.2l-19.8-19L93.7,94a8,8,0,0,1-1.3-1.3,7.7,7.7,0,0,1-.1-11,7.8,7.8,0,0,1,11-.1l9.8,9.2,21,19.9c1.9,1.7,3.8,3.5,5.8,5.1a19.4,19.4,0,0,0,4,2.2,7.4,7.4,0,0,0,8-1.3,17.5,17.5,0,0,0,4.2-5.2c1.9-3.2,3.8-6.4,5.8-9.6a9.5,9.5,0,0,1,14.9-1.1,8.8,8.8,0,0,1,1.8,9.3,10.5,10.5,0,0,1-1.4,2.8l-14.8,24.5a3.8,3.8,0,0,0-.2,4.2c1.6,3,2.9,6,4.4,9a21.1,21.1,0,0,1-9.4,28.7c-7.5,3.8-15.1,7.4-22.8,11-9.9,4.6-21.9.9-27.2-8.3Z"/><path class="cls-2" d="M93.6,127.1a8.4,8.4,0,0,1,6.1,2.4l14.8,14,7.2,6.7a7.8,7.8,0,0,1-9.3,12.5,20.1,20.1,0,0,1-2.8-2.3L88.8,140.8a8.1,8.1,0,0,1-2.1-8.9A7.8,7.8,0,0,1,93.6,127.1Z"/><path class="cls-2" d="M106.9,113.7a7.4,7.4,0,0,1,5.6,2.2l21.4,20.2c2,1.9,3.3,4.2,3,7.1a7.5,7.5,0,0,1-4.5,6.4,7.7,7.7,0,0,1-7.9-.9,6.4,6.4,0,0,1-1.5-1.3l-21-19.9a7.7,7.7,0,0,1-2.5-8.3A7.2,7.2,0,0,1,106.9,113.7Z"/><path class="cls-2" d="M103.6,177.3a8.2,8.2,0,0,1-5.7-2.3L81.4,159.3a27.2,27.2,0,0,1-2.4-2.4,7.8,7.8,0,0,1,10.9-11.1c3.1,2.8,6.1,5.8,9.2,8.7s6.2,5.9,9.3,8.7,4,7,1.8,10.4A7.4,7.4,0,0,1,103.6,177.3Z"/><path class="cls-2" d="M131.6,67.7a11.1,11.1,0,0,1,.7-2.6,2.9,2.9,0,0,1,3.3-1.3,3.1,3.1,0,0,1,2.6,2.6c.3,2.5.6,5,.8,7.5a31.3,31.3,0,0,1,.4,4.3,3.2,3.2,0,0,1-6.4.6c-.4-2.3-.6-4.6-.8-7s-.3-2.7-.5-4Z"/><path class="cls-2" d="M154.9,90.8a3.3,3.3,0,0,1-3.4-1.9,2.9,2.9,0,0,1,.6-3.5l1.5-1.2,7.7-5.6a3.3,3.3,0,0,1,2.9-.9,3,3,0,0,1,2.6,2.3,3,3,0,0,1-1.2,3.4,39.8,39.8,0,0,1-3.3,2.4L156.6,90A12.2,12.2,0,0,1,154.9,90.8Z"/><path class="cls-2" d="M146.5,83.6a3.1,3.1,0,0,1-3-4,10.9,10.9,0,0,1,1-2.5c1.1-2.4,2.1-4.9,3.2-7.3a8.3,8.3,0,0,1,.9-1.6,3.1,3.1,0,0,1,4-1.1,3.2,3.2,0,0,1,1.6,4,25.4,25.4,0,0,1-1.6,3.8l-3,6.7A2.9,2.9,0,0,1,146.5,83.6Z"/><path class="cls-2" d="M129.3,81.1c0,1.8-.6,2.8-1.8,3.3a3.4,3.4,0,0,1-3.7-.5,1.8,1.8,0,0,1-.5-.7c-2.1-2.8-4.2-5.6-6.2-8.5a5.1,5.1,0,0,1-.9-2.7,2.5,2.5,0,0,1,2.1-2.6,2.9,2.9,0,0,1,3.4.8,23.4,23.4,0,0,1,2.4,3.1c1.5,1.9,2.9,3.9,4.3,5.9S129.1,80.7,129.3,81.1Z"/></svg>