<svg id="Layer_1" data-name="Layer 1" xmlns="http://www.w3.org/2000/svg" viewBox="0 0 589.1 392.4"><defs><style>.cls-1{fill:#e8f2fa;}.cls-2{fill:#e2e4e4;}.cls-3{fill:#8aaff7;}.cls-4{fill:#00aa80;}.cls-5{fill:#fdbb3b;}.cls-6{fill:#eb496f;}.cls-7{fill:#fff;}.cls-8{fill:#a9c2ff;}.cls-9{font-size:9.4px;fill:#08b;font-family:Montserrat-ExtraBold, Montserrat;font-weight:800;}.cls-10{fill:#efb3a6;}.cls-11,.cls-15,.cls-17,.cls-20,.cls-23,.cls-26,.cls-29,.cls-36{fill:none;stroke-miterlimit:10;}.cls-11,.cls-15{stroke:#d17a80;}.cls-11{stroke-width:1.44px;}.cls-12{fill:#edb1a4;}.cls-13{fill:#33324f;}.cls-14{fill:#d17a80;}.cls-15{stroke-width:1.48px;}.cls-16,.cls-25{opacity:0.5;}.cls-17{stroke:#005467;stroke-width:0.74px;}.cls-18{fill:#2a3967;}.cls-19{fill:#e8776e;}.cls-20{stroke:#924541;stroke-width:1.38px;}.cls-21{fill:#ff912b;}.cls-22,.cls-25{fill:#924541;}.cls-23{stroke:#ba7700;stroke-width:1.11px;}.cls-24{fill:#ffbfa2;}.cls-26,.cls-29{stroke:#ff9e78;}.cls-26{stroke-width:1.38px;}.cls-27{fill:#972a45;}.cls-28{fill:#dc3c5e;}.cls-30{fill:#abcdff;opacity:0.38;}.cls-31{fill:#cdcdcd;}.cls-32{fill:#3f3e58;}.cls-33{fill:#c1c1c1;}.cls-34{fill:#969696;}.cls-35{fill:#787a7a;}.cls-36{stroke:#898989;stroke-width:2px;}</style></defs><path class="cls-1" d="M529.9,392.2H199.7c-85.5-.1-110.5-.7-110.5-.8S10.6,350.9,73,267.3c31.4-41.9-4.4-87.7,22.4-127.7C133.3,82.8,196,116,239,98.1c7.6-3.2,15.2-8.3,22.8-16.1a82.1,82.1,0,0,1,14.1-11.6l2.4-1.5a84,84,0,0,1,9.3-5.1c2.2-1,4.4-2,6.7-2.8h0a86.3,86.3,0,0,1,10.9-3.5,103.3,103.3,0,0,1,16.4-3.2,60.3,60.3,0,0,1,7.3-.8C377,49.9,431,70.1,459,99.6c5.6,6,31.2,36.8,11,79-12.7,26.7,40.6,52.2,59.5,82.8C577.6,338.8,530.2,391.2,529.9,392.2Z"/><rect class="cls-2" x="274.5" y="69.5" width="142.2" height="91.95" rx="6.1"/><path class="cls-3" d="M416.7,75.6V82H274.5V75.6a6.1,6.1,0,0,1,6.2-6.1H410.6A6.1,6.1,0,0,1,416.7,75.6Z"/><path class="cls-4" d="M302.6,75.7a3.5,3.5,0,0,1-7,0,3.5,3.5,0,1,1,7,0Z"/><path class="cls-5" d="M293.5,75.7a3.5,3.5,0,0,1-3.5,3.5,3.4,3.4,0,0,1-3.5-3.5,3.5,3.5,0,0,1,3.5-3.5A3.5,3.5,0,0,1,293.5,75.7Z"/><path class="cls-6" d="M284.1,75.7a3.4,3.4,0,0,1-3.5,3.5,3.5,3.5,0,0,1-3.5-3.5,3.5,3.5,0,0,1,3.5-3.5A3.5,3.5,0,0,1,284.1,75.7Z"/><rect class="cls-5" x="326.6" y="100.6" width="41.4" height="4.59"/><polyline class="cls-7" points="405.1 100.6 373.5 100.6 373.5 105.2 405.1 105.2"/><polyline class="cls-8" points="289.1 113.3 360.2 113.3 360.2 108.7 289.1 108.7"/><polyline class="cls-8" points="308.5 94.3 379.5 94.3 379.5 89.7 308.5 89.7"/><rect class="cls-5" x="365.7" y="108.7" width="17.3" height="4.59"/><polyline class="cls-7" points="405.1 108.7 388.4 108.7 388.4 113.3 405.1 113.3"/><polyline class="cls-7" points="405.1 89.7 384.8 89.7 384.8 94.3 405.1 94.3"/><polyline class="cls-8" points="289.1 121.3 326.6 121.3 326.6 116.7 289.1 116.7"/><rect class="cls-5" x="332.2" y="116.7" width="50.8" height="4.59"/><polyline class="cls-5" points="303.6 129.4 326.6 129.4 326.6 124.8 303.6 124.8"/><polyline class="cls-7" points="405.1 124.8 332 124.8 332 129.4 405.1 129.4"/><polyline class="cls-8" points="289.1 137.5 321 137.5 321 132.9 289.1 132.9"/><rect class="cls-5" x="326.6" y="132.9" width="56.4" height="4.59"/><polyline class="cls-7" points="405.1 132.9 388.4 132.9 388.4 137.5 405.1 137.5"/><polyline class="cls-8" points="289.1 145.6 342.6 145.6 342.6 141 289.1 141"/><rect class="cls-5" x="348.1" y="141" width="19.9" height="4.59"/><polyline class="cls-7" points="405.1 141 373.5 141 373.5 145.6 405.1 145.6"/><rect class="cls-8" x="312.5" y="149.1" width="70.5" height="4.59"/><polyline class="cls-7" points="405.1 149.1 388.4 149.1 388.4 153.6 405.1 153.6"/><text class="cls-9" transform="translate(289.1 96.1)">&lt;/&gt;</text><path class="cls-10" d="M135.6,280.4a2.8,2.8,0,0,0,.1.9h0c.1,4.1-2.1,7.2-9.2,5.9a4.3,4.3,0,0,1-2.3-1.2h0a36.6,36.6,0,0,1-6.4-8.7,8,8,0,0,1-1.2-4.3l-1.2-1.5a5.3,5.3,0,0,0-1.3-.6,3,3,0,0,0,.4,2.2c.7,1.4-1.5,3.4-3,0s-.9-4.8.6-5.4h-1.2c-5.2.3-4.9-4,.5-4h1.8a.4.4,0,0,1-.1-.3l-1-.2c-5.3-.4-4-4.7,1.2-3.8a34.5,34.5,0,0,1,4.3,1.2,7,7,0,0,0-1.6-1c-3.9-2.1-2.4-5.7,1.4-4a40.3,40.3,0,0,1,11.9,9.6C131.9,268.7,135,275.5,135.6,280.4Z"/><path class="cls-11" d="M118.8,261.7c3.9,3.4,4.8,5.5,4.8,5.5"/><path class="cls-11" d="M113.5,269.1a5.5,5.5,0,0,1,2.9,2.1"/><path class="cls-11" d="M119.8,275.2c-1.2-2.3-1.4-4.5-2.4-6s-4.8-5.1-4.3-6.3,3.2-.8,5.7,1.2,6.8,4.7,8.7,3.8"/><path class="cls-12" d="M219.7,270.7h0c-.8,2.1-1.7,4.5-2.8,7.1a106.3,106.3,0,0,1-12.6,21c-2.3,3-4.8,6.1-7.6,9.3l-.5.5c-1.3,1.4-2.6,2.9-4.1,4.4a16.8,16.8,0,0,1-4,3l-12.4-14.5,2.1-3.9,1.3-2.4,1.9-3.5.5-1c.5-.8.9-1.7,1.4-2.6,7.1-13,17.5-31.7,21.6-36.7h0l1.3-1.2,6.9,2.7,3.8,1.5c.3.5.7,1,1,1.6A63.6,63.6,0,0,1,219.7,270.7Z"/><path class="cls-12" d="M195.2,308.7a17.6,17.6,0,0,1-3.1,4.3,16.8,16.8,0,0,1-4,3c-20.9,11.2-62.1-28.9-62.1-28.9l6.5-7.6,46.6,15.7,2.1.7Z"/><path class="cls-8" d="M302.4,346.5l-90.3,1.4-6.3-92c-.6-4.2.3-6.6,4.2-8.2a103.2,103.2,0,0,1,14.7-4.7l4.1-.9a69.1,69.1,0,0,1,11.4-1l12.4-.8s4.4.1,10.4.6l7.7.9c2.7.4,5.5.9,8.2,1.5a11.4,11.4,0,0,1,8.6,12.8Z"/><path class="cls-3" d="M270.7,241.8c-47.3,27.8-47,7.5-46,1.2l4.1-.9a69.1,69.1,0,0,1,11.4-1l12.4-.8s4.4.1,10.4.6Z"/><path class="cls-10" d="M263,240.9c-41.1,25-34.2,1.2-34.2,1.2a69.1,69.1,0,0,1,11.4-1l12.4-.8S257,240.4,263,240.9Z"/><path class="cls-13" d="M210.6,206.3s-7.4.1-6.6-6,7.4-6.3,7.4-6.3Z"/><path class="cls-13" d="M258.5,188a9.4,9.4,0,0,0-7.3-2.5c-1.2-9.4-15.8-10.1-23.2-9.2.1-.1.1-.3.2-.4a.4.4,0,0,1,.1-.3c.5-2.5.9-5.9-.7-8.2a6.9,6.9,0,0,0-6.4-2.4c-5,.7-6.9,5.1-7.4,9.6-2.6-2.9-8.1-3.2-10.4.3s.2,9.3,3,13.2c-2.7.3-7.7,2-6.5,5.4s8.1,2.3,10.9,1.6h.3a.8.8,0,0,0,1-1c-1.2-2.6,10.6-3.5,12.1-3.6,4-.4,8.1-.7,12.2-.8s7.6.4,10,3.9,4.2,7.6,6.1,11.4h.1a23.6,23.6,0,0,1-.9,8.3c-.2.7.7,1.1,1.2.8,6.5-3.7,9-9.7,8.6-17.2C261.2,193.6,261,190.3,258.5,188Z"/><path class="cls-10" d="M254.1,243.4c-15.6,4.2-24.7,7.7-22.5,1.6l.5-2.4V242l1.3-6.7,1.3-6.4.7-3.1,16.6-1.5.9,8.4.4,3.5Z"/><path class="cls-14" d="M253.4,236.2c-2.1.8-17.4,6.8-21.3,6.4V242l1.3-6.7,18.8-9.5Z"/><path class="cls-12" d="M210,206.7c0,.6.1,1.3.1,1.9a4.9,4.9,0,0,1,.1,1.2,61.5,61.5,0,0,0,1.2,7.1,37.2,37.2,0,0,0,2.3,6.9,28.7,28.7,0,0,0,2.5,4.3c5.7,8.1,14,9,19.5,8.5s16.1-3.8,19.2-16.6a43.2,43.2,0,0,0,.8-14.4c0-.6-.1-1.2-.1-1.8l-.3-1.9c-1.9-14.2-8.4-24.9-25-23.3S209.1,192.2,210,206.7Z"/><path class="cls-13" d="M244.7,194s-1.9,16.8,3.5,20.4c0,0,6,4,7.2-11.9Z"/><path class="cls-13" d="M246.6,200.6s-9.7,1.8-10.5-6.3c0,0-5.9,5.8-12.2.3,0,0-1.3,5.1-9.2,4,0,0,1.8,6.8-4.7,7.6l-1.8-3.6.9-8,2.3-5.5,5.6-7,6-2.9,7.5-1.2h6.3l7.6,1.7,5.5,5.1,4.5,6,1.3,11.6-1.2,1.1Z"/><path class="cls-10" d="M248.8,210a16.2,16.2,0,0,0,.7,4.4,12.1,12.1,0,0,0,.5,1.8h0c0,.1.1.2.1.3l.2.3.3.4a5.3,5.3,0,0,0,5.9,1.3,9.3,9.3,0,0,0,1.9-1.1,9.9,9.9,0,0,0,3.5-5.8,7.7,7.7,0,0,0-.8-5.5,7.8,7.8,0,0,0-1.1-1.8,5.2,5.2,0,0,0-2-1.4l-1.3-.4a7.7,7.7,0,0,0-5.3,1.5,5.3,5.3,0,0,0-1.5,1.5A7.1,7.1,0,0,0,248.8,210Z"/><path class="cls-15" d="M253.2,215.2s-3.1-10.3,5.1-7.7"/><line class="cls-15" x1="252.7" y1="212.1" x2="256.2" y2="210.4"/><path class="cls-15" d="M228,221.6l-8.2.8c6.7-1.2,4.8-11.3,4.8-11.3"/><g class="cls-16"><path class="cls-14" d="M235.7,229.3c.9,1.3-4.8,2.9-5.5,1.6S234.7,227.9,235.7,229.3Z"/></g><path class="cls-15" d="M238.3,221.2c-1.9,4.5-7.2,6.2-12.5,5.6"/><path class="cls-13" d="M215,211.9c.2,1.5,1.2,2.7,2.2,2.6s1.8-1.5,1.6-3-1.1-2.7-2.2-2.6S214.9,210.3,215,211.9Z"/><path class="cls-13" d="M232.9,210.1c.1,1.5,1.1,2.6,2.1,2.5s1.8-1.4,1.7-2.9-1.2-2.7-2.2-2.6S232.7,208.5,232.9,210.1Z"/><path class="cls-13" d="M231.9,206.6c5.5.3,8.7-1.3,3.9-1.9S229,206.4,231.9,206.6Z"/><path class="cls-13" d="M218.4,205.4c-4.9,2.6-8.4,2.5-4.3-.1S221,204.1,218.4,205.4Z"/><path class="cls-7" d="M239.9,207.1a8.5,8.5,0,0,0-3.4-3.1l-.5-.2a7.5,7.5,0,0,0-2.6-.5H233a7.8,7.8,0,0,0-3.1.6,9,9,0,0,0-3.9,3.3,7,7,0,0,0-1.2,3.4h-4.5a9.8,9.8,0,0,0-1.2-3.4,9,9,0,0,0-3.9-3.3,8.1,8.1,0,0,0-3.1-.6,7.3,7.3,0,0,0-3,.6,7.9,7.9,0,0,0-3.5,2.7l-.5.6a8.9,8.9,0,0,0-1.2,3.9v.4c0,.5.1,1,.1,1.4a9.2,9.2,0,0,0,.9,2.5h0a4.1,4.1,0,0,0,.5.9,8.7,8.7,0,0,0,4.7,3.2l1.8.3h.2a8.7,8.7,0,0,0,6.8-3.5,8.8,8.8,0,0,0,1.2-2.6c.1-.2.1-.5.2-.8v-1.1h4.4c0,.4.1.8.1,1.1s.1.6.2.8a6.8,6.8,0,0,0,1.2,2.6,8.5,8.5,0,0,0,6.8,3.5h.3a8.3,8.3,0,0,0,3.2-.7h0a10.1,10.1,0,0,0,2.8-2.2l.4-.5a7.8,7.8,0,0,0,1.3-3.4,5.9,5.9,0,0,0,.2-1.4A8.3,8.3,0,0,0,239.9,207.1ZM219,213.6a7.1,7.1,0,0,1-6.9,5.1H212a7.5,7.5,0,0,1-5.4-2.5,8.2,8.2,0,0,1-1.6-3.4,6.1,6.1,0,0,1-.1-1.4,7.1,7.1,0,0,1,1.4-4.3,7.3,7.3,0,0,1,11.6,0,7.2,7.2,0,0,1,1.5,4.3,5.9,5.9,0,0,1-.2,1.4A1.9,1.9,0,0,1,219,213.6Zm19.4,2.6a7.4,7.4,0,0,1-5.1,2.5H233a7.3,7.3,0,0,1-5.5-2.5,7.6,7.6,0,0,1-1.5-2.6c0-.2-.1-.5-.1-.8a5.9,5.9,0,0,1-.2-1.4,7.1,7.1,0,0,1,1.4-4.3,7.4,7.4,0,0,1,11.7,0,7.1,7.1,0,0,1,1.4,4.3,6.1,6.1,0,0,1-.1,1.4A8.4,8.4,0,0,1,238.4,216.2Z"/><path class="cls-12" d="M293.6,254.5h0c2.8,7.2,5.5,17.6,6.1,31.4.1,4,.2,8.2,0,12.7s-.5,7.2-.9,11h-.2l-19.3-3.5s-.3-1.6-.9-4.3-.7-4-1.2-6.5-.6-2.6-.8-4c-3.2-16.4-7.6-40.8-6.5-43.8l10.9-3.6,1.8.6A55.7,55.7,0,0,1,293.6,254.5Z"/><path class="cls-12" d="M280.1,301.4,231,316.5l-.9,9.9s72.8,10.9,68.8-22.9Z"/><path class="cls-10" d="M215.6,324.7a22.6,22.6,0,0,0-7.1,1.3c-3.4,1.3-3.4-2.3-.4-3.5a14.6,14.6,0,0,0-3.9,1.2,1.6,1.6,0,0,1-2.1-2.5,1.8,1.8,0,0,1-2.2-.9c-.7-1.3.8-2.7,1.4-3.1s-2.8-2.5,3.1-5,13.7-4,23.4.9c6.8,3.3,7.2,8.6,5.6,11.4C230.5,329.4,221.6,330.2,215.6,324.7Z"/><path class="cls-11" d="M208.1,322.5c5.1-1.8,7.5-1.6,7.5-1.6"/><path class="cls-11" d="M202.1,321.2c7.8-3.9,11.8-3.6,11.8-3.6"/><path class="cls-11" d="M201.3,317.2c4.9-3.2,11.5-3.5,11.5-3.5"/><path class="cls-3" d="M307,298.9l-7.3-.3-27.3-.7v-1.4l-6.7-51,5.5-2.5a23.5,23.5,0,0,1,9.6.9l1.8.6C293,248.4,306.7,260.1,307,298.9Z"/><path class="cls-3" d="M208.8,248.3s-18.5,9.6-29.7,41.2l23,21.6,12.7-15.8Z"/><line class="cls-11" x1="274.1" y1="303.2" x2="280.8" y2="301.1"/><line class="cls-11" x1="173.1" y1="293.2" x2="182.4" y2="296.4"/><path class="cls-17" d="M209,302.5s-1.3-22.2,0-32.2"/><line class="cls-17" x1="208.7" y1="277.7" x2="206.2" y2="272.7"/><polyline class="cls-17" points="277.7 298 274.1 297.9 268.3 265.1"/><line class="cls-17" x1="269.2" y1="270.1" x2="266.2" y2="267.2"/><path class="cls-18" d="M356.2,206.9s-14.2,4.7-10.1,17.9c0,0-10.9-1.4-13.8,13,0,0-16.6-.6-15.7,16.4s19.8,8.2,19.8,8.2,4.8,15.3,17.8,7.7c0,0,8.1,11,17,0Z"/><path class="cls-18" d="M396.1,212.3s11.9,9.1,3.7,20.1c0,0,10.8,2.3,8.9,16.9,0,0,15.8,4.8,9.4,20.6s-21.4,1.3-21.4,1.3-9.5,12.9-19.3,1.5c0,0-11.2,7.7-16.1-5.6Z"/><path class="cls-18" d="M402.3,214c-.2.9-.3,1.8-.6,2.8a68.8,68.8,0,0,1-2.1,7.2h-.1c-.3,1-.7,2-1.1,3a3.4,3.4,0,0,1-2.8,2.1l-32.9,1.2c-2.5,0-4-2.9-4.9-5.3-3.5-9.5-10-31.9,13.3-39.5a25.6,25.6,0,0,1,12.6-.7C392.4,186.6,406.1,192.8,402.3,214Z"/><path class="cls-19" d="M393.8,311a21.5,21.5,0,0,0-.4,4.9,16.3,16.3,0,0,0,1,4.6c8.2,20.6,61.7,16.9,61.7,16.9v-9.3l-42.6-16.9-2-.8Z"/><path class="cls-19" d="M412.2,316.2,396.3,324a12.3,12.3,0,0,1-2.3-4c-.7-1.8-1.4-3.6-1.9-5.3a1.4,1.4,0,0,1-.2-.6,115.5,115.5,0,0,1-6.1-33.4c0-2.6.1-5,.3-7.1h0a54.8,54.8,0,0,1,7.3-11.8l1.5-1h3.7l5.2.2a31.6,31.6,0,0,1,2,2.7l1,1.5c1.5,7.8,3.2,24.7,4.3,36.8a21.3,21.3,0,0,0,.2,2.7,4.1,4.1,0,0,0,.1,1.1v1l.3,2.7c.1.9.1,1.8.2,2.5C412.1,314.7,412.2,316.2,412.2,316.2Z"/><line class="cls-20" x1="409.9" y1="309.8" x2="415.1" y2="311.8"/><path class="cls-19" d="M452.5,326.7l-.6.6h0c-2.6,2.8-2.9,6.4,3,9.8a3.5,3.5,0,0,0,2.3.4h0a34,34,0,0,0,9.8-2.2,7.4,7.4,0,0,0,3.5-2.4l1.7-.3a4.8,4.8,0,0,1,1.3.4,3.1,3.1,0,0,1-1.6,1.3c-1.3.5-1,3.3,2.2,1.8s3.5-2.9,2.8-4.2l.8.7c3.5,3.3,5.9.1,2.1-3.1l-1.4-1.1h.3l.8.5c4,2.9,5.7-1,1.5-3.5l-3.8-1.7,1.8.2c3.9.9,5.1-2.6,1.3-3.6a37.5,37.5,0,0,0-14.2-.4A34.4,34.4,0,0,0,452.5,326.7Z"/><path class="cls-20" d="M475.7,323.5c-4.8.1-6.7,1.1-6.7,1.1"/><path class="cls-20" d="M475,332a5,5,0,0,0-3.3-.3"/><path class="cls-20" d="M466.9,332.6c2.2-.9,3.6-2.4,5.3-2.8s6.5-.8,6.8-1.9-1.8-2.6-4.7-2.6-7.7-.8-8.5-2.6"/><path class="cls-21" d="M407.2,261c.1.2,0,.5,0,.8L404,308l-2.7,39.6-84.1-1.3L331.1,262a10.5,10.5,0,0,1,7.9-11.9c2.5-.6,5.2-1,7.7-1.4l1.9-.3,3.7-.4H355c5-.5,8.5-.5,8.5-.5l11.6.8c2.3,0,4.6.1,6.7.3h1.6l2.4.4,2,.4h.1l1.7.4,5.4,1.4,1.7.5h.1l.6.2h.1l.5.2h.1C400,253,403.5,255.2,407.2,261Z"/><path class="cls-7" d="M379.8,258.5l2.4-9.9h1.2l2.4.4,2,.4h.1l1.7.4C401,264.1,379.8,258.5,379.8,258.5Z"/><path class="cls-7" d="M380.4,257.7a6.4,6.4,0,0,1-.7,1.2c-2.8,4.1-13.3,15.9-31.1-10.5l3.7-.4H355l24.8,9.6Z"/><path class="cls-19" d="M352.3,248h1.6c5.6-.6,9.6-.6,9.6-.6l11.6.8c2.3,0,4.6.1,6.7.3l1.6.3S389.7,270.6,352.3,248Z"/><g class="cls-16"><path class="cls-22" d="M375.8,238.3c-.8,1.2,4.5,2.7,5.1,1.5S376.7,237,375.8,238.3Z"/></g><path class="cls-21" d="M418.8,300s-3.2,2.1-7.2,4.2A59.8,59.8,0,0,1,404,308c-2,.7-3.6,1.1-4.5.7l-2.6-51-.2-6h.1l.6.2h.1l.5.2h.1c1.6.6,4.3,2.2,7.3,6.1a31.6,31.6,0,0,1,1.8,2.7,13,13,0,0,1,1,1.5C412.3,269.5,416.5,281.1,418.8,300Z"/><path class="cls-23" d="M400.4,273.7s6.4,18.5,3.6,34.3"/><line class="cls-23" x1="401.7" y1="278.2" x2="403.3" y2="274.8"/><path class="cls-19" d="M331.9,254.1h.1l1-.7,1.7-.5,10.2,3.4c1,2.7-3.1,25.5-6.1,40.8-.2,1.3-.5,2.5-.7,3.7l-1.1,5.6a4.3,4.3,0,0,0-.1.5l-.8,4-18,3.2h-.2c-.2-2.4-.4-4.6-.6-6.8s-.1-2.4-.2-3.5a116,116,0,0,1,0-11.8,98.8,98.8,0,0,1,4.8-27.1Z"/><path class="cls-19" d="M335.9,306.4l43.7,19.8-.4,9.3s-68.7,1.5-61-29.3Z"/><path class="cls-19" d="M392.8,335.6a22.4,22.4,0,0,1,6.4,2.1c3,1.6,3.4-1.7.7-3.2a12,12,0,0,1,3.5,1.6c1.9,1.2,3.2-.8,2.3-2.1a1.6,1.6,0,0,0,2.1-.5c.9-1.2-.4-2.7-.9-3.1s2.8-1.9-2.3-5-12.1-5.3-21.8-1.9c-6.6,2.3-7.6,7.1-6.5,9.8C378.4,338.3,386.6,340.1,392.8,335.6Z"/><path class="cls-20" d="M399.9,334.5c-4.4-2.3-6.7-2.4-6.7-2.4"/><path class="cls-20" d="M405.7,334c-6.8-4.5-10.5-4.7-10.5-4.7"/><path class="cls-20" d="M406.9,330.4c-4.1-3.5-10.2-4.6-10.2-4.6"/><line class="cls-20" x1="339" y1="307.9" x2="333.8" y2="305.5"/><path class="cls-21" d="M338.4,250.3S313.9,257,308.2,304c0,0,21.9,2.1,32.7-1.5l7.7-47.2Z"/><polyline class="cls-23" points="337.6 303.4 340.9 302.6 342.8 275"/><line class="cls-23" x1="342.4" y1="280.7" x2="345.4" y2="277.4"/><path class="cls-24" d="M358.6,251c14.6,3.9,23.1,7.2,21,1.5l-.4-2.2v-.6l-1.3-6.2-1.2-6-.6-2.9-15.5-1.4-.8,7.9-.4,3.2Z"/><path class="cls-25" d="M359.3,244.3c2,.8,16.2,6.3,19.9,6v-.6l-1.3-6.2-17.4-8.9Z"/><path class="cls-24" d="M399.8,216.8a10.9,10.9,0,0,0-.1,1.8c-.1.4-.1.7-.2,1.1a41.3,41.3,0,0,1-1.1,6.6,33.1,33.1,0,0,1-2.1,6.5,30.1,30.1,0,0,1-2.3,4c-5.3,7.5-13,8.3-18.2,7.8s-15-3.4-17.9-15.4a43.1,43.1,0,0,1-.8-13.5c.1-.5.1-1.1.2-1.6a11,11,0,0,1,.2-1.8c1.8-13.2,7.9-23.2,23.4-21.7S400.6,203.3,399.8,216.8Z"/><path class="cls-26" d="M383,230.7l7.6.7c-6.2-1-4.5-10.5-4.5-10.5"/><path class="cls-13" d="M395.1,221.6c-.2,1.4-1.1,2.5-2,2.4s-1.7-1.3-1.6-2.7,1.1-2.5,2.1-2.4S395.2,220.2,395.1,221.6Z"/><path class="cls-13" d="M378.5,219.9c-.2,1.5-1.1,2.5-2.1,2.4s-1.6-1.3-1.5-2.7,1.1-2.5,2-2.4S378.6,218.5,378.5,219.9Z"/><path class="cls-13" d="M391.7,213.4c-1.3,1.7,4.7,3.8,5.7,2.1S393,211.7,391.7,213.4Z"/><path class="cls-13" d="M378.5,211.3c.9,1.9-5.4,2.8-6,1S377.6,209.3,378.5,211.3Z"/><path class="cls-27" d="M376,231.8a4.8,4.8,0,0,0,.9,2.9,5.4,5.4,0,0,0,3.5,2.5,5.3,5.3,0,0,0,3.9-.4,6.1,6.1,0,0,0,2.5-2.3Z"/><path class="cls-28" d="M376.9,234.7a5.4,5.4,0,0,0,3.5,2.5,5.3,5.3,0,0,0,3.9-.4,4.6,4.6,0,0,0-3.4-2.7A4.8,4.8,0,0,0,376.9,234.7Z"/><path class="cls-13" d="M402.3,214c-.2.9-.3,1.8-.6,2.8a68.8,68.8,0,0,1-2.1,7.2h-.1c-2.8-4.5-.7-15.3-.7-15.3-8.7-.8-14.3-7.7-14.3-7.7-6.1,3-15.4,2-15.4,2-1.8,9.2-5.8,13.7-7.8,15.5a.7.7,0,0,1-1.2-.6v-3l-3.9-2.1,2.1-8.3,2.5-7.8,11.1-7.1,17.1,1,5.8,5.2,6.5,7.7Z"/><path class="cls-24" d="M362.6,215.7a4.7,4.7,0,0,0-1.4-1.4,7.5,7.5,0,0,0-5-1.4l-1.2.3a5.5,5.5,0,0,0-1.8,1.3,9.9,9.9,0,0,0-1.1,1.7,8,8,0,0,0-.8,5.2,9.6,9.6,0,0,0,3.4,5.4,9.5,9.5,0,0,0,1.7,1,5,5,0,0,0,5.5-1.2l.3-.4.2-.3v-.2h0a14.2,14.2,0,0,1,.5-1.6,18.4,18.4,0,0,0,.6-4.1A6.8,6.8,0,0,0,362.6,215.7Z"/><path class="cls-29" d="M359.5,224.8s2.9-9.7-4.8-7.2"/><line class="cls-29" x1="360" y1="221.8" x2="356.7" y2="220.3"/><path class="cls-7" d="M369.9,199.4l-2.2.5a.4.4,0,0,0-.3.6l1.9,5.4a.5.5,0,0,0,.5.3h.6a.7.7,0,0,0,.4-.5l-.4-5.8C370.4,199.5,370.1,199.3,369.9,199.4Z"/><path class="cls-7" d="M401.4,206.1l-1.9-1.1a.5.5,0,0,0-.6.2l-2.3,5.2c-.1.2-.1.4.1.5l.5.4c.2.1.5.1.6-.1l3.8-4.4A.5.5,0,0,0,401.4,206.1Z"/><path class="cls-7" d="M380.6,259.1c-.1-.4-.4-.6-.7-.5a.6.6,0,0,0-.8.1,21.4,21.4,0,0,0-5,11c-.3,2.4.2,5.8,2.8,6.9s4.2-1.5,4.8-3.5C383.1,268.8,381.2,263.3,380.6,259.1Zm-4.5,15.5c-1.8-2-.9-5.8-.2-8a22,22,0,0,1,3.7-6.7l1.2,7.8a15.1,15.1,0,0,1,.1,3.7C380.7,273,379.1,277.8,376.1,274.6Z"/><path class="cls-7" d="M384.5,272.6c1.3,1.6,3.9,3.2,5.7,1.4s1.2-5.3,0-7.4a22,22,0,0,0-8.7-8.4.8.8,0,0,0-.8.2.6.6,0,0,0-.4.7C381.3,263.3,381.6,269.1,384.5,272.6Zm0-1.9a14.5,14.5,0,0,1-1.2-3.5l-1.8-7.6a19.5,19.5,0,0,1,5.9,4.8c1.5,1.8,3.7,5,2.8,7.5C388.6,276,385.3,272.2,384.5,270.7Z"/><path class="cls-7" d="M382.8,266.3c0-.7-1.2-.7-1.1,0a174.6,174.6,0,0,1-.5,28c-.1.7,1.1.7,1.1,0A174.6,174.6,0,0,0,382.8,266.3Z"/><path class="cls-7" d="M381.5,267.3c-.2-.6.8-1,1-.3a175.5,175.5,0,0,0,10,26.1.5.5,0,1,1-1,.4A162.6,162.6,0,0,1,381.5,267.3Z"/><ellipse class="cls-30" cx="296.2" cy="369.2" rx="227.5" ry="23.1"/><path class="cls-2" d="M99.3,361.9v1.8a4.4,4.4,0,0,0,4.2,4.4l93.7,5a16.9,16.9,0,0,0,7.4-1.1l33.2-12.7a4.4,4.4,0,0,0,2.8-4.1v-4.9Z"/><polygon class="cls-31" points="201 365.4 240.6 350.3 127.6 346.9 99.3 361.9 201 365.4"/><polygon class="cls-32" points="221 355.7 215.4 357.8 214.5 358.1 208.9 360.2 208 360.5 208 360.5 200.7 363.3 199.2 360.3 199.1 360 199 359.9 198.9 359.7 196.6 354.9 210.6 355.3 210.6 355.3 211.6 355.4 211.6 355.4 221 355.7"/><polygon class="cls-31" points="215.4 357.8 214.5 358.1 205 357.8 204 357.8 199.1 357.6 199.1 357.3 204.9 357.4 205.9 357.5 215.4 357.8"/><polygon class="cls-31" points="208.9 360.2 208 360.5 208 360.5 199.2 360.3 199.1 360 198.9 360.1 198.8 359.9 199 359.9 199.4 359.9 208.9 360.2"/><polygon class="cls-31" points="211.6 355.4 206 357.5 205.9 357.5 205 357.8 205 357.8 199.4 359.9 199.1 360 198.9 360.1 198.8 359.9 198.7 359.7 198.9 359.7 204 357.8 204.9 357.4 210.6 355.3 210.6 355.3 211.6 355.4"/><path class="cls-2" d="M201,365.9,99.3,362.4l-8.6-61.6c-.9-6.6,3.6-11.8,10.1-11.5l78.1,2.6c6.5.2,12.6,5.8,13.5,12.4Z"/><circle class="cls-7" cx="142" cy="334.9" r="7.3"/><polygon class="cls-31" points="519 346.7 399.5 346.7 409.4 266.4 528.8 266.4 519 346.7"/><polygon class="cls-2" points="524 346.7 404.5 346.7 414.4 266.4 533.8 266.4 524 346.7"/><polygon class="cls-31" points="436 289.7 460.5 283.1 463.1 290.5 436 289.7"/><path class="cls-31" d="M457.4,314.9h19.4l12.5,41.5a10.2,10.2,0,0,1-9.8,13.2h-7Z"/><path class="cls-2" d="M460.8,314.9h19.4l13.4,44.5a7.8,7.8,0,0,1-7.5,10.2H475.9Z"/><rect class="cls-2" x="436" y="289.7" width="27.1" height="4.05"/><circle class="cls-7" cx="469.2" cy="297.9" r="8.4" transform="translate(71.2 685.7) rotate(-76.7)"/><rect class="cls-33" x="359.8" y="351.6" width="11.1" height="4.43"/><rect class="cls-33" x="375" y="351.6" width="11.2" height="4.43"/><rect class="cls-33" x="390.2" y="351.6" width="11.1" height="4.43"/><rect class="cls-33" x="405.5" y="351.6" width="11.1" height="4.43"/><rect class="cls-33" x="420.7" y="351.6" width="11.1" height="4.43"/><rect class="cls-33" x="435.9" y="351.6" width="11.1" height="4.43"/><rect class="cls-33" x="451.1" y="351.6" width="11.1" height="4.43"/><rect class="cls-34" x="357.4" y="354.5" width="107.1" height="6.09"/><path class="cls-35" d="M351.1,360.5H312.5a1.2,1.2,0,0,1-1.2-1.8c2.6-6.2,13.2-24.7,40.7-.5A1.3,1.3,0,0,1,351.1,360.5Z"/><line class="cls-36" x1="352" y1="358.2" x2="338.4" y2="348.8"/><rect class="cls-7" x="113.3" y="203.9" width="3.5" height="7.55" rx="1.8"/><rect class="cls-7" x="113.3" y="217.4" width="3.5" height="7.55" rx="1.8"/><rect class="cls-7" x="120.6" y="210.5" width="3.5" height="7.55" rx="1.8" transform="translate(-91.9 336.6) rotate(-90)"/><rect class="cls-7" x="106.3" y="210.5" width="3.5" height="7.55" rx="1.8" transform="translate(-106.2 322.3) rotate(-90)"/><rect class="cls-7" x="236.3" y="122.8" width="3.4" height="7.26" rx="1.7"/><rect class="cls-7" x="236.3" y="135.8" width="3.4" height="7.26" rx="1.7"/><rect class="cls-7" x="243.3" y="129.2" width="3.4" height="7.26" rx="1.7" transform="translate(112.2 377.8) rotate(-90)"/><rect class="cls-7" x="229.6" y="129.2" width="3.4" height="7.26" rx="1.7" transform="translate(98.5 364) rotate(-90)"/><rect class="cls-7" x="454.3" y="223.1" width="3.4" height="7.26" rx="1.7"/><rect class="cls-7" x="454.3" y="236.1" width="3.4" height="7.26" rx="1.7"/><rect class="cls-7" x="461.3" y="229.5" width="3.4" height="7.26" rx="1.7" transform="translate(229.8 696.1) rotate(-90)"/><rect class="cls-7" x="447.5" y="229.5" width="3.4" height="7.26" rx="1.7" transform="translate(216.1 682.4) rotate(-90)"/><rect class="cls-7" x="303.9" y="207" width="3.4" height="7.26" rx="1.7"/><rect class="cls-7" x="303.9" y="220" width="3.4" height="7.26" rx="1.7"/><rect class="cls-7" x="310.9" y="213.4" width="3.4" height="7.26" rx="1.7" transform="translate(95.5 529.6) rotate(-90)"/><rect class="cls-7" x="297.2" y="213.4" width="3.4" height="7.26" rx="1.7" transform="translate(81.8 515.9) rotate(-90)"/></svg>