<svg xmlns="http://www.w3.org/2000/svg" xmlns:xlink="http://www.w3.org/1999/xlink" viewBox="0 0 589.1 392.4"><defs><style>.cls-1{fill:#d4e2fc;}.cls-2{fill:#1499fc;}.cls-3{fill:#3a4648;}.cls-4{isolation:isolate;}.cls-5{fill:#e8f2fa;}.cls-6{fill:#d1e3ff;}.cls-7{fill:#e3eeff;}.cls-8{fill:#eef5ff;}.cls-19,.cls-9{fill:#fff;}.cls-9{opacity:0.7;}.cls-10{fill:#4ea4f9;}.cls-11,.cls-19{opacity:0.2;}.cls-11,.cls-16{mix-blend-mode:multiply;}.cls-12{fill:#0f264c;}.cls-13{fill:#619eff;}.cls-14{fill:#0d6ab7;}.cls-15{fill:#197bdd;}.cls-16{fill:#0a5589;opacity:0.6;}.cls-17{fill:#408af4;}.cls-18{fill:#8aaff7;}.cls-20{fill:#64b9ff;}.cls-21{fill:#b0d4ed;opacity:0.23;}.cls-22{fill:#ffae73;}.cls-23{fill:#fc7600;}.cls-24{fill:#26538a;}.cls-25{fill:#a9c2ff;}.cls-26{fill:#ff912b;}.cls-27{fill:#f99352;}.cls-28{fill:#2a3967;}.cls-29{clip-path:url(#clip-path);}.cls-30{fill:#becef9;}.cls-31{fill:#cddcfb;}.cls-32{fill:#dae8fd;}.cls-33{fill:#e6f1fe;}.cls-34{clip-path:url(#clip-path-2);}.cls-35{fill:#15d9fd;}.cls-36{clip-path:url(#clip-path-3);}.cls-37{clip-path:url(#clip-path-4);}.cls-38{clip-path:url(#clip-path-5);}.cls-39{clip-path:url(#clip-path-6);}.cls-40{clip-path:url(#clip-path-7);}.cls-41{fill:#98a4e0;}.cls-42{fill:#242a31;}.cls-43{fill:#ffbfa2;}.cls-44{fill:#283032;}.cls-45{fill:#ee9c76;}.cls-46{fill:#f8b495;}.cls-47{fill:#f3a984;}.cls-48{fill:#021b74;}.cls-49{fill:#ea7f26;}.cls-50{fill:#37404a;}.cls-51{fill:#30383a;}.cls-52{fill:#0d1315;}.cls-53{clip-path:url(#clip-path-8);}.cls-54{clip-path:url(#clip-path-9);}.cls-55{fill:#353f41;}</style><clipPath id="clip-path"><path class="cls-1" d="M433.9,308.7v11.4c.1,7.4,4.9,14.8,14.6,20.4,19.6,11.4,51.4,11.4,71.1,0,9.9-5.7,14.9-13.2,14.9-20.7V308.4c0,7.5-5,15-14.9,20.8-19.7,11.3-51.5,11.3-71.1,0C438.8,323.5,434,316.1,433.9,308.7Z"/></clipPath><clipPath id="clip-path-2"><path class="cls-2" d="M435.3,289v16.4c0,7.2,4.7,14.4,14.2,19.9,19,11.1,49.9,11.1,69.1,0,9.6-5.5,14.4-12.8,14.4-20.1V288.8c0,7.3-4.8,14.6-14.5,20.1-19.1,11.1-50,11.1-69.1,0C440.1,303.4,435.3,296.2,435.3,289Z"/></clipPath><clipPath id="clip-path-3"><path class="cls-1" d="M433.9,276.9v11.3c.1,7.4,4.9,14.8,14.6,20.5,19.6,11.4,51.4,11.4,71.1,0,9.9-5.7,14.9-13.2,14.9-20.7V276.6c0,7.5-5,15-14.9,20.7-19.7,11.4-51.5,11.4-71.1,0C438.8,291.7,434,284.3,433.9,276.9Z"/></clipPath><clipPath id="clip-path-4"><path class="cls-2" d="M435.3,257.3v16.4c0,7.2,4.7,14.4,14.2,19.9,19,11.1,49.9,11.1,69.1,0,9.6-5.6,14.4-12.9,14.4-20.2V257.1c0,7.2-4.8,14.5-14.5,20.1-19.1,11.1-50,11.1-69.1,0C440.1,271.7,435.3,264.5,435.3,257.3Z"/></clipPath><clipPath id="clip-path-5"><path class="cls-1" d="M433.9,245.2v11.3c.1,7.4,4.9,14.8,14.6,20.5,19.6,11.3,51.4,11.3,71.1,0,9.9-5.7,14.9-13.3,14.9-20.8V244.9c0,7.5-5,15-14.9,20.7-19.7,11.4-51.5,11.4-71.1,0C438.8,260,434,252.6,433.9,245.2Z"/></clipPath><clipPath id="clip-path-6"><path class="cls-2" d="M435.3,224.9v16.4c0,7.2,4.7,14.4,14.2,19.9,19,11.1,49.9,11.1,69.1,0,9.6-5.6,14.4-12.9,14.4-20.2V224.6c0,7.3-4.8,14.6-14.5,20.2-19.1,11.1-50,11.1-69.1,0C440.1,239.3,435.3,232.1,435.3,224.9Z"/></clipPath><clipPath id="clip-path-7"><path class="cls-1" d="M433.9,212.8v11.3c.1,7.4,4.9,14.8,14.6,20.5,19.6,11.3,51.4,11.3,71.1,0,9.9-5.8,14.9-13.3,14.9-20.8V212.5c0,7.5-5,15-14.9,20.7-19.7,11.4-51.5,11.4-71.1,0C438.8,227.6,434,220.2,433.9,212.8Z"/></clipPath><clipPath id="clip-path-8"><path class="cls-3" d="M423.9,194.8l-2.6,1.5c.1-.1.4-.1.7.1l2.6-1.6A.9.9,0,0,0,423.9,194.8Z"/></clipPath><clipPath id="clip-path-9"><path class="cls-3" d="M456.6,217.7l2.6-1.6a2.1,2.1,0,0,0-1-1.7l-2.6,1.5A2.4,2.4,0,0,1,456.6,217.7Z"/></clipPath></defs><g class="cls-4"><g id="Layer_1" data-name="Layer 1"><path class="cls-5" d="M524.6,392.2h-332c-85.9-.1-111.1-.7-111.1-.8s-79-38.1-16.3-116.6c31.6-39.4-4.3-82.4,22.6-120.1,38.1-53.3,101.1-22.1,144.4-39a69.1,69.1,0,0,0,22.9-15.1,94.6,94.6,0,0,1,14.1-10.9l2.4-1.3a92.5,92.5,0,0,1,9.4-4.8c2.2-1,4.4-1.9,6.7-2.7h0a106.8,106.8,0,0,1,11-3.3,114.1,114.1,0,0,1,16.5-3l7.4-.8c48.3-3.3,102.6,15.7,130.7,43.4,5.7,5.6,31.4,34.6,11.1,74.2-12.8,25.1,40.8,49.1,59.8,77.8C572.6,342,524.9,391.2,524.6,392.2Z"/><rect class="cls-6" x="69" y="332.2" width="456.6" height="0.21"/><rect class="cls-6" x="151.6" y="341.5" width="44.4" height="0.21"/><rect class="cls-6" x="130.1" y="341.6" width="11.7" height="0.21"/><rect class="cls-6" x="246.8" y="340.3" width="13.7" height="0.21"/><rect class="cls-6" x="265.7" y="340.3" width="55.9" height="0.21"/><rect class="cls-6" x="401.3" y="341.9" width="51.9" height="0.21"/><rect class="cls-6" x="382.5" y="341.9" width="13.7" height="0.21"/><rect class="cls-6" x="466.8" y="338.1" width="11.8" height="0.21"/><path class="cls-6" d="M285.4,295.3H109.1a4.9,4.9,0,0,1-5.2-4.7V66.4a4.9,4.9,0,0,1,5.2-4.7H285.4a4.9,4.9,0,0,1,5.2,4.7V290.6A4.9,4.9,0,0,1,285.4,295.3ZM109.1,61.9a4.7,4.7,0,0,0-5,4.5V290.6a4.7,4.7,0,0,0,5,4.5H285.4a4.7,4.7,0,0,0,5-4.5V66.4a4.7,4.7,0,0,0-5-4.5Z"/><path class="cls-6" d="M482.9,295.3H306.6a4.9,4.9,0,0,1-5.2-4.7V66.4a4.9,4.9,0,0,1,5.2-4.7H482.9a4.9,4.9,0,0,1,5.2,4.7V290.6A4.9,4.9,0,0,1,482.9,295.3ZM306.6,61.9a4.8,4.8,0,0,0-5,4.5V290.6a4.8,4.8,0,0,0,5,4.5H482.9a4.7,4.7,0,0,0,5-4.5V66.4a4.7,4.7,0,0,0-5-4.5Z"/><path class="cls-6" d="M525.6,317.6H462.7a2.6,2.6,0,0,1-2.6-2.6V149.6a2.1,2.1,0,0,0-2.1-2.1h-6.6V147H458a2.6,2.6,0,0,1,2.5,2.6V315a2.1,2.1,0,0,0,2.2,2.1h62.9Z"/><path class="cls-6" d="M525.6,314.3H464.8a2.6,2.6,0,0,1-2.6-2.6V146.3a2.1,2.1,0,0,0-2.1-2.2h-8.7v-.4h8.7a2.6,2.6,0,0,1,2.6,2.6V311.7a2.1,2.1,0,0,0,2.1,2.1h60.8Z"/><path class="cls-6" d="M525.6,310.9H466.9a2.5,2.5,0,0,1-2.5-2.6V142.9a2.1,2.1,0,0,0-2.1-2.1H451.4v-.5h10.9a2.6,2.6,0,0,1,2.5,2.6V308.3a2.2,2.2,0,0,0,2.1,2.2h58.7Z"/><path class="cls-6" d="M525.6,307.6H469.1a2.6,2.6,0,0,1-2.6-2.6V139.6a2.1,2.1,0,0,0-2.1-2.1h-13V137h13a2.6,2.6,0,0,1,2.6,2.6V305a2.1,2.1,0,0,0,2.1,2.1h56.5Z"/><path class="cls-6" d="M525.6,304.2H471.2a2.6,2.6,0,0,1-2.6-2.5V136.2a2.1,2.1,0,0,0-2.1-2.1H451.4v-.4h15.1a2.6,2.6,0,0,1,2.6,2.5V301.7a2.1,2.1,0,0,0,2.1,2.1h54.4Z"/><path class="cls-6" d="M525.6,300.9H473.3a2.6,2.6,0,0,1-2.5-2.6V132.9a2.1,2.1,0,0,0-2.1-2.1H451.4v-.5h17.3a2.6,2.6,0,0,1,2.5,2.6V298.3a2.1,2.1,0,0,0,2.1,2.1h52.3Z"/><path class="cls-6" d="M525.6,297.5H475.5a2.6,2.6,0,0,1-2.6-2.5V129.5a2.1,2.1,0,0,0-2.1-2.1H451.4V127h19.4a2.6,2.6,0,0,1,2.6,2.5V295a2.1,2.1,0,0,0,2.1,2.1h50.1Z"/><rect class="cls-6" x="267.2" y="163.7" width="56.4" height="0.46"/><rect class="cls-6" x="267.2" y="160.3" width="56.4" height="0.46"/><rect class="cls-6" x="267.2" y="157" width="56.4" height="0.46"/><rect class="cls-6" x="267.2" y="153.6" width="56.4" height="0.46"/><rect class="cls-6" x="267.2" y="150.3" width="56.4" height="0.46"/><rect class="cls-6" x="267.2" y="147" width="56.4" height="0.46"/><rect class="cls-6" x="267.2" y="143.6" width="56.4" height="0.46"/><rect class="cls-6" x="267.2" y="276.9" width="56.4" height="0.46"/><rect class="cls-6" x="267.2" y="273.5" width="56.4" height="0.46"/><rect class="cls-6" x="267.2" y="270.2" width="56.4" height="0.46"/><rect class="cls-6" x="267.2" y="266.8" width="56.4" height="0.46"/><rect class="cls-6" x="267.2" y="263.5" width="56.4" height="0.46"/><rect class="cls-6" x="267.2" y="260.1" width="56.4" height="0.46"/><rect class="cls-6" x="267.2" y="256.8" width="56.4" height="0.46"/><path class="cls-6" d="M156.6,301.3H134.7a2.6,2.6,0,0,1-2.6-2.5V133.3a2.1,2.1,0,0,0-2.1-2.1H104.1v-.4H130a2.6,2.6,0,0,1,2.6,2.5V298.8a2.1,2.1,0,0,0,2.1,2.1h21.9Z"/><path class="cls-6" d="M156.6,304.7H132.5a2.6,2.6,0,0,1-2.5-2.6V136.7a2.1,2.1,0,0,0-2.1-2.1H104.1v-.5h23.8a2.5,2.5,0,0,1,2.5,2.6V302.1a2.1,2.1,0,0,0,2.1,2.1h24.1Z"/><path class="cls-6" d="M156.6,308H130.4a2.6,2.6,0,0,1-2.6-2.6V140a2.1,2.1,0,0,0-2.1-2.1H104.1v-.5h21.6a2.6,2.6,0,0,1,2.6,2.6V305.4a2.1,2.1,0,0,0,2.1,2.1h26.2Z"/><path class="cls-6" d="M156.6,311.3H128.3a2.6,2.6,0,0,1-2.6-2.5V143.3a2.1,2.1,0,0,0-2.1-2.1H104.1v-.4h19.5a2.6,2.6,0,0,1,2.6,2.5V308.8a2.1,2.1,0,0,0,2.1,2.1h28.3Z"/><path class="cls-6" d="M156.6,314.7H126.1a2.6,2.6,0,0,1-2.5-2.6V146.7a2.1,2.1,0,0,0-2.1-2.1H104.1v-.5h17.4a2.6,2.6,0,0,1,2.5,2.6V312.1a2.1,2.1,0,0,0,2.1,2.1h30.5Z"/><path class="cls-6" d="M156.6,318H124a2.6,2.6,0,0,1-2.6-2.5V150a2.1,2.1,0,0,0-2.1-2.1H104.1v-.4h15.2a2.6,2.6,0,0,1,2.6,2.5V315.5a2.1,2.1,0,0,0,2.1,2.1h32.6Z"/><path class="cls-6" d="M156.6,321.4H121.9a2.6,2.6,0,0,1-2.6-2.6V153.4a2.1,2.1,0,0,0-2.1-2.1H104.1v-.5h13.1a2.5,2.5,0,0,1,2.5,2.6V318.8a2.1,2.1,0,0,0,2.2,2.1h34.7Z"/><rect class="cls-7" x="156.6" y="317.4" width="92.7" height="13.75"/><rect class="cls-6" x="249.2" y="317.4" width="18.8" height="13.75" transform="translate(517.3 648.5) rotate(180)"/><rect class="cls-8" x="150.3" y="74.5" width="98.9" height="242.88"/><rect class="cls-7" x="158.6" y="72.4" width="107.4" height="2.08"/><rect class="cls-7" x="249.2" y="74.5" width="25.1" height="242.88" transform="translate(523.6 391.9) rotate(180)"/><rect class="cls-7" x="153.3" y="77.4" width="93" height="26.61"/><rect class="cls-7" x="153.3" y="287.7" width="93" height="26.61"/><rect class="cls-7" x="153.3" y="257.7" width="93" height="26.61"/><rect class="cls-7" x="153.3" y="227.6" width="93" height="26.61"/><rect class="cls-7" x="153.3" y="197.6" width="93" height="26.61"/><rect class="cls-7" x="153.3" y="167.5" width="93" height="26.61"/><rect class="cls-7" x="153.3" y="137.5" width="93" height="26.61"/><rect class="cls-7" x="153.3" y="107.4" width="93" height="26.61"/><rect class="cls-9" x="216.8" y="81.2" width="25.9" height="19.01" rx="3.9"/><rect class="cls-8" x="234.8" y="88.3" width="4.9" height="4.87" rx="1.2" transform="translate(327.9 -146.5) rotate(90)"/><rect class="cls-9" x="216.8" y="111.2" width="25.9" height="19.01" rx="3.9"/><rect class="cls-8" x="234.8" y="118.3" width="4.9" height="4.87" rx="1.2" transform="translate(358 -116.5) rotate(90)"/><rect class="cls-9" x="216.8" y="141.3" width="25.9" height="19.01" rx="3.9"/><rect class="cls-8" x="234.8" y="148.4" width="4.9" height="4.87" rx="1.2" transform="translate(388 -86.4) rotate(90)"/><rect class="cls-9" x="216.8" y="171.3" width="25.9" height="19.01" rx="3.9"/><rect class="cls-8" x="234.8" y="178.4" width="4.9" height="4.87" rx="1.2" transform="translate(418 -56.4) rotate(90)"/><rect class="cls-9" x="216.8" y="201.4" width="25.9" height="19.01" rx="3.9"/><rect class="cls-8" x="234.8" y="208.4" width="4.9" height="4.87" rx="1.2" transform="translate(448.1 -26.3) rotate(90)"/><rect class="cls-9" x="216.8" y="231.4" width="25.9" height="19.01" rx="3.9"/><rect class="cls-8" x="234.8" y="238.5" width="4.9" height="4.87" rx="1.2" transform="translate(478.1 3.7) rotate(90)"/><rect class="cls-9" x="216.8" y="261.5" width="25.9" height="19.01" rx="3.9"/><rect class="cls-8" x="234.8" y="268.5" width="4.9" height="4.87" rx="1.2" transform="translate(508.2 33.8) rotate(90)"/><rect class="cls-9" x="216.8" y="291.5" width="25.9" height="19.01" rx="3.9"/><rect class="cls-8" x="234.8" y="298.6" width="4.9" height="4.87" rx="1.2" transform="translate(538.2 63.8) rotate(90)"/><rect class="cls-8" x="227.3" y="88.3" width="4.9" height="4.87" rx="1.2" transform="translate(320.4 -139) rotate(90)"/><rect class="cls-8" x="227.3" y="118.3" width="4.9" height="4.87" rx="1.2" transform="translate(350.5 -109) rotate(90)"/><rect class="cls-8" x="227.3" y="148.4" width="4.9" height="4.87" rx="1.2" transform="translate(380.5 -78.9) rotate(90)"/><rect class="cls-8" x="227.3" y="178.4" width="4.9" height="4.87" rx="1.2" transform="translate(410.5 -48.9) rotate(90)"/><rect class="cls-8" x="227.3" y="208.4" width="4.9" height="4.87" rx="1.2" transform="translate(440.6 -18.8) rotate(90)"/><rect class="cls-8" x="227.3" y="238.5" width="4.9" height="4.87" rx="1.2" transform="translate(470.6 11.2) rotate(90)"/><rect class="cls-8" x="227.3" y="268.5" width="4.9" height="4.87" rx="1.2" transform="translate(500.7 41.2) rotate(90)"/><rect class="cls-8" x="227.3" y="298.6" width="4.9" height="4.87" rx="1.2" transform="translate(530.7 71.3) rotate(90)"/><circle class="cls-8" cx="207.4" cy="90.7" r="3.1"/><path class="cls-8" d="M201.7,90.7a3.1,3.1,0,1,1-3.1-3.1A3.1,3.1,0,0,1,201.7,90.7Z"/><path class="cls-8" d="M192.9,90.7a3,3,0,0,1-3,3.1,3.1,3.1,0,1,1,0-6.2A3,3,0,0,1,192.9,90.7Z"/><circle class="cls-8" cx="181.1" cy="90.7" r="3.1"/><circle class="cls-8" cx="207.4" cy="120.7" r="3.1"/><path class="cls-8" d="M201.7,120.7a3.1,3.1,0,1,1-6.1,0,3.1,3.1,0,0,1,6.1,0Z"/><path class="cls-8" d="M192.9,120.7a3,3,0,0,1-3,3.1,3.1,3.1,0,1,1,0-6.1A3,3,0,0,1,192.9,120.7Z"/><circle class="cls-8" cx="181.1" cy="120.7" r="3.1"/><path class="cls-8" d="M210.5,150.8a3.1,3.1,0,0,1-3.1,3.1,3.1,3.1,0,0,1,0-6.2A3.1,3.1,0,0,1,210.5,150.8Z"/><path class="cls-8" d="M201.7,150.8a3.1,3.1,0,1,1-3.1-3.1A3.1,3.1,0,0,1,201.7,150.8Z"/><path class="cls-8" d="M192.9,150.8a3,3,0,0,1-3,3.1,3.1,3.1,0,1,1,0-6.2A3,3,0,0,1,192.9,150.8Z"/><path class="cls-8" d="M184.2,150.8a3.1,3.1,0,1,1-3.1-3.1A3.1,3.1,0,0,1,184.2,150.8Z"/><path class="cls-8" d="M210.5,180.8a3.1,3.1,0,0,1-3.1,3.1,3,3,0,0,1-3-3.1,2.9,2.9,0,0,1,3-3A3,3,0,0,1,210.5,180.8Z"/><path class="cls-8" d="M201.7,180.8a3.1,3.1,0,1,1-6.1,0,3.1,3.1,0,0,1,6.1,0Z"/><path class="cls-8" d="M192.9,180.8a3,3,0,0,1-3,3.1,3.1,3.1,0,0,1-3.1-3.1,3,3,0,0,1,3.1-3A2.9,2.9,0,0,1,192.9,180.8Z"/><path class="cls-8" d="M184.2,180.8a3.1,3.1,0,1,1-6.2,0,3.1,3.1,0,0,1,6.2,0Z"/><path class="cls-8" d="M210.5,210.9a3,3,0,0,1-3.1,3,2.9,2.9,0,0,1-3-3,3,3,0,0,1,3-3.1A3.1,3.1,0,0,1,210.5,210.9Z"/><path class="cls-8" d="M201.7,210.9a3.1,3.1,0,0,1-6.1,0,3.1,3.1,0,1,1,6.1,0Z"/><path class="cls-8" d="M192.9,210.9a2.9,2.9,0,0,1-3,3,3,3,0,0,1-3.1-3,3.1,3.1,0,0,1,3.1-3.1A3,3,0,0,1,192.9,210.9Z"/><path class="cls-8" d="M184.2,210.9a3.1,3.1,0,0,1-6.2,0,3.1,3.1,0,0,1,6.2,0Z"/><path class="cls-8" d="M210.5,240.9a3.1,3.1,0,0,1-3.1,3.1,3.1,3.1,0,0,1,0-6.2A3.1,3.1,0,0,1,210.5,240.9Z"/><path class="cls-8" d="M201.7,240.9a3.1,3.1,0,1,1-3.1-3.1A3.1,3.1,0,0,1,201.7,240.9Z"/><path class="cls-8" d="M192.9,240.9a3,3,0,0,1-3,3.1,3.1,3.1,0,0,1,0-6.2A3,3,0,0,1,192.9,240.9Z"/><path class="cls-8" d="M184.2,240.9a3.1,3.1,0,1,1-3.1-3.1A3.1,3.1,0,0,1,184.2,240.9Z"/><circle class="cls-8" cx="207.4" cy="271" r="3.1"/><path class="cls-8" d="M201.7,271a3.1,3.1,0,0,1-6.1,0,3.1,3.1,0,1,1,6.1,0Z"/><path class="cls-8" d="M192.9,271a2.9,2.9,0,0,1-3,3,3,3,0,0,1-3.1-3,3.1,3.1,0,0,1,3.1-3.1A3,3,0,0,1,192.9,271Z"/><circle class="cls-8" cx="181.1" cy="271" r="3.1"/><circle class="cls-8" cx="207.4" cy="301" r="3.1"/><path class="cls-8" d="M201.7,301a3.1,3.1,0,1,1-3.1-3.1A3.1,3.1,0,0,1,201.7,301Z"/><path class="cls-8" d="M192.9,301a3,3,0,0,1-3,3.1,3.1,3.1,0,1,1,0-6.2A3,3,0,0,1,192.9,301Z"/><circle class="cls-8" cx="181.1" cy="301" r="3.1"/><circle class="cls-6" cx="165.3" cy="90.7" r="6.7"/><circle class="cls-6" cx="165.3" cy="120.7" r="6.7"/><circle class="cls-6" cx="165.3" cy="150.8" r="6.7" transform="translate(-10 289.8) rotate(-80.8)"/><circle class="cls-6" cx="165.3" cy="180.8" r="6.7" transform="translate(-39.7 315.1) rotate(-80.8)"/><circle class="cls-6" cx="165.3" cy="210.9" r="6.7" transform="translate(-67.9 78.9) rotate(-22.4)"/><circle class="cls-6" cx="165.3" cy="240.9" r="6.7" transform="translate(-79.3 81.1) rotate(-22.4)"/><circle class="cls-6" cx="165.3" cy="271" r="6.7"/><circle class="cls-6" cx="165.3" cy="301" r="6.7"/><rect class="cls-7" x="320.4" y="318.5" width="107.1" height="12.61"/><rect class="cls-6" x="427.6" y="318.5" width="17.8" height="12.61" transform="translate(873 649.6) rotate(180)"/><rect class="cls-8" x="314.5" y="95.7" width="113.1" height="222.76"/><rect class="cls-7" x="322.4" y="93.8" width="121.1" height="1.91"/><rect class="cls-7" x="427.6" y="95.7" width="23.8" height="222.76" transform="translate(878.9 414.2) rotate(180)"/><rect class="cls-7" x="317.3" y="98.4" width="107.5" height="24.41" transform="translate(742.1 221.2) rotate(180)"/><rect class="cls-7" x="317.3" y="291.3" width="107.5" height="24.41" transform="translate(742.1 607) rotate(180)"/><rect class="cls-7" x="317.3" y="263.7" width="107.5" height="24.41" transform="translate(742.1 551.9) rotate(180)"/><rect class="cls-7" x="317.3" y="236.2" width="107.5" height="24.41" transform="translate(742.1 496.8) rotate(180)"/><rect class="cls-7" x="317.3" y="208.6" width="107.5" height="24.41" transform="translate(742.1 441.7) rotate(180)"/><rect class="cls-7" x="317.3" y="181.1" width="107.5" height="24.41" transform="translate(742.1 386.6) rotate(180)"/><rect class="cls-7" x="317.3" y="153.5" width="107.5" height="24.41" transform="translate(742.1 331.4) rotate(180)"/><rect class="cls-7" x="317.3" y="126" width="107.5" height="24.41" transform="translate(742.1 276.3) rotate(180)"/><rect class="cls-6" x="320.7" y="101.9" width="59" height="17.44" rx="3.6" transform="translate(700.5 221.2) rotate(180)"/><rect class="cls-8" x="323.7" y="108.3" width="4.5" height="4.62" rx="1.1" transform="translate(436.5 -215.3) rotate(90)"/><rect class="cls-6" x="320.7" y="129.4" width="59" height="17.44" rx="3.6" transform="translate(700.5 276.3) rotate(180)"/><rect class="cls-8" x="323.7" y="135.9" width="4.5" height="4.62" rx="1.1" transform="translate(464.1 -187.8) rotate(90)"/><rect class="cls-6" x="320.7" y="157" width="59" height="17.44" rx="3.6" transform="translate(700.5 331.4) rotate(180)"/><rect class="cls-8" x="323.7" y="163.4" width="4.5" height="4.62" rx="1.1" transform="translate(491.6 -160.2) rotate(90)"/><rect class="cls-6" x="320.7" y="184.6" width="59" height="17.44" rx="3.6" transform="translate(700.5 386.6) rotate(180)"/><rect class="cls-8" x="323.7" y="191" width="4.5" height="4.62" rx="1.1" transform="translate(519.2 -132.6) rotate(90)"/><rect class="cls-6" x="320.7" y="212.1" width="59" height="17.44" rx="3.6" transform="translate(700.5 441.7) rotate(180)"/><rect class="cls-8" x="323.7" y="218.5" width="4.5" height="4.62" rx="1.1" transform="translate(546.8 -105.1) rotate(90)"/><rect class="cls-6" x="320.7" y="239.7" width="59" height="17.44" rx="3.6" transform="translate(700.5 496.8) rotate(180)"/><rect class="cls-8" x="323.7" y="246.1" width="4.5" height="4.62" rx="1.1" transform="translate(574.3 -77.5) rotate(90)"/><rect class="cls-6" x="320.7" y="267.2" width="59" height="17.44" rx="3.6" transform="translate(700.5 551.9) rotate(180)"/><rect class="cls-8" x="323.7" y="273.6" width="4.5" height="4.62" rx="1.1" transform="translate(601.9 -50) rotate(90)"/><rect class="cls-6" x="320.7" y="294.8" width="59" height="17.44" rx="3.6" transform="translate(700.5 607) rotate(180)"/><rect class="cls-8" x="323.7" y="301.2" width="4.5" height="4.62" rx="1.1" transform="translate(629.4 -22.4) rotate(90)"/><rect class="cls-8" x="330.8" y="108.3" width="4.5" height="4.62" rx="1.1" transform="translate(443.7 -222.4) rotate(90)"/><rect class="cls-8" x="330.8" y="135.9" width="4.5" height="4.62" rx="1.1" transform="translate(471.2 -194.9) rotate(90)"/><rect class="cls-8" x="330.8" y="163.4" width="4.5" height="4.62" rx="1.1" transform="translate(498.8 -167.3) rotate(90)"/><rect class="cls-8" x="330.8" y="191" width="4.5" height="4.62" rx="1.1" transform="translate(526.3 -139.8) rotate(90)"/><rect class="cls-8" x="330.8" y="218.5" width="4.5" height="4.62" rx="1.1" transform="translate(553.9 -112.2) rotate(90)"/><rect class="cls-8" x="330.8" y="246.1" width="4.5" height="4.62" rx="1.1" transform="translate(581.4 -84.7) rotate(90)"/><rect class="cls-8" x="330.8" y="273.6" width="4.5" height="4.62" rx="1.1" transform="translate(609 -57.1) rotate(90)"/><rect class="cls-8" x="330.8" y="301.2" width="4.5" height="4.62" rx="1.1" transform="translate(636.5 -29.5) rotate(90)"/><rect class="cls-8" x="337.9" y="108.3" width="4.5" height="4.62" rx="1.1" transform="translate(450.8 -229.5) rotate(90)"/><rect class="cls-8" x="337.9" y="135.9" width="4.5" height="4.62" rx="1.1" transform="translate(478.3 -202) rotate(90)"/><rect class="cls-8" x="337.9" y="163.4" width="4.5" height="4.62" rx="1.1" transform="translate(505.9 -174.4) rotate(90)"/><rect class="cls-8" x="337.9" y="191" width="4.5" height="4.62" rx="1.1" transform="translate(533.4 -146.9) rotate(90)"/><rect class="cls-8" x="337.9" y="218.5" width="4.5" height="4.62" rx="1.1" transform="translate(561 -119.3) rotate(90)"/><rect class="cls-8" x="337.9" y="246.1" width="4.5" height="4.62" rx="1.1" transform="translate(588.5 -91.8) rotate(90)"/><rect class="cls-8" x="337.9" y="273.6" width="4.5" height="4.62" rx="1.1" transform="translate(616.1 -64.2) rotate(90)"/><rect class="cls-8" x="337.9" y="301.2" width="4.5" height="4.62" rx="1.1" transform="translate(643.6 -36.7) rotate(90)"/><rect class="cls-8" x="345" y="108.3" width="4.5" height="4.62" rx="1.1" transform="translate(457.9 -236.7) rotate(90)"/><rect class="cls-8" x="345" y="135.9" width="4.5" height="4.62" rx="1.1" transform="translate(485.4 -209.1) rotate(90)"/><rect class="cls-8" x="345" y="163.4" width="4.5" height="4.62" rx="1.1" transform="translate(513 -181.5) rotate(90)"/><rect class="cls-8" x="345" y="191" width="4.5" height="4.62" rx="1.1" transform="translate(540.5 -154) rotate(90)"/><rect class="cls-8" x="345" y="218.5" width="4.5" height="4.62" rx="1.1" transform="translate(568.1 -126.4) rotate(90)"/><rect class="cls-8" x="345" y="246.1" width="4.5" height="4.62" rx="1.1" transform="translate(595.7 -98.9) rotate(90)"/><rect class="cls-8" x="345" y="273.6" width="4.5" height="4.62" rx="1.1" transform="translate(623.2 -71.3) rotate(90)"/><rect class="cls-8" x="345" y="301.2" width="4.5" height="4.62" rx="1.1" transform="translate(650.8 -43.8) rotate(90)"/><path class="cls-8" d="M385.7,110.6a2.9,2.9,0,0,0,5.8,0,2.9,2.9,0,0,0-5.8,0Z"/><path class="cls-8" d="M394,110.6a2.9,2.9,0,0,0,5.8,0,2.9,2.9,0,0,0-5.8,0Z"/><path class="cls-8" d="M402.3,110.6a3,3,0,0,0,5.9,0,3,3,0,0,0-5.9,0Z"/><path class="cls-8" d="M410.7,110.6a2.9,2.9,0,0,0,5.8,0,2.9,2.9,0,0,0-5.8,0Z"/><path class="cls-8" d="M385.7,138.2a2.9,2.9,0,0,0,5.8,0,2.9,2.9,0,0,0-5.8,0Z"/><path class="cls-8" d="M394,138.2a2.9,2.9,0,0,0,5.8,0,2.9,2.9,0,0,0-5.8,0Z"/><path class="cls-8" d="M402.3,138.2a3,3,0,0,0,5.9,0,3,3,0,0,0-5.9,0Z"/><path class="cls-8" d="M410.7,138.2a2.9,2.9,0,0,0,5.8,0,2.9,2.9,0,0,0-5.8,0Z"/><path class="cls-8" d="M385.7,165.7a2.9,2.9,0,0,0,5.8,0,2.9,2.9,0,0,0-5.8,0Z"/><path class="cls-8" d="M394,165.7a2.9,2.9,0,0,0,5.8,0,2.9,2.9,0,0,0-5.8,0Z"/><path class="cls-8" d="M402.3,165.7a3,3,0,0,0,5.9,0,3,3,0,0,0-5.9,0Z"/><path class="cls-8" d="M410.7,165.7a2.9,2.9,0,0,0,5.8,0,2.9,2.9,0,0,0-5.8,0Z"/><path class="cls-8" d="M385.7,193.3a2.9,2.9,0,0,0,5.8,0,2.9,2.9,0,0,0-5.8,0Z"/><path class="cls-8" d="M394,193.3a2.9,2.9,0,0,0,5.8,0,2.9,2.9,0,0,0-5.8,0Z"/><path class="cls-8" d="M402.3,193.3a3,3,0,0,0,5.9,0,3,3,0,0,0-5.9,0Z"/><path class="cls-8" d="M410.7,193.3a2.9,2.9,0,0,0,5.8,0,2.9,2.9,0,0,0-5.8,0Z"/><path class="cls-8" d="M385.7,220.8a2.9,2.9,0,0,0,5.8,0,2.9,2.9,0,0,0-5.8,0Z"/><path class="cls-8" d="M394,220.8a2.9,2.9,0,0,0,5.8,0,2.9,2.9,0,0,0-5.8,0Z"/><path class="cls-8" d="M402.3,220.8a3,3,0,0,0,5.9,0,3,3,0,0,0-5.9,0Z"/><path class="cls-8" d="M410.7,220.8a2.9,2.9,0,0,0,5.8,0,2.9,2.9,0,0,0-5.8,0Z"/><path class="cls-8" d="M385.7,248.4a2.9,2.9,0,0,0,5.8,0,2.9,2.9,0,0,0-5.8,0Z"/><path class="cls-8" d="M394,248.4a2.9,2.9,0,0,0,5.8,0,2.9,2.9,0,0,0-5.8,0Z"/><path class="cls-8" d="M402.3,248.4a3,3,0,0,0,5.9,0,3,3,0,0,0-5.9,0Z"/><path class="cls-8" d="M410.7,248.4a2.9,2.9,0,0,0,5.8,0,2.9,2.9,0,0,0-5.8,0Z"/><path class="cls-8" d="M385.7,275.9a2.9,2.9,0,1,0,2.9-2.8A2.9,2.9,0,0,0,385.7,275.9Z"/><path class="cls-8" d="M394,275.9a2.9,2.9,0,1,0,2.9-2.8A2.9,2.9,0,0,0,394,275.9Z"/><path class="cls-8" d="M402.3,275.9a3,3,0,0,0,5.9,0,3,3,0,0,0-5.9,0Z"/><path class="cls-8" d="M410.7,275.9a2.9,2.9,0,1,0,2.9-2.8A2.9,2.9,0,0,0,410.7,275.9Z"/><path class="cls-8" d="M385.7,303.5a2.9,2.9,0,0,0,5.8,0,2.9,2.9,0,0,0-5.8,0Z"/><path class="cls-8" d="M394,303.5a2.9,2.9,0,0,0,5.8,0,2.9,2.9,0,0,0-5.8,0Z"/><path class="cls-8" d="M402.3,303.5a3,3,0,0,0,5.9,0,3,3,0,0,0-5.9,0Z"/><path class="cls-8" d="M410.7,303.5a2.9,2.9,0,0,0,5.8,0,2.9,2.9,0,0,0-5.8,0Z"/><rect class="cls-10" x="343" y="295.5" width="65.3" height="7.45"/><g class="cls-11"><rect class="cls-12" x="344.7" y="296.6" width="1.6" height="5.33"/><rect class="cls-12" x="347.6" y="296.6" width="1.6" height="5.33"/><rect class="cls-12" x="350.4" y="296.6" width="1.6" height="5.33"/><rect class="cls-12" x="353.3" y="296.6" width="1.6" height="5.33"/><rect class="cls-12" x="356.2" y="296.6" width="1.6" height="5.33"/><rect class="cls-12" x="359" y="296.6" width="1.6" height="5.33"/><rect class="cls-12" x="361.9" y="296.6" width="1.6" height="5.33"/><rect class="cls-12" x="364.8" y="296.6" width="1.6" height="5.33"/><rect class="cls-12" x="367.7" y="296.6" width="1.6" height="5.33"/><rect class="cls-12" x="370.5" y="296.6" width="1.6" height="5.33"/><rect class="cls-12" x="373.4" y="296.6" width="1.6" height="5.33"/><rect class="cls-12" x="376.3" y="296.6" width="1.6" height="5.33"/><rect class="cls-12" x="379.1" y="296.6" width="1.6" height="5.33"/><rect class="cls-12" x="382" y="296.6" width="1.6" height="5.33"/><rect class="cls-12" x="384.9" y="296.6" width="1.6" height="5.33"/><rect class="cls-12" x="387.8" y="296.6" width="1.6" height="5.33"/><rect class="cls-12" x="390.6" y="296.6" width="1.6" height="5.33"/><rect class="cls-12" x="393.5" y="296.6" width="1.6" height="5.33"/><rect class="cls-12" x="396.4" y="296.6" width="1.6" height="5.33"/><rect class="cls-12" x="399.3" y="296.6" width="1.6" height="5.33"/><rect class="cls-12" x="402.1" y="296.6" width="1.6" height="5.33"/><rect class="cls-12" x="405" y="296.6" width="1.6" height="5.33"/></g><rect class="cls-13" x="408.3" y="295.5" width="10.2" height="7.45" transform="translate(826.8 598.5) rotate(180)"/><rect class="cls-10" x="339.6" y="163.9" width="68.7" height="131.66"/><rect class="cls-14" x="344.1" y="162.7" width="73.3" height="1.13"/><rect class="cls-15" x="336.9" y="225.2" width="0.6" height="5.55"/><rect class="cls-15" x="336.9" y="232.6" width="0.6" height="14.43"/><rect class="cls-13" x="408.3" y="163.9" width="13.6" height="131.66" transform="translate(830.2 459.4) rotate(180)"/><rect class="cls-16" x="341.2" y="198.7" width="65.5" height="13.07" rx="1.8"/><path class="cls-17" d="M401.2,203.5l-2.7-5.5v14.4h8.2v-7.2H404A3.2,3.2,0,0,1,401.2,203.5Z"/><rect class="cls-18" x="341.2" y="165.4" width="65.5" height="14.43"/><rect class="cls-18" x="341.2" y="279.4" width="65.5" height="14.43"/><rect class="cls-18" x="341.2" y="263.2" width="65.5" height="14.43"/><rect class="cls-18" x="341.2" y="246.9" width="65.5" height="14.43"/><rect class="cls-18" x="341.2" y="230.6" width="65.5" height="14.43"/><rect class="cls-18" x="341.2" y="214.3" width="65.5" height="14.43"/><rect class="cls-18" x="333" y="198" width="65.5" height="14.43"/><rect class="cls-18" x="341.2" y="181.7" width="65.5" height="14.43"/><rect class="cls-13" x="375.6" y="167.5" width="29.1" height="10.31" rx="2.1"/><rect class="cls-19" x="394.6" y="167.7" width="2.6" height="9.86" rx="0.9" transform="translate(568.6 -223.3) rotate(90)"/><rect class="cls-13" x="375.6" y="183.8" width="29.1" height="10.31" rx="2.1"/><rect class="cls-19" x="394.6" y="184" width="2.6" height="9.86" rx="0.9" transform="translate(584.9 -207) rotate(90)"/><rect class="cls-13" x="367.5" y="200.1" width="29.1" height="10.31" rx="2.1"/><rect class="cls-19" x="386.5" y="200.3" width="2.6" height="9.86" rx="0.9" transform="translate(593 -182.6) rotate(90)"/><rect class="cls-13" x="375.6" y="216.4" width="29.1" height="10.31" rx="2.1"/><rect class="cls-19" x="394.6" y="216.6" width="2.6" height="9.86" rx="0.9" transform="translate(617.5 -174.4) rotate(90)"/><rect class="cls-13" x="375.6" y="232.6" width="29.1" height="10.31" rx="2.1"/><rect class="cls-19" x="394.6" y="232.9" width="2.6" height="9.86" rx="0.9" transform="translate(633.8 -158.2) rotate(90)"/><rect class="cls-13" x="375.6" y="248.9" width="29.1" height="10.31" rx="2.1"/><rect class="cls-19" x="394.6" y="249.2" width="2.6" height="9.86" rx="0.9" transform="translate(650 -141.9) rotate(90)"/><rect class="cls-13" x="375.6" y="265.2" width="29.1" height="10.31" rx="2.1"/><rect class="cls-19" x="394.6" y="265.4" width="2.6" height="9.86" rx="0.9" transform="translate(666.3 -125.6) rotate(90)"/><rect class="cls-13" x="375.6" y="281.5" width="29.1" height="10.31" rx="2.1"/><rect class="cls-19" x="394.6" y="281.7" width="2.6" height="9.86" rx="0.9" transform="translate(682.6 -109.3) rotate(90)"/><circle class="cls-15" cx="370.5" cy="172.7" r="1.7"/><circle class="cls-15" cx="365.8" cy="172.7" r="1.7"/><circle class="cls-20" cx="361" cy="172.7" r="1.7"/><path class="cls-15" d="M357.9,172.7a1.6,1.6,0,0,1-1.6,1.6,1.7,1.7,0,0,1-1.7-1.6,1.7,1.7,0,0,1,1.7-1.7A1.6,1.6,0,0,1,357.9,172.7Z"/><circle class="cls-15" cx="370.5" cy="188.9" r="1.7"/><circle class="cls-15" cx="365.8" cy="188.9" r="1.7"/><circle class="cls-15" cx="361" cy="188.9" r="1.7"/><path class="cls-20" d="M357.9,188.9a1.6,1.6,0,0,1-1.6,1.7,1.7,1.7,0,0,1-1.7-1.7,1.7,1.7,0,0,1,1.7-1.6A1.6,1.6,0,0,1,357.9,188.9Z"/><circle class="cls-20" cx="362.4" cy="205.2" r="1.7"/><circle class="cls-15" cx="357.6" cy="205.2" r="1.7"/><circle class="cls-20" cx="352.9" cy="205.2" r="1.7"/><circle class="cls-15" cx="348.1" cy="205.2" r="1.7"/><circle class="cls-20" cx="370.5" cy="221.5" r="1.7"/><circle class="cls-20" cx="365.8" cy="221.5" r="1.7"/><circle class="cls-15" cx="361" cy="221.5" r="1.7"/><path class="cls-15" d="M357.9,221.5a1.7,1.7,0,0,1-1.6,1.7,1.8,1.8,0,0,1-1.7-1.7,1.7,1.7,0,0,1,1.7-1.6A1.6,1.6,0,0,1,357.9,221.5Z"/><circle class="cls-15" cx="370.5" cy="237.8" r="1.7"/><circle class="cls-20" cx="365.8" cy="237.8" r="1.7"/><circle class="cls-15" cx="361" cy="237.8" r="1.7"/><path class="cls-15" d="M357.9,237.8a1.7,1.7,0,0,1-1.6,1.7,1.7,1.7,0,1,1,0-3.4A1.7,1.7,0,0,1,357.9,237.8Z"/><circle class="cls-15" cx="370.5" cy="254.1" r="1.7"/><circle class="cls-15" cx="365.8" cy="254.1" r="1.7"/><circle class="cls-20" cx="361" cy="254.1" r="1.7"/><path class="cls-20" d="M357.9,254.1a1.7,1.7,0,0,1-1.6,1.7,1.7,1.7,0,1,1,0-3.4A1.7,1.7,0,0,1,357.9,254.1Z"/><path class="cls-20" d="M372.2,270.4a1.6,1.6,0,0,1-1.7,1.6,1.6,1.6,0,0,1-1.6-1.6,1.7,1.7,0,0,1,1.6-1.7A1.7,1.7,0,0,1,372.2,270.4Z"/><path class="cls-15" d="M367.5,270.4a1.7,1.7,0,0,1-3.4,0,1.7,1.7,0,1,1,3.4,0Z"/><path class="cls-15" d="M362.7,270.4A1.7,1.7,0,0,1,361,272a1.6,1.6,0,0,1-1.6-1.6,1.7,1.7,0,0,1,1.6-1.7A1.8,1.8,0,0,1,362.7,270.4Z"/><path class="cls-15" d="M357.9,270.4a1.6,1.6,0,0,1-1.6,1.6,1.7,1.7,0,0,1-1.7-1.6,1.8,1.8,0,0,1,1.7-1.7A1.7,1.7,0,0,1,357.9,270.4Z"/><circle class="cls-15" cx="370.5" cy="286.7" r="1.7"/><circle class="cls-15" cx="365.8" cy="286.7" r="1.7"/><circle class="cls-20" cx="361" cy="286.7" r="1.7"/><path class="cls-15" d="M357.9,286.7a1.6,1.6,0,0,1-1.6,1.6,1.7,1.7,0,0,1-1.7-1.6,1.7,1.7,0,0,1,1.7-1.7A1.6,1.6,0,0,1,357.9,286.7Z"/><path class="cls-19" d="M351.3,172.7a3.6,3.6,0,1,1-3.6-3.6A3.6,3.6,0,0,1,351.3,172.7Z"/><path class="cls-19" d="M351.3,188.9a3.6,3.6,0,1,1-3.6-3.6A3.7,3.7,0,0,1,351.3,188.9Z"/><path class="cls-19" d="M343.1,205.2a3.6,3.6,0,1,1-3.6-3.6A3.6,3.6,0,0,1,343.1,205.2Z"/><path class="cls-19" d="M351.3,221.5a3.6,3.6,0,1,1-3.6-3.6A3.6,3.6,0,0,1,351.3,221.5Z"/><path class="cls-19" d="M351.3,237.8a3.6,3.6,0,1,1-3.6-3.6A3.6,3.6,0,0,1,351.3,237.8Z"/><path class="cls-19" d="M351.3,254.1a3.6,3.6,0,1,1-3.6-3.6A3.6,3.6,0,0,1,351.3,254.1Z"/><path class="cls-19" d="M351.3,270.4a3.6,3.6,0,1,1-3.6-3.6A3.6,3.6,0,0,1,351.3,270.4Z"/><path class="cls-19" d="M351.3,286.7a3.6,3.6,0,1,1-3.6-3.7A3.6,3.6,0,0,1,351.3,286.7Z"/><ellipse class="cls-21" cx="335.9" cy="344.3" rx="203.4" ry="10.3"/><ellipse class="cls-21" cx="130.3" cy="361.1" rx="56.1" ry="10.3"/><path class="cls-22" d="M207.5,174.3a11.4,11.4,0,0,1,.9-3c.7-1.5,3.3-1.9,5.7-2.9s5.7-4.8,5.9-6.3-1.6-.4-4.7,1.3-6.6,1.2-8.7,2.6-3.1,5.9-3.1,5.9Z"/><path class="cls-22" d="M206.6,166a29.9,29.9,0,0,1,3.8-2.5c1.5-.8,4.3-1.8,3.8-1s-5.6,4.8-5.6,4.8Z"/><path class="cls-23" d="M162,196.5s24.4,11.3,30.7,8.9c9.4-3.6,16.4-29.4,16.4-29.4-1-4.2-6.1-5.4-6.1-5.4s-11.8,17.8-12.6,18.6c-2.7,3.1-25.6-13.3-26.5-13.6Z"/><path class="cls-24" d="M110.1,344.6l6.2,1.4c.2,2.6.3,5.1.3,7.7s.8,6.9,3.8,7.5,1.8,2.7,1.8,2.7h-8c-1.6,0-3.4-1.7-3.9-4.7s-3.9-4.7-4.6-7.1,3.1-5.8,3.1-5.8Z"/><path class="cls-24" d="M163.6,353.8c1,4.5,7.2,6.4,10.5,7s3.3,3.1,3.3,3.1H156.2c-1.6-.8-1-8.7-1-8.7S162.7,349.3,163.6,353.8Z"/><path class="cls-25" d="M142,242.2s2.5,47.1,4.1,69.4v1.1a236.6,236.6,0,0,0,8.1,42.7c7,1.6,10.5-1.9,10.5-1.9s1.5-14.6,1.9-23.6c.2-5.3,2.4-32.9,4.2-55.5,1.3-16.5,2.3-30.3,2.3-30.3Z"/><path class="cls-18" d="M142,242.2s2.5,47.1,4.1,69.4v1.1l24.7-38.3c1.3-16.5,2.3-30.3,2.3-30.3Z"/><path class="cls-25" d="M135.8,236.7s-1.5,13-1.8,19.5-6.2,25.3-11.3,31.5c-8.8,11.1-13.9,56.4-13.9,56.4.7,2.1,8.3,5,8.3,5s4-6.5,17.4-30S168,245.7,168,245.7Z"/><path class="cls-22" d="M147.4,156.2l5.4,3.6,5.5,3.3a35.3,35.3,0,0,1,.1,4.6v1.4a4.2,4.2,0,0,0,2.1,3.9,17,17,0,0,1,3.4,2.6c-7.7,3.1-21.8-2.2-21.8-2.2S148.9,167.4,147.4,156.2Z"/><path class="cls-26" d="M134,238c.2-3.3.7-8.2.9-13.9,0-.6.2-1.1.2-1.7.1-3.8.1-8,0-12.4v-1a25.3,25.3,0,0,1,0-5.5v-.6a83.7,83.7,0,0,1,1.5-15.8c1.8-8.7,4.6-15.4,8.9-18.3.5-.4,4,1.4,7.1,2.9a11.1,11.1,0,0,0,7.8,1.3l1.8,1.1a24.2,24.2,0,0,1,4.2,3.7,27.9,27.9,0,0,1,5.6,11.3c.2,1.2.4,2.4.5,3.7.5,3.1.8,7.7,1,10.9s.2,5.8.4,10.4.1,9,.1,13.3v1.5c-.1,11.1-.5,19.9-.7,20a1.2,1.2,0,0,1-.9.4c-2.9-.1-11.6,1.3-18.9.4a54.1,54.1,0,0,1-17.4-5.4c-.8-.4-2.6-1.4-2.5-2.3S133.8,239.3,134,238Z"/><path class="cls-27" d="M152.8,159.8l5.1-.8a50.8,50.8,0,0,1,.5,8.7c-6.7-1.2-10.7-7.2-10.7-7.2Z"/><path class="cls-22" d="M157.9,143.5c-1.8-2.1-4.8-4-12,.2s-3.2,8.3.6,15.5,15.5,1,15.5,1C164.8,158.4,159.7,145.6,157.9,143.5Z"/><path class="cls-28" d="M136.7,146.4c-.2,2.2,4.7,10.3,7.3,11.7l2.6,1.3s1.3-2.6.4-3.9-1.6-3.8,0-3.5,1.5,1.4,2.3.4,0-5.4,2.9-6.8,8-.2,9.2-1.6,2.6-10.8-10.3-7.5c-9.7,2.5-12.7,4.9-13.7,7a2,2,0,0,1,.4-1.5,3.2,3.2,0,0,0-1.1,3.3,1.8,1.8,0,0,0-.9.6c.5-.2.9-.2,1,0S136.8,146.2,136.7,146.4Z"/><path class="cls-22" d="M117.6,242.9c1,5.8,2.6,5,2.1,12.7-.2,3.5,5.4-1.7,5.8-5.6s-2.8-8.8-2.9-9Z"/><path class="cls-22" d="M124.1,245.2s3,1.8,3.7,1.4-4.2-3.9-4.2-3.9Z"/><path class="cls-23" d="M135.1,209a25.3,25.3,0,0,1,0-5.5v-.6l14.5-6.8c-.1.4-6.7,19.9-14.5,26.3h0c.1-3.8.1-8,0-12.4Z"/><path class="cls-26" d="M155.8,185.6c1.2,6.6-23.1,25.5-26.1,30.8s-5.7,25-5.7,25c-1.9,2.4-7.3,1.6-7.3,1.6s-2.6-23.9,1.7-36.1c6.1-17.2,24-35.2,24.2-35.3,2.9-2.8,11.4.7,12.3,8C155.2,181.7,155.5,183.8,155.8,185.6Z"/><rect class="cls-5" x="86.1" y="103.9" width="3.4" height="7.3" rx="1.7"/><rect class="cls-5" x="86.1" y="117" width="3.4" height="7.3" rx="1.7"/><rect class="cls-5" x="93.1" y="110.3" width="3.4" height="7.3" rx="1.7" transform="translate(-19.2 208.8) rotate(-90)"/><rect class="cls-5" x="79.3" y="110.3" width="3.4" height="7.3" rx="1.7" transform="translate(-33 195) rotate(-90)"/><rect class="cls-5" x="468.6" y="83" width="3.4" height="7.3" rx="1.7"/><rect class="cls-5" x="468.6" y="96" width="3.4" height="7.3" rx="1.7"/><rect class="cls-5" x="475.6" y="89.4" width="3.4" height="7.3" rx="1.7" transform="translate(384.3 570.4) rotate(-90)"/><rect class="cls-5" x="461.8" y="89.4" width="3.4" height="7.3" rx="1.7" transform="translate(370.5 556.6) rotate(-90)"/><rect class="cls-5" x="297.2" y="45" width="3.7" height="7.99" rx="1.9"/><rect class="cls-5" x="297.2" y="59.3" width="3.7" height="7.99" rx="1.9"/><rect class="cls-5" x="304.9" y="52" width="3.7" height="7.99" rx="1.9" transform="translate(250.7 362.8) rotate(-90)"/><rect class="cls-5" x="289.8" y="52" width="3.7" height="7.99" rx="1.9" transform="translate(235.6 347.7) rotate(-90)"/><rect class="cls-5" x="531.2" y="163.1" width="3.4" height="7.3" rx="1.7"/><rect class="cls-5" x="531.2" y="176.1" width="3.4" height="7.3" rx="1.7"/><rect class="cls-5" x="538.3" y="169.5" width="3.4" height="7.3" rx="1.7" transform="translate(366.8 713.1) rotate(-90)"/><rect class="cls-5" x="524.5" y="169.5" width="3.4" height="7.3" rx="1.7" transform="translate(353 699.3) rotate(-90)"/><g class="cls-4"><path class="cls-1" d="M433.9,308.7v11.4c.1,7.4,4.9,14.8,14.6,20.4,19.6,11.4,51.4,11.4,71.1,0,9.9-5.7,14.9-13.2,14.9-20.7V308.4c0,7.5-5,15-14.9,20.8-19.7,11.3-51.5,11.3-71.1,0C438.8,323.5,434,316.1,433.9,308.7Z"/><g class="cls-29"><g class="cls-4"><path class="cls-30" d="M433.9,308.7v11.4c.1,7.4,4.9,14.8,14.6,20.4a54.1,54.1,0,0,0,12.8,5.4V334.5a58.4,58.4,0,0,1-12.8-5.3c-9.7-5.7-14.5-13.1-14.6-20.5Z"/><path class="cls-31" d="M461.3,334.5v11.4a81.1,81.1,0,0,0,21.6,3.1V337.7a81.1,81.1,0,0,1-21.6-3.2Z"/><path class="cls-32" d="M482.9,337.7V349c13.2.2,26.6-2.6,36.7-8.5l1.5-.9V328.3l-1.5.9c-10.1,5.8-23.5,8.6-36.7,8.5Z"/><path class="cls-31" d="M521.1,328.3v11.3c5.2-3.3,8.9-7.1,11.1-11.1V317.1c-2.2,4.1-5.9,7.9-11.1,11.2Z"/><path class="cls-31" d="M532.2,317.1v11.4a18.6,18.6,0,0,0,2.3-8.7V308.4a18.3,18.3,0,0,1-2.3,8.7Z"/></g></g><path class="cls-33" d="M448.8,288c-19.7,11.3-19.8,29.8-.3,41.2s51.4,11.3,71.1,0,19.8-29.9.3-41.2S468.5,276.6,448.8,288Z"/></g><g class="cls-4"><path class="cls-2" d="M435.3,289v16.4c0,7.2,4.7,14.4,14.2,19.9,19,11.1,49.9,11.1,69.1,0,9.6-5.5,14.4-12.8,14.4-20.1V288.8c0,7.3-4.8,14.6-14.5,20.1-19.1,11.1-50,11.1-69.1,0C440.1,303.4,435.3,296.2,435.3,289Z"/><g class="cls-34"><g class="cls-4"><path class="cls-13" d="M435.3,289v16.4c0,7.2,4.7,14.4,14.2,19.9a57.9,57.9,0,0,0,12.4,5.3V314.2a56,56,0,0,1-12.5-5.3c-9.4-5.5-14.2-12.7-14.2-19.9Z"/><path class="cls-18" d="M462,314.2v16.4a80.7,80.7,0,0,0,21,3V317.2a79.9,79.9,0,0,1-20.9-3Z"/><path class="cls-25" d="M482.9,317.2v16.4c12.9.2,25.8-2.6,35.7-8.3l1.4-.8V308.1l-1.5.8c-9.8,5.7-22.8,8.5-35.7,8.3Z"/><path class="cls-13" d="M520.1,308.1v16.4c5.1-3.2,8.7-6.9,10.8-10.9V297.2c-2.1,4-5.7,7.7-10.8,10.9Z"/><path class="cls-13" d="M530.9,297.2v16.4a17.3,17.3,0,0,0,2.2-8.4V288.8a17.3,17.3,0,0,1-2.2,8.4Z"/></g></g><path class="cls-35" d="M449.8,268.9c-19.2,11-19.3,29-.3,40s50,11.1,69.1,0,19.3-29,.3-40S468.9,257.8,449.8,268.9Z"/></g><g class="cls-4"><path class="cls-1" d="M433.9,276.9v11.3c.1,7.4,4.9,14.8,14.6,20.5,19.6,11.4,51.4,11.4,71.1,0,9.9-5.7,14.9-13.2,14.9-20.7V276.6c0,7.5-5,15-14.9,20.7-19.7,11.4-51.5,11.4-71.1,0C438.8,291.7,434,284.3,433.9,276.9Z"/><g class="cls-36"><g class="cls-4"><path class="cls-30" d="M433.9,276.9v11.3c.1,7.4,4.9,14.8,14.6,20.5a63.9,63.9,0,0,0,12.8,5.4V302.7a54.1,54.1,0,0,1-12.8-5.4c-9.7-5.6-14.5-13-14.6-20.4Z"/><path class="cls-31" d="M461.3,302.7v11.4a81.1,81.1,0,0,0,21.6,3.1V305.8a77.2,77.2,0,0,1-21.6-3.1Z"/><path class="cls-32" d="M482.9,305.8v11.4c13.2.2,26.6-2.7,36.7-8.5l1.5-.9V296.5l-1.5.8c-10.1,5.9-23.5,8.7-36.7,8.5Z"/><path class="cls-31" d="M521.1,296.5v11.3c5.2-3.3,8.9-7.1,11.1-11.1V285.3a31.9,31.9,0,0,1-11.1,11.2Z"/><path class="cls-31" d="M532.2,285.3v11.4a18.9,18.9,0,0,0,2.3-8.7V276.6a18.6,18.6,0,0,1-2.3,8.7Z"/></g></g><path class="cls-33" d="M448.8,256.1c-19.7,11.4-19.8,29.9-.3,41.2s51.4,11.4,71.1,0,19.8-29.8.3-41.1S468.5,244.8,448.8,256.1Z"/></g><g class="cls-4"><path class="cls-2" d="M435.3,257.3v16.4c0,7.2,4.7,14.4,14.2,19.9,19,11.1,49.9,11.1,69.1,0,9.6-5.6,14.4-12.9,14.4-20.2V257.1c0,7.2-4.8,14.5-14.5,20.1-19.1,11.1-50,11.1-69.1,0C440.1,271.7,435.3,264.5,435.3,257.3Z"/><g class="cls-37"><g class="cls-4"><path class="cls-13" d="M435.3,257.3v16.4c0,7.2,4.7,14.4,14.2,19.9a53.1,53.1,0,0,0,12.4,5.2V282.5a61,61,0,0,1-12.5-5.3c-9.4-5.5-14.2-12.7-14.2-19.9Z"/><path class="cls-18" d="M462,282.5v16.3a76.7,76.7,0,0,0,21,3.1V285.5a79.9,79.9,0,0,1-20.9-3Z"/><path class="cls-25" d="M482.9,285.5v16.4c12.9.2,25.8-2.6,35.7-8.3l1.4-.8V276.4l-1.5.8c-9.8,5.7-22.8,8.5-35.7,8.3Z"/><path class="cls-13" d="M520.1,276.4v16.4a30.2,30.2,0,0,0,10.8-10.9V265.5a30.2,30.2,0,0,1-10.8,10.9Z"/><path class="cls-13" d="M530.9,265.5v16.4a17.4,17.4,0,0,0,2.2-8.5V257.1a17.3,17.3,0,0,1-2.2,8.4Z"/></g></g><path class="cls-35" d="M449.8,237.2c-19.2,11-19.3,29-.3,40s50,11.1,69.1,0,19.3-29,.3-40S468.9,226.1,449.8,237.2Z"/></g><g class="cls-4"><path class="cls-1" d="M433.9,245.2v11.3c.1,7.4,4.9,14.8,14.6,20.5,19.6,11.3,51.4,11.3,71.1,0,9.9-5.7,14.9-13.3,14.9-20.8V244.9c0,7.5-5,15-14.9,20.7-19.7,11.4-51.5,11.4-71.1,0C438.8,260,434,252.6,433.9,245.2Z"/><g class="cls-38"><g class="cls-4"><path class="cls-30" d="M433.9,245.2v11.3c.1,7.4,4.9,14.8,14.6,20.5a63.9,63.9,0,0,0,12.8,5.4V271a63.9,63.9,0,0,1-12.8-5.4c-9.7-5.6-14.5-13-14.6-20.4Z"/><path class="cls-31" d="M461.3,271v11.4a81.1,81.1,0,0,0,21.6,3.1V274.1a81.1,81.1,0,0,1-21.6-3.1Z"/><path class="cls-32" d="M482.9,274.1v11.4c13.2.2,26.6-2.7,36.7-8.5l1.5-.9V264.7l-1.5.9c-10.1,5.9-23.5,8.7-36.7,8.5Z"/><path class="cls-31" d="M521.1,264.7v11.4c5.2-3.3,8.9-7.1,11.1-11.2V253.6c-2.2,4-5.9,7.8-11.1,11.1Z"/><path class="cls-31" d="M532.2,253.6v11.3a18.3,18.3,0,0,0,2.3-8.7V244.9a18.6,18.6,0,0,1-2.3,8.7Z"/></g></g><path class="cls-33" d="M448.8,224.4c-19.7,11.4-19.8,29.8-.3,41.2s51.4,11.4,71.1,0,19.8-29.8.3-41.2S468.5,213.1,448.8,224.4Z"/></g><path class="cls-2" d="M435.3,224.9v16.4c0,7.2,4.7,14.4,14.2,19.9,19,11.1,49.9,11.1,69.1,0,9.6-5.6,14.4-12.9,14.4-20.2V224.6c0,7.3-4.8,14.6-14.5,20.2-19.1,11.1-50,11.1-69.1,0C440.1,239.3,435.3,232.1,435.3,224.9Z"/><g class="cls-39"><g class="cls-4"><path class="cls-13" d="M435.3,224.9v16.4c0,7.2,4.7,14.4,14.2,19.9a53.1,53.1,0,0,0,12.4,5.2V250a55.7,55.7,0,0,1-12.5-5.2c-9.4-5.5-14.2-12.7-14.2-19.9Z"/><path class="cls-18" d="M462,250v16.4a76.7,76.7,0,0,0,21,3.1V253.1A76,76,0,0,1,462,250Z"/><path class="cls-25" d="M482.9,253.1v16.4c12.9.2,25.8-2.6,35.7-8.3l1.4-.8V244l-1.5.8c-9.8,5.7-22.8,8.5-35.7,8.3Z"/><path class="cls-13" d="M520.1,244v16.4c5.1-3.3,8.7-7,10.8-10.9V233.1A30.2,30.2,0,0,1,520.1,244Z"/><path class="cls-13" d="M530.9,233.1v16.4a17.4,17.4,0,0,0,2.2-8.5V224.6a17.4,17.4,0,0,1-2.2,8.5Z"/></g></g><path class="cls-18" d="M449.8,204.8c-19.2,11-19.3,28.9-.3,40s50,11.1,69.1,0,19.3-29,.3-40S468.9,193.7,449.8,204.8Z"/><g class="cls-4"><path class="cls-1" d="M433.9,212.8v11.3c.1,7.4,4.9,14.8,14.6,20.5,19.6,11.3,51.4,11.3,71.1,0,9.9-5.8,14.9-13.3,14.9-20.8V212.5c0,7.5-5,15-14.9,20.7-19.7,11.4-51.5,11.4-71.1,0C438.8,227.6,434,220.2,433.9,212.8Z"/><g class="cls-40"><g class="cls-4"><path class="cls-30" d="M433.9,212.8v11.3c.1,7.4,4.9,14.8,14.6,20.5a63.9,63.9,0,0,0,12.8,5.4V238.6a63.9,63.9,0,0,1-12.8-5.4c-9.7-5.6-14.5-13-14.6-20.4Z"/><path class="cls-31" d="M461.3,238.6V250a81.1,81.1,0,0,0,21.6,3.1V241.7a81.1,81.1,0,0,1-21.6-3.1Z"/><path class="cls-32" d="M482.9,241.7v11.4c13.2.2,26.6-2.7,36.7-8.5l1.5-.9V232.3l-1.5.9c-10.1,5.9-23.5,8.7-36.7,8.5Z"/><path class="cls-31" d="M521.1,232.3v11.4c5.2-3.3,8.9-7.1,11.1-11.2V221.2c-2.2,4-5.9,7.8-11.1,11.1Z"/><path class="cls-31" d="M532.2,221.2v11.3a18.3,18.3,0,0,0,2.3-8.7V212.5a18.9,18.9,0,0,1-2.3,8.7Z"/></g></g><path class="cls-33" d="M448.8,192c-19.7,11.4-19.8,29.8-.3,41.2s51.4,11.4,71.1,0,19.8-29.8.3-41.2S468.5,180.7,448.8,192Z"/><path class="cls-32" d="M453.2,196.8c-17.2,8.7-17.3,22.9-.2,31.6s45,8.7,62.2,0,17.3-22.9.2-31.6S470.4,188.1,453.2,196.8Z"/><path class="cls-41" d="M439,212.7v.8c.4,5.5,4.8,11.1,12.1,15.3s20.6,7.9,32.9,7.9,24.3-2.8,33.1-7.9,11.9-9.9,12.3-15.4v-.9c0-5.7-4.4-11.6-12.1-16.1s-20.6-7.8-32.9-7.8-24.3,2.8-33.1,7.8S439,206.9,439,212.7Zm4,.9h0a1.9,1.9,0,0,1-.1-.8c0-4.4,3.8-9.1,10.4-12.9s19.2-7.3,31.1-7.3,23,2.6,31,7.3c6.4,3.7,10.1,8.4,10.1,12.7a2.8,2.8,0,0,1-.1.9h0a2.2,2.2,0,0,1,.1.8c0,4.4-3.8,9.1-10.4,12.9s-19.2,7.3-31.1,7.3-22.9-2.6-30.9-7.3c-6.5-3.7-10.2-8.4-10.2-12.7A1.9,1.9,0,0,1,443,213.6Z"/><path class="cls-13" d="M439,213.5c.4,5.5,4.8,11.1,12.1,15.3s20.6,7.9,32.9,7.9,24.3-2.8,33.1-7.9,11.9-9.9,12.3-15.4-4.8-11.1-12.1-15.3-20.6-7.8-32.9-7.8-24.3,2.8-33.1,7.8S439.5,208,439,213.5Zm3.9.9a1.9,1.9,0,0,1,.1-.8h0a1.9,1.9,0,0,1-.1-.8c0-4.4,3.8-9.1,10.4-12.9s19.2-7.3,31.1-7.3,23,2.6,31,7.3c6.4,3.7,10.1,8.4,10.1,12.7a2.8,2.8,0,0,1-.1.9h0a2.2,2.2,0,0,1,.1.8c0,4.4-3.8,9.1-10.4,12.9s-19.2,7.3-31.1,7.3-22.9-2.6-30.9-7.3C446.6,223.4,442.9,218.7,442.9,214.4Z"/></g><g id="sit_woman" data-name="sit woman"><path class="cls-42" d="M506.4,133.9c.5,3.2.1,6.3.2,9.5a51.7,51.7,0,0,0,1.1,10.4c.6,3.1,1.6,6.1,1.9,9.2a13.4,13.4,0,0,1-1.7,9,4.3,4.3,0,0,1-4.8,2.1c-3.2-.6-5.8-3.2-7.1-6.3a19.8,19.8,0,0,1-.9-9.7c.4-3.3,1.2-6.5,1.7-9.7s.1-7.7-.2-11.7c-.1-1.3.1-2-.8-3a6.7,6.7,0,0,0-3.9-2,16.8,16.8,0,0,1-4-.6,4.2,4.2,0,0,1-2.5-4.4,7.3,7.3,0,0,1,1.9-3.3c2-2.1,4.5-3.9,7.3-4a9.5,9.5,0,0,1,7.6,3.5,18.6,18.6,0,0,1,3.6,7.8Z"/><path class="cls-43" d="M447.7,231.8c-2.2,1.8-4.1,12.8,4.7,12.5,4.6-.1,8.5-3.2,12.4-5.6,2.3-1.4,1.1-3.9,3.4-5.1,10.8-5.5,24.5-8.4,22.5-21.4-.2-1.4-.6-7.6-1.7-8.3s-5.3,1.1-6.4,1.3c-9.8,1.6-11,1.7-12.7,2.8-.2,7.3-1.4,8.6-5.4,11C462.6,220.2,449.3,230.5,447.7,231.8Z"/><path class="cls-44" d="M445.2,276.7v-8.1H443l.6,8.1A1.1,1.1,0,0,0,445.2,276.7Z"/><path class="cls-44" d="M430.6,275.4c-1.1,1.3-2.5,3.4-3.5,4.9a2,2,0,0,0-.4,1.3,1.5,1.5,0,0,0,.8,1.1,2.3,2.3,0,0,0,1.4.4,13.7,13.7,0,0,0,5.7-.3,5.4,5.4,0,0,0,2.7-1.4c1.1-1,1.4-2.6,1.8-4s1-3,2.4-3.7l1.1-.5c2.8-1.2,3.3-4.9,1.8-7.2s-1.9-1.3-3.2-.7-2.4,2-3.6,3.1l-.5.5c-1.3,1,.5-4.6-.2-3.1A56.5,56.5,0,0,1,430.6,275.4Z"/><path class="cls-45" d="M438.4,219.9a6.1,6.1,0,0,0-1.7,3.4c-.7,5-.5,10.4-.4,15.5s1,9.1,1,13.7c0,2.8-.3,11-1,13.8s2.5,2.5,3.8,1.8,2.9-1.6,3-2.7c.6-6,3.8-11.5,5.3-17.3a37.1,37.1,0,0,0,.4-15.2c-.8-4.1-1.1-9.3-4-12.5A4.4,4.4,0,0,0,438.4,219.9Z"/><path class="cls-45" d="M436.6,264.4a13.3,13.3,0,0,1-.6,3l-.3,1.4c-.2.5-.5.9-.7,1.4s-1,1.6-1.6,2.4a16.6,16.6,0,0,0-1.6,2.1c-.3.6-.6,1.7.1,2.2a1.6,1.6,0,0,0,1.2.1,7.2,7.2,0,0,0,3.4-2.1,18.6,18.6,0,0,1,2.9-2.7l2.2-1.4a4.7,4.7,0,0,0,2.4-4.3c-.1-.9-.7-1.7-.7-2.6a6.2,6.2,0,0,0-.5-2.7Z"/><path class="cls-3" d="M437.8,284.7a2.2,2.2,0,0,1-.1.8,3.1,3.1,0,0,0,1,2.4,3.4,3.4,0,0,0,2,.6c2.4-.1,4.5-2.1,5.7-4.1s2-5.6,4-7.6l1.5-1.4a4.6,4.6,0,0,0,1.1-2.8,3.8,3.8,0,0,0-.5-2.6c-1-1.5-3.1-1.5-4.5-.8s-2.6.2-3.4,1.1a11.4,11.4,0,0,0-1.5,2.4,78.9,78.9,0,0,0-4.8,10.2A12.1,12.1,0,0,0,437.8,284.7Z"/><path class="cls-46" d="M449.7,218.8c-1.6,11.4-.8,25.6-2.4,37a172.4,172.4,0,0,1-4.3,18.9c-.6,1.5,3.6,2.5,5.2,1.9s3.1-4.7,3.4-5.8c1.6-6.5,5.9-11.9,8.4-18.1a44.2,44.2,0,0,0,2.2-22.5c-.3-1.4-.8-2.9-2.1-3.4Z"/><path class="cls-46" d="M445.7,269.6c-.3.7-1.4.6-1.7,1.4a28.4,28.4,0,0,1-1.3,3.8,11.8,11.8,0,0,0-1.1,3.5,2.5,2.5,0,0,0,1,2.3,2.4,2.4,0,0,0,2.8,0,10.3,10.3,0,0,0,2.5-2.6,18.1,18.1,0,0,0,1.8-2.7,22.3,22.3,0,0,0,2.2-6.1,14.5,14.5,0,0,0-.1-3l-1.1.6-4.6,2.5C445.5,269.6,446,268.9,445.7,269.6Z"/><path class="cls-26" d="M469.8,186.9c2.1-4.8,4-11.2,6.8-19.2a21.4,21.4,0,0,0,1.1-6.7,11.9,11.9,0,0,0-1.7-6.3,3.6,3.6,0,0,0-2.3-2.2,3.8,3.8,0,0,0-2.6.9c-4.6,3.5-5.4,8.2-6.4,13.7s-.9,11.7-1.3,16.9c-.1,1-1.3,9.9,1.9,8.5C466.9,191.8,468.6,189.6,469.8,186.9Z"/><path class="cls-26" d="M468.7,182.1c-1.1-.9-2.4-5.7-3.1-4.6s-5.8,9.1-8,12.2a66.8,66.8,0,0,1,8,7c3.4-4,6.4-8.5,6.4-11.3S470.2,183.2,468.7,182.1Z"/><path class="cls-47" d="M501.2,191.9h0a40.3,40.3,0,0,0-.5,5.9C500.8,195.9,500.9,193.9,501.2,191.9Z"/><path class="cls-47" d="M500.7,197.8c-.1,1.2-.1,2.4-.1,3.7h.1A21.6,21.6,0,0,1,500.7,197.8Z"/><path class="cls-48" d="M443.3,234.2a41.5,41.5,0,0,0,5.7,3.5c3.6,1.7,8.3,3.5,12.3,3.2s6-4,9-5.2c9.7-3.9,13.8-4.7,20-9.7s6.6-12.3,5.6-19.7c-.2-1.5-.4-3.2-.7-4.7s-.3-2.6-1.2-3.1-6.4,1.3-7.6,1.5c-11.8,2-16.2-2.4-18.1-1-5.1,3.4-10.3,6.5-15.6,9.6s-8.1,4.9-12.1,7.4c-2.1,1.3-3.4,3.5-4.5,5.7s-1.3,5-.1,6.7a9.1,9.1,0,0,0,2.4,2.4Z"/><path class="cls-47" d="M494.6,154.9a50.5,50.5,0,0,0-8.6-2.7l-1.4-.3a17.5,17.5,0,0,0-10.4.9h-.1v21.5h20.5Z"/><path class="cls-26" d="M503.9,164.3c-.4-5-6-7.7-10.1-10.2-.6,4.1-2.4,7.8-6.5,9.2a5.5,5.5,0,0,1-6.3-1.9c-2.1-2.9-1.9-6.5-1.5-10.1a18.1,18.1,0,0,0-5.3,1.5,9.9,9.9,0,0,0-4,3.3c-.7,1.1-.7,2.8-.9,4a35.3,35.3,0,0,1-1.5,4.6c-.8,1.8-2,3.4-2.6,5.2s-.3,4.6.3,6.3a22.1,22.1,0,0,0,1.2,2.7c.7,1.4,1.4,2.8,2,4.3a14.4,14.4,0,0,1,1.3,4,15.9,15.9,0,0,1-.2,3.8c-.6,3.4-3,7.9,0,10.8a21.3,21.3,0,0,0,6.5,4.2,21.9,21.9,0,0,0,3.4,1,19.4,19.4,0,0,0,14.4-3.5c.4-.3.7-.5.7-.9s0-.9.1-1.3-.2-2.5-.3-3.8a41.8,41.8,0,0,1,.3-7.9c1.3-8,6.6-14.7,8.7-22.5A7.1,7.1,0,0,0,503.9,164.3Z"/><path class="cls-49" d="M502.3,160.4c-6,1.3-5.1,12.5-8.3,17.4s-7.4,3-11.5,3.3a7.7,7.7,0,0,1,4.4,6.8,72,72,0,0,1-1.4,19,17,17,0,0,0,8.6-3.4c.4-.3.7-.5.7-.9s0-.9.1-1.3-.2-2.5-.3-3.8a41.8,41.8,0,0,1,.3-7.9c1.3-8,6.6-14.7,8.7-22.5a7.1,7.1,0,0,0,.3-2.8A6.8,6.8,0,0,0,502.3,160.4Z"/><path class="cls-49" d="M483.3,163.2c-.3.8-3.7,1.4-4.2,1.3s-.6-.6-.8-.9a21.4,21.4,0,0,1-1.6-7.9,3.1,3.1,0,0,1,.8-2.4,2.5,2.5,0,0,1,2.4-.3c.8.3.5.4.2,1.1C479.1,156.7,481.5,161.9,483.3,163.2Z"/><path class="cls-47" d="M492.8,155.5c.3,7.6-12.9,7.7-12.8.6.3-9.9.9-11.1,5.2-12.6a15.3,15.3,0,0,1,3.7-.8c4.6-.1,2.8,2.4,2.6,4.2C491,152.1,492.7,152.8,492.8,155.5Z"/><path class="cls-45" d="M485.2,143.5a15.3,15.3,0,0,1,3.7-.8c4.6-.1,2.8,2.4,2.6,4.2a19.1,19.1,0,0,0,0,3.4,18.7,18.7,0,0,1-11.3,7.2,5.9,5.9,0,0,1-.2-1.4C480.3,146.2,480.9,145,485.2,143.5Z"/><path class="cls-43" d="M487.3,150.6l1.1-1a20,20,0,0,0,3.6-4.1c2.8-4.7,3-11.1-1-15.3a11.8,11.8,0,0,0-11.3-3,16.6,16.6,0,0,0-3.1,1.2,10.4,10.4,0,0,0-2.4,1.7,7.8,7.8,0,0,0-1,1.5,5,5,0,0,0-.8,2c-.8,3.1,1.3,6.2.1,9.3a16.3,16.3,0,0,0-.9,1.9,2.6,2.6,0,0,0,.1,2.1c.3.6.8.8,1,1.5a25,25,0,0,1,.7,2.6,18.3,18.3,0,0,0,1,2.8c1.2,2.1,2.9,2.3,5,1.4A28.2,28.2,0,0,0,487.3,150.6Z"/><path class="cls-50" d="M496.8,136c-.2-6-2-7-4.3-8.9a11.7,11.7,0,0,0-8-2.6,17.3,17.3,0,0,0-8.3,2.6l-.3.2a8.6,8.6,0,0,0-3.1,3.2,7.5,7.5,0,0,0-.8,2.4c-.3,1.5,1.1,2.2,2.4,2.6s4.4-.2,6.2-.4a7.6,7.6,0,0,1,2.6,0,2.4,2.4,0,0,1,1.9,1.7c.2.9-.3,1.7-.5,2.6a4.7,4.7,0,0,0,1.9,4.7,2.3,2.3,0,0,0,2.5.1c.8-.3,1.7-1,2.6-.4s.5,1.6.3,2.4-.9,1.4-.4,1.5S497.1,143.3,496.8,136Z"/><path class="cls-42" d="M485.1,136.8c.2.9-.3,1.7-.5,2.6a4.7,4.7,0,0,0,1.9,4.7,2.3,2.3,0,0,0,2.5.1c.8-.3,1.7-1,2.6-.4s.2,1.5,0,2.3-.6,1.5-.1,1.6,5.6-4.4,5.3-11.7c-.1-3.5-.8-5.3-1.8-6.6a29,29,0,0,0-5.1,2.8A30.6,30.6,0,0,0,485.1,136.8Z"/><path class="cls-43" d="M491.1,141.5c2-.1,2.6,2.4,1.1,4.4a7.5,7.5,0,0,1-1.6,1.5c-3.7,3.2-4.6-.2-3.5-1.3C489.9,143.7,488.5,141.7,491.1,141.5Z"/><g class="cls-4"><polygon class="cls-50" points="429.1 216 429.1 219.1 464.7 239.8 464.7 236.7 429.1 216"/><polygon class="cls-51" points="464.7 236.7 464.7 239.8 486.8 227.1 486.7 224 464.7 236.7"/><polygon class="cls-50" points="429.1 216 464.7 236.7 486.7 224 451.1 203.3 429.1 216"/><polygon class="cls-52" points="456.8 214.1 466.5 219.7 471.8 216.6 462.1 211 456.8 214.1"/><polygon class="cls-52" points="477 227.4 444.5 208.5 432.9 215.2 465.4 234.1 477 227.4"/></g><path class="cls-26" d="M505.3,195.5c1-5.2,1.6-12,2.6-20.6a26.6,26.6,0,0,0-.3-6.9,12.7,12.7,0,0,0-3.2-5.9,3.7,3.7,0,0,0-2.7-1.7,3.5,3.5,0,0,0-2.4,1.5c-3.8,4.4-5.1,10.7-4.9,16.4s-.5,10.6-.3,15.9a16.2,16.2,0,0,0,.2,3.1c1.2,4.7,4.9,6.9,7.8,4.8C503.5,201,504.7,198.4,505.3,195.5Z"/><path class="cls-46" d="M454.8,208a15.1,15.1,0,0,1-1.8,2.6c-.5.5-.1-1.4-.8-1.4s-2,.6-2.8,0a8.5,8.5,0,0,1-1.6-1.7,3.1,3.1,0,0,1-.7-2.2,1.6,1.6,0,0,1,.3-.9l.4-.4,2.6-2.4.6-.4a1.9,1.9,0,0,1,1-.3,4.6,4.6,0,0,1,4.2,3,2.6,2.6,0,0,1-.4,1.5A20,20,0,0,1,454.8,208Z"/><path class="cls-46" d="M455.9,205.7c.1,1.3.2,2.5.2,3.8a3.8,3.8,0,0,1-.1,1.5,4.5,4.5,0,0,1-.3,1.1,10.4,10.4,0,0,0-.4,1,5.9,5.9,0,0,1-2.3,2.1,2.2,2.2,0,0,1-1.1.5.6.6,0,0,1-.7-.2c-.1-.2-.1-.3,0-.4a2,2,0,0,1,.3-1.1c.3-.3.8-.5,1.1-.9a2.2,2.2,0,0,0,.2-2.2,10.7,10.7,0,0,0-1-2.2,2.8,2.8,0,0,1-.1-2.2,1.8,1.8,0,0,1,.5-.7,4.4,4.4,0,0,1,1.5-1.2,3,3,0,0,1,1.6-.2C455.9,204.6,455.9,205.1,455.9,205.7Z"/><path class="cls-46" d="M450,207.3c.7-.4,2.2,1.2,2.3,1.6s-.7.2-2,2.2a6.9,6.9,0,0,0-1,1.9c-.1.5-.1,1.1-.6,1.3a.8.8,0,0,1-1-.4c-.1.7-1.2.2-1.4-.6s-1.5-.1-1.6-2.5l-.4.2c-1.6-1.4,1.8-5.3,3.2-6.8S450.7,205.8,450,207.3Z"/><path class="cls-26" d="M465.6,196.7a66.8,66.8,0,0,0-8-7,75.4,75.4,0,0,0-6.6,10.9c-1.3,3,4.4,5.7,5.7,4.2S462.6,200.4,465.6,196.7Z"/><path class="cls-43" d="M471.9,219a20.4,20.4,0,0,0-2.8,2.1c-.5.5,1.6.1,1.6.8s-.7,2.3.1,3.1a10.7,10.7,0,0,0,1.9,1.8,4.7,4.7,0,0,0,2.5.7l1-.4.5-.5,2.4-3a1.8,1.8,0,0,0,.5-.7,2,2,0,0,0,.3-1.1,4.7,4.7,0,0,0-1.7-3.5,4.6,4.6,0,0,0-1.8-1,3.4,3.4,0,0,0-1.7.5A16.9,16.9,0,0,0,471.9,219Z"/><path class="cls-43" d="M474.4,217.6h-5.9l-1.2.5-1,.4a5.8,5.8,0,0,0-2.3,2.6,3.5,3.5,0,0,0-.6,1.4c0,.3,0,.6.3.7h.5l1.1-.4c.4-.4.6-.9,1-1.2a2.5,2.5,0,0,1,2.5-.4,24.4,24.4,0,0,1,2.4,1,3.1,3.1,0,0,0,2.5.1l.8-.6a4.1,4.1,0,0,0,1.2-1.7,2.8,2.8,0,0,0,.2-1.8C475.6,217.7,475.1,217.7,474.4,217.6Z"/><path class="cls-26" d="M478.9,221.8c1.8.4,3.6-.8,5-1.8,3.3-2.5,19.5-15.9,20.6-22.2.3-1.6-1.5-2.4-2.9-3.7s-6.6.2-7.6,1.4-13.5,13.9-17.6,20a4.2,4.2,0,0,0-1,2.6C475.4,219.6,477.5,221.5,478.9,221.8Z"/><path class="cls-43" d="M472.9,224.3c.4-.8-1.5-2.4-1.9-2.5s-.2.8-2.4,2.4a7.8,7.8,0,0,1-2,1.1c-.6.1-1.3.2-1.5.7a1,1,0,0,0,.5,1.1c-.8.2-.1,1.3.7,1.6s.2,1.6,2.9,1.7c-.1.1-.1.3-.2.4,1.6,1.8,5.8-2.2,7.4-3.9S474.6,223.4,472.9,224.3Z"/><g class="cls-4"><path class="cls-3" d="M423.9,194.8l-2.6,1.5c.1-.1.4-.1.7.1l2.6-1.6A.9.9,0,0,0,423.9,194.8Z"/><g class="cls-53"><g class="cls-4"><path class="cls-3" d="M422,196.4l2.6-1.6h-.3l-2.6,1.6Z"/><path class="cls-3" d="M421.7,196.3l2.6-1.6h-.4l-2.6,1.5c.1-.1.2-.1.4,0Z"/><path class="cls-3" d="M421.3,196.3l2.6-1.5h0l-2.6,1.5Z"/></g></g><polygon class="cls-3" points="455.6 215.9 458.2 214.4 424.6 194.8 422 196.4 455.6 215.9"/><path class="cls-3" d="M456.6,217.7l2.6-1.6a2.1,2.1,0,0,0-1-1.7l-2.6,1.5A2.4,2.4,0,0,1,456.6,217.7Z"/><g class="cls-54"><path class="cls-55" d="M456.1,216.3l2.6-1.5a1,1,0,0,0-.5-.4l-2.6,1.5.5.4Z"/><path class="cls-55" d="M456.4,216.9l2.7-1.6-.4-.5-2.6,1.5.3.6Z"/></g><path class="cls-50" d="M422,196.4c-.6-.3-1-.1-1,.6l8.1,19,35.6,20.7-8-19.1a2.6,2.6,0,0,0-1.1-1.7Z"/><polygon class="cls-51" points="464.7 236.7 467.3 235.2 459.1 215.3 456.4 216.9 464.7 236.7"/></g><path class="cls-49" d="M483.3,163.2a17.2,17.2,0,0,0,3.7,3.2c.4.3.8.6,1.2.4,2.3-1.3,6.5-6.6,7-9.5a3.7,3.7,0,0,0-1.1-3.1l-1.7-.8a14.2,14.2,0,0,1-.8,3.7C490.2,160.3,486.7,162,483.3,163.2Z"/></g><rect class="cls-10" x="212.8" y="332.4" width="84.6" height="9.65"/><g class="cls-11"><rect class="cls-12" x="215" y="333.8" width="2.1" height="6.91"/><rect class="cls-12" x="218.7" y="333.8" width="2.1" height="6.91"/><rect class="cls-12" x="222.5" y="333.8" width="2.1" height="6.91"/><rect class="cls-12" x="226.2" y="333.8" width="2.1" height="6.91"/><rect class="cls-12" x="229.9" y="333.8" width="2.1" height="6.91"/><rect class="cls-12" x="233.6" y="333.8" width="2.1" height="6.91"/><rect class="cls-12" x="237.3" y="333.8" width="2.1" height="6.91"/><rect class="cls-12" x="241.1" y="333.8" width="2.1" height="6.91"/><rect class="cls-12" x="244.8" y="333.8" width="2.1" height="6.91"/><rect class="cls-12" x="248.5" y="333.8" width="2.1" height="6.91"/><rect class="cls-12" x="252.2" y="333.8" width="2.1" height="6.91"/><rect class="cls-12" x="255.9" y="333.8" width="2.1" height="6.91"/><rect class="cls-12" x="259.7" y="333.8" width="2.1" height="6.91"/><rect class="cls-12" x="263.4" y="333.8" width="2.1" height="6.91"/><rect class="cls-12" x="267.1" y="333.8" width="2.1" height="6.91"/><rect class="cls-12" x="270.8" y="333.8" width="2.1" height="6.91"/><rect class="cls-12" x="274.5" y="333.8" width="2.1" height="6.91"/><rect class="cls-12" x="278.3" y="333.8" width="2.1" height="6.91"/><rect class="cls-12" x="282" y="333.8" width="2.1" height="6.91"/><rect class="cls-12" x="285.7" y="333.8" width="2.1" height="6.91"/><rect class="cls-12" x="289.4" y="333.8" width="2.1" height="6.91"/><rect class="cls-12" x="293.1" y="333.8" width="2.1" height="6.91"/></g><rect class="cls-13" x="297.4" y="332.4" width="13.2" height="9.65" transform="translate(608 674.5) rotate(180)"/><rect class="cls-10" x="208.4" y="161.9" width="89" height="170.55"/><rect class="cls-14" x="214.3" y="160.4" width="94.9" height="1.46"/><rect class="cls-15" x="204.9" y="241.3" width="0.7" height="7.19"/><rect class="cls-15" x="204.9" y="250.9" width="0.7" height="18.69"/><rect class="cls-13" x="297.4" y="161.9" width="17.6" height="170.55" transform="translate(612.4 494.3) rotate(180)"/><rect class="cls-16" x="210.5" y="207" width="84.9" height="16.93" rx="2.4"/><path class="cls-17" d="M288.2,213.2l-3.4-7.1v18.7h10.6v-9.4h-3.6A4,4,0,0,1,288.2,213.2Z"/><rect class="cls-18" x="210.5" y="163.9" width="84.9" height="18.69"/><rect class="cls-18" x="210.5" y="311.6" width="84.9" height="18.69"/><rect class="cls-18" x="210.5" y="290.5" width="84.9" height="18.69"/><rect class="cls-18" x="210.5" y="269.4" width="84.9" height="18.69"/><rect class="cls-18" x="210.5" y="248.3" width="84.9" height="18.69"/><rect class="cls-18" x="210.5" y="227.2" width="84.9" height="18.69"/><rect class="cls-18" x="199.9" y="206.1" width="84.9" height="18.69"/><rect class="cls-18" x="210.5" y="185" width="84.9" height="18.69"/><rect class="cls-13" x="255.1" y="166.6" width="37.7" height="13.35" rx="2.7"/><rect class="cls-19" x="279.7" y="166.9" width="3.4" height="12.77" rx="1.2" transform="translate(454.7 -108.2) rotate(90)"/><rect class="cls-13" x="255.1" y="187.7" width="37.7" height="13.35" rx="2.7"/><rect class="cls-19" x="279.7" y="188" width="3.4" height="12.77" rx="1.2" transform="translate(475.8 -87.1) rotate(90)"/><rect class="cls-13" x="244.5" y="208.8" width="37.7" height="13.35" rx="2.7"/><rect class="cls-19" x="269.2" y="209.1" width="3.4" height="12.77" rx="1.2" transform="translate(486.3 -55.4) rotate(90)"/><rect class="cls-13" x="255.1" y="229.9" width="37.7" height="13.35" rx="2.7"/><rect class="cls-19" x="279.7" y="230.2" width="3.4" height="12.77" rx="1.2" transform="translate(518 -44.9) rotate(90)"/><rect class="cls-13" x="255.1" y="251" width="37.7" height="13.35" rx="2.7"/><rect class="cls-19" x="279.7" y="251.2" width="3.4" height="12.77" rx="1.2" transform="translate(539.1 -23.8) rotate(90)"/><rect class="cls-13" x="255.1" y="272.1" width="37.7" height="13.35" rx="2.7"/><rect class="cls-19" x="279.7" y="272.3" width="3.4" height="12.77" rx="1.2" transform="translate(560.2 -2.7) rotate(90)"/><rect class="cls-13" x="255.1" y="293.1" width="37.7" height="13.35" rx="2.7"/><rect class="cls-19" x="279.7" y="293.4" width="3.4" height="12.77" rx="1.2" transform="translate(581.3 18.4) rotate(90)"/><rect class="cls-13" x="255.1" y="314.2" width="37.7" height="13.35" rx="2.7"/><rect class="cls-19" x="279.7" y="314.5" width="3.4" height="12.77" rx="1.2" transform="translate(602.4 39.5) rotate(90)"/><circle class="cls-15" cx="248.5" cy="173.2" r="2.2"/><circle class="cls-15" cx="242.4" cy="173.2" r="2.2"/><circle class="cls-20" cx="236.2" cy="173.2" r="2.2"/><path class="cls-15" d="M232.2,173.2a2.2,2.2,0,0,1-2.2,2.2,2.1,2.1,0,0,1-2.1-2.2,2.1,2.1,0,0,1,2.1-2.1A2.2,2.2,0,0,1,232.2,173.2Z"/><circle class="cls-15" cx="248.5" cy="194.3" r="2.2"/><circle class="cls-15" cx="242.4" cy="194.3" r="2.2"/><circle class="cls-15" cx="236.2" cy="194.3" r="2.2"/><path class="cls-20" d="M232.2,194.3a2.2,2.2,0,0,1-2.2,2.2,2.1,2.1,0,0,1-2.1-2.2,2.1,2.1,0,0,1,2.1-2.1A2.2,2.2,0,0,1,232.2,194.3Z"/><circle class="cls-20" cx="238" cy="215.4" r="2.2"/><circle class="cls-15" cx="231.8" cy="215.4" r="2.2"/><circle class="cls-20" cx="225.6" cy="215.4" r="2.2"/><circle class="cls-15" cx="219.5" cy="215.4" r="2.2"/><circle class="cls-20" cx="248.5" cy="236.5" r="2.2"/><circle class="cls-20" cx="242.4" cy="236.5" r="2.2"/><circle class="cls-15" cx="236.2" cy="236.5" r="2.2"/><path class="cls-15" d="M232.2,236.5a2.2,2.2,0,0,1-2.2,2.2,2.1,2.1,0,0,1-2.1-2.2,2.1,2.1,0,0,1,2.1-2.1A2.1,2.1,0,0,1,232.2,236.5Z"/><circle class="cls-15" cx="248.5" cy="257.6" r="2.2"/><circle class="cls-20" cx="242.4" cy="257.6" r="2.2"/><circle class="cls-15" cx="236.2" cy="257.6" r="2.2"/><path class="cls-15" d="M232.2,257.6a2.2,2.2,0,0,1-2.2,2.2,2.1,2.1,0,0,1-2.1-2.2,2.1,2.1,0,0,1,2.1-2.1A2.1,2.1,0,0,1,232.2,257.6Z"/><circle class="cls-15" cx="248.5" cy="278.7" r="2.2"/><circle class="cls-15" cx="242.4" cy="278.7" r="2.2"/><circle class="cls-20" cx="236.2" cy="278.7" r="2.2"/><path class="cls-20" d="M232.2,278.7a2.2,2.2,0,0,1-2.2,2.2,2.1,2.1,0,0,1-2.1-2.2,2.1,2.1,0,0,1,2.1-2.1A2.1,2.1,0,0,1,232.2,278.7Z"/><path class="cls-20" d="M250.7,299.8a2.2,2.2,0,0,1-2.2,2.2,2.1,2.1,0,0,1-2.1-2.2,2.1,2.1,0,0,1,2.1-2.1A2.1,2.1,0,0,1,250.7,299.8Z"/><path class="cls-15" d="M244.5,299.8a2.1,2.1,0,0,1-2.1,2.2,2.2,2.2,0,0,1-2.2-2.2,2.1,2.1,0,0,1,2.2-2.1A2.1,2.1,0,0,1,244.5,299.8Z"/><path class="cls-15" d="M238.4,299.8a2.2,2.2,0,1,1-4.4,0,2.2,2.2,0,0,1,4.4,0Z"/><path class="cls-15" d="M232.2,299.8A2.2,2.2,0,0,1,230,302a2.1,2.1,0,0,1-2.1-2.2,2.1,2.1,0,0,1,2.1-2.1A2.1,2.1,0,0,1,232.2,299.8Z"/><circle class="cls-15" cx="248.5" cy="320.9" r="2.2"/><circle class="cls-15" cx="242.4" cy="320.9" r="2.2"/><circle class="cls-20" cx="236.2" cy="320.9" r="2.2"/><path class="cls-15" d="M232.2,320.9a2.2,2.2,0,0,1-2.2,2.2,2.1,2.1,0,0,1-2.1-2.2,2.1,2.1,0,0,1,2.1-2.1A2.1,2.1,0,0,1,232.2,320.9Z"/><path class="cls-19" d="M223.6,173.2a4.7,4.7,0,1,1-4.7-4.6A4.7,4.7,0,0,1,223.6,173.2Z"/><path class="cls-19" d="M223.6,194.3a4.7,4.7,0,1,1-4.7-4.6A4.7,4.7,0,0,1,223.6,194.3Z"/><path class="cls-19" d="M213,215.4a4.7,4.7,0,1,1-4.7-4.6A4.7,4.7,0,0,1,213,215.4Z"/><path class="cls-19" d="M223.6,236.5a4.7,4.7,0,1,1-4.7-4.6A4.7,4.7,0,0,1,223.6,236.5Z"/><path class="cls-19" d="M223.6,257.6a4.7,4.7,0,1,1-9.4,0,4.7,4.7,0,0,1,9.4,0Z"/><path class="cls-19" d="M223.6,278.7a4.7,4.7,0,1,1-9.4,0,4.7,4.7,0,0,1,9.4,0Z"/><path class="cls-19" d="M223.6,299.8a4.7,4.7,0,1,1-4.7-4.7A4.7,4.7,0,0,1,223.6,299.8Z"/><path class="cls-19" d="M223.6,320.9a4.7,4.7,0,1,1-4.7-4.7A4.7,4.7,0,0,1,223.6,320.9Z"/><path class="cls-15" d="M287.8,145.5a11.6,11.6,0,0,0-5.9-8.3h0v-.3a12.1,12.1,0,0,0-12.1-12.1h-4.6v.9a12.2,12.2,0,0,0-6.7,7h-1.2a7.4,7.4,0,0,0-6.7,4.5,8.8,8.8,0,0,0-5,.4,8.6,8.6,0,0,0,3.1,16.7h32.7a6.6,6.6,0,0,0,6.6-6.4h0A7.8,7.8,0,0,0,287.8,145.5Z"/><path class="cls-10" d="M283.2,145.5a11.9,11.9,0,0,0-5.9-8.3h0v-.3a12.1,12.1,0,0,0-23.4-4.2h-1.2a7.4,7.4,0,0,0-6.7,4.5,8.8,8.8,0,0,0-5,.4,8.9,8.9,0,0,0-5.6,7.8,8.7,8.7,0,0,0,8.7,8.9h32.7a6.6,6.6,0,0,0,6.6-6.4h0A15,15,0,0,0,283.2,145.5Z"/></g></g></svg>