<svg xmlns="http://www.w3.org/2000/svg" xmlns:xlink="http://www.w3.org/1999/xlink" viewBox="0 0 500 500"><defs><style>.cls-1{isolation:isolate;}.cls-2{opacity:0.36;fill:url(#radial-gradient);}.cls-3{fill:url(#radial-gradient-2);}.cls-35,.cls-4{fill:#1b1b59;}.cls-5{fill:url(#radial-gradient-3);}.cls-6{fill:#92a7c4;}.cls-12,.cls-13,.cls-18,.cls-31,.cls-34,.cls-6{mix-blend-mode:multiply;}.cls-7{fill:url(#radial-gradient-4);}.cls-8{fill:url(#radial-gradient-5);}.cls-9{fill:#dfceed;}.cls-10{fill:#ceeaef;}.cls-11{fill:url(#radial-gradient-6);}.cls-12{fill:url(#radial-gradient-7);}.cls-13{fill:url(#radial-gradient-8);}.cls-14{fill:url(#radial-gradient-9);}.cls-15{fill:#0d2042;}.cls-16{fill:#32327c;}.cls-17{fill:url(#radial-gradient-10);}.cls-19{fill:url(#radial-gradient-11);}.cls-20{fill:url(#radial-gradient-12);}.cls-21{fill:url(#radial-gradient-13);}.cls-22{fill:url(#radial-gradient-14);}.cls-23{fill:url(#radial-gradient-15);}.cls-24{fill:url(#radial-gradient-16);}.cls-25{fill:url(#radial-gradient-17);}.cls-26{fill:url(#radial-gradient-18);}.cls-27,.cls-28{fill:#fff;}.cls-27{stroke:#434382;stroke-width:1.5px;}.cls-27,.cls-37{stroke-miterlimit:10;}.cls-29{fill:#0087cb;}.cls-30{fill:url(#radial-gradient-19);}.cls-31{fill:url(#radial-gradient-20);}.cls-32,.cls-37{fill:none;}.cls-33{fill:url(#radial-gradient-21);}.cls-34{fill:url(#radial-gradient-22);}.cls-35{font-size:24.17px;font-family:Inter-ExtraBold, Inter;font-weight:800;}.cls-36{fill:#8666dd;}.cls-37{stroke:#8666dd;stroke-linecap:round;stroke-width:3px;}</style><radialGradient id="radial-gradient" cx="258.17" cy="196.31" r="132.36" gradientTransform="translate(0 -112.7) scale(1 2.89)" gradientUnits="userSpaceOnUse"><stop offset="0" stop-color="#fff"/><stop offset="1" stop-color="#4e4e91"/></radialGradient><radialGradient id="radial-gradient-2" cx="-290.34" cy="278.45" r="45.74" gradientTransform="matrix(-1, 0, 0, 1, 56.54, 0)" xlink:href="#radial-gradient"/><radialGradient id="radial-gradient-3" cx="250.02" cy="78.46" r="220.85" gradientTransform="translate(0 -46.9) scale(1 0.96)" xlink:href="#radial-gradient"/><radialGradient id="radial-gradient-4" cx="253.17" cy="251.31" r="30.19" gradientTransform="matrix(1, 0, 0, 1, 0, 0)" xlink:href="#radial-gradient"/><radialGradient id="radial-gradient-5" cx="246.77" cy="187.78" r="95.19" gradientUnits="userSpaceOnUse"><stop offset="0" stop-color="#182442"/><stop offset="1" stop-color="#33215d"/></radialGradient><radialGradient id="radial-gradient-6" cx="160.18" cy="277.66" r="45.74" gradientTransform="matrix(1, 0, 0, 1, 0, 0)" xlink:href="#radial-gradient"/><radialGradient id="radial-gradient-7" cx="195.84" cy="279.29" r="31.48" gradientTransform="matrix(1, 0, 0, 1, 0, 0)" xlink:href="#radial-gradient"/><radialGradient id="radial-gradient-8" cx="210.31" cy="244.21" r="0.05" gradientTransform="matrix(1, 0, 0, 1, 0, 0)" xlink:href="#radial-gradient"/><radialGradient id="radial-gradient-9" cx="255.9" cy="271.2" r="77.44" gradientTransform="matrix(1, 0, 0, 1, 0, 0)" xlink:href="#radial-gradient"/><radialGradient id="radial-gradient-10" cx="254.65" cy="273.17" r="27.25" gradientTransform="translate(388 -75.7) rotate(63.9)" xlink:href="#radial-gradient"/><radialGradient id="radial-gradient-11" cx="221.07" cy="321.14" r="22.14" gradientTransform="matrix(1, 0, 0, 1, 0, 0)" xlink:href="#radial-gradient"/><radialGradient id="radial-gradient-12" cx="288.57" cy="319.81" r="20.96" gradientTransform="matrix(1, 0, 0, 1, 0, 0)" xlink:href="#radial-gradient"/><radialGradient id="radial-gradient-13" cx="77.68" cy="493.94" r="104.5" gradientTransform="matrix(1.06, 0, 0.17, 0.84, 20.79, -49.57)" xlink:href="#radial-gradient"/><radialGradient id="radial-gradient-14" cx="205.72" cy="393.59" r="48.6" gradientTransform="matrix(1, 0, 0, 1, 0, 0)" xlink:href="#radial-gradient"/><radialGradient id="radial-gradient-15" cx="153.13" cy="439.54" r="8.77" gradientTransform="matrix(1, 0, 0, 1, 0, 0)" xlink:href="#radial-gradient"/><radialGradient id="radial-gradient-16" cx="326.13" cy="492.57" r="104.5" gradientTransform="matrix(-1.06, 0, -0.17, 0.84, 751.11, -49.57)" xlink:href="#radial-gradient"/><radialGradient id="radial-gradient-17" cx="302.7" cy="393.59" r="48.6" gradientTransform="matrix(1, 0, 0, 1, 0, 0)" xlink:href="#radial-gradient"/><radialGradient id="radial-gradient-18" cx="355.28" cy="439.54" r="8.77" gradientTransform="matrix(1, 0, 0, 1, 0, 0)" xlink:href="#radial-gradient"/><radialGradient id="radial-gradient-19" cx="99.06" cy="298.69" r="81.49" gradientTransform="matrix(1, 0, 0, 1, 0, 0)" xlink:href="#radial-gradient"/><radialGradient id="radial-gradient-20" cx="146.49" cy="344.22" r="33.09" gradientTransform="matrix(1, 0, 0, 1, 0, 0)" xlink:href="#radial-gradient"/><radialGradient id="radial-gradient-21" cx="-351.46" cy="299.49" r="81.49" gradientTransform="matrix(-1, 0, 0, 1, 56.54, 0)" xlink:href="#radial-gradient"/><radialGradient id="radial-gradient-22" cx="-304.03" cy="345.01" r="33.09" gradientTransform="matrix(-1, 0, 0, 1, 56.54, 0)" xlink:href="#radial-gradient"/></defs><g class="cls-1"><g id="Layer_1" data-name="Layer 1"><ellipse class="cls-2" cx="250.2" cy="458" rx="158.8" ry="9.6"/><path class="cls-3" d="M294.6,284.1c4,7.5,37.5,21.8,44,24.2h0c10.4-2.6,23.2-4.7,35.3-4.1a7.6,7.6,0,0,1,3.5-5.7c4.8-2.8,12.6,1.7,17.5,10.1a4.1,4.1,0,0,0,.5.9,33.5,33.5,0,0,1,5.9,3.9c-13.3-26.1-89.6-69.8-100.1-69.9a8,8,0,0,0-4.4,1.5h0C290.9,262.4,291.8,279,294.6,284.1Z"/><path class="cls-4" d="M317,317.7c19.4-4.6,40.5-8.6,57.5-6.9a26.7,26.7,0,0,0,3,7.6c4.9,8.4,12.7,13,17.5,10.2,2.1-1.2,3.3-3.6,3.6-6.5l2.2,2.2h0a19.3,19.3,0,0,1,1.7,2.1v-.2c.1-.1.1-.3.2-.5h0c.1-.1.1-.3.2-.4V325a.8.8,0,0,0,.1-.4c0-.1.1-.1.1-.2h0c0-.1.1-.2.1-.4v-.2h.1a1.7,1.7,0,0,1,.1-.7v-.2h0v-.2c0-.2.1-.3.1-.5h0v-.8h0v-.3a10.9,10.9,0,0,0-.1-1.8,15.6,15.6,0,0,0-.9-3.4l-.3-.8c-.2-.4-.5-.9-.7-1.4h0a38.5,38.5,0,0,0-6-3.9l-.5-.9c-4.8-8.4-12.7-12.9-17.5-10.1-1.9,1.1-3,3.1-3.4,5.7-12.2-.6-25.1,1.8-35.5,4.4C326.4,311.4,332,314.4,317,317.7Z"/><path class="cls-5" d="M187.1,241.7c-8.8-3.5-56.6-98.1-44.8-138.6s58-69.1,109.3-70.6S356.5,71,363.5,102.8s-34.6,133-42,138.9S232.1,259.8,187.1,241.7Z"/><path class="cls-6" d="M278.4,224.4c-43.5-4.8-94.4,4.8-91.3,17.3,45,18.1,127,5.9,134.4,0C324.2,236.2,321.9,229.2,278.4,224.4Z"/><path class="cls-7" d="M269.3,229.3c-26.9-3-58.3,3-56.4,10.7,27.8,11.2,78.5,3.6,83,0C297.6,236.6,296.2,232.3,269.3,229.3Z"/><path class="cls-8" d="M189,212.1c-4.7-2.8-37.7-71.9-35-98.4s46.3-65.6,51.3-64.1,18.3,11.2,20.6,12,49.4,1.4,52.1-.8,21-11.9,24.1-11.9,53.6,38.7,49.3,70S320,212.5,318,213.2s-32.2-6.3-64.9-6.3C222.3,206.9,192.5,214.2,189,212.1Z"/><path class="cls-6" d="M234.9,96.2c-49.5,11.5-65.1,42.6-66,76,8.4,20.8,17.8,38.5,20.1,39.9s33.3-5.2,64.1-5.2c32.7,0,63.9,6.7,64.9,6.3s12.5-25.4,21.7-51.6C330.2,117.8,299.1,81.3,234.9,96.2Z"/><ellipse class="cls-9" cx="203.5" cy="131.4" rx="25.1" ry="31.5" transform="translate(-36.5 98.5) rotate(-25.1)"/><ellipse class="cls-9" cx="203.5" cy="131.4" rx="22.1" ry="27.8" transform="translate(-36.5 98.5) rotate(-25.1)"/><ellipse class="cls-9" cx="303.7" cy="131.4" rx="31.5" ry="25.1" transform="translate(56 350.9) rotate(-64.9)"/><ellipse class="cls-9" cx="303.7" cy="131.4" rx="27.8" ry="22.1" transform="translate(56 350.9) rotate(-64.9)"/><path class="cls-10" d="M280,165.9a127.9,127.9,0,0,1-43.9,7.1c-2.2,0-2.6,3.3-.3,3.3a133.8,133.8,0,0,0,45.7-7.3c2.1-.7.6-3.8-1.5-3.1Z"/><path class="cls-11" d="M212.5,283.3c-4,7.5-37.6,21.8-44,24.2l-.3,2.4c-10.3-2.6-21.7-6.6-33.8-6a10.3,10.3,0,0,0-4.7-6.2c-4.8-2.8-11.7.9-16.5,9.3l-.6.8a53.3,53.3,0,0,0-6.9,4.8c13.4-26.1,89.6-69.7,100.2-69.9a8.3,8.3,0,0,1,4.4,1.5h0C216.2,261.6,215.2,278.2,212.5,283.3Z"/><path class="cls-4" d="M190.4,318.5c-19.2-5.8-34.6-8.3-47.1-8.3a75.9,75.9,0,0,0-9.8.6,29.1,29.1,0,0,1-3.5,7.4c-5.4,8-13.3,12.1-18.2,9a6.8,6.8,0,0,1-3.4-6,16.2,16.2,0,0,0-1.8,1.9l-.2.2c-.6.6-1.3,1.7-1.9,2.4v-1.2c0-.2-.1-.3-.1-.5s0-.1-.1-.2v-.4a.4.4,0,0,1-.1-.3c0-.1-.1-.3-.1-.4v-.2h0c0-.1-.1-.2-.1-.4h0v-.2h0a1.7,1.7,0,0,1-.1-.7v-.2h0V320h0v-.9h0v-.3a8.8,8.8,0,0,1,.2-1.7,11.6,11.6,0,0,1,1.2-3.4l.3-.7.8-1.5h0a37.9,37.9,0,0,1,6.2-3.5l.6-.8c5.3-10.1,13.4-12.1,18.1-9,1.8,1.2,5,3,5.2,5.6,12.2.1,22.7,3.4,32.8,6.7A152.9,152.9,0,0,1,190.4,318.5Z"/><path class="cls-12" d="M190,314.4h-.1a158.5,158.5,0,0,0-21.4-6.8h0c6.4-2.4,40-16.7,44-24.2,2.7-5.1,3.7-21.7-2.2-39.1h.1l.4.3c2.9,2.2,5.3,6.3,7.1,10.7l.3.6a1.4,1.4,0,0,0,.2.6,6.1,6.1,0,0,0,.5,1.2h0l.9,2.8c.2.4.3.9.5,1.3s.3,1.2.5,1.7.1.4.1.6.2.3.2.5.8,2.8,1,4l.3.9h0a.7.7,0,0,0,.1.5c.3,1.7.6,2.9.7,3.4C224.7,282.2,189.8,313,190,314.4Z"/><path class="cls-13" d="M210.4,244.3h0Z"/><path class="cls-14" d="M218.2,239.3c-.6.5-18.6,63.2-12.9,73.8s30.4,31,40.1,32.2,19.8.9,23.2-.9,32.8-27.7,34-38.9-11.1-63.5-13.3-67.4S235.4,224.8,218.2,239.3Z"/><path class="cls-15" d="M208.5,276.5c-.2.7-.3,1.4-.5,2.1a226.8,226.8,0,0,1,28.3-5.1,213.2,213.2,0,0,1,38.3-1,192.3,192.3,0,0,1,23.9,2.8c-.1-.7-.3-1.4-.4-2-6.1-1.1-12.3-1.9-18.4-2.4a222.7,222.7,0,0,0-71.2,5.6Z"/><circle class="cls-16" cx="254.7" cy="273.2" r="29.2" transform="translate(-34 510.1) rotate(-86.4)"/><circle class="cls-17" cx="254.7" cy="273.2" r="27.2" transform="translate(-102.7 381.8) rotate(-63.9)"/><circle class="cls-16" cx="253" cy="274.3" r="21.6" transform="translate(-79.9 105.6) rotate(-20.4)"/><g class="cls-18"><path class="cls-19" d="M204.5,310.4a6.6,6.6,0,0,0,.8,2.7c4.3,7.9,19.5,21.6,30.8,28.3-8.5-11.9-21.1-27.5-30.4-30.7A2.7,2.7,0,0,0,204.5,310.4Z"/><path class="cls-20" d="M301.5,309.1c-7.9,3.2-19.1,18.4-27.2,30.8C282.6,332.6,297.4,318.4,301.5,309.1Z"/></g><path class="cls-21" d="M200.6,315.4c-6.6-.3-57.9,126.9-48.5,134.5s38.1,4.7,41.8,2.7S221.2,413.8,230,395s7.7-49.9,5.1-54.5S208.9,315.7,200.6,315.4Z"/><g class="cls-18"><path class="cls-22" d="M235.1,340.5c-.8-1.4-3.8-4.5-7.8-8.1,3.2,7.2,5.2,13,4.8,16.4-1.3,13.2-37.5,84.2-57.7,106,9.1,0,17.6-1.2,19.5-2.2,3.7-1.9,27.3-38.8,36.1-57.6S237.7,345.1,235.1,340.5Z"/><path class="cls-23" d="M154.3,427.3c-3.2,12.1-4.4,20.8-2.2,22.6a14,14,0,0,0,3.2,1.8C154.1,445.6,153.9,437.1,154.3,427.3Z"/></g><path class="cls-4" d="M235.4,376.4a3.3,3.3,0,0,0-1.8-1.7c-2.7-.9-6.4,2.5-9.2,8a95.7,95.7,0,0,0-16.2-9.8,107,107,0,0,0-25.8-8.5,56.2,56.2,0,0,0-5.7-.9l-.7,1.8,2.6.4a103.2,103.2,0,0,1,25.6,7.5,98.5,98.5,0,0,1,19.3,11.3l-1.2,3.1c-2.8,8.3-2.3,15.9,1.2,17.1a2.9,2.9,0,0,0,1.6,0c1.9-3.5,3.6-6.8,4.9-9.7A68.1,68.1,0,0,0,235.4,376.4Z"/><path class="cls-24" d="M307.8,315.4c6.6-.3,57.9,126.9,48.5,134.5s-38,4.7-41.8,2.7-27.3-38.8-36.1-57.6-7.7-49.9-5.1-54.5S299.5,315.7,307.8,315.4Z"/><g class="cls-18"><path class="cls-25" d="M273.3,340.5c.8-1.4,3.8-4.5,7.8-8.1-3.2,7.2-5.2,13-4.8,16.4,1.4,13.2,37.6,84.2,57.7,106-9.1,0-17.6-1.2-19.5-2.2-3.7-1.9-27.3-38.8-36.1-57.6S270.7,345.1,273.3,340.5Z"/><path class="cls-26" d="M354.1,427.3c3.2,12.1,4.5,20.8,2.2,22.6a14,14,0,0,1-3.2,1.8C354.4,445.6,354.5,437.1,354.1,427.3Z"/></g><path class="cls-4" d="M273,376.4a3.7,3.7,0,0,1,1.8-1.7c2.7-.9,6.4,2.5,9.2,8a95.7,95.7,0,0,1,16.2-9.8,107,107,0,0,1,25.8-8.5,56.2,56.2,0,0,1,5.7-.9l.7,1.8-2.6.4a104.5,104.5,0,0,0-25.6,7.5,98.5,98.5,0,0,0-19.3,11.3l1.2,3.1c2.8,8.3,2.3,15.9-1.1,17.1a2.9,2.9,0,0,1-1.6,0c-2-3.5-3.7-6.8-5-9.7A71.8,71.8,0,0,1,273,376.4Z"/><rect class="cls-27" x="164.8" y="293.2" width="172.7" height="93.44" rx="10.5"/><path class="cls-28" d="M250.1,270.3h10.1s4.9-3,4.9-6.2h4.8s1.7,4.6-8,9.8c0,0-6.7,5.1-7,8.1h-5.4a12.7,12.7,0,0,1,5.6-8.1h-9Z"/><path class="cls-29" d="M258,279.9l2.9-3.1h3.9v11.9H246.1s-12.3-.2-10.3-11.1,18.6-18.3,18.6-18.3,9.6-2.6,5.9,1.9c0,0-9.7,7.7-11.3,9.2,0,0-10.5,7.2-8,12.1a6.5,6.5,0,0,0,5.5,2h14.7v-4.6Z"/><path class="cls-30" d="M193.9,328.1a95.9,95.9,0,0,1-5.5,9.1c-8.4,12.4-22.2,25.9-42.8,27.8l-5.1-3.3-2.1-1.4c-9.7-6.6-20.2-14.9-27.2-23.4l-1.3-1.7-1-1.3a8.6,8.6,0,0,0-.7-1l-1.2-2-.6-1a35.2,35.2,0,0,1-1.8-4,.4.4,0,0,0-.1-.3l1.7-2.1h0l2.2-2.3c.3,2.9,1.5,5.3,3.6,6.5,4.8,2.8,12.6-1.8,17.5-10.2a27.1,27.1,0,0,0,3.1-7.6,89.6,89.6,0,0,1,9.7-1.1c9.2.5,29.1-.5,48.7,15.7A10.2,10.2,0,0,1,193.9,328.1Z"/><path class="cls-31" d="M188.4,337.2c-8.4,12.4-22.2,25.9-42.8,27.8l-5.1-3.3-2.1-1.4c-9.7-6.6-20.2-14.9-27.2-23.4l-1.3-1.7-1-1.3a8.6,8.6,0,0,0-.7-1l-1.2-2-.6-1a35.2,35.2,0,0,1-1.8-4,.4.4,0,0,0-.1-.3l1.7-2.1C126.1,346.7,172,345.9,188.4,337.2Z"/><line class="cls-32" x1="187.5" y1="313.9" x2="186.8" y2="313.7"/><line class="cls-32" x1="186.7" y1="313.6" x2="185.4" y2="313.2"/><path class="cls-33" d="M313.1,328.9a95.9,95.9,0,0,0,5.5,9.1c8.4,12.4,22.2,25.9,42.9,27.8l5.1-3.3,2-1.4c9.8-6.6,20.3-14.9,27.2-23.4.5-.5.9-1.1,1.4-1.7l.9-1.3.7-1.1a7.6,7.6,0,0,0,1.2-1.9l.6-1a23.5,23.5,0,0,0,1.8-4,.4.4,0,0,0,.1-.3l-1.7-2.1h0a23.9,23.9,0,0,0-2.2-2.3c-.3,2.9-1.5,5.3-3.5,6.5-4.8,2.8-12.7-1.8-17.5-10.2a27.1,27.1,0,0,1-3.1-7.6,91.6,91.6,0,0,0-9.8-1.1c-9.2.5-29-.5-48.6,15.7A9.6,9.6,0,0,0,313.1,328.9Z"/><path class="cls-34" d="M318.6,338c8.4,12.4,22.2,25.9,42.9,27.8l5.1-3.4,2-1.3c9.8-6.7,20.3-14.9,27.2-23.4.5-.5.9-1.1,1.4-1.7l.9-1.3.7-1.1a7.6,7.6,0,0,0,1.2-1.9l.6-1a17.6,17.6,0,0,0,1.8-4,.4.4,0,0,0,.1-.3l-1.7-2.1C380.9,347.4,335,346.7,318.6,338Z"/><path class="cls-4" d="M337.5,313.4s-37.5,4.2-30.9,15.2,9.8,9.2,12,9.4-4.7,4.5,3.1,12.8,11.6,10.8,16.7,8.8a1.3,1.3,0,0,1,1.8,1c.8,4.4,4.1,15.1,17.3,10.4l14.1-11.2Z"/><path class="cls-4" d="M168.2,312.2s38.8,3.9,32.1,14.9-9.8,9.2-12,9.4,4.7,4.5-3,12.8-11.6,10.8-16.8,8.8a1.4,1.4,0,0,0-1.8,1c-.8,4.4-4.1,15.1-17.2,10.5l-14.1-11.3Z"/><path class="cls-4" d="M219.4,323.2h63.7a13.7,13.7,0,0,1,4.9,1.3,14.7,14.7,0,0,1,8.1,12.6,23.5,23.5,0,0,1,.1,2.6c0,2.7.1,5.4.1,8.1s.1,2.4.1,3.6V359c0,.3-.1.5-.1.7a14.2,14.2,0,0,1-3.8,7.5,13.7,13.7,0,0,1-10.1,4.2H267.5a13.7,13.7,0,0,1-5.9-1.3h-.2a.3.3,0,0,0-.1.2,26.8,26.8,0,0,1-4.9,6.2,20.8,20.8,0,0,1-8.1,4.8,18.8,18.8,0,0,1-4.7,1,17.8,17.8,0,0,1-4,0,14,14,0,0,1-5.6-2,13.8,13.8,0,0,1-6.6-9.9,1.3,1.3,0,0,0-.1-.6H227a8,8,0,0,1-1.6.8,14.3,14.3,0,0,1-5.8,1.1h-9.7a15.8,15.8,0,0,1-3.8-.4,13.7,13.7,0,0,1-8.5-5.6,15.5,15.5,0,0,1-2.8-8.6,18.4,18.4,0,0,1,.3-3.3,14.5,14.5,0,0,1,2.4-5.9,13.9,13.9,0,0,1,8.1-5.7l.8-.2c0-.1,0-.1-.1-.2a14.2,14.2,0,0,1-.3-7.1,14,14,0,0,1,5.5-8.7,13.9,13.9,0,0,1,7-2.8Zm32.1,28.7a.4.4,0,0,0-.1-.3l-4.5-11.4-1.4-3.6a3,3,0,1,0-5.4,2.5c2.7,6.3,5.4,12.6,8.2,18.8a1.4,1.4,0,0,1,0,.9,26.9,26.9,0,0,1-1.9,3.8,5.8,5.8,0,0,1-1.6,1.9,5.2,5.2,0,0,1-3.3,1.2h-.8a2.6,2.6,0,0,0-2,3,2.8,2.8,0,0,0,2.6,2.4,11.7,11.7,0,0,0,4.5-.9,11,11,0,0,0,4.2-3.5,23.6,23.6,0,0,0,3-5.1c3.3-7.5,6.6-15,10-22.5a4.5,4.5,0,0,0,.3-1.6,3,3,0,0,0-5.8-.8l-5.8,14.8Zm-23.9,0c.1.1.1.2.2.2l5,7.2a3,3,0,0,0,2.9,1.3,3.1,3.1,0,0,0,2.6-2.7,3.2,3.2,0,0,0-.7-2.2l-6.4-8a.3.3,0,0,1-.1-.2c0-.1.1-.2.2-.3l6.1-7.5a2.8,2.8,0,0,0,.6-2.5,3,3,0,0,0-3.3-2.4,3.6,3.6,0,0,0-2.1,1.3l-4.8,6.6-.2.3-.2-.2c-.8-1-1.5-2.1-2.3-3.2s-1.7-2.4-2.6-3.5a3,3,0,1,0-4.7,3.6l6.2,7.6c0,.1.1.1.1.2l-.2.3c-.8.9-1.5,1.9-2.3,2.9l-4.1,5.1a2.5,2.5,0,0,0-.5,2.5,2.7,2.7,0,0,0,2.4,2.2,2.6,2.6,0,0,0,2.9-1.2l3.7-5.1Zm49.6-11.7c0,.1-.1.2-.1.3l-11.7,15.6a2.5,2.5,0,0,0-.3,2.6,2.6,2.6,0,0,0,2.5,1.5h15.3a2.7,2.7,0,0,0,2.2-2.2,2.7,2.7,0,0,0-1.8-2.7H272.6l.2-.3,3.6-4.9,7.8-10.4a2.7,2.7,0,0,0-.6-3.8,3.3,3.3,0,0,0-1.7-.4h-14a2.4,2.4,0,0,0-2,3.7,2.4,2.4,0,0,0,2.2,1.2h9.1Zm-67.3,20.4h1a2.8,2.8,0,0,0,2.4-2.3,5.7,5.7,0,0,0,0-2.6,2.7,2.7,0,0,0-2.3-2.1,4.9,4.9,0,0,0-2.4,0,2.9,2.9,0,0,0-2.2,2.1,6.6,6.6,0,0,0,0,2.8,2.7,2.7,0,0,0,1.9,2Z"/><path class="cls-28" d="M251.5,351.9l.2-.3,5.8-14.8a3,3,0,0,1,5.8.8,4.5,4.5,0,0,1-.3,1.6c-3.4,7.5-6.7,15-10,22.5a23.6,23.6,0,0,1-3,5.1,11,11,0,0,1-4.2,3.5,11.7,11.7,0,0,1-4.5.9,2.8,2.8,0,0,1-2.6-2.4,2.6,2.6,0,0,1,2-3h.8a5.2,5.2,0,0,0,3.3-1.2,5.8,5.8,0,0,0,1.6-1.9,26.9,26.9,0,0,0,1.9-3.8,1.4,1.4,0,0,0,0-.9c-2.8-6.2-5.5-12.5-8.2-18.8a3,3,0,1,1,5.4-2.5l1.4,3.6,4.5,11.4A.4.4,0,0,1,251.5,351.9Z"/><path class="cls-28" d="M227.6,351.9l-1.6,2.3-3.7,5.1a2.6,2.6,0,0,1-2.9,1.2,2.7,2.7,0,0,1-2.4-2.2,2.5,2.5,0,0,1,.5-2.5l4.1-5.1c.8-1,1.5-2,2.3-2.9l.2-.3c0-.1-.1-.1-.1-.2l-6.2-7.6a3,3,0,1,1,4.7-3.6c.9,1.1,1.7,2.3,2.6,3.5s1.5,2.2,2.3,3.2l.2.2.2-.3,4.8-6.6a3.6,3.6,0,0,1,2.1-1.3,3,3,0,0,1,3.3,2.4,2.8,2.8,0,0,1-.6,2.5l-6.1,7.5c-.1.1-.2.2-.2.3a.3.3,0,0,0,.1.2l6.4,8a3.2,3.2,0,0,1,.7,2.2,3.1,3.1,0,0,1-2.6,2.7,3,3,0,0,1-2.9-1.3l-5-7.2C227.7,352.1,227.7,352,227.6,351.9Z"/><path class="cls-28" d="M277.2,340.2h-9.1a2.4,2.4,0,0,1-2.2-1.2,2.4,2.4,0,0,1,2-3.7h14a3.3,3.3,0,0,1,1.7.4,2.7,2.7,0,0,1,.6,3.8l-7.8,10.4-3.6,4.9-.2.3h10.7a2.7,2.7,0,0,1,1.8,2.7,2.7,2.7,0,0,1-2.2,2.2H267.6a2.6,2.6,0,0,1-2.5-1.5,2.5,2.5,0,0,1,.3-2.6l11.7-15.6C277.1,340.4,277.2,340.3,277.2,340.2Z"/><path class="cls-28" d="M209.9,360.6l-1.6-.2a2.7,2.7,0,0,1-1.9-2,6.6,6.6,0,0,1,0-2.8,2.9,2.9,0,0,1,2.2-2.1,4.9,4.9,0,0,1,2.4,0,2.7,2.7,0,0,1,2.3,2.1,5.7,5.7,0,0,1,0,2.6,2.8,2.8,0,0,1-2.4,2.3Z"/><text class="cls-35" transform="translate(220.3 318.4)">FREE</text><path class="cls-36" d="M393.6,200.7c-5.9,7.4-11.7,15-17.3,22.7L368,235.1c-2.8,3.9-5.8,7.9-7.7,12.4-.4,1,.8,2.2,1.7,1.3,3.2-3.3,5.7-7.3,8.3-11.1s5.5-7.8,8.3-11.6c5.7-7.8,11.5-15.5,17.5-23,1.4-1.7-1.1-4.2-2.5-2.4Z"/><path class="cls-36" d="M426.9,217.7c-14.2,13.3-28.5,26.3-42.6,39.7-1,1,.5,2.4,1.6,1.5,14.4-12.9,28.6-26.2,42.9-39.3,1.4-1.2-.6-3.2-1.9-1.9Z"/><path class="cls-36" d="M106.4,202.6c5.9,7.5,11.7,15.1,17.3,22.8,2.8,3.8,5.6,7.7,8.3,11.6s5.8,8,7.7,12.5c.4,1-.8,2.2-1.7,1.2-3.2-3.3-5.7-7.3-8.3-11.1L121.4,228c-5.7-7.8-11.5-15.4-17.5-22.9-1.4-1.7,1.1-4.2,2.5-2.5Z"/><path class="cls-36" d="M73.1,219.6c14.2,13.3,28.5,26.4,42.6,39.8,1,.9-.5,2.4-1.6,1.5C99.7,248,85.5,234.7,71.2,221.6c-1.4-1.2.6-3.2,1.9-2Z"/><path class="cls-37" d="M387,235.6s-12.4,13.1-17.3,19.4"/><path class="cls-37" d="M113,240.1s12.4,13.1,17.3,19.3"/></g></g></svg>