<svg xmlns="http://www.w3.org/2000/svg" xmlns:xlink="http://www.w3.org/1999/xlink" viewBox="0 0 500 500"><defs><style>.cls-1{isolation:isolate;}.cls-18,.cls-2,.cls-20,.cls-5{mix-blend-mode:multiply;}.cls-2{fill:url(#radial-gradient);}.cls-3{fill:url(#radial-gradient-2);}.cls-4{fill:#33215d;}.cls-5{fill:#9f91c1;}.cls-6{fill:#1b1b59;}.cls-7{fill:url(#radial-gradient-3);}.cls-8{fill:url(#radial-gradient-4);}.cls-9{fill:url(#radial-gradient-5);}.cls-10{fill:url(#radial-gradient-6);}.cls-11{fill:#0d2042;}.cls-12{fill:url(#radial-gradient-7);}.cls-13{fill:#32327c;}.cls-14{fill:url(#radial-gradient-8);}.cls-15{fill:url(#radial-gradient-9);}.cls-16{fill:url(#radial-gradient-10);}.cls-17{fill:url(#radial-gradient-11);}.cls-18{fill:url(#radial-gradient-12);}.cls-19{fill:url(#radial-gradient-13);}.cls-20{fill:#92a7c4;}.cls-21{fill:#fff;}.cls-22{fill:#dfceed;}.cls-23{fill:url(#radial-gradient-14);}.cls-24{fill:url(#radial-gradient-15);}.cls-25{fill:#8666dd;}.cls-26{fill:#0087cb;}</style><radialGradient id="radial-gradient" cx="218.84" cy="-4945.87" r="147.79" gradientTransform="translate(0 1396.2) scale(1 0.19)" gradientUnits="userSpaceOnUse"><stop offset="0" stop-opacity="0.5"/><stop offset="1" stop-opacity="0"/></radialGradient><radialGradient id="radial-gradient-2" cx="320.17" cy="119.24" r="128.82" gradientUnits="userSpaceOnUse"><stop offset="0" stop-color="#fff"/><stop offset="1" stop-color="#4e4e91"/></radialGradient><radialGradient id="radial-gradient-3" cx="310.58" cy="248.47" r="116.36" xlink:href="#radial-gradient-2"/><radialGradient id="radial-gradient-4" cx="373.35" cy="1191.42" r="86.73" gradientTransform="translate(-761.1 -521.6) rotate(-33.5)" gradientUnits="userSpaceOnUse"><stop offset="0" stop-color="#fff"/><stop offset="1" stop-color="#a5c4e7"/></radialGradient><radialGradient id="radial-gradient-5" cx="373.35" cy="1191.42" r="86.73" gradientTransform="translate(-761.1 -521.6) rotate(-33.5)" xlink:href="#radial-gradient-2"/><radialGradient id="radial-gradient-6" cx="367.71" cy="1156.05" r="23.52" gradientTransform="translate(-761.1 -521.6) rotate(-33.5)" gradientUnits="userSpaceOnUse"><stop offset="0" stop-color="#182442"/><stop offset="1" stop-color="#33215d"/></radialGradient><radialGradient id="radial-gradient-7" cx="366.29" cy="1195.4" r="47.95" gradientTransform="translate(-495.6 -768.5) rotate(-16.8)" xlink:href="#radial-gradient-2"/><radialGradient id="radial-gradient-8" cx="358.43" cy="1210.11" r="27.87" gradientTransform="translate(-761.1 -521.6) rotate(-33.5)" xlink:href="#radial-gradient-2"/><radialGradient id="radial-gradient-9" cx="392.66" cy="1217.77" r="26.51" gradientTransform="translate(-761.1 -521.6) rotate(-33.5)" xlink:href="#radial-gradient-2"/><radialGradient id="radial-gradient-10" cx="473.19" cy="622.65" r="269.48" gradientTransform="matrix(0.93, -0.36, 0.39, 0.92, -484.14, -384.58)" xlink:href="#radial-gradient-4"/><radialGradient id="radial-gradient-11" cx="473.19" cy="622.84" r="269.48" gradientTransform="matrix(0.93, -0.36, 0.39, 0.92, -484.14, -384.58)" xlink:href="#radial-gradient-2"/><radialGradient id="radial-gradient-12" cx="175.39" cy="184.41" r="74.69" xlink:href="#radial-gradient-2"/><radialGradient id="radial-gradient-13" cx="518.27" cy="650.69" r="217.66" gradientTransform="matrix(0.93, -0.36, 0.36, 0.93, -503.77, -376.22)" xlink:href="#radial-gradient-6"/><radialGradient id="radial-gradient-14" cx="229.39" cy="308.75" r="129.76" xlink:href="#radial-gradient-2"/><radialGradient id="radial-gradient-15" cx="58.77" cy="196.39" r="195.87" xlink:href="#radial-gradient-2"/></defs><g class="cls-1"><g id="Layer_1" data-name="Layer 1"><ellipse class="cls-2" cx="218.8" cy="450" rx="147.8" ry="28.3"/><path class="cls-3" d="M228,218.8c-11.7-9.1,61.7-63.8,69.6-69.7a63.1,63.1,0,0,1,17.4-8.8s16.8-15.9,20.3-14.6-1.7,16.7-1.7,16.7,15.9-13.4,19.1-11.5-3.8,18.2-5.5,21.1-7.9,9-6.4,9.1,20.9,2.9,19.9,6.6-22.7,8.6-27.5,10.7-90.9,47.8-96.8,46.1A14.7,14.7,0,0,1,228,218.8Z"/><path class="cls-4" d="M343,157.3c1.5-5.1-.6-11.7-9.1-15.2l-.3.3v-.3c-4.4-1.7-10.5-2.6-18.5-2l-.2.2a63.1,63.1,0,0,0-17.4,8.8l-1.9,1.4c6.7,1.2,14.3,4.8,21.1,13s8.8,13.1,10.2,18l6.2-3.1a29.4,29.4,0,0,1,3.7-1.3c-.3-5.4.3-12,3.9-16C340,161,341.3,159.3,343,157.3Z"/><path class="cls-5" d="M360.6,168c-9,.3-21.9.5-25.3-1.2s1-3.6,5.6-6.8c1.2-1.9,5-5.9,6.3-8s8.1-17.7,5.9-20.7c-15.4,25.2-82.3,65.1-86.1,66-2.2.5,1.8-14.7,6.2-29.3-23.2,18.6-53,44.7-45.2,50.8a14.7,14.7,0,0,0,8.4,5.7c5.9,1.7,92-44,96.8-46.1S358.4,171.6,360.6,168Z"/><path class="cls-6" d="M300.2,189.4c-1.8-3.2-7.1-3.7-12.5-1.5a41.8,41.8,0,0,0-16.6-15.7l-2-.9-1.3,1c7.1,2.7,13.4,9.3,17.1,14.8l1,1.6-.7.4c-6.2,3.6-9.4,9.5-7.3,13.1a5.4,5.4,0,0,0,3.5,2.5l18.6-9.3C301,193.2,301.2,191.1,300.2,189.4Z"/><path class="cls-7" d="M240.1,256.1s53.3-7.6,61.8,3.7-19.1,75.4-22.8,77.1-19.8,3.1-22,1.3,4.2-40.7,4.2-40.7-17,4-25.1-1S240.1,256.1,240.1,256.1Z"/><path class="cls-5" d="M282.8,279.1s-25.5-6.9-43-21.9c-2,6.2-10.7,34.8-3.6,39.3s25.1,1,25.1,1-6.4,39-4.2,40.7,18.3.5,22-1.3c.7-.3,2.4-3.1,4.5-7.5C277.2,319.9,282.8,279.1,282.8,279.1Z"/><path class="cls-6" d="M303.5,266.3a16.4,16.4,0,0,0-.2-2.3,195,195,0,0,0-27.8,19,7.7,7.7,0,0,0-5.3-2.2c-4.8,0-8.7,4.8-8.7,10.7a12.9,12.9,0,0,0,.7,4l-2.1,2.3,1.2-.3L261,299l1.8-1.9c1.6,3.1,4.3,5.1,7.4,5.1,4.9,0,8.8-4.8,8.8-10.7a12.7,12.7,0,0,0-2.2-7.1A219.5,219.5,0,0,1,300.7,268Z"/><path class="cls-8" d="M221.3,211.8c-2.9-1.9-50.3,10.6-53.9,20.2s2.3,60.1,8.8,70.6,32.3,23.7,45.8,15.5,31.6-19.4,32.6-24.8,7.7-30.9-1.5-44.4S229.3,216.9,221.3,211.8Z"/><path class="cls-9" d="M221.3,211.8c-2.9-1.9-50.3,10.6-53.9,20.2s2.3,60.1,8.8,70.6,32.3,23.7,45.8,15.5,31.6-19.4,32.6-24.8,7.7-30.9-1.5-44.4S229.3,216.9,221.3,211.8Z"/><path class="cls-5" d="M221.3,211.8c-1.6-1-16.1,2.1-29.7,6.8h0l-1.1.4h0l-1.1.4h-.1l-1,.4h-.1l-1,.4h-.1l-1,.4H186l-1,.4h0l-1,.4h-.1l-5.8,2.6H178l-.7.4h-.2l-.6.3-.3.2-.6.2-.3.2-.5.3-.3.2-.5.2-.3.2-.5.3-.3.2-.4.2-.3.3-.4.2-.3.2-.3.3-.4.2-.3.2-.3.2-.2.3-.3.2-.2.2-.3.3-.2.2-.3.2v.2l-.2.3-.2.2-.2.2v.2l-.2.3v.2l-.2.4h0v.6a.4.4,0,0,1-.1.3v.8a.9.9,0,0,0-.1.5.3.3,0,0,1-.1.2v1.1a.6.6,0,0,1-.1.4v.3c0,.5-.1,1.1-.1,1.7h0c0,.2-.1.4-.1.6v.8h0c-.7,17.3,4.4,54.3,9.8,63.1,3.8,6.2,14.3,13.3,25,16.4-4.8-4.1-14.2-15.2-21.1-41.8a65.3,65.3,0,0,1-.5-31c13.6,3.3,28.8,3.2,39-3s12.2-15.9,9.9-25.2A44.6,44.6,0,0,0,221.3,211.8Z"/><path class="cls-5" d="M223.6,303.2c-17.7,7.8-33.8,5.7-46.7.4,7.4,10.3,32.1,22.5,45.1,14.5s31.6-19.4,32.6-24.8a139.5,139.5,0,0,0,3-17.9C251.2,285.2,240.7,295.6,223.6,303.2Z"/><path class="cls-6" d="M210.5,267a152.9,152.9,0,0,0,27.1-14.4,125.7,125.7,0,0,0,11.8-8.9l-.9-1.2c-2.1,1.7-4.2,3.5-6.5,5.1a142.9,142.9,0,0,1-25.3,15,132.6,132.6,0,0,1-26.1,9.2,89.5,89.5,0,0,1-20.7,2.5H169l.3,1.5a80,80,0,0,0,16.2-1.4A119.8,119.8,0,0,0,210.5,267Z"/><path class="cls-10" d="M220.1,211.6c-8,0-49.3,11.5-52.7,20.4C170.7,241.7,225.1,225.8,220.1,211.6Z"/><circle class="cls-11" cx="214.8" cy="261.5" r="26.6" transform="translate(-11 9.4) rotate(-2.5)"/><circle class="cls-12" cx="214.8" cy="261.5" r="24.9" transform="translate(-66 72.6) rotate(-16.7)"/><circle class="cls-13" cx="214.8" cy="261.6" r="19.8" transform="translate(-54.3 466.9) rotate(-87.9)"/><path class="cls-14" d="M221.5,316.1c-4.1-10-35.6-24.7-43.9-15.7a2.6,2.6,0,0,0-.1,3.4c7.7,9.9,30.1,20.8,43.1,14.6A1.7,1.7,0,0,0,221.5,316.1Z"/><path class="cls-15" d="M256,254.8c0,5.6.9,29.1-4,42.6,1.5-1.6,2.4-2.9,2.6-4.1C255.5,288.7,260.6,268.8,256,254.8Z"/><path class="cls-16" d="M142.6,228.1a13.5,13.5,0,0,1-7.4-4.4c-5.9-6.9-15.4-15.7-32.1-41.7-22.2-34.3-27.6-55.6-26.2-81.2.5-9.5,51.5-82.6,104-79S268.5,61.1,277.7,95s-14.9,97.6-21.9,107.3S200.8,241.7,142.6,228.1Z"/><path class="cls-17" d="M142.6,228.3a13.7,13.7,0,0,1-7.3-4.5c-5.9-6.8-15.4-15.7-32.2-41.6C81,147.9,75.6,126.5,77,101c.5-9.5,51.4-82.6,103.9-79s87.7,39.3,96.9,73.2-14.9,97.6-21.9,107.3S200.9,241.9,142.6,228.3Z"/><path class="cls-18" d="M222.9,177.3C161.5,187.8,113,163,80.9,137.2c3.9,13.1,10.8,27.3,22.2,44.8,16.7,26,26.2,34.8,32.1,41.7a13.5,13.5,0,0,0,7.4,4.4c58.2,13.6,106.3-16.4,113.2-25.8,2.9-4.1,8.9-17.6,14.1-34.4C256.3,171.1,240.8,174.3,222.9,177.3Z"/><path class="cls-19" d="M146.1,215.9c-19.1-8-49.5-84.6-46.4-104.1s42.8-50.7,48.5-50,15.4,5.3,19.3,5.5,40.6-4.2,42.3-7.8S221.6,47,224.7,46.3s40.7,19.3,46,38.5,2.8,86.7-16,107.1S180.8,230.5,146.1,215.9Z"/><path class="cls-20" d="M254.7,191.9c7.6-8.3,12.6-24.2,15.4-41.5-14.6-32.3-46.4-56.3-95.4-46.6-37.9,7.4-58.2,23.9-68.5,42.3,9.5,29,27.2,64.5,39.9,69.8C180.8,230.5,235.9,212.3,254.7,191.9Z"/><path class="cls-21" d="M179.2,187c11.5,5.4,25.1,7.4,36.3.4,2.2-1.3-.1-4.4-2.3-3.1-10,6.2-22.3,3.9-32.4-.9-2.3-1-3.8,2.5-1.6,3.6Z"/><ellipse class="cls-21" cx="245.5" cy="131" rx="26.7" ry="18.4" transform="translate(73.6 349.9) rotate(-80)"/><ellipse class="cls-22" cx="245.5" cy="131" rx="23.4" ry="16.1" transform="translate(73.6 349.9) rotate(-80)"/><path class="cls-21" d="M136.8,143.2a74.2,74.2,0,0,1,19.6,4.9,70.2,70.2,0,0,1,17.5,9.4c1.2-1.9,2.3-3.8,3.4-5.7-7.5-2-15.5-2.6-23.2-2.8s-15.6-.1-23.1,1.9c-3,.8-2.3,5.2.7,5.3,7.5.2,15-.3,22.4,0s14.8,1.5,22.3,2.4c3.5.4,4.5-4.9,1.7-6.5a100.7,100.7,0,0,0-19.9-9.4,92,92,0,0,0-21.4-4.1c-3-.3-2.9,4.3,0,4.6Z"/><path class="cls-23" d="M174.2,310.4c.1-9.5,16.8-10.1,29.8-6.5s20.1,17.8,21.3,21.9,8.5,29.9,9.6,41.5,1,59.9-2.3,62.3-22.9-1.6-29.1-9.5S174,351.9,174.2,310.4Z"/><path class="cls-5" d="M234.6,364.7c-1.2,26.1,1.3,63.3-8.3,62.8-14.6-.7-29.5-64.3-29-65.2s-12-25.1-18.2-58.6c-3,1.3-4.9,3.5-4.9,6.7-.2,41.5,23.2,101.8,29.3,109.7s25.8,12,29.1,9.5,3.5-50.8,2.3-62.3A26,26,0,0,0,234.6,364.7Z"/><path class="cls-6" d="M231.7,361l2.4.4-.6-3.1a62.9,62.9,0,0,0-21.2-.3,69.9,69.9,0,0,0-17.8,5.2c-2-5.7-5.3-9.4-8.1-8.8s-4,4.6-3.9,9.8,2.9,10.3,4.4,15.2c1.8,2.6,3.8,4.1,5.7,3.7,3.4-.8,4.9-7.8,3.2-15.7-.2-.6-.3-1.2-.5-1.8C206.7,360.8,219.4,358.8,231.7,361Z"/><path class="cls-24" d="M168.6,234.4a3.4,3.4,0,0,0-4.3-2.2c-9.9,3.4-35.5,18.5-36.7,18.3s-15.2-19-15.2-19,4.4-7.2,2.5-11.7-18.4-10.2-18.4-10.2-6.3-9.4-13.4-6.6-37,30.3-34,42,53.5,51.7,77.1,48.5,39.9-29.7,43-39.9C171.4,246.5,169.8,238.6,168.6,234.4Z"/><path class="cls-6" d="M64.2,229.9c.3.2.7,0,1-.3A97.9,97.9,0,0,1,76,217.2a90.1,90.1,0,0,1,12.7-10.4l3.2-2-1.1-.7A103.8,103.8,0,0,0,82,210a88.4,88.4,0,0,0-12.3,11.4,82,82,0,0,0-5.8,7.4A.8.8,0,0,0,64.2,229.9Z"/><path class="cls-6" d="M77.7,222.7a31.2,31.2,0,0,0-4.6,6.2.5.5,0,0,0,.9.6c1.5-1.6,2.9-3.4,4.4-5.1a53.8,53.8,0,0,1,4.7-4.9,58.4,58.4,0,0,1,10.6-7.9l3.3-1.8-.5-.2-.6-.8A63.4,63.4,0,0,0,77.7,222.7Z"/><path class="cls-6" d="M86.8,221.9a32.4,32.4,0,0,0-4.2,5.4.6.6,0,0,0,.3.9.7.7,0,0,0,.9-.2,58.4,58.4,0,0,1,7.9-8.6,39.4,39.4,0,0,1,9.8-6.1,9.5,9.5,0,0,1,2.1-.9l-1.6-.7A42,42,0,0,0,86.8,221.9Z"/><path class="cls-6" d="M104.9,222a74.9,74.9,0,0,1-10.4,11.4.9.9,0,0,0,0,1,.8.8,0,0,0,1,0,49.8,49.8,0,0,0,10.6-11.8C106.5,221.9,105.4,221.3,104.9,222Z"/><path class="cls-4" d="M112.5,231.6l-.8,1.3c-3.5,5.7-11.3-4.1-11.7-3.3s-27.1-2.4-42-4.1c-5.9,7.3-10.1,14.7-8.9,19.5s9,12.8,19.7,21.4c6.7.5,15.7-.4,26.7-5.4a40.4,40.4,0,0,0,21.6-23.4Z"/><path class="cls-5" d="M168.6,234.4a3.4,3.4,0,0,0-4.3-2.2,82.8,82.8,0,0,0-9.1,4c5.1,1.3,8.9,2.7,8.7,4.1-.4,4.1-20.8,43.8-33.8,42.3s-33.8-37.3-41.3-39.7c-5.4-1.6-27.7-4.1-39.5-2.4a10,10,0,0,0-.2,4.5c3,11.6,53.5,51.7,77.1,48.5s39.9-29.7,43-39.9C171.4,246.5,169.8,238.6,168.6,234.4Z"/><ellipse class="cls-6" cx="131.5" cy="281.7" rx="11.7" ry="8.2" transform="translate(-123.3 103.5) rotate(-30)"/><path class="cls-6" d="M127.7,250.5c.7,1.9,1.4,3.9,2,5.9a47.7,47.7,0,0,1,1.8,17.2,32.9,32.9,0,0,1-4.9,14.9,32.2,32.2,0,0,1-3.8,5.1,17.9,17.9,0,0,0,3.3-.1,13.7,13.7,0,0,0,1.5-2.1,36.7,36.7,0,0,0,5.9-15.6,47.5,47.5,0,0,0-1.5-18,58.4,58.4,0,0,0-2.8-8Z"/><path class="cls-25" d="M317.6,208.1q43-18.9,87.5-35l24.9-8.9c1.1-.5.7-2.2-.5-1.9-30.2,9.4-59.8,21-89,33-8.1,3.3-16.3,6.8-24.4,10.3-1.7.7-.2,3.2,1.5,2.5Z"/><path class="cls-25" d="M400.4,187.1c16.4-6.7,33-12.7,49.7-18.5,1.8-.6,1-3.5-.9-2.9-16.8,5.1-33.4,11.4-49.7,18.1-2,.8-1.1,4.2.9,3.3Z"/><path class="cls-25" d="M296,92.1c8-3.8,16.3-7.3,23.8-11.9,1.2-.7.4-2.9-1-2.4-8.5,3-16.6,7.3-24.7,11-2.2,1.1-.3,4.4,1.9,3.3Z"/><path class="cls-25" d="M300.7,71.2c.6,12.4,1.5,25,4,37.2.4,1.5,3,1.2,2.8-.4-.9-12.3-2.6-24.5-3.2-36.8-.1-2.4-3.7-2.4-3.6,0Z"/><path class="cls-21" d="M213,258.4h7s3.4-2.1,3.4-4.4h3.3s1.2,3.3-5.5,6.9c0,0-4.7,3.6-4.9,5.6h-3.7a8.6,8.6,0,0,1,3.9-5.6h-6.3Z"/><path class="cls-26" d="M218.5,265l2-2.1h2.7v8.3h-13s-8.6-.1-7.2-7.8,13-12.6,13-12.6,6.6-1.8,4.1,1.3c0,0-6.8,5.3-7.9,6.3s-7.3,5.1-5.6,8.5a4.8,4.8,0,0,0,3.8,1.4h10.3v-3.2Z"/></g></g></svg>