<?xml version="1.0" encoding="UTF-8"?>
<svg id="Layer_1" data-name="Layer 1" xmlns="http://www.w3.org/2000/svg" viewBox="0 0 46 46">
  <defs>
    <style>
      .cls-1 {
        fill: #270069;
      }
    </style>
  </defs>
  <path class="cls-1" d="M21.65.84c.53.02.91.19,1.01.75-.03,2.17-.06,4.34-.09,6.51-.16.13-.32.26-.48.4-.47.16-4.19-.04-8.09,2.81-9.74,7.14-6.95,23.13,5.72,25.94.67.15,2.59.08,2.86.66.03,2.17.06,4.34.09,6.51-.23,1.23-2.61.65-2.99.18-.5-.61-.47-2.77-.84-3.65-2.23-.49-4.36-1.35-6.24-2.64-.93.59-2.51,2.25-3.61,2.02-.29-.06-3.96-2.91-3.65-4.44.64-.97,1.29-1.93,1.93-2.9-1.2-1.89-2.1-3.96-2.55-6.16-1.16-.25-2.32-.5-3.47-.75-1.13-.67-.78-5.11-.48-5.67.54-1.01,2.97-.73,3.96-1.23.46-2.2,1.35-4.27,2.55-6.16-.46-1.14-2.19-2.43-1.93-3.69.12-.59,3.08-3.53,3.65-3.65,1.09-.23,2.68,1.43,3.61,2.02,1.84-1.22,3.89-2.17,6.07-2.55.8-.35.07-3.96,1.85-4.22.38-.03.76-.06,1.14-.09Z"/>
  <path class="cls-1" d="M28.95,2.43c2.87-.52,4,3.38,1.28,4.44-.09,6.29,1.15,7.33-6.02,6.99v-1.5c.87-.16,4.28.42,4.53-.57v-4.93c-2.09-.68-1.93-4.05.22-4.44Z"/>
  <path class="cls-1" d="M36.6,9.29c2.78-.47,4.03,3.26,1.28,4.44-.21,1.82.85,5.79-1.8,6.2-3.97-.01-7.94-.03-11.92-.04.01-.48.03-.97.04-1.45,1.61-.11,11.22.18,11.78-.09.76-.37.24-3.74.4-4.62-2.46-1.03-1.59-4.13.22-4.44Z"/>
  <path class="cls-1" d="M21.57,11.57c.51,0,.98.08,1.1.66v21.55c-.17,1.41-4.09.01-4.97-.4-7.38-3.43-8.74-13.65-2.64-19,1.5-1.31,4.51-2.78,6.51-2.81Z"/>
  <path class="cls-1" d="M24.2,15.35h7.74c.83.18.77,1.41-.09,1.58h-7.65v-1.58Z"/>
  <path class="cls-1" d="M45.53,22.57v.88c-.67,2.28-3.46,2.54-4.44.35h-16.89c-.01-.51-.03-1.03-.04-1.54,5.64-.01,11.29-.03,16.93-.04.98-2.18,3.77-1.92,4.44.35Z"/>
  <path class="cls-1" d="M24.2,26.08h11.87c2.64.42,1.6,4.35,1.8,6.2,3.39,1.65.56,5.81-2.07,4.09-1.33-.87-1.35-3.36.57-4.09-.16-.88.37-4.25-.4-4.62-.56-.27-10.17.02-11.78-.09v-1.5Z"/>
  <path class="cls-1" d="M24.2,29.07h7.65c.86.18.91,1.41.09,1.58h-7.74v-1.58Z"/>
  <path class="cls-1" d="M24.2,32.15c7.18-.33,5.94.72,6.02,6.99,2.86,1.15,1.46,5.23-1.54,4.35-1.62-.47-2.26-3.35.04-4.35-.19-6.39,1.3-5.36-4.53-5.41v-1.58Z"/>
</svg>