<svg xmlns="http://www.w3.org/2000/svg" xmlns:xlink="http://www.w3.org/1999/xlink" viewBox="0 0 400 400"><defs><style>.cls-1{isolation:isolate;}.cls-2{opacity:0.14;}.cls-14,.cls-18,.cls-23,.cls-3,.cls-33,.cls-40,.cls-44,.cls-5,.cls-55,.cls-62,.cls-66{mix-blend-mode:multiply;}.cls-3{fill:url(#radial-gradient);}.cls-4{fill:url(#radial-gradient-2);}.cls-5{fill:#92a7c4;}.cls-6{fill:url(#radial-gradient-3);}.cls-7{fill:url(#radial-gradient-4);}.cls-8{fill:#fff;}.cls-9{fill:#ceeaef;}.cls-10{fill:url(#radial-gradient-5);}.cls-11{fill:#1b1b59;}.cls-12{fill:url(#radial-gradient-6);}.cls-13{fill:url(#radial-gradient-7);}.cls-14{fill:url(#radial-gradient-8);}.cls-15{fill:url(#radial-gradient-9);}.cls-16{fill:url(#radial-gradient-10);}.cls-17{fill:url(#radial-gradient-11);}.cls-18{fill:url(#radial-gradient-12);}.cls-19{fill:url(#radial-gradient-13);}.cls-20{fill:#0d2042;}.cls-21{fill:#32327c;}.cls-22{fill:url(#radial-gradient-14);}.cls-24{fill:url(#radial-gradient-15);}.cls-25{fill:url(#radial-gradient-16);}.cls-26{fill:url(#radial-gradient-17);}.cls-27{fill:url(#radial-gradient-18);}.cls-28{fill:url(#radial-gradient-19);}.cls-29{fill:url(#radial-gradient-20);}.cls-30{fill:url(#radial-gradient-21);}.cls-31{fill:url(#radial-gradient-22);}.cls-32{fill:#0087cb;}.cls-33{fill:url(#radial-gradient-23);}.cls-34{fill:url(#radial-gradient-24);}.cls-35{fill:url(#radial-gradient-25);}.cls-36{fill:url(#radial-gradient-26);}.cls-37{fill:url(#radial-gradient-27);}.cls-38{fill:url(#radial-gradient-28);}.cls-39{fill:url(#radial-gradient-29);}.cls-40{fill:url(#radial-gradient-30);}.cls-41{fill:url(#radial-gradient-31);}.cls-42{fill:url(#radial-gradient-32);}.cls-43{fill:url(#radial-gradient-33);}.cls-44{fill:url(#radial-gradient-34);}.cls-45{fill:url(#radial-gradient-35);}.cls-46{fill:url(#radial-gradient-36);}.cls-47{fill:url(#radial-gradient-37);}.cls-48{fill:url(#radial-gradient-38);}.cls-49{fill:url(#radial-gradient-39);}.cls-50{fill:url(#radial-gradient-40);}.cls-51{fill:url(#radial-gradient-41);}.cls-52{fill:url(#radial-gradient-42);}.cls-53{fill:url(#radial-gradient-43);}.cls-54{fill:url(#radial-gradient-44);}.cls-55{fill:url(#radial-gradient-45);}.cls-56{fill:url(#radial-gradient-46);}.cls-57{fill:url(#radial-gradient-47);}.cls-58{fill:url(#radial-gradient-48);}.cls-59{fill:url(#radial-gradient-49);}.cls-60{fill:url(#radial-gradient-50);}.cls-61{fill:url(#radial-gradient-51);}.cls-62{fill:url(#radial-gradient-52);}.cls-63{fill:url(#radial-gradient-53);}.cls-64{fill:url(#radial-gradient-54);}.cls-65{fill:url(#radial-gradient-55);}.cls-66{fill:url(#radial-gradient-56);}.cls-67{fill:url(#radial-gradient-57);}.cls-68{fill:url(#radial-gradient-58);}.cls-69{fill:url(#radial-gradient-59);}.cls-70{fill:url(#radial-gradient-60);}.cls-71{fill:url(#radial-gradient-61);}.cls-72{fill:url(#radial-gradient-62);}.cls-73{fill:url(#radial-gradient-63);}.cls-74{fill:url(#radial-gradient-64);}.cls-75{fill:url(#radial-gradient-65);}.cls-76{fill:url(#radial-gradient-66);}.cls-77{fill:#8666dd;}</style><radialGradient id="radial-gradient" cx="331.59" cy="-5876.74" r="68.41" gradientTransform="translate(0 1355.7) scale(1 0.19)" gradientUnits="userSpaceOnUse"><stop offset="0" stop-color="#3a4648"/><stop offset="1" stop-color="#fff" stop-opacity="0"/></radialGradient><radialGradient id="radial-gradient-2" cx="330.06" cy="106.44" r="93.26" gradientTransform="translate(0 -48.9) scale(1 0.96)" gradientUnits="userSpaceOnUse"><stop offset="0" stop-color="#fff"/><stop offset="1" stop-color="#4e4e91"/></radialGradient><radialGradient id="radial-gradient-3" cx="331.4" cy="147.31" r="12.75" gradientTransform="matrix(1, 0, 0, 1, 0, 0)" xlink:href="#radial-gradient-2"/><radialGradient id="radial-gradient-4" cx="328.69" cy="120.48" r="40.2" gradientUnits="userSpaceOnUse"><stop offset="0" stop-color="#182442"/><stop offset="1" stop-color="#33215d"/></radialGradient><radialGradient id="radial-gradient-5" cx="285.07" cy="134.84" r="38.34" gradientTransform="matrix(1, 0, 0, 1, 0, 0)" xlink:href="#radial-gradient-2"/><radialGradient id="radial-gradient-6" cx="305.49" cy="163.58" r="14.56" gradientTransform="matrix(1, 0, 0, 1, 0, 0)" xlink:href="#radial-gradient-2"/><radialGradient id="radial-gradient-7" cx="305.49" cy="163.58" r="14.56" gradientTransform="matrix(1, 0, 0, 1, 0, 0)" xlink:href="#radial-gradient-2"/><radialGradient id="radial-gradient-8" cx="301.79" cy="160.55" r="16.86" gradientTransform="matrix(1, 0, 0, 1, 0, 0)" xlink:href="#radial-gradient-2"/><radialGradient id="radial-gradient-9" cx="503.86" cy="134.84" r="38.34" gradientTransform="matrix(-1, 0, 0, 1, 882.13, 0)" xlink:href="#radial-gradient-2"/><radialGradient id="radial-gradient-10" cx="524.28" cy="163.58" r="14.56" gradientTransform="matrix(-1, 0, 0, 1, 882.13, 0)" xlink:href="#radial-gradient-2"/><radialGradient id="radial-gradient-11" cx="524.28" cy="163.58" r="14.56" gradientTransform="matrix(-1, 0, 0, 1, 882.13, 0)" xlink:href="#radial-gradient-2"/><radialGradient id="radial-gradient-12" cx="361.54" cy="160.55" r="16.86" gradientTransform="matrix(1, 0, 0, 1, 0, 0)" xlink:href="#radial-gradient-2"/><radialGradient id="radial-gradient-13" cx="332.55" cy="155.71" r="32.7" gradientTransform="matrix(1, 0, 0, 1, 0, 0)" xlink:href="#radial-gradient-2"/><radialGradient id="radial-gradient-14" cx="332.02" cy="156.54" r="11.51" gradientTransform="matrix(1, 0, 0, 1, 0, 0)" xlink:href="#radial-gradient-2"/><radialGradient id="radial-gradient-15" cx="317.84" cy="176.8" r="9.35" gradientTransform="matrix(1, 0, 0, 1, 0, 0)" xlink:href="#radial-gradient-2"/><radialGradient id="radial-gradient-16" cx="346.34" cy="176.24" r="8.85" gradientTransform="matrix(1, 0, 0, 1, 0, 0)" xlink:href="#radial-gradient-2"/><radialGradient id="radial-gradient-17" cx="206.67" cy="300.68" r="44.13" gradientTransform="matrix(1.06, 0, 0.17, 0.84, 32.61, -57.54)" xlink:href="#radial-gradient-2"/><radialGradient id="radial-gradient-18" cx="311.36" cy="207.4" r="20.52" gradientTransform="matrix(1, 0, 0, 1, 0, 0)" xlink:href="#radial-gradient-2"/><radialGradient id="radial-gradient-19" cx="289.15" cy="226.8" r="3.7" gradientTransform="matrix(1, 0, 0, 1, 0, 0)" xlink:href="#radial-gradient-2"/><radialGradient id="radial-gradient-20" cx="214.44" cy="300.64" r="44.13" gradientTransform="matrix(-1.06, 0, -0.17, 0.84, 639.3, -57.54)" xlink:href="#radial-gradient-2"/><radialGradient id="radial-gradient-21" cx="352.31" cy="207.4" r="20.52" gradientTransform="matrix(1, 0, 0, 1, 0, 0)" xlink:href="#radial-gradient-2"/><radialGradient id="radial-gradient-22" cx="374.52" cy="226.8" r="3.7" gradientTransform="matrix(1, 0, 0, 1, 0, 0)" xlink:href="#radial-gradient-2"/><radialGradient id="radial-gradient-23" cx="68.19" cy="-5854.88" r="68.19" xlink:href="#radial-gradient"/><radialGradient id="radial-gradient-24" cx="66.66" cy="111.38" r="92.97" xlink:href="#radial-gradient-2"/><radialGradient id="radial-gradient-25" cx="67.99" cy="151.76" r="12.71" gradientTransform="matrix(1, 0, 0, 1, 0, 0)" xlink:href="#radial-gradient-2"/><radialGradient id="radial-gradient-26" cx="65.3" cy="125.02" r="40.07" xlink:href="#radial-gradient-4"/><radialGradient id="radial-gradient-27" cx="21.81" cy="139.33" r="38.22" gradientTransform="matrix(1, 0, 0, 1, 0, 0)" xlink:href="#radial-gradient-2"/><radialGradient id="radial-gradient-28" cx="42.17" cy="167.97" r="14.51" gradientTransform="matrix(1, 0, 0, 1, 0, 0)" xlink:href="#radial-gradient-2"/><radialGradient id="radial-gradient-29" cx="42.17" cy="167.97" r="14.51" gradientTransform="matrix(1, 0, 0, 1, 0, 0)" xlink:href="#radial-gradient-2"/><radialGradient id="radial-gradient-30" cx="38.48" cy="164.96" r="16.81" gradientTransform="matrix(1, 0, 0, 1, 0, 0)" xlink:href="#radial-gradient-2"/><radialGradient id="radial-gradient-31" cx="767.42" cy="139.33" r="38.22" gradientTransform="matrix(-1, 0, 0, 1, 882.13, 0)" xlink:href="#radial-gradient-2"/><radialGradient id="radial-gradient-32" cx="787.77" cy="167.97" r="14.51" gradientTransform="matrix(-1, 0, 0, 1, 882.13, 0)" xlink:href="#radial-gradient-2"/><radialGradient id="radial-gradient-33" cx="787.77" cy="167.97" r="14.51" gradientTransform="matrix(-1, 0, 0, 1, 882.13, 0)" xlink:href="#radial-gradient-2"/><radialGradient id="radial-gradient-34" cx="98.04" cy="164.96" r="16.81" gradientTransform="matrix(1, 0, 0, 1, 0, 0)" xlink:href="#radial-gradient-2"/><radialGradient id="radial-gradient-35" cx="69.14" cy="160.13" r="32.6" gradientTransform="matrix(1, 0, 0, 1, 0, 0)" xlink:href="#radial-gradient-2"/><radialGradient id="radial-gradient-36" cx="68.62" cy="160.96" r="11.47" gradientTransform="matrix(1, 0, 0, 1, 0, 0)" xlink:href="#radial-gradient-2"/><radialGradient id="radial-gradient-37" cx="54.48" cy="181.15" r="9.32" gradientTransform="matrix(1, 0, 0, 1, 0, 0)" xlink:href="#radial-gradient-2"/><radialGradient id="radial-gradient-38" cx="82.89" cy="180.59" r="8.83" gradientTransform="matrix(1, 0, 0, 1, 0, 0)" xlink:href="#radial-gradient-2"/><radialGradient id="radial-gradient-39" cx="-42.46" cy="307.19" r="43.99" gradientTransform="matrix(1.06, 0, 0.17, 0.84, 32.61, -57.54)" xlink:href="#radial-gradient-2"/><radialGradient id="radial-gradient-40" cx="48.02" cy="211.66" r="20.46" gradientTransform="matrix(1, 0, 0, 1, 0, 0)" xlink:href="#radial-gradient-2"/><radialGradient id="radial-gradient-41" cx="25.88" cy="231" r="3.69" gradientTransform="matrix(1, 0, 0, 1, 0, 0)" xlink:href="#radial-gradient-2"/><radialGradient id="radial-gradient-42" cx="462.04" cy="304.42" r="43.99" gradientTransform="matrix(-1.06, 0, -0.17, 0.84, 639.3, -57.54)" xlink:href="#radial-gradient-2"/><radialGradient id="radial-gradient-43" cx="88.84" cy="211.66" r="20.46" gradientTransform="matrix(1, 0, 0, 1, 0, 0)" xlink:href="#radial-gradient-2"/><radialGradient id="radial-gradient-44" cx="110.98" cy="231" r="3.69" gradientTransform="matrix(1, 0, 0, 1, 0, 0)" xlink:href="#radial-gradient-2"/><radialGradient id="radial-gradient-45" cx="202.16" cy="-5334.87" r="113.09" xlink:href="#radial-gradient"/><radialGradient id="radial-gradient-46" cx="199.63" cy="93.07" r="154.17" xlink:href="#radial-gradient-2"/><radialGradient id="radial-gradient-47" cx="201.84" cy="195.97" r="21.08" gradientTransform="matrix(1, 0, 0, 1, 0, 0)" xlink:href="#radial-gradient-2"/><radialGradient id="radial-gradient-48" cx="197.37" cy="151.62" r="66.45" xlink:href="#radial-gradient-4"/><radialGradient id="radial-gradient-49" cx="125.25" cy="175.36" r="63.38" gradientTransform="matrix(1, 0, 0, 1, 0, 0)" xlink:href="#radial-gradient-2"/><radialGradient id="radial-gradient-50" cx="159.01" cy="222.86" r="24.06" gradientTransform="matrix(1, 0, 0, 1, 0, 0)" xlink:href="#radial-gradient-2"/><radialGradient id="radial-gradient-51" cx="159.01" cy="222.86" r="24.06" gradientTransform="matrix(1, 0, 0, 1, 0, 0)" xlink:href="#radial-gradient-2"/><radialGradient id="radial-gradient-52" cx="152.9" cy="217.86" r="27.87" gradientTransform="matrix(1, 0, 0, 1, 0, 0)" xlink:href="#radial-gradient-2"/><radialGradient id="radial-gradient-53" cx="602.82" cy="175.36" r="63.38" gradientTransform="matrix(-1, 0, 0, 1, 882.13, 0)" xlink:href="#radial-gradient-2"/><radialGradient id="radial-gradient-54" cx="636.57" cy="222.86" r="24.06" gradientTransform="matrix(-1, 0, 0, 1, 882.13, 0)" xlink:href="#radial-gradient-2"/><radialGradient id="radial-gradient-55" cx="636.57" cy="222.86" r="24.06" gradientTransform="matrix(-1, 0, 0, 1, 882.13, 0)" xlink:href="#radial-gradient-2"/><radialGradient id="radial-gradient-56" cx="251.66" cy="217.86" r="27.87" gradientTransform="matrix(1, 0, 0, 1, 0, 0)" xlink:href="#radial-gradient-2"/><radialGradient id="radial-gradient-57" cx="203.74" cy="209.86" r="54.06" gradientTransform="matrix(1, 0, 0, 1, 0, 0)" xlink:href="#radial-gradient-2"/><radialGradient id="radial-gradient-58" cx="202.87" cy="211.23" r="19.03" gradientTransform="translate(303.4 -63.9) rotate(63.9)" xlink:href="#radial-gradient-2"/><radialGradient id="radial-gradient-59" cx="179.43" cy="244.72" r="15.46" gradientTransform="matrix(1, 0, 0, 1, 0, 0)" xlink:href="#radial-gradient-2"/><radialGradient id="radial-gradient-60" cx="226.55" cy="243.79" r="14.63" gradientTransform="matrix(1, 0, 0, 1, 0, 0)" xlink:href="#radial-gradient-2"/><radialGradient id="radial-gradient-61" cx="52.27" cy="396.82" r="72.96" gradientTransform="matrix(1.06, 0, 0.17, 0.84, 32.61, -57.54)" xlink:href="#radial-gradient-2"/><radialGradient id="radial-gradient-62" cx="168.71" cy="295.3" r="33.92" gradientTransform="matrix(1, 0, 0, 1, 0, 0)" xlink:href="#radial-gradient-2"/><radialGradient id="radial-gradient-63" cx="132" cy="327.37" r="6.12" gradientTransform="matrix(1, 0, 0, 1, 0, 0)" xlink:href="#radial-gradient-2"/><radialGradient id="radial-gradient-64" cx="303.82" cy="395.44" r="72.96" gradientTransform="matrix(-1.06, 0, -0.17, 0.84, 639.3, -57.54)" xlink:href="#radial-gradient-2"/><radialGradient id="radial-gradient-65" cx="236.41" cy="295.3" r="33.92" gradientTransform="matrix(1, 0, 0, 1, 0, 0)" xlink:href="#radial-gradient-2"/><radialGradient id="radial-gradient-66" cx="273.12" cy="327.37" r="6.12" gradientTransform="matrix(1, 0, 0, 1, 0, 0)" xlink:href="#radial-gradient-2"/></defs><g class="cls-1"><g id="Layer_1" data-name="Layer 1"><g class="cls-2"><ellipse class="cls-3" cx="331.6" cy="231.5" rx="68.4" ry="13.1"/><path class="cls-4" d="M303.5,143.2c-3.7-1.4-23.9-41.4-18.9-58.5s24.5-29.2,46.1-29.8S375,71.2,378,84.6s-14.6,56.1-17.7,58.6S322.5,150.9,303.5,143.2Z"/><path class="cls-5" d="M342,135.9c-18.3-2-39.8,2.1-38.5,7.3,19,7.7,53.6,2.5,56.8,0C361.4,140.9,360.4,138,342,135.9Z"/><path class="cls-6" d="M338.2,138c-11.3-1.3-24.6,1.3-23.8,4.5,11.7,4.8,33.1,1.6,35.1,0S349.6,139.3,338.2,138Z"/><path class="cls-7" d="M304.3,130.8c-2-1.2-15.9-30.4-14.8-41.6s19.6-27.7,21.7-27.1,7.7,4.8,8.7,5.1,20.8.6,22-.3,8.8-5.1,10.1-5.1,22.7,16.4,20.9,29.6-13.3,39.5-14.1,39.8-13.6-2.6-27.4-2.6S305.8,131.6,304.3,130.8Z"/><path class="cls-5" d="M323.7,81.8c-20.9,4.9-27.5,18-27.9,32.1,3.6,8.8,7.5,16.3,8.5,16.9s14.1-2.2,27.1-2.2,27,2.8,27.4,2.6,5.3-10.7,9.2-21.8C363.9,90.9,350.8,75.5,323.7,81.8Z"/><ellipse class="cls-8" cx="310.4" cy="96.7" rx="10.6" ry="13.3" transform="translate(-11.7 140.6) rotate(-25.1)"/><ellipse class="cls-9" cx="310.4" cy="96.7" rx="9.3" ry="11.7" transform="translate(-11.7 140.6) rotate(-25.1)"/><ellipse class="cls-8" cx="352.7" cy="96.7" rx="13.3" ry="10.6" transform="translate(115.8 375.3) rotate(-64.9)"/><ellipse class="cls-9" cx="352.7" cy="96.7" rx="11.7" ry="9.3" transform="translate(115.8 375.3) rotate(-64.9)"/><path class="cls-9" d="M342.7,111.3a55.1,55.1,0,0,1-18.5,2.9.8.8,0,0,0-.1,1.5,57.9,57.9,0,0,0,19.3-3.2c.9-.3.2-1.6-.7-1.2Z"/><path class="cls-10" d="M308.4,159.4c0-.3,8.7-8,8.3-10.2-.1-.7-1.5-7.7-4.3-7.6s-24.7,12.6-25.5,18.8,10.6,12,13.9,13.7c-.7-.2-1.5-.2-1,1.5s9.7,5.1,11.4,2.2,3.4-12,2.2-14.3S308.5,159.8,308.4,159.4Z"/><path class="cls-11" d="M287.4,159a4.8,4.8,0,0,0-.5,1.4,3.2,3.2,0,0,0,.3,1.9c2.7-3.7,8.8-5.8,21.2-2.9C308.4,159.4,294.2,153.5,287.4,159Z"/><ellipse class="cls-11" cx="291.2" cy="159.1" rx="4.4" ry="2.5" transform="translate(7.8 331.7) rotate(-60)"/><path class="cls-12" d="M300,174h0Z"/><path class="cls-13" d="M310.5,160.8c-1.2,2.7-5,10.6-13.1,11.3l3.4,2s6.2,3.8,9.9-.1a12.4,12.4,0,0,0,3.1-7.1,6.6,6.6,0,0,0-.4-3.4A9.4,9.4,0,0,0,310.5,160.8Z"/><path class="cls-14" d="M308.4,159.4c0-.3,8.7-8,8.3-10.2-.1-.6-1.1-5.8-3.2-7.3,1.4,4.4,1.2,8.5.5,9.8s-11,6.1-11.2,6.1-8.6-.4-7.3.2,7.3-.8,13.2,4-15.6,8.1-21.8-1.1c0,5.2,10.7,11.5,13.9,13.2-.7-.2-1.5-.2-1,1.5s9.7,5.1,11.4,2.2,3.4-12,2.2-14.3S308.5,159.8,308.4,159.4Z"/><path class="cls-15" d="M354.9,159.4c.1-.3-8.6-8-8.3-10.2.2-.7,1.5-7.7,4.4-7.6s24.6,12.6,25.4,18.8-10.6,12-13.8,13.7c.7-.2,1.5-.2.9,1.5s-9.6,5.1-11.4,2.2-3.4-12-2.2-14.3S354.8,159.8,354.9,159.4Z"/><path class="cls-11" d="M375.9,159a4.8,4.8,0,0,1,.5,1.4,4.1,4.1,0,0,1-.2,1.9c-2.8-3.7-8.8-5.8-21.3-2.9C354.9,159.4,369.2,153.5,375.9,159Z"/><ellipse class="cls-11" cx="372.1" cy="159.1" rx="2.5" ry="4.4" transform="translate(-29.7 207.4) rotate(-30)"/><path class="cls-16" d="M363.4,174h0Z"/><path class="cls-17" d="M352.9,160.8c1.1,2.7,4.9,10.6,13,11.3l-3.3,2s-6.3,3.8-10-.1c-1.8-1.8-2.7-4.6-3.1-7.1a9.8,9.8,0,0,1,.4-3.4A8.7,8.7,0,0,1,352.9,160.8Z"/><path class="cls-18" d="M354.9,159.4c.1-.3-8.6-8-8.3-10.2.2-.6,1.2-5.8,3.3-7.3-1.5,4.4-1.3,8.5-.6,9.8s11,6.1,11.2,6.1,8.6-.4,7.3.2-7.3-.8-13.2,4,15.7,8.1,21.8-1.1c0,5.2-10.7,11.5-13.8,13.2.7-.2,1.5-.2.9,1.5s-9.6,5.1-11.4,2.2-3.4-12-2.2-14.3S354.8,159.8,354.9,159.4Z"/><path class="cls-19" d="M316.6,142.2c-.2.3-7.8,26.7-5.4,31.2S324,186.5,328.1,187s8.4.4,9.8-.4,13.9-11.7,14.4-16.4-4.7-26.8-5.6-28.5S323.9,136.1,316.6,142.2Z"/><path class="cls-20" d="M312.5,157.9a2.9,2.9,0,0,1-.2.9,100.5,100.5,0,0,1,12-2.1,97.5,97.5,0,0,1,16.2-.5,85.2,85.2,0,0,1,10,1.2c0-.2-.1-.5-.1-.8a69.3,69.3,0,0,0-7.8-1,82.7,82.7,0,0,0-16.5.1A106.9,106.9,0,0,0,312.5,157.9Z"/><circle class="cls-21" cx="332" cy="156.5" r="12.3" transform="translate(154.9 478) rotate(-86.4)"/><circle class="cls-22" cx="332" cy="156.5" r="11.5"/><circle class="cls-21" cx="331.3" cy="157" r="9.1"/><g class="cls-23"><path class="cls-24" d="M310.8,172.3a3.6,3.6,0,0,0,.4,1.1c1.8,3.4,8.2,9.1,13,12-3.6-5.1-8.9-11.6-12.8-13Z"/><path class="cls-25" d="M351.8,171.7c-3.3,1.4-8.1,7.8-11.5,13C343.8,181.6,350.1,175.6,351.8,171.7Z"/></g><path class="cls-26" d="M309.2,174.4c-2.8-.1-24.5,53.6-20.5,56.8s16.1,1.9,17.7,1.1,11.5-16.4,15.2-24.3,3.3-21.1,2.2-23S312.7,174.5,309.2,174.4Z"/><g class="cls-23"><path class="cls-27" d="M323.8,185a30.2,30.2,0,0,0-3.3-3.4c1.3,3,2.2,5.5,2,6.9-.6,5.5-15.9,35.5-24.4,44.7a26.1,26.1,0,0,0,8.3-.9c1.5-.8,11.5-16.4,15.2-24.3S324.9,186.9,323.8,185Z"/><path class="cls-28" d="M289.6,221.6c-1.3,5.2-1.8,8.8-.9,9.6l1.4.8C289.5,229.4,289.5,225.8,289.6,221.6Z"/></g><path class="cls-11" d="M323.9,200.1a1.4,1.4,0,0,0-.8-.7c-1.1-.3-2.7,1.1-3.9,3.4a36.2,36.2,0,0,0-6.8-4.1,42.3,42.3,0,0,0-10.9-3.6l-2.4-.4-.3.8h1.1a44.8,44.8,0,0,1,10.8,3.2,51.2,51.2,0,0,1,8.2,4.7,7.8,7.8,0,0,0-.5,1.4c-1.2,3.5-1,6.7.4,7.2h.7c.8-1.5,1.6-2.9,2.1-4.1A27.9,27.9,0,0,0,323.9,200.1Z"/><path class="cls-29" d="M354.5,174.4c2.8-.1,24.4,53.6,20.5,56.8s-16.1,1.9-17.7,1.1S345.8,215.9,342,208s-3.2-21.1-2.1-23S350.9,174.5,354.5,174.4Z"/><g class="cls-23"><path class="cls-30" d="M339.9,185a18.6,18.6,0,0,1,3.3-3.4c-1.4,3-2.2,5.5-2,6.9.5,5.5,15.8,35.5,24.3,44.7a25.7,25.7,0,0,1-8.2-.9c-1.6-.8-11.5-16.4-15.3-24.3S338.8,186.9,339.9,185Z"/><path class="cls-31" d="M374,221.6c1.4,5.2,1.9,8.8,1,9.6l-1.4.8A47,47,0,0,0,374,221.6Z"/></g><path class="cls-11" d="M339.8,200.1a1.6,1.6,0,0,1,.7-.7c1.2-.3,2.7,1.1,3.9,3.4a40.5,40.5,0,0,1,6.9-4.1,41.1,41.1,0,0,1,10.9-3.6l2.4-.4.3.8h-1.2a44,44,0,0,0-10.7,3.2,47.2,47.2,0,0,0-8.2,4.7,7.8,7.8,0,0,1,.5,1.4c1.2,3.5,1,6.7-.5,7.2h-.7L342,208A27.9,27.9,0,0,1,339.8,200.1Z"/><path class="cls-8" d="M330.1,155.3h4.2s2.1-1.2,2.1-2.6h2s.8,1.9-3.3,4.2c0,0-2.8,2.1-3,3.4h-2.3a5.5,5.5,0,0,1,2.4-3.4h-3.8Z"/><path class="cls-32" d="M333.5,159.4l1.2-1.3h1.6v5h-7.9s-5.2-.1-4.3-4.7,7.8-7.7,7.8-7.7,4.1-1.1,2.5.8c0,0-4.1,3.2-4.8,3.9s-4.4,3-3.4,5.1a3.1,3.1,0,0,0,2.4.8h6.2v-1.9Z"/></g><g class="cls-2"><ellipse class="cls-33" cx="68.2" cy="235.7" rx="68.2" ry="13"/><path class="cls-34" d="M40.2,147.7c-3.7-1.5-23.9-41.3-18.9-58.3s24.4-29.1,46-29.8,44.2,16.3,47.1,29.7-14.5,55.9-17.6,58.4S59.1,155.3,40.2,147.7Z"/><path class="cls-5" d="M78.6,140.4c-18.3-2-39.7,2.1-38.4,7.3,18.9,7.6,53.5,2.5,56.6,0C97.9,145.4,96.9,142.5,78.6,140.4Z"/><path class="cls-35" d="M74.8,142.5c-11.3-1.3-24.6,1.2-23.8,4.5,11.8,4.7,33.1,1.5,35,0S86.1,143.7,74.8,142.5Z"/><path class="cls-36" d="M41,135.3c-2-1.2-15.9-30.3-14.7-41.5S45.7,66.2,47.9,66.9s7.6,4.7,8.6,5,20.8.6,21.9-.3,8.9-5.1,10.2-5.1S111.2,82.9,109.4,96s-13.3,39.4-14.1,39.7-13.6-2.6-27.3-2.6S42.5,136.1,41,135.3Z"/><path class="cls-5" d="M60.3,86.5c-20.8,4.8-27.4,17.9-27.8,31.9,3.6,8.8,7.5,16.3,8.5,16.9s14-2.2,27-2.2,26.9,2.8,27.3,2.6,5.3-10.7,9.1-21.7C100.4,95.5,87.3,80.2,60.3,86.5Z"/><ellipse class="cls-8" cx="47.1" cy="101.3" rx="10.6" ry="13.3" transform="translate(-38.5 29.5) rotate(-25.1)"/><ellipse class="cls-9" cx="47.1" cy="101.3" rx="9.3" ry="11.7" transform="translate(-38.5 29.5) rotate(-25.1)"/><ellipse class="cls-8" cx="89.3" cy="101.3" rx="13.3" ry="10.6" transform="translate(-40.3 139.3) rotate(-64.9)"/><ellipse class="cls-9" cx="89.3" cy="101.3" rx="11.7" ry="9.3" transform="translate(-40.3 139.3) rotate(-64.9)"/><path class="cls-9" d="M79.3,115.8a52.8,52.8,0,0,1-18.5,3c-.9,0-1.1,1.4-.1,1.4a57.2,57.2,0,0,0,19.2-3.1c.9-.3.3-1.6-.6-1.3Z"/><path class="cls-37" d="M45.1,163.9c-.1-.4,8.6-8.1,8.2-10.2S51.9,146,49,146s-24.5,12.6-25.3,18.8,10.5,11.9,13.8,13.7c-.7-.3-1.5-.3-1,1.5s9.6,5,11.3,2.1,3.5-11.9,2.3-14.2S45.2,164.2,45.1,163.9Z"/><path class="cls-11" d="M24.1,163.4a4.3,4.3,0,0,0-.4,1.4,4.1,4.1,0,0,0,.2,1.9c2.7-3.6,8.8-5.7,21.2-2.8C45.1,163.9,30.9,158,24.1,163.4Z"/><ellipse class="cls-11" cx="27.9" cy="163.5" rx="4.4" ry="2.5" transform="translate(-127.6 105.9) rotate(-60)"/><path class="cls-38" d="M36.7,178.4h.8A1.2,1.2,0,0,0,36.7,178.4Z"/><path class="cls-39" d="M47.1,165.2c-1.1,2.7-4.9,10.6-13,11.3l3.4,2s6.2,3.7,9.9-.1a13.4,13.4,0,0,0,3.1-7.1,9.8,9.8,0,0,0-.4-3.4A9.7,9.7,0,0,0,47.1,165.2Z"/><path class="cls-40" d="M45.1,163.9c-.1-.4,8.6-8.1,8.2-10.2-.1-.6-1.1-5.9-3.2-7.3,1.5,4.3,1.3,8.4.6,9.7s-11,6.1-11.2,6.1-8.6-.4-7.3.2,7.3-.8,13.2,4-15.6,8-21.8-1.1c.1,5.2,10.7,11.5,13.9,13.2-.7-.3-1.5-.3-1,1.5s9.6,5,11.3,2.1,3.5-11.9,2.3-14.2S45.2,164.2,45.1,163.9Z"/><path class="cls-41" d="M91.4,163.9c.1-.4-8.6-8.1-8.2-10.2s1.5-7.7,4.3-7.7,24.6,12.6,25.4,18.8-10.6,11.9-13.8,13.7c.7-.3,1.5-.3.9,1.5s-9.6,5-11.3,2.1-3.5-11.9-2.2-14.2S91.4,164.2,91.4,163.9Z"/><path class="cls-11" d="M112.4,163.4a12.1,12.1,0,0,1,.5,1.4,4.2,4.2,0,0,1-.3,1.9c-2.7-3.6-8.8-5.7-21.2-2.8C91.4,163.9,105.6,158,112.4,163.4Z"/><ellipse class="cls-11" cx="108.6" cy="163.5" rx="2.5" ry="4.4" transform="translate(-67.2 76.2) rotate(-30)"/><path class="cls-42" d="M99.8,178.4h-.7A.9.9,0,0,1,99.8,178.4Z"/><path class="cls-43" d="M89.4,165.2c1.1,2.7,5,10.6,13,11.3l-3.3,2s-6.3,3.7-10-.1a12.6,12.6,0,0,1-3-7.1,6.6,6.6,0,0,1,.4-3.4A8.4,8.4,0,0,1,89.4,165.2Z"/><path class="cls-44" d="M91.4,163.9c.1-.4-8.6-8.1-8.2-10.2.1-.6,1.1-5.9,3.2-7.3-1.5,4.3-1.2,8.4-.5,9.7s10.9,6.1,11.1,6.1,8.6-.4,7.3.2-7.3-.8-13.1,4,15.5,8,21.7-1.1c-.1,5.2-10.7,11.5-13.8,13.2.7-.3,1.5-.3.9,1.5s-9.6,5-11.3,2.1-3.5-11.9-2.2-14.2S91.4,164.2,91.4,163.9Z"/><path class="cls-45" d="M53.3,146.7c-.3.2-7.9,26.6-5.5,31.1s12.8,13,16.9,13.5,8.4.4,9.8-.3,13.8-11.7,14.3-16.4-4.7-26.8-5.6-28.4S60.5,140.6,53.3,146.7Z"/><path class="cls-20" d="M49.2,162.3a2.9,2.9,0,0,0-.2.9,118.4,118.4,0,0,1,11.9-2.1,86.9,86.9,0,0,1,16.1-.4,84.4,84.4,0,0,1,10.1,1.2c-.1-.3-.1-.6-.2-.9-2.6-.4-5.2-.8-7.8-1a88.8,88.8,0,0,0-16.3.1A101.5,101.5,0,0,0,49.2,162.3Z"/><circle class="cls-21" cx="68.6" cy="161" r="12.3" transform="translate(-96.3 219.3) rotate(-86.4)"/><circle class="cls-46" cx="68.6" cy="161" r="11.5"/><circle class="cls-21" cx="67.9" cy="161.4" r="9.1"/><g class="cls-23"><path class="cls-47" d="M47.5,176.6l.3,1.2c1.9,3.3,8.2,9.1,13,11.9-3.6-5-8.9-11.6-12.8-12.9Z"/><path class="cls-48" d="M88.3,176.1c-3.3,1.3-8,7.7-11.4,12.9C80.4,186,86.6,180,88.3,176.1Z"/></g><path class="cls-49" d="M45.9,178.7c-2.8-.1-24.4,53.5-20.5,56.6s16.1,2,17.6,1.2,11.5-16.3,15.3-24.2,3.2-21.1,2.1-23S49.4,178.9,45.9,178.7Z"/><g class="cls-23"><path class="cls-50" d="M60.4,189.3a23,23,0,0,0-3.3-3.4c1.4,3,2.2,5.5,2,6.9-.5,5.5-15.8,35.4-24.3,44.6,3.9,0,7.4-.5,8.2-.9s11.5-16.3,15.3-24.2S61.5,191.2,60.4,189.3Z"/><path class="cls-51" d="M26.4,225.9c-1.4,5-1.9,8.7-1,9.4l1.4.8A45.4,45.4,0,0,1,26.4,225.9Z"/></g><path class="cls-11" d="M60.5,204.4a1.6,1.6,0,0,0-.7-.7c-1.2-.4-2.7,1.1-3.9,3.4a54.3,54.3,0,0,0-6.8-4.2,46.2,46.2,0,0,0-10.9-3.5l-2.4-.4-.3.8h1.1a46.2,46.2,0,0,1,10.8,3.2,36.4,36.4,0,0,1,8.1,4.7c-.2.4-.3.9-.5,1.3-1.2,3.5-1,6.7.5,7.2h.7c.8-1.4,1.5-2.8,2.1-4A31.6,31.6,0,0,0,60.5,204.4Z"/><path class="cls-52" d="M91,178.7c2.8-.1,24.4,53.5,20.4,56.6s-16,2-17.6,1.2-11.5-16.3-15.2-24.2-3.2-21.1-2.1-23S87.5,178.9,91,178.7Z"/><g class="cls-23"><path class="cls-53" d="M76.5,189.3a18.6,18.6,0,0,1,3.3-3.4c-1.4,3-2.2,5.5-2.1,6.9.6,5.5,15.8,35.4,24.3,44.6-3.8,0-7.4-.5-8.2-.9s-11.5-16.3-15.2-24.2S75.4,191.2,76.5,189.3Z"/><path class="cls-54" d="M110.5,225.9c1.3,5,1.9,8.7.9,9.4a5.7,5.7,0,0,1-1.3.8A45.4,45.4,0,0,0,110.5,225.9Z"/></g><path class="cls-11" d="M76.3,204.4a1.8,1.8,0,0,1,.8-.7c1.1-.4,2.7,1.1,3.9,3.4a42.9,42.9,0,0,1,6.8-4.2,44.8,44.8,0,0,1,10.9-3.5l2.3-.4a2,2,0,0,1,.4.8h-1.2a44,44,0,0,0-10.7,3.2,39.5,39.5,0,0,0-8.2,4.7l.6,1.3c1.1,3.5.9,6.7-.5,7.2h-.7c-.8-1.4-1.5-2.8-2.1-4A31.6,31.6,0,0,1,76.3,204.4Z"/><path class="cls-8" d="M66.7,159.7h4.2s2.1-1.2,2.1-2.6h2s.8,2-3.3,4.2c0,0-2.8,2.1-3,3.4H66.4a5.5,5.5,0,0,1,2.4-3.4H65Z"/><path class="cls-32" d="M70,163.8l1.3-1.3h1.6v5H65s-5.2-.1-4.3-4.7,7.8-7.7,7.8-7.7,4-1.1,2.5.8l-4.8,3.9s-4.4,3-3.3,5.1a2.8,2.8,0,0,0,2.3.8h6.2v-1.9Z"/></g><ellipse class="cls-55" cx="202.2" cy="335.2" rx="113.1" ry="21.6"/><path class="cls-56" d="M155.7,189.3c-6.1-2.5-39.5-68.5-31.3-96.8s40.5-48.3,76.3-49.3S274,70.1,278.8,92.3s-24.1,92.8-29.3,97S187.2,201.9,155.7,189.3Z"/><path class="cls-5" d="M219.4,177.2c-30.3-3.4-65.9,3.4-63.7,12.1,31.5,12.6,88.7,4.1,93.8,0C251.4,185.5,249.8,180.6,219.4,177.2Z"/><path class="cls-57" d="M213.1,180.6c-18.8-2.1-40.7,2.1-39.4,7.5,19.5,7.8,54.8,2.5,58,0C232.9,185.7,231.9,182.7,213.1,180.6Z"/><path class="cls-58" d="M157,168.6c-3.3-1.9-26.3-50.2-24.4-68.7s32.3-45.8,35.8-44.7,12.8,7.8,14.4,8.3,34.5,1,36.4-.5,14.6-8.3,16.8-8.3,37.4,27,34.4,48.9-21.9,65.3-23.3,65.8-22.5-4.4-45.3-4.4S159.5,170,157,168.6Z"/><path class="cls-5" d="M189.1,87.7c-34.5,8-45.5,29.7-46.1,53,5.9,14.5,12.4,26.9,14,27.9s23.3-3.6,44.8-3.6,44.6,4.6,45.3,4.4,8.7-17.8,15.2-36.1C255.6,102.8,233.9,77.3,189.1,87.7Z"/><ellipse class="cls-8" cx="167.1" cy="112.3" rx="17.5" ry="22" transform="translate(-31.8 81.4) rotate(-25.1)"/><ellipse class="cls-9" cx="167.1" cy="112.3" rx="15.5" ry="19.4" transform="translate(-31.8 81.4) rotate(-25.1)"/><ellipse class="cls-8" cx="237.1" cy="112.3" rx="22" ry="17.5" transform="translate(35 279.5) rotate(-64.9)"/><ellipse class="cls-9" cx="237.1" cy="112.3" rx="19.4" ry="15.5" transform="translate(35 279.5) rotate(-64.9)"/><path class="cls-9" d="M220.6,136.4a91,91,0,0,1-30.7,4.9c-1.5,0-1.8,2.3-.2,2.3a93.1,93.1,0,0,0,31.9-5.1c1.5-.5.4-2.6-1-2.1Z"/><path class="cls-59" d="M163.9,216c-.1-.5,14.2-13.3,13.6-16.9-.2-1.1-2.4-12.7-7.1-12.6s-40.8,20.9-42.1,31.1,17.6,19.8,22.9,22.7c-1.1-.4-2.5-.4-1.6,2.5,1.4,4.8,16,8.3,18.8,3.5s5.7-19.8,3.7-23.5S164,216.6,163.9,216Z"/><path class="cls-11" d="M129.1,215.3a7.9,7.9,0,0,0-.8,2.3,7.2,7.2,0,0,0,.4,3.2c4.5-6.1,14.6-9.6,35.2-4.8C163.9,216,140.3,206.2,129.1,215.3Z"/><ellipse class="cls-11" cx="135.4" cy="215.4" rx="7.2" ry="4.2" transform="translate(-118.8 224.9) rotate(-60)"/><path class="cls-60" d="M149.9,240.2h1.3A2,2,0,0,0,149.9,240.2Z"/><path class="cls-61" d="M167.2,218.2c-1.8,4.6-8.2,17.6-21.6,18.8,2.3,1.5,4.4,2.6,5.6,3.3s10.3,6.2,16.5-.2c2.9-3.1,4.5-7.5,5.1-11.7.1-2.5-.1-4.5-.7-5.6A13.5,13.5,0,0,0,167.2,218.2Z"/><path class="cls-62" d="M163.9,216c-.1-.5,14.2-13.3,13.6-16.9-.2-1-1.8-9.7-5.3-12,2.4,7.1,2,14,.9,16.1s-18.2,10.1-18.6,10.1-14.2-.7-12,.3,12-1.3,21.8,6.7-25.8,13.3-36-1.9c.1,8.7,17.7,19.1,22.9,21.9-1.1-.4-2.5-.4-1.6,2.5,1.4,4.8,16,8.3,18.8,3.5s5.7-19.8,3.7-23.5S164,216.6,163.9,216Z"/><path class="cls-63" d="M240.7,216c.1-.5-14.3-13.3-13.6-16.9.2-1.1,2.4-12.7,7.1-12.6s40.7,20.9,42,31.1-17.5,19.8-22.9,22.7c1.2-.4,2.5-.4,1.7,2.5-1.5,4.8-16,8.3-18.9,3.5s-5.7-19.8-3.6-23.5S240.6,216.6,240.7,216Z"/><path class="cls-11" d="M275.4,215.3a5.8,5.8,0,0,1,.8,2.3,7.1,7.1,0,0,1-.3,3.2c-4.5-6.1-14.6-9.6-35.2-4.8C240.7,216,264.3,206.2,275.4,215.3Z"/><ellipse class="cls-11" cx="269.2" cy="215.4" rx="4.2" ry="7.2" transform="translate(-71.6 163.4) rotate(-30)"/><path class="cls-64" d="M254.7,240.2h-1.4C253.8,240.2,254.3,240,254.7,240.2Z"/><path class="cls-65" d="M237.3,218.2c1.9,4.6,8.3,17.6,21.6,18.8-2.3,1.5-4.3,2.6-5.6,3.3s-10.3,6.2-16.4-.2c-3-3.1-4.5-7.5-5.1-11.7-.1-2.5.1-4.5.7-5.6A13.2,13.2,0,0,1,237.3,218.2Z"/><path class="cls-66" d="M240.7,216c.1-.5-14.3-13.3-13.6-16.9.1-1,1.8-9.7,5.3-12-2.5,7.1-2.1,14-.9,16.1s18.2,10.1,18.5,10.1,14.2-.7,12.1.3-12.1-1.3-21.8,6.7,25.8,13.3,36-1.9c-.1,8.7-17.8,19.1-23,21.9,1.2-.4,2.5-.4,1.7,2.5-1.5,4.8-16,8.3-18.9,3.5s-5.7-19.8-3.6-23.5S240.6,216.6,240.7,216Z"/><path class="cls-67" d="M177.5,187.6c-.5.4-13.1,44.1-9.1,51.5s21.3,21.7,28,22.5,13.9.6,16.2-.6,22.9-19.4,23.7-27.2-7.7-44.3-9.2-47.1S189.4,177.5,177.5,187.6Z"/><path class="cls-20" d="M170.6,213.5l-.3,1.5a146.5,146.5,0,0,1,19.8-3.5,149,149,0,0,1,26.7-.8,155.3,155.3,0,0,1,16.7,2l-.3-1.4c-4.3-.7-8.6-1.3-12.9-1.7a153.3,153.3,0,0,0-27.1.2A156.6,156.6,0,0,0,170.6,213.5Z"/><circle class="cls-21" cx="202.9" cy="211.2" r="20.4" transform="translate(-20.7 400.4) rotate(-86.4)"/><circle class="cls-68" cx="202.9" cy="211.2" r="19" transform="translate(-76 300.6) rotate(-63.9)"/><circle class="cls-21" cx="201.7" cy="212" r="15.1" transform="translate(-61.3 83.8) rotate(-20.4)"/><g class="cls-23"><path class="cls-69" d="M167.8,237.2a7.1,7.1,0,0,0,.6,1.9c3,5.6,13.6,15.1,21.5,19.8-5.9-8.4-14.7-19.2-21.2-21.5Z"/><path class="cls-70" d="M235.6,236.3c-5.5,2.3-13.4,12.9-19,21.5C222.4,252.7,232.7,242.8,235.6,236.3Z"/></g><path class="cls-71" d="M165.2,240.7c-4.7-.2-40.5,88.6-33.9,93.9s26.6,3.3,29.1,1.9,19.1-27.1,25.3-40.2,5.4-34.9,3.5-38S171,241,165.2,240.7Z"/><g class="cls-23"><path class="cls-72" d="M189.2,258.3c-.5-1.1-2.7-3.2-5.4-5.7,2.2,5,3.6,9.1,3.4,11.4-1,9.2-26.3,58.8-40.3,74,6.3.1,12.2-.8,13.5-1.5s19.1-27.1,25.3-40.2S191.1,261.4,189.2,258.3Z"/><path class="cls-73" d="M132.8,318.9c-2.2,8.4-3.1,14.4-1.5,15.7a11.6,11.6,0,0,0,2.2,1.3C132.6,331.6,132.5,325.6,132.8,318.9Z"/></g><path class="cls-11" d="M189.5,283.3a2.9,2.9,0,0,0-1.3-1.2c-1.9-.6-4.5,1.7-6.5,5.6a67.8,67.8,0,0,0-11.3-6.8,70.6,70.6,0,0,0-18-6l-3.9-.6-.6,1.3,1.9.2a68.9,68.9,0,0,1,17.8,5.3,66.9,66.9,0,0,1,13.5,7.8,14.3,14.3,0,0,0-.8,2.2c-2,5.8-1.6,11.1.8,11.9a2,2,0,0,0,1.1.1c1.4-2.5,2.5-4.8,3.5-6.8A51.8,51.8,0,0,0,189.5,283.3Z"/><path class="cls-74" d="M240,240.7c4.6-.2,40.4,88.6,33.8,93.9s-26.5,3.3-29.1,1.9-19.1-27.1-25.3-40.2-5.3-34.9-3.5-38S234.2,241,240,240.7Z"/><g class="cls-23"><path class="cls-75" d="M215.9,258.3c.6-1.1,2.7-3.2,5.5-5.7-2.3,5-3.7,9.1-3.4,11.4.9,9.2,26.2,58.8,40.3,74-6.4.1-12.3-.8-13.6-1.5s-19.1-27.1-25.3-40.2S214.1,261.4,215.9,258.3Z"/><path class="cls-76" d="M272.3,318.9c2.3,8.4,3.1,14.4,1.5,15.7a9.1,9.1,0,0,1-2.2,1.3C272.5,331.6,272.6,325.6,272.3,318.9Z"/></g><path class="cls-11" d="M215.7,283.3a2.3,2.3,0,0,1,1.2-1.2c1.9-.6,4.5,1.7,6.5,5.6a67.8,67.8,0,0,1,11.3-6.8,71.9,71.9,0,0,1,18-6l4-.6a11.2,11.2,0,0,0,.5,1.3l-1.9.2A73,73,0,0,0,224,288.9a14.3,14.3,0,0,1,.8,2.2c2,5.8,1.6,11.1-.8,11.9a2,2,0,0,1-1.1.1l-3.5-6.8A47.9,47.9,0,0,1,215.7,283.3Z"/><path class="cls-77" d="M74.1,251q10.4,9.5,20.1,19.5c6.5,6.7,12.6,13.8,19.1,20.5,1.1,1.2,2.7-.5,1.7-1.7-5.7-7.4-12.3-14.1-18.9-20.7s-13.4-13-20.4-19.2c-1.1-.9-2.6.6-1.6,1.6Z"/><path class="cls-77" d="M98.5,252.3c8.3,10.5,16.3,21.2,25,31.4.8.8,2.3-.3,1.6-1.2-8-10.9-16.6-21.3-25-31.8-.9-1.2-2.6.5-1.6,1.6Z"/><path class="cls-77" d="M302.3,250q-6.3,8-12.3,16.2c-2,2.8-4,5.5-5.9,8.3a53.9,53.9,0,0,0-5.5,8.8c-.3.8.5,1.6,1.2,1a64.9,64.9,0,0,0,5.9-7.9c2-2.8,3.9-5.6,5.9-8.3,4.1-5.5,8.2-11,12.5-16.3,1-1.3-.8-3-1.8-1.8Z"/><path class="cls-77" d="M326,262.1c-10.1,9.5-20.3,18.8-30.3,28.3-.7.7.4,1.7,1.1,1.1,10.3-9.2,20.4-18.7,30.6-28,1-.8-.5-2.3-1.4-1.4Z"/><path class="cls-8" d="M199.7,209.2h7s3.4-2,3.4-4.3h3.4s1.2,3.2-5.6,6.9c0,0-4.6,3.5-4.9,5.6h-3.7a8.4,8.4,0,0,1,3.9-5.6h-6.3Z"/><path class="cls-32" d="M205.2,215.9l2-2.1h2.7v8.3h-13s-8.6-.2-7.2-7.8,13-12.7,13-12.7,6.7-1.8,4.1,1.3l-7.9,6.4s-7.3,5-5.6,8.5a4.9,4.9,0,0,0,3.9,1.4h10.2v-3.3Z"/></g></g></svg>