<svg xmlns="http://www.w3.org/2000/svg" xmlns:xlink="http://www.w3.org/1999/xlink" viewBox="0 0 500 500"><defs><style>.cls-1{isolation:isolate;}.cls-2{opacity:0.14;}.cls-14,.cls-18,.cls-23,.cls-3,.cls-33,.cls-40,.cls-44,.cls-5,.cls-55,.cls-63,.cls-67{mix-blend-mode:multiply;}.cls-3{fill:url(#radial-gradient);}.cls-4{fill:url(#radial-gradient-2);}.cls-5{fill:#92a7c4;}.cls-6{fill:url(#radial-gradient-3);}.cls-7{fill:url(#radial-gradient-4);}.cls-8{fill:#fff;}.cls-9{fill:#ceeaef;}.cls-10{fill:url(#radial-gradient-5);}.cls-11{fill:#1b1b59;}.cls-12{fill:url(#radial-gradient-6);}.cls-13{fill:url(#radial-gradient-7);}.cls-14{fill:url(#radial-gradient-8);}.cls-15{fill:url(#radial-gradient-9);}.cls-16{fill:url(#radial-gradient-10);}.cls-17{fill:url(#radial-gradient-11);}.cls-18{fill:url(#radial-gradient-12);}.cls-19{fill:url(#radial-gradient-13);}.cls-20{fill:#0d2042;}.cls-21{fill:#32327c;}.cls-22{fill:url(#radial-gradient-14);}.cls-24{fill:url(#radial-gradient-15);}.cls-25{fill:url(#radial-gradient-16);}.cls-26{fill:url(#radial-gradient-17);}.cls-27{fill:url(#radial-gradient-18);}.cls-28{fill:url(#radial-gradient-19);}.cls-29{fill:url(#radial-gradient-20);}.cls-30{fill:url(#radial-gradient-21);}.cls-31{fill:url(#radial-gradient-22);}.cls-32{fill:#0087cb;}.cls-33{fill:url(#radial-gradient-23);}.cls-34{fill:url(#radial-gradient-24);}.cls-35{fill:url(#radial-gradient-25);}.cls-36{fill:url(#radial-gradient-26);}.cls-37{fill:url(#radial-gradient-27);}.cls-38{fill:url(#radial-gradient-28);}.cls-39{fill:url(#radial-gradient-29);}.cls-40{fill:url(#radial-gradient-30);}.cls-41{fill:url(#radial-gradient-31);}.cls-42{fill:url(#radial-gradient-32);}.cls-43{fill:url(#radial-gradient-33);}.cls-44{fill:url(#radial-gradient-34);}.cls-45{fill:url(#radial-gradient-35);}.cls-46{fill:url(#radial-gradient-36);}.cls-47{fill:url(#radial-gradient-37);}.cls-48{fill:url(#radial-gradient-38);}.cls-49{fill:url(#radial-gradient-39);}.cls-50{fill:url(#radial-gradient-40);}.cls-51{fill:url(#radial-gradient-41);}.cls-52{fill:url(#radial-gradient-42);}.cls-53{fill:url(#radial-gradient-43);}.cls-54{fill:url(#radial-gradient-44);}.cls-55{fill:url(#radial-gradient-45);}.cls-56{fill:url(#radial-gradient-46);}.cls-57{fill:url(#radial-gradient-47);}.cls-58{fill:url(#radial-gradient-48);}.cls-59{fill:#dfceed;}.cls-60{fill:url(#radial-gradient-49);}.cls-61{fill:url(#radial-gradient-50);}.cls-62{fill:url(#radial-gradient-51);}.cls-63{fill:url(#radial-gradient-52);}.cls-64{fill:url(#radial-gradient-53);}.cls-65{fill:url(#radial-gradient-54);}.cls-66{fill:url(#radial-gradient-55);}.cls-67{fill:url(#radial-gradient-56);}.cls-68{fill:url(#radial-gradient-57);}.cls-69{fill:url(#radial-gradient-58);}.cls-70{fill:url(#radial-gradient-59);}.cls-71{fill:url(#radial-gradient-60);}.cls-72{fill:url(#radial-gradient-61);}.cls-73{fill:url(#radial-gradient-62);}.cls-74{fill:url(#radial-gradient-63);}.cls-75{fill:url(#radial-gradient-64);}.cls-76{fill:url(#radial-gradient-65);}.cls-77{fill:url(#radial-gradient-66);}.cls-78{fill:#8666dd;}</style><radialGradient id="radial-gradient" cx="414.49" cy="-5785.54" r="85.51" gradientTransform="translate(0 1396.2) scale(1 0.19)" gradientUnits="userSpaceOnUse"><stop offset="0" stop-opacity="0.5"/><stop offset="1" stop-opacity="0"/></radialGradient><radialGradient id="radial-gradient-2" cx="412.58" cy="118.16" r="116.58" gradientTransform="translate(0 -46.9) scale(1 0.96)" gradientUnits="userSpaceOnUse"><stop offset="0" stop-color="#fff"/><stop offset="1" stop-color="#4e4e91"/></radialGradient><radialGradient id="radial-gradient-3" cx="414.24" cy="184.14" r="15.94" gradientTransform="matrix(1, 0, 0, 1, 0, 0)" xlink:href="#radial-gradient-2"/><radialGradient id="radial-gradient-4" cx="410.87" cy="150.6" r="50.25" gradientUnits="userSpaceOnUse"><stop offset="0" stop-color="#182442"/><stop offset="1" stop-color="#33215d"/></radialGradient><radialGradient id="radial-gradient-5" cx="356.33" cy="168.55" r="47.92" gradientTransform="matrix(1, 0, 0, 1, 0, 0)" xlink:href="#radial-gradient-2"/><radialGradient id="radial-gradient-6" cx="381.86" cy="204.47" r="18.2" gradientTransform="matrix(1, 0, 0, 1, 0, 0)" xlink:href="#radial-gradient-2"/><radialGradient id="radial-gradient-7" cx="381.86" cy="204.47" r="18.2" gradientTransform="matrix(1, 0, 0, 1, 0, 0)" xlink:href="#radial-gradient-2"/><radialGradient id="radial-gradient-8" cx="377.24" cy="200.69" r="21.08" gradientTransform="matrix(1, 0, 0, 1, 0, 0)" xlink:href="#radial-gradient-2"/><radialGradient id="radial-gradient-9" cx="509.3" cy="168.55" r="47.92" gradientTransform="matrix(-1, 0, 0, 1, 982.13, 0)" xlink:href="#radial-gradient-2"/><radialGradient id="radial-gradient-10" cx="534.82" cy="204.47" r="18.2" gradientTransform="matrix(-1, 0, 0, 1, 982.13, 0)" xlink:href="#radial-gradient-2"/><radialGradient id="radial-gradient-11" cx="534.82" cy="204.47" r="18.2" gradientTransform="matrix(-1, 0, 0, 1, 982.13, 0)" xlink:href="#radial-gradient-2"/><radialGradient id="radial-gradient-12" cx="451.92" cy="200.69" r="21.08" gradientTransform="matrix(1, 0, 0, 1, 0, 0)" xlink:href="#radial-gradient-2"/><radialGradient id="radial-gradient-13" cx="415.69" cy="194.64" r="40.88" gradientTransform="matrix(1, 0, 0, 1, 0, 0)" xlink:href="#radial-gradient-2"/><radialGradient id="radial-gradient-14" cx="415.03" cy="195.68" r="14.39" gradientTransform="translate(408.3 -263.1) rotate(63.9)" xlink:href="#radial-gradient-2"/><radialGradient id="radial-gradient-15" cx="397.3" cy="221" r="11.69" gradientTransform="matrix(1, 0, 0, 1, 0, 0)" xlink:href="#radial-gradient-2"/><radialGradient id="radial-gradient-16" cx="432.93" cy="220.3" r="11.07" gradientTransform="matrix(1, 0, 0, 1, 0, 0)" xlink:href="#radial-gradient-2"/><radialGradient id="radial-gradient-17" cx="281.57" cy="348.98" r="55.17" gradientTransform="matrix(1.06, 0, 0.17, 0.84, 20.79, -49.57)" xlink:href="#radial-gradient-2"/><radialGradient id="radial-gradient-18" cx="389.2" cy="259.25" r="25.65" gradientTransform="matrix(1, 0, 0, 1, 0, 0)" xlink:href="#radial-gradient-2"/><radialGradient id="radial-gradient-19" cx="361.44" cy="283.5" r="4.63" gradientTransform="matrix(1, 0, 0, 1, 0, 0)" xlink:href="#radial-gradient-2"/><radialGradient id="radial-gradient-20" cx="227.18" cy="349.28" r="55.17" gradientTransform="matrix(-1.06, 0, -0.17, 0.84, 751.11, -49.57)" xlink:href="#radial-gradient-2"/><radialGradient id="radial-gradient-21" cx="440.39" cy="259.25" r="25.65" gradientTransform="matrix(1, 0, 0, 1, 0, 0)" xlink:href="#radial-gradient-2"/><radialGradient id="radial-gradient-22" cx="468.15" cy="283.5" r="4.63" gradientTransform="matrix(1, 0, 0, 1, 0, 0)" xlink:href="#radial-gradient-2"/><radialGradient id="radial-gradient-23" cx="85.24" cy="-5758.22" r="85.24" xlink:href="#radial-gradient"/><radialGradient id="radial-gradient-24" cx="83.33" cy="124.35" r="116.21" xlink:href="#radial-gradient-2"/><radialGradient id="radial-gradient-25" cx="84.99" cy="189.7" r="15.89" gradientTransform="matrix(1, 0, 0, 1, 0, 0)" xlink:href="#radial-gradient-2"/><radialGradient id="radial-gradient-26" cx="81.62" cy="156.27" r="50.09" xlink:href="#radial-gradient-4"/><radialGradient id="radial-gradient-27" cx="27.26" cy="174.16" r="47.77" gradientTransform="matrix(1, 0, 0, 1, 0, 0)" xlink:href="#radial-gradient-2"/><radialGradient id="radial-gradient-28" cx="52.71" cy="209.97" r="18.14" gradientTransform="matrix(1, 0, 0, 1, 0, 0)" xlink:href="#radial-gradient-2"/><radialGradient id="radial-gradient-29" cx="52.71" cy="209.97" r="18.14" gradientTransform="matrix(1, 0, 0, 1, 0, 0)" xlink:href="#radial-gradient-2"/><radialGradient id="radial-gradient-30" cx="48.11" cy="206.19" r="21.01" gradientTransform="matrix(1, 0, 0, 1, 0, 0)" xlink:href="#radial-gradient-2"/><radialGradient id="radial-gradient-31" cx="838.74" cy="174.16" r="47.77" gradientTransform="matrix(-1, 0, 0, 1, 982.13, 0)" xlink:href="#radial-gradient-2"/><radialGradient id="radial-gradient-32" cx="864.18" cy="209.97" r="18.14" gradientTransform="matrix(-1, 0, 0, 1, 982.13, 0)" xlink:href="#radial-gradient-2"/><radialGradient id="radial-gradient-33" cx="864.18" cy="209.97" r="18.14" gradientTransform="matrix(-1, 0, 0, 1, 982.13, 0)" xlink:href="#radial-gradient-2"/><radialGradient id="radial-gradient-34" cx="122.55" cy="206.19" r="21.01" gradientTransform="matrix(1, 0, 0, 1, 0, 0)" xlink:href="#radial-gradient-2"/><radialGradient id="radial-gradient-35" cx="86.43" cy="200.16" r="40.75" gradientTransform="matrix(1, 0, 0, 1, 0, 0)" xlink:href="#radial-gradient-2"/><radialGradient id="radial-gradient-36" cx="85.77" cy="201.2" r="14.34" gradientTransform="translate(228.8 35.7) rotate(63.9)" xlink:href="#radial-gradient-2"/><radialGradient id="radial-gradient-37" cx="68.1" cy="226.44" r="11.65" gradientTransform="matrix(1, 0, 0, 1, 0, 0)" xlink:href="#radial-gradient-2"/><radialGradient id="radial-gradient-38" cx="103.62" cy="225.74" r="11.03" gradientTransform="matrix(1, 0, 0, 1, 0, 0)" xlink:href="#radial-gradient-2"/><radialGradient id="radial-gradient-39" cx="-29.85" cy="357.12" r="54.99" gradientTransform="matrix(1.06, 0, 0.17, 0.84, 20.79, -49.57)" xlink:href="#radial-gradient-2"/><radialGradient id="radial-gradient-40" cx="60.02" cy="264.57" r="25.57" gradientTransform="matrix(1, 0, 0, 1, 0, 0)" xlink:href="#radial-gradient-2"/><radialGradient id="radial-gradient-41" cx="32.35" cy="288.75" r="4.61" gradientTransform="matrix(1, 0, 0, 1, 0, 0)" xlink:href="#radial-gradient-2"/><radialGradient id="radial-gradient-42" cx="536.69" cy="354.01" r="54.99" gradientTransform="matrix(-1.06, 0, -0.17, 0.84, 751.11, -49.57)" xlink:href="#radial-gradient-2"/><radialGradient id="radial-gradient-43" cx="111.05" cy="264.57" r="25.57" gradientTransform="matrix(1, 0, 0, 1, 0, 0)" xlink:href="#radial-gradient-2"/><radialGradient id="radial-gradient-44" cx="138.72" cy="288.75" r="4.61" gradientTransform="matrix(1, 0, 0, 1, 0, 0)" xlink:href="#radial-gradient-2"/><radialGradient id="radial-gradient-45" cx="252.71" cy="-5108.21" r="141.36" xlink:href="#radial-gradient"/><radialGradient id="radial-gradient-46" cx="249.54" cy="101.45" r="192.72" xlink:href="#radial-gradient-2"/><radialGradient id="radial-gradient-47" cx="252.3" cy="244.96" r="26.34" gradientTransform="matrix(1, 0, 0, 1, 0, 0)" xlink:href="#radial-gradient-2"/><radialGradient id="radial-gradient-48" cx="246.71" cy="189.53" r="83.06" xlink:href="#radial-gradient-4"/><radialGradient id="radial-gradient-49" cx="156.57" cy="219.19" r="79.22" gradientTransform="matrix(1, 0, 0, 1, 0, 0)" xlink:href="#radial-gradient-2"/><radialGradient id="radial-gradient-50" cx="198.76" cy="278.58" r="30.08" gradientTransform="matrix(1, 0, 0, 1, 0, 0)" xlink:href="#radial-gradient-2"/><radialGradient id="radial-gradient-51" cx="198.76" cy="278.58" r="30.08" gradientTransform="matrix(1, 0, 0, 1, 0, 0)" xlink:href="#radial-gradient-2"/><radialGradient id="radial-gradient-52" cx="191.13" cy="272.32" r="34.84" gradientTransform="matrix(1, 0, 0, 1, 0, 0)" xlink:href="#radial-gradient-2"/><radialGradient id="radial-gradient-53" cx="632.99" cy="219.19" r="79.22" gradientTransform="matrix(-1, 0, 0, 1, 982.13, 0)" xlink:href="#radial-gradient-2"/><radialGradient id="radial-gradient-54" cx="675.18" cy="278.58" r="30.08" gradientTransform="matrix(-1, 0, 0, 1, 982.13, 0)" xlink:href="#radial-gradient-2"/><radialGradient id="radial-gradient-55" cx="675.18" cy="278.58" r="30.08" gradientTransform="matrix(-1, 0, 0, 1, 982.13, 0)" xlink:href="#radial-gradient-2"/><radialGradient id="radial-gradient-56" cx="314.58" cy="272.32" r="34.84" gradientTransform="matrix(1, 0, 0, 1, 0, 0)" xlink:href="#radial-gradient-2"/><radialGradient id="radial-gradient-57" cx="254.68" cy="262.32" r="67.58" gradientTransform="matrix(1, 0, 0, 1, 0, 0)" xlink:href="#radial-gradient-2"/><radialGradient id="radial-gradient-58" cx="253.59" cy="264.04" r="23.78" gradientTransform="translate(379.2 -79.8) rotate(63.9)" xlink:href="#radial-gradient-2"/><radialGradient id="radial-gradient-59" cx="224.29" cy="305.9" r="19.32" gradientTransform="matrix(1, 0, 0, 1, 0, 0)" xlink:href="#radial-gradient-2"/><radialGradient id="radial-gradient-60" cx="283.19" cy="304.74" r="18.29" gradientTransform="matrix(1, 0, 0, 1, 0, 0)" xlink:href="#radial-gradient-2"/><radialGradient id="radial-gradient-61" cx="88.57" cy="469.16" r="91.19" gradientTransform="matrix(1.06, 0, 0.17, 0.84, 20.79, -49.57)" xlink:href="#radial-gradient-2"/><radialGradient id="radial-gradient-62" cx="210.89" cy="369.13" r="42.41" gradientTransform="matrix(1, 0, 0, 1, 0, 0)" xlink:href="#radial-gradient-2"/><radialGradient id="radial-gradient-63" cx="165" cy="409.22" r="7.65" gradientTransform="matrix(1, 0, 0, 1, 0, 0)" xlink:href="#radial-gradient-2"/><radialGradient id="radial-gradient-64" cx="338.91" cy="467.78" r="91.19" gradientTransform="matrix(-1.06, 0, -0.17, 0.84, 751.11, -49.57)" xlink:href="#radial-gradient-2"/><radialGradient id="radial-gradient-65" cx="295.52" cy="369.13" r="42.41" gradientTransform="matrix(1, 0, 0, 1, 0, 0)" xlink:href="#radial-gradient-2"/><radialGradient id="radial-gradient-66" cx="341.4" cy="409.22" r="7.65" gradientTransform="matrix(1, 0, 0, 1, 0, 0)" xlink:href="#radial-gradient-2"/></defs><g class="cls-1"><g id="Layer_1" data-name="Layer 1"><g class="cls-2"><ellipse class="cls-3" cx="414.5" cy="289.4" rx="85.5" ry="16.4"/><path class="cls-4" d="M379.4,179.1c-4.7-1.9-29.9-51.8-23.7-73.2s30.6-36.5,57.7-37.3,55.4,20.4,59.1,37.2-18.3,70.1-22.2,73.3S403.1,188.6,379.4,179.1Z"/><path class="cls-5" d="M427.6,169.9c-23-2.5-49.9,2.6-48.2,9.2,23.7,9.5,67,3.1,70.9,0C451.8,176.2,450.5,172.5,427.6,169.9Z"/><path class="cls-6" d="M422.8,172.5c-14.2-1.6-30.8,1.6-29.8,5.7,14.7,5.9,41.4,1.9,43.8,0C437.7,176.4,436.9,174.1,422.8,172.5Z"/><path class="cls-7" d="M380.4,163.4c-2.5-1.4-19.9-37.9-18.5-51.9S386.3,76.9,389,77.7s9.6,5.9,10.9,6.3,26,.8,27.4-.4,11.1-6.3,12.8-6.3,28.3,20.4,26,37-16.6,49.3-17.6,49.7-17.1-3.3-34.3-3.3S382.2,164.5,380.4,163.4Z"/><path class="cls-5" d="M404.6,102.3c-26.1,6-34.4,22.5-34.8,40.1,4.4,10.9,9.3,20.3,10.6,21s17.6-2.7,33.8-2.7,33.8,3.5,34.3,3.3,6.6-13.4,11.4-27.2C454.9,113.7,438.5,94.4,404.6,102.3Z"/><ellipse class="cls-8" cx="388" cy="120.9" rx="13.3" ry="16.7" transform="translate(-14.7 175.7) rotate(-25.1)"/><ellipse class="cls-9" cx="388" cy="120.9" rx="11.7" ry="14.7" transform="translate(-14.7 175.7) rotate(-25.1)"/><ellipse class="cls-8" cx="440.9" cy="120.9" rx="16.7" ry="13.3" transform="translate(144.7 469.1) rotate(-64.9)"/><ellipse class="cls-9" cx="440.9" cy="120.9" rx="14.7" ry="11.7" transform="translate(144.7 469.1) rotate(-64.9)"/><path class="cls-9" d="M428.4,139.1a70,70,0,0,1-23.2,3.7.9.9,0,0,0-.1,1.8,70.4,70.4,0,0,0,24.1-3.9c1.1-.4.3-2-.8-1.6Z"/><path class="cls-10" d="M385.5,199.3c0-.4,10.8-10,10.4-12.8-.2-.8-1.9-9.6-5.4-9.5s-30.8,15.8-31.8,23.5,13.2,14.9,17.3,17.2c-.9-.4-1.9-.4-1.3,1.9s12.1,6.3,14.3,2.6,4.3-14.9,2.8-17.8S385.6,199.7,385.5,199.3Z"/><path class="cls-11" d="M359.3,198.7a3.5,3.5,0,0,0-.6,1.8,6.5,6.5,0,0,0,.2,2.4c3.5-4.6,11.1-7.2,26.6-3.6C385.5,199.3,367.7,191.9,359.3,198.7Z"/><ellipse class="cls-11" cx="364" cy="198.8" rx="5.5" ry="3.1" transform="translate(9.8 414.6) rotate(-60)"/><path class="cls-12" d="M375,217.5l1,.2A2.2,2.2,0,0,0,375,217.5Z"/><path class="cls-13" d="M388.1,200.9c-1.4,3.5-6.3,13.4-16.4,14.3l4.3,2.5s7.8,4.6,12.4-.2a16.8,16.8,0,0,0,3.9-8.8,11.6,11.6,0,0,0-.5-4.3A12.4,12.4,0,0,0,388.1,200.9Z"/><path class="cls-14" d="M385.5,199.3c0-.4,10.8-10,10.4-12.8-.2-.7-1.5-7.3-4.1-9.1,1.9,5.4,1.6,10.6.7,12.2s-13.7,7.7-14,7.7-10.8-.6-9.1.2,9.1-1,16.5,5.1-19.6,10-27.3-1.5c.1,6.5,13.4,14.4,17.4,16.6-.9-.4-1.9-.4-1.3,1.9s12.1,6.3,14.3,2.6,4.3-14.9,2.8-17.8S385.6,199.7,385.5,199.3Z"/><path class="cls-15" d="M443.6,199.3c.1-.4-10.8-10-10.3-12.8.2-.8,1.9-9.6,5.4-9.5s30.8,15.8,31.8,23.5-13.3,14.9-17.3,17.2c.9-.4,1.9-.4,1.2,1.9s-12.1,6.3-14.2,2.6-4.3-14.9-2.8-17.8S443.6,199.7,443.6,199.3Z"/><path class="cls-11" d="M469.9,198.7a7.6,7.6,0,0,1,.6,1.8,5,5,0,0,1-.3,2.4c-3.4-4.6-11-7.2-26.6-3.6C443.6,199.3,461.5,191.9,469.9,198.7Z"/><ellipse class="cls-11" cx="465.2" cy="198.8" rx="3.1" ry="5.5" transform="translate(-37.1 259.2) rotate(-30)"/><path class="cls-16" d="M454.2,217.5l-1,.2A1.8,1.8,0,0,1,454.2,217.5Z"/><path class="cls-17" d="M441.1,200.9c1.4,3.5,6.2,13.4,16.3,14.3l-4.2,2.5s-7.8,4.6-12.5-.2a15.9,15.9,0,0,1-3.8-8.8,9.8,9.8,0,0,1,.5-4.3A11.3,11.3,0,0,1,441.1,200.9Z"/><path class="cls-18" d="M443.6,199.3c.1-.4-10.8-10-10.3-12.8.1-.7,1.4-7.3,4-9.1-1.8,5.4-1.5,10.6-.7,12.2s13.8,7.7,14.1,7.7,10.7-.6,9.1.2-9.1-1-16.5,5.1,19.5,10,27.2-1.5c0,6.5-13.4,14.4-17.3,16.6.9-.4,1.9-.4,1.2,1.9s-12.1,6.3-14.2,2.6-4.3-14.9-2.8-17.8S443.6,199.7,443.6,199.3Z"/><path class="cls-19" d="M395.8,177.8c-.4.3-9.9,33.4-6.8,38.9s16,16.4,21.1,17.1,10.5.4,12.3-.5,17.3-14.6,17.9-20.5-5.8-33.6-7-35.7S404.9,170.1,395.8,177.8Z"/><path class="cls-20" d="M390.6,197.4a3.6,3.6,0,0,1-.2,1.1,115.7,115.7,0,0,1,35.2-3.2q6.3.4,12.6,1.5a4.3,4.3,0,0,1-.2-1.1c-3.3-.5-6.5-1-9.8-1.2a108,108,0,0,0-20.5.1A121.9,121.9,0,0,0,390.6,197.4Z"/><circle class="cls-21" cx="415" cy="195.7" r="15.4" transform="translate(193.6 597.6) rotate(-86.4)"/><circle class="cls-22" cx="415" cy="195.7" r="14.4" transform="translate(56.8 482.4) rotate(-63.9)"/><circle class="cls-21" cx="414.2" cy="196.3" r="11.4"/><g class="cls-23"><path class="cls-24" d="M388.5,215.3a3.8,3.8,0,0,0,.5,1.4c2.3,4.3,10.3,11.5,16.2,15-4.5-6.3-11.1-14.5-16-16.2Z"/><path class="cls-25" d="M439.8,214.7c-4.2,1.6-10.1,9.7-14.4,16.2C429.8,227.1,437.6,219.5,439.8,214.7Z"/></g><path class="cls-26" d="M386.5,218c-3.5-.2-30.6,67-25.6,70.9s20.1,2.5,22,1.5S397.4,269.9,402,260s4.1-26.4,2.7-28.8S390.9,218.2,386.5,218Z"/><g class="cls-23"><path class="cls-27" d="M404.7,231.2a24.1,24.1,0,0,0-4.1-4.2c1.7,3.7,2.7,6.8,2.5,8.6-.7,7-19.8,44.4-30.4,55.9,4.8.1,9.2-.6,10.2-1.1S397.4,269.9,402,260,406.1,233.6,404.7,231.2Z"/><path class="cls-28" d="M362.1,277.1c-1.8,6.3-2.4,10.9-1.2,11.8a4.8,4.8,0,0,0,1.7,1A50.6,50.6,0,0,1,362.1,277.1Z"/></g><path class="cls-11" d="M404.9,250.2a1.7,1.7,0,0,0-1-.9c-1.4-.5-3.4,1.3-4.9,4.2a52.2,52.2,0,0,0-8.5-5.2,54.3,54.3,0,0,0-13.6-4.5l-3-.5a10.4,10.4,0,0,1-.4,1l1.4.2a58.2,58.2,0,0,1,13.5,4,57.6,57.6,0,0,1,10.2,5.9,11.5,11.5,0,0,0-.6,1.7c-1.5,4.3-1.3,8.4.6,9h.8c1-1.8,1.9-3.6,2.6-5.1A37.3,37.3,0,0,0,404.9,250.2Z"/><path class="cls-29" d="M443.1,218c3.5-.2,30.6,67,25.6,70.9s-20.1,2.5-22.1,1.5-14.4-20.5-19.1-30.4-4-26.4-2.6-28.8S438.7,218.2,443.1,218Z"/><g class="cls-23"><path class="cls-30" d="M424.9,231.2A24.1,24.1,0,0,1,429,227c-1.7,3.7-2.7,6.8-2.6,8.6.8,7,19.9,44.4,30.5,55.9-4.8.1-9.3-.6-10.3-1.1s-14.4-20.5-19.1-30.4S423.5,233.6,424.9,231.2Z"/><path class="cls-31" d="M467.5,277.1c1.7,6.3,2.4,10.9,1.2,11.8a5.9,5.9,0,0,1-1.7,1A50.6,50.6,0,0,0,467.5,277.1Z"/></g><path class="cls-11" d="M424.7,250.2a1.5,1.5,0,0,1,1-.9c1.4-.5,3.4,1.3,4.8,4.2a57.8,57.8,0,0,1,8.6-5.2,54.3,54.3,0,0,1,13.6-4.5l3-.5a10.4,10.4,0,0,0,.4,1l-1.4.2a56.8,56.8,0,0,0-13.5,4,57.6,57.6,0,0,0-10.2,5.9l.6,1.7c1.5,4.3,1.2,8.4-.6,9h-.8l-2.7-5.1A41.4,41.4,0,0,1,424.7,250.2Z"/><path class="cls-8" d="M412.6,194.1h5.3s2.6-1.5,2.6-3.2h2.6s.9,2.4-4.2,5.2c0,0-3.6,2.7-3.8,4.2h-2.8a6.3,6.3,0,0,1,3-4.2h-4.8Z"/><path class="cls-32" d="M416.8,199.2l1.5-1.6h2.1v6.3h-9.9s-6.5-.1-5.4-5.9,9.8-9.6,9.8-9.6,5-1.4,3.1,1l-6,4.8s-5.5,3.8-4.2,6.4a3.7,3.7,0,0,0,2.9,1.1h7.8v-2.5Z"/></g><g class="cls-2"><ellipse class="cls-33" cx="85.2" cy="294.6" rx="85.2" ry="16.3"/><path class="cls-34" d="M50.2,184.6c-4.6-1.8-29.8-51.6-23.6-72.9S57.2,75.3,84.1,74.6s55.3,20.2,58.9,37-18.2,69.9-22,73S73.9,194.2,50.2,184.6Z"/><path class="cls-5" d="M98.3,175.5c-22.9-2.5-49.7,2.6-48.1,9.1,23.7,9.6,66.9,3.2,70.8,0C122.4,181.8,121.2,178.1,98.3,175.5Z"/><path class="cls-35" d="M93.5,178.1c-14.2-1.6-30.7,1.6-29.7,5.6,14.6,5.9,41.3,2,43.7,0S107.6,179.7,93.5,178.1Z"/><path class="cls-36" d="M51.2,169.1c-2.5-1.5-19.8-37.9-18.4-51.8s24.4-34.5,27-33.7,9.6,5.9,10.9,6.2,25.9.8,27.4-.3,11-6.3,12.6-6.3,28.2,20.4,26,36.8-16.6,49.3-17.6,49.7-17-3.4-34.1-3.4S53.1,170.1,51.2,169.1Z"/><path class="cls-5" d="M75.4,108.1c-26,6-34.3,22.4-34.8,40,4.5,10.9,9.4,20.2,10.6,21s17.6-2.8,33.8-2.8,33.6,3.6,34.1,3.4,6.6-13.4,11.4-27.2C125.5,119.4,109.1,100.2,75.4,108.1Z"/><ellipse class="cls-8" cx="58.8" cy="126.6" rx="13.2" ry="16.6" transform="translate(-48.1 36.8) rotate(-25.1)"/><ellipse class="cls-9" cx="58.8" cy="126.6" rx="11.6" ry="14.6" transform="translate(-48.1 36.8) rotate(-25.1)"/><ellipse class="cls-8" cx="111.6" cy="126.6" rx="16.6" ry="13.2" transform="translate(-50.4 174.1) rotate(-64.9)"/><ellipse class="cls-9" cx="111.6" cy="126.6" rx="14.6" ry="11.6" transform="translate(-50.4 174.1) rotate(-64.9)"/><path class="cls-9" d="M99.1,144.8A69.4,69.4,0,0,1,76,148.5a.9.9,0,1,0-.1,1.7,69.7,69.7,0,0,0,24-3.8c1.1-.4.3-2-.8-1.6Z"/><path class="cls-37" d="M56.4,204.8c-.1-.4,10.7-10,10.3-12.7-.2-.9-1.9-9.6-5.4-9.5S30.6,198.3,29.6,206s13.2,14.9,17.2,17.1c-.8-.3-1.8-.3-1.2,1.9s12,6.3,14.2,2.7,4.3-15,2.8-17.8S56.4,205.2,56.4,204.8Z"/><path class="cls-11" d="M30.2,204.2a5.4,5.4,0,0,0-.6,1.8,5,5,0,0,0,.3,2.4c3.4-4.6,10.9-7.2,26.5-3.6C56.4,204.8,38.6,197.4,30.2,204.2Z"/><ellipse class="cls-11" cx="34.9" cy="204.3" rx="5.5" ry="3.1" transform="translate(-159.5 132.4) rotate(-60)"/><path class="cls-38" d="M45.8,223h1A1.7,1.7,0,0,0,45.8,223Z"/><path class="cls-39" d="M58.9,206.4c-1.4,3.5-6.2,13.3-16.3,14.2l4.2,2.5s7.8,4.7,12.5-.1c2.2-2.3,3.3-5.7,3.8-8.8a9.8,9.8,0,0,0-.5-4.3A11.3,11.3,0,0,0,58.9,206.4Z"/><path class="cls-40" d="M56.4,204.8c-.1-.4,10.7-10,10.3-12.7-.2-.8-1.4-7.3-4.1-9.1,1.9,5.4,1.6,10.6.7,12.2s-13.7,7.6-14,7.6-10.7-.6-9,.2,9-1,16.4,5.1-19.5,10-27.2-1.5c.1,6.5,13.4,14.4,17.3,16.5-.8-.3-1.8-.3-1.2,1.9s12,6.3,14.2,2.7,4.3-15,2.8-17.8S56.4,205.2,56.4,204.8Z"/><path class="cls-41" d="M114.3,204.8c.1-.4-10.8-10-10.3-12.7.2-.9,1.8-9.6,5.4-9.5s30.7,15.7,31.7,23.4-13.2,14.9-17.3,17.1c.9-.3,1.9-.3,1.2,1.9s-12,6.3-14.2,2.7-4.3-15-2.7-17.8S114.2,205.2,114.3,204.8Z"/><path class="cls-11" d="M140.5,204.2a9.4,9.4,0,0,1,.6,1.8,5,5,0,0,1-.3,2.4c-3.4-4.6-11-7.2-26.5-3.6C114.3,204.8,132.1,197.4,140.5,204.2Z"/><ellipse class="cls-11" cx="135.8" cy="204.3" rx="3.1" ry="5.5" transform="translate(-84 95.3) rotate(-30)"/><path class="cls-42" d="M124.8,223h-1A1.8,1.8,0,0,1,124.8,223Z"/><path class="cls-43" d="M111.8,206.4c1.3,3.5,6.2,13.3,16.2,14.2l-4.2,2.5s-7.8,4.7-12.4-.1a15.9,15.9,0,0,1-3.8-8.8c-.1-1.9,0-3.5.5-4.3A10.4,10.4,0,0,1,111.8,206.4Z"/><path class="cls-44" d="M114.3,204.8c.1-.4-10.8-10-10.3-12.7.1-.8,1.4-7.3,4-9.1-1.8,5.4-1.5,10.6-.7,12.2s13.7,7.6,14,7.6,10.7-.6,9.1.2-9.1-1-16.5,5.1,19.5,10,27.2-1.5c0,6.5-13.4,14.4-17.3,16.5.9-.3,1.9-.3,1.2,1.9s-12,6.3-14.2,2.7-4.3-15-2.7-17.8S114.2,205.2,114.3,204.8Z"/><path class="cls-45" d="M66.6,183.4c-.4.3-9.8,33.3-6.8,38.8s16,16.3,21.1,17,10.4.4,12.2-.5,17.3-14.6,17.9-20.5-5.9-33.4-7-35.5S75.6,175.7,66.6,183.4Z"/><path class="cls-20" d="M61.5,202.9l-.3,1.1a108,108,0,0,1,14.9-2.6,113.7,113.7,0,0,1,20.2-.6c4.2.3,8.4.8,12.5,1.5a3.6,3.6,0,0,0-.2-1c-3.2-.6-6.4-1-9.7-1.3a117,117,0,0,0-20.5.1A119.2,119.2,0,0,0,61.5,202.9Z"/><circle class="cls-21" cx="85.8" cy="201.2" r="15.4" transform="translate(-120.4 274.1) rotate(-86.4)"/><circle class="cls-46" cx="85.8" cy="201.2" r="14.3" transform="translate(-132.7 189.8) rotate(-63.9)"/><circle class="cls-21" cx="84.9" cy="201.8" r="11.4"/><g class="cls-23"><path class="cls-47" d="M59.4,220.8a4.7,4.7,0,0,0,.4,1.4c2.3,4.2,10.3,11.4,16.2,14.9-4.5-6.3-11.1-14.4-16-16.2Z"/><path class="cls-48" d="M110.4,220.1c-4.1,1.7-10,9.7-14.3,16.2C100.5,232.5,108.2,225,110.4,220.1Z"/></g><path class="cls-49" d="M57.3,223.4c-3.5-.1-30.4,66.8-25.5,70.8s20,2.4,22,1.4,14.4-20.4,19-30.3,4.1-26.3,2.7-28.7S61.7,223.6,57.3,223.4Z"/><g class="cls-23"><path class="cls-50" d="M75.5,236.6a24.1,24.1,0,0,0-4.1-4.2c1.7,3.7,2.7,6.8,2.5,8.6-.7,6.9-19.8,44.3-30.3,55.8,4.7,0,9.2-.6,10.2-1.2s14.4-20.4,19-30.3S76.9,239,75.5,236.6Z"/><path class="cls-51" d="M33,282.3c-1.7,6.4-2.4,10.9-1.2,11.9a9.5,9.5,0,0,0,1.7,1A51.6,51.6,0,0,1,33,282.3Z"/></g><path class="cls-11" d="M75.7,255.5a1.9,1.9,0,0,0-1-.8c-1.4-.5-3.4,1.2-4.9,4.1a51.7,51.7,0,0,0-8.5-5.1,55,55,0,0,0-13.5-4.5l-3-.5a4.2,4.2,0,0,0-.4,1l1.4.2a52,52,0,0,1,23.6,9.9c-.2.5-.5,1-.7,1.6-1.4,4.4-1.2,8.4.7,9a1.1,1.1,0,0,0,.8,0c1-1.8,1.9-3.6,2.6-5.1A37.3,37.3,0,0,0,75.7,255.5Z"/><path class="cls-52" d="M113.7,223.4c3.5-.1,30.5,66.8,25.6,70.8s-20.1,2.4-22,1.4-14.4-20.4-19.1-30.3-4-26.3-2.6-28.7S109.4,223.6,113.7,223.4Z"/><g class="cls-23"><path class="cls-53" d="M95.6,236.6a24.1,24.1,0,0,1,4.1-4.2c-1.7,3.7-2.7,6.8-2.6,8.6.8,6.9,19.8,44.3,30.4,55.8-4.8,0-9.2-.6-10.2-1.2s-14.4-20.4-19.1-30.3S94.2,239,95.6,236.6Z"/><path class="cls-54" d="M138.1,282.3c1.7,6.4,2.4,10.9,1.2,11.9a9.5,9.5,0,0,1-1.7,1A63.4,63.4,0,0,0,138.1,282.3Z"/></g><path class="cls-11" d="M95.4,255.5a1.9,1.9,0,0,1,1-.8c1.4-.5,3.4,1.2,4.8,4.1a57.3,57.3,0,0,1,8.6-5.1,53.6,53.6,0,0,1,13.5-4.5l3-.5.4,1-1.4.2a51.6,51.6,0,0,0-13.4,3.9,49.7,49.7,0,0,0-10.2,6l.6,1.6c1.5,4.4,1.2,8.4-.6,9a1.1,1.1,0,0,1-.8,0l-2.7-5.1A41.4,41.4,0,0,1,95.4,255.5Z"/><path class="cls-8" d="M83.4,199.7h5.3s2.6-1.6,2.6-3.3h2.5s.9,2.4-4.2,5.2c0,0-3.5,2.7-3.7,4.2H83.1a6.6,6.6,0,0,1,2.9-4.2H81.3Z"/><path class="cls-32" d="M87.6,204.7l1.5-1.6h2v6.3H81.3s-6.5-.1-5.4-5.9,9.7-9.6,9.7-9.6,5.1-1.3,3.2,1l-6,4.8s-5.5,3.8-4.2,6.4a3.7,3.7,0,0,0,2.9,1.1h7.7v-2.4Z"/></g><ellipse class="cls-55" cx="252.7" cy="419" rx="141.4" ry="27"/><path class="cls-56" d="M194.6,236.6c-7.6-3.1-49.4-85.6-39.1-121S206.1,55.3,250.9,54s91.5,33.6,97.6,61.4-30.1,116-36.6,121.2S233.9,252.4,194.6,236.6Z"/><path class="cls-5" d="M274.3,221.5c-38-4.2-82.4,4.2-79.7,15.1,39.3,15.8,110.9,5.1,117.3,0C314.3,231.8,312.3,225.7,274.3,221.5Z"/><path class="cls-57" d="M266.4,225.7c-23.5-2.6-50.9,2.7-49.3,9.4,24.3,9.7,68.5,3.2,72.5,0C291.1,232.1,289.8,228.4,266.4,225.7Z"/><path class="cls-58" d="M196.3,210.8c-4.1-2.5-32.9-62.8-30.5-85.9S206.1,67.7,210.6,69s15.9,9.7,17.9,10.4,43.1,1.3,45.5-.7,18.3-10.4,21-10.4,46.8,33.8,43,61.2-27.4,81.6-29.1,82.2-28.2-5.5-56.6-5.5S199.4,212.5,196.3,210.8Z"/><path class="cls-5" d="M236.3,109.6c-43.1,10-56.7,37.2-57.5,66.3,7.3,18.1,15.5,33.6,17.5,34.9s29.1-4.6,56-4.6,55.7,5.9,56.6,5.5,10.9-22.1,18.9-45C319.5,128.4,292.3,96.6,236.3,109.6Z"/><ellipse class="cls-59" cx="208.9" cy="140.3" rx="21.9" ry="27.5" transform="translate(-39.8 101.7) rotate(-25.1)"/><ellipse class="cls-59" cx="208.9" cy="140.3" rx="19.3" ry="24.2" transform="translate(-39.8 101.7) rotate(-25.1)"/><ellipse class="cls-59" cx="296.4" cy="140.3" rx="27.5" ry="21.9" transform="translate(43.7 349.4) rotate(-64.9)"/><ellipse class="cls-59" cx="296.4" cy="140.3" rx="24.2" ry="19.3" transform="translate(43.7 349.4) rotate(-64.9)"/><path class="cls-9" d="M275.7,170.5a112.6,112.6,0,0,1-38.3,6.1c-1.9,0-2.2,2.9-.3,2.9a117.5,117.5,0,0,0,39.9-6.4c1.9-.6.6-3.3-1.3-2.6Z"/><path class="cls-60" d="M204.8,270c-.1-.7,17.9-16.6,17.1-21.1-.3-1.4-3.1-15.8-8.9-15.8s-50.9,26.1-52.6,38.9c-1.4,11,21.9,24.7,28.6,28.4-1.4-.6-3.1-.6-2,3.1,1.8,6.1,20,10.4,23.5,4.4s7.2-24.7,4.6-29.4S204.9,270.7,204.8,270Z"/><path class="cls-11" d="M161.4,269.1a9.1,9.1,0,0,0-1,2.9,8.1,8.1,0,0,0,.5,4c5.6-7.6,18.2-12,43.9-6C204.8,270,175.4,257.8,161.4,269.1Z"/><ellipse class="cls-11" cx="169.2" cy="269.2" rx="9" ry="5.2" transform="matrix(0.5, -0.87, 0.87, 0.5, -148.55, 281.17)"/><path class="cls-61" d="M187.4,300.2l1.6.2A2.4,2.4,0,0,0,187.4,300.2Z"/><path class="cls-62" d="M209,272.7c-2.3,5.8-10.3,22-27,23.6,2.9,1.8,5.4,3.2,7,4.1,0,0,12.9,7.7,20.6-.3,3.7-3.8,5.6-9.4,6.3-14.6.2-3.1,0-5.6-.8-7S211.3,274.2,209,272.7Z"/><path class="cls-63" d="M204.8,270c-.1-.7,17.9-16.6,17.1-21.1-.2-1.2-2.3-12.1-6.7-15.1,3.1,9,2.6,17.6,1.2,20.2-2.3,4.2-22.8,12.7-23.2,12.7s-17.8-.9-15.1.3,15.1-1.7,27.3,8.4-32.3,16.6-45.1-2.3c.1,10.7,22.2,23.7,28.7,27.3-1.4-.6-3.1-.6-2,3.1,1.8,6.1,20,10.4,23.5,4.4s7.2-24.7,4.6-29.4S204.9,270.7,204.8,270Z"/><path class="cls-64" d="M300.9,270c.1-.7-17.9-16.6-17.1-21.1.3-1.4,3.1-15.8,8.9-15.8s50.9,26.1,52.6,38.9c1.4,11-21.9,24.7-28.6,28.4,1.4-.6,3.1-.6,2,3.1-1.8,6.1-19.9,10.4-23.5,4.4s-7.2-24.7-4.6-29.4S300.8,270.7,300.9,270Z"/><path class="cls-11" d="M344.3,269.1a9.1,9.1,0,0,1,1,2.9,8.1,8.1,0,0,1-.5,4c-5.6-7.6-18.2-12-43.9-6C300.9,270,330.4,257.8,344.3,269.1Z"/><ellipse class="cls-11" cx="336.5" cy="269.2" rx="5.2" ry="9" transform="translate(-89.5 204.3) rotate(-30)"/><path class="cls-65" d="M318.3,300.2l-1.6.2A2.4,2.4,0,0,1,318.3,300.2Z"/><path class="cls-66" d="M296.7,272.7c2.3,5.8,10.3,22,27,23.6-2.9,1.8-5.4,3.2-7,4.1,0,0-12.9,7.7-20.6-.3-3.7-3.8-5.6-9.4-6.3-14.6-.2-3.1,0-5.6.8-7S294.4,274.2,296.7,272.7Z"/><path class="cls-67" d="M300.9,270c.1-.7-17.9-16.6-17.1-21.1.2-1.2,2.3-12.1,6.7-15.1-3.1,9-2.6,17.6-1.2,20.2,2.3,4.2,22.8,12.7,23.2,12.7s17.8-.9,15.1.3-15.1-1.7-27.3,8.4,32.3,16.6,45.1-2.3c-.1,10.7-22.2,23.7-28.7,27.3,1.4-.6,3.1-.6,2,3.1-1.8,6.1-19.9,10.4-23.5,4.4s-7.2-24.7-4.6-29.4S300.8,270.7,300.9,270Z"/><path class="cls-68" d="M221.8,234.5c-.6.5-16.3,55.2-11.3,64.4s26.6,27,35,28.1,17.3.8,20.2-.8,28.7-24.2,29.7-33.9-9.7-55.5-11.5-58.9S236.8,221.8,221.8,234.5Z"/><path class="cls-20" d="M213.3,266.9c-.1.6-.3,1.2-.4,1.9a206.3,206.3,0,0,1,24.7-4.5,196.3,196.3,0,0,1,33.4-.9,183.3,183.3,0,0,1,20.9,2.5,11.6,11.6,0,0,1-.4-1.8c-5.3-.9-10.7-1.6-16.1-2.1a203.2,203.2,0,0,0-34,.2A206,206,0,0,0,213.3,266.9Z"/><circle class="cls-21" cx="253.6" cy="264" r="25.5" transform="translate(-25.9 500.5) rotate(-86.4)"/><circle class="cls-69" cx="253.6" cy="264" r="23.8" transform="translate(-95.1 375.7) rotate(-63.9)"/><circle class="cls-21" cx="252.2" cy="265" r="18.9" transform="translate(-76.7 104.8) rotate(-20.4)"/><g class="cls-23"><path class="cls-70" d="M209.8,296.5a6.8,6.8,0,0,0,.7,2.4c3.8,6.9,17,18.8,26.9,24.7-7.5-10.4-18.4-24-26.5-26.8Z"/><path class="cls-71" d="M294.5,295.4c-6.9,2.8-16.7,16.1-23.8,26.9C278,315.9,290.8,303.5,294.5,295.4Z"/></g><path class="cls-72" d="M206.4,300.9c-5.8-.3-50.5,110.8-42.3,117.3s33.2,4.1,36.5,2.4,23.8-33.8,31.5-50.2,6.7-43.6,4.5-47.6S213.7,301.2,206.4,300.9Z"/><g class="cls-23"><path class="cls-73" d="M236.6,322.8a45.3,45.3,0,0,0-6.9-7.1c2.8,6.3,4.6,11.4,4.2,14.3-1.2,11.5-32.8,73.5-50.3,92.5,7.9.1,15.3-1,17-1.9,3.2-1.6,23.8-33.8,31.5-50.2S238.8,326.8,236.6,322.8Z"/><path class="cls-74" d="M166,398.6c-2.8,10.5-3.9,18.1-1.9,19.6a14.8,14.8,0,0,0,2.8,1.7C165.8,414.5,165.7,407.1,166,398.6Z"/></g><path class="cls-11" d="M236.8,354.1a2.7,2.7,0,0,0-1.6-1.4c-2.3-.8-5.6,2.1-8,6.9a93.1,93.1,0,0,0-36.6-16l-5-.8a12.2,12.2,0,0,1-.7,1.7l2.4.3a86.1,86.1,0,0,1,39.1,16.4,16.9,16.9,0,0,0-1,2.7c-2.5,7.2-2,13.9,1,14.9a3.2,3.2,0,0,0,1.4.1c1.7-3.1,3.1-6,4.3-8.5A59.4,59.4,0,0,0,236.8,354.1Z"/><path class="cls-75" d="M300,300.9c5.8-.3,50.5,110.8,42.3,117.3s-33.2,4.1-36.5,2.4-23.8-33.8-31.5-50.2-6.7-43.6-4.5-47.6S292.7,301.2,300,300.9Z"/><g class="cls-23"><path class="cls-76" d="M269.8,322.8a45.3,45.3,0,0,1,6.9-7.1c-2.8,6.3-4.5,11.4-4.2,14.3,1.2,11.5,32.8,73.5,50.3,92.5-7.9.1-15.3-1-17-1.9s-23.8-33.8-31.5-50.2S267.6,326.8,269.8,322.8Z"/><path class="cls-77" d="M340.4,398.6c2.8,10.5,3.9,18.1,1.9,19.6a14.8,14.8,0,0,1-2.8,1.7C340.6,414.5,340.8,407.1,340.4,398.6Z"/></g><path class="cls-11" d="M269.6,354.1a2.7,2.7,0,0,1,1.6-1.4c2.3-.8,5.6,2.1,8,6.9a93.1,93.1,0,0,1,36.6-16l5-.8a12.2,12.2,0,0,0,.7,1.7l-2.4.3A87.4,87.4,0,0,0,280,361.2a16.9,16.9,0,0,1,1,2.7c2.5,7.2,2,13.9-1,14.9a3.2,3.2,0,0,1-1.4.1c-1.6-3.1-3.1-6-4.3-8.5A59.4,59.4,0,0,1,269.6,354.1Z"/><path class="cls-78" d="M92.7,313.7c8.6,7.9,17,16,25.1,24.4s15.7,17.3,23.8,25.7c1.4,1.4,3.4-.7,2.2-2.2-7.2-9.2-15.4-17.6-23.7-25.8s-16.7-16.3-25.5-24c-1.3-1.2-3.2.7-1.9,1.9Z"/><path class="cls-78" d="M123.1,315.4c10.3,13.1,20.4,26.5,31.3,39.2.9,1.1,2.8-.4,2-1.5-10-13.6-20.8-26.5-31.3-39.7-1.1-1.5-3.2.6-2,2Z"/><path class="cls-78" d="M377.9,312.5c-5.3,6.7-10.4,13.4-15.4,20.3l-7.4,10.3c-2.5,3.6-5.1,7.1-6.8,11.1-.4.9.6,2,1.4,1.1,2.9-2.9,5.1-6.5,7.5-9.8s4.8-7,7.3-10.4q7.7-10.4,15.6-20.4c1.2-1.5-.9-3.7-2.2-2.2Z"/><path class="cls-78" d="M407.5,327.6c-12.6,11.9-25.4,23.5-37.8,35.4a1,1,0,0,0,1.3,1.4c12.9-11.5,25.5-23.4,38.3-35,1.2-1.1-.6-2.9-1.8-1.8Z"/><path class="cls-8" d="M249.6,261.5h8.8s4.3-2.6,4.3-5.4h4.2s1.5,4-7,8.6c0,0-5.8,4.5-6.1,7h-4.7a11,11,0,0,1,4.9-7h-7.9Z"/><path class="cls-32" d="M256.6,269.9l2.5-2.7h3.3v10.4H246.1s-10.7-.2-9-9.7,16.3-16,16.3-16,8.3-2.2,5.1,1.7l-9.9,8s-9.1,6.3-7,10.6a5.9,5.9,0,0,0,4.8,1.8h12.9v-4.1Z"/></g></g></svg>