<svg xmlns="http://www.w3.org/2000/svg" xmlns:xlink="http://www.w3.org/1999/xlink" viewBox="0 0 500 500"><defs><style>.cls-1{isolation:isolate;}.cls-2{opacity:0.14;}.cls-3,.cls-33,.cls-55{opacity:0.18;}.cls-14,.cls-18,.cls-23,.cls-3,.cls-33,.cls-40,.cls-44,.cls-5,.cls-55,.cls-62,.cls-66{mix-blend-mode:multiply;}.cls-3{fill:url(#radial-gradient);}.cls-4{fill:url(#radial-gradient-2);}.cls-5{fill:#92a7c4;}.cls-6{fill:url(#radial-gradient-3);}.cls-7{fill:url(#radial-gradient-4);}.cls-8{fill:#fff;}.cls-9{fill:#ceeaef;}.cls-10{fill:url(#radial-gradient-5);}.cls-11{fill:#1b1b59;}.cls-12{fill:url(#radial-gradient-6);}.cls-13{fill:url(#radial-gradient-7);}.cls-14{fill:url(#radial-gradient-8);}.cls-15{fill:url(#radial-gradient-9);}.cls-16{fill:url(#radial-gradient-10);}.cls-17{fill:url(#radial-gradient-11);}.cls-18{fill:url(#radial-gradient-12);}.cls-19{fill:url(#radial-gradient-13);}.cls-20{fill:#0d2042;}.cls-21{fill:#32327c;}.cls-22{fill:url(#radial-gradient-14);}.cls-24{fill:url(#radial-gradient-15);}.cls-25{fill:url(#radial-gradient-16);}.cls-26{fill:url(#radial-gradient-17);}.cls-27{fill:url(#radial-gradient-18);}.cls-28{fill:url(#radial-gradient-19);}.cls-29{fill:url(#radial-gradient-20);}.cls-30{fill:url(#radial-gradient-21);}.cls-31{fill:url(#radial-gradient-22);}.cls-32{fill:#0087cb;}.cls-33{fill:url(#radial-gradient-23);}.cls-34{fill:url(#radial-gradient-24);}.cls-35{fill:url(#radial-gradient-25);}.cls-36{fill:url(#radial-gradient-26);}.cls-37{fill:url(#radial-gradient-27);}.cls-38{fill:url(#radial-gradient-28);}.cls-39{fill:url(#radial-gradient-29);}.cls-40{fill:url(#radial-gradient-30);}.cls-41{fill:url(#radial-gradient-31);}.cls-42{fill:url(#radial-gradient-32);}.cls-43{fill:url(#radial-gradient-33);}.cls-44{fill:url(#radial-gradient-34);}.cls-45{fill:url(#radial-gradient-35);}.cls-46{fill:url(#radial-gradient-36);}.cls-47{fill:url(#radial-gradient-37);}.cls-48{fill:url(#radial-gradient-38);}.cls-49{fill:url(#radial-gradient-39);}.cls-50{fill:url(#radial-gradient-40);}.cls-51{fill:url(#radial-gradient-41);}.cls-52{fill:url(#radial-gradient-42);}.cls-53{fill:url(#radial-gradient-43);}.cls-54{fill:url(#radial-gradient-44);}.cls-55{fill:url(#radial-gradient-45);}.cls-56{fill:url(#radial-gradient-46);}.cls-57{fill:url(#radial-gradient-47);}.cls-58{fill:url(#radial-gradient-48);}.cls-59{fill:url(#radial-gradient-49);}.cls-60{fill:url(#radial-gradient-50);}.cls-61{fill:url(#radial-gradient-51);}.cls-62{fill:url(#radial-gradient-52);}.cls-63{fill:url(#radial-gradient-53);}.cls-64{fill:url(#radial-gradient-54);}.cls-65{fill:url(#radial-gradient-55);}.cls-66{fill:url(#radial-gradient-56);}.cls-67{fill:url(#radial-gradient-57);}.cls-68{fill:url(#radial-gradient-58);}.cls-69{fill:url(#radial-gradient-59);}.cls-70{fill:url(#radial-gradient-60);}.cls-71{fill:url(#radial-gradient-61);}.cls-72{fill:url(#radial-gradient-62);}.cls-73{fill:url(#radial-gradient-63);}.cls-74{fill:url(#radial-gradient-64);}.cls-75{fill:url(#radial-gradient-65);}.cls-76{fill:url(#radial-gradient-66);}.cls-77{fill:#8666dd;}</style><radialGradient id="radial-gradient" cx="414.49" cy="-5752.96" r="85.51" gradientTransform="translate(0 1396.2) scale(1 0.19)" gradientUnits="userSpaceOnUse"><stop offset="0"/><stop offset="0.23" stop-color="#050505" stop-opacity="0.98"/><stop offset="0.48" stop-color="#141414" stop-opacity="0.92"/><stop offset="0.62" stop-color="#202020" stop-opacity="0.88"/><stop offset="0.76" stop-color="#414141" stop-opacity="0.75"/><stop offset="0.91" stop-color="#a2a2a2" stop-opacity="0.37"/><stop offset="1" stop-color="#fff" stop-opacity="0"/></radialGradient><radialGradient id="radial-gradient-2" cx="412.58" cy="124.66" r="116.58" gradientTransform="translate(0 -46.9) scale(1 0.96)" gradientUnits="userSpaceOnUse"><stop offset="0" stop-color="#fff"/><stop offset="1" stop-color="#4e4e91"/></radialGradient><radialGradient id="radial-gradient-3" cx="414.24" cy="190.37" r="15.94" gradientTransform="matrix(1, 0, 0, 1, 0, 0)" xlink:href="#radial-gradient-2"/><radialGradient id="radial-gradient-4" cx="410.87" cy="156.84" r="50.25" gradientUnits="userSpaceOnUse"><stop offset="0" stop-color="#182442"/><stop offset="1" stop-color="#33215d"/></radialGradient><radialGradient id="radial-gradient-5" cx="356.33" cy="174.78" r="47.92" gradientTransform="matrix(1, 0, 0, 1, 0, 0)" xlink:href="#radial-gradient-2"/><radialGradient id="radial-gradient-6" cx="381.86" cy="210.71" r="18.2" gradientTransform="matrix(1, 0, 0, 1, 0, 0)" xlink:href="#radial-gradient-2"/><radialGradient id="radial-gradient-7" cx="381.86" cy="210.71" r="18.2" gradientTransform="matrix(1, 0, 0, 1, 0, 0)" xlink:href="#radial-gradient-2"/><radialGradient id="radial-gradient-8" cx="377.24" cy="206.92" r="21.08" gradientTransform="matrix(1, 0, 0, 1, 0, 0)" xlink:href="#radial-gradient-2"/><radialGradient id="radial-gradient-9" cx="509.3" cy="174.78" r="47.92" gradientTransform="matrix(-1, 0, 0, 1, 982.13, 0)" xlink:href="#radial-gradient-2"/><radialGradient id="radial-gradient-10" cx="534.82" cy="210.71" r="18.2" gradientTransform="matrix(-1, 0, 0, 1, 982.13, 0)" xlink:href="#radial-gradient-2"/><radialGradient id="radial-gradient-11" cx="534.82" cy="210.71" r="18.2" gradientTransform="matrix(-1, 0, 0, 1, 982.13, 0)" xlink:href="#radial-gradient-2"/><radialGradient id="radial-gradient-12" cx="451.92" cy="206.92" r="21.08" gradientTransform="matrix(1, 0, 0, 1, 0, 0)" xlink:href="#radial-gradient-2"/><radialGradient id="radial-gradient-13" cx="415.69" cy="200.87" r="40.88" gradientTransform="matrix(1, 0, 0, 1, 0, 0)" xlink:href="#radial-gradient-2"/><radialGradient id="radial-gradient-14" cx="415.03" cy="201.91" r="14.39" gradientTransform="translate(413.9 -259.6) rotate(63.9)" xlink:href="#radial-gradient-2"/><radialGradient id="radial-gradient-15" cx="397.3" cy="227.23" r="11.69" gradientTransform="matrix(1, 0, 0, 1, 0, 0)" xlink:href="#radial-gradient-2"/><radialGradient id="radial-gradient-16" cx="432.93" cy="226.53" r="11.07" gradientTransform="matrix(1, 0, 0, 1, 0, 0)" xlink:href="#radial-gradient-2"/><radialGradient id="radial-gradient-17" cx="280.34" cy="356.45" r="55.17" gradientTransform="matrix(1.06, 0, 0.17, 0.84, 20.79, -49.57)" xlink:href="#radial-gradient-2"/><radialGradient id="radial-gradient-18" cx="389.2" cy="265.48" r="25.65" gradientTransform="matrix(1, 0, 0, 1, 0, 0)" xlink:href="#radial-gradient-2"/><radialGradient id="radial-gradient-19" cx="361.44" cy="289.73" r="4.63" gradientTransform="matrix(1, 0, 0, 1, 0, 0)" xlink:href="#radial-gradient-2"/><radialGradient id="radial-gradient-20" cx="225.95" cy="356.75" r="55.17" gradientTransform="matrix(-1.06, 0, -0.17, 0.84, 751.11, -49.57)" xlink:href="#radial-gradient-2"/><radialGradient id="radial-gradient-21" cx="440.39" cy="265.48" r="25.65" gradientTransform="matrix(1, 0, 0, 1, 0, 0)" xlink:href="#radial-gradient-2"/><radialGradient id="radial-gradient-22" cx="468.15" cy="289.73" r="4.63" gradientTransform="matrix(1, 0, 0, 1, 0, 0)" xlink:href="#radial-gradient-2"/><radialGradient id="radial-gradient-23" cx="85.24" cy="-5725.64" r="85.24" xlink:href="#radial-gradient"/><radialGradient id="radial-gradient-24" cx="83.33" cy="130.85" r="116.21" xlink:href="#radial-gradient-2"/><radialGradient id="radial-gradient-25" cx="84.99" cy="195.93" r="15.89" gradientTransform="matrix(1, 0, 0, 1, 0, 0)" xlink:href="#radial-gradient-2"/><radialGradient id="radial-gradient-26" cx="81.62" cy="162.5" r="50.09" xlink:href="#radial-gradient-4"/><radialGradient id="radial-gradient-27" cx="27.26" cy="180.39" r="47.77" gradientTransform="matrix(1, 0, 0, 1, 0, 0)" xlink:href="#radial-gradient-2"/><radialGradient id="radial-gradient-28" cx="52.71" cy="216.2" r="18.14" gradientTransform="matrix(1, 0, 0, 1, 0, 0)" xlink:href="#radial-gradient-2"/><radialGradient id="radial-gradient-29" cx="52.71" cy="216.2" r="18.14" gradientTransform="matrix(1, 0, 0, 1, 0, 0)" xlink:href="#radial-gradient-2"/><radialGradient id="radial-gradient-30" cx="48.11" cy="212.43" r="21.01" gradientTransform="matrix(1, 0, 0, 1, 0, 0)" xlink:href="#radial-gradient-2"/><radialGradient id="radial-gradient-31" cx="838.74" cy="180.39" r="47.77" gradientTransform="matrix(-1, 0, 0, 1, 982.13, 0)" xlink:href="#radial-gradient-2"/><radialGradient id="radial-gradient-32" cx="864.18" cy="216.2" r="18.14" gradientTransform="matrix(-1, 0, 0, 1, 982.13, 0)" xlink:href="#radial-gradient-2"/><radialGradient id="radial-gradient-33" cx="864.18" cy="216.2" r="18.14" gradientTransform="matrix(-1, 0, 0, 1, 982.13, 0)" xlink:href="#radial-gradient-2"/><radialGradient id="radial-gradient-34" cx="122.55" cy="212.43" r="21.01" gradientTransform="matrix(1, 0, 0, 1, 0, 0)" xlink:href="#radial-gradient-2"/><radialGradient id="radial-gradient-35" cx="86.43" cy="206.4" r="40.75" gradientTransform="matrix(1, 0, 0, 1, 0, 0)" xlink:href="#radial-gradient-2"/><radialGradient id="radial-gradient-36" cx="85.77" cy="207.43" r="14.34" gradientTransform="translate(234.4 39.2) rotate(63.9)" xlink:href="#radial-gradient-2"/><radialGradient id="radial-gradient-37" cx="68.1" cy="232.67" r="11.65" gradientTransform="matrix(1, 0, 0, 1, 0, 0)" xlink:href="#radial-gradient-2"/><radialGradient id="radial-gradient-38" cx="103.62" cy="231.97" r="11.03" gradientTransform="matrix(1, 0, 0, 1, 0, 0)" xlink:href="#radial-gradient-2"/><radialGradient id="radial-gradient-39" cx="-31.07" cy="364.59" r="54.99" gradientTransform="matrix(1.06, 0, 0.17, 0.84, 20.79, -49.57)" xlink:href="#radial-gradient-2"/><radialGradient id="radial-gradient-40" cx="60.02" cy="270.8" r="25.57" gradientTransform="matrix(1, 0, 0, 1, 0, 0)" xlink:href="#radial-gradient-2"/><radialGradient id="radial-gradient-41" cx="32.35" cy="294.98" r="4.61" gradientTransform="matrix(1, 0, 0, 1, 0, 0)" xlink:href="#radial-gradient-2"/><radialGradient id="radial-gradient-42" cx="535.46" cy="361.47" r="54.99" gradientTransform="matrix(-1.06, 0, -0.17, 0.84, 751.11, -49.57)" xlink:href="#radial-gradient-2"/><radialGradient id="radial-gradient-43" cx="111.05" cy="270.8" r="25.57" gradientTransform="matrix(1, 0, 0, 1, 0, 0)" xlink:href="#radial-gradient-2"/><radialGradient id="radial-gradient-44" cx="138.72" cy="294.98" r="4.61" gradientTransform="matrix(1, 0, 0, 1, 0, 0)" xlink:href="#radial-gradient-2"/><radialGradient id="radial-gradient-45" cx="252.71" cy="425.21" r="130.14" gradientTransform="translate(0 340.7) scale(1 0.2)" xlink:href="#radial-gradient"/><radialGradient id="radial-gradient-46" cx="249.54" cy="107.95" r="192.72" xlink:href="#radial-gradient-2"/><radialGradient id="radial-gradient-47" cx="252.3" cy="251.19" r="26.34" gradientTransform="matrix(1, 0, 0, 1, 0, 0)" xlink:href="#radial-gradient-2"/><radialGradient id="radial-gradient-48" cx="246.71" cy="195.76" r="83.06" xlink:href="#radial-gradient-4"/><radialGradient id="radial-gradient-49" cx="156.57" cy="225.43" r="79.22" gradientTransform="matrix(1, 0, 0, 1, 0, 0)" xlink:href="#radial-gradient-2"/><radialGradient id="radial-gradient-50" cx="198.76" cy="284.81" r="30.08" gradientTransform="matrix(1, 0, 0, 1, 0, 0)" xlink:href="#radial-gradient-2"/><radialGradient id="radial-gradient-51" cx="198.76" cy="284.81" r="30.08" gradientTransform="matrix(1, 0, 0, 1, 0, 0)" xlink:href="#radial-gradient-2"/><radialGradient id="radial-gradient-52" cx="191.13" cy="278.55" r="34.84" gradientTransform="matrix(1, 0, 0, 1, 0, 0)" xlink:href="#radial-gradient-2"/><radialGradient id="radial-gradient-53" cx="632.99" cy="225.43" r="79.22" gradientTransform="matrix(-1, 0, 0, 1, 982.13, 0)" xlink:href="#radial-gradient-2"/><radialGradient id="radial-gradient-54" cx="675.18" cy="284.81" r="30.08" gradientTransform="matrix(-1, 0, 0, 1, 982.13, 0)" xlink:href="#radial-gradient-2"/><radialGradient id="radial-gradient-55" cx="675.18" cy="284.81" r="30.08" gradientTransform="matrix(-1, 0, 0, 1, 982.13, 0)" xlink:href="#radial-gradient-2"/><radialGradient id="radial-gradient-56" cx="314.58" cy="278.55" r="34.84" gradientTransform="matrix(1, 0, 0, 1, 0, 0)" xlink:href="#radial-gradient-2"/><radialGradient id="radial-gradient-57" cx="254.68" cy="268.55" r="67.58" gradientTransform="matrix(1, 0, 0, 1, 0, 0)" xlink:href="#radial-gradient-2"/><radialGradient id="radial-gradient-58" cx="253.59" cy="270.27" r="23.78" gradientTransform="translate(384.8 -76.3) rotate(63.9)" xlink:href="#radial-gradient-2"/><radialGradient id="radial-gradient-59" cx="224.29" cy="312.13" r="19.32" gradientTransform="matrix(1, 0, 0, 1, 0, 0)" xlink:href="#radial-gradient-2"/><radialGradient id="radial-gradient-60" cx="283.19" cy="310.97" r="18.29" gradientTransform="matrix(1, 0, 0, 1, 0, 0)" xlink:href="#radial-gradient-2"/><radialGradient id="radial-gradient-61" cx="87.34" cy="476.62" r="91.19" gradientTransform="matrix(1.06, 0, 0.17, 0.84, 20.79, -49.57)" xlink:href="#radial-gradient-2"/><radialGradient id="radial-gradient-62" cx="210.89" cy="375.36" r="42.41" gradientTransform="matrix(1, 0, 0, 1, 0, 0)" xlink:href="#radial-gradient-2"/><radialGradient id="radial-gradient-63" cx="165" cy="415.45" r="7.65" gradientTransform="matrix(1, 0, 0, 1, 0, 0)" xlink:href="#radial-gradient-2"/><radialGradient id="radial-gradient-64" cx="337.68" cy="475.24" r="91.19" gradientTransform="matrix(-1.06, 0, -0.17, 0.84, 751.11, -49.57)" xlink:href="#radial-gradient-2"/><radialGradient id="radial-gradient-65" cx="295.52" cy="375.36" r="42.41" gradientTransform="matrix(1, 0, 0, 1, 0, 0)" xlink:href="#radial-gradient-2"/><radialGradient id="radial-gradient-66" cx="341.4" cy="415.45" r="7.65" gradientTransform="matrix(1, 0, 0, 1, 0, 0)" xlink:href="#radial-gradient-2"/></defs><g class="cls-1"><g id="Layer_1" data-name="Layer 1"><g class="cls-2"><ellipse class="cls-3" cx="414.5" cy="295.6" rx="85.5" ry="16.4"/><path class="cls-4" d="M379.4,185.3c-4.7-1.9-29.9-51.8-23.7-73.2s30.6-36.5,57.7-37.2,55.4,20.3,59.1,37.1-18.3,70.2-22.2,73.3S403.1,194.9,379.4,185.3Z"/><path class="cls-5" d="M427.6,176.2c-23-2.6-49.9,2.5-48.2,9.1,23.7,9.6,67,3.1,70.9,0C451.8,182.4,450.5,178.7,427.6,176.2Z"/><path class="cls-6" d="M422.8,178.7c-14.2-1.5-30.8,1.6-29.8,5.7,14.7,5.9,41.4,1.9,43.8,0C437.7,182.6,436.9,180.3,422.8,178.7Z"/><path class="cls-7" d="M380.4,169.7c-2.5-1.5-19.9-38-18.5-52S386.3,83.1,389,83.9s9.6,5.9,10.9,6.3,26,.8,27.4-.4,11.1-6.3,12.8-6.3,28.3,20.5,26,37-16.6,49.4-17.6,49.8-17.1-3.4-34.3-3.4S382.2,170.8,380.4,169.7Z"/><path class="cls-5" d="M404.6,108.5c-26.1,6.1-34.4,22.5-34.8,40.1,4.4,11,9.3,20.3,10.6,21.1s17.6-2.8,33.8-2.8,33.8,3.6,34.3,3.4,6.6-13.4,11.4-27.3C454.9,119.9,438.5,100.6,404.6,108.5Z"/><ellipse class="cls-8" cx="388" cy="127.1" rx="13.3" ry="16.7" transform="translate(-17.3 176.3) rotate(-25.1)"/><ellipse class="cls-9" cx="388" cy="127.1" rx="11.7" ry="14.7" transform="translate(-17.3 176.3) rotate(-25.1)"/><ellipse class="cls-8" cx="440.9" cy="127.1" rx="16.7" ry="13.3" transform="translate(139.1 472.7) rotate(-64.9)"/><ellipse class="cls-9" cx="440.9" cy="127.1" rx="14.7" ry="11.7" transform="translate(139.1 472.7) rotate(-64.9)"/><path class="cls-9" d="M428.4,145.3a67.5,67.5,0,0,1-23.2,3.7c-1.1,0-1.3,1.8-.1,1.8a70.4,70.4,0,0,0,24.1-3.9c1.1-.4.3-2-.8-1.6Z"/><path class="cls-10" d="M385.5,205.5c0-.4,10.8-10,10.4-12.7-.2-.9-1.9-9.6-5.4-9.6s-30.8,15.8-31.8,23.5,13.2,15,17.3,17.2c-.9-.3-1.9-.3-1.3,1.9s12.1,6.3,14.3,2.7,4.3-15,2.8-17.9S385.6,206,385.5,205.5Z"/><path class="cls-11" d="M359.3,205a3.2,3.2,0,0,0-.6,1.7,6.5,6.5,0,0,0,.2,2.4c3.5-4.6,11.1-7.2,26.6-3.6C385.5,205.5,367.7,198.1,359.3,205Z"/><ellipse class="cls-11" cx="364" cy="205.1" rx="5.5" ry="3.1" transform="translate(4.4 417.8) rotate(-60)"/><path class="cls-12" d="M375,223.8h1A1.9,1.9,0,0,0,375,223.8Z"/><path class="cls-13" d="M388.1,207.2c-1.4,3.4-6.3,13.3-16.4,14.2l4.3,2.5s7.8,4.7,12.4-.2a16.8,16.8,0,0,0,3.9-8.8,12,12,0,0,0-.5-4.3A10.9,10.9,0,0,0,388.1,207.2Z"/><path class="cls-14" d="M385.5,205.5c0-.4,10.8-10,10.4-12.7-.2-.8-1.5-7.4-4.1-9.2,1.9,5.5,1.6,10.6.7,12.2s-13.7,7.7-14,7.7-10.8-.5-9.1.2,9.1-1,16.5,5.1-19.6,10-27.3-1.4c.1,6.5,13.4,14.3,17.4,16.5-.9-.3-1.9-.3-1.3,1.9s12.1,6.3,14.3,2.7,4.3-15,2.8-17.9S385.6,206,385.5,205.5Z"/><path class="cls-15" d="M443.6,205.5c.1-.4-10.8-10-10.3-12.7.2-.9,1.9-9.6,5.4-9.6s30.8,15.8,31.8,23.5-13.3,15-17.3,17.2c.9-.3,1.9-.3,1.2,1.9s-12.1,6.3-14.2,2.7-4.3-15-2.8-17.9S443.6,206,443.6,205.5Z"/><path class="cls-11" d="M469.9,205a7,7,0,0,1,.6,1.7,5,5,0,0,1-.3,2.4c-3.4-4.6-11-7.2-26.6-3.6C443.6,205.5,461.5,198.1,469.9,205Z"/><ellipse class="cls-11" cx="465.2" cy="205.1" rx="3.1" ry="5.5" transform="translate(-40.2 260.1) rotate(-30)"/><path class="cls-16" d="M454.2,223.8h-1A1.7,1.7,0,0,1,454.2,223.8Z"/><path class="cls-17" d="M441.1,207.2c1.4,3.4,6.2,13.3,16.3,14.2l-4.2,2.5s-7.8,4.7-12.5-.2a15.9,15.9,0,0,1-3.8-8.8,10.1,10.1,0,0,1,.5-4.3A10.1,10.1,0,0,1,441.1,207.2Z"/><path class="cls-18" d="M443.6,205.5c.1-.4-10.8-10-10.3-12.7.1-.8,1.4-7.4,4-9.2-1.8,5.5-1.5,10.6-.7,12.2s13.8,7.7,14.1,7.7,10.7-.5,9.1.2-9.1-1-16.5,5.1,19.5,10,27.2-1.4c0,6.5-13.4,14.3-17.3,16.5.9-.3,1.9-.3,1.2,1.9s-12.1,6.3-14.2,2.7-4.3-15-2.8-17.9S443.6,206,443.6,205.5Z"/><path class="cls-19" d="M395.8,184c-.4.3-9.9,33.4-6.8,39s16,16.4,21.1,17,10.5.5,12.3-.5,17.3-14.6,17.9-20.5-5.8-33.6-7-35.6S404.9,176.4,395.8,184Z"/><path class="cls-20" d="M390.6,203.7a5.2,5.2,0,0,1-.2,1.1,123.8,123.8,0,0,1,15-2.7,113.4,113.4,0,0,1,20.2-.6q6.3.5,12.6,1.5a3.6,3.6,0,0,1-.2-1c-3.3-.6-6.5-1-9.8-1.3a117,117,0,0,0-20.5.1A109.1,109.1,0,0,0,390.6,203.7Z"/><circle class="cls-21" cx="415" cy="201.9" r="15.4" transform="translate(187.4 603.4) rotate(-86.4)"/><circle class="cls-22" cx="415" cy="201.9" r="14.4" transform="translate(51.2 485.9) rotate(-63.9)"/><circle class="cls-21" cx="414.2" cy="202.5" r="11.4"/><g class="cls-23"><path class="cls-24" d="M388.5,221.5a5.3,5.3,0,0,0,.5,1.5c2.3,4.2,10.3,11.4,16.2,14.9-4.5-6.3-11.1-14.5-16-16.2Z"/><path class="cls-25" d="M439.8,220.9c-4.2,1.7-10.1,9.7-14.4,16.2C429.8,233.3,437.6,225.8,439.8,220.9Z"/></g><path class="cls-26" d="M386.5,224.2c-3.5-.2-30.6,67-25.6,71s20.1,2.5,22,1.4,14.5-20.5,19.1-30.4,4.1-26.3,2.7-28.7S390.9,224.4,386.5,224.2Z"/><g class="cls-23"><path class="cls-27" d="M404.7,237.5a23.5,23.5,0,0,0-4.1-4.3c1.7,3.8,2.7,6.9,2.5,8.6-.7,7-19.8,44.5-30.4,56,4.8,0,9.2-.6,10.2-1.2s14.5-20.5,19.1-30.4S406.1,239.9,404.7,237.5Z"/><path class="cls-28" d="M362.1,283.3c-1.8,6.4-2.4,10.9-1.2,11.9a6.9,6.9,0,0,0,1.7,1A51.6,51.6,0,0,1,362.1,283.3Z"/></g><path class="cls-11" d="M404.9,256.4a2.8,2.8,0,0,0-1-.9c-1.4-.5-3.4,1.3-4.9,4.2a45.6,45.6,0,0,0-8.5-5.1,54.3,54.3,0,0,0-13.6-4.5l-3-.5a10.4,10.4,0,0,0-.4,1l1.4.2a53.5,53.5,0,0,1,13.5,3.9,52.5,52.5,0,0,1,10.2,6,7.6,7.6,0,0,0-.6,1.6c-1.5,4.4-1.3,8.4.6,9h.8c1-1.9,1.9-3.6,2.6-5.2A37.3,37.3,0,0,0,404.9,256.4Z"/><path class="cls-29" d="M443.1,224.2c3.5-.2,30.6,67,25.6,71s-20.1,2.5-22.1,1.4-14.4-20.5-19.1-30.4-4-26.3-2.6-28.7S438.7,224.4,443.1,224.2Z"/><g class="cls-23"><path class="cls-30" d="M424.9,237.5a23.5,23.5,0,0,1,4.1-4.3c-1.7,3.8-2.7,6.9-2.6,8.6.8,7,19.9,44.5,30.5,56-4.8,0-9.3-.6-10.3-1.2s-14.4-20.5-19.1-30.4S423.5,239.9,424.9,237.5Z"/><path class="cls-31" d="M467.5,283.3c1.7,6.4,2.4,10.9,1.2,11.9a9.5,9.5,0,0,1-1.7,1A51.6,51.6,0,0,0,467.5,283.3Z"/></g><path class="cls-11" d="M424.7,256.4a2.2,2.2,0,0,1,1-.9c1.4-.5,3.4,1.3,4.8,4.2a49.9,49.9,0,0,1,8.6-5.1,54.3,54.3,0,0,1,13.6-4.5l3-.5a10.4,10.4,0,0,1,.4,1l-1.4.2a51.8,51.8,0,0,0-23.7,9.9l.6,1.6c1.5,4.4,1.2,8.4-.6,9h-.8l-2.7-5.2A41.4,41.4,0,0,1,424.7,256.4Z"/><path class="cls-8" d="M412.6,200.4h5.3s2.6-1.6,2.6-3.3h2.6s.9,2.4-4.2,5.2c0,0-3.6,2.7-3.8,4.3h-2.8a6.6,6.6,0,0,1,3-4.3h-4.8Z"/><path class="cls-32" d="M416.8,205.4l1.5-1.6h2.1v6.3h-9.9s-6.5-.1-5.4-5.9,9.8-9.6,9.8-9.6,5-1.4,3.1,1l-6,4.8s-5.5,3.9-4.2,6.5a3.4,3.4,0,0,0,2.9,1h7.8v-2.4Z"/></g><g class="cls-2"><ellipse class="cls-33" cx="85.2" cy="300.9" rx="85.2" ry="16.3"/><path class="cls-34" d="M50.2,190.9c-4.6-1.9-29.8-51.6-23.6-73S57.2,81.6,84.1,80.8s55.3,20.2,58.9,37-18.2,69.9-22,73.1S73.9,200.4,50.2,190.9Z"/><path class="cls-5" d="M98.3,181.8c-22.9-2.6-49.7,2.5-48.1,9.1,23.7,9.5,66.9,3.1,70.8,0C122.4,188,121.2,184.3,98.3,181.8Z"/><path class="cls-35" d="M93.5,184.3c-14.2-1.5-30.7,1.6-29.7,5.7,14.6,5.9,41.3,1.9,43.7,0S107.6,185.9,93.5,184.3Z"/><path class="cls-36" d="M51.2,175.3c-2.5-1.5-19.8-37.8-18.4-51.8S57.2,89,59.8,89.8s9.6,5.9,10.9,6.3,25.9.8,27.4-.4,11-6.3,12.6-6.3,28.2,20.4,26,36.9-16.6,49.2-17.6,49.6-17-3.3-34.1-3.3S53.1,176.4,51.2,175.3Z"/><path class="cls-5" d="M75.4,114.3c-26,6.1-34.3,22.4-34.8,40,4.5,10.9,9.4,20.3,10.6,21s17.6-2.7,33.8-2.7,33.6,3.5,34.1,3.3,6.6-13.4,11.4-27.2C125.5,125.7,109.1,106.5,75.4,114.3Z"/><ellipse class="cls-8" cx="58.8" cy="132.8" rx="13.2" ry="16.6" transform="translate(-50.7 37.4) rotate(-25.1)"/><ellipse class="cls-9" cx="58.8" cy="132.8" rx="11.6" ry="14.6" transform="translate(-50.7 37.4) rotate(-25.1)"/><ellipse class="cls-8" cx="111.6" cy="132.8" rx="16.6" ry="13.2" transform="translate(-56 177.7) rotate(-64.9)"/><ellipse class="cls-9" cx="111.6" cy="132.8" rx="14.6" ry="11.6" transform="translate(-56 177.7) rotate(-64.9)"/><path class="cls-9" d="M99.1,151A67,67,0,0,1,76,154.7c-1.2,0-1.3,1.8-.1,1.8a69.8,69.8,0,0,0,24-3.9c1.1-.4.3-2-.8-1.6Z"/><path class="cls-37" d="M56.4,211c-.1-.4,10.7-10,10.3-12.7-.2-.9-1.9-9.5-5.4-9.5s-30.7,15.7-31.7,23.4,13.2,14.9,17.2,17.2c-.8-.4-1.8-.4-1.2,1.8,1.1,3.7,12,6.3,14.2,2.7s4.3-14.9,2.8-17.8S56.4,211.5,56.4,211Z"/><path class="cls-11" d="M30.2,210.5a4.4,4.4,0,0,0-.6,1.7,5,5,0,0,0,.3,2.4c3.4-4.5,10.9-7.2,26.5-3.6C56.4,211,38.6,203.7,30.2,210.5Z"/><ellipse class="cls-11" cx="34.9" cy="210.6" rx="5.5" ry="3.1" transform="translate(-164.9 135.5) rotate(-60)"/><path class="cls-38" d="M45.8,229.2l1,.2A1.2,1.2,0,0,0,45.8,229.2Z"/><path class="cls-39" d="M58.9,212.7c-1.4,3.4-6.2,13.3-16.3,14.2l4.2,2.5s7.8,4.6,12.5-.2c2.2-2.3,3.3-5.7,3.8-8.8a10.1,10.1,0,0,0-.5-4.3A10.1,10.1,0,0,0,58.9,212.7Z"/><path class="cls-40" d="M56.4,211c-.1-.4,10.7-10,10.3-12.7-.2-.7-1.4-7.3-4.1-9.1,1.9,5.4,1.6,10.6.7,12.2s-13.7,7.6-14,7.6-10.7-.5-9,.2,9-1,16.4,5.1-19.5,10-27.2-1.4c.1,6.5,13.4,14.3,17.3,16.5-.8-.4-1.8-.4-1.2,1.8,1.1,3.7,12,6.3,14.2,2.7s4.3-14.9,2.8-17.8S56.4,211.5,56.4,211Z"/><path class="cls-41" d="M114.3,211c.1-.4-10.8-10-10.3-12.7.2-.9,1.8-9.5,5.4-9.5s30.7,15.7,31.7,23.4-13.2,14.9-17.3,17.2c.9-.4,1.9-.4,1.2,1.8-1.1,3.7-12,6.3-14.2,2.7s-4.3-14.9-2.7-17.8S114.2,211.5,114.3,211Z"/><path class="cls-11" d="M140.5,210.5a7,7,0,0,1,.6,1.7,5,5,0,0,1-.3,2.4c-3.4-4.5-11-7.2-26.5-3.6C114.3,211,132.1,203.7,140.5,210.5Z"/><ellipse class="cls-11" cx="135.8" cy="210.6" rx="3.1" ry="5.5" transform="translate(-87.1 96.1) rotate(-30)"/><path class="cls-42" d="M124.8,229.2l-1,.2A1.3,1.3,0,0,1,124.8,229.2Z"/><path class="cls-43" d="M111.8,212.7c1.3,3.4,6.2,13.3,16.2,14.2l-4.2,2.5s-7.8,4.6-12.4-.2a15.9,15.9,0,0,1-3.8-8.8,8.7,8.7,0,0,1,.5-4.3A9.4,9.4,0,0,1,111.8,212.7Z"/><path class="cls-44" d="M114.3,211c.1-.4-10.8-10-10.3-12.7.1-.7,1.4-7.3,4-9.1-1.8,5.4-1.5,10.6-.7,12.2s13.7,7.6,14,7.6,10.7-.5,9.1.2-9.1-1-16.5,5.1,19.5,10,27.2-1.4c0,6.5-13.4,14.3-17.3,16.5.9-.4,1.9-.4,1.2,1.8-1.1,3.7-12,6.3-14.2,2.7s-4.3-14.9-2.7-17.8S114.2,211.5,114.3,211Z"/><path class="cls-45" d="M66.6,189.6c-.4.3-9.8,33.3-6.8,38.8s16,16.4,21.1,17,10.4.5,12.2-.5,17.3-14.6,17.9-20.4-5.9-33.5-7-35.5S75.6,182,66.6,189.6Z"/><path class="cls-20" d="M61.5,209.2l-.3,1.1a125.8,125.8,0,0,1,14.9-2.7,105,105,0,0,1,20.2-.5,87.1,87.1,0,0,1,12.5,1.5,3.6,3.6,0,0,0-.2-1.1c-3.2-.6-6.4-1-9.7-1.3a117,117,0,0,0-20.5.1A119.3,119.3,0,0,0,61.5,209.2Z"/><circle class="cls-21" cx="85.8" cy="207.4" r="15.4" transform="translate(-126.7 280) rotate(-86.4)"/><circle class="cls-46" cx="85.8" cy="207.4" r="14.3" transform="translate(-138.2 193.3) rotate(-63.9)"/><circle class="cls-21" cx="84.9" cy="208" r="11.4"/><g class="cls-23"><path class="cls-47" d="M59.4,227a3.9,3.9,0,0,0,.4,1.4c2.3,4.2,10.3,11.4,16.2,14.9-4.5-6.2-11.1-14.4-16-16.1Z"/><path class="cls-48" d="M110.4,226.4c-4.1,1.6-10,9.6-14.3,16.1C100.5,238.7,108.2,231.2,110.4,226.4Z"/></g><path class="cls-49" d="M57.3,229.6c-3.5-.1-30.4,66.9-25.5,70.8s20,2.5,22,1.5,14.4-20.5,19-30.3,4.1-26.3,2.7-28.7S61.7,229.8,57.3,229.6Z"/><g class="cls-23"><path class="cls-50" d="M75.5,242.9a23.5,23.5,0,0,0-4.1-4.3c1.7,3.8,2.7,6.9,2.5,8.6-.7,7-19.8,44.3-30.3,55.8,4.7,0,9.2-.6,10.2-1.1s14.4-20.5,19-30.3S76.9,245.3,75.5,242.9Z"/><path class="cls-51" d="M33,288.6c-1.7,6.3-2.4,10.9-1.2,11.8a9.5,9.5,0,0,0,1.7,1A50.6,50.6,0,0,1,33,288.6Z"/></g><path class="cls-11" d="M75.7,261.8a1.7,1.7,0,0,0-1-.9c-1.4-.5-3.4,1.3-4.9,4.2a52.2,52.2,0,0,0-8.5-5.2,55,55,0,0,0-13.5-4.5l-3-.4a3.6,3.6,0,0,0-.4.9l1.4.2a57.4,57.4,0,0,1,13.4,4A52,52,0,0,1,69.4,266l-.7,1.6c-1.4,4.4-1.2,8.4.7,9h.8c1-1.9,1.9-3.6,2.6-5.1A38.5,38.5,0,0,0,75.7,261.8Z"/><path class="cls-52" d="M113.7,229.6c3.5-.1,30.5,66.9,25.6,70.8s-20.1,2.5-22,1.5-14.4-20.5-19.1-30.3-4-26.3-2.6-28.7S109.4,229.8,113.7,229.6Z"/><g class="cls-23"><path class="cls-53" d="M95.6,242.9a23.5,23.5,0,0,1,4.1-4.3c-1.7,3.8-2.7,6.9-2.6,8.6.8,7,19.8,44.3,30.4,55.8-4.8,0-9.2-.6-10.2-1.1s-14.4-20.5-19.1-30.3S94.2,245.3,95.6,242.9Z"/><path class="cls-54" d="M138.1,288.6c1.7,6.3,2.4,10.9,1.2,11.8a9.5,9.5,0,0,1-1.7,1A62,62,0,0,0,138.1,288.6Z"/></g><path class="cls-11" d="M95.4,261.8a1.7,1.7,0,0,1,1-.9c1.4-.5,3.4,1.3,4.8,4.2a57.8,57.8,0,0,1,8.6-5.2,53.6,53.6,0,0,1,13.5-4.5l3-.4.4.9-1.4.2a56,56,0,0,0-13.4,4,49.3,49.3,0,0,0-10.2,5.9l.6,1.6c1.5,4.4,1.2,8.4-.6,9h-.8l-2.7-5.1A42.9,42.9,0,0,1,95.4,261.8Z"/><path class="cls-8" d="M83.4,205.9h5.3s2.6-1.5,2.6-3.3h2.5s.9,2.5-4.2,5.2c0,0-3.5,2.7-3.7,4.3H83.1a6.7,6.7,0,0,1,2.9-4.3H81.3Z"/><path class="cls-32" d="M87.6,211l1.5-1.6h2v6.2H81.3s-6.5-.1-5.4-5.8,9.7-9.7,9.7-9.7,5.1-1.3,3.2,1.1c0,0-5.2,4-6,4.8s-5.5,3.8-4.2,6.4a3.4,3.4,0,0,0,2.9,1h7.7V211Z"/></g><ellipse class="cls-55" cx="252.7" cy="425.2" rx="141.4" ry="27"/><path class="cls-56" d="M194.6,242.8c-7.6-3.1-49.4-85.6-39.1-121s50.6-60.3,95.4-61.6,91.5,33.6,97.6,61.4-30.1,116-36.6,121.2S233.9,258.6,194.6,242.8Z"/><path class="cls-5" d="M274.3,227.7c-38-4.2-82.4,4.2-79.7,15.1,39.3,15.8,110.9,5.2,117.3,0C314.3,238,312.3,231.9,274.3,227.7Z"/><path class="cls-57" d="M266.4,232c-23.5-2.6-50.9,2.6-49.3,9.3,24.3,9.8,68.5,3.2,72.5,0C291.1,238.4,289.8,234.6,266.4,232Z"/><path class="cls-58" d="M196.3,217c-4.1-2.4-32.9-62.8-30.5-85.9s40.3-57.2,44.8-55.9,15.9,9.8,17.9,10.4,43.1,1.3,45.5-.6,18.3-10.4,21-10.4,46.8,33.8,43,61.1-27.4,81.6-29.1,82.3-28.2-5.6-56.6-5.6S199.4,218.8,196.3,217Z"/><path class="cls-5" d="M236.3,115.9c-43.1,10-56.7,37.1-57.5,66.2,7.3,18.2,15.5,33.7,17.5,34.9s29.1-4.6,56-4.6,55.7,5.9,56.6,5.6,10.9-22.2,18.9-45.1C319.5,134.7,292.3,102.8,236.3,115.9Z"/><ellipse class="cls-8" cx="208.9" cy="146.6" rx="21.9" ry="27.5" transform="translate(-42.4 102.3) rotate(-25.1)"/><ellipse class="cls-9" cx="208.9" cy="146.6" rx="19.3" ry="24.2" transform="translate(-42.4 102.3) rotate(-25.1)"/><ellipse class="cls-8" cx="296.4" cy="146.6" rx="27.5" ry="21.9" transform="translate(38.1 353) rotate(-64.9)"/><ellipse class="cls-9" cx="296.4" cy="146.6" rx="24.2" ry="19.3" transform="translate(38.1 353) rotate(-64.9)"/><path class="cls-9" d="M275.7,176.7a115.2,115.2,0,0,1-38.3,6.2c-1.9-.1-2.2,2.9-.3,2.9a120,120,0,0,0,39.9-6.4c1.9-.7.6-3.3-1.3-2.7Z"/><path class="cls-59" d="M204.8,276.3c-.1-.8,17.9-16.6,17.1-21.2-.3-1.4-3.1-15.8-8.9-15.8s-50.9,26.2-52.6,38.9c-1.4,11,21.9,24.7,28.6,28.5-1.4-.6-3.1-.7-2,3,1.8,6.1,20,10.5,23.5,4.5s7.2-24.8,4.6-29.5S204.9,277,204.8,276.3Z"/><path class="cls-11" d="M161.4,275.3a9.1,9.1,0,0,0-1,2.9,7.9,7.9,0,0,0,.5,4c5.6-7.6,18.2-11.9,43.9-5.9C204.8,276.3,175.4,264,161.4,275.3Z"/><ellipse class="cls-11" cx="169.2" cy="275.5" rx="9" ry="5.2" transform="translate(-153.9 284.3) rotate(-60)"/><path class="cls-60" d="M187.4,306.4l1.6.3A2.5,2.5,0,0,0,187.4,306.4Z"/><path class="cls-61" d="M209,279c-2.3,5.7-10.3,22-27,23.5l7,4.2s12.9,7.6,20.6-.3c3.7-3.9,5.6-9.5,6.3-14.6.2-3.1,0-5.7-.8-7.1A17.6,17.6,0,0,0,209,279Z"/><path class="cls-62" d="M204.8,276.3c-.1-.8,17.9-16.6,17.1-21.2-.2-1.2-2.3-12.1-6.7-15,3.1,8.9,2.6,17.5,1.2,20.1-2.3,4.3-22.8,12.7-23.2,12.7s-17.8-.9-15.1.3,15.1-1.7,27.3,8.4-32.3,16.6-45.1-2.3c.1,10.7,22.2,23.8,28.7,27.4-1.4-.6-3.1-.7-2,3,1.8,6.1,20,10.5,23.5,4.5s7.2-24.8,4.6-29.5S204.9,277,204.8,276.3Z"/><path class="cls-63" d="M300.9,276.3c.1-.8-17.9-16.6-17.1-21.2.3-1.4,3.1-15.8,8.9-15.8s50.9,26.2,52.6,38.9c1.4,11-21.9,24.7-28.6,28.5,1.4-.6,3.1-.7,2,3-1.8,6.1-19.9,10.5-23.5,4.5s-7.2-24.8-4.6-29.5S300.8,277,300.9,276.3Z"/><path class="cls-11" d="M344.3,275.3a9.1,9.1,0,0,1,1,2.9,7.9,7.9,0,0,1-.5,4c-5.6-7.6-18.2-11.9-43.9-5.9C300.9,276.3,330.4,264,344.3,275.3Z"/><ellipse class="cls-11" cx="336.5" cy="275.5" rx="5.2" ry="9" transform="translate(-92.7 205.1) rotate(-30)"/><path class="cls-64" d="M318.3,306.4l-1.6.3A2.5,2.5,0,0,1,318.3,306.4Z"/><path class="cls-65" d="M296.7,279c2.3,5.7,10.3,22,27,23.5l-7,4.2s-12.9,7.6-20.6-.3c-3.7-3.9-5.6-9.5-6.3-14.6-.2-3.1,0-5.7.8-7.1A17.6,17.6,0,0,1,296.7,279Z"/><path class="cls-66" d="M300.9,276.3c.1-.8-17.9-16.6-17.1-21.2.2-1.2,2.3-12.1,6.7-15-3.1,8.9-2.6,17.5-1.2,20.1,2.3,4.3,22.8,12.7,23.2,12.7s17.8-.9,15.1.3-15.1-1.7-27.3,8.4,32.3,16.6,45.1-2.3c-.1,10.7-22.2,23.8-28.7,27.4,1.4-.6,3.1-.7,2,3-1.8,6.1-19.9,10.5-23.5,4.5s-7.2-24.8-4.6-29.5S300.8,277,300.9,276.3Z"/><path class="cls-67" d="M221.8,240.7c-.6.5-16.3,55.2-11.3,64.4s26.6,27.1,35,28.1,17.3.8,20.2-.8,28.7-24.1,29.7-33.9-9.7-55.4-11.5-58.9S236.8,228.1,221.8,240.7Z"/><path class="cls-20" d="M213.3,273.2c-.1.6-.3,1.2-.4,1.8a196,196,0,0,1,58.1-5.3,183.1,183.1,0,0,1,20.9,2.4,13.6,13.6,0,0,1-.4-1.7,144.7,144.7,0,0,0-16.1-2.1,183.9,183.9,0,0,0-34,.2A179.2,179.2,0,0,0,213.3,273.2Z"/><circle class="cls-21" cx="253.6" cy="270.3" r="25.5" transform="translate(-32.1 506.3) rotate(-86.4)"/><circle class="cls-68" cx="253.6" cy="270.3" r="23.8" transform="translate(-100.7 379.2) rotate(-63.9)"/><circle class="cls-21" cx="252.2" cy="271.3" r="18.9" transform="translate(-78.9 105.1) rotate(-20.4)"/><g class="cls-23"><path class="cls-69" d="M209.8,302.7a6.8,6.8,0,0,0,.7,2.4c3.8,7,17,18.9,26.9,24.7-7.5-10.4-18.4-23.9-26.5-26.8Z"/><path class="cls-70" d="M294.5,301.7c-6.9,2.7-16.7,16-23.8,26.8C278,322.1,290.8,309.7,294.5,301.7Z"/></g><path class="cls-71" d="M206.4,307.1c-5.8-.2-50.5,110.8-42.3,117.3s33.2,4.2,36.5,2.5,23.8-33.9,31.5-50.3,6.7-43.6,4.5-47.6S213.7,307.4,206.4,307.1Z"/><g class="cls-23"><path class="cls-72" d="M236.6,329a51.4,51.4,0,0,0-6.9-7c2.8,6.2,4.6,11.3,4.2,14.2-1.2,11.6-32.8,73.5-50.3,92.5,7.9.1,15.3-1,17-1.8,3.2-1.7,23.8-33.9,31.5-50.3S238.8,333,236.6,329Z"/><path class="cls-73" d="M166,404.8c-2.8,10.5-3.9,18.1-1.9,19.6a11,11,0,0,0,2.8,1.7C165.8,420.7,165.7,413.3,166,404.8Z"/></g><path class="cls-11" d="M236.8,360.4a2.6,2.6,0,0,0-1.6-1.5c-2.3-.8-5.6,2.1-8,6.9a97,97,0,0,0-14.2-8.5,93.5,93.5,0,0,0-22.4-7.4l-5-.8a11.1,11.1,0,0,1-.7,1.6l2.4.3a87.9,87.9,0,0,1,22.3,6.6,85.7,85.7,0,0,1,16.8,9.8c-.4.9-.7,1.8-1,2.7-2.5,7.2-2,13.9,1,14.9a2.2,2.2,0,0,0,1.4.1c1.7-3.1,3.1-6,4.3-8.5A59.7,59.7,0,0,0,236.8,360.4Z"/><path class="cls-74" d="M300,307.1c5.8-.2,50.5,110.8,42.3,117.3s-33.2,4.2-36.5,2.5S282,393,274.3,376.6s-6.7-43.6-4.5-47.6S292.7,307.4,300,307.1Z"/><g class="cls-23"><path class="cls-75" d="M269.8,329a51.4,51.4,0,0,1,6.9-7c-2.8,6.2-4.5,11.3-4.2,14.2,1.2,11.6,32.8,73.5,50.3,92.5-7.9.1-15.3-1-17-1.8S282,393,274.3,376.6,267.6,333,269.8,329Z"/><path class="cls-76" d="M340.4,404.8c2.8,10.5,3.9,18.1,1.9,19.6a11,11,0,0,1-2.8,1.7C340.6,420.7,340.8,413.3,340.4,404.8Z"/></g><path class="cls-11" d="M269.6,360.4a2.6,2.6,0,0,1,1.6-1.5c2.3-.8,5.6,2.1,8,6.9a97,97,0,0,1,14.2-8.5,93.5,93.5,0,0,1,22.4-7.4l5-.8a11.1,11.1,0,0,0,.7,1.6l-2.4.3a86,86,0,0,0-22.2,6.6,83.7,83.7,0,0,0-16.9,9.8c.4.9.7,1.8,1,2.7,2.5,7.2,2,13.9-1,14.9a2.2,2.2,0,0,1-1.4.1c-1.6-3.1-3.1-6-4.3-8.5A59.7,59.7,0,0,1,269.6,360.4Z"/><path class="cls-77" d="M92.7,320c8.6,7.8,17,16,25.1,24.4s15.7,17.2,23.8,25.6c1.4,1.5,3.4-.6,2.2-2.2-7.2-9.2-15.4-17.5-23.7-25.8s-16.7-16.2-25.5-24c-1.3-1.1-3.2.8-1.9,2Z"/><path class="cls-77" d="M123.1,321.7c10.3,13.1,20.4,26.4,31.3,39.1.9,1.1,2.8-.3,2-1.5-10-13.5-20.8-26.5-31.3-39.7-1.1-1.4-3.2.6-2,2.1Z"/><path class="cls-77" d="M377.9,318.7c-5.3,6.7-10.4,13.4-15.4,20.3-2.5,3.4-5,6.9-7.4,10.4a62.7,62.7,0,0,0-6.8,11c-.4.9.6,2,1.4,1.2,2.9-3,5.1-6.6,7.5-9.9l7.3-10.4q7.7-10.4,15.6-20.4c1.2-1.5-.9-3.7-2.2-2.2Z"/><path class="cls-77" d="M407.5,333.9c-12.6,11.8-25.4,23.4-37.8,35.3a1,1,0,0,0,1.3,1.4c12.9-11.5,25.5-23.4,38.3-35,1.2-1-.6-2.8-1.8-1.7Z"/><path class="cls-8" d="M249.6,267.7h8.8s4.3-2.5,4.3-5.4h4.2s1.5,4.1-7,8.6c0,0-5.8,4.5-6.1,7h-4.7a11,11,0,0,1,4.9-7h-7.9Z"/><path class="cls-32" d="M256.6,276.1l2.5-2.7h3.3v10.4H246.1s-10.7-.1-9-9.7,16.3-15.9,16.3-15.9,8.3-2.3,5.1,1.7l-9.9,7.9s-9.1,6.4-7,10.7a6,6,0,0,0,4.8,1.7h12.9v-4Z"/></g></g></svg>