<svg xmlns="http://www.w3.org/2000/svg" xmlns:xlink="http://www.w3.org/1999/xlink" viewBox="0 0 400 400"><defs><style>.cls-1{mask:url(#mask);filter:url(#luminosity-noclip-9);}.cls-10,.cls-100,.cls-101,.cls-107,.cls-109,.cls-11,.cls-110,.cls-117,.cls-12,.cls-132,.cls-134,.cls-135,.cls-14,.cls-144,.cls-15,.cls-155,.cls-18,.cls-19,.cls-2,.cls-20,.cls-22,.cls-24,.cls-26,.cls-4,.cls-6,.cls-8,.cls-90,.cls-92,.cls-99{mix-blend-mode:multiply;}.cls-2{fill:url(#Áåçûìÿííûé_ãðàäèåíò_32);}.cls-3{mask:url(#mask-2);filter:url(#luminosity-noclip-14);}.cls-4{fill:url(#Áåçûìÿííûé_ãðàäèåíò_32-2);}.cls-5{mask:url(#mask-3);filter:url(#luminosity-noclip-15);}.cls-6{fill:url(#Áåçûìÿííûé_ãðàäèåíò_32-3);}.cls-7{mask:url(#mask-4);filter:url(#luminosity-noclip-16);}.cls-8{fill:url(#Áåçûìÿííûé_ãðàäèåíò_32-4);}.cls-104,.cls-106,.cls-108,.cls-113,.cls-115,.cls-119,.cls-125,.cls-130,.cls-138,.cls-140,.cls-143,.cls-146,.cls-148,.cls-151,.cls-158,.cls-160,.cls-161,.cls-169,.cls-171,.cls-173,.cls-175,.cls-177,.cls-178,.cls-181,.cls-184,.cls-186,.cls-188,.cls-9,.cls-91{mix-blend-mode:screen;}.cls-9{fill:url(#radial-gradient);}.cls-10{fill:url(#radial-gradient-2);}.cls-11{fill:url(#radial-gradient-3);}.cls-12{fill:url(#radial-gradient-4);}.cls-13{mask:url(#mask-5);filter:url(#luminosity-noclip-10);}.cls-14{fill:url(#Áåçûìÿííûé_ãðàäèåíò_32-5);}.cls-15{fill:url(#radial-gradient-5);}.cls-16{fill:url(#radial-gradient-6);}.cls-17{fill:url(#radial-gradient-7);}.cls-18{fill:url(#radial-gradient-8);}.cls-19{fill:url(#radial-gradient-9);}.cls-20{fill:url(#radial-gradient-10);}.cls-21{mask:url(#mask-6);filter:url(#luminosity-noclip-11);}.cls-22{fill:url(#Áåçûìÿííûé_ãðàäèåíò_32-6);}.cls-23{mask:url(#mask-7);filter:url(#luminosity-noclip-12);}.cls-24{fill:url(#Áåçûìÿííûé_ãðàäèåíò_32-7);}.cls-25{mask:url(#mask-8);filter:url(#luminosity-noclip-13);}.cls-26{fill:url(#Áåçûìÿííûé_ãðàäèåíò_32-8);}.cls-27{fill:none;}.cls-28{isolation:isolate;}.cls-29{opacity:0.67;}.cls-30{fill:#0f054c;}.cls-31{fill:url(#Áåçûìÿííûé_ãðàäèåíò_22);}.cls-32{opacity:0.9;}.cls-33{fill:#080344;}.cls-34{fill:url(#Áåçûìÿííûé_ãðàäèåíò_22-2);}.cls-35{fill:#24126a;}.cls-36{fill:url(#Áåçûìÿííûé_ãðàäèåíò_24);}.cls-37{fill:#bcbeff;}.cls-38{opacity:0.51;}.cls-39{fill:#453c9e;}.cls-40{fill:#5351af;}.cls-41{fill:url(#Áåçûìÿííûé_ãðàäèåíò_24-2);}.cls-42{fill:url(#Áåçûìÿííûé_ãðàäèåíò_24-3);}.cls-43{fill:url(#Áåçûìÿííûé_ãðàäèåíò_24-4);}.cls-119,.cls-44,.cls-46,.cls-77{fill:#fff;}.cls-45{fill:#6767c1;}.cls-46{opacity:0.04;}.cls-47{mask:url(#mask-9);}.cls-48,.cls-50,.cls-52,.cls-54,.cls-56,.cls-58,.cls-60,.cls-62{opacity:0.66;}.cls-48{fill:url(#Áåçûìÿííûé_ãðàäèåíò_364);}.cls-49{mask:url(#mask-10);}.cls-50{fill:url(#Áåçûìÿííûé_ãðàäèåíò_364-2);}.cls-51{mask:url(#mask-11);}.cls-52{fill:url(#Áåçûìÿííûé_ãðàäèåíò_364-3);}.cls-53{mask:url(#mask-12);}.cls-54{fill:url(#Áåçûìÿííûé_ãðàäèåíò_364-4);}.cls-55{mask:url(#mask-13);}.cls-56{fill:url(#Áåçûìÿííûé_ãðàäèåíò_364-5);}.cls-57{mask:url(#mask-14);}.cls-58{fill:url(#Áåçûìÿííûé_ãðàäèåíò_364-6);}.cls-59{mask:url(#mask-15);}.cls-60{fill:url(#Áåçûìÿííûé_ãðàäèåíò_364-7);}.cls-61{mask:url(#mask-16);}.cls-62{fill:url(#Áåçûìÿííûé_ãðàäèåíò_364-8);}.cls-63{fill:url(#Áåçûìÿííûé_ãðàäèåíò_254);}.cls-64{fill:url(#Áåçûìÿííûé_ãðàäèåíò_24-6);}.cls-65{fill:url(#Áåçûìÿííûé_ãðàäèåíò_25);}.cls-66{fill:url(#Áåçûìÿííûé_ãðàäèåíò_24-7);}.cls-67{fill:url(#Áåçûìÿííûé_ãðàäèåíò_3);}.cls-68{fill:url(#Áåçûìÿííûé_ãðàäèåíò_22-3);}.cls-69{opacity:0.15;}.cls-70{fill:#ffaaa8;}.cls-71{fill:#1a2e35;}.cls-72{fill:#375a64;}.cls-73{fill:#fafafa;}.cls-74{fill:#00dfbf;}.cls-75{opacity:0.3;}.cls-76{fill:#ff9090;}.cls-77{opacity:0.7;}.cls-78{opacity:0.1;}.cls-79{fill:#f0f0f0;}.cls-80{fill:#2b454e;}.cls-81{fill:#ccc;}.cls-82{fill:#6c78af;}.cls-83{fill:#f89c0e;}.cls-84{clip-path:url(#clip-path);}.cls-85{fill:url(#radial-gradient-11);}.cls-86{fill:url(#radial-gradient-12);}.cls-87{fill:url(#linear-gradient);}.cls-121,.cls-122,.cls-167,.cls-189,.cls-88,.cls-93,.cls-94,.cls-97{mix-blend-mode:overlay;}.cls-89{fill:url(#radial-gradient-13);}.cls-90{fill:url(#radial-gradient-14);}.cls-92{fill:url(#radial-gradient-15);}.cls-107,.cls-109,.cls-110,.cls-121,.cls-155,.cls-167,.cls-178,.cls-93,.cls-94{opacity:0.75;}.cls-93{fill:url(#radial-gradient-16);}.cls-94{fill:url(#radial-gradient-17);}.cls-95{fill:url(#radial-gradient-18);}.cls-96,.cls-97{fill:url(#linear-gradient-3);}.cls-98{fill:url(#radial-gradient-19);}.cls-99{fill:url(#radial-gradient-20);}.cls-100{fill:url(#radial-gradient-21);}.cls-101{fill:url(#radial-gradient-22);}.cls-102{fill:url(#radial-gradient-23);}.cls-103{fill:url(#linear-gradient-5);}.cls-104{fill:url(#radial-gradient-24);}.cls-105{fill:url(#radial-gradient-25);}.cls-106{fill:url(#radial-gradient-26);}.cls-107{fill:url(#radial-gradient-27);}.cls-108{fill:url(#radial-gradient-28);}.cls-109{fill:url(#radial-gradient-29);}.cls-110{fill:#c89472;}.cls-111{fill:url(#linear-gradient-6);}.cls-112{fill:url(#linear-gradient-7);}.cls-113{fill:url(#radial-gradient-30);}.cls-114{fill:url(#radial-gradient-31);}.cls-115{fill:url(#radial-gradient-32);}.cls-116{fill:url(#linear-gradient-8);}.cls-117{fill:url(#radial-gradient-33);}.cls-118{mask:url(#mask-17);}.cls-120{fill:url(#linear-gradient-9);}.cls-121{fill:url(#linear-gradient-10);}.cls-122{fill:url(#linear-gradient-11);}.cls-123{fill:url(#linear-gradient-12);}.cls-124{fill:url(#linear-gradient-13);}.cls-125{fill:url(#radial-gradient-34);}.cls-126{fill:url(#linear-gradient-14);}.cls-127{fill:url(#linear-gradient-15);}.cls-128{fill:url(#linear-gradient-16);}.cls-129{fill:url(#linear-gradient-17);}.cls-130{fill:url(#radial-gradient-35);}.cls-131{fill:url(#linear-gradient-18);}.cls-132{fill:url(#linear-gradient-19);}.cls-133{fill:#fdf5db;}.cls-134{fill:url(#radial-gradient-36);}.cls-135{fill:url(#radial-gradient-37);}.cls-136{fill:url(#linear-gradient-20);}.cls-137{fill:url(#radial-gradient-38);}.cls-138{fill:url(#radial-gradient-39);}.cls-139{fill:#f4be52;}.cls-140{fill:url(#radial-gradient-40);}.cls-141{fill:url(#linear-gradient-21);}.cls-142{fill:url(#linear-gradient-22);}.cls-143{fill:url(#radial-gradient-41);}.cls-144,.cls-155{fill:#d39f10;}.cls-145{fill:#f4c229;}.cls-146{fill:url(#radial-gradient-42);}.cls-147{fill:url(#radial-gradient-43);}.cls-148{fill:url(#radial-gradient-44);}.cls-149{fill:url(#linear-gradient-23);}.cls-150{fill:url(#radial-gradient-45);}.cls-151{fill:url(#radial-gradient-46);}.cls-152{fill:url(#radial-gradient-47);}.cls-153{fill:url(#linear-gradient-24);}.cls-154{fill:url(#radial-gradient-48);}.cls-156{fill:#6a2e25;}.cls-157{fill:url(#linear-gradient-25);}.cls-158{fill:url(#radial-gradient-49);}.cls-159{fill:url(#linear-gradient-26);}.cls-160,.cls-161,.cls-189{opacity:0.55;}.cls-160{fill:url(#linear-gradient-27);}.cls-161{fill:url(#linear-gradient-28);}.cls-162{fill:#7e5436;}.cls-163{fill:url(#linear-gradient-29);}.cls-164{fill:url(#linear-gradient-30);}.cls-165{fill:url(#linear-gradient-31);}.cls-166{fill:url(#linear-gradient-32);}.cls-167{fill:url(#radial-gradient-50);}.cls-168{mask:url(#mask-18);}.cls-169{fill:url(#radial-gradient-51);}.cls-170{mask:url(#mask-19);}.cls-171{fill:url(#radial-gradient-52);}.cls-172{mask:url(#mask-20);}.cls-173{fill:url(#radial-gradient-53);}.cls-174{mask:url(#mask-21);}.cls-175{fill:url(#radial-gradient-54);}.cls-176{mask:url(#mask-22);}.cls-177{fill:url(#radial-gradient-55);}.cls-179,.cls-182{mix-blend-mode:color-dodge;}.cls-179{fill:url(#radial-gradient-56);}.cls-180{mask:url(#mask-23);}.cls-181{fill:url(#radial-gradient-57);}.cls-182{fill:url(#radial-gradient-58);}.cls-183{mask:url(#mask-24);}.cls-184{fill:url(#radial-gradient-59);}.cls-185{mask:url(#mask-25);}.cls-186{fill:url(#radial-gradient-60);}.cls-187{mask:url(#mask-26);}.cls-188{fill:url(#radial-gradient-61);}.cls-189{fill:url(#radial-gradient-62);}.cls-190{opacity:0.22;}.cls-191{filter:url(#luminosity-noclip-8);}.cls-192{filter:url(#luminosity-noclip-7);}.cls-193{filter:url(#luminosity-noclip-6);}.cls-194{filter:url(#luminosity-noclip-5);}.cls-195{filter:url(#luminosity-noclip-4);}.cls-196{filter:url(#luminosity-noclip-3);}.cls-197{filter:url(#luminosity-noclip-2);}.cls-198{filter:url(#luminosity-noclip);}</style><filter id="luminosity-noclip" x="258.45" y="-8392" width="6.81" height="32766" filterUnits="userSpaceOnUse" color-interpolation-filters="sRGB"><feFlood flood-color="#fff" result="bg"/><feBlend in="SourceGraphic" in2="bg"/></filter><mask id="mask" x="258.45" y="-8392" width="6.81" height="32766" maskUnits="userSpaceOnUse"><g class="cls-198"/></mask><linearGradient id="Áåçûìÿííûé_ãðàäèåíò_32" x1="-527.18" y1="1213.14" x2="-527.18" y2="1087.04" gradientTransform="matrix(0.87, 0.5, 0, 1.15, 718.4, -879.87)" gradientUnits="userSpaceOnUse"><stop offset="0"/><stop offset="0.06" stop-color="#2a2a2a"/><stop offset="0.15" stop-color="#626262"/><stop offset="0.23" stop-color="#929292"/><stop offset="0.31" stop-color="#b6b6b6"/><stop offset="0.39" stop-color="#d1d1d1"/><stop offset="0.45" stop-color="#e0e0e0"/><stop offset="0.51" stop-color="#e6e6e6"/><stop offset="0.55" stop-color="#dedede"/><stop offset="0.62" stop-color="#c9c9c9"/><stop offset="0.71" stop-color="#a7a7a7"/><stop offset="0.8" stop-color="#787878"/><stop offset="0.91" stop-color="#3b3b3b"/><stop offset="1"/></linearGradient><filter id="luminosity-noclip-2" x="112.64" y="-8392" width="6.81" height="32766" filterUnits="userSpaceOnUse" color-interpolation-filters="sRGB"><feFlood flood-color="#fff" result="bg"/><feBlend in="SourceGraphic" in2="bg"/></filter><mask id="mask-2" x="112.64" y="-8392" width="6.81" height="32766" maskUnits="userSpaceOnUse"><g class="cls-197"/></mask><linearGradient id="Áåçûìÿííûé_ãðàäèåíò_32-2" x1="-2039.37" y1="1874.33" x2="-2039.37" y2="1767.15" gradientTransform="matrix(-0.87, 0.5, 0, 1.15, -1650.05, -879.87)" xlink:href="#Áåçûìÿííûé_ãðàäèåíò_32"/><filter id="luminosity-noclip-3" x="99.86" y="-8392" width="6.81" height="32766" filterUnits="userSpaceOnUse" color-interpolation-filters="sRGB"><feFlood flood-color="#fff" result="bg"/><feBlend in="SourceGraphic" in2="bg"/></filter><mask id="mask-3" x="99.86" y="-8392" width="6.81" height="32766" maskUnits="userSpaceOnUse"><g class="cls-196"/></mask><linearGradient id="Áåçûìÿííûé_ãðàäèåíò_32-3" x1="-2024.62" y1="1835.4" x2="-2024.62" y2="1790.66" gradientTransform="matrix(-0.87, 0.5, 0, 1.15, -1650.05, -879.87)" xlink:href="#Áåçûìÿííûé_ãðàäèåíò_32"/><filter id="luminosity-noclip-4" x="87.2" y="-8392" width="6.81" height="32766" filterUnits="userSpaceOnUse" color-interpolation-filters="sRGB"><feFlood flood-color="#fff" result="bg"/><feBlend in="SourceGraphic" in2="bg"/></filter><mask id="mask-4" x="87.2" y="-8392" width="6.81" height="32766" maskUnits="userSpaceOnUse"><g class="cls-195"/></mask><linearGradient id="Áåçûìÿííûé_ãðàäèåíò_32-4" x1="-2009.99" y1="1822.41" x2="-2009.99" y2="1800.74" gradientTransform="matrix(-0.87, 0.5, 0, 1.15, -1650.05, -879.87)" xlink:href="#Áåçûìÿííûé_ãðàäèåíò_32"/><radialGradient id="radial-gradient" cx="198.01" cy="242.02" r="5.21" gradientUnits="userSpaceOnUse"><stop offset="0.01" stop-color="#fff"/><stop offset="1"/></radialGradient><radialGradient id="radial-gradient-2" cx="371.33" cy="43.05" r="1.56" gradientTransform="matrix(0.54, -0.33, 0.71, 1.18, -40.15, 339.66)" gradientUnits="userSpaceOnUse"><stop offset="0" stop-color="#fff"/><stop offset="0.14" stop-color="#e2e2e2"/><stop offset="0.43" stop-color="#999"/><stop offset="0.87" stop-color="#262626"/><stop offset="1"/></radialGradient><radialGradient id="radial-gradient-3" cx="424.11" cy="33.06" r="3.73" xlink:href="#radial-gradient-2"/><radialGradient id="radial-gradient-4" cx="364.03" cy="18.01" r="3.74" xlink:href="#radial-gradient-2"/><filter id="luminosity-noclip-5" x="271.23" y="-8392" width="6.81" height="32766" filterUnits="userSpaceOnUse" color-interpolation-filters="sRGB"><feFlood flood-color="#fff" result="bg"/><feBlend in="SourceGraphic" in2="bg"/></filter><mask id="mask-5" x="271.23" y="-8392" width="6.81" height="32766" maskUnits="userSpaceOnUse"><g class="cls-194"/></mask><linearGradient id="Áåçûìÿííûé_ãðàäèåíò_32-5" x1="-512.42" y1="1213.14" x2="-512.42" y2="1105.96" xlink:href="#Áåçûìÿííûé_ãðàäèåíò_32"/><radialGradient id="radial-gradient-5" cx="711.7" cy="-10.64" r="6.5" gradientTransform="matrix(0, -0.64, 1.38, 0.01, 213.21, 689.95)" xlink:href="#radial-gradient-2"/><radialGradient id="radial-gradient-6" cx="200.86" cy="237.55" r="2.95" gradientTransform="translate(0 -26.8) scale(1 1.11)" gradientUnits="userSpaceOnUse"><stop offset="0" stop-color="#fff"/><stop offset="0.21" stop-color="#c4c4c4"/><stop offset="0.6" stop-color="#5c5c5c"/><stop offset="0.87" stop-color="#1a1a1a"/><stop offset="1"/></radialGradient><radialGradient id="radial-gradient-7" cx="194.53" cy="279.35" r="2.95" xlink:href="#radial-gradient-6"/><radialGradient id="radial-gradient-8" cx="685.62" cy="-35.68" r="7.63" gradientTransform="matrix(0.25, -0.58, 1.08, 0.47, 62.75, 660.32)" xlink:href="#radial-gradient-2"/><radialGradient id="radial-gradient-9" cx="603.52" cy="-25.58" r="3.6" gradientTransform="matrix(0.25, -0.58, 1.08, 0.47, 62.75, 660.32)" xlink:href="#radial-gradient-2"/><radialGradient id="radial-gradient-10" cx="389.87" cy="52.98" r="2.13" gradientTransform="matrix(0.73, -0.44, 0.71, 1.18, -127.92, 392.31)" xlink:href="#radial-gradient-2"/><filter id="luminosity-noclip-6" x="284.01" y="-8392" width="6.81" height="32766" filterUnits="userSpaceOnUse" color-interpolation-filters="sRGB"><feFlood flood-color="#fff" result="bg"/><feBlend in="SourceGraphic" in2="bg"/></filter><mask id="mask-6" x="284.01" y="-8392" width="6.81" height="32766" maskUnits="userSpaceOnUse"><g class="cls-193"/></mask><linearGradient id="Áåçûìÿííûé_ãðàäèåíò_32-6" x1="-497.67" y1="1174.21" x2="-497.67" y2="1129.47" xlink:href="#Áåçûìÿííûé_ãðàäèåíò_32"/><filter id="luminosity-noclip-7" x="296.67" y="-8392" width="6.81" height="32766" filterUnits="userSpaceOnUse" color-interpolation-filters="sRGB"><feFlood flood-color="#fff" result="bg"/><feBlend in="SourceGraphic" in2="bg"/></filter><mask id="mask-7" x="296.67" y="-8392" width="6.81" height="32766" maskUnits="userSpaceOnUse"><g class="cls-192"/></mask><linearGradient id="Áåçûìÿííûé_ãðàäèåíò_32-7" x1="-483.05" y1="1161.23" x2="-483.05" y2="1139.55" xlink:href="#Áåçûìÿííûé_ãðàäèåíò_32"/><filter id="luminosity-noclip-8" x="125.41" y="-8392" width="6.81" height="32766" filterUnits="userSpaceOnUse" color-interpolation-filters="sRGB"><feFlood flood-color="#fff" result="bg"/><feBlend in="SourceGraphic" in2="bg"/></filter><mask id="mask-8" x="125.41" y="-8392" width="6.81" height="32766" maskUnits="userSpaceOnUse"><g class="cls-191"/></mask><linearGradient id="Áåçûìÿííûé_ãðàäèåíò_32-8" x1="-2054.12" y1="1874.33" x2="-2054.12" y2="1748.22" gradientTransform="matrix(-0.87, 0.5, 0, 1.15, -1650.05, -879.87)" xlink:href="#Áåçûìÿííûé_ãðàäèåíò_32"/><linearGradient id="Áåçûìÿííûé_ãðàäèåíò_22" x1="84.93" y1="251.98" x2="305.75" y2="251.98" gradientUnits="userSpaceOnUse"><stop offset="0" stop-color="#5761d7"/><stop offset="0.07" stop-color="#5472d8"/><stop offset="0.28" stop-color="#4e9cdb"/><stop offset="0.48" stop-color="#49bddd"/><stop offset="0.67" stop-color="#45d5df"/><stop offset="0.85" stop-color="#43e3e0"/><stop offset="1" stop-color="#42e8e0"/></linearGradient><linearGradient id="Áåçûìÿííûé_ãðàäèåíò_22-2" x1="139.67" y1="249.65" x2="251.01" y2="249.65" xlink:href="#Áåçûìÿííûé_ãðàäèåíò_22"/><linearGradient id="Áåçûìÿííûé_ãðàäèåíò_24" x1="144.08" y1="231.44" x2="246.6" y2="231.44" gradientUnits="userSpaceOnUse"><stop offset="0" stop-color="#5761d7"/><stop offset="0.18" stop-color="#5c66d9"/><stop offset="0.39" stop-color="#6a73df"/><stop offset="0.61" stop-color="#8289e8"/><stop offset="0.85" stop-color="#a3a7f5"/><stop offset="1" stop-color="#bcbeff"/></linearGradient><linearGradient id="Áåçûìÿííûé_ãðàäèåíò_24-2" x1="144.08" y1="203.86" x2="246.6" y2="203.86" xlink:href="#Áåçûìÿííûé_ãðàäèåíò_24"/><linearGradient id="Áåçûìÿííûé_ãðàäèåíò_24-3" x1="144.08" y1="175.71" x2="246.6" y2="175.71" xlink:href="#Áåçûìÿííûé_ãðàäèåíò_24"/><linearGradient id="Áåçûìÿííûé_ãðàäèåíò_24-4" x1="144.08" y1="147.56" x2="246.6" y2="147.56" xlink:href="#Áåçûìÿííûé_ãðàäèåíò_24"/><filter id="luminosity-noclip-9" x="258.45" y="111.22" width="6.81" height="146.65" filterUnits="userSpaceOnUse" color-interpolation-filters="sRGB"><feFlood flood-color="#fff" result="bg"/><feBlend in="SourceGraphic" in2="bg"/></filter><mask id="mask-9" x="258.45" y="111.22" width="6.81" height="146.65" maskUnits="userSpaceOnUse"><g class="cls-1"><path class="cls-2" d="M262.1,111.9l-.5-.3c-1.7-1-3.1.1-3.1,2.4V251.2a7.6,7.6,0,0,0,3.1,6l.5.3c1.7,1,3.2-.1,3.2-2.4V117.9A7.7,7.7,0,0,0,262.1,111.9Z"/></g></mask><linearGradient id="Áåçûìÿííûé_ãðàäèåíò_364" x1="-527.18" y1="1213.14" x2="-527.18" y2="1087.04" gradientTransform="matrix(0.87, 0.5, 0, 1.15, 718.4, -879.87)" gradientUnits="userSpaceOnUse"><stop offset="0" stop-color="#5761d7"/><stop offset="0.01" stop-color="#5665d7"/><stop offset="0.13" stop-color="#4f94da"/><stop offset="0.24" stop-color="#49b8dd"/><stop offset="0.34" stop-color="#45d3df"/><stop offset="0.43" stop-color="#43e2e0"/><stop offset="0.51" stop-color="#42e8e0"/><stop offset="0.57" stop-color="#43e0df"/><stop offset="0.67" stop-color="#46ccde"/><stop offset="0.8" stop-color="#4ca9dc"/><stop offset="0.93" stop-color="#537ad9"/><stop offset="1" stop-color="#5761d7"/></linearGradient><filter id="luminosity-noclip-10" x="271.23" y="140.45" width="6.81" height="124.79" filterUnits="userSpaceOnUse" color-interpolation-filters="sRGB"><feFlood flood-color="#fff" result="bg"/><feBlend in="SourceGraphic" in2="bg"/></filter><mask id="mask-10" x="271.23" y="140.45" width="6.81" height="124.79" maskUnits="userSpaceOnUse"><g class="cls-13"><path class="cls-14" d="M274.9,141.1l-.5-.3c-1.8-1-3.2.1-3.2,2.4V258.5a7.5,7.5,0,0,0,3.2,6.1l.5.3c1.7,1,3.1-.1,3.1-2.4V147.2A7.6,7.6,0,0,0,274.9,141.1Z"/></g></mask><linearGradient id="Áåçûìÿííûé_ãðàäèåíò_364-2" x1="-512.42" y1="1213.14" x2="-512.42" y2="1105.96" xlink:href="#Áåçûìÿííûé_ãðàäèåíò_364"/><filter id="luminosity-noclip-11" x="284.01" y="174.98" width="6.81" height="52.7" filterUnits="userSpaceOnUse" color-interpolation-filters="sRGB"><feFlood flood-color="#fff" result="bg"/><feBlend in="SourceGraphic" in2="bg"/></filter><mask id="mask-11" x="284.01" y="174.98" width="6.81" height="52.7" maskUnits="userSpaceOnUse"><g class="cls-21"><path class="cls-22" d="M287.6,175.6l-.4-.2c-1.8-1.1-3.2,0-3.2,2.4V221a7.4,7.4,0,0,0,3.2,6l.4.3c1.8,1,3.2-.1,3.2-2.4V181.7C290.8,179.4,289.4,176.6,287.6,175.6Z"/></g></mask><linearGradient id="Áåçûìÿííûé_ãðàäèåíò_364-3" x1="-497.67" y1="1174.21" x2="-497.67" y2="1129.47" xlink:href="#Áåçûìÿííûé_ãðàäèåíò_364"/><filter id="luminosity-noclip-12" x="296.67" y="193.93" width="6.81" height="26.06" filterUnits="userSpaceOnUse" color-interpolation-filters="sRGB"><feFlood flood-color="#fff" result="bg"/><feBlend in="SourceGraphic" in2="bg"/></filter><mask id="mask-12" x="296.67" y="193.93" width="6.81" height="26.06" maskUnits="userSpaceOnUse"><g class="cls-23"><path class="cls-24" d="M300.3,194.6l-.5-.3c-1.7-1-3.1.1-3.1,2.4v16.6a7.6,7.6,0,0,0,3.1,6l.5.3c1.8,1,3.2-.1,3.2-2.4V200.6A7.4,7.4,0,0,0,300.3,194.6Z"/></g></mask><linearGradient id="Áåçûìÿííûé_ãðàäèåíò_364-4" x1="-483.05" y1="1161.23" x2="-483.05" y2="1139.55" xlink:href="#Áåçûìÿííûé_ãðàäèåíò_364"/><filter id="luminosity-noclip-13" x="125.41" y="111.22" width="6.81" height="146.65" filterUnits="userSpaceOnUse" color-interpolation-filters="sRGB"><feFlood flood-color="#fff" result="bg"/><feBlend in="SourceGraphic" in2="bg"/></filter><mask id="mask-13" x="125.41" y="111.22" width="6.81" height="146.65" maskUnits="userSpaceOnUse"><g class="cls-25"><path class="cls-26" d="M128.6,111.9l.5-.3c1.7-1,3.1.1,3.1,2.4V251.2a7.6,7.6,0,0,1-3.1,6l-.5.3c-1.8,1-3.2-.1-3.2-2.4V117.9A7.4,7.4,0,0,1,128.6,111.9Z"/></g></mask><linearGradient id="Áåçûìÿííûé_ãðàäèåíò_364-5" x1="-2054.12" y1="1874.33" x2="-2054.12" y2="1748.22" gradientTransform="matrix(-0.87, 0.5, 0, 1.15, -1650.05, -879.87)" xlink:href="#Áåçûìÿííûé_ãðàäèåíò_364"/><filter id="luminosity-noclip-14" x="112.64" y="140.45" width="6.81" height="124.79" filterUnits="userSpaceOnUse" color-interpolation-filters="sRGB"><feFlood flood-color="#fff" result="bg"/><feBlend in="SourceGraphic" in2="bg"/></filter><mask id="mask-14" x="112.64" y="140.45" width="6.81" height="124.79" maskUnits="userSpaceOnUse"><g class="cls-3"><path class="cls-4" d="M115.8,141.1l.5-.3c1.7-1,3.2.1,3.2,2.4V258.5a7.7,7.7,0,0,1-3.2,6.1l-.5.3c-1.7,1-3.2-.1-3.2-2.4V147.2A7.7,7.7,0,0,1,115.8,141.1Z"/></g></mask><linearGradient id="Áåçûìÿííûé_ãðàäèåíò_364-6" x1="-2039.37" y1="1874.33" x2="-2039.37" y2="1767.15" gradientTransform="matrix(-0.87, 0.5, 0, 1.15, -1650.05, -879.87)" xlink:href="#Áåçûìÿííûé_ãðàäèåíò_364"/><filter id="luminosity-noclip-15" x="99.86" y="174.98" width="6.81" height="52.7" filterUnits="userSpaceOnUse" color-interpolation-filters="sRGB"><feFlood flood-color="#fff" result="bg"/><feBlend in="SourceGraphic" in2="bg"/></filter><mask id="mask-15" x="99.86" y="174.98" width="6.81" height="52.7" maskUnits="userSpaceOnUse"><g class="cls-5"><path class="cls-6" d="M103,175.6l.5-.2c1.8-1.1,3.2,0,3.2,2.4V221a7.4,7.4,0,0,1-3.2,6l-.5.3c-1.7,1-3.1-.1-3.1-2.4V181.7C99.9,179.4,101.3,176.6,103,175.6Z"/></g></mask><linearGradient id="Áåçûìÿííûé_ãðàäèåíò_364-7" x1="-2024.62" y1="1835.4" x2="-2024.62" y2="1790.66" gradientTransform="matrix(-0.87, 0.5, 0, 1.15, -1650.05, -879.87)" xlink:href="#Áåçûìÿííûé_ãðàäèåíò_364"/><filter id="luminosity-noclip-16" x="87.2" y="193.93" width="6.81" height="26.06" filterUnits="userSpaceOnUse" color-interpolation-filters="sRGB"><feFlood flood-color="#fff" result="bg"/><feBlend in="SourceGraphic" in2="bg"/></filter><mask id="mask-16" x="87.2" y="193.93" width="6.81" height="26.06" maskUnits="userSpaceOnUse"><g class="cls-7"><path class="cls-8" d="M90.4,194.6l.4-.3c1.8-1,3.2.1,3.2,2.4v16.6a7.4,7.4,0,0,1-3.2,6l-.4.3c-1.8,1-3.2-.1-3.2-2.4V200.6A7.4,7.4,0,0,1,90.4,194.6Z"/></g></mask><linearGradient id="Áåçûìÿííûé_ãðàäèåíò_364-8" x1="-2009.99" y1="1822.41" x2="-2009.99" y2="1800.74" gradientTransform="matrix(-0.87, 0.5, 0, 1.15, -1650.05, -879.87)" xlink:href="#Áåçûìÿííûé_ãðàäèåíò_364"/><linearGradient id="Áåçûìÿííûé_ãðàäèåíò_254" x1="215.4" y1="299.85" x2="323.47" y2="299.85" gradientUnits="userSpaceOnUse"><stop offset="0" stop-color="#42e8e0"/><stop offset="0.15" stop-color="#43e3e0"/><stop offset="0.33" stop-color="#45d5df"/><stop offset="0.52" stop-color="#49bddd"/><stop offset="0.72" stop-color="#4e9cdb"/><stop offset="0.93" stop-color="#5472d8"/><stop offset="1" stop-color="#5761d7"/></linearGradient><linearGradient id="Áåçûìÿííûé_ãðàäèåíò_24-6" x1="102.34" y1="-5.4" x2="203.41" y2="-5.4" gradientTransform="matrix(0.87, -0.5, 0, 1.15, 126.39, 349.04)" xlink:href="#Áåçûìÿííûé_ãðàäèåíò_24"/><radialGradient id="Áåçûìÿííûé_ãðàäèåíò_25" cx="235.59" cy="265.36" fx="196.2091410804695" fy="251.47138822843058" r="41.75" gradientUnits="userSpaceOnUse"><stop offset="0" stop-color="#2b237c"/><stop offset="1" stop-color="#180d5b"/></radialGradient><linearGradient id="Áåçûìÿííûé_ãðàäèåíò_24-7" x1="215.01" y1="278.48" x2="315.63" y2="278.48" xlink:href="#Áåçûìÿííûé_ãðàäèåíò_24"/><linearGradient id="Áåçûìÿííûé_ãðàäèåíò_3" x1="121.93" y1="11.61" x2="223.01" y2="11.61" gradientTransform="matrix(0.87, -0.5, 0, 1.15, 126.39, 349.04)" gradientUnits="userSpaceOnUse"><stop offset="0" stop-color="#c0bff6"/><stop offset="0.29" stop-color="#c5c4f7"/><stop offset="0.64" stop-color="#d3d2f9"/><stop offset="1" stop-color="#e9e9fd"/></linearGradient><linearGradient id="Áåçûìÿííûé_ãðàäèåíò_22-3" x1="158.53" y1="332.13" x2="226.28" y2="332.13" xlink:href="#Áåçûìÿííûé_ãðàäèåíò_22"/><clipPath id="clip-path"><path class="cls-27" d="M212.9,237.5a4.7,4.7,0,0,0-1.5-.6h-1.6a9.2,9.2,0,0,0-3.9,1.6,11.8,11.8,0,0,0-1.1,1.3v-.3c0-.3-.1-.6-.1-.9h0a.5.5,0,0,0,.5-.3h0a1,1,0,0,0-1-1.4H180.4a1,1,0,0,0-1,1.4h0a.5.5,0,0,0,.4.3h.3c0,.3-.1.7-.1,1.2a11.8,11.8,0,0,0-1.1-1.3,8.9,8.9,0,0,0-2.5-1.3,5.8,5.8,0,0,0-1.9-.3h-1.9l-.7.4h-.3l-.7.6-.2.2a5.6,5.6,0,0,0-1.4,4.2,9.3,9.3,0,0,0,1.2,4.1l.3.6.8,1.2,1.3,1.7,1.5,1.4a38.2,38.2,0,0,0,9.4,6,23.5,23.5,0,0,0,5.7,7.1h-.1l-.2.4h0l-.4.9h1.1l.2.2h.2c0,.1,0,.1.1.2h0c0,.1.1.2.1.3h.1c0,.1,0,.1.1.2h-.1a1.7,1.7,0,0,0-.6,1.2h0v.3a1.7,1.7,0,0,1,1.2,2.3h0c-.5,3-1.5,7.8-3.5,10.8H187a2.7,2.7,0,0,0-2.4,2.8h0a3.1,3.1,0,0,0-2.9,3.3v6.6h-.3a.9.9,0,0,0-.8.6l-.6,1.3h-.5a.7.7,0,0,0-.7.6l-.3,1.4h27.6l-.3-1.4a.7.7,0,0,0-.7-.6h-.3l-.6-1.3a.9.9,0,0,0-.8-.6h-.3v-6.6a3.1,3.1,0,0,0-2.9-3.3h0a2.7,2.7,0,0,0-2.4-2.8h-.7c-2-2.9-3-7.7-3.4-10.7h0c-.1-.3-.1-.6-.2-.8h.2v-.2h.5v-.2h.2a.1.1,0,0,1,.1-.1h0a.1.1,0,0,0,.1-.1h0c0-.1,0-.1.1-.2h0c0-.1,0-.2-.1-.2h0a1.7,1.7,0,0,0-.6-1.1h0a1.9,1.9,0,0,1,.4-.9h.2c0-.1.1-.1.1-.2H196a.1.1,0,0,1,.1-.1H196l-.6-1.3h0a24.7,24.7,0,0,0,5.6-7.1,38.2,38.2,0,0,0,9.4-6l1-.9,1.4-1.6.4-.6.8-1.2.3-.6a9.8,9.8,0,0,0,1.1-3.3A5.4,5.4,0,0,0,212.9,237.5Zm-30.7,17.2-.8-.4h-.1l-.9-.5h0l-1-.6h0l-1-.8h-.1l-.5-.4h0a18.9,18.9,0,0,1-2.7-2.9,12.8,12.8,0,0,1-2.5-6,4.8,4.8,0,0,1,.2-2.2l.2-.4a2.1,2.1,0,0,1,1.1-.8c2.2-.7,4.4,2.7,5.9,3.2a33.9,33.9,0,0,0,2.5,12.1l-.3-.2Zm-2.3-12.6h0Zm24.9,0h0Zm-1.2,9.2c.2-.7.3-1.4.5-2.1l.3-2,.3-1.9a21.8,21.8,0,0,0,.1-2.5c1.5-.4,3.6-3.7,5.8-3.2h.1c2.5.7,2,5.1-1,9.4a20.2,20.2,0,0,1-7.4,5.9C202.8,253.7,203.2,252.5,203.6,251.3Z"/></clipPath><radialGradient id="radial-gradient-11" cx="192.89" cy="247.6" r="19.31" gradientUnits="userSpaceOnUse"><stop offset="0.01" stop-color="#ffd44a"/><stop offset="0.54" stop-color="#ffea72"/><stop offset="0.57" stop-color="#fee471"/><stop offset="0.61" stop-color="#fbd46e"/><stop offset="0.65" stop-color="#f6ba68"/><stop offset="0.7" stop-color="#ef9561"/><stop offset="0.71" stop-color="#ee9060"/><stop offset="0.96" stop-color="#ffd44a"/></radialGradient><radialGradient id="radial-gradient-12" cx="-161.14" cy="247.63" r="15" gradientTransform="matrix(-1, 0, 0, 1, 33.58, 0)" gradientUnits="userSpaceOnUse"><stop offset="0.02" stop-color="#bd4a00"/><stop offset="1" stop-color="#864a00"/></radialGradient><linearGradient id="linear-gradient" x1="215.4" y1="245.01" x2="202.43" y2="247.99" gradientUnits="userSpaceOnUse"><stop offset="0" stop-color="#efc16b"/><stop offset="0.08" stop-color="#c38f4b"/><stop offset="0.12" stop-color="#aa7238"/><stop offset="0.25" stop-color="#c08443"/><stop offset="0.35" stop-color="#c28543"/><stop offset="0.39" stop-color="#c98943"/><stop offset="0.41" stop-color="#d48f42"/><stop offset="0.42" stop-color="#db9342"/><stop offset="0.66" stop-color="#ac6838"/><stop offset="0.89" stop-color="#f0c46c"/><stop offset="0.93" stop-color="#efc26b"/><stop offset="0.96" stop-color="#ecb967"/><stop offset="0.98" stop-color="#e7ab60"/><stop offset="0.99" stop-color="#df9856"/><stop offset="1" stop-color="#dc8f52"/></linearGradient><radialGradient id="radial-gradient-13" cx="192.89" cy="247.6" r="19.31" xlink:href="#radial-gradient-11"/><radialGradient id="radial-gradient-14" cx="192.89" cy="247.6" r="19.31" gradientUnits="userSpaceOnUse"><stop offset="0" stop-color="#bd4a00"/><stop offset="0.62" stop-color="#ffea72"/></radialGradient><radialGradient id="radial-gradient-15" cx="186.86" cy="253.8" r="5.3" gradientUnits="userSpaceOnUse"><stop offset="0" stop-color="#ffffc3"/><stop offset="0.95" stop-color="#ffea72"/></radialGradient><radialGradient id="radial-gradient-16" cx="170.75" cy="245.27" r="11.84" xlink:href="#radial-gradient-15"/><radialGradient id="radial-gradient-17" cx="90.63" cy="245.27" r="11.84" gradientTransform="matrix(-1, 0, 0, 1, 304.7, 0)" xlink:href="#radial-gradient-15"/><radialGradient id="radial-gradient-18" cx="190.1" cy="247.63" r="15" gradientTransform="matrix(1, 0, 0, 1, 0, 0)" xlink:href="#radial-gradient-12"/><linearGradient id="linear-gradient-3" x1="245.08" y1="245.01" x2="232.1" y2="247.99" gradientTransform="matrix(-1, 0, 0, 1, 414.49, 0)" xlink:href="#linear-gradient"/><radialGradient id="radial-gradient-19" cx="192.58" cy="236.92" r="27.01" gradientUnits="userSpaceOnUse"><stop offset="0" stop-color="#f4be52"/><stop offset="0.62" stop-color="#ffea72"/></radialGradient><radialGradient id="radial-gradient-20" cx="192.58" cy="236.92" r="27.01" xlink:href="#radial-gradient-14"/><radialGradient id="radial-gradient-21" cx="192.94" cy="237.37" r="28.78" xlink:href="#radial-gradient-14"/><radialGradient id="radial-gradient-22" cx="192.94" cy="237.37" r="28.78" xlink:href="#radial-gradient-15"/><radialGradient id="radial-gradient-23" cx="226.58" cy="236.92" r="27.01" gradientTransform="translate(31.6) scale(0.71 1)" xlink:href="#radial-gradient-19"/><linearGradient id="linear-gradient-5" x1="192.41" y1="264.55" x2="192.41" y2="238.18" gradientUnits="userSpaceOnUse"><stop offset="0" stop-color="#aa7238"/><stop offset="0.25" stop-color="#c08443"/><stop offset="0.35" stop-color="#be8242"/><stop offset="0.39" stop-color="#b87b3d"/><stop offset="0.42" stop-color="#ad7036"/><stop offset="0.44" stop-color="#9d5f2b"/><stop offset="0.46" stop-color="#88491d"/><stop offset="0.47" stop-color="#7a3a14"/><stop offset="0.64" stop-color="#7c3c15"/><stop offset="0.72" stop-color="#83441a"/><stop offset="0.79" stop-color="#8e5123"/><stop offset="0.85" stop-color="#9e642f"/><stop offset="0.9" stop-color="#b37c3e"/><stop offset="0.95" stop-color="#cd9b52"/><stop offset="0.99" stop-color="#ebbe68"/><stop offset="1" stop-color="#f0c46c"/></linearGradient><radialGradient id="radial-gradient-24" cx="193.05" cy="238.26" r="23.26" gradientUnits="userSpaceOnUse"><stop offset="0.01" stop-color="#f6c054"/><stop offset="0.54" stop-color="#ffea72"/><stop offset="0.58" stop-color="#fff071"/><stop offset="0.59" stop-color="#fff171"/><stop offset="0.82" stop-color="#ffe05a"/><stop offset="0.96" stop-color="#ffd44a"/></radialGradient><radialGradient id="radial-gradient-25" cx="191.08" cy="238.26" r="23.26" gradientTransform="translate(42.9) scale(0.79 1)" xlink:href="#radial-gradient-24"/><radialGradient id="radial-gradient-26" cx="192.95" cy="240.15" r="18.98" xlink:href="#radial-gradient-24"/><radialGradient id="radial-gradient-27" cx="184.66" cy="240.9" r="12.71" xlink:href="#radial-gradient-24"/><radialGradient id="radial-gradient-28" cx="320.33" cy="238.26" r="23.26" gradientTransform="translate(69) scale(0.39 1)" xlink:href="#radial-gradient-24"/><radialGradient id="radial-gradient-29" cx="190.48" cy="249.1" r="12.09" xlink:href="#radial-gradient-24"/><linearGradient id="linear-gradient-6" x1="179.4" y1="237.71" x2="205.31" y2="237.71" gradientUnits="userSpaceOnUse"><stop offset="0.01" stop-color="#ffd44a"/><stop offset="0.11" stop-color="#f5f09f"/><stop offset="0.19" stop-color="#f5ee9d"/><stop offset="0.21" stop-color="#f4e996"/><stop offset="0.24" stop-color="#f3de8b"/><stop offset="0.25" stop-color="#f1d07a"/><stop offset="0.26" stop-color="#f0c46c"/><stop offset="0.31" stop-color="#efc26a"/><stop offset="0.34" stop-color="#edbb61"/><stop offset="0.36" stop-color="#eaaf53"/><stop offset="0.37" stop-color="#e8aa4d"/><stop offset="0.51" stop-color="#fce16d"/><stop offset="0.54" stop-color="#ffea72"/><stop offset="0.58" stop-color="#fde473"/><stop offset="0.64" stop-color="#f9d476"/><stop offset="0.7" stop-color="#f2ba7c"/><stop offset="0.71" stop-color="#f1b87c"/><stop offset="0.96" stop-color="#ffd44a"/></linearGradient><linearGradient id="linear-gradient-7" x1="197.03" y1="237.71" x2="202.18" y2="237.71" gradientUnits="userSpaceOnUse"><stop offset="0.54" stop-color="#ffea72"/><stop offset="0.66" stop-color="#ffe76c"/><stop offset="0.83" stop-color="#ffde5c"/><stop offset="0.96" stop-color="#ffd44a"/></linearGradient><radialGradient id="radial-gradient-30" cx="199.32" cy="237.71" r="1.91" xlink:href="#radial-gradient-24"/><radialGradient id="radial-gradient-31" cx="192.29" cy="237.71" r="9.18" gradientUnits="userSpaceOnUse"><stop offset="0.01" stop-color="#f6c054"/><stop offset="0.54" stop-color="#ffea72"/><stop offset="0.66" stop-color="#ffe76c"/><stop offset="0.83" stop-color="#ffde5c"/><stop offset="0.96" stop-color="#ffd44a"/></radialGradient><radialGradient id="radial-gradient-32" cx="192.29" cy="311.64" r="9.18" gradientTransform="translate(0 -13.9) scale(1 0.81)" xlink:href="#radial-gradient-24"/><linearGradient id="linear-gradient-8" x1="182.95" y1="237.88" x2="189.72" y2="237.88" gradientUnits="userSpaceOnUse"><stop offset="0" stop-color="#aa7238"/><stop offset="0.25" stop-color="#c08443"/><stop offset="0.35" stop-color="#be8242"/><stop offset="0.39" stop-color="#b87b3d"/><stop offset="0.42" stop-color="#ad7036"/><stop offset="0.44" stop-color="#9d5f2b"/><stop offset="0.46" stop-color="#88491d"/><stop offset="0.47" stop-color="#7a3a14"/><stop offset="0.5" stop-color="#7f4018"/><stop offset="0.56" stop-color="#8e5223"/><stop offset="0.62" stop-color="#a76f36"/><stop offset="0.69" stop-color="#ca974f"/><stop offset="0.76" stop-color="#f0c46c"/></linearGradient><radialGradient id="radial-gradient-33" cx="192.67" cy="241.8" r="23.69" gradientUnits="userSpaceOnUse"><stop offset="0.38" stop-color="#ffea72"/><stop offset="0.45" stop-color="#fade69"/><stop offset="0.59" stop-color="#ecbd52"/><stop offset="0.74" stop-color="#da9032"/></radialGradient><mask id="mask-17" x="193.28" y="236.38" width="9.46" height="11.29" maskUnits="userSpaceOnUse"><polygon class="cls-9" points="198.2 242 200.6 240 198.7 242.5 202.7 242.7 198.7 243.2 202.7 247.7 198.2 243.7 197.9 246.9 197.5 243.7 195.3 245.6 197 243.2 193.3 242.9 197 242.5 194.2 239.4 197.5 242 197.8 236.4 198.2 242"/></mask><linearGradient id="linear-gradient-9" x1="194.5" y1="265.37" x2="190.54" y2="265.37" gradientUnits="userSpaceOnUse"><stop offset="0" stop-color="#ffea72"/><stop offset="0.75" stop-color="#f1aa00"/><stop offset="0.89" stop-color="#f4be52"/></linearGradient><linearGradient id="linear-gradient-10" x1="195.63" y1="264.17" x2="195.62" y2="269.72" xlink:href="#radial-gradient-15"/><linearGradient id="linear-gradient-11" x1="189.2" y1="264.15" x2="189.18" y2="269.71" xlink:href="#radial-gradient-15"/><linearGradient id="linear-gradient-12" x1="194.39" y1="265.37" x2="188.99" y2="265.37" xlink:href="#linear-gradient-5"/><linearGradient id="linear-gradient-13" x1="191.09" y1="265.35" x2="192.76" y2="265.46" gradientUnits="userSpaceOnUse"><stop offset="0" stop-color="#aa7238"/><stop offset="0.25" stop-color="#c08443"/><stop offset="0.35" stop-color="#be8242"/><stop offset="0.39" stop-color="#b87b3d"/><stop offset="0.42" stop-color="#ad7036"/><stop offset="0.44" stop-color="#9d5f2b"/><stop offset="0.46" stop-color="#88491d"/><stop offset="0.47" stop-color="#7a3a14"/><stop offset="0.57" stop-color="#7d3d16"/><stop offset="0.66" stop-color="#86481d"/><stop offset="0.74" stop-color="#955a28"/><stop offset="0.83" stop-color="#ab7338"/><stop offset="0.91" stop-color="#c6934d"/><stop offset="0.98" stop-color="#e8ba66"/><stop offset="1" stop-color="#f0c46c"/></linearGradient><radialGradient id="radial-gradient-34" cx="173.42" cy="265.37" r="1.19" gradientTransform="matrix(-1, 0, 0, 1, 365.71, 0)" xlink:href="#radial-gradient-24"/><linearGradient id="linear-gradient-14" x1="194.5" y1="265.37" x2="190.54" y2="265.37" gradientUnits="userSpaceOnUse"><stop offset="0" stop-color="#ffe791"/><stop offset="0.11" stop-color="#ffd951"/><stop offset="0.22" stop-color="#ffcc17"/><stop offset="0.27" stop-color="#ffc700"/><stop offset="0.48" stop-color="#ffd233"/><stop offset="0.72" stop-color="#fd6"/><stop offset="0.9" stop-color="#ffe485"/><stop offset="1" stop-color="#ffe791"/></linearGradient><linearGradient id="linear-gradient-15" x1="194.5" y1="267.7" x2="190.54" y2="267.7" xlink:href="#linear-gradient-9"/><linearGradient id="linear-gradient-16" x1="193.61" y1="267.79" x2="190.69" y2="267.79" xlink:href="#linear-gradient-14"/><linearGradient id="linear-gradient-17" x1="193.08" y1="267.63" x2="194.3" y2="267.76" xlink:href="#linear-gradient-5"/><radialGradient id="radial-gradient-35" cx="192.41" cy="267.7" r="2.25" xlink:href="#radial-gradient-24"/><linearGradient id="linear-gradient-18" x1="191.36" y1="267.38" x2="192.4" y2="267.24" xlink:href="#linear-gradient-13"/><linearGradient id="linear-gradient-19" x1="192.33" y1="268.54" x2="192.41" y2="266.1" gradientUnits="userSpaceOnUse"><stop offset="0" stop-color="#ffffc3"/><stop offset="0.42" stop-color="#ecc972"/></linearGradient><radialGradient id="radial-gradient-36" cx="193.12" cy="265.99" r="3.47" xlink:href="#radial-gradient-15"/><radialGradient id="radial-gradient-37" cx="193.08" cy="266.51" r="4.2" xlink:href="#linear-gradient-19"/><linearGradient id="linear-gradient-20" x1="201.98" y1="286.55" x2="182.97" y2="298.23" gradientUnits="userSpaceOnUse"><stop offset="0.04" stop-color="#a5422d"/><stop offset="0.99" stop-color="#6a2e25"/></linearGradient><radialGradient id="radial-gradient-38" cx="192.41" cy="359.77" r="8.78" gradientTransform="translate(0 15.4) scale(1 0.78)" xlink:href="#radial-gradient-24"/><radialGradient id="radial-gradient-39" cx="192.41" cy="296.27" r="8.77" xlink:href="#radial-gradient-15"/><radialGradient id="radial-gradient-40" cx="192.51" cy="276.22" r="4.42" xlink:href="#radial-gradient-15"/><linearGradient id="linear-gradient-21" x1="192.41" y1="282.19" x2="192.41" y2="269.39" xlink:href="#linear-gradient-5"/><linearGradient id="linear-gradient-22" x1="190.74" y1="276.42" x2="195.94" y2="276.42" xlink:href="#linear-gradient-14"/><radialGradient id="radial-gradient-41" cx="191.21" cy="276.42" r="5.26" gradientTransform="translate(39.4) scale(0.8 1)" xlink:href="#radial-gradient-24"/><radialGradient id="radial-gradient-42" cx="192.41" cy="284.01" r="5.58" xlink:href="#radial-gradient-15"/><radialGradient id="radial-gradient-43" cx="192.4" cy="330.81" r="5.61" gradientTransform="translate(0 6.2) scale(1 0.84)" xlink:href="#radial-gradient-31"/><radialGradient id="radial-gradient-44" cx="192.4" cy="330.81" r="5.69" gradientTransform="translate(0 6.2) scale(1 0.84)" xlink:href="#radial-gradient-24"/><linearGradient id="linear-gradient-23" x1="187.76" y1="284.23" x2="193.01" y2="284.23" xlink:href="#linear-gradient-5"/><radialGradient id="radial-gradient-45" cx="192.48" cy="266.98" r="4.15" gradientUnits="userSpaceOnUse"><stop offset="0" stop-color="#ffea72"/><stop offset="0.75" stop-color="#f4be52"/><stop offset="0.89" stop-color="#f4be52"/></radialGradient><radialGradient id="radial-gradient-46" cx="192.59" cy="269.14" r="2.19" xlink:href="#radial-gradient-15"/><radialGradient id="radial-gradient-47" cx="191.49" cy="266.98" r="4.15" gradientTransform="translate(18.9) scale(0.91 1)" xlink:href="#linear-gradient-9"/><linearGradient id="linear-gradient-24" x1="235.09" y1="269.54" x2="239.99" y2="269.54" gradientTransform="translate(37.7) scale(0.65 1)" xlink:href="#linear-gradient-5"/><radialGradient id="radial-gradient-48" cx="192.52" cy="267.96" r="2.48" xlink:href="#radial-gradient-31"/><linearGradient id="linear-gradient-25" x1="192.32" y1="296.8" x2="192.32" y2="299.33" gradientUnits="userSpaceOnUse"><stop offset="0.04" stop-color="#a5422d"/><stop offset="0.48" stop-color="#8a3929"/><stop offset="0.99" stop-color="#6a2e25"/></linearGradient><radialGradient id="radial-gradient-49" cx="192.29" cy="290.49" r="6.29" gradientUnits="userSpaceOnUse"><stop offset="0" stop-color="#ffffc3"/><stop offset="1" stop-color="#fff18d"/></radialGradient><linearGradient id="linear-gradient-26" x1="185.45" y1="293.35" x2="200.46" y2="287.06" gradientUnits="userSpaceOnUse"><stop offset="0.01" stop-color="#f6c054"/><stop offset="0.28" stop-color="#cda85a"/><stop offset="0.54" stop-color="#ffea72"/><stop offset="0.58" stop-color="#fff071"/><stop offset="0.59" stop-color="#fff171"/><stop offset="0.82" stop-color="#ffe05a"/><stop offset="0.96" stop-color="#ffd44a"/></linearGradient><linearGradient id="linear-gradient-27" x1="185.91" y1="295.17" x2="201.48" y2="288.65" xlink:href="#linear-gradient-26"/><linearGradient id="linear-gradient-28" x1="184.44" y1="291.71" x2="202.04" y2="284.34" xlink:href="#linear-gradient-26"/><linearGradient id="linear-gradient-29" x1="186.31" y1="287.79" x2="186.55" y2="288.14" gradientUnits="userSpaceOnUse"><stop offset="0" stop-color="#b8b3a6"/><stop offset="1" stop-color="#61563a"/></linearGradient><linearGradient id="linear-gradient-30" x1="198.04" y1="287.79" x2="198.28" y2="288.14" xlink:href="#linear-gradient-29"/><linearGradient id="linear-gradient-31" x1="186.31" y1="292.84" x2="186.55" y2="293.19" xlink:href="#linear-gradient-29"/><linearGradient id="linear-gradient-32" x1="198.04" y1="292.84" x2="198.28" y2="293.19" xlink:href="#linear-gradient-29"/><radialGradient id="radial-gradient-50" cx="192.29" cy="237.71" r="9.18" xlink:href="#radial-gradient-15"/><mask id="mask-18" x="191.16" y="267.26" width="2.79" height="3.82" maskUnits="userSpaceOnUse"><path class="cls-10" d="M193.4,268.7c.6,1,.7,2,.3,2.3s-1.4-.3-2-1.3-.7-2.1-.2-2.4S192.8,267.6,193.4,268.7Z"/></mask><radialGradient id="radial-gradient-51" cx="371.33" cy="43.05" r="1.56" gradientTransform="matrix(0.54, -0.33, 0.71, 1.18, -40.15, 339.66)" gradientUnits="userSpaceOnUse"><stop offset="0" stop-color="#ececd1"/><stop offset="1"/></radialGradient><mask id="mask-19" x="210.91" y="235.58" width="6.66" height="9.14" maskUnits="userSpaceOnUse"><path class="cls-11" d="M216.3,238.9c1.4,2.5,1.7,5,.6,5.7s-3.2-.8-4.7-3.2-1.7-5-.6-5.6S214.8,236.5,216.3,238.9Z"/></mask><radialGradient id="radial-gradient-52" cx="424.11" cy="33.06" r="3.73" xlink:href="#radial-gradient-51"/><mask id="mask-20" x="167.54" y="237.44" width="6.68" height="9.16" maskUnits="userSpaceOnUse"><path class="cls-12" d="M172.9,240.8c1.5,2.4,1.7,5,.6,5.6s-3.2-.7-4.7-3.2-1.7-4.9-.6-5.6S171.5,238.4,172.9,240.8Z"/></mask><radialGradient id="radial-gradient-53" cx="364.03" cy="18.01" r="3.74" xlink:href="#radial-gradient-51"/><mask id="mask-21" x="191.92" y="233.75" width="17.88" height="8.26" maskUnits="userSpaceOnUse"><path class="cls-15" d="M200.9,233.7c4.9.1,8.9,1.9,8.9,4.2s-4,4.1-9,4.1-8.9-1.9-8.9-4.2S195.9,233.7,200.9,233.7Z"/></mask><radialGradient id="radial-gradient-54" cx="711.7" cy="-10.64" r="6.5" gradientTransform="matrix(0, -0.64, 1.38, 0.01, 213.21, 689.95)" xlink:href="#radial-gradient-51"/><mask id="mask-22" x="197.76" y="234.76" width="6.19" height="6.23" maskUnits="userSpaceOnUse"><path class="cls-16" d="M204,237.9a3.1,3.1,0,0,1-3.1,3.1,3.1,3.1,0,0,1,0-6.2A3.1,3.1,0,0,1,204,237.9Z"/></mask><radialGradient id="radial-gradient-55" cx="200.86" cy="237.55" r="2.95" gradientTransform="translate(0 -26.8) scale(1 1.11)" gradientUnits="userSpaceOnUse"><stop offset="0" stop-color="#ffefa1"/><stop offset="0.13" stop-color="#e5d791"/><stop offset="0.4" stop-color="#a39967"/><stop offset="0.79" stop-color="#3b3725"/><stop offset="1"/></radialGradient><radialGradient id="radial-gradient-56" cx="200.9" cy="237.55" r="0.41" gradientTransform="translate(0 -26.8) scale(1 1.11)" gradientUnits="userSpaceOnUse"><stop offset="0.51" stop-color="#fffccc"/><stop offset="0.56" stop-color="#faf7c8"/><stop offset="0.62" stop-color="#eae8bb"/><stop offset="0.69" stop-color="#d1cfa7"/><stop offset="0.76" stop-color="#aeac8b"/><stop offset="0.83" stop-color="#807f67"/><stop offset="0.91" stop-color="#49483a"/><stop offset="0.99" stop-color="#080807"/><stop offset="1"/></radialGradient><mask id="mask-23" x="191.44" y="281.32" width="6.19" height="6.23" maskUnits="userSpaceOnUse"><path class="cls-17" d="M197.6,284.4a3.1,3.1,0,1,1-3.1-3.1A3.1,3.1,0,0,1,197.6,284.4Z"/></mask><radialGradient id="radial-gradient-57" cx="194.53" cy="279.35" r="2.95" xlink:href="#radial-gradient-55"/><radialGradient id="radial-gradient-58" cx="194.58" cy="279.35" r="0.41" xlink:href="#radial-gradient-56"/><mask id="mask-24" x="187.99" y="238.07" width="16.99" height="11.41" maskUnits="userSpaceOnUse"><path class="cls-18" d="M198.4,239.3c4.6,2,7.4,5.6,6.4,8s-5.7,2.9-10.2.9-7.5-5.5-6.4-8S193.8,237.4,198.4,239.3Z"/></mask><radialGradient id="radial-gradient-59" cx="685.62" cy="-35.68" r="7.63" gradientTransform="matrix(0.25, -0.58, 1.08, 0.47, 62.75, 660.32)" xlink:href="#radial-gradient-51"/><mask id="mask-25" x="182.77" y="293.68" width="8.02" height="5.39" maskUnits="userSpaceOnUse"><path class="cls-19" d="M187.7,294.3c2.1.9,3.5,2.6,3,3.8s-2.7,1.3-4.8.4-3.5-2.6-3-3.8S185.5,293.3,187.7,294.3Z"/></mask><radialGradient id="radial-gradient-60" cx="603.52" cy="-25.58" r="3.6" gradientTransform="matrix(0.25, -0.58, 1.08, 0.47, 62.75, 660.32)" xlink:href="#radial-gradient-51"/><mask id="mask-26" x="192.25" y="281.32" width="4.34" height="5.37" maskUnits="userSpaceOnUse"><path class="cls-20" d="M196,283.1c.8,1.4.8,2.9-.1,3.4s-2.2-.2-3-1.6-.9-2.9,0-3.4S195.1,281.7,196,283.1Z"/></mask><radialGradient id="radial-gradient-61" cx="389.87" cy="52.98" r="2.13" gradientTransform="matrix(0.73, -0.44, 0.71, 1.18, -127.92, 392.31)" xlink:href="#radial-gradient-51"/><radialGradient id="radial-gradient-62" cx="194.74" cy="248.86" r="36.98" gradientUnits="userSpaceOnUse"><stop offset="0" stop-color="#ececbb"/><stop offset="1" stop-color="#784f58"/></radialGradient></defs><g class="cls-28"><g id="Layer_1" data-name="Layer 1"><g class="cls-29"><polygon class="cls-30" points="195.3 326.7 65.8 252 195.3 177.2 324.8 252 195.3 326.7"/></g><g class="cls-29"><polygon class="cls-30" points="195.3 315.2 85.9 252 195.3 188.8 304.8 252 195.3 315.2"/></g><path class="cls-31" d="M195.3,315.7h-.2L84.9,252l110.4-63.8.3.2L305.8,252ZM86.9,252l108.4,62.6L303.8,252,195.3,189.4Z"/><g class="cls-32"><polygon class="cls-33" points="195.3 301.7 109.3 252 195.3 202.3 281.4 252 195.3 301.7"/></g><path class="cls-34" d="M195.3,281.8c-14.2,0-28.5-3.2-39.3-9.5s-16.3-14.1-16.3-22.6S145.5,233,156,227s24.5-9.4,39.3-9.4,28.9,3.3,39.4,9.4S251,241.1,251,249.7s-5.8,16.6-16.3,22.6S209.6,281.8,195.3,281.8Zm0-63.2c-14.7,0-28.5,3.3-38.8,9.2s-15.8,13.7-15.8,21.9,5.6,15.9,15.8,21.8c21.4,12.4,56.3,12.4,77.7,0,10.2-5.9,15.8-13.6,15.8-21.8s-5.6-16-15.8-21.9S210,218.6,195.3,218.6Z"/><g class="cls-29"><ellipse class="cls-35" cx="195.3" cy="249.7" rx="41.9" ry="24.2"/></g><path class="cls-36" d="M246.6,231.4V220.1h-3.9a34.4,34.4,0,0,0-11.1-9.6c-20-11.5-52.5-11.5-72.5,0a34.4,34.4,0,0,0-11.1,9.6h-3.9v11.3h0c0,7.6,5,15.2,15,21,20,11.5,52.5,11.5,72.5,0C241.6,246.6,246.6,239,246.6,231.4Z"/><ellipse class="cls-37" cx="195.3" cy="220.1" rx="51.3" ry="29.6"/><path class="cls-35" d="M242.7,219.6V204.1H239a32.2,32.2,0,0,0-10.2-8.8c-18.5-10.7-48.4-10.7-66.9,0a31.6,31.6,0,0,0-10.3,8.8H148v15.5h0c0,7,4.6,14,13.9,19.4,18.5,10.6,48.4,10.6,66.9,0C238.1,233.6,242.7,226.6,242.7,219.6Z"/><g class="cls-38"><path class="cls-39" d="M242.7,215.9V200.4H239a33.7,33.7,0,0,0-10.2-8.9c-18.5-10.6-48.4-10.6-66.9,0a33,33,0,0,0-10.3,8.9H148v15.5h0c0,7,4.6,14,13.9,19.3,18.5,10.7,48.4,10.7,66.9,0C238.1,229.9,242.7,222.9,242.7,215.9Z"/></g><ellipse class="cls-37" cx="195.3" cy="204.1" rx="47.3" ry="27.3"/><g class="cls-38"><path class="cls-40" d="M228,224.2c-8.2,10.4-18.9,15.9-28,18.9,10.5-.6,20.8-3.2,28.8-7.9s13.9-12.3,13.9-19.3v-4.6A47.2,47.2,0,0,0,228,224.2Z"/></g><path class="cls-41" d="M246.6,203.9V192.5h-3.9a35.7,35.7,0,0,0-11.1-9.6c-20-11.5-52.5-11.5-72.5,0a35.7,35.7,0,0,0-11.1,9.6h-3.9v11.4h0c0,7.5,5,15.1,15,20.9,20,11.5,52.5,11.5,72.5,0C241.6,219,246.6,211.4,246.6,203.9Z"/><ellipse class="cls-37" cx="195.3" cy="192.5" rx="51.3" ry="29.6"/><path class="cls-35" d="M242.7,191.5V176H239a32.4,32.4,0,0,0-10.2-8.9c-18.5-10.6-48.4-10.6-66.9,0a31.7,31.7,0,0,0-10.3,8.9H148v15.5h0c0,7,4.6,14,13.9,19.3,18.5,10.7,48.4,10.7,66.9,0C238.1,205.5,242.7,198.5,242.7,191.5Z"/><g class="cls-38"><path class="cls-39" d="M242.7,187.9V172.4H239a32.2,32.2,0,0,0-10.2-8.8c-18.5-10.7-48.4-10.7-66.9,0a31.6,31.6,0,0,0-10.3,8.8H148v15.5h0c0,7,4.6,14,13.9,19.4,18.5,10.6,48.4,10.6,66.9,0C238.1,201.9,242.7,194.9,242.7,187.9Z"/></g><ellipse class="cls-37" cx="195.3" cy="176" rx="47.3" ry="27.3"/><g class="cls-38"><path class="cls-40" d="M228,194.6c-10.2,12.9-24.3,18.3-34.3,20.6,12.7.3,25.5-2.4,35.1-7.9s13.9-12.4,13.9-19.4v-6.3A49.1,49.1,0,0,0,228,194.6Z"/></g><path class="cls-42" d="M246.6,175.7V164.3h-3.9a35.5,35.5,0,0,0-11.1-9.5c-20-11.6-52.5-11.6-72.5,0a35.5,35.5,0,0,0-11.1,9.5h-3.9v11.4h0c0,7.6,5,15.2,15,20.9,20,11.6,52.5,11.6,72.5,0C241.6,190.9,246.6,183.3,246.6,175.7Z"/><ellipse class="cls-37" cx="195.3" cy="164.3" rx="51.3" ry="29.6"/><path class="cls-35" d="M242.7,163.3V147.8H239a32.2,32.2,0,0,0-10.2-8.8c-18.5-10.7-48.4-10.7-66.9,0a31.6,31.6,0,0,0-10.3,8.8H148v15.5h0c0,7,4.6,14,13.9,19.4,18.5,10.6,48.4,10.6,66.9,0C238.1,177.3,242.7,170.3,242.7,163.3Z"/><g class="cls-38"><path class="cls-39" d="M242.7,159V143.5H239a33.7,33.7,0,0,0-10.2-8.9c-18.5-10.6-48.4-10.6-66.9,0a33,33,0,0,0-10.3,8.9H148V159h0c0,7,4.6,14,13.9,19.3,18.5,10.7,48.4,10.7,66.9,0C238.1,173,242.7,166,242.7,159Z"/></g><ellipse class="cls-37" cx="195.3" cy="147.8" rx="47.3" ry="27.3"/><path class="cls-43" d="M246.6,147.6V136.2h-3.9a35.7,35.7,0,0,0-11.1-9.6c-20-11.5-52.5-11.5-72.5,0a35.7,35.7,0,0,0-11.1,9.6h-3.9v11.4h0c0,7.5,5,15.1,15,20.9,20,11.5,52.5,11.5,72.5,0C241.6,162.7,246.6,155.1,246.6,147.6Z"/><ellipse class="cls-37" cx="195.3" cy="136.2" rx="51.3" ry="29.6"/><ellipse class="cls-37" cx="195.3" cy="136.2" rx="51.3" ry="29.6"/><g class="cls-38"><path class="cls-40" d="M228,165c-11.2,14.2-27.1,19.3-37.1,21.2,13.6.7,27.5-1.9,37.9-7.9S242.7,166,242.7,159v-7A49.1,49.1,0,0,0,228,165Z"/></g><path class="cls-43" d="M246.6,147.6V136.2h-3.9a35.7,35.7,0,0,0-11.1-9.6c-20-11.5-52.5-11.5-72.5,0a35.7,35.7,0,0,0-11.1,9.6h-3.9v11.4h0c0,7.5,5,15.1,15,20.9,20,11.5,52.5,11.5,72.5,0C241.6,162.7,246.6,155.1,246.6,147.6Z"/><ellipse class="cls-37" cx="195.3" cy="136.2" rx="51.3" ry="29.6"/><ellipse class="cls-37" cx="195.3" cy="136.2" rx="51.3" ry="29.6"/><path class="cls-44" d="M231.6,156.2c-20,11.6-52.5,11.6-72.5,0-9.8-5.7-14.8-13.1-15-20.5-.2,7.8,4.8,15.5,15,21.4,20,11.6,52.5,11.6,72.5,0,10.2-5.9,15.2-13.6,15-21.4C246.4,143.2,241.4,150.5,231.6,156.2Z"/><g class="cls-38"><path class="cls-45" d="M224.2,179.4c-3.5,1.3-6,1-5.8-.8s3.3-4.4,6.8-5.8,6-1,5.7.8S227.6,178,224.2,179.4Z"/></g><g class="cls-38"><path class="cls-45" d="M224.2,207.9c-3.5,1.4-6,1-5.8-.8s3.3-4.4,6.8-5.7,6-1,5.7.8S227.6,206.6,224.2,207.9Z"/></g><g class="cls-38"><path class="cls-45" d="M224.4,236.7c-3.5,1.3-6,1-5.8-.9s3.3-4.3,6.8-5.7,6-1,5.7.8S227.8,235.3,224.4,236.7Z"/></g><g class="cls-38"><path class="cls-45" d="M234,172.2c-.8.6-1.8.6-2.2-.1s-.2-1.5.6-2.1,1.9-.6,2.3,0A1.7,1.7,0,0,1,234,172.2Z"/></g><g class="cls-38"><path class="cls-45" d="M234,200.9a1.5,1.5,0,0,1-2.2-.1,1.5,1.5,0,0,1,.6-2.1c.8-.6,1.9-.6,2.3,0A1.8,1.8,0,0,1,234,200.9Z"/></g><g class="cls-38"><path class="cls-45" d="M234,229.5a1.5,1.5,0,0,1-2.2-.1,1.6,1.6,0,0,1,.6-2.2c.8-.5,1.9-.5,2.3.1A1.8,1.8,0,0,1,234,229.5Z"/></g><path class="cls-46" d="M207.9,121.3c-6.9,4-18.2,4-25.1,0-3.3-1.9-5-4.4-5.2-6.9v.3c0,2.6,1.8,5.2,5.2,7.2,6.9,4,18.2,4,25.1,0,3.6-2.1,5.3-4.8,5.1-7.5C212.9,116.9,211.2,119.4,207.9,121.3Z"/><g class="cls-47"><path class="cls-48" d="M262.1,111.9l-.5-.3c-1.7-1-3.1.1-3.1,2.4V251.2a7.6,7.6,0,0,0,3.1,6l.5.3c1.7,1,3.2-.1,3.2-2.4V117.9A7.7,7.7,0,0,0,262.1,111.9Z"/></g><g class="cls-49"><path class="cls-50" d="M274.9,141.1l-.5-.3c-1.8-1-3.2.1-3.2,2.4V258.5a7.5,7.5,0,0,0,3.2,6.1l.5.3c1.7,1,3.1-.1,3.1-2.4V147.2A7.6,7.6,0,0,0,274.9,141.1Z"/></g><g class="cls-51"><path class="cls-52" d="M287.6,175.6l-.4-.2c-1.8-1.1-3.2,0-3.2,2.4V221a7.4,7.4,0,0,0,3.2,6l.4.3c1.8,1,3.2-.1,3.2-2.4V181.7C290.8,179.4,289.4,176.6,287.6,175.6Z"/></g><g class="cls-53"><path class="cls-54" d="M300.3,194.6l-.5-.3c-1.7-1-3.1.1-3.1,2.4v16.6a7.6,7.6,0,0,0,3.1,6l.5.3c1.8,1,3.2-.1,3.2-2.4V200.6A7.4,7.4,0,0,0,300.3,194.6Z"/></g><g class="cls-55"><path class="cls-56" d="M128.6,111.9l.5-.3c1.7-1,3.1.1,3.1,2.4V251.2a7.6,7.6,0,0,1-3.1,6l-.5.3c-1.8,1-3.2-.1-3.2-2.4V117.9A7.4,7.4,0,0,1,128.6,111.9Z"/></g><g class="cls-57"><path class="cls-58" d="M115.8,141.1l.5-.3c1.7-1,3.2.1,3.2,2.4V258.5a7.7,7.7,0,0,1-3.2,6.1l-.5.3c-1.7,1-3.2-.1-3.2-2.4V147.2A7.7,7.7,0,0,1,115.8,141.1Z"/></g><g class="cls-59"><path class="cls-60" d="M103,175.6l.5-.2c1.8-1.1,3.2,0,3.2,2.4V221a7.4,7.4,0,0,1-3.2,6l-.5.3c-1.7,1-3.1-.1-3.1-2.4V181.7C99.9,179.4,101.3,176.6,103,175.6Z"/></g><g class="cls-61"><path class="cls-62" d="M90.4,194.6l.4-.3c1.8-1,3.2.1,3.2,2.4v16.6a7.4,7.4,0,0,1-3.2,6l-.4.3c-1.8,1-3.2-.1-3.2-2.4V200.6A7.4,7.4,0,0,1,90.4,194.6Z"/></g><path class="cls-63" d="M236.4,331.3a4.6,4.6,0,0,1-2.3-.6l-17.5-10.1a2.1,2.1,0,0,1-1.2-1.7,1.7,1.7,0,0,1,.9-1.4l84.3-48.6a4.5,4.5,0,0,1,4.2.1l17.5,10.1a2.4,2.4,0,0,1,1.2,1.7,2,2,0,0,1-.9,1.4l-84.3,48.6A3.8,3.8,0,0,1,236.4,331.3Zm66-61.8a2.8,2.8,0,0,0-1.3.3l-84.3,48.7a.4.4,0,0,0-.3.4c0,.2.1.5.6.7l17.5,10.2a3.7,3.7,0,0,0,3.1.1L322,281.2a.4.4,0,0,0,.4-.4,1,1,0,0,0-.6-.7l-17.6-10.2A4.8,4.8,0,0,0,302.4,269.5Z"/><path class="cls-64" d="M288.4,240.6a24.8,24.8,0,0,0-6.1,5.2c-2.6-8.3-10.5-10.9-19.9-5.5-7.7,4.5-14.4,13.3-18,22.6a7.9,7.9,0,0,0-3.9,1.2c-5,2.9-9.1,10-9.1,15.8v.4a12.1,12.1,0,0,0-4.7,1.5c-6.5,3.8-11.7,12.8-11.7,20.3s5.2,10.5,11.7,6.7l61.7-35.6c7.8-4.5,14.1-15.5,14.1-24.4S296.2,236.1,288.4,240.6Z"/><path class="cls-65" d="M288.4,240.6a43.3,43.3,0,0,0-3.7,2.7l-6.9-4h0c-3.8-2.6-9.3-2.5-15.4,1-7.7,4.5-14.4,13.3-18,22.6a7.9,7.9,0,0,0-3.9,1.2c-5,2.9-9.1,10-9.1,15.8v.4a12.1,12.1,0,0,0-4.7,1.5c-6.5,3.8-11.7,12.8-11.7,20.3,0,3.7,1.3,6.3,3.4,7.5h0l17,9.9,3.6-17.8,49.4-28.5c7.8-4.5,14.1-15.5,14.1-24.4S296.2,236.1,288.4,240.6Z"/><path class="cls-66" d="M315.6,249.6l-17.1-9.9h0c-2.6-1.6-6.1-1.4-10.1.9a43.3,43.3,0,0,0-3.7,2.7l-6.9-4h0c-3.8-2.6-9.3-2.5-15.4,1-7.7,4.5-14.4,13.3-18,22.6a7.9,7.9,0,0,0-3.9,1.2c-5,2.9-9.1,10-9.1,15.8v.4a12.1,12.1,0,0,0-4.7,1.5c-6.5,3.8-11.7,12.8-11.7,20.3,0,3.7,1.3,6.3,3.4,7.5h0l17,9.9,3.6-17.8,49.4-28.5c6.4-3.7,11.7-11.5,13.5-19.2Z"/><path class="cls-67" d="M305.4,250.5a22.9,22.9,0,0,0-6.2,5.2c-2.6-8.3-10.5-10.9-19.8-5.5-7.7,4.4-14.5,13.2-18,22.5a7.9,7.9,0,0,0-3.9,1.2c-5.1,3-9.2,10-9.2,15.9,0,.1.1.2.1.3a10.1,10.1,0,0,0-4.7,1.6c-6.5,3.7-11.7,12.8-11.7,20.2s5.2,10.5,11.7,6.8L305.4,283c7.8-4.5,14.1-15.4,14.1-24.4S313.2,246,305.4,250.5Z"/><polygon class="cls-68" points="158.5 321.7 159.2 320.9 196.9 342.2 225.7 324.9 226.3 325.8 197.1 343.4 158.5 321.7"/><g id="Character"><path id="Shadow" class="cls-69" d="M198.3,139.2c-12.6,6.3-18.3,12.8-11.8,17.4s24.2,10.9,24.2,10.9l2.3,7.8,25.7-14.9v-8.8s-15.9-10.9-22-13S205.6,135.6,198.3,139.2Z"/><g id="Character-2" data-name="Character"><path class="cls-70" d="M233.7,179s-3.9,9.5-4.1,13.2-1.1,5.2-.5,9.5c.2.9.6,2.8.8,3.5a1.2,1.2,0,0,1-1,1.4c-1.7.3-4.5-2.8-5.9-6.3a108,108,0,0,1-3.3-12.2,4.4,4.4,0,0,1,.5-2.8,7.2,7.2,0,0,1,.8-1.4c.5-1.7.8-4.9,1.3-7.1Z"/><path class="cls-71" d="M216.3,191.6a3.9,3.9,0,0,0-.4,1.3c-.1.8,1.7,3.4,2.4,4.3a6.1,6.1,0,0,1,1.3,4.4,11,11,0,0,0,2.6,7,17.7,17.7,0,0,0,8.5,5.6c4.1,1.2,5.6-.8,5.6-.8s1.2-2,.5-2.8Z"/><path class="cls-72" d="M221,183.9c-.2,0-.4,0-.7.4s-.9,2-1.5,2.9-2.2,2.9-2.5,4.4c1,3.1,3.9,5.2,4.3,8.1s.5,6.2,4.9,9.7,9,3.9,10.6,3,1.5-2.7-.8-6-4-11.2-4-11.3a16.4,16.4,0,0,1-.5-3.2,31.6,31.6,0,0,1,.3-3.2,1.9,1.9,0,0,0-.2-1.5,2.3,2.3,0,0,0-1.2-.9,8.8,8.8,0,0,0-2.3-.7,3.1,3.1,0,0,0-2.3.3c-.5.2-.9.7-1.5.9a2,2,0,0,1-2.1-.4,1.6,1.6,0,0,1-.6-2Z"/><path class="cls-73" d="M222.9,206.6a7,7,0,0,1,6.4-3.5c4.7.1,6.3,2.5,7.1,3.9s1.7,4.7-.2,5.5-4.6.7-8.4-1.2A10.1,10.1,0,0,1,222.9,206.6Z"/><path class="cls-73" d="M223.8,192.5h.4c.7-.4,4.6-1.2,6.8.9.3-.3.2-.7-.1-1.3-2.7-1.7-6.3-.9-7.2-.5a.6.6,0,0,0-.2.7Z"/><path class="cls-73" d="M231.5,196.1a1.8,1.8,0,0,0-.3-1.3,8.9,8.9,0,0,0-6.8-.3.6.6,0,0,0-.2.7.2.2,0,0,1,.2.2h.5C225.6,195,229.2,194.2,231.5,196.1Z"/><path class="cls-73" d="M233.4,202.4a3.2,3.2,0,0,0-.6-1.7,9.1,9.1,0,0,0-7-.4c-.3.2-.3.4-.2.7l.2.2h.4C227,200.8,231.2,199.9,233.4,202.4Z"/><path class="cls-73" d="M225.1,198.3h.5c.7-.4,4.4-1.2,6.7.8a1.6,1.6,0,0,0-.4-1.4,8.9,8.9,0,0,0-6.8-.3.6.6,0,0,0-.2.7Z"/><path class="cls-70" d="M237.9,190.6s1.9,11.6,4,16.1,3.2,6.7,6.2,10.1l2.6,2.7a1.1,1.1,0,0,1-.1,1.8c-1.3,1.3-6.9,1.6-10-.8s-5.9-7.3-7.8-9.2l-1.9-2.1c-.7-.8-.5-1.5-.5-2.3a7.2,7.2,0,0,1,0-1.5c-.4-2-1.6-5-2.2-6.9Z"/><path class="cls-71" d="M229.3,214.2a3.7,3.7,0,0,0,.1,1.4c.3.7,3.2,2.4,4.2,2.9a6.4,6.4,0,0,1,3.2,3.7,10.9,10.9,0,0,0,5.6,5.4,18.3,18.3,0,0,0,10.5,1.5c4.5-.7,5-3.3,5-3.3s.3-2.4-.8-2.8S229.3,214.2,229.3,214.2Z"/><path class="cls-72" d="M230.2,204.8c-.1,0-.3.1-.4.6s0,2.3-.1,3.5-.9,3.7-.4,5.3c2.3,2.4,5.9,3.2,7.6,5.7s3.2,5.7,9,7,10.2-.3,11.4-1.9.2-3.2-3.5-5.4-8.8-8.8-8.8-8.8a29,29,0,0,1-1.9-2.9,23.9,23.9,0,0,1-1.1-3.2,2.4,2.4,0,0,0-.9-1.3,3.6,3.6,0,0,0-1.5-.2,10.1,10.1,0,0,0-2.5.3,3.6,3.6,0,0,0-2.1,1.3c-.4.5-.6,1.1-1,1.5a2,2,0,0,1-2.2.6,1.8,1.8,0,0,1-1.4-1.6C230.3,205.3,230.2,204.8,230.2,204.8Z"/><path class="cls-73" d="M242.2,225.4a7.3,7.3,0,0,1,4.5-6.1c4.5-2.1,7.1-.6,8.4.4s3.7,3.7,2.3,5.4-4,2.6-8.5,2.5A10.7,10.7,0,0,1,242.2,225.4Z"/><path class="cls-73" d="M236.7,211.6a.4.4,0,0,0,.4-.2c.5-.6,3.8-3.1,6.8-2.2.2-.3,0-.7-.7-1.1a8.6,8.6,0,0,0-6.9,2.8.4.4,0,0,0,.1.6Z"/><path class="cls-73" d="M245.6,211.6a1.5,1.5,0,0,0-.8-1.1,9.1,9.1,0,0,0-6.6,2.8.6.6,0,0,0,.1.7h.3l.4-.2C239.5,213.2,242.6,210.9,245.6,211.6Z"/><path class="cls-73" d="M250.3,216.8a3.2,3.2,0,0,0-1.4-1.4,9.2,9.2,0,0,0-6.8,2.8.5.5,0,0,0,.1.7h.3l.4-.2C243.5,218,247.1,215.3,250.3,216.8Z"/><path class="cls-73" d="M240.6,216.5l.4-.2c.5-.7,3.7-3.1,6.7-2.2a1.5,1.5,0,0,0-1-1.1,9.2,9.2,0,0,0-6.5,2.7c-.2.3-.2.6.1.7Z"/><path class="cls-74" d="M212.3,124.6c4.7,3.5,21.3,13.1,28,19.3,1.9,1.8,2.6,4.2,2.1,9.3-.6,7-6.1,30.9-6.1,30.9s-2.1-1.3-2.1-1.3l-26.3-33.2Z"/><path class="cls-75" d="M212.3,124.6c4.7,3.5,21.3,13.1,28,19.3,1.9,1.8,2.6,4.2,2.1,9.3-.6,7-6.1,30.9-6.1,30.9s-2.1-1.3-2.1-1.3l-26.3-33.2Z"/><path class="cls-75" d="M235.1,176.6c-6-5-25.7-36-25.7-36h.1c2.6-2.2,4-10.1,4-10.1,1.1,3.1-.1,7.6-.9,9.3l16.3,13.3a8.3,8.3,0,0,1,3.6,5.4C233.8,165.1,235.3,175.3,235.1,176.6Z"/><path class="cls-74" d="M212.3,124.6h0l-33.8,7.5c1.7,6.2,2.1,9.4,3.9,12.7s3.6,6.7,12.4,11.1,18.8,8.4,20.8,9.4,2.3,3.8,3,7.9.8,7.5,5,16.4l5,10.6s6.3.6,10.5-3.1c0,0-5.7-29.8-7-35.2-.6-3-.7-4.5-4.4-7.8s-17.4-13.6-17.4-13.6S215.9,132.8,212.3,124.6Z"/><path class="cls-75" d="M212.3,124.6h0l-33.8,7.5c1.7,6.2,2.1,9.4,3.9,12.7s3.6,6.7,12.4,11.1,18.8,8.4,20.8,9.4,2.3,3.8,3,7.9.8,7.5,5,16.4l5,10.6s6.3.6,10.5-3.1c0,0-5.7-29.8-7-35.2-.6-3-.7-4.5-4.4-7.8s-17.4-13.6-17.4-13.6S215.9,132.8,212.3,124.6Z"/><path class="cls-70" d="M251.1,68.5a3.3,3.3,0,0,0-1.7.4L247.7,70l-2.6,1.8a8.2,8.2,0,0,1-2.5,1.2c-.3,0-1,0-.7-.4a16.2,16.2,0,0,0,1.3-1.9,2.8,2.8,0,0,0,.2-2.2.9.9,0,0,0-.4-.6c-.3-.1-.5.1-.7.3l-.5.5-1.3,1.1c-2.4,2.2-5.4,4.2-6.4,7.3a17.5,17.5,0,0,0-.9,6.1c0,3.5-.2,15.7-.2,15.7L219.1,87.2c-2-1.7-4.8-3.7-8-4l-3.4-.2,6.6,16s12.4,9.3,18.4,12.5,8,.8,8.7-.7,2.2-3.7.7-17.7c-.2-1.1-.3-4.2-.4-5.3s.1-4.5,1-5a23.9,23.9,0,0,0,4.5-3.1,11.2,11.2,0,0,0,2.5-2.8,7.1,7.1,0,0,0,.8-1.5,4.3,4.3,0,0,1,0-1.6,10.4,10.4,0,0,1,.4-1,6.5,6.5,0,0,1,.6-2.4c.3-.3.7-.7.7-1.1a1,1,0,0,0-.8-.7Z"/><path class="cls-76" d="M241.2,74.6a10.6,10.6,0,0,1-2.5,5.1,6,6,0,0,0,2.1-2.2C241.5,76,241.5,75.3,241.2,74.6Z"/><path class="cls-74" d="M207,82.7c3.4.1,6,.2,8.8,1.9s15.7,12.3,15.7,12.3.2-5.4.5-8.3.6-2.6,1.2-2.5,1.1,1.7,4.2,1.9,4.3-1,4.3-1,.9-.3,1.2,1,.9,15.3.3,19.3-2.3,5.9-4.7,6.5-8.1-2.9-14.8-7.4-14-8.7-14-8.7Z"/><path class="cls-77" d="M207,82.7c3.4.1,6,.2,8.8,1.9s15.7,12.3,15.7,12.3.2-5.4.5-8.3.6-2.6,1.2-2.5,1.1,1.7,4.2,1.9,4.3-1,4.3-1,.9-.3,1.2,1,.9,15.3.3,19.3-2.3,5.9-4.7,6.5-8.1-2.9-14.8-7.4-14-8.7-14-8.7Z"/><path class="cls-78" d="M231.5,96.9a28.4,28.4,0,0,0,.3,7.9s-2.4-4.8-1.7-9.1Z"/><path class="cls-73" d="M179.3,85.6c-.6,3-6.1,30.9.2,51.8,11.5,1.3,31.6-3.9,34.6-11.5,0,0-2-7.2-2.9-10.7.2-5.8,0-16.8-.1-20.2-.3-6.7-1.3-12-4.7-12.5,0,0-6.7-.2-10.8-.1l-6.1.2Z"/><path class="cls-79" d="M196.1,130.1c-.7-1.7-14.3-10.1-14.3-10.1s.2-3.8,1-11,1.1-15.7-1.5-20h-2.6c-1.5,8.6-4.5,30.9.8,48.3,6.1.7,14.7-.5,21.8-2.8C200,133.7,196.7,131.4,196.1,130.1Z"/><path class="cls-72" d="M188.3,76.1c0-1.5-2.8-5.8-4-9.2-2.1-5.7-2.3-10.9,2.9-13.1,0,0,3.2-5.6,11.4-5.9s14.4,6.7,11.7,15.9Z"/><path class="cls-70" d="M190.3,67.2c-1.1,0-1.4-1.5-2.2-2.3a3.2,3.2,0,0,0-4.9.6c-1.5,2.2,0,5.3,1.6,6.5a2.7,2.7,0,0,0,3.6.1l-.2,11.5s.3,2.6,5,4.1,9.9-1.2,6.7-4.8v-3a18.7,18.7,0,0,0,5.3.3c1.8-.3,3.2-1.7,4.2-4.5,1.8-5.4,1.3-12.7-.6-19.4-1.8,1.5-10.1,4.1-17.6,1.5C191.6,62.4,191.4,67.2,190.3,67.2Z"/><path class="cls-71" d="M187.4,70.8a.8.8,0,0,1-.7.7.7.7,0,1,1,0-1.4A.8.8,0,0,1,187.4,70.8Z"/><path class="cls-76" d="M200,79.9s-4.5-1.3-6.3-2.6a7.9,7.9,0,0,1-2.8-3.2,12.3,12.3,0,0,0,1.9,3.9c2.2,2.4,7.1,3.6,7.1,3.6Z"/><path class="cls-71" d="M199.6,67.2a1.1,1.1,0,1,1-2.2,0,1.2,1.2,0,0,1,1.1-1.2A1.1,1.1,0,0,1,199.6,67.2Z"/><path class="cls-71" d="M198.4,63.3,196,64.6a1.4,1.4,0,0,1,.6-1.9A1.3,1.3,0,0,1,198.4,63.3Z"/><path class="cls-76" d="M199.3,73.1l3.9,1.3a2.3,2.3,0,0,1-2.7,1.3A2,2,0,0,1,199.3,73.1Z"/><path class="cls-71" d="M208.9,63.3l-2.7-.8a1.3,1.3,0,0,1,1.6-1A1.6,1.6,0,0,1,208.9,63.3Z"/><path class="cls-71" d="M208.2,66.3a1.2,1.2,0,0,1-1.1,1.2,1.2,1.2,0,0,1-1.2-1.2,1.2,1.2,0,0,1,1.1-1.2A1.2,1.2,0,0,1,208.2,66.3Z"/><path class="cls-80" d="M209.4,56.3c2.5-1.8,3.9-4.2,3.3-7.4-1,.9-3.8,1.1-6.2,0a18.2,18.2,0,0,0-12.3-1.8c-4.4.8-7,4.2-7,6.7s2,2.7,4.1,4A16.5,16.5,0,0,0,202,60.9a10.6,10.6,0,0,0,6.3-2.3,7,7,0,0,1-3.4-.5A11.7,11.7,0,0,0,209.4,56.3Z"/><polygon class="cls-76" points="203.3 71.7 206.8 70.1 202.3 64 203.3 71.7"/><g id="Laptop"><path class="cls-69" d="M241.4,145.1l-1.1-1.2c-4-3.7-11.6-8.7-18.1-12.8L192.9,148a.3.3,0,0,0,0,.5l21.3,12.3Z"/><path class="cls-80" d="M250.2,136.5v.5a2,2,0,0,1-.9,1.7l-34.1,19.7-1,.2-1-.2-18.5-10.7a2.1,2.1,0,0,1-1-1.7v-.7h0c0,.1,0,.2.1.2l20.4,11.8Z"/><path class="cls-71" d="M214.2,157.3v1.3l1-.2,34.1-19.7a2,2,0,0,0,.9-1.7v-.5Z"/><path class="cls-72" d="M250.2,136.5,230,124.9a.8.8,0,0,0-1.1,0l-35.1,20.2a.2.2,0,0,0,0,.4l20.4,11.8Z"/><polygon class="cls-80" points="214 155.6 203.1 149.3 235 130.9 246 137.2 214 155.6"/><polygon class="cls-71" points="246 137.2 245.5 137.4 235 131.4 203.5 149.6 203.1 149.3 235 130.9 246 137.2"/><polygon class="cls-71" points="208.7 138.1 208.9 138.2 214.2 141.3 223.7 135.8 223.9 135.7 218.4 132.5 208.7 138.1"/><polygon class="cls-80" points="208.9 138.2 214.2 141.3 223.7 135.8 218.4 132.8 208.9 138.2"/><g id="Arm"><path class="cls-70" d="M219,141.9c-1.5-1.5-3.7-3.6-5.6-4.2l-1.3-.4,1.9-.4a2.9,2.9,0,0,0,1.6-1.1.5.5,0,0,0,.1-.7h-.3c-1.4,0-2.5-.2-3.7-.3H210l-1.6.5a12.1,12.1,0,0,1-7.7.7l-5.9-3.1s-1.3-.3-3.1,2.8-.8,4.9-.8,4.9l6.6,2.3h.1a17.9,17.9,0,0,0,3.2,1.4c2,.6,4.7-.1,6.5-.2a18.5,18.5,0,0,1,6.5,1.4c1.6.7,3.6-1.9,4.5-1.6S220.5,143.5,219,141.9Z"/><path class="cls-76" d="M211.3,136.3a6.6,6.6,0,0,0-2.5.4,11.6,11.6,0,0,1,3.3.6l1.9-.4a3.8,3.8,0,0,0,1.5-.9C214.5,136.7,212.5,136.4,211.3,136.3Z"/><path class="cls-74" d="M179.3,85.6c1.7.7,3.9,7.7,2.5,14.4l-3.1,21.1s3.8,2.2,9.2,5.6c3.7,2.3,6.9,4.4,6.9,6.1-2.4.9-4.6,5.4-3.9,7.7-1.6,2-17-6.5-22.4-10.2-2.5-1.7-3.7-2.4-2.8-10.1s1.8-18,3.5-24.3S172.8,86.8,179.3,85.6Z"/><path class="cls-77" d="M179.3,85.6c1.7.7,3.9,7.7,2.5,14.4l-3.1,21.1s3.8,2.2,9.2,5.6c3.7,2.3,6.9,4.4,6.9,6.1-2.4.9-4.6,5.4-3.9,7.7-1.6,2-17-6.5-22.4-10.2-2.5-1.7-3.7-2.4-2.8-10.1s1.8-18,3.5-24.3S172.8,86.8,179.3,85.6Z"/></g><path class="cls-80" d="M214.8,157.6a2.4,2.4,0,0,0,2-.1l33.9-19.6a2.5,2.5,0,0,0,1.1-1.6l3.7-22.2v-.4a2.4,2.4,0,0,0-.7-1.6l-35.3,20.3a2,2,0,0,0-.8,1.2Z"/><path class="cls-72" d="M214.2,157.3l.2.2h.4l4-24a2,2,0,0,1,.8-1.2l35.3-20.3-.5-.4-35.3,20.4a1.8,1.8,0,0,0-.9,1.2Z"/><path class="cls-71" d="M219.1,132.9l-.5-.3a1.6,1.6,0,0,0-.4.7l-4,24,.2.2h.4l4-24A1.1,1.1,0,0,1,219.1,132.9Z"/><path class="cls-74" d="M233.9,137.2a7.2,7.2,0,0,1,3.4-4.4c1.6-1,2.8-.6,2.5.9a7.2,7.2,0,0,1-3.4,4.4C234.8,139.1,233.6,138.6,233.9,137.2Z"/></g></g></g><path class="cls-44" d="M90.3,83.1l.2-.4c1.2-2.7,2.5-5.4,3.6-8a2.6,2.6,0,0,1,3.3-1.8h.2c1.3.2,1.7.7,1.7,2.1v9.7H96.8V74.9h-.1a.5.5,0,0,0-.2.4l-3.7,8.1c-.7,1.8-2.3,1.8-3.6,1.4a1.4,1.4,0,0,1-1-1c-.9-1.9-1.7-3.7-2.5-5.6l-1.4-3c0-.1-.1-.2-.1-.3h-.1v10H81.6V75.2c-.1-1.7.5-2,2-2.3a3.1,3.1,0,0,1,1.9.2,2.6,2.6,0,0,1,1.1,1.4c1.2,2.7,2.4,5.4,3.5,8.1A.8.8,0,0,1,90.3,83.1Z"/><path class="cls-44" d="M142.2,86.6h-2.7l-.4-.2-1.3-1.2a1.3,1.3,0,0,0-1.1-.4h-4.8a5.2,5.2,0,0,1-2.1-.7,2.6,2.6,0,0,1-1.2-2.1v-6a2.5,2.5,0,0,1,1.8-2.6l2.2-.4h4.9a4.6,4.6,0,0,1,2.3.6,2.2,2.2,0,0,1,1.4,2.1c.1,2.2,0,4.3,0,6.4a1.8,1.8,0,0,1-1.2,2l-.3.2Zm-8.6-5.3H136l.6.2,1.4,1.2q.3.5.6,0a1.8,1.8,0,0,0,.4-.9V76.1a1.2,1.2,0,0,0-.8-1.1l-1-.2h-4.1L132,75a1.1,1.1,0,0,0-.7,1.1v5.8a1.3,1.3,0,0,0,.8,1.2,9.8,9.8,0,0,0,3.4.2h.1Z"/><path class="cls-44" d="M157.8,70.7l-4.3.9c.2.3.3.5.5.6l1.3.9a10,10,0,0,1,2.5,2.1l.9,1.2h-.2a9.6,9.6,0,0,0-3.2-2,7.9,7.9,0,0,1-2.7-2.1,5.6,5.6,0,0,0-.5-.8c-.2-.3-.1-.5.2-.6a11.6,11.6,0,0,1,3.7-.7h.6c-.2-.1-.2-.3-.4-.4s-3.2-2.4-5.2-2.8a2.3,2.3,0,0,1-1.6-1.3c-.8-1.8-1.7-3.5-2.4-5.3a18.3,18.3,0,0,0-2.8-4.4,16.2,16.2,0,0,0-5.5-4.2,7.9,7.9,0,0,0-3-.5,1.9,1.9,0,0,1-.9-.4,8,8,0,0,0-2.9-1.5h-.5c-.4,0-.7.3-.5.7a2.7,2.7,0,0,0,.6,1.2,10.7,10.7,0,0,1,2.3,4.5,6.5,6.5,0,0,0,1.7,3,.9.9,0,0,1,.2.9,16.6,16.6,0,0,0-.6,2.1,7.4,7.4,0,0,0,.5,5.1,1.6,1.6,0,0,0,.6.8c.3.3.4.2.4-.2a8.8,8.8,0,0,0,.2-1.6,4.7,4.7,0,0,1,1.3-2.4,24.6,24.6,0,0,0,3.9,7.1l-1.5-1.4a10,10,0,0,1-1.4-1.5c-.4-.6-.6-1.2-1-1.8l-.3,1.4c0,.3-.1.5-.1.8a1.1,1.1,0,0,1-1.7.6,7.6,7.6,0,0,1-.9-.9,8.2,8.2,0,0,1-1-3,12.6,12.6,0,0,1,.7-5.1c.1-.1,0-.3-.1-.4a8.9,8.9,0,0,1-1.5-2.9,15.9,15.9,0,0,1-.7-2,10.9,10.9,0,0,0-1.4-2.3,5.4,5.4,0,0,1-1-1.6,1.5,1.5,0,0,1,1.7-2.1,6.9,6.9,0,0,1,3.4,1.4,2.1,2.1,0,0,0,1.3.5,8.3,8.3,0,0,1,3.7,1.1,19.3,19.3,0,0,1,7,6.9,21.2,21.2,0,0,1,1.4,3.1c.6,1.3,1.3,2.5,1.9,3.8a1.2,1.2,0,0,0,.9.8,16.9,16.9,0,0,1,5.5,3.6,4.8,4.8,0,0,1,.9,1.1Z"/><path class="cls-44" d="M101.5,88.5V86.8h7.8l1.1-.2a.9.9,0,0,0,.7-.9,2.8,2.8,0,0,1-.1-.9h-5.6a5.5,5.5,0,0,1-2.8-.7,2.2,2.2,0,0,1-1.2-2.1c.1-1.7,0-3.5,0-5.3h2.5v5.2c0,1,.4,1.4,1.4,1.4h5.3c.4.1.5-.1.5-.5V77c0-.1.1-.3.2-.3h2.3v8.8a2.6,2.6,0,0,1-1.7,2.5,5.4,5.4,0,0,1-2.2.5h-8.2Z"/><path class="cls-44" d="M122.8,73.1h3.8c.3,0,.4.1.4.4v.9c0,.2-.1.3-.4.3h-7.2c-1,.1-1.3.4-1.3,1.4v.5a1.4,1.4,0,0,0,1.6,1.6h3.6a5.5,5.5,0,0,1,2.8.9,1.7,1.7,0,0,1,.8,1.6v1.5A2.1,2.1,0,0,1,126,84a5.8,5.8,0,0,1-2.8.9H116c-.3,0-.4-.1-.4-.4v-.9c0-.3.1-.4.4-.4h6.9c.9-.1,1.6-.4,1.5-1.6v-.5c0-.8-.3-1.2-1.1-1.3h-1l-3.9-.2a3.7,3.7,0,0,1-2.2-1,1.7,1.7,0,0,1-.5-1.2V75.8a2.2,2.2,0,0,1,1.6-2.3l2-.4Z"/><path class="cls-44" d="M143,77.7V73.5c0-.3.1-.4.4-.4H145c.4,0,.4.1.4.4v8c0,1.2.4,1.7,1.8,1.7h6.5c.5,0,.6,0,.5.4a4,4,0,0,1,0,1.1h-6.6a9.3,9.3,0,0,1-2.9-.5,2.6,2.6,0,0,1-1.7-2.6Z"/><path class="cls-44" d="M157.4,81.3a1.8,1.8,0,0,1,1.8,1.9,1.8,1.8,0,0,1-1.8,1.8,1.8,1.8,0,0,1-1.9-1.9A1.8,1.8,0,0,1,157.4,81.3Zm0,3.4a1.6,1.6,0,0,0,1.5-1.6,1.5,1.5,0,0,0-1.5-1.5,1.5,1.5,0,0,0-1.5,1.6A1.5,1.5,0,0,0,157.4,84.7Z"/><path class="cls-44" d="M135.8,53.2c.7-.1,1.1,0,1.3.6a.8.8,0,0,1-.2,1.1Z"/><path class="cls-81" d="M342.5,125.9h0a.1.1,0,0,0-.1-.1h-.1l-1.6,29.4h.2l1.6-28.5,1.8,3.1h0a35.8,35.8,0,0,1,1.8,13.2v.2l1.8,3.3h.2a21.3,21.3,0,0,0,9.5,5l.9,1.4h.1l-16.2-26.5v-.6"/><path class="cls-81" d="M341.9,136.3c2.1,4.1,2.8,10.3,2.2,18.6l7.8-1Zm17.8,18a3.7,3.7,0,0,0,1.6-.5l-40.8,5h-.1a4.8,4.8,0,0,0,2.3,4l1.2.6,1.3-1h0c4.2-2.6,10.6-3,19-1.2h.1l2.7.7.6-.2a2.2,2.2,0,0,1,1.2-.5h0a12.8,12.8,0,0,1,5.5-5.3,14.8,14.8,0,0,1,5.4-1.5m-19.6.7,1.9-28.6a98.7,98.7,0,0,1-13,29.3l11.1-.7m-10.5-23h-.2l-1.5,24.7h.2l1.6-24.7h-.1m-2.2,24.3,1.7-24.2-8.7,25,7-.8"/><path class="cls-81" d="M324.4,166.4h-1c-.1,0-.1-.1-.1-.2h.1a7.2,7.2,0,0,0,4.7-.9,6.7,6.7,0,0,1,3.4-1.1l1.4.3a.1.1,0,0,1,0,.2h-.1l-1.3-.2a5.4,5.4,0,0,0-3.3,1A6.7,6.7,0,0,1,324.4,166.4Zm-5.9-.9h-.1c2.1-1,3.7-1.1,4.7-.5s2.5.5,4.6-.5a.1.1,0,0,1,.2,0v.2c-2.1,1-3.8,1.2-4.8.5s-2.4-.5-4.5.5Zm23.3-.1h-.9c-.1,0-.2,0-.2-.1h.2a8.6,8.6,0,0,0,4.7-.9,5.8,5.8,0,0,1,3.4-1.1,3.5,3.5,0,0,1,1.4.3h-.1a3.1,3.1,0,0,0-1.3-.3,5.6,5.6,0,0,0-3.3,1.1A8.1,8.1,0,0,1,341.8,165.4ZM325,164h-.1v-.2a15.5,15.5,0,0,1,8-2.4,42.8,42.8,0,0,1,11.7,1.1h0c-9-1.9-15.6-1.4-19.6,1.3Z"/><path class="cls-81" d="M335.2,133H335a1.8,1.8,0,0,0-2.4-.5.2.2,0,0,1-.4-.1.4.4,0,0,1,.1-.3,2.3,2.3,0,0,1,2.9.3,2.6,2.6,0,0,1,3.1-.3c.1.1.1.2.1.4H338a2.1,2.1,0,0,0-2.6.5Zm-2-3H333c-.9-1-1.7-1.2-2.5-.7s-.3.1-.4-.1a.2.2,0,0,1,.1-.3,2.3,2.3,0,0,1,3,.5,2.4,2.4,0,0,1,3-.5c.1,0,.1.2.1.3a.2.2,0,0,1-.4.1c-.9-.5-1.7-.3-2.5.7Z"/><path class="cls-82" d="M289.5,158.9H292a2.4,2.4,0,0,1,1.7.6,2.5,2.5,0,0,1,.3,1.8,1.6,1.6,0,0,1-.3.9,1.8,1.8,0,0,1-.5.7,1.5,1.5,0,0,1-.9.6H290l-.3,1.8h-1.3Zm1.1,1-.4,2.7h.8a1.6,1.6,0,0,0,1.1-.3,1.3,1.3,0,0,0,.5-1.1c.1-.5.1-.8-.1-1a1.3,1.3,0,0,0-1-.3h-.9m4.9-2.8h1.3l-.3,1.8h1.2a2.1,2.1,0,0,1,1.5.4c.3.2.4.7.3,1.3l-.5,3h-1.4l.5-2.8c.1-.4,0-.6-.1-.7l-.6-.2h-1.1l-.6,3.7h-1.3l1.1-6.5m5.4,1.8h2.5a2.2,2.2,0,0,1,1.7.6,2.1,2.1,0,0,1,.3,1.8,2.9,2.9,0,0,1-.2.9l-.6.7a1.6,1.6,0,0,1-.8.6h-2.4l-.3,1.8h-1.3Zm1.1,1-.4,2.7h.8a2.1,2.1,0,0,0,1.2-.3,2.3,2.3,0,0,0,.5-1.1c0-.5,0-.8-.2-1s-.5-.3-1-.3H302"/><path class="cls-83" d="M307.6,155.7h2.6l1.1,6.1,3.1-6.1h2.5l-1.3,7.9h-1.7l1.1-6.1-3.1,6.1h-1.8l-1.1-6.2-.9,6.2h-1.7l1.2-7.9m12.3,6.7h1.3l.7-4.6h1.6l-.9,5.7a2.2,2.2,0,0,1-2.6,2.2h-3.1v-1.1h2.9l.7-.2a1.6,1.6,0,0,0,.4-.7h-1.4a2.6,2.6,0,0,1-1.9-.5,2.1,2.1,0,0,1-.3-1.7l.6-3.6h1.6l-.6,3.5a2.2,2.2,0,0,0,.1.9l.8.2m7.9-6.7h1.8l2.2,7.9h-1.9l-.4-1.8h-3.6l-1,1.8H323Zm.6,1.6-1.7,3.1h2.4l-.7-3.1m9.4,6.3h-3a2.2,2.2,0,0,1-2.5-2.9l.3-1.1.7-.9,1-.7,1.5-.2h1.4l.3-2.1h1.6Zm-1.4-1.2.6-3.3h-1a2,2,0,0,0-1.4.4,2,2,0,0,0-.7,1.3c0,.6,0,1,.2,1.2s.6.4,1.2.4h1.1m3.7-4.6h6.1a2.6,2.6,0,0,1,1.8.5,1.8,1.8,0,0,1,.4,1.7l-.6,3.6h-1.6l.5-3.4c.1-.5.1-.7,0-.9a1.3,1.3,0,0,0-.8-.2H345l-.7,4.5h-1.7l.8-4.5h-1.9l-.7,4.5h-1.6l.9-5.8m11.8-.6h-1.7l.3-1.5h1.6Zm-1.1,6.4h-1.6l.9-5.8h1.7l-1,5.8m2.4-5.8h2.9a2.9,2.9,0,0,1,1.9.5,2.2,2.2,0,0,1,.3,1.7l-.6,3.6h-1.6l.6-3.4a1.1,1.1,0,0,0-.1-.9l-.8-.2h-1.3l-.7,4.5h-1.6l1-5.8"/><g class="cls-84"><path class="cls-85" d="M211.4,236.9a8.1,8.1,0,0,0-5.5,1.6s-2.9,2.6-1.4,3.5,3.7-3.2,6.2-2.4,2,5.1-1,9.4a20.3,20.3,0,0,1-8.5,6.4L200,258a36.2,36.2,0,0,0,10.4-6.4,18.7,18.7,0,0,0,3.6-4.3C217.6,240.9,214.1,237.3,211.4,236.9Z"/><path class="cls-86" d="M209.7,249c3-4.3,3.5-8.7,1-9.4s-5.1,4-6.6,3.2-.1-1.4,0-1.8-.5,1-.4,1c1.6,1.3,4.6-3.8,7.3-2.7s2.4,4.7-1.1,9.6-7.8,6.4-9,7l.3-.5A20.3,20.3,0,0,0,209.7,249Z"/><path class="cls-87" d="M211,237.9a5.7,5.7,0,0,0-4,.9,22.2,22.2,0,0,0-3,2.4v1.2s3.8-3.6,6.2-3.5,4.3,2.9,1.4,8.4a13.2,13.2,0,0,1-2.9,3.7,25.4,25.4,0,0,1-7.3,5.3c-.1.1-.1.3-.2.4h0a31.7,31.7,0,0,0,8.4-5.5,15.7,15.7,0,0,0,3.3-4C216.3,241.5,213.4,238.2,211,237.9Z"/><g class="cls-88"><path class="cls-87" d="M211,237.9a5.7,5.7,0,0,0-4,.9,22.2,22.2,0,0,0-3,2.4v1.2s3.8-3.6,6.2-3.5,4.3,2.9,1.4,8.4a13.2,13.2,0,0,1-2.9,3.7,25.4,25.4,0,0,1-7.3,5.3c-.1.1-.1.3-.2.4h0a31.7,31.7,0,0,0,8.4-5.5,15.7,15.7,0,0,0,3.3-4C216.3,241.5,213.4,238.2,211,237.9Z"/></g><path class="cls-89" d="M175.1,249c-3-4.3-3.5-8.7-1-9.4s4.7,3.2,6.2,2.4-1.4-3.5-1.4-3.5a8.1,8.1,0,0,0-5.5-1.6c-2.6.4-6.2,4-2.6,10.4a18.7,18.7,0,0,0,3.6,4.3,36.2,36.2,0,0,0,10.4,6.4l-1.2-2.6A20.3,20.3,0,0,1,175.1,249Z"/><path class="cls-90" d="M175.1,249c-3-4.3-3.5-8.7-1-9.4s4.7,3.2,6.2,2.4-1.4-3.5-1.4-3.5a8.1,8.1,0,0,0-5.5-1.6c-2.6.4-6.2,4-2.6,10.4a18.7,18.7,0,0,0,3.6,4.3,36.2,36.2,0,0,0,10.4,6.4l-1.2-2.6A20.3,20.3,0,0,1,175.1,249Z"/><g class="cls-91"><path class="cls-92" d="M183.8,255.7l-.2-.3a21.2,21.2,0,0,1-5.8-3.5A23.4,23.4,0,0,0,183.8,255.7Z"/><path class="cls-93" d="M171.3,247.7c-3.7-6.4-.1-10,2.5-10.4a7.9,7.9,0,0,1,5.4,1.5l-.3-.3a8.1,8.1,0,0,0-5.5-1.6c-2.6.4-6.2,4-2.6,10.4a18.7,18.7,0,0,0,3.6,4.3l.3.3A17.4,17.4,0,0,1,171.3,247.7Z"/><path class="cls-94" d="M213.5,247.7c3.7-6.4.1-10-2.5-10.4a7.6,7.6,0,0,0-5.3,1.5l.2-.3a8.1,8.1,0,0,1,5.5-1.6c2.7.4,6.2,4,2.6,10.4a18.7,18.7,0,0,1-3.6,4.3l-.3.3A15.3,15.3,0,0,0,213.5,247.7Z"/></g><path class="cls-95" d="M175.1,249c-3-4.3-3.5-8.7-1-9.4s5.1,4,6.6,3.2.1-1.4,0-1.8.5,1,.4,1-4.6-3.8-7.3-2.7-2.4,4.7,1.1,9.6,7.8,6.4,9.1,7l-.4-.5A20.3,20.3,0,0,1,175.1,249Z"/><path class="cls-96" d="M173.8,237.9a5.7,5.7,0,0,1,4,.9,22.2,22.2,0,0,1,3,2.4v1.2s-3.8-3.6-6.2-3.5-4.3,2.9-1.4,8.4A13.2,13.2,0,0,0,176,251a25.4,25.4,0,0,0,7.3,5.3c.1.1.1.3.2.4h0a33.5,33.5,0,0,1-8.4-5.5,18,18,0,0,1-3.3-4C168.5,241.5,171.4,238.2,173.8,237.9Z"/><path class="cls-97" d="M173.8,237.9a5.7,5.7,0,0,1,4,.9,22.2,22.2,0,0,1,3,2.4v1.2s-3.8-3.6-6.2-3.5-4.3,2.9-1.4,8.4A13.2,13.2,0,0,0,176,251a25.4,25.4,0,0,0,7.3,5.3c.1.1.1.3.2.4h0a33.5,33.5,0,0,1-8.4-5.5,18,18,0,0,1-3.3-4C168.5,241.5,171.4,238.2,173.8,237.9Z"/><path class="cls-98" d="M180.1,238.3c-.2,1.7-1.8,18.2,10.9,27.7h2.8c12.7-9.5,11.1-26,10.9-27.7Z"/><path class="cls-99" d="M180.1,238.3c-.2,1.7-1.8,18.2,10.9,27.7h2.8c12.7-9.5,11.1-26,10.9-27.7Z"/><g class="cls-91"><path class="cls-100" d="M180.7,238.3h-.6c-.2,1.7-1.8,18.2,10.9,27.7h.1C179,256.5,180.6,240,180.7,238.3Z"/><path class="cls-101" d="M204.7,238.3h-.6c.2,1.7,1.7,18.2-10.3,27.7h0C206.5,256.5,204.9,240,204.7,238.3Z"/></g><path class="cls-102" d="M183.7,238.3c-.2,1.7-1.3,18.2,7.7,27.7h2c9-9.5,7.9-26,7.7-27.7Z"/><path class="cls-103" d="M182.8,238.3c-.2,1.7-1.5,18.2,8.5,27.7h2.2c10-9.5,8.7-26,8.5-27.7Z"/><path class="cls-104" d="M200.3,238.3h-15c-.1,1.7-1.1,18.2,7,27.7h1.1C201.5,256.5,200.4,240,200.3,238.3Z"/><path class="cls-105" d="M198.7,238.3H186.9c-.1,1.7-.9,18.2,5.5,27.7h.8C199.6,256.5,198.8,240,198.7,238.3Z"/><path class="cls-106" d="M196.5,256.3a51,51,0,0,0,2.8-16.1l-8.1,1.2C191.7,246,193.6,249.5,196.5,256.3Z"/><path class="cls-107" d="M181.5,241.4h-.1a36.7,36.7,0,0,0,3.7,15.6,41.5,41.5,0,0,0,3.1-12.6A53.5,53.5,0,0,1,181.5,241.4Z"/><path class="cls-108" d="M195.9,238.3h-5.8c0,1.7-.4,18.2,2.7,27.7h.4C196.4,256.5,196,240,195.9,238.3Z"/><path class="cls-109" d="M188.3,249.6a35.6,35.6,0,0,0,3.8,15,87.8,87.8,0,0,1,.7-13.6Z"/><path class="cls-110" d="M180.1,238.3c0,.3-.1,1.1-.1,2.2,2.2-.3,9.1-1.2,12.4-1.2s10.2.9,12.4,1.2c0-1.1-.1-1.9-.1-2.2Z"/><path class="cls-111" d="M204.2,236.9H180.4a1,1,0,0,0-1,1.4h0a.5.5,0,0,0,.4.3h24.9a.5.5,0,0,0,.5-.3h0A1,1,0,0,0,204.2,236.9Z"/><rect class="cls-112" x="196.8" y="236.9" width="5.1" height="1.72"/><rect class="cls-113" x="200.3" y="236.9" width="1.6" height="1.72"/><path class="cls-114" d="M195.1,236.9H184.8l-.3,1.7h10.6Z"/><path class="cls-115" d="M192.9,237.2h-3.2v1.4h3.2Z"/><rect class="cls-116" x="183.2" y="237.2" width="4.9" height="1.39"/><path class="cls-117" d="M194.6,251.7c-9.8-.3-13-5.7-13.1-5.9.2,5.3,1.8,14.3,9.6,20.2h2.5c6.7-5,8.8-12.2,9.5-17.5C201.6,250.7,196,251.8,194.6,251.7Z"/><g class="cls-118"><polygon class="cls-119" points="198.2 242 200.6 240 198.7 242.5 202.7 242.7 198.7 243.2 202.7 247.7 198.2 243.7 197.9 246.9 197.5 243.7 195.3 245.6 197 243.2 193.3 242.9 197 242.5 194.2 239.4 197.5 242 197.8 236.4 198.2 242"/></g><polygon class="cls-120" points="196.1 266 188.8 266 189.4 264.7 195.4 264.7 196.1 266"/><path class="cls-121" d="M195.8,266h.3l-.7-1.3h-.2A13.9,13.9,0,0,1,195.8,266Z"/><path class="cls-122" d="M189.6,264.7h-.2l-.6,1.3h.2A5.3,5.3,0,0,0,189.6,264.7Z"/><path class="cls-123" d="M194.3,266h.8c-.2-.2-.6-1.2-.7-1.3H194Z"/><path class="cls-124" d="M192.1,264.9v-.2h-.8c-.1.5-.3.9-.4,1.3H192A4.1,4.1,0,0,1,192.1,264.9Z"/><path class="cls-125" d="M192.7,264.7h.6l.3.8a1.7,1.7,0,0,1,.2.5h-1A6.2,6.2,0,0,0,192.7,264.7Z"/><path class="cls-126" d="M191,264.7h-.8a7.5,7.5,0,0,1-.6,1.3h1A5,5,0,0,1,191,264.7Z"/><path class="cls-127" d="M192.4,266h-3.6l1.5,1c.5.5.4,2.4,2.1,2.4s1.7-1.9,2.2-2.4a7.2,7.2,0,0,1,1.5-1Z"/><path class="cls-128" d="M192.4,266h-2.7a6.6,6.6,0,0,1,1.1,1c.4.5.7,3.3,1.6,2.4A25,25,0,0,0,194,267a6.6,6.6,0,0,1,1.1-1Z"/><path class="cls-129" d="M194.3,266a4.4,4.4,0,0,0-.8,1.1,4.5,4.5,0,0,1-1.1,2.3h0c.9-.3,1.2-1.9,1.6-2.4a6.6,6.6,0,0,1,1.1-1Z"/><path class="cls-130" d="M193.6,266h-2.5v.2c.1.5.5.9.6,1.4a4.9,4.9,0,0,1,.4,1.1c.3-.3.4-.3.6-.7A4.8,4.8,0,0,1,193.6,266Z"/><path class="cls-131" d="M192.7,266h-2.1a9.1,9.1,0,0,1,.9,1.7,9.4,9.4,0,0,0,1,1A8.2,8.2,0,0,1,192.7,266Z"/><path class="cls-132" d="M188.8,266.1l1.5.9c.4.4.4,1.8,1.3,2.2s.5.5.8.2,1.7-1.9,2.2-2.4a4.6,4.6,0,0,1,1.4-.9Z"/><path class="cls-133" d="M188.8,266a35.4,35.4,0,0,1,7.3,0A35.9,35.9,0,0,1,188.8,266Z"/><path class="cls-134" d="M188.8,266a35.4,35.4,0,0,1,7.3,0A35.9,35.9,0,0,1,188.8,266Z"/><path class="cls-135" d="M195.6,265.2l-.2-.5h-6l-.2.4A17.2,17.2,0,0,0,195.6,265.2Z"/><path class="cls-136" d="M203.1,298.1v-9.4a3.1,3.1,0,0,0-2.9-3.3H184.6a3.1,3.1,0,0,0-2.9,3.3v9.4Z"/><path class="cls-137" d="M180.6,295.9l-.6,1.3h24.8l-.6-1.3a.9.9,0,0,0-.8-.6h-22A.9.9,0,0,0,180.6,295.9Z"/><path class="cls-138" d="M204.2,295.9a.9.9,0,0,0-.8-.6h-22a.9.9,0,0,0-.8.6l-.6,1.3h.3l.6-1.1a.8.8,0,0,1,.7-.5h21.6a1,1,0,0,1,.8.5l.5,1.1h.3Z"/><path class="cls-139" d="M193.3,269.2h-1.8s-.8,10.4-4.7,14.5H198C194.1,279.6,193.3,269.2,193.3,269.2Z"/><path class="cls-140" d="M193.3,269.2h-1.8s-.8,10.4-4.7,14.5H198C194.1,279.6,193.3,269.2,193.3,269.2Z"/><path class="cls-139" d="M193.2,269.2h-1.6s-.7,10.4-4.1,14.5h9.8C193.9,279.6,193.2,269.2,193.2,269.2Z"/><path class="cls-141" d="M193.1,269.2h-1.4s-.6,10.4-3.6,14.5h8.6C193.7,279.6,193.1,269.2,193.1,269.2Z"/><path class="cls-142" d="M192.8,269.2h-.5s-.4,10.4-2.4,14.5h5.8C193.7,279.6,192.8,269.2,192.8,269.2Z"/><path class="cls-143" d="M192.8,269.2h-.2s-.2,10.4-1.1,14.5h2.6C193.2,279.6,192.8,269.2,192.8,269.2Z"/><path class="cls-144" d="M191.2,271.8a3.1,3.1,0,0,0,2.5.1c-.3-1.6-.4-2.7-.4-2.7h-1.8S191.4,270.3,191.2,271.8Z"/><path class="cls-145" d="M197.8,282.6H187a2.7,2.7,0,0,0-2.4,2.8h15.6A2.7,2.7,0,0,0,197.8,282.6Z"/><path class="cls-146" d="M197.8,282.6H187a2.7,2.7,0,0,0-2.4,2.8h15.6A2.7,2.7,0,0,0,197.8,282.6Z"/><path class="cls-145" d="M197.5,283H187.3a2.4,2.4,0,0,0-2.2,2.4h14.6A2.4,2.4,0,0,0,197.5,283Z"/><path class="cls-147" d="M192.4,283h-5.1l-.7.2a12.6,12.6,0,0,0-.6,2.2h11.2c-.2-.4-.6-2.1-.7-2.4Z"/><polygon class="cls-148" points="193.7 285.4 195.4 285.4 194.8 283 193.8 283 193.7 285.4"/><polygon class="cls-149" points="188.2 283 187.8 285.4 193 285.4 193 283 188.2 283"/><path class="cls-150" d="M194.2,267.9h-3.6a1.7,1.7,0,0,0-.6,1.2c-.2,1.1.9,2.1,2.4,2.1s2.6-1,2.4-2.1A1.7,1.7,0,0,0,194.2,267.9Z"/><path class="cls-151" d="M194.2,267.9h-3.6a1.7,1.7,0,0,0-.6,1.2c-.2,1.1.9,2.1,2.4,2.1s2.6-1,2.4-2.1A1.7,1.7,0,0,0,194.2,267.9Z"/><path class="cls-152" d="M194,267.9h-3.2a1.7,1.7,0,0,0-.6,1.2,2.1,2.1,0,0,0,2.2,2.1,2,2,0,0,0,2.2-2.1A1.7,1.7,0,0,0,194,267.9Z"/><path class="cls-153" d="M193.6,267.9h-2.4a3.4,3.4,0,0,0-.4,1.2,1.7,1.7,0,1,0,3.2,0A2.1,2.1,0,0,0,193.6,267.9Z"/><path class="cls-154" d="M193.2,267.9h-1.3a3.7,3.7,0,0,0-.2,1.2c-.1,1.1.3,2.1.9,2.1s.9-1,.8-2.1A3.7,3.7,0,0,0,193.2,267.9Z"/><path class="cls-155" d="M194.8,269.1h0a3.8,3.8,0,0,1-4.8.2,2.2,2.2,0,0,0,2.5,2h.1c1.4-.1,2.4-1.1,2.2-2.1Z"/><path class="cls-156" d="M206.1,299.2l-.3-1.4a.7.7,0,0,0-.7-.6H179.5a.7.7,0,0,0-.7.6l-.3,1.4Z"/><path class="cls-157" d="M205.8,297.8a.7.7,0,0,0-.7-.6H179.5a.7.7,0,0,0-.7.6l-.3,1.4h.4l.3-1.2a.8.8,0,0,1,.7-.4h24.8a.8.8,0,0,1,.7.4l.3,1.2h.4Z"/><path class="cls-158" d="M200.5,292.4v-3.8a1.5,1.5,0,0,1-1.4-1.5H185.5a1.5,1.5,0,0,1-1.5,1.5v3.8a1.4,1.4,0,0,1,1.5,1.4h13.6A1.4,1.4,0,0,1,200.5,292.4Z"/><path class="cls-159" d="M200.3,292.2v-3.4a1.4,1.4,0,0,1-1.4-1.4H185.7a1.4,1.4,0,0,1-1.4,1.4v3.4a1.3,1.3,0,0,1,1.4,1.3h13.2A1.3,1.3,0,0,1,200.3,292.2Z"/><path class="cls-160" d="M199.3,288a2.4,2.4,0,0,1-.2-.9h-1c-.9,2.3-3,6.7-3,6.7h1Z"/><path class="cls-161" d="M188.4,287.1l-3.2,5.9a1.1,1.1,0,0,1,.3.8h.8l4.1-6.7Z"/><path class="cls-162" d="M186.8,288c0,.2-.2.3-.4.3a.3.3,0,0,1-.3-.3c0-.2.1-.4.3-.4A.4.4,0,0,1,186.8,288Z"/><path class="cls-163" d="M186.7,288c0,.1-.1.2-.3.2s-.3-.1-.3-.2a.3.3,0,0,1,.3-.3A.3.3,0,0,1,186.7,288Z"/><path class="cls-162" d="M198.5,288a.3.3,0,0,1-.3.3c-.2,0-.4-.1-.4-.3a.4.4,0,0,1,.4-.4C198.4,287.6,198.5,287.8,198.5,288Z"/><path class="cls-164" d="M198.4,288a.2.2,0,0,1-.2.2c-.2,0-.3-.1-.3-.2a.3.3,0,0,1,.3-.3C198.3,287.7,198.4,287.8,198.4,288Z"/><path class="cls-162" d="M186.8,293a.4.4,0,0,1-.4.4c-.2,0-.3-.2-.3-.4s.1-.4.3-.4A.4.4,0,0,1,186.8,293Z"/><path class="cls-165" d="M186.7,293a.3.3,0,0,1-.3.3.3.3,0,0,1-.3-.3.5.5,0,0,1,.3-.3A.3.3,0,0,1,186.7,293Z"/><path class="cls-162" d="M198.5,293c0,.2-.1.4-.3.4a.4.4,0,0,1,0-.8C198.4,292.6,198.5,292.8,198.5,293Z"/><path class="cls-166" d="M198.4,293c0,.2-.1.3-.2.3a.3.3,0,0,1-.3-.3.3.3,0,0,1,.3-.3C198.3,292.7,198.4,292.9,198.4,293Z"/><path class="cls-167" d="M205.2,238.3h0a1,1,0,0,0-1-1.4H180.4a1,1,0,0,0-1,1.4h0a.5.5,0,0,0,.4.3h.2l-.4-.2h0c-.3-.5.2-1.1,1-1.1H204c.7,0,1.3.6,1,1.1h0l-.4.2h.1A.5.5,0,0,0,205.2,238.3Z"/><g class="cls-168"><path class="cls-169" d="M193.4,268.7c.6,1,.7,2,.3,2.3s-1.4-.3-2-1.3-.7-2.1-.2-2.4S192.8,267.6,193.4,268.7Z"/></g><g class="cls-170"><path class="cls-171" d="M216.3,238.9c1.4,2.5,1.7,5,.6,5.7s-3.2-.8-4.7-3.2-1.7-5-.6-5.6S214.8,236.5,216.3,238.9Z"/></g><g class="cls-172"><path class="cls-173" d="M172.9,240.8c1.5,2.4,1.7,5,.6,5.6s-3.2-.7-4.7-3.2-1.7-4.9-.6-5.6S171.5,238.4,172.9,240.8Z"/></g><g class="cls-174"><path class="cls-175" d="M200.9,233.7c4.9.1,8.9,1.9,8.9,4.2s-4,4.1-9,4.1-8.9-1.9-8.9-4.2S195.9,233.7,200.9,233.7Z"/></g><g class="cls-176"><path class="cls-177" d="M204,237.9a3.1,3.1,0,0,1-3.1,3.1,3.1,3.1,0,0,1,0-6.2A3.1,3.1,0,0,1,204,237.9Z"/></g><g class="cls-178"><path class="cls-179" d="M201.3,237.9a.4.4,0,0,1-.8,0,.4.4,0,1,1,.8,0Z"/></g><g class="cls-180"><path class="cls-181" d="M197.6,284.4a3.1,3.1,0,1,1-3.1-3.1A3.1,3.1,0,0,1,197.6,284.4Z"/></g><g class="cls-178"><path class="cls-182" d="M195,284.4a.5.5,0,0,1-.4.5c-.3,0-.4-.2-.4-.5a.4.4,0,0,1,.4-.4A.4.4,0,0,1,195,284.4Z"/></g><g class="cls-183"><path class="cls-184" d="M198.4,239.3c4.6,2,7.4,5.6,6.4,8s-5.7,2.9-10.2.9-7.5-5.5-6.4-8S193.8,237.4,198.4,239.3Z"/></g><g class="cls-185"><path class="cls-186" d="M187.7,294.3c2.1.9,3.5,2.6,3,3.8s-2.7,1.3-4.8.4-3.5-2.6-3-3.8S185.5,293.3,187.7,294.3Z"/></g><g class="cls-187"><path class="cls-188" d="M196,283.1c.8,1.4.8,2.9-.1,3.4s-2.2-.2-3-1.6-.9-2.9,0-3.4S195.1,281.7,196,283.1Z"/></g><path class="cls-189" d="M212.9,237.5a4.7,4.7,0,0,0-1.5-.6h-1.6a9.2,9.2,0,0,0-3.9,1.6,11.8,11.8,0,0,0-1.1,1.3v-.3c0-.3-.1-.6-.1-.9h0a.5.5,0,0,0,.5-.3h0a1,1,0,0,0-1-1.4H180.4a1,1,0,0,0-1,1.4h0a.5.5,0,0,0,.4.3h.3c0,.3-.1.7-.1,1.2a11.8,11.8,0,0,0-1.1-1.3,8.9,8.9,0,0,0-2.5-1.3,5.8,5.8,0,0,0-1.9-.3h-1.9l-.7.4h-.3l-.7.6-.2.2a5.6,5.6,0,0,0-1.4,4.2,9.3,9.3,0,0,0,1.2,4.1l.3.6.8,1.2,1.3,1.7,1.5,1.4a38.2,38.2,0,0,0,9.4,6,23.5,23.5,0,0,0,5.7,7.1h-.1l-.2.4h0l-.4.9h1.1l.2.2h.2c0,.1,0,.1.1.2h0c0,.1.1.2.1.3h.1c0,.1,0,.1.1.2h-.1a1.7,1.7,0,0,0-.6,1.2h0v.3a1.7,1.7,0,0,1,1.2,2.3h0c-.5,3-1.5,7.8-3.5,10.8H187a2.7,2.7,0,0,0-2.4,2.8h0a3.1,3.1,0,0,0-2.9,3.3v6.6h-.3a.9.9,0,0,0-.8.6l-.6,1.3h-.5a.7.7,0,0,0-.7.6l-.3,1.4h27.6l-.3-1.4a.7.7,0,0,0-.7-.6h-.3l-.6-1.3a.9.9,0,0,0-.8-.6h-.3v-6.6a3.1,3.1,0,0,0-2.9-3.3h0a2.7,2.7,0,0,0-2.4-2.8h-.7c-2-2.9-3-7.7-3.4-10.7h0c-.1-.3-.1-.6-.2-.8h.2v-.2h.5v-.2h.2a.1.1,0,0,1,.1-.1h0a.1.1,0,0,0,.1-.1h0c0-.1,0-.1.1-.2h0c0-.1,0-.2-.1-.2h0a1.7,1.7,0,0,0-.6-1.1h0a1.9,1.9,0,0,1,.4-.9h.2c0-.1.1-.1.1-.2H196a.1.1,0,0,1,.1-.1H196l-.6-1.3h0a24.7,24.7,0,0,0,5.6-7.1,38.2,38.2,0,0,0,9.4-6l1-.9,1.4-1.6.4-.6.8-1.2.3-.6a9.8,9.8,0,0,0,1.1-3.3A5.4,5.4,0,0,0,212.9,237.5Zm-30.7,17.2-.8-.4h-.1l-.9-.5h0l-1-.6h0l-1-.8h-.1l-.5-.4h0a18.9,18.9,0,0,1-2.7-2.9,12.8,12.8,0,0,1-2.5-6,4.8,4.8,0,0,1,.2-2.2l.2-.4a2.1,2.1,0,0,1,1.1-.8c2.2-.7,4.4,2.7,5.9,3.2a33.9,33.9,0,0,0,2.5,12.1l-.3-.2Zm-2.3-12.6h0Zm24.9,0h0Zm-1.2,9.2c.2-.7.3-1.4.5-2.1l.3-2,.3-1.9a21.8,21.8,0,0,0,.1-2.5c1.5-.4,3.6-3.7,5.8-3.2h.1c2.5.7,2,5.1-1,9.4a20.2,20.2,0,0,1-7.4,5.9C202.8,253.7,203.2,252.5,203.6,251.3Z"/></g><g class="cls-190"><rect class="cls-44" x="270" y="80.4" width="2.5" height="5.42" rx="1.3"/><rect class="cls-44" x="270" y="87.4" width="2.5" height="5.42" rx="1.3"/><rect class="cls-44" x="274.1" y="83.9" width="2.5" height="5.42" rx="1.3" transform="translate(188.7 362) rotate(-90)"/><rect class="cls-44" x="265.9" y="83.9" width="2.5" height="5.42" rx="1.3" transform="translate(180.5 353.7) rotate(-90)"/></g><g class="cls-190"><rect class="cls-44" x="64.6" y="222.9" width="2.5" height="5.42" rx="1.3"/><rect class="cls-44" x="64.6" y="229.9" width="2.5" height="5.42" rx="1.3"/><rect class="cls-44" x="68.7" y="226.4" width="2.5" height="5.42" rx="1.3" transform="translate(-159.2 299.1) rotate(-90)"/><rect class="cls-44" x="60.5" y="226.4" width="2.5" height="5.42" rx="1.3" transform="translate(-167.4 290.9) rotate(-90)"/></g><g class="cls-190"><rect class="cls-44" x="105.4" y="101.6" width="2.5" height="5.42" rx="1.3"/><rect class="cls-44" x="105.4" y="108.5" width="2.5" height="5.42" rx="1.3"/><rect class="cls-44" x="109.5" y="105" width="2.5" height="5.42" rx="1.3" transform="translate(3 218.5) rotate(-90)"/><rect class="cls-44" x="101.3" y="105" width="2.5" height="5.42" rx="1.3" transform="translate(-5.2 210.3) rotate(-90)"/></g><g class="cls-190"><rect class="cls-44" x="325.1" y="223.7" width="2.5" height="5.42" rx="1.3"/><rect class="cls-44" x="325.1" y="230.7" width="2.5" height="5.42" rx="1.3"/><rect class="cls-44" x="329.2" y="227.2" width="2.5" height="5.42" rx="1.3" transform="translate(100.6 560.4) rotate(-90)"/><rect class="cls-44" x="321" y="227.2" width="2.5" height="5.42" rx="1.3" transform="translate(92.4 552.2) rotate(-90)"/></g></g></g></svg>