<svg id="Layer_1" data-name="Layer 1" xmlns="http://www.w3.org/2000/svg" xmlns:xlink="http://www.w3.org/1999/xlink" viewBox="0 0 400 400"><defs><style>.cls-1{mask:url(#mask);filter:url(#luminosity-noclip-9);}.cls-10,.cls-12,.cls-14,.cls-16,.cls-2,.cls-4,.cls-6,.cls-8{mix-blend-mode:multiply;}.cls-2{fill:url(#Áåçûìÿííûé_ãðàäèåíò_32);}.cls-3{mask:url(#mask-2);filter:url(#luminosity-noclip-14);}.cls-4{fill:url(#Áåçûìÿííûé_ãðàäèåíò_32-2);}.cls-5{mask:url(#mask-3);filter:url(#luminosity-noclip-15);}.cls-6{fill:url(#Áåçûìÿííûé_ãðàäèåíò_32-3);}.cls-7{mask:url(#mask-4);filter:url(#luminosity-noclip-16);}.cls-8{fill:url(#Áåçûìÿííûé_ãðàäèåíò_32-4);}.cls-9{mask:url(#mask-5);filter:url(#luminosity-noclip-10);}.cls-10{fill:url(#Áåçûìÿííûé_ãðàäèåíò_32-5);}.cls-11{mask:url(#mask-6);filter:url(#luminosity-noclip-11);}.cls-12{fill:url(#Áåçûìÿííûé_ãðàäèåíò_32-6);}.cls-13{mask:url(#mask-7);filter:url(#luminosity-noclip-12);}.cls-14{fill:url(#Áåçûìÿííûé_ãðàäèåíò_32-7);}.cls-15{mask:url(#mask-8);filter:url(#luminosity-noclip-13);}.cls-16{fill:url(#Áåçûìÿííûé_ãðàäèåíò_32-8);}.cls-17{opacity:0.67;}.cls-18{fill:#0f054c;}.cls-19{fill:url(#Áåçûìÿííûé_ãðàäèåíò_22);}.cls-20{opacity:0.9;}.cls-21{fill:#080344;}.cls-22{fill:url(#Áåçûìÿííûé_ãðàäèåíò_22-2);}.cls-23{fill:#24126a;}.cls-24{fill:url(#Áåçûìÿííûé_ãðàäèåíò_24);}.cls-25{fill:#bcbeff;}.cls-26{opacity:0.51;}.cls-27{fill:#453c9e;}.cls-28{fill:#5351af;}.cls-29{fill:url(#Áåçûìÿííûé_ãðàäèåíò_24-2);}.cls-30{fill:url(#Áåçûìÿííûé_ãðàäèåíò_24-3);}.cls-31{fill:url(#Áåçûìÿííûé_ãðàäèåíò_24-4);}.cls-32,.cls-34,.cls-65{fill:#fff;}.cls-33{fill:#6767c1;}.cls-34{opacity:0.04;}.cls-35{mask:url(#mask-9);}.cls-36,.cls-38,.cls-40,.cls-42,.cls-44,.cls-46,.cls-48,.cls-50{opacity:0.66;}.cls-36{fill:url(#Áåçûìÿííûé_ãðàäèåíò_364);}.cls-37{mask:url(#mask-10);}.cls-38{fill:url(#Áåçûìÿííûé_ãðàäèåíò_364-2);}.cls-39{mask:url(#mask-11);}.cls-40{fill:url(#Áåçûìÿííûé_ãðàäèåíò_364-3);}.cls-41{mask:url(#mask-12);}.cls-42{fill:url(#Áåçûìÿííûé_ãðàäèåíò_364-4);}.cls-43{mask:url(#mask-13);}.cls-44{fill:url(#Áåçûìÿííûé_ãðàäèåíò_364-5);}.cls-45{mask:url(#mask-14);}.cls-46{fill:url(#Áåçûìÿííûé_ãðàäèåíò_364-6);}.cls-47{mask:url(#mask-15);}.cls-48{fill:url(#Áåçûìÿííûé_ãðàäèåíò_364-7);}.cls-49{mask:url(#mask-16);}.cls-50{fill:url(#Áåçûìÿííûé_ãðàäèåíò_364-8);}.cls-51{fill:url(#Áåçûìÿííûé_ãðàäèåíò_254);}.cls-52{fill:url(#Áåçûìÿííûé_ãðàäèåíò_24-6);}.cls-53{fill:url(#Áåçûìÿííûé_ãðàäèåíò_25);}.cls-54{fill:url(#Áåçûìÿííûé_ãðàäèåíò_24-7);}.cls-55{fill:url(#Áåçûìÿííûé_ãðàäèåíò_3);}.cls-56{fill:url(#Áåçûìÿííûé_ãðàäèåíò_22-3);}.cls-57{opacity:0.15;}.cls-58{fill:#ffaaa8;}.cls-59{fill:#1a2e35;}.cls-60{fill:#375a64;}.cls-61{fill:#fafafa;}.cls-62{fill:#00dfbf;}.cls-63{opacity:0.3;}.cls-64{fill:#ff9090;}.cls-65{opacity:0.7;}.cls-66{opacity:0.1;}.cls-67{fill:#f0f0f0;}.cls-68{fill:#2b454e;}.cls-69{filter:url(#luminosity-noclip-8);}.cls-70{filter:url(#luminosity-noclip-7);}.cls-71{filter:url(#luminosity-noclip-6);}.cls-72{filter:url(#luminosity-noclip-5);}.cls-73{filter:url(#luminosity-noclip-4);}.cls-74{filter:url(#luminosity-noclip-3);}.cls-75{filter:url(#luminosity-noclip-2);}.cls-76{filter:url(#luminosity-noclip);}</style><filter id="luminosity-noclip" x="258.45" y="-8392" width="6.81" height="32766" filterUnits="userSpaceOnUse" color-interpolation-filters="sRGB"><feFlood flood-color="#fff" result="bg"/><feBlend in="SourceGraphic" in2="bg"/></filter><mask id="mask" x="258.45" y="-8392" width="6.81" height="32766" maskUnits="userSpaceOnUse"><g class="cls-76"/></mask><linearGradient id="Áåçûìÿííûé_ãðàäèåíò_32" x1="-527.18" y1="1213.14" x2="-527.18" y2="1087.04" gradientTransform="matrix(0.87, 0.5, 0, 1.15, 718.4, -879.87)" gradientUnits="userSpaceOnUse"><stop offset="0"/><stop offset="0.06" stop-color="#2a2a2a"/><stop offset="0.15" stop-color="#626262"/><stop offset="0.23" stop-color="#929292"/><stop offset="0.31" stop-color="#b6b6b6"/><stop offset="0.39" stop-color="#d1d1d1"/><stop offset="0.45" stop-color="#e0e0e0"/><stop offset="0.51" stop-color="#e6e6e6"/><stop offset="0.55" stop-color="#dedede"/><stop offset="0.62" stop-color="#c9c9c9"/><stop offset="0.71" stop-color="#a7a7a7"/><stop offset="0.8" stop-color="#787878"/><stop offset="0.91" stop-color="#3b3b3b"/><stop offset="1"/></linearGradient><filter id="luminosity-noclip-2" x="112.64" y="-8392" width="6.81" height="32766" filterUnits="userSpaceOnUse" color-interpolation-filters="sRGB"><feFlood flood-color="#fff" result="bg"/><feBlend in="SourceGraphic" in2="bg"/></filter><mask id="mask-2" x="112.64" y="-8392" width="6.81" height="32766" maskUnits="userSpaceOnUse"><g class="cls-75"/></mask><linearGradient id="Áåçûìÿííûé_ãðàäèåíò_32-2" x1="-2039.37" y1="1874.33" x2="-2039.37" y2="1767.15" gradientTransform="matrix(-0.87, 0.5, 0, 1.15, -1650.05, -879.87)" xlink:href="#Áåçûìÿííûé_ãðàäèåíò_32"/><filter id="luminosity-noclip-3" x="99.86" y="-8392" width="6.81" height="32766" filterUnits="userSpaceOnUse" color-interpolation-filters="sRGB"><feFlood flood-color="#fff" result="bg"/><feBlend in="SourceGraphic" in2="bg"/></filter><mask id="mask-3" x="99.86" y="-8392" width="6.81" height="32766" maskUnits="userSpaceOnUse"><g class="cls-74"/></mask><linearGradient id="Áåçûìÿííûé_ãðàäèåíò_32-3" x1="-2024.62" y1="1835.4" x2="-2024.62" y2="1790.66" gradientTransform="matrix(-0.87, 0.5, 0, 1.15, -1650.05, -879.87)" xlink:href="#Áåçûìÿííûé_ãðàäèåíò_32"/><filter id="luminosity-noclip-4" x="87.2" y="-8392" width="6.81" height="32766" filterUnits="userSpaceOnUse" color-interpolation-filters="sRGB"><feFlood flood-color="#fff" result="bg"/><feBlend in="SourceGraphic" in2="bg"/></filter><mask id="mask-4" x="87.2" y="-8392" width="6.81" height="32766" maskUnits="userSpaceOnUse"><g class="cls-73"/></mask><linearGradient id="Áåçûìÿííûé_ãðàäèåíò_32-4" x1="-2009.99" y1="1822.41" x2="-2009.99" y2="1800.74" gradientTransform="matrix(-0.87, 0.5, 0, 1.15, -1650.05, -879.87)" xlink:href="#Áåçûìÿííûé_ãðàäèåíò_32"/><filter id="luminosity-noclip-5" x="271.23" y="-8392" width="6.81" height="32766" filterUnits="userSpaceOnUse" color-interpolation-filters="sRGB"><feFlood flood-color="#fff" result="bg"/><feBlend in="SourceGraphic" in2="bg"/></filter><mask id="mask-5" x="271.23" y="-8392" width="6.81" height="32766" maskUnits="userSpaceOnUse"><g class="cls-72"/></mask><linearGradient id="Áåçûìÿííûé_ãðàäèåíò_32-5" x1="-512.42" y1="1213.14" x2="-512.42" y2="1105.96" xlink:href="#Áåçûìÿííûé_ãðàäèåíò_32"/><filter id="luminosity-noclip-6" x="284.01" y="-8392" width="6.81" height="32766" filterUnits="userSpaceOnUse" color-interpolation-filters="sRGB"><feFlood flood-color="#fff" result="bg"/><feBlend in="SourceGraphic" in2="bg"/></filter><mask id="mask-6" x="284.01" y="-8392" width="6.81" height="32766" maskUnits="userSpaceOnUse"><g class="cls-71"/></mask><linearGradient id="Áåçûìÿííûé_ãðàäèåíò_32-6" x1="-497.67" y1="1174.21" x2="-497.67" y2="1129.47" xlink:href="#Áåçûìÿííûé_ãðàäèåíò_32"/><filter id="luminosity-noclip-7" x="296.67" y="-8392" width="6.81" height="32766" filterUnits="userSpaceOnUse" color-interpolation-filters="sRGB"><feFlood flood-color="#fff" result="bg"/><feBlend in="SourceGraphic" in2="bg"/></filter><mask id="mask-7" x="296.67" y="-8392" width="6.81" height="32766" maskUnits="userSpaceOnUse"><g class="cls-70"/></mask><linearGradient id="Áåçûìÿííûé_ãðàäèåíò_32-7" x1="-483.05" y1="1161.23" x2="-483.05" y2="1139.55" xlink:href="#Áåçûìÿííûé_ãðàäèåíò_32"/><filter id="luminosity-noclip-8" x="125.41" y="-8392" width="6.81" height="32766" filterUnits="userSpaceOnUse" color-interpolation-filters="sRGB"><feFlood flood-color="#fff" result="bg"/><feBlend in="SourceGraphic" in2="bg"/></filter><mask id="mask-8" x="125.41" y="-8392" width="6.81" height="32766" maskUnits="userSpaceOnUse"><g class="cls-69"/></mask><linearGradient id="Áåçûìÿííûé_ãðàäèåíò_32-8" x1="-2054.12" y1="1874.33" x2="-2054.12" y2="1748.22" gradientTransform="matrix(-0.87, 0.5, 0, 1.15, -1650.05, -879.87)" xlink:href="#Áåçûìÿííûé_ãðàäèåíò_32"/><linearGradient id="Áåçûìÿííûé_ãðàäèåíò_22" x1="84.93" y1="251.98" x2="305.75" y2="251.98" gradientUnits="userSpaceOnUse"><stop offset="0" stop-color="#5761d7"/><stop offset="0.07" stop-color="#5472d8"/><stop offset="0.28" stop-color="#4e9cdb"/><stop offset="0.48" stop-color="#49bddd"/><stop offset="0.67" stop-color="#45d5df"/><stop offset="0.85" stop-color="#43e3e0"/><stop offset="1" stop-color="#42e8e0"/></linearGradient><linearGradient id="Áåçûìÿííûé_ãðàäèåíò_22-2" x1="139.67" y1="249.65" x2="251.01" y2="249.65" xlink:href="#Áåçûìÿííûé_ãðàäèåíò_22"/><linearGradient id="Áåçûìÿííûé_ãðàäèåíò_24" x1="144.08" y1="231.44" x2="246.6" y2="231.44" gradientUnits="userSpaceOnUse"><stop offset="0" stop-color="#5761d7"/><stop offset="0.18" stop-color="#5c66d9"/><stop offset="0.39" stop-color="#6a73df"/><stop offset="0.61" stop-color="#8289e8"/><stop offset="0.85" stop-color="#a3a7f5"/><stop offset="1" stop-color="#bcbeff"/></linearGradient><linearGradient id="Áåçûìÿííûé_ãðàäèåíò_24-2" x1="144.08" y1="203.86" x2="246.6" y2="203.86" xlink:href="#Áåçûìÿííûé_ãðàäèåíò_24"/><linearGradient id="Áåçûìÿííûé_ãðàäèåíò_24-3" x1="144.08" y1="175.71" x2="246.6" y2="175.71" xlink:href="#Áåçûìÿííûé_ãðàäèåíò_24"/><linearGradient id="Áåçûìÿííûé_ãðàäèåíò_24-4" x1="144.08" y1="147.56" x2="246.6" y2="147.56" xlink:href="#Áåçûìÿííûé_ãðàäèåíò_24"/><filter id="luminosity-noclip-9" x="258.45" y="111.22" width="6.81" height="146.65" filterUnits="userSpaceOnUse" color-interpolation-filters="sRGB"><feFlood flood-color="#fff" result="bg"/><feBlend in="SourceGraphic" in2="bg"/></filter><mask id="mask-9" x="258.45" y="111.22" width="6.81" height="146.65" maskUnits="userSpaceOnUse"><g class="cls-1"><path class="cls-2" d="M262.1,111.9l-.5-.3c-1.7-1-3.1.1-3.1,2.4V251.2a7.6,7.6,0,0,0,3.1,6l.5.3c1.7,1,3.2-.1,3.2-2.4V117.9A7.7,7.7,0,0,0,262.1,111.9Z"/></g></mask><linearGradient id="Áåçûìÿííûé_ãðàäèåíò_364" x1="-527.18" y1="1213.14" x2="-527.18" y2="1087.04" gradientTransform="matrix(0.87, 0.5, 0, 1.15, 718.4, -879.87)" gradientUnits="userSpaceOnUse"><stop offset="0" stop-color="#5761d7"/><stop offset="0.01" stop-color="#5665d7"/><stop offset="0.13" stop-color="#4f94da"/><stop offset="0.24" stop-color="#49b8dd"/><stop offset="0.34" stop-color="#45d3df"/><stop offset="0.43" stop-color="#43e2e0"/><stop offset="0.51" stop-color="#42e8e0"/><stop offset="0.57" stop-color="#43e0df"/><stop offset="0.67" stop-color="#46ccde"/><stop offset="0.8" stop-color="#4ca9dc"/><stop offset="0.93" stop-color="#537ad9"/><stop offset="1" stop-color="#5761d7"/></linearGradient><filter id="luminosity-noclip-10" x="271.23" y="140.45" width="6.81" height="124.79" filterUnits="userSpaceOnUse" color-interpolation-filters="sRGB"><feFlood flood-color="#fff" result="bg"/><feBlend in="SourceGraphic" in2="bg"/></filter><mask id="mask-10" x="271.23" y="140.45" width="6.81" height="124.79" maskUnits="userSpaceOnUse"><g class="cls-9"><path class="cls-10" d="M274.9,141.1l-.5-.3c-1.8-1-3.2.1-3.2,2.4V258.5a7.5,7.5,0,0,0,3.2,6.1l.5.3c1.7,1,3.1-.1,3.1-2.4V147.2A7.6,7.6,0,0,0,274.9,141.1Z"/></g></mask><linearGradient id="Áåçûìÿííûé_ãðàäèåíò_364-2" x1="-512.42" y1="1213.14" x2="-512.42" y2="1105.96" xlink:href="#Áåçûìÿííûé_ãðàäèåíò_364"/><filter id="luminosity-noclip-11" x="284.01" y="174.98" width="6.81" height="52.7" filterUnits="userSpaceOnUse" color-interpolation-filters="sRGB"><feFlood flood-color="#fff" result="bg"/><feBlend in="SourceGraphic" in2="bg"/></filter><mask id="mask-11" x="284.01" y="174.98" width="6.81" height="52.7" maskUnits="userSpaceOnUse"><g class="cls-11"><path class="cls-12" d="M287.6,175.6l-.4-.2c-1.8-1.1-3.2,0-3.2,2.4V221a7.4,7.4,0,0,0,3.2,6l.4.3c1.8,1,3.2-.1,3.2-2.4V181.7C290.8,179.4,289.4,176.6,287.6,175.6Z"/></g></mask><linearGradient id="Áåçûìÿííûé_ãðàäèåíò_364-3" x1="-497.67" y1="1174.21" x2="-497.67" y2="1129.47" xlink:href="#Áåçûìÿííûé_ãðàäèåíò_364"/><filter id="luminosity-noclip-12" x="296.67" y="193.93" width="6.81" height="26.06" filterUnits="userSpaceOnUse" color-interpolation-filters="sRGB"><feFlood flood-color="#fff" result="bg"/><feBlend in="SourceGraphic" in2="bg"/></filter><mask id="mask-12" x="296.67" y="193.93" width="6.81" height="26.06" maskUnits="userSpaceOnUse"><g class="cls-13"><path class="cls-14" d="M300.3,194.6l-.5-.3c-1.7-1-3.1.1-3.1,2.4v16.6a7.6,7.6,0,0,0,3.1,6l.5.3c1.8,1,3.2-.1,3.2-2.4V200.6A7.4,7.4,0,0,0,300.3,194.6Z"/></g></mask><linearGradient id="Áåçûìÿííûé_ãðàäèåíò_364-4" x1="-483.05" y1="1161.23" x2="-483.05" y2="1139.55" xlink:href="#Áåçûìÿííûé_ãðàäèåíò_364"/><filter id="luminosity-noclip-13" x="125.41" y="111.22" width="6.81" height="146.65" filterUnits="userSpaceOnUse" color-interpolation-filters="sRGB"><feFlood flood-color="#fff" result="bg"/><feBlend in="SourceGraphic" in2="bg"/></filter><mask id="mask-13" x="125.41" y="111.22" width="6.81" height="146.65" maskUnits="userSpaceOnUse"><g class="cls-15"><path class="cls-16" d="M128.6,111.9l.5-.3c1.7-1,3.1.1,3.1,2.4V251.2a7.6,7.6,0,0,1-3.1,6l-.5.3c-1.8,1-3.2-.1-3.2-2.4V117.9A7.4,7.4,0,0,1,128.6,111.9Z"/></g></mask><linearGradient id="Áåçûìÿííûé_ãðàäèåíò_364-5" x1="-2054.12" y1="1874.33" x2="-2054.12" y2="1748.22" gradientTransform="matrix(-0.87, 0.5, 0, 1.15, -1650.05, -879.87)" xlink:href="#Áåçûìÿííûé_ãðàäèåíò_364"/><filter id="luminosity-noclip-14" x="112.64" y="140.45" width="6.81" height="124.79" filterUnits="userSpaceOnUse" color-interpolation-filters="sRGB"><feFlood flood-color="#fff" result="bg"/><feBlend in="SourceGraphic" in2="bg"/></filter><mask id="mask-14" x="112.64" y="140.45" width="6.81" height="124.79" maskUnits="userSpaceOnUse"><g class="cls-3"><path class="cls-4" d="M115.8,141.1l.5-.3c1.7-1,3.2.1,3.2,2.4V258.5a7.7,7.7,0,0,1-3.2,6.1l-.5.3c-1.7,1-3.2-.1-3.2-2.4V147.2A7.7,7.7,0,0,1,115.8,141.1Z"/></g></mask><linearGradient id="Áåçûìÿííûé_ãðàäèåíò_364-6" x1="-2039.37" y1="1874.33" x2="-2039.37" y2="1767.15" gradientTransform="matrix(-0.87, 0.5, 0, 1.15, -1650.05, -879.87)" xlink:href="#Áåçûìÿííûé_ãðàäèåíò_364"/><filter id="luminosity-noclip-15" x="99.86" y="174.98" width="6.81" height="52.7" filterUnits="userSpaceOnUse" color-interpolation-filters="sRGB"><feFlood flood-color="#fff" result="bg"/><feBlend in="SourceGraphic" in2="bg"/></filter><mask id="mask-15" x="99.86" y="174.98" width="6.81" height="52.7" maskUnits="userSpaceOnUse"><g class="cls-5"><path class="cls-6" d="M103,175.6l.5-.2c1.8-1.1,3.2,0,3.2,2.4V221a7.4,7.4,0,0,1-3.2,6l-.5.3c-1.7,1-3.1-.1-3.1-2.4V181.7C99.9,179.4,101.3,176.6,103,175.6Z"/></g></mask><linearGradient id="Áåçûìÿííûé_ãðàäèåíò_364-7" x1="-2024.62" y1="1835.4" x2="-2024.62" y2="1790.66" gradientTransform="matrix(-0.87, 0.5, 0, 1.15, -1650.05, -879.87)" xlink:href="#Áåçûìÿííûé_ãðàäèåíò_364"/><filter id="luminosity-noclip-16" x="87.2" y="193.93" width="6.81" height="26.06" filterUnits="userSpaceOnUse" color-interpolation-filters="sRGB"><feFlood flood-color="#fff" result="bg"/><feBlend in="SourceGraphic" in2="bg"/></filter><mask id="mask-16" x="87.2" y="193.93" width="6.81" height="26.06" maskUnits="userSpaceOnUse"><g class="cls-7"><path class="cls-8" d="M90.4,194.6l.4-.3c1.8-1,3.2.1,3.2,2.4v16.6a7.4,7.4,0,0,1-3.2,6l-.4.3c-1.8,1-3.2-.1-3.2-2.4V200.6A7.4,7.4,0,0,1,90.4,194.6Z"/></g></mask><linearGradient id="Áåçûìÿííûé_ãðàäèåíò_364-8" x1="-2009.99" y1="1822.41" x2="-2009.99" y2="1800.74" gradientTransform="matrix(-0.87, 0.5, 0, 1.15, -1650.05, -879.87)" xlink:href="#Áåçûìÿííûé_ãðàäèåíò_364"/><linearGradient id="Áåçûìÿííûé_ãðàäèåíò_254" x1="215.4" y1="299.85" x2="323.47" y2="299.85" gradientUnits="userSpaceOnUse"><stop offset="0" stop-color="#42e8e0"/><stop offset="0.15" stop-color="#43e3e0"/><stop offset="0.33" stop-color="#45d5df"/><stop offset="0.52" stop-color="#49bddd"/><stop offset="0.72" stop-color="#4e9cdb"/><stop offset="0.93" stop-color="#5472d8"/><stop offset="1" stop-color="#5761d7"/></linearGradient><linearGradient id="Áåçûìÿííûé_ãðàäèåíò_24-6" x1="102.34" y1="-5.4" x2="203.41" y2="-5.4" gradientTransform="matrix(0.87, -0.5, 0, 1.15, 126.39, 349.04)" xlink:href="#Áåçûìÿííûé_ãðàäèåíò_24"/><radialGradient id="Áåçûìÿííûé_ãðàäèåíò_25" cx="235.59" cy="265.36" fx="196.20914108046952" fy="251.47138822843056" r="41.75" gradientUnits="userSpaceOnUse"><stop offset="0" stop-color="#2b237c"/><stop offset="1" stop-color="#180d5b"/></radialGradient><linearGradient id="Áåçûìÿííûé_ãðàäèåíò_24-7" x1="215.01" y1="278.48" x2="315.63" y2="278.48" xlink:href="#Áåçûìÿííûé_ãðàäèåíò_24"/><linearGradient id="Áåçûìÿííûé_ãðàäèåíò_3" x1="121.93" y1="11.61" x2="223.01" y2="11.61" gradientTransform="matrix(0.87, -0.5, 0, 1.15, 126.39, 349.04)" gradientUnits="userSpaceOnUse"><stop offset="0" stop-color="#c0bff6"/><stop offset="0.29" stop-color="#c5c4f7"/><stop offset="0.64" stop-color="#d3d2f9"/><stop offset="1" stop-color="#e9e9fd"/></linearGradient><linearGradient id="Áåçûìÿííûé_ãðàäèåíò_22-3" x1="158.53" y1="332.13" x2="226.28" y2="332.13" xlink:href="#Áåçûìÿííûé_ãðàäèåíò_22"/></defs><g class="cls-17"><polygon class="cls-18" points="195.3 326.7 65.8 252 195.3 177.2 324.8 252 195.3 326.7"/></g><g class="cls-17"><polygon class="cls-18" points="195.3 315.2 85.9 252 195.3 188.8 304.8 252 195.3 315.2"/></g><path class="cls-19" d="M195.3,315.7h-.2L84.9,252l110.4-63.8.3.2L305.8,252ZM86.9,252l108.4,62.6L303.8,252,195.3,189.4Z"/><g class="cls-20"><polygon class="cls-21" points="195.3 301.7 109.3 252 195.3 202.3 281.4 252 195.3 301.7"/></g><path class="cls-22" d="M195.3,281.8c-14.2,0-28.5-3.2-39.3-9.5s-16.3-14.1-16.3-22.6S145.5,233,156,227s24.5-9.4,39.3-9.4,28.9,3.3,39.4,9.4S251,241.1,251,249.7s-5.8,16.6-16.3,22.6S209.6,281.8,195.3,281.8Zm0-63.2c-14.7,0-28.5,3.3-38.8,9.2s-15.8,13.7-15.8,21.9,5.6,15.9,15.8,21.8c21.4,12.4,56.3,12.4,77.7,0,10.2-5.9,15.8-13.6,15.8-21.8s-5.6-16-15.8-21.9S210,218.6,195.3,218.6Z"/><g class="cls-17"><ellipse class="cls-23" cx="195.3" cy="249.7" rx="41.9" ry="24.2"/></g><path class="cls-24" d="M246.6,231.4V220.1h-3.9a34.4,34.4,0,0,0-11.1-9.6c-20-11.5-52.5-11.5-72.5,0a34.4,34.4,0,0,0-11.1,9.6h-3.9v11.3h0c0,7.6,5,15.2,15,21,20,11.5,52.5,11.5,72.5,0C241.6,246.6,246.6,239,246.6,231.4Z"/><ellipse class="cls-25" cx="195.3" cy="220.1" rx="51.3" ry="29.6"/><path class="cls-23" d="M242.7,219.6V204.1H239a32.2,32.2,0,0,0-10.2-8.8c-18.5-10.7-48.4-10.7-66.9,0a31.6,31.6,0,0,0-10.3,8.8H148v15.5h0c0,7,4.6,14,13.9,19.4,18.5,10.6,48.4,10.6,66.9,0C238.1,233.6,242.7,226.6,242.7,219.6Z"/><g class="cls-26"><path class="cls-27" d="M242.7,215.9V200.4H239a33.7,33.7,0,0,0-10.2-8.9c-18.5-10.6-48.4-10.6-66.9,0a33,33,0,0,0-10.3,8.9H148v15.5h0c0,7,4.6,14,13.9,19.3,18.5,10.7,48.4,10.7,66.9,0C238.1,229.9,242.7,222.9,242.7,215.9Z"/></g><ellipse class="cls-25" cx="195.3" cy="204.1" rx="47.3" ry="27.3"/><g class="cls-26"><path class="cls-28" d="M228,224.2c-8.2,10.4-18.9,15.9-28,18.9,10.5-.6,20.8-3.2,28.8-7.9s13.9-12.3,13.9-19.3v-4.6A47.2,47.2,0,0,0,228,224.2Z"/></g><path class="cls-29" d="M246.6,203.9V192.5h-3.9a35.7,35.7,0,0,0-11.1-9.6c-20-11.5-52.5-11.5-72.5,0a35.7,35.7,0,0,0-11.1,9.6h-3.9v11.4h0c0,7.5,5,15.1,15,20.9,20,11.5,52.5,11.5,72.5,0C241.6,219,246.6,211.4,246.6,203.9Z"/><ellipse class="cls-25" cx="195.3" cy="192.5" rx="51.3" ry="29.6"/><path class="cls-23" d="M242.7,191.5V176H239a32.4,32.4,0,0,0-10.2-8.9c-18.5-10.6-48.4-10.6-66.9,0a31.7,31.7,0,0,0-10.3,8.9H148v15.5h0c0,7,4.6,14,13.9,19.3,18.5,10.7,48.4,10.7,66.9,0C238.1,205.5,242.7,198.5,242.7,191.5Z"/><g class="cls-26"><path class="cls-27" d="M242.7,187.9V172.4H239a32.2,32.2,0,0,0-10.2-8.8c-18.5-10.7-48.4-10.7-66.9,0a31.6,31.6,0,0,0-10.3,8.8H148v15.5h0c0,7,4.6,14,13.9,19.4,18.5,10.6,48.4,10.6,66.9,0C238.1,201.9,242.7,194.9,242.7,187.9Z"/></g><ellipse class="cls-25" cx="195.3" cy="176" rx="47.3" ry="27.3"/><g class="cls-26"><path class="cls-28" d="M228,194.6c-10.2,12.9-24.3,18.3-34.3,20.6,12.7.3,25.5-2.4,35.1-7.9s13.9-12.4,13.9-19.4v-6.3A49.1,49.1,0,0,0,228,194.6Z"/></g><path class="cls-30" d="M246.6,175.7V164.3h-3.9a35.5,35.5,0,0,0-11.1-9.5c-20-11.6-52.5-11.6-72.5,0a35.5,35.5,0,0,0-11.1,9.5h-3.9v11.4h0c0,7.6,5,15.2,15,20.9,20,11.6,52.5,11.6,72.5,0C241.6,190.9,246.6,183.3,246.6,175.7Z"/><ellipse class="cls-25" cx="195.3" cy="164.3" rx="51.3" ry="29.6"/><path class="cls-23" d="M242.7,163.3V147.8H239a32.2,32.2,0,0,0-10.2-8.8c-18.5-10.7-48.4-10.7-66.9,0a31.6,31.6,0,0,0-10.3,8.8H148v15.5h0c0,7,4.6,14,13.9,19.4,18.5,10.6,48.4,10.6,66.9,0C238.1,177.3,242.7,170.3,242.7,163.3Z"/><g class="cls-26"><path class="cls-27" d="M242.7,159V143.5H239a33.7,33.7,0,0,0-10.2-8.9c-18.5-10.6-48.4-10.6-66.9,0a33,33,0,0,0-10.3,8.9H148V159h0c0,7,4.6,14,13.9,19.3,18.5,10.7,48.4,10.7,66.9,0C238.1,173,242.7,166,242.7,159Z"/></g><ellipse class="cls-25" cx="195.3" cy="147.8" rx="47.3" ry="27.3"/><path class="cls-31" d="M246.6,147.6V136.2h-3.9a35.7,35.7,0,0,0-11.1-9.6c-20-11.5-52.5-11.5-72.5,0a35.7,35.7,0,0,0-11.1,9.6h-3.9v11.4h0c0,7.5,5,15.1,15,20.9,20,11.5,52.5,11.5,72.5,0C241.6,162.7,246.6,155.1,246.6,147.6Z"/><ellipse class="cls-25" cx="195.3" cy="136.2" rx="51.3" ry="29.6"/><ellipse class="cls-25" cx="195.3" cy="136.2" rx="51.3" ry="29.6"/><g class="cls-26"><path class="cls-28" d="M228,165c-11.2,14.2-27.1,19.3-37.1,21.2,13.6.7,27.5-1.9,37.9-7.9S242.7,166,242.7,159v-7A49.1,49.1,0,0,0,228,165Z"/></g><path class="cls-31" d="M246.6,147.6V136.2h-3.9a35.7,35.7,0,0,0-11.1-9.6c-20-11.5-52.5-11.5-72.5,0a35.7,35.7,0,0,0-11.1,9.6h-3.9v11.4h0c0,7.5,5,15.1,15,20.9,20,11.5,52.5,11.5,72.5,0C241.6,162.7,246.6,155.1,246.6,147.6Z"/><ellipse class="cls-25" cx="195.3" cy="136.2" rx="51.3" ry="29.6"/><ellipse class="cls-25" cx="195.3" cy="136.2" rx="51.3" ry="29.6"/><path class="cls-32" d="M231.6,156.2c-20,11.6-52.5,11.6-72.5,0-9.8-5.7-14.8-13.1-15-20.5-.2,7.8,4.8,15.5,15,21.4,20,11.6,52.5,11.6,72.5,0,10.2-5.9,15.2-13.6,15-21.4C246.4,143.2,241.4,150.5,231.6,156.2Z"/><g class="cls-26"><path class="cls-33" d="M224.2,179.4c-3.5,1.3-6,1-5.8-.8s3.3-4.4,6.8-5.8,6-1,5.7.8S227.6,178,224.2,179.4Z"/></g><g class="cls-26"><path class="cls-33" d="M224.2,207.9c-3.5,1.4-6,1-5.8-.8s3.3-4.4,6.8-5.7,6-1,5.7.8S227.6,206.6,224.2,207.9Z"/></g><g class="cls-26"><path class="cls-33" d="M224.4,236.7c-3.5,1.3-6,1-5.8-.9s3.3-4.3,6.8-5.7,6-1,5.7.8S227.8,235.3,224.4,236.7Z"/></g><g class="cls-26"><path class="cls-33" d="M234,172.2c-.8.6-1.8.6-2.2-.1s-.2-1.5.6-2.1,1.9-.6,2.3,0A1.7,1.7,0,0,1,234,172.2Z"/></g><g class="cls-26"><path class="cls-33" d="M234,200.9a1.5,1.5,0,0,1-2.2-.1,1.5,1.5,0,0,1,.6-2.1c.8-.6,1.9-.6,2.3,0A1.8,1.8,0,0,1,234,200.9Z"/></g><g class="cls-26"><path class="cls-33" d="M234,229.5a1.5,1.5,0,0,1-2.2-.1,1.6,1.6,0,0,1,.6-2.2c.8-.5,1.9-.5,2.3.1A1.8,1.8,0,0,1,234,229.5Z"/></g><path class="cls-34" d="M207.9,121.3c-6.9,4-18.2,4-25.1,0-3.3-1.9-5-4.4-5.2-6.9v.3c0,2.6,1.8,5.2,5.2,7.2,6.9,4,18.2,4,25.1,0,3.6-2.1,5.3-4.8,5.1-7.5C212.9,116.9,211.2,119.4,207.9,121.3Z"/><g class="cls-35"><path class="cls-36" d="M262.1,111.9l-.5-.3c-1.7-1-3.1.1-3.1,2.4V251.2a7.6,7.6,0,0,0,3.1,6l.5.3c1.7,1,3.2-.1,3.2-2.4V117.9A7.7,7.7,0,0,0,262.1,111.9Z"/></g><g class="cls-37"><path class="cls-38" d="M274.9,141.1l-.5-.3c-1.8-1-3.2.1-3.2,2.4V258.5a7.5,7.5,0,0,0,3.2,6.1l.5.3c1.7,1,3.1-.1,3.1-2.4V147.2A7.6,7.6,0,0,0,274.9,141.1Z"/></g><g class="cls-39"><path class="cls-40" d="M287.6,175.6l-.4-.2c-1.8-1.1-3.2,0-3.2,2.4V221a7.4,7.4,0,0,0,3.2,6l.4.3c1.8,1,3.2-.1,3.2-2.4V181.7C290.8,179.4,289.4,176.6,287.6,175.6Z"/></g><g class="cls-41"><path class="cls-42" d="M300.3,194.6l-.5-.3c-1.7-1-3.1.1-3.1,2.4v16.6a7.6,7.6,0,0,0,3.1,6l.5.3c1.8,1,3.2-.1,3.2-2.4V200.6A7.4,7.4,0,0,0,300.3,194.6Z"/></g><g class="cls-43"><path class="cls-44" d="M128.6,111.9l.5-.3c1.7-1,3.1.1,3.1,2.4V251.2a7.6,7.6,0,0,1-3.1,6l-.5.3c-1.8,1-3.2-.1-3.2-2.4V117.9A7.4,7.4,0,0,1,128.6,111.9Z"/></g><g class="cls-45"><path class="cls-46" d="M115.8,141.1l.5-.3c1.7-1,3.2.1,3.2,2.4V258.5a7.7,7.7,0,0,1-3.2,6.1l-.5.3c-1.7,1-3.2-.1-3.2-2.4V147.2A7.7,7.7,0,0,1,115.8,141.1Z"/></g><g class="cls-47"><path class="cls-48" d="M103,175.6l.5-.2c1.8-1.1,3.2,0,3.2,2.4V221a7.4,7.4,0,0,1-3.2,6l-.5.3c-1.7,1-3.1-.1-3.1-2.4V181.7C99.9,179.4,101.3,176.6,103,175.6Z"/></g><g class="cls-49"><path class="cls-50" d="M90.4,194.6l.4-.3c1.8-1,3.2.1,3.2,2.4v16.6a7.4,7.4,0,0,1-3.2,6l-.4.3c-1.8,1-3.2-.1-3.2-2.4V200.6A7.4,7.4,0,0,1,90.4,194.6Z"/></g><path class="cls-51" d="M236.4,331.3a4.6,4.6,0,0,1-2.3-.6l-17.5-10.1a2.1,2.1,0,0,1-1.2-1.7,1.7,1.7,0,0,1,.9-1.4l84.3-48.6a4.5,4.5,0,0,1,4.2.1l17.5,10.1a2.4,2.4,0,0,1,1.2,1.7,2,2,0,0,1-.9,1.4l-84.3,48.6A3.8,3.8,0,0,1,236.4,331.3Zm66-61.8a2.8,2.8,0,0,0-1.3.3l-84.3,48.7a.4.4,0,0,0-.3.4c0,.2.1.5.6.7l17.5,10.2a3.7,3.7,0,0,0,3.1.1L322,281.2a.4.4,0,0,0,.4-.4,1,1,0,0,0-.6-.7l-17.6-10.2A4.8,4.8,0,0,0,302.4,269.5Z"/><path class="cls-52" d="M288.4,240.6a24.8,24.8,0,0,0-6.1,5.2c-2.6-8.3-10.5-10.9-19.9-5.5-7.7,4.5-14.4,13.3-18,22.6a7.9,7.9,0,0,0-3.9,1.2c-5,2.9-9.1,10-9.1,15.8v.4a12.1,12.1,0,0,0-4.7,1.5c-6.5,3.8-11.7,12.8-11.7,20.3s5.2,10.5,11.7,6.7l61.7-35.6c7.8-4.5,14.1-15.5,14.1-24.4S296.2,236.1,288.4,240.6Z"/><path class="cls-53" d="M288.4,240.6a43.3,43.3,0,0,0-3.7,2.7l-6.9-4h0c-3.8-2.6-9.3-2.5-15.4,1-7.7,4.5-14.4,13.3-18,22.6a7.9,7.9,0,0,0-3.9,1.2c-5,2.9-9.1,10-9.1,15.8v.4a12.1,12.1,0,0,0-4.7,1.5c-6.5,3.8-11.7,12.8-11.7,20.3,0,3.7,1.3,6.3,3.4,7.5h0l17,9.9,3.6-17.8,49.4-28.5c7.8-4.5,14.1-15.5,14.1-24.4S296.2,236.1,288.4,240.6Z"/><path class="cls-54" d="M315.6,249.6l-17.1-9.9h0c-2.6-1.6-6.1-1.4-10.1.9a43.3,43.3,0,0,0-3.7,2.7l-6.9-4h0c-3.8-2.6-9.3-2.5-15.4,1-7.7,4.5-14.4,13.3-18,22.6a7.9,7.9,0,0,0-3.9,1.2c-5,2.9-9.1,10-9.1,15.8v.4a12.1,12.1,0,0,0-4.7,1.5c-6.5,3.8-11.7,12.8-11.7,20.3,0,3.7,1.3,6.3,3.4,7.5h0l17,9.9,3.6-17.8,49.4-28.5c6.4-3.7,11.7-11.5,13.5-19.2Z"/><path class="cls-55" d="M305.4,250.5a22.9,22.9,0,0,0-6.2,5.2c-2.6-8.3-10.5-10.9-19.8-5.5-7.7,4.4-14.5,13.2-18,22.5a7.9,7.9,0,0,0-3.9,1.2c-5.1,3-9.2,10-9.2,15.9,0,.1.1.2.1.3a10.1,10.1,0,0,0-4.7,1.6c-6.5,3.7-11.7,12.8-11.7,20.2s5.2,10.5,11.7,6.8L305.4,283c7.8-4.5,14.1-15.4,14.1-24.4S313.2,246,305.4,250.5Z"/><polygon class="cls-56" points="158.5 321.7 159.2 320.9 196.9 342.2 225.7 324.9 226.3 325.8 197.1 343.4 158.5 321.7"/><g id="Character"><path id="Shadow" class="cls-57" d="M198.3,139.2c-12.6,6.3-18.3,12.8-11.8,17.4s24.2,10.9,24.2,10.9l2.3,7.8,25.7-14.9v-8.8s-15.9-10.9-22-13S205.6,135.6,198.3,139.2Z"/><g id="Character-2" data-name="Character"><path class="cls-58" d="M233.7,179s-3.9,9.5-4.1,13.2-1.1,5.2-.5,9.5c.2.9.6,2.8.8,3.5a1.2,1.2,0,0,1-1,1.4c-1.7.3-4.5-2.8-5.9-6.3a108,108,0,0,1-3.3-12.2,4.4,4.4,0,0,1,.5-2.8,7.2,7.2,0,0,1,.8-1.4c.5-1.7.8-4.9,1.3-7.1Z"/><path class="cls-59" d="M216.3,191.6a3.9,3.9,0,0,0-.4,1.3c-.1.8,1.7,3.4,2.4,4.3a6.1,6.1,0,0,1,1.3,4.4,11,11,0,0,0,2.6,7,17.7,17.7,0,0,0,8.5,5.6c4.1,1.2,5.6-.8,5.6-.8s1.2-2,.5-2.8Z"/><path class="cls-60" d="M221,183.9c-.2,0-.4,0-.7.4s-.9,2-1.5,2.9-2.2,2.9-2.5,4.4c1,3.1,3.9,5.2,4.3,8.1s.5,6.2,4.9,9.7,9,3.9,10.6,3,1.5-2.7-.8-6-4-11.2-4-11.3a16.4,16.4,0,0,1-.5-3.2,31.6,31.6,0,0,1,.3-3.2,1.9,1.9,0,0,0-.2-1.5,2.3,2.3,0,0,0-1.2-.9,8.8,8.8,0,0,0-2.3-.7,3.1,3.1,0,0,0-2.3.3c-.5.2-.9.7-1.5.9a2,2,0,0,1-2.1-.4,1.6,1.6,0,0,1-.6-2Z"/><path class="cls-61" d="M222.9,206.6a7,7,0,0,1,6.4-3.5c4.7.1,6.3,2.5,7.1,3.9s1.7,4.7-.2,5.5-4.6.7-8.4-1.2A10.1,10.1,0,0,1,222.9,206.6Z"/><path class="cls-61" d="M223.8,192.5h.4c.7-.4,4.6-1.2,6.8.9.3-.3.2-.7-.1-1.3-2.7-1.7-6.3-.9-7.2-.5a.6.6,0,0,0-.2.7Z"/><path class="cls-61" d="M231.5,196.1a1.8,1.8,0,0,0-.3-1.3,8.9,8.9,0,0,0-6.8-.3.6.6,0,0,0-.2.7.2.2,0,0,1,.2.2h.5C225.6,195,229.2,194.2,231.5,196.1Z"/><path class="cls-61" d="M233.4,202.4a3.2,3.2,0,0,0-.6-1.7,9.1,9.1,0,0,0-7-.4c-.3.2-.3.4-.2.7l.2.2h.4C227,200.8,231.2,199.9,233.4,202.4Z"/><path class="cls-61" d="M225.1,198.3h.5c.7-.4,4.4-1.2,6.7.8a1.6,1.6,0,0,0-.4-1.4,8.9,8.9,0,0,0-6.8-.3.6.6,0,0,0-.2.7Z"/><path class="cls-58" d="M237.9,190.6s1.9,11.6,4,16.1,3.2,6.7,6.2,10.1l2.6,2.7a1.1,1.1,0,0,1-.1,1.8c-1.3,1.3-6.9,1.6-10-.8s-5.9-7.3-7.8-9.2l-1.9-2.1c-.7-.8-.5-1.5-.5-2.3a7.2,7.2,0,0,1,0-1.5c-.4-2-1.6-5-2.2-6.9Z"/><path class="cls-59" d="M229.3,214.2a3.7,3.7,0,0,0,.1,1.4c.3.7,3.2,2.4,4.2,2.9a6.4,6.4,0,0,1,3.2,3.7,10.9,10.9,0,0,0,5.6,5.4,18.3,18.3,0,0,0,10.5,1.5c4.5-.7,5-3.3,5-3.3s.3-2.4-.8-2.8S229.3,214.2,229.3,214.2Z"/><path class="cls-60" d="M230.2,204.8c-.1,0-.3.1-.4.6s0,2.3-.1,3.5-.9,3.7-.4,5.3c2.3,2.4,5.9,3.2,7.6,5.7s3.2,5.7,9,7,10.2-.3,11.4-1.9.2-3.2-3.5-5.4-8.8-8.8-8.8-8.8a29,29,0,0,1-1.9-2.9,23.9,23.9,0,0,1-1.1-3.2,2.4,2.4,0,0,0-.9-1.3,3.6,3.6,0,0,0-1.5-.2,10.1,10.1,0,0,0-2.5.3,3.6,3.6,0,0,0-2.1,1.3c-.4.5-.6,1.1-1,1.5a2,2,0,0,1-2.2.6,1.8,1.8,0,0,1-1.4-1.6C230.3,205.3,230.2,204.8,230.2,204.8Z"/><path class="cls-61" d="M242.2,225.4a7.3,7.3,0,0,1,4.5-6.1c4.5-2.1,7.1-.6,8.4.4s3.7,3.7,2.3,5.4-4,2.6-8.5,2.5A10.7,10.7,0,0,1,242.2,225.4Z"/><path class="cls-61" d="M236.7,211.6a.4.4,0,0,0,.4-.2c.5-.6,3.8-3.1,6.8-2.2.2-.3,0-.7-.7-1.1a8.6,8.6,0,0,0-6.9,2.8.4.4,0,0,0,.1.6Z"/><path class="cls-61" d="M245.6,211.6a1.5,1.5,0,0,0-.8-1.1,9.1,9.1,0,0,0-6.6,2.8.6.6,0,0,0,.1.7h.3l.4-.2C239.5,213.2,242.6,210.9,245.6,211.6Z"/><path class="cls-61" d="M250.3,216.8a3.2,3.2,0,0,0-1.4-1.4,9.2,9.2,0,0,0-6.8,2.8.5.5,0,0,0,.1.7h.3l.4-.2C243.5,218,247.1,215.3,250.3,216.8Z"/><path class="cls-61" d="M240.6,216.5l.4-.2c.5-.7,3.7-3.1,6.7-2.2a1.5,1.5,0,0,0-1-1.1,9.2,9.2,0,0,0-6.5,2.7c-.2.3-.2.6.1.7Z"/><path class="cls-62" d="M212.3,124.6c4.7,3.5,21.3,13.1,28,19.3,1.9,1.8,2.6,4.2,2.1,9.3-.6,7-6.1,30.9-6.1,30.9s-2.1-1.3-2.1-1.3l-26.3-33.2Z"/><path class="cls-63" d="M212.3,124.6c4.7,3.5,21.3,13.1,28,19.3,1.9,1.8,2.6,4.2,2.1,9.3-.6,7-6.1,30.9-6.1,30.9s-2.1-1.3-2.1-1.3l-26.3-33.2Z"/><path class="cls-63" d="M235.1,176.6c-6-5-25.7-36-25.7-36h.1c2.6-2.2,4-10.1,4-10.1,1.1,3.1-.1,7.6-.9,9.3l16.3,13.3a8.3,8.3,0,0,1,3.6,5.4C233.8,165.1,235.3,175.3,235.1,176.6Z"/><path class="cls-62" d="M212.3,124.6h0l-33.8,7.5c1.7,6.2,2.1,9.4,3.9,12.7s3.6,6.7,12.4,11.1,18.8,8.4,20.8,9.4,2.3,3.8,3,7.9.8,7.5,5,16.4l5,10.6s6.3.6,10.5-3.1c0,0-5.7-29.8-7-35.2-.6-3-.7-4.5-4.4-7.8s-17.4-13.6-17.4-13.6S215.9,132.8,212.3,124.6Z"/><path class="cls-63" d="M212.3,124.6h0l-33.8,7.5c1.7,6.2,2.1,9.4,3.9,12.7s3.6,6.7,12.4,11.1,18.8,8.4,20.8,9.4,2.3,3.8,3,7.9.8,7.5,5,16.4l5,10.6s6.3.6,10.5-3.1c0,0-5.7-29.8-7-35.2-.6-3-.7-4.5-4.4-7.8s-17.4-13.6-17.4-13.6S215.9,132.8,212.3,124.6Z"/><path class="cls-58" d="M251.1,68.5a3.3,3.3,0,0,0-1.7.4L247.7,70l-2.6,1.8a8.2,8.2,0,0,1-2.5,1.2c-.3,0-1,0-.7-.4a16.2,16.2,0,0,0,1.3-1.9,2.8,2.8,0,0,0,.2-2.2.9.9,0,0,0-.4-.6c-.3-.1-.5.1-.7.3l-.5.5-1.3,1.1c-2.4,2.2-5.4,4.2-6.4,7.3a17.5,17.5,0,0,0-.9,6.1c0,3.5-.2,15.7-.2,15.7L219.1,87.2c-2-1.7-4.8-3.7-8-4l-3.4-.2,6.6,16s12.4,9.3,18.4,12.5,8,.8,8.7-.7,2.2-3.7.7-17.7c-.2-1.1-.3-4.2-.4-5.3s.1-4.5,1-5a23.9,23.9,0,0,0,4.5-3.1,11.2,11.2,0,0,0,2.5-2.8,7.1,7.1,0,0,0,.8-1.5,4.3,4.3,0,0,1,0-1.6,10.4,10.4,0,0,1,.4-1,6.5,6.5,0,0,1,.6-2.4c.3-.3.7-.7.7-1.1a1,1,0,0,0-.8-.7Z"/><path class="cls-64" d="M241.2,74.6a10.6,10.6,0,0,1-2.5,5.1,6,6,0,0,0,2.1-2.2C241.5,76,241.5,75.3,241.2,74.6Z"/><path class="cls-62" d="M207,82.7c3.4.1,6,.2,8.8,1.9s15.7,12.3,15.7,12.3.2-5.4.5-8.3.6-2.6,1.2-2.5,1.1,1.7,4.2,1.9,4.3-1,4.3-1,.9-.3,1.2,1,.9,15.3.3,19.3-2.3,5.9-4.7,6.5-8.1-2.9-14.8-7.4-14-8.7-14-8.7Z"/><path class="cls-65" d="M207,82.7c3.4.1,6,.2,8.8,1.9s15.7,12.3,15.7,12.3.2-5.4.5-8.3.6-2.6,1.2-2.5,1.1,1.7,4.2,1.9,4.3-1,4.3-1,.9-.3,1.2,1,.9,15.3.3,19.3-2.3,5.9-4.7,6.5-8.1-2.9-14.8-7.4-14-8.7-14-8.7Z"/><path class="cls-66" d="M231.5,96.9a28.4,28.4,0,0,0,.3,7.9s-2.4-4.8-1.7-9.1Z"/><path class="cls-61" d="M179.3,85.6c-.6,3-6.1,30.9.2,51.8,11.5,1.3,31.6-3.9,34.6-11.5,0,0-2-7.2-2.9-10.7.2-5.8,0-16.8-.1-20.2-.3-6.7-1.3-12-4.7-12.5,0,0-6.7-.2-10.8-.1l-6.1.2Z"/><path class="cls-67" d="M196.1,130.1c-.7-1.7-14.3-10.1-14.3-10.1s.2-3.8,1-11,1.1-15.7-1.5-20h-2.6c-1.5,8.6-4.5,30.9.8,48.3,6.1.7,14.7-.5,21.8-2.8C200,133.7,196.7,131.4,196.1,130.1Z"/><path class="cls-60" d="M188.3,76.1c0-1.5-2.8-5.8-4-9.2-2.1-5.7-2.3-10.9,2.9-13.1,0,0,3.2-5.6,11.4-5.9s14.4,6.7,11.7,15.9Z"/><path class="cls-58" d="M190.3,67.2c-1.1,0-1.4-1.5-2.2-2.3a3.2,3.2,0,0,0-4.9.6c-1.5,2.2,0,5.3,1.6,6.5a2.7,2.7,0,0,0,3.6.1l-.2,11.5s.3,2.6,5,4.1,9.9-1.2,6.7-4.8v-3a18.7,18.7,0,0,0,5.3.3c1.8-.3,3.2-1.7,4.2-4.5,1.8-5.4,1.3-12.7-.6-19.4-1.8,1.5-10.1,4.1-17.6,1.5C191.6,62.4,191.4,67.2,190.3,67.2Z"/><path class="cls-59" d="M187.4,70.8a.8.8,0,0,1-.7.7.7.7,0,1,1,0-1.4A.8.8,0,0,1,187.4,70.8Z"/><path class="cls-64" d="M200,79.9s-4.5-1.3-6.3-2.6a7.9,7.9,0,0,1-2.8-3.2,12.3,12.3,0,0,0,1.9,3.9c2.2,2.4,7.1,3.6,7.1,3.6Z"/><path class="cls-59" d="M199.6,67.2a1.1,1.1,0,1,1-2.2,0,1.2,1.2,0,0,1,1.1-1.2A1.1,1.1,0,0,1,199.6,67.2Z"/><path class="cls-59" d="M198.4,63.3,196,64.6a1.4,1.4,0,0,1,.6-1.9A1.3,1.3,0,0,1,198.4,63.3Z"/><path class="cls-64" d="M199.3,73.1l3.9,1.3a2.3,2.3,0,0,1-2.7,1.3A2,2,0,0,1,199.3,73.1Z"/><path class="cls-59" d="M208.9,63.3l-2.7-.8a1.3,1.3,0,0,1,1.6-1A1.6,1.6,0,0,1,208.9,63.3Z"/><path class="cls-59" d="M208.2,66.3a1.2,1.2,0,0,1-1.1,1.2,1.2,1.2,0,0,1-1.2-1.2,1.2,1.2,0,0,1,1.1-1.2A1.2,1.2,0,0,1,208.2,66.3Z"/><path class="cls-68" d="M209.4,56.3c2.5-1.8,3.9-4.2,3.3-7.4-1,.9-3.8,1.1-6.2,0a18.2,18.2,0,0,0-12.3-1.8c-4.4.8-7,4.2-7,6.7s2,2.7,4.1,4A16.5,16.5,0,0,0,202,60.9a10.6,10.6,0,0,0,6.3-2.3,7,7,0,0,1-3.4-.5A11.7,11.7,0,0,0,209.4,56.3Z"/><polygon class="cls-64" points="203.3 71.7 206.8 70.1 202.3 64 203.3 71.7"/><g id="Laptop"><path class="cls-57" d="M241.4,145.1l-1.1-1.2c-4-3.7-11.6-8.7-18.1-12.8L192.9,148a.3.3,0,0,0,0,.5l21.3,12.3Z"/><path class="cls-68" d="M250.2,136.5v.5a2,2,0,0,1-.9,1.7l-34.1,19.7-1,.2-1-.2-18.5-10.7a2.1,2.1,0,0,1-1-1.7v-.7h0c0,.1,0,.2.1.2l20.4,11.8Z"/><path class="cls-59" d="M214.2,157.3v1.3l1-.2,34.1-19.7a2,2,0,0,0,.9-1.7v-.5Z"/><path class="cls-60" d="M250.2,136.5,230,124.9a.8.8,0,0,0-1.1,0l-35.1,20.2a.2.2,0,0,0,0,.4l20.4,11.8Z"/><polygon class="cls-68" points="214 155.6 203.1 149.3 235 130.9 246 137.2 214 155.6"/><polygon class="cls-59" points="246 137.2 245.5 137.4 235 131.4 203.5 149.6 203.1 149.3 235 130.9 246 137.2"/><polygon class="cls-59" points="208.7 138.1 208.9 138.2 214.2 141.3 223.7 135.8 223.9 135.7 218.4 132.5 208.7 138.1"/><polygon class="cls-68" points="208.9 138.2 214.2 141.3 223.7 135.8 218.4 132.8 208.9 138.2"/><g id="Arm"><path class="cls-58" d="M219,141.9c-1.5-1.5-3.7-3.6-5.6-4.2l-1.3-.4,1.9-.4a2.9,2.9,0,0,0,1.6-1.1.5.5,0,0,0,.1-.7h-.3c-1.4,0-2.5-.2-3.7-.3H210l-1.6.5a12.1,12.1,0,0,1-7.7.7l-5.9-3.1s-1.3-.3-3.1,2.8-.8,4.9-.8,4.9l6.6,2.3h.1a17.9,17.9,0,0,0,3.2,1.4c2,.6,4.7-.1,6.5-.2a18.5,18.5,0,0,1,6.5,1.4c1.6.7,3.6-1.9,4.5-1.6S220.5,143.5,219,141.9Z"/><path class="cls-64" d="M211.3,136.3a6.6,6.6,0,0,0-2.5.4,11.6,11.6,0,0,1,3.3.6l1.9-.4a3.8,3.8,0,0,0,1.5-.9C214.5,136.7,212.5,136.4,211.3,136.3Z"/><path class="cls-62" d="M179.3,85.6c1.7.7,3.9,7.7,2.5,14.4l-3.1,21.1s3.8,2.2,9.2,5.6c3.7,2.3,6.9,4.4,6.9,6.1-2.4.9-4.6,5.4-3.9,7.7-1.6,2-17-6.5-22.4-10.2-2.5-1.7-3.7-2.4-2.8-10.1s1.8-18,3.5-24.3S172.8,86.8,179.3,85.6Z"/><path class="cls-65" d="M179.3,85.6c1.7.7,3.9,7.7,2.5,14.4l-3.1,21.1s3.8,2.2,9.2,5.6c3.7,2.3,6.9,4.4,6.9,6.1-2.4.9-4.6,5.4-3.9,7.7-1.6,2-17-6.5-22.4-10.2-2.5-1.7-3.7-2.4-2.8-10.1s1.8-18,3.5-24.3S172.8,86.8,179.3,85.6Z"/></g><path class="cls-68" d="M214.8,157.6a2.4,2.4,0,0,0,2-.1l33.9-19.6a2.5,2.5,0,0,0,1.1-1.6l3.7-22.2v-.4a2.4,2.4,0,0,0-.7-1.6l-35.3,20.3a2,2,0,0,0-.8,1.2Z"/><path class="cls-60" d="M214.2,157.3l.2.2h.4l4-24a2,2,0,0,1,.8-1.2l35.3-20.3-.5-.4-35.3,20.4a1.8,1.8,0,0,0-.9,1.2Z"/><path class="cls-59" d="M219.1,132.9l-.5-.3a1.6,1.6,0,0,0-.4.7l-4,24,.2.2h.4l4-24A1.1,1.1,0,0,1,219.1,132.9Z"/><path class="cls-62" d="M233.9,137.2a7.2,7.2,0,0,1,3.4-4.4c1.6-1,2.8-.6,2.5.9a7.2,7.2,0,0,1-3.4,4.4C234.8,139.1,233.6,138.6,233.9,137.2Z"/></g></g></g><path class="cls-32" d="M79.2,86.2c.1-.2.2-.3.2-.4l3.6-8a2.5,2.5,0,0,1,3.3-1.7h.1c1.4.3,1.8.7,1.8,2.1V88H85.7V78h-.2c0,.1-.1.2-.1.4-1.3,2.7-2.5,5.4-3.7,8.1s-2.3,1.8-3.6,1.4a1.4,1.4,0,0,1-1-1l-2.6-5.6-1.3-3L73,78h-.1V88H70.4v-.5c0-3,.1-6.1,0-9.2s.6-2,2.1-2.3a3.1,3.1,0,0,1,1.9.2,2.6,2.6,0,0,1,1.1,1.4L79,85.7C79.1,85.8,79.1,86,79.2,86.2Z"/><path class="cls-32" d="M131.1,89.7h-2.7l-.4-.2-1.4-1.2a1,1,0,0,0-1-.4h-4.8a4.8,4.8,0,0,1-2.1-.7,2.4,2.4,0,0,1-1.2-2.1v-6a2.5,2.5,0,0,1,1.8-2.6,7.8,7.8,0,0,1,2.2-.3h4.9a6,6,0,0,1,2.3.6,2.2,2.2,0,0,1,1.4,2.1v6.4a2.2,2.2,0,0,1-1.2,2.1h-.3Zm-8.7-5.2h2.5l.6.2,1.4,1.2q.3.4.6,0c.1-.3.4-.6.4-.9V79.2a1.2,1.2,0,0,0-.8-1.1l-1-.2a28.1,28.1,0,0,0-4.1,0l-1.1.2a1.1,1.1,0,0,0-.7,1.1V85a1.3,1.3,0,0,0,.8,1.2,9.8,9.8,0,0,0,3.4.2h0Z"/><path class="cls-32" d="M146.7,73.8l-4.3.9c.2.3.3.5.5.6l1.2.9a10.4,10.4,0,0,1,2.6,2.1l.9,1.2h-.2a9.6,9.6,0,0,0-3.2-2,7.1,7.1,0,0,1-2.7-2.1,3.5,3.5,0,0,1-.5-.8c-.2-.3-.1-.5.2-.6a11.6,11.6,0,0,1,3.7-.7h.5l-.3-.4c-1.7-1.2-3.2-2.5-5.2-2.9a2.1,2.1,0,0,1-1.6-1.3c-.8-1.7-1.7-3.5-2.4-5.3a18.3,18.3,0,0,0-2.8-4.4,17.9,17.9,0,0,0-5.6-4.2,7.1,7.1,0,0,0-2.9-.5,1.9,1.9,0,0,1-.9-.4,11.4,11.4,0,0,0-2.9-1.5h-.5c-.4,0-.7.3-.5.7a2.7,2.7,0,0,0,.6,1.2,10.7,10.7,0,0,1,2.3,4.5,6.7,6.7,0,0,0,1.6,3,.8.8,0,0,1,.3.9c-.2.7-.5,1.4-.7,2.1a8.1,8.1,0,0,0,.6,5.1,1.6,1.6,0,0,0,.6.8c.2.3.4.2.4-.2a8.8,8.8,0,0,0,.2-1.6,3.6,3.6,0,0,1,1.3-2.3,25.5,25.5,0,0,0,3.9,7l-1.5-1.3a10.7,10.7,0,0,1-1.4-1.6,17.4,17.4,0,0,0-1.1-1.8,6.8,6.8,0,0,1-.2,1.4,1.9,1.9,0,0,1-.2.8,1,1,0,0,1-1.6.6,7.6,7.6,0,0,1-.9-.9,6.3,6.3,0,0,1-1-3,12.6,12.6,0,0,1,.7-5.1.6.6,0,0,0-.1-.4,8.3,8.3,0,0,1-1.6-2.9l-.6-2a10.9,10.9,0,0,0-1.4-2.3,5.4,5.4,0,0,1-1-1.6,1.5,1.5,0,0,1,1.6-2.1,7.2,7.2,0,0,1,3.5,1.4,1.7,1.7,0,0,0,1.3.5,7.6,7.6,0,0,1,3.6,1.1,18.8,18.8,0,0,1,7.1,6.9c.6,1,.9,2.1,1.4,3.1l1.8,3.8a1.4,1.4,0,0,0,1,.8,18,18,0,0,1,5.5,3.6l.9,1.1Z"/><path class="cls-32" d="M90.4,91.6V89.9h7.8l1.1-.2a.8.8,0,0,0,.6-.9v-.9H94.3a5.5,5.5,0,0,1-2.8-.7,2.1,2.1,0,0,1-1.2-2.1c.1-1.7,0-3.5,0-5.3h2.5V85c0,1,.4,1.4,1.4,1.4h5.3c.4.1.5-.1.5-.4V80.1c0-.1.1-.3.2-.3h2.3v8.8a2.6,2.6,0,0,1-1.7,2.5,5.4,5.4,0,0,1-2.2.5H90.4Z"/><path class="cls-32" d="M111.7,76.2h3.8c.3,0,.4.1.4.5v.8c0,.3-.1.4-.4.3h-7c-.1,0-.2,0-.2.1s-1.3.3-1.3,1.3v.5c0,1.1.4,1.6,1.6,1.6h3.6a5.5,5.5,0,0,1,2.8.9,1.9,1.9,0,0,1,.8,1.6v1.5a2.1,2.1,0,0,1-.9,1.8,4.9,4.9,0,0,1-2.8.9h-7.2c-.3,0-.4-.1-.4-.4v-.8c0-.4.1-.4.4-.4h6.9c.9-.2,1.6-.5,1.5-1.7v-.5c0-.8-.3-1.2-1.1-1.3h-1l-3.9-.2a3.2,3.2,0,0,1-2.2-1,1.3,1.3,0,0,1-.5-1.2V78.9a2.3,2.3,0,0,1,1.6-2.3,6.4,6.4,0,0,1,2-.3Z"/><path class="cls-32" d="M131.9,80.8c0-1.4,0-2.8-.1-4.2s.1-.4.5-.4h1.6c.3,0,.4.1.4.5v7.9c0,1.3.4,1.7,1.7,1.7h6.6c.5,0,.5,0,.5.5s.1.8-.1,1-.6.1-1,.1h-5.6a10.4,10.4,0,0,1-2.9-.5,2.6,2.6,0,0,1-1.6-2.6Z"/><path class="cls-32" d="M146.3,84.4a1.8,1.8,0,0,1,1.8,1.9,1.8,1.8,0,0,1-1.8,1.8,1.8,1.8,0,0,1-1.9-1.9A1.8,1.8,0,0,1,146.3,84.4Zm-.1,3.4a1.6,1.6,0,0,0,1.6-1.6,1.5,1.5,0,0,0-1.5-1.5,1.6,1.6,0,0,0-1.6,1.6A1.5,1.5,0,0,0,146.2,87.8Z"/><path class="cls-32" d="M124.7,56.3c.7-.1,1.1,0,1.3.6a.9.9,0,0,1-.2,1.1Z"/></svg>