<svg id="Layer_1" data-name="Layer 1" xmlns="http://www.w3.org/2000/svg" viewBox="0 0 400 400"><defs><style>.cls-1{opacity:0.18;}.cls-2{fill:#3797db;}.cls-3{fill:#ffeef2;}.cls-4{fill:#db0e83;}.cls-5{fill:#efac7f;}.cls-6{fill:#fc7600;}.cls-7{fill:#fe875e;}.cls-8{fill:#45258f;}.cls-9{fill:#729bd6;}.cls-10{fill:#a9c2ff;}.cls-11{fill:#ff912b;}.cls-12{fill:#d19369;}.cls-13{fill:#5e2e0d;}.cls-14{fill:#7772d6;}.cls-15{fill:#f8a492;}.cls-16{fill:#282828;}.cls-17{fill:#af7d41;}.cls-18{fill:#a3681a;}.cls-19{fill:#e0e0e0;}.cls-20{fill:#757575;}.cls-21{fill:#445299;}.cls-22{fill:#5367bc;}.cls-23{fill:#a5a5a5;}.cls-24{fill:#fff;}.cls-25{fill:#9ed16f;}.cls-26{fill:#96a65f;}.cls-27{fill:#81a55b;}.cls-28{fill:#62bdf3;}.cls-29{fill:#13375b;}.cls-30{fill:#b7b7b7;}.cls-31{fill:#f48c7f;}.cls-32{fill:#466eb6;}.cls-33{fill:#3b77be;}.cls-34{fill:#f7a491;}.cls-35{fill:#efefef;}</style></defs><path class="cls-1" d="M222.8,353.5c0,4.4-12.6,8-28.1,8s-28.1-3.6-28.1-8,12.6-7.9,28.1-7.9S222.8,349.1,222.8,353.5Z"/><path class="cls-1" d="M166.6,340.1c0,4.4-29.2,8-65.1,8s-65.1-3.6-65.1-8,29.1-8,65.1-8S166.6,335.7,166.6,340.1Z"/><path class="cls-1" d="M303.5,340.1c0,4.4-15.1,8-33.7,8s-33.7-3.6-33.7-8,15.1-8,33.7-8S303.5,335.7,303.5,340.1Z"/><path class="cls-2" d="M152.8,107.9a.1.1,0,0,1-.1-.1c-.1,0-.1-.2,0-.2a5.9,5.9,0,0,1,5.9-.3.4.4,0,0,1,.1.3h-.3a5.3,5.3,0,0,0-5.5.2Z"/><path class="cls-3" d="M206.4,304.7c-69.6-36.3-93.4-74.1-101-99.7h44.8a27.5,27.5,0,0,1-3.5,11.5,10.3,10.3,0,0,0-1.5,5.5,10.6,10.6,0,1,0,21.2,0,10.3,10.3,0,0,0-1.5-5.5,27.5,27.5,0,0,1-3.5-11.5h45v41.7h.8a26.8,26.8,0,0,0,11.4-3.6,8.8,8.8,0,0,1,4.7-1.3,9.1,9.1,0,0,1,0,18.2,9.8,9.8,0,0,1-4.7-1.3,28.4,28.4,0,0,0-11.4-3.7h-.8Z"/><path class="cls-4" d="M207.9,256.5a27.6,27.6,0,0,1,10,3.4,10.2,10.2,0,0,0,5.4,1.5,10.6,10.6,0,0,0,0-21.2,10.8,10.8,0,0,0-5.5,1.5,24.7,24.7,0,0,1-9.9,3.3V205h53v-.7a27.4,27.4,0,0,0-3.7-14.8,8.5,8.5,0,0,1-1.3-4.7,9.1,9.1,0,0,1,18.2,0,9.5,9.5,0,0,1-1.3,4.7,27.5,27.5,0,0,0-3.8,14.8v.7h39.8c-7.6,25.6-31.3,63.4-101,99.7Z"/><path class="cls-4" d="M207.7,305.1V256.3h.2a25.6,25.6,0,0,1,10.1,3.3,9.9,9.9,0,0,0,5.3,1.5,10.4,10.4,0,1,0-5.4-19.3,25.2,25.2,0,0,1-10,3.3h-.2V204.8h53v-.5a27.1,27.1,0,0,0-3.7-14.7,9.8,9.8,0,0,1-1.3-4.8,9.3,9.3,0,1,1,18.6,0,9,9,0,0,1-1.4,4.8,28,28,0,0,0-3.7,14.7v.5h39.9v.3c-7.4,25.3-31,63.3-101,99.8Zm.4-48.3v47.6c69.4-36.3,93-73.9,100.5-99.2H268.9v-.9a27.8,27.8,0,0,1,3.7-14.9,9.4,9.4,0,0,0,1.3-4.6,8.9,8.9,0,0,0-17.8,0,8.4,8.4,0,0,0,1.3,4.6,27.8,27.8,0,0,1,3.7,14.9v.9h-53v39.6a24.3,24.3,0,0,0,9.7-3.3,10.6,10.6,0,0,1,5.5-1.5,10.8,10.8,0,1,1-5.5,20A25.8,25.8,0,0,0,208.1,256.8Z"/><path class="cls-4" d="M155.8,231a9,9,0,0,1-9.1-9,10.2,10.2,0,0,1,1.3-4.8,26.8,26.8,0,0,0,3.7-12.9v-.8H105a78.6,78.6,0,0,1-2.9-21.3c0-16.3,5.1-31.6,14.5-43s23-18.2,37.6-18.2a63.1,63.1,0,0,1,39.2,13.8,65.5,65.5,0,0,1,13,13.6v19.2a24.8,24.8,0,0,1-9.1-3.2,10.2,10.2,0,0,0-5.4-1.5,10.6,10.6,0,1,0,0,21.2,10.2,10.2,0,0,0,5.4-1.5,27.5,27.5,0,0,1,9.1-3.2v24.1H159.8v.8a26.8,26.8,0,0,0,3.7,12.9,10.2,10.2,0,0,1,1.3,4.8A9,9,0,0,1,155.8,231Z"/><path class="cls-5" d="M154.5,117a4.8,4.8,0,0,0-2.3.7,33,33,0,0,1-4.2-1.9l-12-5.9-8.3-10.3-6.3,2.9,9.8,11.5c.6.4,17,6.2,18.4,6.7l2.4,2.1a9.9,9.9,0,0,0,2.5,1.3,8.6,8.6,0,0,0,2.5.9c1.2.3.2-.6.2-.6s-2.2-.9-2.1-1.1,1.2.5,2.6.8l1,.2c.9.2,1.3-.3.4-.6a4.2,4.2,0,0,0-1.2-.4l-1.1-.4-1.1-.5c.1,0,0-.2.3-.1l2.1.6,1.2.2s1.4.1,1.4-.1-.8-.7-1.4-.7l-1.2-.2s-1.6-.7-1.5-.9a8.5,8.5,0,0,1,2.1.1c1.1.1,1.9.1,2-.2s-.8-.4-.8-.4l-1.1-.2-1.1-.3s-3.1-1.1-3-1.4.6-.7.9-.7l.8.3c.2,0,.6-.1.7-.3s-1.2-.9-1.2-.9A3.3,3.3,0,0,0,154.5,117Z"/><path class="cls-6" d="M133.5,106l-2.9,2.4c-.7.5-4.2,2.2-4.2,2.2s-3.5-5.2-5-7.9-3.1-8-2.6-8.1a6.7,6.7,0,0,1,4.4.1C128.5,97.2,133.5,106,133.5,106Z"/><path class="cls-7" d="M152.5,119.8a2,2,0,0,0,2.2-.9C154.8,119.9,153.3,120.4,152.5,119.8Z"/><path class="cls-5" d="M99.8,186.2s-.2,4-.2,4.1a17,17,0,0,0-.4,2.2c0,1.7,7.8-1.5,6-2.3-.1,0-1-.6-1-1.2l-.3-2.7Z"/><path class="cls-8" d="M105.2,190.2a17.8,17.8,0,0,1-2.8.7c-.9.1-2.1-1-2.8-.7s-.7,3.3-.7,3.3,9.8.9,12.5,0C112.5,193.2,108.9,191.5,105.2,190.2Z"/><path class="cls-5" d="M87.3,186l-.2,4a18.5,18.5,0,0,0-.4,2.3c0,1.7,7.8-1.5,6-2.3-.1-.1-1.2-1-1.3-1.6V186Z"/><path class="cls-8" d="M92.7,190a22.8,22.8,0,0,1-2.8.6c-.9.2-2.1-.9-2.8-.6s-.7,3.3-.7,3.3,9.7.4,12.5,0C100.1,193.1,96.4,191.2,92.7,190Z"/><path class="cls-9" d="M89.1,122.4a51.4,51.4,0,0,0-.8,12c.5,5.1.6,23.4.6,23.4l-2.1,29.3h4.9s5.8-29.2,5.7-28.5,1.9-20.6,1.9-20.6l-6.9-16.3Z"/><path class="cls-10" d="M90.9,118s-5.9,6.3-3.7,13.1c.9,2.8,9.2,29.1,9.3,31.2s2.8,25.9,2.8,25.9l5.7-.2,1.2-26.4-1.6-35.5-3.5-6Z"/><path class="cls-11" d="M127.2,97.7a55.2,55.2,0,0,0-6.2-5.3,19.3,19.3,0,0,0-3.6-2.5c-1.5-.6-4.1-2-7.9,3.7-2.7,4.1-19.7,25.2-22.5,25.9l18.2,8.7c.5-4.2,9.5-12,10.8-13.5C118.9,111.5,129,99.8,127.2,97.7Z"/><path class="cls-5" d="M126.3,88.8l-5.7,3.3s-.1,4.8,1.7,6.1,2.8-1.5,2.8-1.5,2.1-2.9,3.7-3.8S126.3,88.8,126.3,88.8Z"/><path class="cls-12" d="M125.4,90.9a13.2,13.2,0,0,0,1.4,3.7,14,14,0,0,1,2-1.7c.7-.4.3-1.3-.5-2.2l-2-1.9-1.1.6A6.8,6.8,0,0,0,125.4,90.9Z"/><path class="cls-5" d="M129.3,80.5c-.1-.1-4.8,5.7-4.2,8.4s3.4,5.2,5.3,4.5,6.2-7.6,4.8-10.9S129.3,80.5,129.3,80.5Z"/><path class="cls-13" d="M134.4,78.7a8.8,8.8,0,0,0-7.9-.2c-3,1.6-3.7,5.6-2.7,8a4.1,4.1,0,0,1-.2,3.9l1.6-1a6.5,6.5,0,0,0,1.1-2.6c.1-1.2,1.8-1,2.7-1.5s1.4-1.8,2.5-2.4,2.6-.4,3.9.4S137.3,80.3,134.4,78.7Z"/><path class="cls-5" d="M143.4,125.5a11.4,11.4,0,0,0-2.5-.1,42,42,0,0,1-3.8-3l-10.8-9.2-5.7-12.5-7.4,1.1s6.9,14.7,7.4,15.3,15.7,9.5,17.1,10.5,1.1,1.7,1.9,2.7a7.9,7.9,0,0,0,2.2,1.9,7.2,7.2,0,0,0,2.3,1.6c1.2.6.4-.5.4-.5s-2.1-1.5-1.9-1.7,1.2.8,2.5,1.5l1,.6c.8.4,1.2,0,.5-.6l-1.1-.7-1-.7-1-.7s-.1-.2.3,0,1.2.8,1.9,1.1l1.2.5a4.5,4.5,0,0,0,1.2.1c.2-.4-.5-.6-1-.8l-1.2-.6s-1.5-1.1-1.3-1.3l2,.9c1.3.5,1.9.2,2,0s-.6-.5-.6-.5l-1.3-.3c-.3-.2-3.6-2.7-3.5-2.9a1,1,0,0,1,.9-.1l.8.2c.2.1.6-.1.7-.4s-.7-.7-.7-.7A5.2,5.2,0,0,0,143.4,125.5Z"/><path class="cls-6" d="M114.4,107.9l3.5-1.3,4.9-2.4s-1.7-7.3-2.9-9.9c-4.3-9.6-9.2-3-9.8-1.5C108.6,96.3,114.4,107.9,114.4,107.9Z"/><path class="cls-3" d="M270.5,203.5a25.7,25.7,0,0,1,3.6-13.2,10.6,10.6,0,1,0-18.2,0,26.6,26.6,0,0,1,3.5,13.2H207.9V177.7h-.8a25.6,25.6,0,0,0-10.5,3.5,9.1,9.1,0,1,1-4.7-16.9,10.1,10.1,0,0,1,4.7,1.3,27.3,27.3,0,0,0,10.5,3.6h.8v-21A64.4,64.4,0,0,1,221,134.8,62.5,62.5,0,0,1,260.1,121c14.6,0,28,6.5,37.6,18.2s14.6,26.7,14.6,43a78.8,78.8,0,0,1-3,21.3Z"/><path class="cls-14" d="M309.6,237.1H294.2a1.3,1.3,0,0,1-1.4-1.3h0a1.4,1.4,0,0,1,1.4-1.4h15.4a1.4,1.4,0,0,1,1.4,1.4h0A1.3,1.3,0,0,1,309.6,237.1Z"/><path class="cls-8" d="M311.1,239.3H292.7a1.4,1.4,0,0,1-1.4-1.4h0a1.3,1.3,0,0,1,1.4-1.3h18.4a1.3,1.3,0,0,1,1.4,1.3h0A1.4,1.4,0,0,1,311.1,239.3Z"/><path class="cls-5" d="M257,331.4s-1.4,1.4-1.4,1.9-.2,6.1.4,6.6,2.3.9,1.7,1.5-3.6.3-5.7.2c-.6,0-1.4-5-1.6-5.8s-1.6-3.3-1.3-4.1a12.1,12.1,0,0,1,2.4-1.9,10,10,0,0,0,2.2-2.3Z"/><path class="cls-5" d="M276,334.9s-1.2,3.6-1.3,3.6-.4,2-.4,2.6,8.7-1.7,6.8-2.6a1.9,1.9,0,0,1-.8-1.4,4.6,4.6,0,0,1,.7-2.3Z"/><path class="cls-9" d="M288.1,265.7l3.2,8.3s2.1,19.6.9,31.3c-.5,4.9-11.5,31.2-11.5,31.2l-5.4-.8,7.3-31.1-2.7-11.9-3.8-23.5Z"/><path class="cls-10" d="M273.2,266.2l-2.8,9.1-4.1,27.6-14,25.9s2.1,3.2,4.4,3.7l19.8-26.1,10.8-32.7-.4-7.3Z"/><path class="cls-15" d="M315,250.9c-1.7.8-1.5,1.1-1.7,1.2a28,28,0,0,1-3.7-1l-10.7-3.4-8.5-8.2-4.5,4s9.5,8.7,10.1,9,14.6,2.6,15.8,2.9l2.3,1.5a10.2,10.2,0,0,0,2.2.8,8.5,8.5,0,0,0,2.2.3c1,0,0-.6,0-.6s-1.9-.4-1.8-.6,1,.2,2.2.2h.8c.8,0,1-.5.2-.6l-1-.2-.9-.2-1-.2s-.1-.1.2-.1a9.7,9.7,0,0,0,1.8.1h.9l1.1-.3c.1-.4-.7-.6-1.2-.4h-1s-1.4-.3-1.4-.5,3.6-.3,3.6-.8-1-.3-1-.3h-1.9a12.5,12.5,0,0,1-2.6-.7c.1-.2.4-.8.5-.8h.7a.5.5,0,0,0,.4-.5c-.1-.2-.9-.4-.9-.4A2.3,2.3,0,0,0,315,250.9Z"/><path class="cls-6" d="M293.5,241.6l-4.3,5.8s-3.7-4.5-5.4-6.8-4.3-6.5-4-6.7a4.5,4.5,0,0,1,3.5-.9C288,234.3,293.5,241.6,293.5,241.6Z"/><path class="cls-8" d="M251.5,329.8s3,9.2,4.3,9.6,2.3.6,2.6,1.4h0a.8.8,0,0,1-.8.9h-6s-.9-4.1-1.2-5.9c0,0-1.9-4.4-1.7-4.8S251.5,329.8,251.5,329.8Z"/><path class="cls-8" d="M273.8,341.7l1-3.2a7.9,7.9,0,0,0,3.2.7,25.9,25.9,0,0,0,3.1-.7c4.2,1.4,7.6,2.1,7,3.2H273.8Z"/><path class="cls-7" d="M313.7,253.7a1.8,1.8,0,0,0,1.8-1.1A1.2,1.2,0,0,1,313.7,253.7Z"/><path class="cls-11" d="M274.3,232.8a51.8,51.8,0,0,0-6.8,1.2c-1.5.5-3.4,5.1-3.4,5.1s7.7,22.3,7.4,26.3-1.1,9.9-1.1,9.9,15.1.9,20.9-1.3c0,0-1.8-9.1-1.8-11.4s-1-26.1-1.8-27.3-2.2-2-4.9-2.6S274.3,232.8,274.3,232.8Z"/><path class="cls-5" d="M275.3,226.2l-1,6.6s3,3.6,5.2,2.9,1.4-3.2,1.4-3.2-1-3.8-.7-5.6S275.3,226.2,275.3,226.2Z"/><path class="cls-12" d="M280.2,226.9c.3-1.9-4.9-.7-4.9-.7v.6a4.1,4.1,0,0,0,.5.9,6.9,6.9,0,0,0,4.6,2A6.8,6.8,0,0,1,280.2,226.9Z"/><path class="cls-5" d="M274.4,216.8c-.1,0-1.2,7.6.8,9.7s5.8,2.8,7.1,1.1,1.5-10-1.6-12.1S274.4,216.8,274.4,216.8Z"/><path class="cls-16" d="M279.6,211.4a8.9,8.9,0,0,0-4.5,2.5c-1,.1-2.5.7-4,3.2a6.1,6.1,0,0,0,1.7,8,5.1,5.1,0,0,1,2.1,3.6l.3-1a4.7,4.7,0,0,0,.3-2.3,3.2,3.2,0,0,0-.3-1.4c-.6-1.1,1.1-1.9,1.5-2.8s.4-2.3.9-3.5l.7-.8a4.2,4.2,0,0,1,3-.9C282.8,216.3,282.6,210.8,279.6,211.4Z"/><path class="cls-5" d="M276.6,222.6c0,.9-.4,1.7-.9,1.7s-1-.8-1-1.7.4-1.7.9-1.7S276.6,221.6,276.6,222.6Z"/><rect class="cls-17" x="283.5" y="238.5" width="30.6" height="26.58" transform="translate(597.6 503.5) rotate(180)"/><rect class="cls-18" x="302.6" y="238.5" width="26.6" height="26.58" transform="translate(631.7 503.5) rotate(180)"/><path class="cls-5" d="M302,264.5c-1.5-.5-19.4-5.1-20.1-5.5s-11.8-10.8-11.8-10.8l6.4-3.4,9.9,9.8,13.4,5.1a28.9,28.9,0,0,0,4.2,1.5c.3,0,.5-.3,2.7-.8a5.8,5.8,0,0,1,1.6.1s1.1.4,1.1.7-.3.4-.5.4-.7-.1-.9-.1-.7.5-.8.7,3.1,2.5,3.2,2.8,3.9-.2,3.7,0-.4.3-.4.4-5.4,1.8-5.8,1.6S302,264.5,302,264.5Z"/><path class="cls-6" d="M273.6,253l7.2-4.8s-8.4-12.8-11.3-14.1-4.4.5-5.4,3.8S273.6,253,273.6,253Z"/><path class="cls-19" d="M326.5,244.5l-1.2,1.1v-6.9a1.3,1.3,0,0,0-1.3-1.3H313.2a1.3,1.3,0,0,0-1.3,1.3v8.1l-1.3-2.3-4.6,1.3s3.7,6.9,5.9,8.1,10.4,1.4,13.4,0,4.9-6.5,4.9-6.5Z"/><path class="cls-20" d="M322.4,254.7c-.2-2.4-1.8-4.3-3.8-4.3s-3.5,1.9-3.7,4.3A23.6,23.6,0,0,0,322.4,254.7Z"/><path class="cls-13" d="M258.3,61c-1.1,1.9-3.1,1.8-5.2,2.4s-2.3,2.6-2.1,4.4c.3,4.4-3.2,3.7-6,5.5-6.7,4.4-2.4,16,5,16.7a8.4,8.4,0,0,0,4.4-.8,18.3,18.3,0,0,1,3-1.8c2.5-.9,5.2-1.2,7.2-3.1s.5-4,1.2-6,3.9-1,4.5-5.1-.1-8.3-1.7-10.5-7.5-3.9-9.2-2.8A3.8,3.8,0,0,0,258.3,61Z"/><path class="cls-5" d="M289.1,69.4c-.2-.6-2.6,1.1-3.1.8s2.1-3,1.8-3.4-3,2.7-3.2,2.3,2.1-4.2,1.3-4.4-2.1,4.2-2.6,3.9,1.5-3.9.7-4.7-2.6,6.7-3.3,7-1.7-2.8-2.4-2.7,2.4,5.8,2.2,6.2-3,9.6-4.6,12.4l-3-1.5c-.3,2.2-.4,4.4-.9,6.5,3.3,1.4,6.2,2.4,7.1,2.1,2.9-1.1,4.3-15,4.8-17.6s1.7-3.1,2.4-4.5S289.4,69.9,289.1,69.4Z"/><path class="cls-6" d="M265.1,81.1,260.3,86s6.3,3.4,11.7,5.8c.5-2.1.6-4.3.9-6.5C268.5,83.1,265.1,81.1,265.1,81.1Z"/><path class="cls-5" d="M295.1,135a45.1,45.1,0,0,1,3.8,5.4c.1.1.1,1,.2,1.2,3.3,2.1,6.7,1.5,9.6.6-1.9-.8-4.5-1.7-4.7-2.1a40.7,40.7,0,0,1-4.1-7C298.5,134.6,297.1,134.4,295.1,135Z"/><path class="cls-2" d="M298.9,140.5a9.6,9.6,0,0,0,.1,4c.3.1,11.3,1.7,12.7.3s-.7-1.5-3-2.6C305.8,143.1,299,141.4,298.9,140.5Z"/><path class="cls-5" d="M296,144.9a35,35,0,0,1,3.8,5.4c.1.2.1,1.1.2,1.2,3.3,2.2,6.8,1.6,9.6.7-1.9-.8-4.5-1.8-4.7-2.2a38,38,0,0,1-4-6.9C299.4,144.5,298,144.3,296,144.9Z"/><path class="cls-2" d="M299.9,150.4a10.8,10.8,0,0,0,0,4.1c.4,0,11.4,1.7,12.8.2s-.8-1.5-3.1-2.5C306.8,153.1,300,151.3,299.9,150.4Z"/><path class="cls-21" d="M301.4,134.9l-5.7,1.9-30.9-25.5s7.6-.1,21.1,1.2C289.9,113,301.4,134.9,301.4,134.9Z"/><path class="cls-22" d="M253.3,109.1a16.2,16.2,0,0,0-1,3.4c-.3,3.8,1.7,8.6,3.8,9.4s15.6,4.5,23.6,3.3l17.5,23.3L303,146l-13.6-24s-2.7-4.1-4.8-5.1-19.8-5.6-19.8-5.6l-2.7-4Z"/><path class="cls-11" d="M267.5,85a37.3,37.3,0,0,0-2-3.2,7.4,7.4,0,0,0-3.6-2.7h-1.8l-.2.3c-.4.3-2.5-.1-3.9.9-4.7,3.9-3.4,23.3-3,29.4l11.2.4s1.1-13.4,4-16.8S268.9,87.6,267.5,85Z"/><path class="cls-5" d="M261.1,72.6a69.1,69.1,0,0,1-1.3,6.9c-.6,1.3,3,4.2,5.9,5.1s-.9-3-.8-4.4.7-8.3.7-8.3Z"/><path class="cls-12" d="M265.4,73.8c.1-1.1.2-1.9.2-1.9l-4.5.7s-.1.6-.2,1.5A3.4,3.4,0,0,0,265.4,73.8Z"/><path class="cls-5" d="M262.5,62.4a4.7,4.7,0,0,0-2.8,2.1c-1.1,1.6-1.9,6.5,1.7,8.8s6.4-.9,6.4-4.1S267.2,61.8,262.5,62.4Z"/><path class="cls-5" d="M268.6,68.2c-.3.8-.9,1.3-1.3,1.1s-.6-1-.3-1.7,1-1.3,1.4-1.1A1.3,1.3,0,0,1,268.6,68.2Z"/><path class="cls-5" d="M259.6,68.9a1.4,1.4,0,0,1-.5,1.8c-.6.1-1.2-.4-1.5-1.2a1.4,1.4,0,0,1,.5-1.8C258.7,67.5,259.3,68,259.6,68.9Z"/><path class="cls-23" d="M274.4,87.1H276c2-.2,1.2,2.7,1.2,2.7s-1-.9-1.4-.9h-.9Z"/><path class="cls-23" d="M281.1,106.6s.9,1.3,1.8.7,2.5-1.7,2.8-.8.2,1.5-.1,1.7a16.9,16.9,0,0,1-4,1.5,3.1,3.1,0,0,1-2.3-1.1Z"/><path class="cls-24" d="M283.1,109.5a8.9,8.9,0,0,0-.8-3.1c-1.4-2.4-7.3-8.9-8.2-9.4s-.3-2.5-.3-2.5l-3.5-1.9-1.8-1s-4.1,6.3-4.4,6.9.2,2.6-.2,3.8,0,7.7-.6,8.4-.9.5-1,.8a.5.5,0,0,0,0,.6c.5.6,2.9.1,2.9.1s1-1.5.9-2.3.3-5.7.6-5.7,1.7,2.2,2.3,2.6h0a.1.1,0,0,0,.1.1c.4,0,3,.5,3.6,1.1a2.7,2.7,0,0,1,.2,1.1v1.1c-.1.7-.2,1.5-.3,2h1.9a3.3,3.3,0,0,1,2.8-1.6A3.2,3.2,0,0,1,280,112c1,0,1.4.5,2.3.4A24.5,24.5,0,0,0,283.1,109.5Z"/><path class="cls-24" d="M274.8,87.4a1.7,1.7,0,0,0-1.5-.5h-1.2a3.9,3.9,0,0,0-3.5.8c-.8.8-.9,3.8,0,5.1s3.6,1.8,3.8,2.4,2.6.9,2.9.2h.6a1.4,1.4,0,0,0,.9-2c-.4-.9-1.6-2.7-1.4-4.4A1.8,1.8,0,0,0,274.8,87.4Z"/><path class="cls-23" d="M274.3,93.1a.3.3,0,0,0-.1.5,5.7,5.7,0,0,0,1.1,1.1c.5.2,1-1,1-1.5S275.2,92.2,274.3,93.1Z"/><path class="cls-23" d="M273.7,101.9a.5.5,0,0,0-.5-.4h0a2.3,2.3,0,0,0-2.1,2.7v.2l-.9,1.8,2.5.6,1.2-2Z"/><path class="cls-23" d="M269.1,108.3l-1.2,3.8c.7.4,1.2-.4,2.9.1,0-.4.6-2.4.6-2.9a19.3,19.3,0,0,1,1.4-2.5v-.2l-2.4-.7c-.1-.1-.2,0-.3.1A17.8,17.8,0,0,0,269.1,108.3Z"/><path class="cls-23" d="M267.2,111.8a1.8,1.8,0,0,1,1.5-.8c.8,0,2.1,1.2,2.1,1.2a2.5,2.5,0,0,1-1.4.3C268.3,112.5,266.9,112.6,267.2,111.8Z"/><path class="cls-23" d="M271.9,111.7a1.7,1.7,0,0,1,1.5-.9,2.1,2.1,0,0,1,1,.4.6.6,0,0,1-.3,1.2h0C273,112.4,271.5,112.5,271.9,111.7Z"/><path class="cls-23" d="M279.3,111.7a2.3,2.3,0,0,1,1.9-.9,3.4,3.4,0,0,1,1.2.4.6.6,0,0,1-.4,1.2h0C280.7,112.4,278.9,112.5,279.3,111.7Z"/><path class="cls-23" d="M271.3,88a.9.9,0,0,1,.1-1.1,3.8,3.8,0,0,0-2.8.9c-.8.8-.9,3.8,0,5.1s3.1,1.7,3.7,2.2-.3-2-.6-2.5,1.2-1.8,1.3-2.8S271.9,88.6,271.3,88Z"/><path class="cls-24" d="M269.6,87.2a3,3,0,0,1-1.9-.1c-1.1-.4-2.1,1.5-2.1,1.5a10,10,0,0,0,1.7,2.6C268.1,91.7,269.6,87.2,269.6,87.2Z"/><path class="cls-5" d="M282.8,104.9c0-.4-1.5-1.8-2.1-1.6a29.8,29.8,0,0,0-3.4,1.9l-11.8-2.8s-3-6.8-3.3-12.6a15.2,15.2,0,0,0-6.3,2.1c1,5.6,3.5,14.7,6.3,16.4,1.2.7,15.2-.9,15.2-.9a17.8,17.8,0,0,0,3.6.2C284,106.8,282.8,105.8,282.8,104.9Z"/><path class="cls-6" d="M262.3,83.5c-.4-1.8-.8-3.5-2.7-4.1a3.7,3.7,0,0,0-3.5.8,4.8,4.8,0,0,0-1.4,3.8,52.6,52.6,0,0,0,.8,9.6c2.1-1.2,5.2-1.1,7.7-1.4A38.8,38.8,0,0,0,262.3,83.5Z"/><path class="cls-25" d="M166.2,73.5c-1.3,6.7-5.3,20.7-11.8,20.5-.3-9.2-.8-17-1.4-19.5a8.8,8.8,0,0,0-.5-1.5c4.1.4,6.5-5.8,7.4-10.2-.8,2.8-2.7,7.2-5.2,8.7a2.9,2.9,0,0,1-2.8.3c-2.4-4.4-6.8-7.3-9-9.9s-.6-10.5-.2-13.2a43.4,43.4,0,0,0-.9,10.8c.3,3.5,2.1,3.7,6.3,8.5s4.6,5.8,4.7,20.2h-.9c-3.5.1-6.6-3.2-8.4-6.2,1.4,2.7,3.8,5.7,6.7,6.6a4.7,4.7,0,0,0,1.7.3h.9c.1,1.3.5,26.1.1,42.1,1,0,.8-.5,1.8-.4,0-4.4.2-20.6-.2-34.8C162.1,95.5,165.3,81.4,166.2,73.5Z"/><path class="cls-26" d="M138.3,51.7a5.7,5.7,0,0,0,3.8.9l-5.6-4.5A5.8,5.8,0,0,0,138.3,51.7Z"/><path class="cls-25" d="M136.5,48.1l5.6,4.5a6,6,0,0,0-1.7-3.6A6,6,0,0,0,136.5,48.1Z"/><path class="cls-26" d="M164.4,92.9a5.2,5.2,0,0,0,3.5-1.8l-7.2.3A5.8,5.8,0,0,0,164.4,92.9Z"/><path class="cls-25" d="M160.7,91.4l7.2-.3a5.7,5.7,0,0,0-3.6-1.5A5.6,5.6,0,0,0,160.7,91.4Z"/><path class="cls-26" d="M166.5,85.7a5.1,5.1,0,0,0,1.7-2.8l-4.9,3.2A4.4,4.4,0,0,0,166.5,85.7Z"/><path class="cls-25" d="M163.3,86.1l4.9-3.2a4.7,4.7,0,0,0-3.2.5A4.4,4.4,0,0,0,163.3,86.1Z"/><path class="cls-26" d="M159.4,85.4a5,5,0,0,0,2.3,2.3l-2-5.5A4.9,4.9,0,0,0,159.4,85.4Z"/><path class="cls-25" d="M159.7,82.2l2,5.5a4.3,4.3,0,0,0,.3-3.2A4.5,4.5,0,0,0,159.7,82.2Z"/><path class="cls-26" d="M143.5,55.9a4.2,4.2,0,0,0-1.5,2.5l4.4-3A3.9,3.9,0,0,0,143.5,55.9Z"/><path class="cls-25" d="M146.4,55.4l-4.4,3a3.9,3.9,0,0,0,2.9-.5A4.2,4.2,0,0,0,146.4,55.4Z"/><path class="cls-26" d="M160.3,68.1a4.3,4.3,0,0,0-2.8,1.1l5.4.4A4.7,4.7,0,0,0,160.3,68.1Z"/><path class="cls-25" d="M162.9,69.6l-5.4-.4a4.2,4.2,0,0,0,2.6,1.4A3.9,3.9,0,0,0,162.9,69.6Z"/><path class="cls-26" d="M144.5,85a4.5,4.5,0,0,0-2.8,1l5.4.4A4.2,4.2,0,0,0,144.5,85Z"/><path class="cls-25" d="M147.1,86.4l-5.4-.4a4.2,4.2,0,0,0,2.6,1.5A4.3,4.3,0,0,0,147.1,86.4Z"/><path class="cls-26" d="M147.3,83.5a4.7,4.7,0,0,0-2.2-2.1l2,5A4.3,4.3,0,0,0,147.3,83.5Z"/><path class="cls-25" d="M147.1,86.4l-2-5a4.6,4.6,0,0,0-.2,3A4.2,4.2,0,0,0,147.1,86.4Z"/><path class="cls-26" d="M157.8,66.2a2.9,2.9,0,0,0-1.3-1.3l1.2,3.2A2.5,2.5,0,0,0,157.8,66.2Z"/><path class="cls-25" d="M157.7,68.1l-1.2-3.2a2.1,2.1,0,0,0,1.2,3.2Z"/><path class="cls-26" d="M140.1,59.1a4.6,4.6,0,0,0-3,.2l5,1.9A3.9,3.9,0,0,0,140.1,59.1Z"/><path class="cls-25" d="M142.1,61.2l-5-1.9a4.2,4.2,0,0,0,2.1,2.1A3.7,3.7,0,0,0,142.1,61.2Z"/><path class="cls-26" d="M157.7,130.6h.8V100a.4.4,0,0,0-.4-.4h0a.4.4,0,0,0-.4.4Z"/><path class="cls-27" d="M148.6,131.7s3.6-4.3,6.5-3.1,3.4-1,4.9-.2a15.9,15.9,0,0,1,3.4,2.6Z"/><path class="cls-2" d="M155.6,108.6a6.8,6.8,0,0,1-2.9-.7.2.2,0,0,1,0-.3h.2a5.4,5.4,0,0,0,5.5-.2c.1-.1.2-.1.2,0a.2.2,0,0,1,0,.3A5.4,5.4,0,0,1,155.6,108.6Z"/><path class="cls-2" d="M153,107.9l-.4-.2c-.2-.1-2.5-1.5-2.5-2.5a.5.5,0,0,1,.2-.6,1.3,1.3,0,0,1,1.1-.3c1.1.5,1.5,3,1.5,3.2Zm-1.9-3.3c-.2,0-.3.1-.5.3s-.2.2-.2.3,1.3,1.5,2.1,2-.6-2.3-1.2-2.5Z"/><path class="cls-2" d="M150.6,110.2c-.2,0-.4,0-.5-.3a1.3,1.3,0,0,1-.1-.6c.4-.8,2.1-1.4,2.3-1.5h.5l-.2.4c-.2.3-1.3,2.1-2,2.1Zm1.4-1.8a2.7,2.7,0,0,0-1.6,1.1v.2h.2C150.9,109.8,151.5,109.1,152,108.4Z"/><path class="cls-2" d="M153.1,107.7a.3.3,0,0,1-.6,0c0-.2.1-.4.3-.4S153.1,107.5,153.1,107.7Z"/><polygon class="cls-25" points="189.5 57.7 184.9 56.6 183.7 59.9 179 59 177.4 62 173.8 61.8 173.8 63.2 178.6 63.5 180.1 60.7 184.9 61.6 186.1 58.3 190.3 59.3 189.5 57.7"/><path class="cls-14" d="M321.2,132.6l1.7-2.9-1.4-2.9a.5.5,0,0,1,.5-.7l3.2.7,2.4-2.2a.5.5,0,0,1,.8.3l.3,3.3,2.8,1.6c.4.2.3.6,0,.8l-3,1.3-.7,3.2a.4.4,0,0,1-.7.2l-2.2-2.4-3.3.3A.4.4,0,0,1,321.2,132.6Z"/><path class="cls-14" d="M342.6,190.4c-.5,3.9,3.6,7,7.2,6.8a8.8,8.8,0,0,0,7.9-7.5c.7-4.2-1.9-7.6-5.8-8a5,5,0,0,0-5.2,6.6c.8,2.5,3,3.4,4.2,2.7a1.1,1.1,0,0,0-.3-2.1,1.3,1.3,0,0,0-1.1.5,3.3,3.3,0,0,1-1.2-3.9c.8-2.4,3.8-2.5,5.6-1.4s2.8,4.4,1.9,6.8a7.3,7.3,0,0,1-6.1,4.7,5.7,5.7,0,0,1-6-5.2C343.7,189.7,342.7,189.7,342.6,190.4Z"/><path class="cls-2" d="M53.7,201.4v-3.8l-3.1-2.1a.5.5,0,0,1,.2-.9l3.5-1.2,1-3.6a.6.6,0,0,1,1-.1l2.2,3,3.7-.2a.6.6,0,0,1,.4.9l-2.1,3,1.2,3.5a.5.5,0,0,1-.6.7l-3.6-1.1-2.9,2.3A.5.5,0,0,1,53.7,201.4Z"/><path class="cls-28" d="M328.3,214.1a3.1,3.1,0,1,1,6.2-.4,3.1,3.1,0,0,1-6.2.4Z"/><path class="cls-28" d="M333.6,223a28,28,0,0,0-.6-2.8.7.7,0,0,0-1.4.3c.1,1,.4,2,.6,3s.6.5,1,.4.5-.5.4-.9Z"/><path class="cls-28" d="M339,219.1a21.6,21.6,0,0,1-2.9-2.1.7.7,0,0,0-1,1.1,19.1,19.1,0,0,0,3.2,2.4.8.8,0,0,0,1-.4.8.8,0,0,0-.3-1Z"/><path class="cls-28" d="M337,213.5a.5.5,0,0,0-.1.7c.3.7,1.2.6,1.8.6a4.8,4.8,0,0,0,2-.4.7.7,0,0,0-.5-1.4C338.4,213.6,337.7,213,337,213.5Z"/><path class="cls-28" d="M336,207.4c-.9,1.4-1.6,1.8-1.5,2.5a.6.6,0,0,0,.8.6c.5-.1.7-.6,1-1a7.6,7.6,0,0,0,.8-1.1.7.7,0,0,0,0-1,.8.8,0,0,0-1.1,0Z"/><path class="cls-28" d="M332.5,207.2a3.5,3.5,0,0,0-.8-1.5.6.6,0,0,0-1,.4,2.6,2.6,0,0,0,.3,1.6.8.8,0,0,0,1.5-.5Z"/><path class="cls-28" d="M328.6,209.2c-1.3-1-1.5-1.3-2.1-1.3s-.6.4-.5.7.5.8,1.7,1.7a.8.8,0,0,0,1-.1.6.6,0,0,0-.1-1Z"/><path class="cls-28" d="M323.4,213.7a.8.8,0,0,0,.2,1.3l3.4-.5a.8.8,0,0,0,.7-.8c-.1-.4-.4-.8-.8-.7C324.2,213.4,323.9,213.4,323.4,213.7Z"/><path class="cls-28" d="M327.4,218c-1.4,1.4-1.6,1.1-2.2,2s.2,1,.7.9a2.6,2.6,0,0,0,1.4-.8l1.3-1.1a.8.8,0,1,0-1.2-1Z"/><path class="cls-2" d="M83.3,339.4h3.1V177.2a1.6,1.6,0,0,0-1.6-1.6h0a1.6,1.6,0,0,0-1.5,1.6Z"/><path class="cls-2" d="M103.9,339.4H107v-165a1.5,1.5,0,0,0-1.5-1.5h0a1.6,1.6,0,0,0-1.6,1.5Z"/><rect class="cls-2" x="85.5" y="193.2" width="21" height="1.83"/><rect class="cls-2" x="85.5" y="217.7" width="21" height="1.83"/><rect class="cls-2" x="85.5" y="242.3" width="21" height="1.83"/><rect class="cls-2" x="85.5" y="266.8" width="21" height="1.83"/><path class="cls-29" d="M91.3,282.4H78.1a2,2,0,0,0-2,2v7.4h2.2v-7h13Z"/><path class="cls-5" d="M93.9,277.4,89.8,273s-4.4,2.4-9.6,4.8c-1.4-2.5-3.7-10.6-3.8-11s2.7-5.2,2.1-5.3-1.5,2.6-2.2,2.3-2.3-6.6-2.7-6.2.9,3.9.5,4.1-1.4-3.6-2.2-3.4,1.3,3.5,1.1,3.8-2.4-2.8-2.9-2.1,2,2.7,1.6,3-2.5-1.2-2.7-.7,1.8.9,2.4,2.2,1.7,1.6,2,3.9,1.3,14.5,3.8,15.5S93.9,277.4,93.9,277.4Z"/><path class="cls-5" d="M131.8,333.7a75.9,75.9,0,0,0,.1-11l5.8-.4c-.9,5.8-1.4,11.7-1.4,11.7v4.5H125.1a41.8,41.8,0,0,0,5.7-3.1A2.3,2.3,0,0,0,131.8,333.7Z"/><path class="cls-8" d="M136.8,339.2h-12c-.5,0-.6-.4-.4-.6s1.7-.8,3.2-1.5,8.4-1.5,8.8-2.2C136.6,336.3,137,339.1,136.8,339.2Z"/><path class="cls-5" d="M152.2,331.4a66.9,66.9,0,0,0-5.7-9.5l4.9-3.5,4.7,10.8.7.9,1.9,2.8L149,339a59.1,59.1,0,0,0,3.3-5.7A2.5,2.5,0,0,0,152.2,331.4Z"/><path class="cls-8" d="M159.2,333.6l-10,6.2c-.4.2-.7,0-.7-.3s1-1.5,2-3,6.2-5.7,6.3-6.5A19.7,19.7,0,0,1,159.2,333.6Z"/><path class="cls-13" d="M147.5,237.6a9.4,9.4,0,0,0-5.8-10.3c0-2.5-.8-5.6-2.5-7.3-3.3-3.3-9.6-4.5-12.1-.2-3.2,1.8-5.8,5.7-4.8,9.4-3.1,3.2-1.9,9.1,2.6,11.8a9.9,9.9,0,0,0,5.1,8.9l2.1,1c-.2-.2,2.3,7,10.3,3.7S152.8,241.9,147.5,237.6Z"/><path class="cls-9" d="M131.6,330.5c1-5.5-2.5-19.1-4.5-25s-3.6-32.5-3.6-32.5l2.5-2.8,10-.6s-4.3,13.1-4.3,17.6,2.1,16.2,4.6,22.3,1.3,17.3.6,21.2A18.9,18.9,0,0,1,131.6,330.5Z"/><path class="cls-10" d="M138.6,270.8c.4.4,3.1,3.6,3.1,5.9s-5.1,22.3-3.8,23.6,5.7,4.2,8.6,8.5,8,13.9,9.1,16.4a20.8,20.8,0,0,1-6.1,2.8c-.3-1.8-16.8-19.9-18.7-23.7s-2.9-21.2-3.8-23.5l-3.5-8.2Z"/><path class="cls-5" d="M123.9,255.9s-6.2,7.1-13.1,9.8a7.1,7.1,0,0,0-2,1.2c0,.7,1.3.2,1.3.2a2.4,2.4,0,0,0-.2,1.6c.2.8,1.7.3,2.5.3s2.3-2.2,4.9-3.4,6.7-3,7.1-3.4S124.1,255.7,123.9,255.9Z"/><path class="cls-11" d="M136.5,236s-6.2-.6-9.5,1.4-5.3,9.5-5.3,12.7,2.3,19.8,1.4,23c0,0,10.3-.5,13.9-.5s4.2-1.4,4.2-1.4-7.3-7.2-7.3-10.3S136.5,236,136.5,236Z"/><path class="cls-30" d="M51.2,321.2V332h1.2v-9.8h7.8v3.4a6.2,6.2,0,0,0-5.4,6.4c0,3.6,2.7,6.5,5.9,6.5a6.5,6.5,0,0,0,.6-12.9v-3.4h1.6v-1.3H61.3V317h1.6v-1.3H61.3v-4.3H82.6v-1.9H70.8V298.4a6.5,6.5,0,0,1,6.4-6.2H87.3v-1.9H77.2a8.3,8.3,0,0,0-8.1,8.1v11.1H61.3v-6.2H60.2v12.4h-4A5.3,5.3,0,0,0,51.2,321.2Zm9-.3H52.4a4,4,0,0,1,3.8-3.9h4Z"/><path class="cls-31" d="M55.8,322.9s.2,4.2.3,4.2.4,1.8.4,2.3-8.1-1.5-6.3-2.3a6.6,6.6,0,0,0,1.4-1.7,14.9,14.9,0,0,0,.6-3Z"/><path class="cls-32" d="M50.2,327.1l2.9.7c1,.1,2.3-1.1,2.9-.8s.8,3.6.8,3.6-10.1.3-13-.1C42.6,330.3,46.4,328.4,50.2,327.1Z"/><path class="cls-8" d="M96.2,314h2.2V271.6a2.8,2.8,0,0,1,3.1-2.6h20a.9.9,0,0,0,1-1h0a.9.9,0,0,0-1-.9h-20c-2.9,0-5.3,2-5.3,4.5Z"/><path class="cls-30" d="M85.7,305.1a13.6,13.6,0,1,1-13.4,13.5A13.6,13.6,0,0,1,85.7,305.1Z"/><path class="cls-8" d="M69.4,318.6a16.4,16.4,0,1,0,16.3-16.5A16.4,16.4,0,0,0,69.4,318.6Zm1.5,0a14.8,14.8,0,1,1,14.8,15A14.9,14.9,0,0,1,70.9,318.6Z"/><rect class="cls-14" x="96.5" y="274.4" width="6.6" height="25.47" transform="translate(199.5 574.2) rotate(180)"/><path class="cls-14" d="M74.9,315.7H69.3a5.5,5.5,0,0,0-5.4,5.5V332h1.3V321.2a4.1,4.1,0,0,1,4.1-4.2h5.6Z"/><rect class="cls-30" x="55.3" y="301.5" width="17.3" height="2.97" transform="translate(127.9 605.9) rotate(180)"/><rect class="cls-14" x="64.5" y="320.9" width="10.3" height="1.28"/><rect class="cls-14" x="74.2" y="309.5" width="23.7" height="1.93"/><rect class="cls-30" x="72.2" y="301.4" width="30.9" height="3.01" transform="translate(175.2 605.9) rotate(180)"/><path class="cls-14" d="M102.1,316.3H104V273.8a2.7,2.7,0,0,1,2.7-2.6h18v-1.8h-18a4.5,4.5,0,0,0-4.6,4.4Z"/><path class="cls-30" d="M67.1,332c0,3.6,3.2,6.5,7.1,6.5s7.2-2.9,7.2-6.5-3.2-6.5-7.2-6.5S67.1,328.5,67.1,332Z"/><path class="cls-14" d="M69.9,332a4.4,4.4,0,1,0,4.3-3.9A4.1,4.1,0,0,0,69.9,332Z"/><path class="cls-33" d="M56.8,290.3c2-2.1,30.9-1.1,30.9-1.1s-24.4,6-25.9,6.7-6.7,27.1-6.7,27.4-2.4-.1-3.9-.4C51.5,318.4,53.4,293.6,56.8,290.3Z"/><path class="cls-34" d="M59.6,323l.2,4.2c.1.6.5,1.9.5,2.4s-8.1-1.6-6.3-2.4c.2-.1,1.3-1,1.3-1.6s.1-2.5.1-2.5Z"/><path class="cls-32" d="M54,327.2l2.9.7c1,.1,2.2-1,2.9-.7s.8,3.5.8,3.5-10.1.3-13.1-.1C46.4,330.4,50.2,328.5,54,327.2Z"/><path class="cls-2" d="M92.2,295.1s-.2,6.6-2.4,6.6-16.2.4-24.1-.3l-5.3,23.5-6.2-.6s1.9-15.7,2.5-21.6,2.6-10.8,5.9-10.9,25.1-3.5,25.1-3.5Z"/><path class="cls-2" d="M98.1,264.5s3.5.9,3,7.8-4.2,27.8-11.3,29.4-11.7-13.2-11.7-13.2,4.5-1.4,6.3-8.4c1.3-4.7,4.8-15.5,5.6-16.1S98.1,264.5,98.1,264.5Z"/><path class="cls-8" d="M84.8,316.3a2.9,2.9,0,0,0,0,5.8,2.9,2.9,0,1,0,0-5.8Z"/><path class="cls-14" d="M83.3,310.9h1.9V298.4c0-2.9,2.9-6.2,6.9-6.2H103v-1.9H92.1c-4.7,0-8.8,3.8-8.8,8.1Z"/><path class="cls-14" d="M84.3,320.4A18.8,18.8,0,1,0,103,301.5,18.9,18.9,0,0,0,84.3,320.4Zm1.7,0a17.1,17.1,0,1,1,17,17.2A17.1,17.1,0,0,1,86,320.4Z"/><path class="cls-14" d="M103,304.9a15.6,15.6,0,1,0,15.5,15.5A15.4,15.4,0,0,0,103,304.9Zm0,28.4a12.9,12.9,0,1,1,12.8-12.9A12.8,12.8,0,0,1,103,333.3Z"/><path class="cls-30" d="M103,307.6a12.9,12.9,0,1,0,12.8,12.8A12.7,12.7,0,0,0,103,307.6Zm0,15.7a2.9,2.9,0,1,1,2.9-2.9A2.9,2.9,0,0,1,103,323.3Z"/><path class="cls-14" d="M103,317.5a2.9,2.9,0,1,0,2.9,2.9A2.9,2.9,0,0,0,103,317.5Z"/><rect class="cls-8" x="46.3" y="330.7" width="19.4" height="3.37" transform="translate(112 664.7) rotate(180)"/><rect class="cls-14" x="54.7" y="330.7" width="11" height="3.37" transform="translate(120.4 664.7) rotate(180)"/><rect class="cls-14" x="73.6" y="304.4" width="1.3" height="29.62"/><path class="cls-8" d="M73.5,332.4a.7.7,0,0,0,.8.8.8.8,0,0,0,.8-.8.9.9,0,0,0-.8-.8A.8.8,0,0,0,73.5,332.4Z"/><path class="cls-16" d="M96,246a2.2,2.2,0,0,1,3.5,1.3h1a7.1,7.1,0,0,1,1.4,1,6.3,6.3,0,0,1,2.5,4.9,7.3,7.3,0,0,1-2.3,5.5,4.4,4.4,0,0,1-1.5,1.2c-.7.4-1.2.1-1.9.3s-.7.7-1.3.5-1.9-1.4-3-1.3-3.7-.8-3.7-.8c-3.3-1.3-1-7.7-.4-9.9S93.9,245.3,96,246Z"/><path class="cls-5" d="M93,260.5l-.9,2.4-.4,1.3s-.1,2.3.5,2.9,4.8-2.8,4.8-2.8l1.2-7.4Z"/><path class="cls-12" d="M97.8,259.3a8.7,8.7,0,0,1-5.7,3.6l.9-2.4,5.2-3.6Z"/><path class="cls-5" d="M97.2,249.4a3.7,3.7,0,0,0-5.4,1.8c-.3.9-.7,2.1-1,3.4-.8,3.2.2,6.6,1.6,6.9a6.9,6.9,0,0,0,7-5.3C100.1,253.5,99.3,250.7,97.2,249.4Z"/><path class="cls-5" d="M98.2,256.3a1.2,1.2,0,0,0,.8,1.5,1.1,1.1,0,0,0,1.3-1,1.2,1.2,0,0,0-.7-1.5A1.3,1.3,0,0,0,98.2,256.3Z"/><path class="cls-16" d="M93.8,257.6s1.9.7,2.1,1.3a2.8,2.8,0,0,1-1,2.5c-1,.8-2.9.3-3.5-.1a3.4,3.4,0,0,1-.4-3.2C91.6,257.1,93.8,257.6,93.8,257.6Z"/><path class="cls-5" d="M94.4,259.1s0,.8-.2.9l-.9.3a1.1,1.1,0,0,1-1.1-.6h-.1a2.4,2.4,0,0,1-.2-1,3.5,3.5,0,0,1,1.2-.1A3.1,3.1,0,0,1,94.4,259.1Z"/><path class="cls-5" d="M114.8,268.1c.8-.8,4.2-1.9,6.9-3.8,1.1-.8,3.4-2,5.5-3.2a13.5,13.5,0,0,1,4.1,3.3c-3.9,1.9-8.2,3.7-8.8,4.3s-3.4,4-3.9,4-4.2-1.1-4.8-1.7S114.1,268.8,114.8,268.1Z"/><path class="cls-6" d="M127.2,261.1c2.8-1.5,5.4-3.1,5.7-4.6s-1.8-14.2-.5-16.4a16,16,0,0,1,4.1-4.1,4,4,0,0,1,2.6,3c.4,2-.4,19.9-.9,21.5s-3.3,3.8-6.7,5.4C130.4,264.6,128.8,262,127.2,261.1Z"/><path class="cls-5" d="M99,285.3l-10.9,2.8s-3.2,2.4-4.7,2.8-3.2,2.1-2.8,2.6,2.1-1.2,2.4-1.2-1,2.1-1.3,3.3-.6,2.6.1,2.5,1.3-3,1.3-3,1.1-2.2,1.3-2-.8,1.8-.8,1.8-.2,1.6-.3,2.2.3,1.7.7,1.2.1-1.3.3-1.9a13.2,13.2,0,0,1,1.2-2.2s-.8,3.7-.3,3.8,1.1-3,1.1-3,1.3-2.6,1.8-2.8,2.1-1.2,3.2-1.6,6,.9,8.2,1,5.7-1.3,5.9-3a2.1,2.1,0,0,0-.7-1.7A5.5,5.5,0,0,0,99,285.3Z"/><path class="cls-33" d="M98.1,264.5s3.3-.6,6.3,4.8,1,19.3,1,19.3L99,285.3Z"/><path class="cls-5" d="M112.8,269.2c-.4,0-2.4.1-2.7-.2s1-1.2,1.2-1,.7-.2.9,0,.8,0,.9.1S113.2,269.2,112.8,269.2Z"/><path class="cls-5" d="M133.3,230.4a34,34,0,0,0-.6,5.4c.2,1.5-.5,6.3-3.5,6.3s-1-5-.7-6.5.7-7.2.7-7.2Z"/><path class="cls-12" d="M129.1,230.6a13,13,0,0,1,.2-2.3l4,2.1a14,14,0,0,0-.3,1.8A3.5,3.5,0,0,1,129.1,230.6Z"/><path class="cls-5" d="M133.4,219.3a5,5,0,0,1,2.6,2.5c.9,1.8,1.2,6.9-2.5,8.9s-6.2-1.6-5.9-4.9S128.8,218.2,133.4,219.3Z"/><path class="cls-5" d="M126.5,224.9c-.1.8.2,1.5.6,1.6s.9-.6,1-1.5-.2-1.5-.6-1.6S126.6,224,126.5,224.9Z"/><path class="cls-5" d="M135.7,226.3c-.4.8-.2,1.7.3,1.9s1.2-.2,1.6-1,.1-1.7-.4-1.9S136,225.5,135.7,226.3Z"/><path class="cls-5" d="M191.7,213.7s-7.9-14.2-9.9-17.2-7-15.1-7.2-15.6,3.5-6.1,2.7-6.3-1.7,3-2.6,2.6-3.4-8.1-3.9-7.7,1.4,4.8.9,5-2-4.4-3-4.3,1.9,4.3,1.6,4.7-3.2-3.6-3.8-2.7,2.7,3.4,2.2,3.7-3.3-1.6-3.5-1.1,2.4,1.3,3.2,2.8,2.2,2.2,2.8,4.9,1.5,12.9,4.4,17.9l9.5,16.1Z"/><path class="cls-5" d="M227.1,282.4l-.9-1.1-.8-1.4s-2-3.8-1.7-3.9,1,.3,1.2.5l.7.6a.5.5,0,0,0,.7,0c.3-.3-.3-1.2-.6-1.5s-3.8-2.7-4.1-2.9-2.5-7.4-3.4-9.8h0c-1.4-4-2.7-8.2-2.8-8.6l-.9-18-6.7-2.3s.7,20.1.8,21.1,4.1,9.4,4.1,9.4l4.6,8.8s.5,2.5.7,4.1a10.3,10.3,0,0,0,1.2,3.4,9.9,9.9,0,0,0,1.5,3.2c.9,1.4.7-.4.7-.4s-1.4-2.8-1.1-2.9.8,1.6,1.8,3.1l.8,1.1c.7,1,1.4.8.9-.3s-.5-1-.8-1.4a9.1,9.1,0,0,1-.7-1.4c-.4-.8-.7-1.4-.6-1.4s0-.2.3.2.9,1.7,1.5,2.4l1,1.2s1.2,1.3,1.3,1.2-.1-1.4-.7-1.9a6,6,0,0,0-.8-1.3s-1.1-2.1-.8-2.3,3.7,4.5,4.1,4.2S227.1,282.4,227.1,282.4Z"/><path class="cls-16" d="M215,212.1a23.2,23.2,0,0,0-2.2-11.5c-1.5-3.1-5.2-4.9-8.7-4.9-10.8-.1-12.2,14.3-19.1,19.8-2.1,1.7-4.5,3.1-6.5,4.9-7.3,6.7-4,19.2,2.7,25.1,4.7,4.1,12.1,6.4,17.9,3.2a16.9,16.9,0,0,0,7-7.5c2.3-4.3,3.8-9.3,5.5-13.9S214.8,217.3,215,212.1Z"/><path class="cls-5" d="M181.1,338.8s-.8,5.3-2.1,7a11.5,11.5,0,0,0-1.8,2.3,6.7,6.7,0,0,0,.3,5.4c.3.7-.1.7.6.9a4.5,4.5,0,0,0,5.3-2.5,12.5,12.5,0,0,0,1-4.5c.2-4.8,1.7-7.2,1.7-7.2Z"/><path class="cls-5" d="M204.1,341.2s.5,6,.1,7.9-1.4,3.2-.8,4.2a2.3,2.3,0,0,0,1.1,1.2l13.6.2c.7,0,.2-.4-.4-.9a26.2,26.2,0,0,0-4.9-2.7l-1.2-.7a10.1,10.1,0,0,1-1.9-1.7c-1-1.1-1.1-6.4-1.1-6.4Z"/><path class="cls-9" d="M214.7,261.9s1.7,9.7.6,16-6.5,65.3-6.5,65.3l-6,.3s-1.3-24.6-1-28a52.2,52.2,0,0,1,2-9.2l-.6-19.8,7.5-26.1Z"/><path class="cls-10" d="M197.1,259.8s-4.7,7.1-5.8,13,.8,23.9-1.4,31.6c-1.2,4.1-5.6,10.6-6.3,15.9s-3.3,19.5-3.3,19.5l6,1.2,13.9-35.2,11-31.8,2.7-16.4Z"/><path class="cls-11" d="M200.9,219.5s-6.2-.4-8.7,2.3,5.5,24,5.9,27.4-2.3,12.5-2.3,12.5,14.7,2.9,18.9.2c0,0,.5-24.6,0-27.1s-4.2-12.4-5.1-13.3S200.9,219.5,200.9,219.5Z"/><path class="cls-5" d="M203,211.2a1.8,1.8,0,0,1-.1.5c-.3,1.5-1.3,6.4-2.1,7.8s3,6.9,6.8,6.3c1.1-.2-1-4.9-.9-5.3s.5-2.3.7-3.6.3-1.5.5-2.2.7-3.7.7-3.7Z"/><path class="cls-12" d="M202.9,211.7a1.8,1.8,0,0,0,.1-.5l5.6-.2s-.3,1.7-.7,3.7-.3,1.5-.5,2.2a5.8,5.8,0,0,1-2.6-1.3,7.5,7.5,0,0,1-2.1-3A5.1,5.1,0,0,0,202.9,211.7Z"/><path class="cls-5" d="M206.8,198.5a5.1,5.1,0,0,0-4.3,1.8c-1.7,2.2-3.5,8.7.6,12.3s8.2-.4,8.8-4.7S212.7,198.3,206.8,198.5Z"/><path class="cls-5" d="M213.1,207.8c-.5.9-1.3,1.5-1.8,1.2s-.6-1.3-.1-2.3,1.3-1.5,1.8-1.2S213.6,206.8,213.1,207.8Z"/><path class="cls-16" d="M207.1,197.8s-3.6,6.3-6.1,6.6-2.8,3.6-2.8,3.6.9-7.7,3.4-9.2A9,9,0,0,1,207.1,197.8Z"/><path class="cls-8" d="M183.8,350.9a6.7,6.7,0,0,1-6.6-2.8c-.8,1.6-1.2,4.1-.6,5.4s2.1,1.1,3.3,1.2a3.3,3.3,0,0,0,3-1.9A11.4,11.4,0,0,0,183.8,350.9Z"/><path class="cls-8" d="M211.6,350.4a12.3,12.3,0,0,1-7.7-.3c-.4,1.1-.9,2.4-.6,3.2s.8,1.2,1.2,1.2l14.5.3a.4.4,0,0,0,.3-.7C218.7,353.3,211.9,350.6,211.6,350.4Z"/><path class="cls-5" d="M201.7,205.9c.2,1.1-.2,2.2-.9,2.3s-1.5-.6-1.7-1.7.2-2.2.9-2.3S201.5,204.8,201.7,205.9Z"/><path class="cls-6" d="M189.5,209.1s8.8,9.5,10.1,13.3-1.2,9.3-4.8,9.5-11.5-16.8-11.5-16.8Z"/><rect class="cls-14" x="183.6" y="77.5" width="19" height="13.22" rx="4.4" transform="translate(-13.5 43) rotate(-12.3)"/><polygon class="cls-14" points="184.4 85.9 180.1 92.8 186.7 90 184.4 85.9"/><path class="cls-24" d="M189.2,84l1.7-.4s1.7-2.1,1.7-2.6-.7-1.7-.4-1.9a1.1,1.1,0,0,1,1.5.1c.5.5.7,2.5.9,2.6l1.8-.3a1.1,1.1,0,0,1,1.2.4h0a.6.6,0,0,1,.1.8l-.3.4.3.3a.7.7,0,0,1,.1,1l-.2.3.2.2a.6.6,0,0,1,.1,1l-.2.2h.1a.6.6,0,0,1-.1.9l-.2.2-4.4,1.1h-1.3l-1.6.2c-.2,0-.3-.1-.4-.3l-.8-3.9C188.9,84.2,189,84,189.2,84Z"/><path class="cls-28" d="M230.7,39c8.9,1.6,15.3,7.4,14.3,12.9-.5,2.7-2.8,4.9-6,6.1l2.1,8.8-6.5-7.7a24.7,24.7,0,0,1-7.6-.3c-8.9-1.7-15.3-7.4-14.3-12.9S221.8,37.3,230.7,39Z"/><path class="cls-2" d="M234.8,51a5.6,5.6,0,0,1-7.6,2.7,5.7,5.7,0,0,1-2.7-7.7,5.7,5.7,0,0,1,10.3,5Z"/><path class="cls-35" d="M226.5,48a3.1,3.1,0,1,0,5.5,2.7Z"/><polygon class="cls-25" points="335.7 160.4 331.1 158.4 330 161.6 328.5 161.1 330.1 156.2 334.7 158.2 335.9 154.5 340.1 156.2 341.8 152.5 343.3 153.2 340.9 158.3 336.9 156.6 335.7 160.4"/></svg>