<svg id="Layer_1" data-name="Layer 1" xmlns="http://www.w3.org/2000/svg" viewBox="0 0 400 400"><defs><style>.cls-1{fill:#999;}.cls-2{fill:#3797db;}.cls-3{fill:#893976;}.cls-4{fill:#48c0c7;}.cls-5{fill:#9ed16f;}.cls-6{fill:#efac7f;}.cls-7{fill:#bf517e;}.cls-8{fill:#fe875e;}.cls-9{fill:#45258f;}.cls-10{fill:#612659;}.cls-11{fill:#fc6e95;}.cls-12{fill:#d19369;}.cls-13{fill:#5e2e0d;}.cls-14{fill:#2b6b93;}.cls-15{fill:#7772d6;}.cls-16{fill:#4e4c54;}.cls-17{fill:#646366;}.cls-18{fill:#f8a492;}.cls-19{fill:#3b77be;}.cls-20{fill:#282828;}.cls-21{fill:#96a65f;}.cls-22{fill:#c1851b;}.cls-23{fill:#e5a525;}.cls-24{fill:#a5a5a5;}.cls-25{fill:#fff;}.cls-26{fill:#62bdf3;}.cls-27{fill:#13375b;}.cls-28{fill:#ff48b1;}.cls-29{fill:#f48c7f;}.cls-30{fill:#466eb6;}.cls-31{fill:#f7a491;}.cls-32{fill:#efefef;}</style></defs><path class="cls-1" d="M224.2,369.8c0,4.9-14,8.9-31.2,8.9s-31.1-4-31.1-8.9S175.8,361,193,361,224.2,365,224.2,369.8Z"/><path class="cls-1" d="M161.9,355c0,4.8-32.3,8.8-72,8.8s-72-4-72-8.8,32.2-8.8,72-8.8S161.9,350.1,161.9,355Z"/><path class="cls-1" d="M313.4,355c0,4.8-16.6,8.8-37.2,8.8s-37.3-4-37.3-8.8,16.7-8.8,37.3-8.8S313.4,350.1,313.4,355Z"/><path class="cls-2" d="M146.7,98h-.2a.4.4,0,0,1,.1-.3,6.5,6.5,0,0,1,6.5-.2c.1,0,.1.2.1.3h-.3a5.9,5.9,0,0,0-6.1.2Z"/><path class="cls-3" d="M206,315.9c-77.1-40.3-103.4-82.1-111.7-110.4h49.5a29,29,0,0,1-3.9,12.7,11.5,11.5,0,0,0-1.6,6,11.7,11.7,0,1,0,23.4,0,12.2,12.2,0,0,0-1.7-6.1,29.4,29.4,0,0,1-3.8-12.6H206v46.1h.9a29.6,29.6,0,0,0,12.6-4,10.7,10.7,0,0,1,5.2-1.4,10.1,10.1,0,1,1,0,20.1,9.8,9.8,0,0,1-5.2-1.5,31.1,31.1,0,0,0-12.6-4H206Z"/><path class="cls-4" d="M207.7,262.5a28.7,28.7,0,0,1,11,3.7,11.6,11.6,0,0,0,6,1.7,11.8,11.8,0,1,0,0-23.5,11.6,11.6,0,0,0-6,1.7,28.7,28.7,0,0,1-11,3.7V205.5h58.6v-.8a30.4,30.4,0,0,0-4.1-16.4,10.1,10.1,0,1,1,18.7-5.2,9.3,9.3,0,0,1-1.5,5.2,30.4,30.4,0,0,0-4.1,16.4v.8h44.1c-8.4,28.3-34.7,70.1-111.7,110.4Z"/><path class="cls-4" d="M207.5,316.2V262.3h.2a29.7,29.7,0,0,1,11.1,3.7,11.2,11.2,0,0,0,5.9,1.7,11.6,11.6,0,1,0,0-23.1,11.2,11.2,0,0,0-5.9,1.7,29.7,29.7,0,0,1-11.1,3.7h-.2V205.3h58.6v-.6a30.2,30.2,0,0,0-4.1-16.3,10.8,10.8,0,0,1-1.5-5.3,10.3,10.3,0,0,1,20.6,0,9.9,9.9,0,0,1-1.5,5.3,31.1,31.1,0,0,0-4.1,16.3v.6h44.2v.2c-8.3,28.1-34.4,70.1-111.8,110.5Zm.4-53.5v52.8c76.8-40.2,102.9-81.8,111.2-109.8h-44v-1a30.7,30.7,0,0,1,4.1-16.5,9.2,9.2,0,0,0,1.5-5.1,9.9,9.9,0,0,0-19.7,0,10,10,0,0,0,1.4,5.1,30.7,30.7,0,0,1,4.1,16.5v1H207.9v43.8a28.9,28.9,0,0,0,10.7-3.6,12,12,0,1,1,0,20.5A27.3,27.3,0,0,0,207.9,262.7Z"/><path class="cls-5" d="M150,234.3a10.1,10.1,0,0,1-10.1-10.1,9.8,9.8,0,0,1,1.5-5.2,31.1,31.1,0,0,0,4.1-14.3v-.9H93.8a87.8,87.8,0,0,1-3.3-23.6c0-18,5.7-34.9,16.1-47.5s25.5-20.2,41.6-20.2a70.2,70.2,0,0,1,43.4,15.2A72.6,72.6,0,0,1,206,142.8v21.3a27.1,27.1,0,0,1-10-3.5,12.2,12.2,0,0,0-6.1-1.7,11.8,11.8,0,0,0,0,23.5,12.2,12.2,0,0,0,6.1-1.7,29.2,29.2,0,0,1,10-3.6v26.7H154.5v.9a31.1,31.1,0,0,0,4.1,14.3,9.8,9.8,0,0,1,1.5,5.2A10.1,10.1,0,0,1,150,234.3Z"/><path class="cls-6" d="M148.5,108.1c-2.3.4-2.2.7-2.5.8s-4.6-2.1-4.6-2.1-12.7-6.2-13.3-6.6l-9.2-11.4-7,3.2s10.3,12.2,10.9,12.7,18.8,6.9,20.4,7.5l2.6,2.3a9.8,9.8,0,0,0,2.7,1.4,7.2,7.2,0,0,0,2.8,1c1.4.3.2-.6.2-.6s-2.4-1.1-2.3-1.3,1.4.5,2.9.9l1.1.2c1,.3,1.4-.3.4-.7l-1.3-.4-1.2-.4-1.2-.5c0-.1-.1-.2.4-.2s1.5.6,2.2.7l1.3.2s1.6.1,1.6-.1-.9-.7-1.5-.7a5.3,5.3,0,0,0-1.3-.3s-1.8-.8-1.7-1a10.1,10.1,0,0,1,2.3.1c1.2.1,2.1.1,2.2-.1s-.9-.6-.9-.6l-1.2-.2-1.3-.3s-3.3-1.3-3.2-1.5a1.7,1.7,0,0,1,.9-.8c.3,0,.7.3.9.3s.8-.1.8-.4-1.3-.9-1.3-.9A4.2,4.2,0,0,0,148.5,108.1Z"/><path class="cls-7" d="M125.3,95.9l-3.2,2.7c-.8.6-4.7,2.4-4.7,2.4s-3.8-5.8-5.4-8.7-3.5-8.9-3-9a7.5,7.5,0,0,1,4.9.1C119.8,86.1,125.3,95.9,125.3,95.9Z"/><path class="cls-8" d="M146.3,111.1a2.1,2.1,0,0,0,2.5-.9C148.9,111.3,147.2,111.8,146.3,111.1Z"/><path class="cls-6" d="M88,184.7l-.2,4.4c-.1.6-.5,2-.5,2.5,0,2,8.6-1.6,6.7-2.5-.2-.1-1.1-.6-1.1-1.3s-.4-3.1-.4-3.1Z"/><path class="cls-9" d="M94,189.1a21.7,21.7,0,0,1-3.1.7c-1,.2-2.4-1.1-3.1-.7s-.8,3.7-.8,3.7,10.9.9,13.9,0C102.1,192.4,98.1,190.5,94,189.1Z"/><path class="cls-6" d="M74.2,184.4l-.2,4.5a18.4,18.4,0,0,0-.5,2.5c0,1.9,8.6-1.7,6.7-2.5-.2-.1-1.4-1.1-1.4-1.8s-.1-2.6-.1-2.6Z"/><path class="cls-9" d="M80.2,188.8l-3.1.8c-1,.1-2.4-1.1-3.1-.8s-.9,3.7-.9,3.7,10.8.5,14,0C88.3,192.3,84.3,190.2,80.2,188.8Z"/><path class="cls-3" d="M76.2,114.1s-1.5,7.5-.9,13.2.6,26,.6,26l-2.2,32.4H79s6.4-32.4,6.3-31.6,2.1-22.8,2.1-22.8l-7.6-18Z"/><path class="cls-10" d="M78.2,109.2s-6.6,6.9-4.2,14.5c1,3.1,10.2,32.1,10.4,34.5s3.1,28.7,3.1,28.7l6.2-.2,1.4-29.2-1.8-39.4-3.8-6.6Z"/><path class="cls-11" d="M118.3,86.7a64.8,64.8,0,0,0-6.9-5.9,23.6,23.6,0,0,0-3.9-2.8c-1.7-.6-4.6-2.1-8.8,4.2-2.9,4.5-21.8,27.8-24.9,28.6L94,120.5c.6-4.6,10.6-13.3,12-14.9C109.2,101.9,120.3,89,118.3,86.7Z"/><path class="cls-6" d="M117.4,76.9l-6.3,3.6s-.2,5.4,1.8,6.8,3.1-1.7,3.1-1.7,2.3-3.2,4.1-4.2S117.4,76.9,117.4,76.9Z"/><path class="cls-12" d="M116.3,79.2a14.3,14.3,0,0,0,1.6,4.1,9.3,9.3,0,0,1,2.2-1.9c.8-.5.3-1.5-.5-2.4a23.9,23.9,0,0,0-2.2-2.1l-1.3.7A8.8,8.8,0,0,0,116.3,79.2Z"/><path class="cls-6" d="M120.6,67.7c-.1-.2-5.2,6.2-4.6,9.2s3.8,5.8,5.9,5,6.9-8.3,5.3-12S120.6,67.7,120.6,67.7Z"/><path class="cls-13" d="M126.3,65.6a9.8,9.8,0,0,0-8.7-.1c-3.4,1.7-4.1,6.2-3.1,8.9s-.1,4.2-.1,4.2l1.8-1a8.9,8.9,0,0,0,1.1-3c.2-1.3,2.1-1,3-1.6s1.6-2,2.8-2.7,2.9-.4,4.3.4S129.5,67.4,126.3,65.6Z"/><path class="cls-6" d="M136.3,117.5a7.8,7.8,0,0,0-2.8-.1c-.4-.1-4.2-3.4-4.2-3.4l-12-10.2-6.2-13.7-8.3,1.2s7.7,16.2,8.2,16.9,17.5,10.5,18.9,11.6l2.1,3a11.1,11.1,0,0,0,2.5,2.1,8.4,8.4,0,0,0,2.6,1.8c1.3.7.3-.6.3-.6s-2.2-1.7-2-1.8,1.3.9,2.7,1.6l1.1.6c.9.5,1.4.1.6-.6l-1.3-.8-1.1-.8-1.1-.8c.1,0,0-.2.4,0s1.4,1,2.1,1.3l1.3.5h1.3c.3-.4-.5-.7-1.1-.8a5.7,5.7,0,0,0-1.2-.7s-1.7-1.2-1.5-1.5l2.2,1.1c1.4.5,2.1.2,2.2,0s-.7-.6-.7-.6a6.3,6.3,0,0,1-1.4-.4c-.3-.1-4-2.9-3.8-3.2s.7-.2.9-.1l.9.3a.7.7,0,0,0,.8-.5c.1-.2-.8-.8-.8-.8A5,5,0,0,0,136.3,117.5Z"/><path class="cls-7" d="M104.1,98s2.4-.8,3.9-1.5l5.5-2.6s-1.9-8.1-3.2-11c-4.8-10.6-10.2-3.3-10.9-1.6C97.8,85.2,104.1,98,104.1,98Z"/><path class="cls-14" d="M277,203.8a28.8,28.8,0,0,1,3.9-14.6,11.8,11.8,0,1,0-20.1,0,29.8,29.8,0,0,1,3.9,14.6h-57V175.2h-1a30.1,30.1,0,0,0-11.6,3.9,9.8,9.8,0,0,1-5.2,1.5,10.1,10.1,0,0,1,0-20.2,10.8,10.8,0,0,1,5.2,1.5,30.1,30.1,0,0,0,11.6,3.9h1V142.8a71.7,71.7,0,0,1,57.7-30.3c16.2,0,31,7.2,41.7,20.2s16.1,29.5,16.1,47.5a87.8,87.8,0,0,1-3.3,23.6Z"/><path class="cls-15" d="M320.2,241h-17a1.6,1.6,0,0,1-1.6-1.5h0a1.6,1.6,0,0,1,1.6-1.5h17a1.6,1.6,0,0,1,1.6,1.5h0A1.6,1.6,0,0,1,320.2,241Z"/><path class="cls-9" d="M321.9,243.4H301.5a1.4,1.4,0,0,1-1.5-1.5h0a1.5,1.5,0,0,1,1.5-1.5h20.4a1.5,1.5,0,0,1,1.5,1.5h0A1.4,1.4,0,0,1,321.9,243.4Z"/><path class="cls-6" d="M262,345.4s-1.6,1.5-1.6,2.1-.1,6.7.5,7.3,2.5.9,1.9,1.6-4,.4-6.3.2c-.7,0-1.5-5.5-1.8-6.3s-1.8-3.8-1.5-4.6a12.5,12.5,0,0,1,2.7-2.1,11.3,11.3,0,0,0,2.4-2.6Z"/><path class="cls-6" d="M283,349.2l-1.4,4c-.1.7-.5,2.3-.5,2.8,0,2.2,9.7-1.8,7.5-2.8a2.6,2.6,0,0,1-.8-1.5,5.1,5.1,0,0,1,.8-2.6Z"/><path class="cls-16" d="M296.4,272.7l3.5,9.1s2.3,21.7,1,34.7c-.6,5.4-12.6,34.5-12.6,34.5l-6-.8,8-34.5-3-13.2-4.1-26Z"/><path class="cls-17" d="M279.9,273.2l-3,10.1-4.6,30.6-15.5,28.6s2.3,3.5,4.8,4.1l22-28.9,11.9-36.2-.4-8Z"/><path class="cls-18" d="M326.2,256.3c-1.9.8-1.7,1.1-1.9,1.2s-4.1-1.1-4.1-1.1l-11.8-3.6-9.4-9.1-5,4.4s10.5,9.5,11.1,9.9,16.2,2.9,17.6,3.2l2.5,1.7a8,8,0,0,0,2.4.8,5.9,5.9,0,0,0,2.4.4c1.2,0,.1-.6.1-.6s-2.1-.5-2.1-.7,1.2.2,2.5.2h.9c.8.1,1-.5.2-.7l-1.1-.2-1-.2-1.1-.2s-.1-.2.3-.2a10.1,10.1,0,0,0,1.9.2h1.1l1.2-.2c0-.5-.9-.7-1.4-.5h-1.1s-1.5-.3-1.5-.6,3.9-.3,3.9-.8-1.1-.4-1.1-.4h-2.1s-2.9-.5-2.8-.8a1.6,1.6,0,0,1,.5-.8c.2-.1.6.1.8,0s.4-.3.4-.6-1-.5-1-.5A3.2,3.2,0,0,0,326.2,256.3Z"/><path class="cls-19" d="M302.4,246l-4.7,6.4s-4.2-5-6.1-7.5-4.8-7.3-4.4-7.5a4.8,4.8,0,0,1,3.9-.9C296.3,237.8,302.4,246,302.4,246Z"/><path class="cls-9" d="M256,343.6s3.3,10.1,4.7,10.6,2.5.7,2.8,1.5h0c.2.5-.3,1-.8,1H256s-1-4.6-1.4-6.6c0,0-2-4.9-1.7-5.3S256,343.6,256,343.6Z"/><path class="cls-9" d="M280.6,356.8l1.1-3.6a8.9,8.9,0,0,0,3.5.8,24.9,24.9,0,0,0,3.4-.8c4.7,1.6,8.5,2.3,7.8,3.6H280.6Z"/><path class="cls-8" d="M324.7,259.4a2.3,2.3,0,0,0,2.1-1.3A1.5,1.5,0,0,1,324.7,259.4Z"/><path class="cls-2" d="M281.1,236.3a63.4,63.4,0,0,0-7.5,1.2c-1.6.6-3.7,5.7-3.7,5.7s8.5,24.7,8.2,29.1-1.3,10.9-1.3,10.9,16.8,1.1,23.2-1.4c0,0-2.1-10-2.1-12.6s-1.1-28.9-1.9-30.3-2.4-2.1-5.5-2.8S281.1,236.3,281.1,236.3Z"/><path class="cls-6" d="M282.2,228.9l-1.1,7.4s3.4,3.9,5.8,3.1,1.5-3.5,1.5-3.5-1.1-4.2-.8-6.2S282.2,228.9,282.2,228.9Z"/><path class="cls-12" d="M287.6,229.7c.4-2.1-5.4-.8-5.4-.8v.6a5.4,5.4,0,0,0,.6,1.1,7.6,7.6,0,0,0,5.1,2.2A11.5,11.5,0,0,1,287.6,229.7Z"/><path class="cls-6" d="M281.3,218.6c-.2-.1-1.3,8.3.8,10.6s6.4,3.1,7.9,1.3,1.6-11.1-1.7-13.5S281.3,218.6,281.3,218.6Z"/><path class="cls-20" d="M287,212.5a9.6,9.6,0,0,0-4.9,2.8c-1.2.2-2.8.8-4.5,3.5a6.8,6.8,0,0,0,1.9,8.9,5.5,5.5,0,0,1,2.3,4l.4-1.1a7.7,7.7,0,0,0,.3-2.6,6.6,6.6,0,0,0-.4-1.5c-.6-1.3,1.2-2.1,1.7-3.1s.4-2.6,1-3.8l.8-1a4.9,4.9,0,0,1,3.3-1C290.5,218,290.3,211.9,287,212.5Z"/><path class="cls-6" d="M283.7,224.9c0,1-.4,1.9-1,1.9s-1.1-.8-1.2-1.9.5-1.8,1.1-1.8S283.7,223.9,283.7,224.9Z"/><rect class="cls-21" x="291.3" y="242.5" width="33.9" height="29.41" transform="translate(616.5 514.4) rotate(180)"/><rect class="cls-5" x="312.4" y="242.5" width="29.4" height="29.41" transform="translate(654.2 514.4) rotate(180)"/><path class="cls-6" d="M311.8,271.3c-1.7-.5-21.5-5.6-22.3-6.1s-13-11.9-13-11.9l7.1-3.7,10.9,10.8,14.8,5.6a36.1,36.1,0,0,0,4.7,1.7,11.1,11.1,0,0,1,3-.9,3.7,3.7,0,0,1,1.7.1s1.3.4,1.2.7a.5.5,0,0,1-.5.5c-.3.1-.7-.1-1-.1s-.7.5-.8.8,3.4,2.7,3.5,3,4.3-.2,4.1.1-.5.3-.5.4-6,1.9-6.4,1.8Z"/><path class="cls-19" d="M280.3,258.5l8.1-5.2s-9.4-14.1-12.5-15.6-4.9.5-6,4.2S280.3,258.5,280.3,258.5Z"/><path class="cls-15" d="M338.9,249.1l-1.4,1.3v-7.6a1.4,1.4,0,0,0-1.4-1.4H324.2a1.5,1.5,0,0,0-1.5,1.4v8.9l-1.4-2.6-5.1,1.5s4.1,7.7,6.5,8.9,11.5,1.7,14.8,0,5.5-7.1,5.5-7.1Z"/><path class="cls-9" d="M334.4,260.5c-.3-2.7-2.1-4.7-4.2-4.7s-4,2-4.2,4.7A29.6,29.6,0,0,0,334.4,260.5Z"/><path class="cls-13" d="M263.4,46.1c-1.2,2.1-3.4,2-5.7,2.6s-2.5,3-2.4,4.9c.4,4.9-3.5,4.1-6.6,6.1-7.4,4.9-2.6,17.7,5.5,18.5a9.2,9.2,0,0,0,4.9-.9,22.3,22.3,0,0,1,3.3-2c2.8-.9,5.8-1.3,8-3.4s.5-4.5,1.3-6.7,4.3-1.1,5-5.6-.1-9.2-1.9-11.6c-3-4.1-8.3-4.3-10.2-3.1A4.5,4.5,0,0,0,263.4,46.1Z"/><path class="cls-6" d="M297.5,55.4c-.3-.6-2.8,1.2-3.4.8s2.3-3.2,2-3.7-3.3,3-3.6,2.5,2.4-4.6,1.5-4.8-2.4,4.6-2.9,4.3,1.7-4.4.8-5.2-2.9,7.5-3.7,7.8-1.8-3.1-2.6-3,2.6,6.3,2.4,6.8-3.3,10.7-5.1,13.7L279.6,73c-.4,2.4-.4,4.9-1,7.2,3.6,1.5,6.8,2.7,7.9,2.3,3.2-1.2,4.7-16.6,5.2-19.5s1.9-3.4,2.7-4.9S297.8,56,297.5,55.4Z"/><path class="cls-15" d="M271,68.4l-5.4,5.3s7.1,3.8,13,6.5c.6-2.3.6-4.8,1-7.2C274.7,70.5,271,68.4,271,68.4Z"/><path class="cls-6" d="M304.1,128a43.5,43.5,0,0,1,4.3,5.9,6.8,6.8,0,0,0,.2,1.4c3.6,2.4,7.4,1.7,10.6.7-2.1-.9-5-1.9-5.2-2.4a37.8,37.8,0,0,1-4.5-7.7C307.9,127.5,306.3,127.3,304.1,128Z"/><path class="cls-2" d="M308.4,134.1c-.3,1.4-.2,4.4.1,4.4s12.5,1.9,14.1.3-.8-1.6-3.4-2.8C316,137,308.5,135.1,308.4,134.1Z"/><path class="cls-6" d="M305.2,139a49,49,0,0,1,4.2,5.9c.1.2.1,1.2.2,1.4,3.6,2.4,7.5,1.7,10.6.7-2-.9-4.9-1.9-5.2-2.4a51.9,51.9,0,0,1-4.5-7.7C308.9,138.5,307.4,138.3,305.2,139Z"/><path class="cls-2" d="M309.4,145.1c-.3,1.4-.2,4.4.1,4.4s12.6,1.9,14.1.3-.8-1.6-3.4-2.8C317.1,148,309.5,146,309.4,145.1Z"/><path class="cls-22" d="M311.1,127.8l-6.3,2.2-34.1-28.3a230.4,230.4,0,0,1,23.2,1.4C298.4,103.6,311.1,127.8,311.1,127.8Z"/><path class="cls-23" d="M257.9,99.4a17,17,0,0,0-1.1,3.7c-.3,4.2,1.8,9.6,4.2,10.4s17.2,4.9,26.1,3.7L306.5,143l6.4-2.9-15.1-26.5s-2.9-4.6-5.3-5.6-21.8-6.3-21.8-6.3l-3-4.4Z"/><path class="cls-15" d="M273.6,72.6c-1.1-1.9-2.2-3.5-2.2-3.5-1.1-2-4-3-4-3h-2l-.2.4c-.4.3-2.8-.1-4.3.9-5.2,4.4-3.8,25.8-3.4,32.6l12.5.4s1.2-14.8,4.4-18.6S275.2,75.6,273.6,72.6Z"/><path class="cls-6" d="M266.5,58.9a61.1,61.1,0,0,1-1.4,7.6c-.6,1.5,3.3,4.7,6.5,5.7s-1-3.3-.8-4.9.7-9.2.7-9.2Z"/><path class="cls-12" d="M271.3,60.3c.1-1.3.2-2.2.2-2.2l-5,.8s-.1.7-.2,1.7A4,4,0,0,0,271.3,60.3Z"/><path class="cls-6" d="M268.1,47.6a6,6,0,0,0-3.2,2.3c-1.2,1.9-2,7.3,2,9.8s7-1,7.1-4.5S273.3,47,268.1,47.6Z"/><path class="cls-6" d="M274.9,54.1c-.4.8-1,1.4-1.5,1.2s-.6-1.1-.3-1.9,1-1.4,1.5-1.2S275.2,53.2,274.9,54.1Z"/><path class="cls-6" d="M264.9,54.8a1.5,1.5,0,0,1-.6,2c-.6.2-1.4-.4-1.6-1.3s-.1-1.8.5-2S264.6,53.9,264.9,54.8Z"/><path class="cls-24" d="M281.3,75H283c2.2-.2,1.3,3,1.3,3s-1.1-1-1.5-1h-1Z"/><path class="cls-24" d="M288.7,96.6s.9,1.4,1.9.7,2.8-1.8,3.1-.9.3,1.7-.1,1.9a13.8,13.8,0,0,1-4.4,1.7,3.4,3.4,0,0,1-2.5-1.3Z"/><path class="cls-25" d="M290.8,99.7a6.4,6.4,0,0,0-.8-3.3c-1.6-2.7-8.1-9.9-9.1-10.5s-.3-2.7-.3-2.7l-3.8-2.1L274.7,80l-4.9,7.6c-.3.7.3,2.9-.2,4.2s0,8.5-.6,9.3-1,.6-1.2.9-.1.4.1.6,3.2.1,3.2.1,1.1-1.6.9-2.5.4-6.3.8-6.3,1.8,2.4,2.4,2.9h.2a11.3,11.3,0,0,1,4,1.2,2.9,2.9,0,0,1,.2,1.2,6.2,6.2,0,0,1-.1,1.3,11.5,11.5,0,0,1-.2,2.1h2a3.7,3.7,0,0,1,3.1-1.7,3.7,3.7,0,0,1,3.1,1.5c1.1,0,1.5.5,2.5.4A24.9,24.9,0,0,0,290.8,99.7Z"/><path class="cls-25" d="M281.7,75.3a1.8,1.8,0,0,0-1.6-.5,6.4,6.4,0,0,1-1.4,0c-1.5-.1-2.9,0-3.8.9s-1.1,4.2,0,5.7,3.9,2,4.2,2.7,2.8,1,3.1.1a.9.9,0,0,0,.7.1,1.6,1.6,0,0,0,1-2.2c-.4-1-1.8-3.1-1.5-4.9A2.2,2.2,0,0,0,281.7,75.3Z"/><path class="cls-24" d="M281.1,81.6a.4.4,0,0,0,0,.6,4.1,4.1,0,0,0,1.2,1.1c.5.4,1.1-1,1.1-1.6S282.1,80.6,281.1,81.6Z"/><path class="cls-24" d="M280.5,91.4a.5.5,0,0,0-.5-.5h-.1a2.6,2.6,0,0,0-2.3,3v.2c-.1.2-.5,1.1-1,2l2.7.7,1.3-2.2Z"/><path class="cls-24" d="M275.4,98.4a41.4,41.4,0,0,0-1.3,4.3c.8.4,1.3-.5,3.2,0,0-.3.7-2.6.7-3.2a16.9,16.9,0,0,1,1.5-2.7c0-.1,0-.2-.1-.2l-2.7-.9h-.3Z"/><path class="cls-24" d="M273.3,102.4a1.8,1.8,0,0,1,1.7-1c.9,0,2.3,1.3,2.3,1.3a2.7,2.7,0,0,1-1.6.4C274.5,103.1,272.9,103.2,273.3,102.4Z"/><path class="cls-24" d="M278.5,102.2a1.8,1.8,0,0,1,1.7-1,3,3,0,0,1,1.1.4.7.7,0,0,1-.4,1.3h0C279.7,102.9,278.1,103,278.5,102.2Z"/><path class="cls-24" d="M286.7,102.2a2.3,2.3,0,0,1,2-1,4.3,4.3,0,0,1,1.4.4.7.7,0,0,1-.4,1.3h-.1C288.2,102.9,286.2,103,286.7,102.2Z"/><path class="cls-24" d="M277.9,76a.9.9,0,0,1,0-1.2,3.9,3.9,0,0,0-3,.9c-1,.9-1.1,4.2,0,5.7s3.3,1.9,4,2.5c.7-1.2-.4-2.2-.6-2.8s1.2-2,1.4-3.1S278.5,76.6,277.9,76Z"/><path class="cls-25" d="M275.9,75.1a3.6,3.6,0,0,1-2.1-.1c-1.1-.4-2.3,1.6-2.3,1.6a11.4,11.4,0,0,0,1.9,2.9C274.3,80.1,275.9,75.1,275.9,75.1Z"/><path class="cls-6" d="M290.5,94.7c0-.5-1.6-2-2.3-1.8L284.5,95l-13.1-3s-3.3-7.6-3.7-14.1a18.3,18.3,0,0,0-6.9,2.4c1.1,6.2,3.9,16.2,7,18.1,1.3.8,16.8-.9,16.8-.9a21.9,21.9,0,0,0,4,.2C291.9,96.8,290.5,95.7,290.5,94.7Z"/><path class="cls-9" d="M267.8,71c-.4-2-.9-3.9-3-4.6a4.3,4.3,0,0,0-3.8.9,5,5,0,0,0-1.6,4.2,62.3,62.3,0,0,0,.9,10.6c2.4-1.3,5.8-1.1,8.6-1.5A40.8,40.8,0,0,0,267.8,71Z"/><path class="cls-15" d="M161.5,60c-1.4,7.3-5.8,22.8-13.1,22.6-.3-10.1-.8-18.8-1.5-21.6l-.6-1.6c4.5.4,7.2-6.5,8.3-11.3-1,3.1-3,8-5.8,9.6a3,3,0,0,1-3.1.3c-2.6-4.8-7.6-8.1-9.9-11s-.7-11.6-.3-14.5a52.7,52.7,0,0,0-1,11.9c.3,3.9,2.4,4.2,7,9.5s5,6.4,5.2,22.3h-1.1c-3.8.1-7.3-3.6-9.2-6.8,1.5,2.9,4.2,6.3,7.4,7.3l1.8.3h1.1c0,1.4.5,28.8.1,46.5,1.1,0,.9-.5,2-.4,0-4.8.2-22.7-.3-38.5C156.9,84.3,160.5,68.7,161.5,60Z"/><path class="cls-21" d="M130.6,35.8a6.8,6.8,0,0,0,4.3,1l-6.3-5A6.8,6.8,0,0,0,130.6,35.8Z"/><path class="cls-5" d="M128.6,31.8l6.3,5a6.4,6.4,0,0,0-2-3.9A6.4,6.4,0,0,0,128.6,31.8Z"/><path class="cls-21" d="M159.5,81.4a6.4,6.4,0,0,0,3.9-2l-8,.3A6.4,6.4,0,0,0,159.5,81.4Z"/><path class="cls-5" d="M155.4,79.7l8-.3a5.3,5.3,0,0,0-8,.3Z"/><path class="cls-21" d="M161.8,73.4a5.2,5.2,0,0,0,1.9-3l-5.5,3.5A5.2,5.2,0,0,0,161.8,73.4Z"/><path class="cls-5" d="M158.2,73.9l5.5-3.5a5.2,5.2,0,0,0-3.6.5A4.9,4.9,0,0,0,158.2,73.9Z"/><path class="cls-21" d="M154,73.1a4.9,4.9,0,0,0,2.6,2.5l-2.3-6.1A5.4,5.4,0,0,0,154,73.1Z"/><path class="cls-5" d="M154.3,69.5l2.3,6.1a5.2,5.2,0,0,0,.3-3.5A5.8,5.8,0,0,0,154.3,69.5Z"/><path class="cls-21" d="M136.3,40.4a4.7,4.7,0,0,0-1.6,2.8l4.9-3.4A5.4,5.4,0,0,0,136.3,40.4Z"/><path class="cls-5" d="M139.6,39.8l-4.9,3.4a4.7,4.7,0,0,0,3.2-.5A4.9,4.9,0,0,0,139.6,39.8Z"/><path class="cls-21" d="M155,54a4.9,4.9,0,0,0-3.1,1.1l5.9.5A4.5,4.5,0,0,0,155,54Z"/><path class="cls-5" d="M157.8,55.6l-5.9-.5a5,5,0,0,0,2.8,1.7A4.7,4.7,0,0,0,157.8,55.6Z"/><path class="cls-21" d="M137.5,72.6a4.7,4.7,0,0,0-3.1,1.2l5.9.4A5.1,5.1,0,0,0,137.5,72.6Z"/><path class="cls-5" d="M140.3,74.2l-5.9-.4a4.6,4.6,0,0,0,2.9,1.6A4.7,4.7,0,0,0,140.3,74.2Z"/><path class="cls-21" d="M140.5,71a4.5,4.5,0,0,0-2.3-2.3l2.1,5.5A4.5,4.5,0,0,0,140.5,71Z"/><path class="cls-5" d="M140.3,74.2l-2.1-5.5A4.9,4.9,0,0,0,138,72,4.2,4.2,0,0,0,140.3,74.2Z"/><path class="cls-21" d="M152.2,51.9a2.8,2.8,0,0,0-1.5-1.5l1.4,3.6A3,3,0,0,0,152.2,51.9Z"/><path class="cls-5" d="M152.1,54l-1.4-3.6a3,3,0,0,0-.1,2.1A2.8,2.8,0,0,0,152.1,54Z"/><path class="cls-21" d="M132.6,44a4.7,4.7,0,0,0-3.3.2l5.6,2.1A5,5,0,0,0,132.6,44Z"/><path class="cls-5" d="M134.9,46.3l-5.6-2.1a5.1,5.1,0,0,0,2.3,2.4A4.6,4.6,0,0,0,134.9,46.3Z"/><path class="cls-21" d="M152.1,123.2h.9v-34a.5.5,0,0,0-.5-.4h0a.4.4,0,0,0-.4.4Z"/><path class="cls-19" d="M142,124.4s4-4.8,7.2-3.4,3.7-1.1,5.4-.3a18.7,18.7,0,0,1,3.8,2.8Z"/><path class="cls-2" d="M149.7,98.8a6.5,6.5,0,0,1-3.1-.8.4.4,0,0,1-.1-.3h.3a5.5,5.5,0,0,0,6-.2c.1-.1.3,0,.3,0s.1.3,0,.3A5,5,0,0,1,149.7,98.8Z"/><path class="cls-2" d="M146.8,98l-.3-.2c-.3-.2-2.8-1.6-2.9-2.8a.8.8,0,0,1,.4-.7,1.3,1.3,0,0,1,1.1-.3c1.2.5,1.6,3.3,1.7,3.6Zm-2-3.6-.6.2c-.1.1-.2.2-.1.4s1.3,1.7,2.2,2.2-.6-2.5-1.3-2.8Z"/><path class="cls-2" d="M144.2,100.6a.7.7,0,0,1-.5-.3c-.1-.3-.2-.5-.1-.7s2.3-1.6,2.6-1.7l.5-.2-.3.5c-.2.4-1.3,2.4-2.2,2.4Zm1.5-2.1a4.6,4.6,0,0,0-1.7,1.2.4.4,0,0,0,.1.3c0,.2.1.1.1.1S145.2,99.3,145.7,98.5Z"/><path class="cls-2" d="M147,97.7c0,.2-.1.4-.3.4a.4.4,0,0,1-.4-.4c0-.2.2-.3.4-.3A.3.3,0,0,1,147,97.7Z"/><polygon class="cls-5" points="5.4 242 6.6 243.1 8.2 242.4 9.5 243.7 10.9 242.5 12.5 243.9 13.9 242.9 15.7 244 15.3 244.6 14 243.8 12.4 244.9 10.9 243.5 9.5 244.8 8 243.3 6.5 244 5.3 243 4.5 243.7 4 243.1 5.4 242"/><polygon class="cls-5" points="187.3 42.4 182.2 41.2 180.8 44.9 175.7 43.9 173.9 47.2 169.9 47 169.9 48.5 175.2 48.9 176.9 45.7 182.2 46.7 183.6 43.2 188.2 44.2 187.3 42.4"/><path class="cls-15" d="M333,125.3l1.9-3.1-1.6-3.3a.5.5,0,0,1,.6-.7l3.6.8,2.6-2.5a.5.5,0,0,1,.9.3l.3,3.6,3.2,1.8a.5.5,0,0,1-.1.9l-3.3,1.4-.7,3.6a.5.5,0,0,1-.9.2l-2.4-2.7-3.6.4A.5.5,0,0,1,333,125.3Z"/><path class="cls-15" d="M28,212.2a3.7,3.7,0,0,1,2.5-2.2,2.9,2.9,0,0,1,3.7,2.1c.6,1.8-.4,4.5-4,7.6-4.7-.6-7-2.3-7.5-4.2a2.9,2.9,0,0,1,2-3.8A3.8,3.8,0,0,1,28,212.2Z"/><path class="cls-15" d="M14,217.2a39.7,39.7,0,0,0,4.5-.9c.4-.1,1.3-.1,1.5-.6a.5.5,0,0,0-.2-.6c-.4-.3-1,0-1.5.1l-4.5.9c-.3,0-.5.4-.5.6a.6.6,0,0,0,.7.5Z"/><path class="cls-15" d="M37.8,215.1l2-.5a6,6,0,0,0,1.9-.6c.4-.3.3-.9-.2-.9a4.5,4.5,0,0,0-2,.4l-2,.5c-.7.2-.4,1.2.3,1.1Z"/><path class="cls-15" d="M22.2,224.3a7.4,7.4,0,0,1,2-3c.3-.4,0-.9-.5-.7s-2.2,2.1-2.6,3.4a.6.6,0,0,0,1.1.3Z"/><path class="cls-15" d="M30.6,225.9a4.6,4.6,0,0,1-.2-2c.1-.5.6-1.7-.2-1.7s-.9,1.2-.9,1.8a5.5,5.5,0,0,0,.2,2.2.6.6,0,0,0,1.1-.3Z"/><path class="cls-15" d="M35.2,220.4l1.2.6c.5.1.9.4,1.4.2a.5.5,0,0,0,.2-.6c-.2-.5-.8-.6-1.2-.7l-1.3-.6a.6.6,0,0,0-.3,1.1Z"/><path class="cls-15" d="M22.5,209.2c-2.2-3-2.2-3-2.6-3.2a.5.5,0,0,0-.7.5c.1.4.1.4,2.4,3.5a.5.5,0,0,0,.8.1c.3-.3.2-.6.1-.9Z"/><path class="cls-15" d="M28.4,207.8a12.8,12.8,0,0,0,.1-1.9c0-.6,0-1.4-.6-1.7h-.5c-.4.4-.1,1.2,0,1.7a9.7,9.7,0,0,1-.1,1.7.6.6,0,0,0,.6.6.5.5,0,0,0,.5-.5Z"/><path class="cls-15" d="M37,206.3a.4.4,0,0,0-.4-.5c-.5-.1-1,.5-1.3.8l-1.1,1.2c-.2.2,0,.6.2.8a.8.8,0,0,0,.8-.2C36.4,206.8,37,207,37,206.3Z"/><path class="cls-15" d="M377,167.2c-.6,4.4,3.9,7.8,7.9,7.5a9.8,9.8,0,0,0,8.8-8.3c.7-4.7-2.1-8.4-6.5-8.8a5.5,5.5,0,0,0-5.7,7.3c.9,2.7,3.4,3.8,4.6,3a1.2,1.2,0,0,0-.2-2.3,1.3,1.3,0,0,0-1.3.5c-1-.4-2-2.3-1.3-4.3s4.1-2.8,6.2-1.6,3,4.9,2,7.6a7.9,7.9,0,0,1-6.7,5.2,6.3,6.3,0,0,1-6.6-5.8A.6.6,0,0,0,377,167.2Z"/><path class="cls-5" d="M30.4,260.2c-.2,2.2,2.1,4,4.1,3.8a4.9,4.9,0,0,0,4.5-4.2,3.7,3.7,0,0,0-3.3-4.5,2.7,2.7,0,0,0-2.9,3.7c.4,1.4,1.7,1.9,2.3,1.5s.5-1-.1-1.1a.4.4,0,0,0-.6.2,1.7,1.7,0,0,1-.7-2.2c.4-1.3,2.1-1.4,3.2-.8a3.2,3.2,0,0,1,1,3.9,4,4,0,0,1-3.4,2.6,3.1,3.1,0,0,1-3.4-2.9A.4.4,0,0,0,30.4,260.2Z"/><path class="cls-2" d="M41,164.5v-4.2L37.6,158a.5.5,0,0,1,.1-1l3.9-1.3,1.2-4a.6.6,0,0,1,1-.2l2.4,3.4,4.2-.2a.6.6,0,0,1,.4.9L48.4,159l1.5,3.9a.6.6,0,0,1-.8.7l-3.9-1.2-3.3,2.5A.6.6,0,0,1,41,164.5Z"/><path class="cls-26" d="M340.9,215.6a3.5,3.5,0,1,1,3.7,3.2A3.5,3.5,0,0,1,340.9,215.6Z"/><path class="cls-26" d="M346.8,225.3c-.2-1-.4-2-.7-3a.8.8,0,0,0-1.5.3c.1,1.1.4,2.2.6,3.3s.7.6,1.1.5a.9.9,0,0,0,.5-1.1Z"/><path class="cls-26" d="M352.7,221.1l-3.2-2.3a.7.7,0,1,0-1,1.1,13.6,13.6,0,0,0,3.5,2.7.9.9,0,0,0,1.1-.4.8.8,0,0,0-.4-1.1Z"/><path class="cls-26" d="M350.5,214.9a.6.6,0,0,0-.1.8c.4.7,1.3.6,2,.6a7.8,7.8,0,0,0,2.2-.4c1-.3.5-1.9-.6-1.6S351.3,214.3,350.5,214.9Z"/><path class="cls-26" d="M349.4,208.2c-1,1.4-1.8,1.9-1.7,2.7a.7.7,0,0,0,.9.6c.6-.1.9-.7,1.2-1.1l.9-1.2a.8.8,0,0,0-.1-1.1.8.8,0,0,0-1.2.1Z"/><path class="cls-26" d="M345.5,207.9a3.4,3.4,0,0,0-.8-1.6.7.7,0,0,0-1.2.4,5.4,5.4,0,0,0,.4,1.8,1,1,0,0,0,1.1.5.9.9,0,0,0,.5-1.1Z"/><path class="cls-26" d="M341.3,210.1c-1.5-1.1-1.8-1.5-2.3-1.4s-.8.4-.7.7.6.9,1.9,1.9a.8.8,0,0,0,1.2-.1.9.9,0,0,0-.1-1.1Z"/><path class="cls-26" d="M335.4,215.1a.8.8,0,0,0,.3,1.4c.6.1.8,0,3.7-.6a.8.8,0,0,0,.8-.9.7.7,0,0,0-.9-.7C336.3,214.8,336,214.8,335.4,215.1Z"/><path class="cls-26" d="M340,219.8c-1.6,1.5-1.9,1.3-2.5,2.2s.2,1.1.7,1,.8-.2,1.6-.9a5.3,5.3,0,0,0,1.4-1.2.8.8,0,0,0-.1-1.2.8.8,0,0,0-1.1.1Z"/><path class="cls-2" d="M69.7,354.2h3.4V174.6a1.6,1.6,0,0,0-1.7-1.6h0a1.7,1.7,0,0,0-1.7,1.6Z"/><path class="cls-2" d="M92.6,354.2H96V171.6a1.8,1.8,0,0,0-1.7-1.7h0a1.7,1.7,0,0,0-1.7,1.7Z"/><rect class="cls-2" x="72.2" y="192.4" width="23.3" height="2.03"/><rect class="cls-2" x="72.2" y="219.6" width="23.3" height="2.03"/><rect class="cls-2" x="72.2" y="246.7" width="23.3" height="2.03"/><rect class="cls-2" x="72.2" y="273.9" width="23.3" height="2.03"/><path class="cls-27" d="M78.6,291.1H64a2.2,2.2,0,0,0-2.2,2.2v8.2h2.4v-7.8H78.6Z"/><path class="cls-6" d="M81.5,285.5l-4.6-4.8S72,283.4,66.4,286c-1.6-2.7-4.2-11.7-4.3-12.1s3-5.8,2.3-5.9-1.6,2.8-2.4,2.5-2.6-7.2-3-6.9,1,4.4.5,4.6-1.5-4-2.4-3.8,1.5,3.9,1.2,4.3-2.6-3.2-3.1-2.4,2.2,3.1,1.7,3.4-2.7-1.4-3-.9,2.1,1.1,2.7,2.5,1.8,1.8,2.2,4.4,1.5,16,4.2,17.1S81.5,285.5,81.5,285.5Z"/><path class="cls-6" d="M123.4,347.9a75.7,75.7,0,0,0,.2-12.2l6.3-.4c-.9,6.4-1.5,12.9-1.5,12.9v5H116a72.2,72.2,0,0,0,6.4-3.5A2.9,2.9,0,0,0,123.4,347.9Z"/><path class="cls-9" d="M128.9,354H115.6c-.4,0-.6-.4-.4-.6s1.9-.9,3.6-1.7,9.2-1.7,9.7-2.4C128.8,350.8,129.2,353.9,128.9,354Z"/><path class="cls-6" d="M146,345.3a86.3,86.3,0,0,0-6.3-10.5l5.4-3.8,5.2,11.9.8,1,2.1,3.1-10.7,6.8s1.6-2.5,3.6-6.4A2.5,2.5,0,0,0,146,345.3Z"/><path class="cls-9" d="M153.7,347.8l-11,6.9c-.5.2-.8-.1-.8-.4s1.2-1.7,2.2-3.3c2.7-1.3,6.9-6.3,7-7.2C152,344.9,153.9,347.6,153.7,347.8Z"/><path class="cls-13" d="M140.8,241.5c1-4.8-2.1-9.6-6.4-11.4,0-2.7-.9-6.2-2.7-8-3.7-3.7-10.8-5-13.5-.3-3.5,2-6.4,6.4-5.3,10.4-3.5,3.6-2.1,10.1,2.9,13.2a10.6,10.6,0,0,0,5.6,9.7,14.7,14.7,0,0,1,2.3,1.2c-.2-.2,2.6,7.7,11.4,4S146.7,246.3,140.8,241.5Z"/><path class="cls-3" d="M123.2,344.3c1.1-6-2.7-21-5-27.6s-4-35.9-4-35.9l2.8-3.2,11.1-.7s-4.7,14.6-4.7,19.6,2.3,17.9,5,24.6,1.4,19.2.7,23.4A16.7,16.7,0,0,1,123.2,344.3Z"/><path class="cls-28" d="M130.9,278.3c.5.5,3.5,4,3.5,6.5s-5.6,24.7-4.3,26.1,6.4,4.7,9.6,9.4,8.8,15.5,10,18.2a21.3,21.3,0,0,1-6.7,3.1c-.3-2-18.5-22.1-20.6-26.3s-3.2-23.4-4.3-25.9-3.9-9.1-3.9-9.1Z"/><path class="cls-6" d="M114.7,261.8s-6.9,7.9-14.5,10.8A8.9,8.9,0,0,0,98,274c0,.8,1.4.2,1.4.2a2.2,2.2,0,0,0-.2,1.7c.2,1,1.9.4,2.8.4s2.5-2.4,5.4-3.8,7.4-3.3,7.9-3.8S114.9,261.5,114.7,261.8Z"/><path class="cls-9" d="M128.7,239.8s-7-.7-10.6,1.6-5.9,10.5-5.9,14,2.6,21.9,1.6,25.4c0,0,11.4-.5,15.4-.5s4.7-1.5,4.7-1.5-8.2-8-8.2-11.5S128.7,239.8,128.7,239.8Z"/><path class="cls-9" d="M34.2,334.1v12h1.3V335.2h8.6v3.7a7,7,0,0,0-5.9,7.2c0,3.9,3,7.2,6.6,7.2s6.5-3.3,6.5-7.2-2.5-6.8-5.9-7.2v-3.7h1.8v-1.5H45.4v-4.3h1.8V328H45.4v-4.8H68.9v-2.1H56V308.9a7.2,7.2,0,0,1,7-6.9H74.1v-2.2H63a9.2,9.2,0,0,0-9,9.1v12.2H45.4v-6.9H44.1V328H39.8A5.8,5.8,0,0,0,34.2,334.1Zm9.9-.4H35.5a4.5,4.5,0,0,1,4.3-4.3h4.3Z"/><path class="cls-29" d="M39.3,336l.3,4.6a23.8,23.8,0,0,1,.5,2.6c0,2-9-1.7-7-2.6a5.2,5.2,0,0,0,1.5-1.9,13.6,13.6,0,0,0,.7-3.3Z"/><path class="cls-30" d="M33.2,340.6a25.9,25.9,0,0,0,3.1.7c1.1.2,2.5-1.1,3.3-.8s.9,3.9.9,3.9-11.2.4-14.5-.1C24.7,344.1,28.9,342,33.2,340.6Z"/><path class="cls-9" d="M84,326.1h2.5v-47c0-1.6,1.5-2.8,3.4-2.8h22.2a1.1,1.1,0,0,0,1.1-1.1h0a1.1,1.1,0,0,0-1.1-1H89.9c-3.3,0-5.9,2.2-5.9,4.9Z"/><path class="cls-9" d="M72.4,316.2a15,15,0,1,1-14.8,15A15,15,0,0,1,72.4,316.2Z"/><path class="cls-9" d="M54.3,331.2A18.1,18.1,0,1,0,72.4,313,18.2,18.2,0,0,0,54.3,331.2Zm1.7,0a16.4,16.4,0,1,1,16.4,16.6A16.5,16.5,0,0,1,56,331.2Z"/><rect class="cls-15" x="84.3" y="282.2" width="7.3" height="28.19" transform="translate(175.9 592.6) rotate(180)"/><path class="cls-15" d="M60.5,328H54.3a6,6,0,0,0-6,6.1v12h1.4v-12a4.7,4.7,0,0,1,4.6-4.7h6.2Z"/><rect class="cls-9" x="38.8" y="312.2" width="19.1" height="3.28" transform="translate(96.7 627.7) rotate(180)"/><rect class="cls-15" x="49" y="333.7" width="11.4" height="1.42"/><rect class="cls-15" x="59.7" y="321.1" width="26.2" height="2.13"/><rect class="cls-9" x="57.4" y="312.2" width="34.2" height="3.33" transform="translate(149 627.7) rotate(180)"/><path class="cls-15" d="M90.5,328.6h2.2v-47a2.9,2.9,0,0,1,2.9-2.8h19.9v-2.1H95.6a5,5,0,0,0-5.1,4.9Z"/><path class="cls-9" d="M51.8,346.1c0,3.9,3.6,7.2,7.9,7.2s8-3.3,8-7.2-3.6-7.2-8-7.2S51.8,342.1,51.8,346.1Z"/><path class="cls-15" d="M54.9,346.1a4.9,4.9,0,1,0,4.8-4.4A4.6,4.6,0,0,0,54.9,346.1Z"/><path class="cls-19" d="M40.4,299.8c2.3-2.3,34.2-1.2,34.2-1.2s-27,6.6-28.6,7.5-7.5,29.9-7.5,30.3c-1.6-.4-2.6-.1-4.3-.4C34.5,330.9,36.7,303.5,40.4,299.8Z"/><path class="cls-31" d="M43.5,336.1l.3,4.6c.1.6.4,2.1.4,2.6,0,2-8.9-1.7-6.9-2.6.2-.1,1.4-1.1,1.5-1.8a22.1,22.1,0,0,0,0-2.7Z"/><path class="cls-30" d="M37.3,340.7l3.2.8c1.1.1,2.5-1.2,3.3-.8s.8,3.9.8,3.9-11.2.4-14.4-.1C28.9,344.3,33.1,342.1,37.3,340.7Z"/><path class="cls-2" d="M79.6,305.2s-.2,7.2-2.7,7.3-17.9.5-26.6-.3l-5.9,25.9-6.9-.6s2.1-17.4,2.8-24,2.9-11.9,6.5-12,27.8-3.9,27.8-3.9Z"/><path class="cls-23" d="M86.1,271.3s3.9,1,3.4,8.7-4.7,30.7-12.6,32.5S64,297.9,64,297.9s5-1.6,7-9.3c1.4-5.3,5.2-17.2,6.2-17.8S86.1,271.3,86.1,271.3Z"/><path class="cls-15" d="M69.7,322.7h2.2V308.9c0-3.3,3.2-6.9,7.6-6.9H91.6v-2.2H79.5c-5.2,0-9.8,4.2-9.8,9.1Z"/><ellipse class="cls-15" cx="91.6" cy="333.2" rx="17.1" ry="17.2"/><path class="cls-15" d="M70.8,333.2a20.8,20.8,0,1,0,20.8-21A20.9,20.9,0,0,0,70.8,333.2Zm2,0a18.8,18.8,0,1,1,18.8,19A18.9,18.9,0,0,1,72.8,333.2Z"/><path class="cls-9" d="M77.5,333.2A14.1,14.1,0,1,0,91.6,319,14.1,14.1,0,0,0,77.5,333.2Z"/><path class="cls-15" d="M88.4,333.2a3.2,3.2,0,0,0,3.2,3.2,3.2,3.2,0,0,0,3.2-3.2,3.2,3.2,0,0,0-3.2-3.2A3.3,3.3,0,0,0,88.4,333.2Z"/><rect class="cls-9" x="28.8" y="344.5" width="21.5" height="3.72" transform="translate(79.1 692.8) rotate(180)"/><rect class="cls-15" x="38.1" y="344.5" width="12.2" height="3.72" transform="translate(88.4 692.8) rotate(180)"/><rect class="cls-15" x="59" y="315.5" width="1.4" height="32.78"/><path class="cls-9" d="M58.9,346.5a.9.9,0,0,0,.9.9.9.9,0,0,0,0-1.8A.9.9,0,0,0,58.9,346.5Z"/><path class="cls-20" d="M83.8,250.9a2.4,2.4,0,0,1,3.9,1.4c0-.1.9-.1,1.1,0a15.3,15.3,0,0,1,1.6,1.1c1.8,1.1,2.6,3.4,2.7,5.4a8,8,0,0,1-2.6,6.1,5.6,5.6,0,0,1-1.6,1.4c-.7.4-1.3.1-2.1.2s-.8.8-1.5.6-2-1.6-3.2-1.4-4.1-.9-4.1-.9c-3.7-1.4-1.2-8.5-.5-11S81.5,250,83.8,250.9Z"/><path class="cls-6" d="M80.5,266.9l-1,2.6L79,271s0,2.5.6,3.2,5.3-3.1,5.3-3.1l1.3-8.1Z"/><path class="cls-12" d="M85.8,265.6a9,9,0,0,1-6.3,3.9l1-2.6,5.7-3.9Z"/><path class="cls-6" d="M85.1,254.6a4.1,4.1,0,0,0-5.9,2,34.9,34.9,0,0,0-1.2,3.8c-.8,3.5.3,7.2,1.8,7.6a7.6,7.6,0,0,0,7.7-5.9C88.3,259.1,87.4,256,85.1,254.6Z"/><path class="cls-6" d="M86.3,262.3a1.3,1.3,0,0,0,.8,1.6c.7.2,1.3-.4,1.5-1.1a1.4,1.4,0,0,0-.9-1.7C87.1,261,86.5,261.5,86.3,262.3Z"/><path class="cls-20" d="M81.4,263.7s2.1.7,2.3,1.5a3.1,3.1,0,0,1-1.1,2.7,3.8,3.8,0,0,1-3.8-.2,3.4,3.4,0,0,1-.5-3.5C78.9,263.1,81.4,263.7,81.4,263.7Z"/><path class="cls-6" d="M82.1,265.3s0,.9-.3,1a1.7,1.7,0,0,1-1,.3,1.1,1.1,0,0,1-1.2-.5c-.1-.1-.1-.1-.1-.2a4.5,4.5,0,0,1-.3-1.1,3.7,3.7,0,0,1,1.4-.2A7.2,7.2,0,0,1,82.1,265.3Z"/><path class="cls-6" d="M104.7,275.3c.8-.8,4.6-2.1,7.5-4.2a59.7,59.7,0,0,1,6.2-3.5,16.2,16.2,0,0,1,4.5,3.7c-4.3,2-9.1,4-9.8,4.7s-3.7,4.4-4.2,4.4-4.8-1.2-5.4-1.9S103.8,276.1,104.7,275.3Z"/><path class="cls-15" d="M118.4,267.6c3-1.7,5.9-3.5,6.2-5.2s-1.9-15.7-.5-18.1a15.5,15.5,0,0,1,4.6-4.5,4.3,4.3,0,0,1,2.8,3.3c.5,2.2-.4,22-.9,23.8s-3.7,4.2-7.6,6C121.9,271.4,120.1,268.6,118.4,267.6Z"/><path class="cls-6" d="M87.1,294.3l-12,3.2a31.5,31.5,0,0,1-5.2,3c-1.6.6-3.6,2.3-3.2,2.9s2.4-1.3,2.7-1.3-1.1,2.2-1.4,3.7-.7,2.8.1,2.7,1.4-3.4,1.4-3.4,1.3-2.4,1.5-2.1-.9,2-.9,2-.2,1.8-.3,2.4.3,1.9.7,1.4.1-1.5.4-2.2a9.2,9.2,0,0,1,1.3-2.4s-.9,4.1-.3,4.2,1.2-3.3,1.2-3.3,1.4-2.9,2-3.1a27.5,27.5,0,0,1,3.5-1.8c1.3-.4,6.7,1,9.1,1.1s6.2-1.5,6.6-3.4a2.6,2.6,0,0,0-.8-1.8A6.6,6.6,0,0,0,87.1,294.3Z"/><path class="cls-22" d="M86.1,271.3s3.7-.6,7,5.3,1.2,21.3,1.2,21.3l-7.2-3.6Z"/><path class="cls-6" d="M102.4,276.5c-.4,0-2.7.1-3-.2s1.1-1.3,1.3-1.1.8-.2,1,0,.9,0,1.1.1S102.8,276.5,102.4,276.5Z"/><path class="cls-6" d="M125.1,233.6a37.6,37.6,0,0,0-.7,5.9c.2,1.7-.5,7-3.9,7.1s-1-5.6-.7-7.3.8-7.9.8-7.9Z"/><path class="cls-12" d="M120.4,233.8c.1-1.4.3-2.5.3-2.5l4.4,2.3-.4,2A4,4,0,0,1,120.4,233.8Z"/><path class="cls-6" d="M125.2,221.3a6.3,6.3,0,0,1,2.9,2.7c1,2,1.3,7.7-2.8,9.9s-6.8-1.8-6.6-5.4S120.1,220.1,125.2,221.3Z"/><path class="cls-6" d="M117.5,227.5c-.1.9.2,1.7.8,1.7s1-.6,1.1-1.6-.2-1.7-.8-1.8S117.6,226.5,117.5,227.5Z"/><path class="cls-6" d="M127.7,229a1.7,1.7,0,0,0,.4,2.2c.6.2,1.3-.3,1.7-1.2s.2-1.9-.4-2.1S128.1,228.1,127.7,229Z"/><polygon class="cls-9" points="329.7 66.1 337.7 77.1 343.1 71.3 329.7 66.1"/><polygon class="cls-15" points="343.8 68.3 343.1 71.3 329.7 66.1 343.8 68.3"/><polygon class="cls-15" points="343.1 72.5 329.7 66.1 342.1 77.1 343.1 72.5"/><path class="cls-26" d="M351.2,85.7a17.3,17.3,0,0,1-5.5-2.1,9.8,9.8,0,0,1-4.1-5.7c0-.2.2-.3.4-.3s.4.1.4.3a8.1,8.1,0,0,0,3.7,5,12.4,12.4,0,0,0,5.1,2c.2.1.4.2.3.4A.4.4,0,0,1,351.2,85.7Zm-8.8-7.8Z"/><path class="cls-26" d="M365.7,88.9a39.4,39.4,0,0,1-11.8-4.5c-3-1.9-5.5-4.6-8.6-6.1a.4.4,0,0,1-.1-.5c.1-.2.3-.3.4-.2,3.3,1.6,5.7,4.4,8.7,6.1a35,35,0,0,0,11.6,4.5,21.1,21.1,0,0,0,5.2.3.4.4,0,0,1,.4.4c0,.2-.1.3-.3.4A25.5,25.5,0,0,1,365.7,88.9Z"/><path class="cls-6" d="M189.7,215.1s-8.8-15.7-10.9-19.1-7.8-16.6-8-17.2,3.9-6.8,3-7-1.9,3.3-2.9,2.9-3.8-8.9-4.3-8.5,1.5,5.3,1,5.5-2.3-4.9-3.3-4.7,2,4.7,1.7,5.2-3.5-4-4.1-3.1,3,3.8,2.3,4.2-3.5-1.9-3.9-1.3,2.8,1.5,3.7,3.2,2.4,2.3,3.1,5.4,1.6,14.2,4.8,19.7l10.5,17.8Z"/><path class="cls-6" d="M228.9,291.1l-1-1.2-.9-1.5s-2.1-4.2-1.8-4.4,1.1.4,1.3.6l.7.7a.6.6,0,0,0,.9-.1c.2-.2-.5-1.3-.8-1.6s-4.1-3-4.4-3.2-2.8-8.2-3.8-10.9h0c-1.6-4.4-3-9-3.2-9.5l-.9-19.9-7.5-2.5s.8,22.2.9,23.3,4.5,10.4,4.5,10.4L218,281s.6,2.8.8,4.6a25.7,25.7,0,0,0,1.3,3.8,17.4,17.4,0,0,0,1.7,3.5c1.1,1.5.7-.4.7-.4s-1.4-3.2-1.1-3.3.9,1.8,2,3.5l.9,1.2c.7,1.1,1.5.9,1-.3l-.9-1.6a10.9,10.9,0,0,1-.8-1.5,8.4,8.4,0,0,1-.7-1.6s.1-.2.4.2,1,1.9,1.6,2.7l1.1,1.3,1.4,1.4c.6-.3-.1-1.6-.7-2.1a11.3,11.3,0,0,0-.9-1.5s-1.2-2.3-.8-2.5,4,4.9,4.5,4.6S228.9,291.1,228.9,291.1Z"/><path class="cls-20" d="M215.5,213.3a25.7,25.7,0,0,0-2.4-12.7c-1.7-3.5-5.8-5.5-9.6-5.5-12,0-13.5,15.9-21.2,22-2.3,1.9-4.9,3.4-7.2,5.4-8.1,7.5-4.4,21.3,3.1,27.8,5.2,4.5,13.3,7.1,19.7,3.6a20.5,20.5,0,0,0,7.7-8.3c2.6-4.8,4.3-10.3,6.1-15.4S215.3,219.1,215.5,213.3Z"/><path class="cls-6" d="M178,353.5s-.9,5.9-2.3,7.8a12.4,12.4,0,0,0-2,2.6c-.9,1.8-.4,4.4.3,5.9s-.1.7.7,1a4.9,4.9,0,0,0,5.8-2.7,13.1,13.1,0,0,0,1.2-5c.2-5.3,1.9-8.1,1.9-8.1Z"/><path class="cls-6" d="M203.4,356.2s.6,6.6.1,8.8-1.5,3.5-.9,4.6a2.5,2.5,0,0,0,1.3,1.3l15,.3c.8,0,.3-.5-.4-1a30.5,30.5,0,0,0-5.4-3l-1.3-.8a13,13,0,0,1-2.2-1.9c-1.1-1.2-1.2-7-1.2-7Z"/><path class="cls-16" d="M215.2,268.4s1.9,10.7.6,17.8-7.2,72.2-7.2,72.2l-6.6.4s-1.4-27.3-1.1-31.1,2.2-10.1,2.2-10.1l-.7-22,8.4-28.9Z"/><path class="cls-17" d="M195.7,266.1s-5.2,7.9-6.5,14.4.9,26.4-1.4,34.9c-1.3,4.6-6.3,11.8-7,17.7s-3.7,21.5-3.7,21.5l6.7,1.4,15.4-39,12.1-35.2,3-18.1Z"/><path class="cls-28" d="M199.9,221.5s-6.9-.4-9.6,2.6,6,26.5,6.5,30.3-2.5,13.8-2.5,13.8,16.2,3.3,20.9.2c0,0,.5-27.2,0-29.9s-4.7-13.7-5.6-14.8S199.9,221.5,199.9,221.5Z"/><path class="cls-6" d="M202.2,212.3a1.8,1.8,0,0,1-.1.5c-.3,1.7-1.5,7.2-2.3,8.7s3.3,7.7,7.5,7c1.2-.2-1.1-5.4-1-5.9s.5-2.5.8-4a20.5,20.5,0,0,0,.5-2.4c.4-2.2.8-4.1.8-4.1Z"/><path class="cls-12" d="M202.1,212.8a1.8,1.8,0,0,0,.1-.5l6.2-.2s-.4,1.9-.8,4.1a20.5,20.5,0,0,1-.5,2.4,5.4,5.4,0,0,1-2.9-1.5,8.2,8.2,0,0,1-2.3-3.3A4.4,4.4,0,0,0,202.1,212.8Z"/><path class="cls-6" d="M206.4,198.3a5.5,5.5,0,0,0-4.8,2c-1.8,2.3-3.7,9.6.8,13.6s9-.5,9.7-5.3S213,198.1,206.4,198.3Z"/><path class="cls-6" d="M213.4,208.6c-.5,1-1.4,1.6-2,1.3s-.6-1.5-.1-2.6,1.5-1.6,2-1.3S214,207.5,213.4,208.6Z"/><path class="cls-20" d="M206.7,197.5s-3.9,6.9-6.7,7.2-3.1,4-3.1,4,1-8.4,3.7-10.1A10.5,10.5,0,0,1,206.7,197.5Z"/><path class="cls-9" d="M181,366.9a7.5,7.5,0,0,1-7.3-3c-.9,1.8-1.4,4.4-.7,5.9s2.3,1.2,3.7,1.3a3.5,3.5,0,0,0,3.3-2A15.6,15.6,0,0,0,181,366.9Z"/><path class="cls-9" d="M211.8,366.4a13.5,13.5,0,0,1-8.6-.4c-.4,1.2-1,2.8-.7,3.6s.9,1.3,1.4,1.3l16,.3c.4,0,.6-.5.4-.7S212.1,366.6,211.8,366.4Z"/><path class="cls-6" d="M200.8,206.5a2.1,2.1,0,0,1-1.1,2.5c-.7.2-1.6-.7-1.8-1.9s.2-2.4,1-2.6S200.5,205.3,200.8,206.5Z"/><path class="cls-28" d="M187.3,210s9.8,10.5,11.2,14.7-1.4,10.3-5.4,10.5-12.7-18.6-12.7-18.6Z"/><rect class="cls-15" x="180.8" y="64.3" width="21.1" height="14.63" rx="4.9" transform="translate(-10.9 42.3) rotate(-12.3)"/><polygon class="cls-15" points="181.6 73.7 176.9 81.3 184.2 78.2 181.6 73.7"/><path class="cls-25" d="M187,71.5l1.8-.4s1.9-2.3,1.9-2.9-.8-1.8-.4-2.1a1.3,1.3,0,0,1,1.7.2c.5.5.7,2.7.9,2.8a7.4,7.4,0,0,0,2-.4,1.6,1.6,0,0,1,1.4.5h0a.7.7,0,0,1,0,.9l-.3.5.4.3a.8.8,0,0,1,.1,1.1l-.3.3.3.2a.7.7,0,0,1,.1,1.1l-.2.3h0a.7.7,0,0,1,0,1l-.2.2-4.9,1.2h-3.2c-.2,0-.4-.1-.4-.3l-1-4.3C186.6,71.8,186.8,71.6,187,71.5Z"/><path class="cls-26" d="M232.9,21.7c9.9,1.8,17,8.2,15.8,14.3-.5,3-3,5.4-6.7,6.8l2.4,9.7L237.3,44a30.7,30.7,0,0,1-8.5-.3c-9.9-1.9-17-8.3-15.8-14.3S223,19.9,232.9,21.7Z"/><path class="cls-2" d="M237.4,35a6.3,6.3,0,0,1-8.4,3,6.3,6.3,0,1,1,8.4-3Z"/><path class="cls-32" d="M228.2,31.7a3.4,3.4,0,0,0,1.6,4.5,3.3,3.3,0,0,0,4.5-1.5Z"/><polygon class="cls-15" points="377.2 204 375.1 204.2 374.3 200.7 371.1 200.7 370.1 198.1 368.8 198.6 370.1 202 373.2 202.1 374 205.7 377.3 205.3 377.2 204"/><polygon class="cls-5" points="364.7 148.8 359.5 146.6 358.4 150.1 356.7 149.5 358.5 144.1 363.5 146.4 364.8 142.2 369.5 144.1 371.4 140 373.1 140.8 370.4 146.4 366 144.6 364.7 148.8"/></svg>