<svg id="Layer_1" data-name="Layer 1" xmlns="http://www.w3.org/2000/svg" viewBox="0 0 400 400"><defs><style>.cls-1{fill:#999;opacity:0.57;}.cls-2{fill:#3797db;}.cls-3{fill:#7772d6;}.cls-4{fill:#6161c6;}.cls-5{fill:#3f3f89;}.cls-6{fill:#9ed16f;}.cls-7{fill:#efac7f;}.cls-8{fill:#fc7600;}.cls-9{fill:#fe875e;}.cls-10{fill:#45258f;}.cls-11{fill:#729bd6;}.cls-12{fill:#a9c2ff;}.cls-13{fill:#ff912b;}.cls-14{fill:#d19369;}.cls-15{fill:#5e2e0d;}.cls-16{fill:#fff;}.cls-17{fill:#f8a492;}.cls-18{fill:#3b77be;}.cls-19{fill:#282828;}.cls-20{fill:#96a65f;}.cls-21{fill:#445299;}.cls-22{fill:#5367bc;}.cls-23{fill:#a5a5a5;}.cls-24{fill:#81a55b;}.cls-25{fill:#62bdf3;}.cls-26{fill:#13375b;}.cls-27{fill:#f48c7f;}.cls-28{fill:#466eb6;}.cls-29{fill:#f7a491;}.cls-30{fill:#efefef;}</style></defs><path class="cls-1" d="M225.5,371.8c0,5-14.1,9-31.4,9s-31.5-4-31.5-9,14.1-8.9,31.5-8.9S225.5,366.9,225.5,371.8Z"/><path class="cls-1" d="M162.6,356.8c0,4.9-32.6,8.9-72.9,8.9s-72.8-4-72.8-8.9,32.6-8.9,72.8-8.9S162.6,351.9,162.6,356.8Z"/><path class="cls-1" d="M315.8,356.8c0,4.9-16.8,8.9-37.7,8.9s-37.7-4-37.7-8.9,16.9-8.9,37.7-8.9S315.8,351.9,315.8,356.8Z"/><path class="cls-2" d="M147.2,96.9H147a.4.4,0,0,1,.1-.3,6.5,6.5,0,0,1,6.5-.2.2.2,0,0,1,.1.3c0,.1-.1.1-.2.1a6,6,0,0,0-6.2.2Z"/><path class="cls-3" d="M207.2,317.2c-78-40.7-104.6-82.9-113-111.6h50a28.9,28.9,0,0,1-3.8,12.8,11.4,11.4,0,0,0-1.7,6.2,11.9,11.9,0,0,0,23.7,0,12.3,12.3,0,0,0-1.7-6.2,29,29,0,0,1-3.9-12.8h50.4v46.7h.9a29.7,29.7,0,0,0,12.7-4.1,11,11,0,0,1,5.3-1.4,10.2,10.2,0,1,1,0,20.3,10.4,10.4,0,0,1-5.2-1.4,30.6,30.6,0,0,0-12.8-4.1h-.9Z"/><path class="cls-4" d="M208.9,263.3A29.7,29.7,0,0,1,220,267a11.7,11.7,0,0,0,6.1,1.7,11.9,11.9,0,1,0,0-23.7,11.7,11.7,0,0,0-6.1,1.7,29.7,29.7,0,0,1-11.1,3.7V205.6h59.2v-.8a30.8,30.8,0,0,0-4.2-16.5,10.8,10.8,0,0,1-1.5-5.3,10.2,10.2,0,1,1,20.4,0,9.9,9.9,0,0,1-1.5,5.3,30.7,30.7,0,0,0-4.1,16.5v.8h44.6c-8.5,28.7-35.1,70.9-113,111.6Z"/><path class="cls-5" d="M208.6,317.6V263h.3a29.6,29.6,0,0,1,11.2,3.7,11.7,11.7,0,1,0,0-19.9,29.6,29.6,0,0,1-11.2,3.7h-.3V205.4h59.3v-.6a30.4,30.4,0,0,0-4.2-16.4,11.2,11.2,0,0,1-1.5-5.4,10.4,10.4,0,0,1,20.8,0,10.2,10.2,0,0,1-1.5,5.4,30.4,30.4,0,0,0-4.1,16.4v.6h44.6v.3c-8.4,28.4-34.9,70.8-113.1,111.7Zm.5-54.1v53.4c77.6-40.7,104-82.8,112.5-111.1H277.1v-1a30.2,30.2,0,0,1,4.2-16.6,10.7,10.7,0,0,0,1.4-5.2,10,10,0,1,0-19.9,0,10.7,10.7,0,0,0,1.4,5.2,31.1,31.1,0,0,1,4.2,16.6v1H209.1v44.4a30.1,30.1,0,0,0,10.8-3.7,12.1,12.1,0,1,1,6.2,22.4,12.3,12.3,0,0,1-6.2-1.7A30.1,30.1,0,0,0,209.1,263.5Z"/><path class="cls-6" d="M150.5,234.7a10.1,10.1,0,0,1-10.1-10.1,10.8,10.8,0,0,1,1.4-5.3,30.9,30.9,0,0,0,4.2-14.5v-.9H93.7a89.8,89.8,0,0,1-3.3-23.8c0-18.3,5.7-35.4,16.2-48.1s25.8-20.4,42.2-20.4A70.6,70.6,0,0,1,192.6,127a72.5,72.5,0,0,1,14.6,15.2v21.6a31.1,31.1,0,0,1-10.2-3.6,11.7,11.7,0,0,0-6.1-1.7,11.9,11.9,0,1,0,0,23.7,11.7,11.7,0,0,0,6.1-1.7,31.1,31.1,0,0,1,10.2-3.6v27H155v.9a30.7,30.7,0,0,0,4.1,14.5,9.9,9.9,0,0,1,1.5,5.3A10.2,10.2,0,0,1,150.5,234.7Z"/><path class="cls-7" d="M149,107.1a6.8,6.8,0,0,0-2.5.8c-.4.1-4.7-2.1-4.7-2.1l-13.5-6.6-9.2-11.6L112,90.8s10.4,12.4,11,12.9,19,6.9,20.6,7.6l2.7,2.3A9.8,9.8,0,0,0,149,115a8.1,8.1,0,0,0,2.8,1c1.4.3.3-.6.3-.6a17.9,17.9,0,0,1-2.4-1.2c.1-.2,1.4.5,3,.8l1.1.3c1,.2,1.4-.4.4-.7l-1.3-.5-1.2-.4-1.3-.5c.1-.1,0-.2.4-.2a21.9,21.9,0,0,0,2.3.7l1.3.2s1.6.1,1.6-.1-.9-.7-1.5-.7a5.8,5.8,0,0,0-1.4-.3s-1.8-.8-1.7-1,1.2,0,2.4.1,2.1.1,2.2-.2-.9-.5-.9-.5l-1.2-.2-1.3-.4s-3.4-1.2-3.3-1.5.7-.7,1-.7l.9.2c.2,0,.7,0,.7-.3s-1.2-.9-1.2-.9A4.2,4.2,0,0,0,149,107.1Z"/><path class="cls-8" d="M125.5,94.7l-3.2,2.8c-.8.6-4.7,2.5-4.7,2.5s-3.9-5.9-5.5-8.9-3.5-8.9-3-9.1a7,7,0,0,1,4.9.2C120,84.9,125.5,94.7,125.5,94.7Z"/><path class="cls-9" d="M146.8,110.2a2.3,2.3,0,0,0,2.5-1C149.4,110.3,147.8,110.9,146.8,110.2Z"/><path class="cls-7" d="M87.9,184.6l-.3,4.5c-.1.6-.4,2-.4,2.5,0,2,8.7-1.7,6.7-2.5-.2-.1-1.1-.7-1.2-1.4s-.3-3.1-.3-3.1Z"/><path class="cls-10" d="M93.9,189.1a25.9,25.9,0,0,1-3.1.7c-1.1.2-2.4-1.1-3.2-.8s-.8,3.8-.8,3.8,11,.9,14.1-.1C102.1,192.4,98.1,190.4,93.9,189.1Z"/><path class="cls-7" d="M73.9,184.3l-.3,4.5c-.1.6-.4,2-.4,2.5,0,2,8.7-1.6,6.7-2.5-.2-.1-1.4-1.1-1.4-1.8s-.1-2.6-.1-2.6Z"/><path class="cls-10" d="M79.9,188.8a21.7,21.7,0,0,1-3.1.7c-1,.2-2.4-1.1-3.2-.7s-.8,3.7-.8,3.7,10.9.5,14.1,0C88.2,192.3,84.1,190.2,79.9,188.8Z"/><path class="cls-11" d="M75.9,113.2s-1.5,7.6-.9,13.3.6,26.3.6,26.3l-2.3,32.8h5.5s6.4-32.8,6.3-31.9,2.2-23.1,2.2-23.1l-7.7-18.3Z"/><path class="cls-12" d="M77.9,108.3s-6.7,7-4.2,14.6c1,3.1,10.3,32.5,10.5,34.9s3.1,29,3.1,29l6.3-.2L95,157.1l-1.8-39.8-3.9-6.7Z"/><path class="cls-13" d="M118.5,85.5a67.6,67.6,0,0,0-7-6,21.4,21.4,0,0,0-4-2.8c-1.7-.6-4.6-2.1-8.8,4.2-3,4.6-22.1,28.2-25.2,29l20.4,9.7c.6-4.6,10.7-13.4,12.1-15C109.3,100.9,120.5,87.8,118.5,85.5Z"/><path class="cls-7" d="M117.5,75.5l-6.3,3.7s-.2,5.5,1.9,6.9,3-1.7,3-1.7,2.4-3.3,4.2-4.3S117.5,75.5,117.5,75.5Z"/><path class="cls-14" d="M116.5,77.9a11.2,11.2,0,0,0,1.6,4.1,12.4,12.4,0,0,1,2.2-1.9c.8-.4.3-1.5-.5-2.4l-2.3-2.2-1.2.7A4.7,4.7,0,0,0,116.5,77.9Z"/><path class="cls-7" d="M120.8,66.2c-.1-.1-5.3,6.4-4.7,9.4s3.8,5.8,6,5.1,7-8.5,5.4-12.2S120.8,66.2,120.8,66.2Z"/><path class="cls-15" d="M126.6,64.2a10,10,0,0,0-8.8-.2c-3.4,1.8-4.2,6.3-3.1,9a4.6,4.6,0,0,1-.2,4.3l1.8-1.1a7.5,7.5,0,0,0,1.2-2.9c.2-1.3,2.1-1.1,3-1.7s1.7-1.9,2.8-2.7,3-.4,4.4.4S129.8,66,126.6,64.2Z"/><path class="cls-7" d="M136.6,116.7c-2.4-.3-2.4-.1-2.8-.2a51.5,51.5,0,0,1-4.2-3.4l-12.1-10.3-6.3-13.9-8.4,1.2s7.8,16.4,8.3,17.1,17.6,10.7,19.1,11.7l2.2,3.1a13.5,13.5,0,0,0,2.4,2.2,23.4,23.4,0,0,0,2.7,1.7c1.3.7.3-.5.3-.5a19,19,0,0,1-2.1-1.9c.2-.1,1.3.9,2.8,1.7l1.1.5c.9.5,1.5.1.6-.5a4.1,4.1,0,0,0-1.3-.8l-1.1-.8-1.1-.8c.1-.1,0-.3.4-.1a19.3,19.3,0,0,0,2.1,1.3l1.3.6h1.4c.2-.4-.5-.7-1.1-.9l-1.3-.7s-1.7-1.2-1.5-1.5,1,.6,2.3,1.1,2,.2,2.1,0-.6-.6-.6-.6a6.8,6.8,0,0,1-1.5-.4c-.3-.2-4-3-3.9-3.2a1.2,1.2,0,0,1,1-.1l.9.3a.9.9,0,0,0,.8-.5c.1-.3-.8-.8-.8-.8A3.4,3.4,0,0,0,136.6,116.7Z"/><path class="cls-8" d="M104.2,96.9s2.4-.8,3.9-1.5l5.5-2.7s-1.9-8.1-3.2-11c-4.8-10.8-10.3-3.4-11-1.6C97.7,83.9,104.2,96.9,104.2,96.9Z"/><path class="cls-16" d="M279,203.9a28.5,28.5,0,0,1,3.9-14.8,11.7,11.7,0,0,0,1.7-6.1,11.9,11.9,0,1,0-23.7,0,10.8,10.8,0,0,0,1.7,6.1,29.5,29.5,0,0,1,3.9,14.8H208.9V175h-1a30.2,30.2,0,0,0-11.7,4,11,11,0,0,1-5.3,1.4,10.2,10.2,0,1,1,0-20.3,10.4,10.4,0,0,1,5.2,1.4,29.6,29.6,0,0,0,11.8,4h1V142.2A67,67,0,0,1,223.5,127a70.4,70.4,0,0,1,43.8-15.4c16.3,0,31.3,7.2,42.1,20.4s16.3,29.8,16.3,48.1a90,90,0,0,1-3.4,23.8Z"/><path class="cls-3" d="M322.7,241.6H305.4a1.6,1.6,0,0,1-1.5-1.6h0a1.5,1.5,0,0,1,1.5-1.5h17.3a1.6,1.6,0,0,1,1.6,1.5h0A1.6,1.6,0,0,1,322.7,241.6Z"/><path class="cls-10" d="M324.4,244H303.7a1.5,1.5,0,0,1-1.5-1.5h0a1.6,1.6,0,0,1,1.5-1.6h20.7a1.5,1.5,0,0,1,1.5,1.6h0A1.5,1.5,0,0,1,324.4,244Z"/><path class="cls-7" d="M263.8,347.1s-1.6,1.6-1.6,2.1-.2,6.8.5,7.4,2.6,1,1.9,1.6-4,.4-6.4.3c-.6-.1-1.5-5.6-1.8-6.5s-1.8-3.7-1.4-4.6,1.4-1.3,2.6-2.1a10.4,10.4,0,0,0,2.5-2.6Z"/><path class="cls-7" d="M285.1,351l-1.4,4c-.1.7-.6,2.3-.6,2.9,0,2.2,9.9-1.9,7.7-2.9a2.2,2.2,0,0,1-.9-1.5,5.1,5.1,0,0,1,.8-2.6Z"/><path class="cls-11" d="M298.6,273.6l3.6,9.2s2.3,21.9,1,35.1c-.6,5.5-12.8,34.9-12.8,34.9l-6.1-.9,8.1-34.8-3-13.3-4.2-26.4Z"/><path class="cls-12" d="M281.9,274.1l-3.1,10.2-4.6,30.9-15.7,28.9s2.4,3.7,4.9,4.2l22.3-29.2,12-36.6-.4-8.1Z"/><path class="cls-17" d="M328.7,257c-1.8.8-1.7,1.2-1.9,1.3a34.4,34.4,0,0,1-4.1-1.1s-11.4-3.5-12-3.8l-9.5-9.2-5,4.5s10.6,9.7,11.2,10.1,16.4,2.9,17.8,3.2l2.5,1.7a8.3,8.3,0,0,0,2.5.8,5.4,5.4,0,0,0,2.4.4c1.2,0,.1-.6.1-.6s-2.2-.5-2.1-.7,1.2.2,2.5.2h.9c.8,0,1-.5.2-.7l-1.1-.2-1.1-.2-1-.2c0-.1-.1-.2.2-.2l2,.2h1.1l1.2-.3c0-.4-.9-.6-1.4-.5a3.9,3.9,0,0,0-1.1,0s-1.6-.4-1.5-.6,3.9-.4,3.9-.8-1.1-.5-1.1-.5h-2.1a15.7,15.7,0,0,1-2.9-.8c.1-.3.4-.9.6-.9s.6.1.8,0a.5.5,0,0,0,.3-.6c0-.3-1-.5-1-.5A3.2,3.2,0,0,0,328.7,257Z"/><path class="cls-18" d="M304.6,246.6l-4.7,6.5s-4.2-5.1-6.1-7.6-4.9-7.4-4.5-7.6a4.8,4.8,0,0,1,3.9-.9C298.5,238.3,304.6,246.6,304.6,246.6Z"/><path class="cls-10" d="M257.7,345.3s3.3,10.2,4.8,10.8,2.5.6,2.9,1.5h0a.9.9,0,0,1-.9,1h-6.8s-1-4.6-1.3-6.6c0,0-2.1-5-1.8-5.4S257.7,345.3,257.7,345.3Z"/><path class="cls-10" d="M282.6,358.6l1.1-3.6a11.3,11.3,0,0,0,3.5.9c1.2-.2,3.5-.9,3.5-.9,4.7,1.6,8.6,2.3,7.9,3.6h-16Z"/><path class="cls-9" d="M327.2,260.1a2.4,2.4,0,0,0,2.1-1.2A1.4,1.4,0,0,1,327.2,260.1Z"/><path class="cls-2" d="M283.1,236.8a64.2,64.2,0,0,0-7.6,1.2c-1.6.6-3.7,5.8-3.7,5.8s8.6,24.9,8.3,29.4-1.3,11-1.3,11,17,1.1,23.4-1.4c0,0-2-10.1-2-12.8s-1.2-29.1-2-30.5-2.4-2.2-5.6-2.9S283.1,236.8,283.1,236.8Z"/><path class="cls-7" d="M284.2,229.3l-1.1,7.5s3.4,3.9,5.9,3.1,1.5-3.5,1.5-3.5-1.1-4.2-.8-6.3S284.2,229.3,284.2,229.3Z"/><path class="cls-14" d="M289.7,230.1c.4-2.1-5.5-.8-5.5-.8v.7a2.1,2.1,0,0,0,.6,1,7.8,7.8,0,0,0,5.1,2.3A12.4,12.4,0,0,1,289.7,230.1Z"/><path class="cls-7" d="M283.3,218.8c-.2,0-1.3,8.5.9,10.8s6.4,3.1,8,1.3,1.6-11.2-1.8-13.6S283.3,218.8,283.3,218.8Z"/><path class="cls-19" d="M289.1,212.7a9.5,9.5,0,0,0-5,2.9c-1.2.1-2.8.8-4.5,3.5a6.8,6.8,0,0,0,1.9,9,5.2,5.2,0,0,1,2.3,4l.4-1.1a5.7,5.7,0,0,0,.3-2.6,4.7,4.7,0,0,0-.4-1.6c-.6-1.2,1.3-2,1.8-3s.4-2.6,1-3.9l.7-1a4.5,4.5,0,0,1,3.4-1C292.7,218.3,292.4,212.1,289.1,212.7Z"/><path class="cls-7" d="M285.8,225.3c0,1-.5,1.9-1.1,1.9s-1.1-.9-1.1-1.9.4-1.9,1-1.9S285.7,224.2,285.8,225.3Z"/><rect class="cls-20" x="293.5" y="243" width="34.3" height="29.75" transform="translate(621.2 515.8) rotate(180)"/><rect class="cls-6" x="314.8" y="243" width="29.7" height="29.75" transform="translate(659.3 515.8) rotate(180)"/><path class="cls-7" d="M314.2,272.2c-1.7-.6-21.8-5.7-22.5-6.2s-13.2-12.1-13.2-12.1l7.1-3.7,11.1,10.9,15,5.7a36.1,36.1,0,0,0,4.7,1.7c.3,0,.6-.3,3-.9a5.3,5.3,0,0,1,1.8.2s1.2.3,1.2.7a.6.6,0,0,1-.6.5l-.9-.2c-.3,0-.8.6-.9.8s3.4,2.8,3.6,3.1,4.3-.2,4.1.1-.5.3-.5.4-6,2-6.4,1.8S314.2,272.2,314.2,272.2Z"/><path class="cls-18" d="M282.3,259.3l8.2-5.3s-9.5-14.3-12.7-15.8-4.9.5-6,4.3S282.3,259.3,282.3,259.3Z"/><path class="cls-3" d="M341.6,249.8l-1.4,1.3v-7.7a1.5,1.5,0,0,0-1.5-1.5h-12a1.5,1.5,0,0,0-1.5,1.5v8.9l-1.4-2.5-5.1,1.4s4.1,7.8,6.5,9.1,11.6,1.6,15,0,5.5-7.2,5.5-7.2Z"/><path class="cls-10" d="M337,261.2c-.3-2.7-2-4.7-4.2-4.7s-4,2.1-4.2,4.7A26.3,26.3,0,0,0,337,261.2Z"/><path class="cls-15" d="M265.2,44.5c-1.2,2.1-3.4,2-5.8,2.6s-2.5,3-2.4,4.9c.4,5-3.5,4.2-6.6,6.2-7.6,5-2.7,17.8,5.5,18.7a9.5,9.5,0,0,0,5-.9,22.3,22.3,0,0,1,3.3-2c2.8-1,5.9-1.3,8.1-3.5s.5-4.5,1.4-6.7,4.3-1.1,5-5.7-.1-9.3-1.9-11.8-8.4-4.3-10.3-3.1A4,4,0,0,0,265.2,44.5Z"/><path class="cls-7" d="M299.7,53.8c-.2-.6-2.8,1.2-3.4.9s2.3-3.3,2-3.8-3.4,3-3.7,2.6,2.5-4.7,1.5-4.9-2.3,4.7-2.8,4.4,1.7-4.5.7-5.3-2.9,7.5-3.7,7.8-1.8-3.1-2.7-3,2.7,6.4,2.5,6.9-3.3,10.8-5.2,13.9l-3.3-1.6c-.4,2.3-.4,4.8-1,7.2,3.7,1.6,6.9,2.7,8,2.3,3.2-1.1,4.8-16.7,5.3-19.7s1.9-3.4,2.6-5S300,54.4,299.7,53.8Z"/><path class="cls-8" d="M272.9,66.9l-5.4,5.5s7.1,3.8,13.1,6.5c.6-2.4.6-4.9,1-7.2C276.7,69.1,272.9,66.9,272.9,66.9Z"/><path class="cls-7" d="M306.4,127.2a40.1,40.1,0,0,1,4.3,6.1c.1.1.1,1.1.2,1.3,3.7,2.4,7.6,1.8,10.8.8-2.1-1-5.1-2-5.3-2.4a42.5,42.5,0,0,1-4.6-7.9C310.2,126.8,308.6,126.6,306.4,127.2Z"/><path class="cls-2" d="M310.7,133.4c-.3,1.5-.2,4.4.1,4.5s12.7,1.9,14.3.3-.9-1.7-3.4-2.8C318.5,136.4,310.8,134.4,310.7,133.4Z"/><path class="cls-7" d="M307.5,138.3a44.6,44.6,0,0,1,4.2,6.1,5.9,5.9,0,0,1,.2,1.3c3.7,2.4,7.6,1.8,10.8.8-2.1-.9-5-2-5.3-2.4a55.9,55.9,0,0,1-4.5-7.8C311.2,137.9,309.7,137.7,307.5,138.3Z"/><path class="cls-2" d="M311.8,144.5c-.4,1.5-.2,4.5.1,4.5s12.6,1.9,14.2.3-.8-1.6-3.4-2.8C319.5,147.5,311.9,145.5,311.8,144.5Z"/><path class="cls-21" d="M313.5,127.1l-6.4,2.2-34.5-28.6s8.4-.1,23.5,1.4C300.6,102.6,313.5,127.1,313.5,127.1Z"/><path class="cls-22" d="M259.6,98.3a19,19,0,0,0-1,3.7c-.4,4.3,1.8,9.7,4.2,10.6s17.4,5,26.4,3.7l19.6,26.1,6.5-2.9L300,112.7s-2.9-4.6-5.3-5.7-22.1-6.3-22.1-6.3l-3.1-4.5Z"/><path class="cls-13" d="M275.5,71.3c-1.1-2-2.2-3.6-2.2-3.6-1.1-2-4-3-4-3h-2.1c0,.2-.1.4-.2.4s-2.8-.1-4.3,1c-5.2,4.4-3.8,26.1-3.4,32.9l12.6.5s1.2-15,4.4-18.8S277.1,74.2,275.5,71.3Z"/><path class="cls-7" d="M268.4,57.4a66.4,66.4,0,0,1-1.5,7.7c-.6,1.5,3.4,4.7,6.6,5.7s-1-3.3-.8-4.9.7-9.3.7-9.3Z"/><path class="cls-14" d="M273.2,58.8c.1-1.3.2-2.2.2-2.2l-5,.8s-.1.7-.3,1.7A4.1,4.1,0,0,0,273.2,58.8Z"/><path class="cls-7" d="M270,46a5.4,5.4,0,0,0-3.2,2.3c-1.2,1.9-2.1,7.4,1.9,9.9s7.2-1,7.2-4.6S275.2,45.4,270,46Z"/><path class="cls-7" d="M276.8,52.5c-.3.9-1,1.4-1.5,1.2s-.6-1.1-.3-1.9,1.1-1.4,1.6-1.2S277.2,51.7,276.8,52.5Z"/><path class="cls-7" d="M266.7,53.2a1.5,1.5,0,0,1-.6,2c-.6.2-1.3-.4-1.6-1.3s-.1-1.8.6-2S266.4,52.3,266.7,53.2Z"/><path class="cls-23" d="M283.3,73.6a10.5,10.5,0,0,0,1.8,0c2.2-.2,1.3,3.1,1.3,3.1s-1.1-1.1-1.6-1.1h-1Z"/><path class="cls-23" d="M290.8,95.5s.9,1.4,2,.8,2.7-1.9,3.1-1,.2,1.7-.1,1.9a16.1,16.1,0,0,1-4.4,1.7,3.8,3.8,0,0,1-2.7-1.2Z"/><path class="cls-16" d="M293,98.7a8.2,8.2,0,0,0-.9-3.4c-1.6-2.7-8.2-10-9.2-10.6s-.3-2.8-.3-2.8l-3.9-2.1-2-1.1-5,7.7c-.3.7.3,2.9-.2,4.2s0,8.7-.6,9.5-1,.6-1.2.9a.4.4,0,0,0,0,.6c.6.7,3.3.1,3.3.1s1.1-1.6.9-2.5.4-6.4.8-6.4,1.9,2.4,2.5,2.9h.2a11.9,11.9,0,0,1,4,1.2,3.3,3.3,0,0,1,.2,1.2v1.3c-.1.8-.2,1.6-.3,2.2h2.1a3.4,3.4,0,0,1,3.1-1.7,3.6,3.6,0,0,1,3,1.5c1.2,0,1.7.5,2.6.4A29.9,29.9,0,0,0,293,98.7Z"/><path class="cls-16" d="M283.7,73.9a2.2,2.2,0,0,0-1.6-.5h-1.4a4.6,4.6,0,0,0-3.9.9c-.9.9-1,4.2,0,5.8s4,1.9,4.3,2.6,2.8,1.1,3.2.2a.6.6,0,0,0,.6.1c1-.3,1.3-1.2,1-2.3s-1.8-3.1-1.5-5A2.5,2.5,0,0,0,283.7,73.9Z"/><path class="cls-23" d="M283.1,80.3c-.1.2-.2.5,0,.6a4.6,4.6,0,0,0,1.2,1.2c.6.3,1.1-1.1,1.1-1.7S284.1,79.3,283.1,80.3Z"/><path class="cls-23" d="M282.5,90.2a.5.5,0,0,0-.5-.5h0a2.6,2.6,0,0,0-2.4,3v.2a16.6,16.6,0,0,1-1,2.1l2.7.7,1.4-2.2Z"/><path class="cls-23" d="M277.3,97.3s-1,3.1-1.3,4.3,1.3-.4,3.2.1a29.9,29.9,0,0,0,.8-3.2,16.3,16.3,0,0,1,1.5-2.8c0-.1,0-.2-.1-.2l-2.7-.9h-.3A27.3,27.3,0,0,0,277.3,97.3Z"/><path class="cls-23" d="M275.2,101.3a1.9,1.9,0,0,1,1.7-.9c.9,0,2.3,1.3,2.3,1.3a2.2,2.2,0,0,1-1.5.4C276.5,102.1,274.8,102.2,275.2,101.3Z"/><path class="cls-23" d="M280.5,101.1a1.9,1.9,0,0,1,1.7-.9,3,3,0,0,1,1.1.4.7.7,0,0,1-.4,1.3h0C281.7,101.9,280.1,102,280.5,101.1Z"/><path class="cls-23" d="M288.8,101.1a2.6,2.6,0,0,1,2.1-.9,3.3,3.3,0,0,1,1.3.4.7.7,0,0,1-.4,1.3h-.1C290.3,101.9,288.3,102,288.8,101.1Z"/><path class="cls-23" d="M279.9,74.6c-.5-.4-.2-.9,0-1.2a4.2,4.2,0,0,0-3.1,1c-.9.9-1,4.2,0,5.8s3.4,1.8,4.1,2.4c.7-1.2-.4-2.2-.6-2.8s1.3-2,1.4-3.1S280.5,75.3,279.9,74.6Z"/><path class="cls-16" d="M277.8,73.7a3.3,3.3,0,0,1-2-.1c-1.2-.4-2.4,1.7-2.4,1.7a9.9,9.9,0,0,0,2,2.9C276.2,78.8,277.8,73.7,277.8,73.7Z"/><path class="cls-7" d="M292.6,93.6c0-.5-1.5-2-2.3-1.8a29.1,29.1,0,0,0-3.8,2.1l-13.2-3.1s-3.4-7.6-3.7-14.2a18.8,18.8,0,0,0-7,2.4c1.1,6.3,3.9,16.5,7,18.4,1.4.8,17-1,17-1s3.3.5,4.1.2C294,95.7,292.6,94.6,292.6,93.6Z"/><path class="cls-8" d="M269.7,69.6c-.4-2-.9-4-3-4.6a4.2,4.2,0,0,0-3.9.9,5,5,0,0,0-1.6,4.2,55.6,55.6,0,0,0,.9,10.8c2.4-1.4,5.9-1.2,8.7-1.6C271,76.2,270.2,72.2,269.7,69.6Z"/><path class="cls-6" d="M162.2,58.5c-1.5,7.4-5.9,23.1-13.2,22.8-.4-10.2-.9-19-1.6-21.8l-.6-1.6c4.6.4,7.3-6.6,8.4-11.5-1,3.1-3.1,8.1-5.9,9.8a3.5,3.5,0,0,1-3.1.3c-2.7-4.9-7.7-8.2-10.1-11.1s-.7-11.7-.2-14.7a48.4,48.4,0,0,0-1.1,12c.4,4,2.5,4.2,7.2,9.6s5,6.5,5.2,22.6h-1.1c-3.8.1-7.4-3.7-9.3-6.9,1.5,2.9,4.3,6.3,7.5,7.3l1.8.4h1.1c0,1.4.5,29.1.1,47,1.1,0,.9-.5,2-.4,0-4.8.2-23-.3-38.9C157.6,83.1,161.1,67.3,162.2,58.5Z"/><path class="cls-20" d="M130.9,34a6.1,6.1,0,0,0,4.3,1l-6.3-5A6.8,6.8,0,0,0,130.9,34Z"/><path class="cls-6" d="M128.9,30l6.3,5a6.4,6.4,0,0,0-1.9-4A6.4,6.4,0,0,0,128.9,30Z"/><path class="cls-20" d="M160.1,80.2a6.3,6.3,0,0,0,4-2.1l-8.1.3A6.9,6.9,0,0,0,160.1,80.2Z"/><path class="cls-6" d="M156,78.4l8.1-.3a6.4,6.4,0,0,0-4.1-1.7A6.8,6.8,0,0,0,156,78.4Z"/><path class="cls-20" d="M162.5,72a4.9,4.9,0,0,0,1.9-3l-5.5,3.5A5.2,5.2,0,0,0,162.5,72Z"/><path class="cls-6" d="M158.9,72.5l5.5-3.5a5.2,5.2,0,0,0-3.6.5A4.9,4.9,0,0,0,158.9,72.5Z"/><path class="cls-20" d="M154.6,71.7a5.3,5.3,0,0,0,2.6,2.6l-2.3-6.2A5.4,5.4,0,0,0,154.6,71.7Z"/><path class="cls-6" d="M154.9,68.1l2.3,6.2a5.4,5.4,0,0,0,.3-3.6A5.8,5.8,0,0,0,154.9,68.1Z"/><path class="cls-20" d="M136.7,38.7a4.7,4.7,0,0,0-1.6,2.8l4.9-3.4A4.7,4.7,0,0,0,136.7,38.7Z"/><path class="cls-6" d="M140,38.1l-4.9,3.4a4.7,4.7,0,0,0,3.2-.5A4.9,4.9,0,0,0,140,38.1Z"/><path class="cls-20" d="M155.5,52.4a5.1,5.1,0,0,0-3.1,1.2l6,.4A4.6,4.6,0,0,0,155.5,52.4Z"/><path class="cls-6" d="M158.4,54l-6-.4a4.9,4.9,0,0,0,2.9,1.6A4.7,4.7,0,0,0,158.4,54Z"/><path class="cls-20" d="M137.9,71.3a4.4,4.4,0,0,0-3.1,1.1l5.9.5A4.5,4.5,0,0,0,137.9,71.3Z"/><path class="cls-6" d="M140.7,72.9l-5.9-.5a5,5,0,0,0,2.8,1.7A4.7,4.7,0,0,0,140.7,72.9Z"/><path class="cls-20" d="M141,69.6a4.6,4.6,0,0,0-2.4-2.3l2.2,5.6A4.9,4.9,0,0,0,141,69.6Z"/><path class="cls-6" d="M140.8,72.9l-2.2-5.6a4.3,4.3,0,0,0-.2,3.3A4.6,4.6,0,0,0,140.8,72.9Z"/><path class="cls-20" d="M152.8,50.3a3.2,3.2,0,0,0-1.5-1.5l1.3,3.6A2.8,2.8,0,0,0,152.8,50.3Z"/><path class="cls-6" d="M152.6,52.4l-1.3-3.6a2.8,2.8,0,0,0-.2,2.1A3.2,3.2,0,0,0,152.6,52.4Z"/><path class="cls-20" d="M132.9,42.3a4.9,4.9,0,0,0-3.3.2l5.6,2.2A4.6,4.6,0,0,0,132.9,42.3Z"/><path class="cls-6" d="M135.2,44.7l-5.6-2.2a5.1,5.1,0,0,0,2.3,2.4A4.7,4.7,0,0,0,135.2,44.7Z"/><path class="cls-20" d="M152.7,122.4h.8V88a.4.4,0,0,0-.4-.4h0a.4.4,0,0,0-.4.4Z"/><path class="cls-24" d="M142.5,123.6s4-4.8,7.2-3.5,3.8-1.1,5.5-.3a22,22,0,0,1,3.8,2.9Z"/><path class="cls-2" d="M150.3,97.7a6.9,6.9,0,0,1-3.2-.8.4.4,0,0,1-.1-.3h.3a5.4,5.4,0,0,0,6.1-.2c.1-.1.2,0,.3.1s.1.2,0,.3A6.3,6.3,0,0,1,150.3,97.7Z"/><path class="cls-2" d="M147.3,97l-.3-.3c-.3-.1-2.8-1.6-2.9-2.8a.9.9,0,0,1,.3-.7,1.4,1.4,0,0,1,1.2-.3c1.2.5,1.6,3.3,1.7,3.6Zm-2-3.7-.6.2a.5.5,0,0,0-.2.4c.1.6,1.4,1.7,2.3,2.2s-.6-2.5-1.3-2.8Z"/><path class="cls-2" d="M144.7,99.5c-.2,0-.4,0-.5-.3a.6.6,0,0,1-.1-.7c.3-.9,2.3-1.6,2.5-1.7l.6-.2-.3.5c-.2.4-1.4,2.4-2.2,2.4Zm1.5-2.1a4.6,4.6,0,0,0-1.7,1.2c-.1.2,0,.3,0,.4h.2C145,99.1,145.7,98.2,146.2,97.4Z"/><path class="cls-2" d="M147.5,96.6c0,.2-.1.4-.3.4a.4.4,0,0,1-.4-.4c0-.2.2-.3.4-.3A.3.3,0,0,1,147.5,96.6Z"/><polygon class="cls-6" points="4.3 242.6 5.6 243.7 7.1 243 8.5 244.3 9.9 243 11.5 244.4 12.9 243.4 14.7 244.5 14.3 245.2 13 244.4 11.4 245.4 9.9 244.1 8.4 245.4 7 243.9 5.4 244.6 4.2 243.6 3.3 244.3 2.9 243.6 4.3 242.6"/><polygon class="cls-6" points="188.3 40.7 183.1 39.5 181.7 43.2 176.5 42.2 174.7 45.6 170.7 45.3 170.7 46.9 176 47.2 177.8 44 183.1 45.1 184.5 41.5 189.2 42.5 188.3 40.7"/><path class="cls-3" d="M335.6,124.5l1.9-3.1L336,118a.5.5,0,0,1,.5-.7l3.6.8,2.7-2.5a.5.5,0,0,1,.9.3l.3,3.7,3.2,1.8a.5.5,0,0,1,0,.9l-3.4,1.5-.7,3.6a.5.5,0,0,1-.9.2l-2.4-2.8-3.7.5A.5.5,0,0,1,335.6,124.5Z"/><path class="cls-3" d="M27.1,212.4a4,4,0,0,1,2.5-2.2,3,3,0,0,1,3.9,2.1c.5,1.8-.5,4.5-4.1,7.7-4.8-.6-7.1-2.4-7.7-4.2a3.2,3.2,0,0,1,2.1-3.9A3.8,3.8,0,0,1,27.1,212.4Z"/><path class="cls-3" d="M13,217.4a37.3,37.3,0,0,0,4.5-.8c.5-.1,1.3-.2,1.5-.6a.6.6,0,0,0-.1-.7c-.4-.3-1.1,0-1.5.1a31.2,31.2,0,0,1-4.6.9.8.8,0,0,0-.5.7.6.6,0,0,0,.7.4Z"/><path class="cls-3" d="M37.1,215.3l1.9-.5a4.3,4.3,0,0,0,2-.6.5.5,0,0,0-.2-.9,4.5,4.5,0,0,0-2,.4l-2,.5a.6.6,0,1,0,.3,1.1Z"/><path class="cls-3" d="M21.3,224.6c.4-1.6,1.4-2.2,2-3s0-.9-.5-.7-2.2,2.1-2.6,3.4a.6.6,0,0,0,1.1.3Z"/><path class="cls-3" d="M29.8,226.3a5,5,0,0,1-.2-2.1c.1-.4.6-1.7-.2-1.7s-.9,1.3-1,1.8a5.3,5.3,0,0,0,.3,2.2c.2.7,1.3.5,1.1-.2Z"/><path class="cls-3" d="M34.4,220.7l1.3.6c.4.2.9.5,1.3.2a.4.4,0,0,0,.2-.6c-.1-.5-.8-.6-1.2-.7l-1.3-.6a.6.6,0,0,0-.3,1.1Z"/><path class="cls-3" d="M21.6,209.4c-2.3-3-2.3-3.1-2.6-3.3a.5.5,0,0,0-.8.6c.1.4.1.3,2.5,3.5.2.3.6.2.8.1s.2-.6.1-.9Z"/><path class="cls-3" d="M27.6,207.9a10.9,10.9,0,0,0,.1-1.8c-.1-.6-.1-1.5-.7-1.8h-.4c-.4.5-.1,1.2-.1,1.7a10.8,10.8,0,0,1,0,1.8.5.5,0,0,0,.5.6.6.6,0,0,0,.6-.6Z"/><path class="cls-3" d="M36.3,206.4a.5.5,0,0,0-.5-.5c-.5-.1-1,.5-1.3.8l-1,1.2a.6.6,0,0,0,.1.8.5.5,0,0,0,.8-.2C35.7,207,36.2,207.1,36.3,206.4Z"/><path class="cls-3" d="M380.1,166.9c-.6,4.4,4,7.9,8,7.6a9.9,9.9,0,0,0,8.9-8.4c.7-4.7-2.1-8.5-6.5-8.9a5.6,5.6,0,0,0-5.9,7.4c.9,2.8,3.5,3.8,4.7,3s1-2.1-.2-2.3a1.3,1.3,0,0,0-1.3.5c-1-.4-2-2.3-1.3-4.4s4.2-2.8,6.2-1.6,3.1,5,2.1,7.7a8.1,8.1,0,0,1-6.8,5.2,6.3,6.3,0,0,1-6.7-5.8A.6.6,0,0,0,380.1,166.9Z"/><path class="cls-6" d="M29.6,261c-.3,2.2,2.1,4,4.1,3.8a5,5,0,0,0,4.6-4.3,3.7,3.7,0,0,0-3.4-4.5,2.8,2.8,0,0,0-2.9,3.8c.4,1.4,1.7,1.9,2.4,1.5a.7.7,0,0,0-.2-1.2c-.2-.1-.5.1-.6.3a1.9,1.9,0,0,1-.7-2.3c.4-1.3,2.1-1.4,3.2-.8a3.1,3.1,0,0,1,1.1,3.9,4.1,4.1,0,0,1-3.5,2.7,3.2,3.2,0,0,1-3.4-2.9C30.2,260.5,29.7,260.6,29.6,261Z"/><path class="cls-2" d="M40.3,164.1V160l-3.5-2.4a.5.5,0,0,1,.2-1l3.9-1.3,1.2-4.1a.6.6,0,0,1,1-.1l2.5,3.3h4.2a.6.6,0,0,1,.5.9l-2.5,3.4,1.5,3.9a.7.7,0,0,1-.8.8L44.6,162l-3.4,2.6C40.9,164.9,40.3,164.6,40.3,164.1Z"/><path class="cls-25" d="M343.6,215.8a3.5,3.5,0,0,1,7-.4,3.5,3.5,0,0,1-3.3,3.7A3.5,3.5,0,0,1,343.6,215.8Z"/><path class="cls-25" d="M349.5,225.7c-.2-1-.3-2.1-.6-3.1a.8.8,0,0,0-1.6.3,18.6,18.6,0,0,0,.7,3.4.8.8,0,0,0,1,.5.9.9,0,0,0,.5-1.1Z"/><path class="cls-25" d="M355.5,221.4c-1.1-.7-2.1-1.6-3.2-2.4a.8.8,0,0,0-1.1,1.2,13.6,13.6,0,0,0,3.6,2.7.8.8,0,1,0,.7-1.5Z"/><path class="cls-25" d="M353.3,215.1a.6.6,0,0,0-.1.8c.4.7,1.4.7,2.1.7a8.5,8.5,0,0,0,2.2-.4c1-.4.4-2-.6-1.6S354.1,214.5,353.3,215.1Z"/><path class="cls-25" d="M352.2,208.3c-1,1.5-1.8,2-1.7,2.8a.7.7,0,0,0,.9.6c.6-.1.9-.7,1.2-1.1l.9-1.2a.8.8,0,0,0-.1-1.2.9.9,0,0,0-1.2.1Z"/><path class="cls-25" d="M348.3,208.1c-.4-.9-.4-1.3-.9-1.7s-1.1-.1-1.2.4a3.8,3.8,0,0,0,.5,1.8.7.7,0,0,0,1,.5.8.8,0,0,0,.6-1Z"/><path class="cls-25" d="M344,210.2c-1.5-1.1-1.8-1.4-2.4-1.3a.6.6,0,0,0-.6.7c.1.7.5.9,1.9,1.9a.8.8,0,0,0,1.2-.1,1.1,1.1,0,0,0-.1-1.2Z"/><path class="cls-25" d="M338.1,215.4a.7.7,0,0,0,.3,1.3c.6.1.8,0,3.7-.5a.9.9,0,0,0,.8-.9c0-.4-.5-.9-.9-.8C339,215,338.7,215,338.1,215.4Z"/><path class="cls-25" d="M342.6,220.1c-1.5,1.6-1.8,1.3-2.4,2.2a.8.8,0,0,0,.7,1.1,4.4,4.4,0,0,0,1.6-.9,8.6,8.6,0,0,0,1.4-1.3.8.8,0,0,0,0-1.2,1.1,1.1,0,0,0-1.3.1Z"/><path class="cls-2" d="M69.4,356h3.4V174.4a1.8,1.8,0,0,0-1.7-1.7h0a1.7,1.7,0,0,0-1.7,1.7Z"/><path class="cls-2" d="M92.5,356h3.4V171.4a1.8,1.8,0,0,0-1.7-1.8h0a1.7,1.7,0,0,0-1.7,1.8Z"/><rect class="cls-2" x="71.8" y="192.4" width="23.5" height="2.05"/><rect class="cls-2" x="71.8" y="219.9" width="23.5" height="2.05"/><rect class="cls-2" x="71.8" y="247.3" width="23.5" height="2.05"/><rect class="cls-2" x="71.8" y="274.8" width="23.5" height="2.05"/><path class="cls-26" d="M78.4,292.2H63.5a2.2,2.2,0,0,0-2.2,2.2v8.4h2.5v-7.9H78.4Z"/><path class="cls-7" d="M81.2,286.6l-4.6-4.9s-4.9,2.7-10.7,5.3c-1.5-2.7-4.1-11.8-4.3-12.2s3.1-5.9,2.4-6-1.7,2.9-2.4,2.6-2.7-7.3-3.1-7,1,4.4.5,4.7-1.5-4.1-2.4-3.9,1.5,3.9,1.2,4.3-2.6-3.2-3.1-2.3,2.2,3,1.7,3.3-2.8-1.3-3.1-.8,2.1,1.1,2.8,2.4,1.8,1.9,2.2,4.5,1.5,16.2,4.3,17.3S81.2,286.6,81.2,286.6Z"/><path class="cls-7" d="M123.7,349.7a96.7,96.7,0,0,0,.1-12.4l6.4-.4c-.9,6.4-1.5,13-1.5,13V355H116.1a56.7,56.7,0,0,0,6.5-3.6A2.4,2.4,0,0,0,123.7,349.7Z"/><path class="cls-10" d="M129.2,355.8H115.8c-.5,0-.6-.4-.4-.6s1.8-.9,3.6-1.7,9.3-1.7,9.8-2.4C129.1,352.5,129.5,355.7,129.2,355.8Z"/><path class="cls-7" d="M146.5,347a95.4,95.4,0,0,0-6.4-10.6l5.5-3.9,5.3,12.1.8,1,2,3.2-10.8,6.8a66.4,66.4,0,0,0,3.7-6.4A2.8,2.8,0,0,0,146.5,347Z"/><path class="cls-10" d="M154.3,349.6l-11.2,6.9a.5.5,0,0,1-.7-.4c0-.6,1.1-1.7,2.2-3.3,2.7-1.3,7-6.4,7-7.3C152.6,346.6,154.5,349.4,154.3,349.6Z"/><path class="cls-15" d="M141.3,242c1-4.8-2.2-9.6-6.6-11.4.1-2.8-.8-6.3-2.7-8.2-3.7-3.7-10.8-5-13.6-.3-3.6,2.1-6.4,6.5-5.4,10.5-3.5,3.7-2.1,10.2,3,13.3-.1,4.1,2,8.2,5.6,9.9L124,257c-.3-.2,2.6,7.8,11.5,4.1S147.2,246.9,141.3,242Z"/><path class="cls-11" d="M123.4,346c1.1-6.1-2.7-21.3-5-27.9s-4-36.4-4-36.4l2.7-3.2,11.3-.6s-4.8,14.7-4.8,19.7,2.3,18.1,5.1,24.9,1.4,19.4.7,23.7A15.1,15.1,0,0,1,123.4,346Z"/><path class="cls-12" d="M131.2,279.2c.6.5,3.6,4.1,3.6,6.6s-5.7,25.1-4.4,26.4,6.5,4.8,9.7,9.6a201.4,201.4,0,0,1,10.2,18.4,25.7,25.7,0,0,1-6.8,3.1c-.4-2-18.8-22.4-20.9-26.6s-3.3-23.7-4.3-26.3l-3.9-9.1Z"/><path class="cls-7" d="M114.8,262.6s-6.9,7.9-14.6,10.9a10.8,10.8,0,0,0-2.3,1.4c0,.8,1.5.2,1.5.2a2.4,2.4,0,0,0-.2,1.8c.2.9,1.9.3,2.8.3s2.6-2.4,5.5-3.8,7.4-3.3,7.9-3.8S115.1,262.3,114.8,262.6Z"/><path class="cls-2" d="M129,240.3s-7-.7-10.7,1.6-6,10.6-6,14.2,2.7,22.1,1.6,25.7c0,0,11.6-.5,15.6-.5s4.7-1.6,4.7-1.6-8.2-8-8.2-11.6S129,240.3,129,240.3Z"/><path class="cls-10" d="M33.5,335.7v12.1h1.3v-11h8.7v3.8c-3.4.3-6,3.4-6,7.2s3,7.3,6.6,7.3,6.7-3.3,6.7-7.3-2.7-6.9-6-7.2v-3.8h1.8v-1.5H44.8V331h1.8v-1.5H44.8v-4.8H68.6v-2.2H55.4V310.2a7.4,7.4,0,0,1,7.1-7H73.8V301H62.5a9.3,9.3,0,0,0-9,9.2v12.3H44.8v-6.9H43.5v13.9H39.1C36,329.5,33.5,332.3,33.5,335.7Zm10-.4H34.8a4.4,4.4,0,0,1,4.3-4.3h4.4Z"/><path class="cls-27" d="M38.6,337.6l.3,4.7a23.8,23.8,0,0,1,.5,2.6c0,2-9.1-1.8-7-2.7a5.9,5.9,0,0,0,1.4-1.8,14.1,14.1,0,0,0,.7-3.4Z"/><path class="cls-28" d="M32.4,342.2l3.2.8c1.1.2,2.5-1.2,3.3-.8s.9,4,.9,4-11.4.3-14.7-.2C23.8,345.9,28.1,343.7,32.4,342.2Z"/><path class="cls-10" d="M83.8,327.6h2.5V280.1c0-1.6,1.5-2.9,3.5-2.9h22.4a1.1,1.1,0,0,0,1.1-1h0a1.1,1.1,0,0,0-1.1-1.1H89.8c-3.3,0-6,2.3-6,5Z"/><path class="cls-10" d="M72.1,317.6a15.2,15.2,0,1,1-15,15.2A15.1,15.1,0,0,1,72.1,317.6Z"/><path class="cls-10" d="M53.8,332.8a18.3,18.3,0,1,0,18.3-18.5A18.4,18.4,0,0,0,53.8,332.8Zm1.7,0a16.6,16.6,0,1,1,16.6,16.7A16.6,16.6,0,0,1,55.5,332.8Z"/><rect class="cls-3" x="84.1" y="283.2" width="7.4" height="28.51" transform="translate(175.6 595) rotate(180)"/><path class="cls-3" d="M60,329.5H53.8a6.1,6.1,0,0,0-6.1,6.2v12.1h1.4V335.7a4.7,4.7,0,0,1,4.7-4.7H60Z"/><rect class="cls-10" x="38.1" y="313.6" width="19.4" height="3.32" transform="translate(95.5 630.5) rotate(180)"/><rect class="cls-3" x="48.4" y="335.3" width="11.5" height="1.44"/><rect class="cls-3" x="59.2" y="322.5" width="26.5" height="2.16"/><rect class="cls-10" x="56.9" y="313.5" width="34.5" height="3.37" transform="translate(148.4 630.4) rotate(180)"/><path class="cls-3" d="M90.4,330.1h2.1V282.6a3,3,0,0,1,3-2.9h20.2v-2H95.5a5,5,0,0,0-5.1,4.9Z"/><path class="cls-10" d="M51.2,347.8c0,4,3.6,7.3,8,7.3s8.1-3.3,8.1-7.3-3.6-7.3-8.1-7.3S51.2,343.8,51.2,347.8Z"/><path class="cls-3" d="M54.4,347.8a4.6,4.6,0,0,0,4.8,4.4,4.4,4.4,0,1,0,0-8.8A4.6,4.6,0,0,0,54.4,347.8Z"/><path class="cls-18" d="M39.7,301c2.3-2.3,34.6-1.2,34.6-1.2s-27.4,6.7-29,7.6-7.5,30.3-7.5,30.6c-1.7-.4-2.7-.1-4.3-.4C33.7,332.5,36,304.8,39.7,301Z"/><path class="cls-29" d="M42.8,337.7l.3,4.7c.1.6.5,2.1.5,2.6,0,2-9-1.7-7-2.6a4.4,4.4,0,0,0,1.5-1.9,22.4,22.4,0,0,0,0-2.7Z"/><path class="cls-28" d="M36.6,342.4a24.4,24.4,0,0,0,3.2.7c1.1.2,2.5-1.1,3.3-.8s.9,4,.9,4-11.4.4-14.6-.1C28,346,32.3,343.8,36.6,342.4Z"/><path class="cls-2" d="M79.4,306.5s-.3,7.3-2.8,7.4-18.1.4-26.9-.4l-5.9,26.3-7-.7s2.1-17.5,2.8-24.2,2.9-12.1,6.6-12.2,28.1-3.9,28.1-3.9Z"/><path class="cls-13" d="M85.9,272.2s4,1,3.5,8.7-4.9,31.1-12.8,33-13-14.8-13-14.8,5-1.7,7.1-9.4c1.4-5.4,5.3-17.4,6.2-18S85.9,272.2,85.9,272.2Z"/><path class="cls-3" d="M69.4,324.2h2.1v-14c0-3.3,3.3-7,7.7-7H91.5V301H79.2c-5.2,0-9.8,4.3-9.8,9.2Z"/><ellipse class="cls-3" cx="91.5" cy="334.8" rx="17.3" ry="17.4"/><path class="cls-3" d="M70.4,334.8a21.1,21.1,0,1,0,21.1-21.2A21.2,21.2,0,0,0,70.4,334.8Zm2,0A19.1,19.1,0,1,1,91.5,354,19.2,19.2,0,0,1,72.4,334.8Z"/><path class="cls-10" d="M77.2,334.8a14.3,14.3,0,1,0,14.3-14.4A14.4,14.4,0,0,0,77.2,334.8Z"/><path class="cls-3" d="M88.3,334.8a3.2,3.2,0,0,0,3.2,3.2,3.2,3.2,0,1,0,0-6.4A3.2,3.2,0,0,0,88.3,334.8Z"/><rect class="cls-10" x="27.9" y="346.2" width="21.7" height="3.77" transform="translate(77.6 696.2) rotate(180)"/><rect class="cls-3" x="37.3" y="346.2" width="12.3" height="3.77" transform="translate(87 696.2) rotate(180)"/><rect class="cls-3" x="58.5" y="316.9" width="1.4" height="33.15"/><path class="cls-10" d="M58.4,348.2a.9.9,0,1,0,.9-.9A.9.9,0,0,0,58.4,348.2Z"/><path class="cls-19" d="M83.6,251.5a2.5,2.5,0,0,1,3.9,1.4h1.1a5.7,5.7,0,0,1,1.6,1.1,6.8,6.8,0,0,1,2.8,5.4,8,8,0,0,1-2.6,6.2,7,7,0,0,1-1.6,1.4c-.8.4-1.4.1-2.1.3s-.9.7-1.6.5-2-1.6-3.3-1.4-4.1-.9-4.1-.9c-3.7-1.5-1.2-8.6-.5-11.1S81.3,250.7,83.6,251.5Z"/><path class="cls-7" d="M80.2,267.8l-.9,2.6-.6,1.4s0,2.7.6,3.3,5.4-3.1,5.4-3.1l1.4-8.3Z"/><path class="cls-14" d="M85.6,266.4a9.3,9.3,0,0,1-6.4,4l1-2.6,5.9-4.1Z"/><path class="cls-7" d="M84.9,255.3a4.1,4.1,0,0,0-6,2,29,29,0,0,0-1.1,3.8c-.9,3.6.2,7.4,1.8,7.7s6.5-.9,7.8-5.9C88.2,259.8,87.2,256.7,84.9,255.3Z"/><path class="cls-7" d="M86.1,263.1a1.2,1.2,0,0,0,.9,1.6c.6.2,1.2-.4,1.4-1.1a1.3,1.3,0,0,0-.8-1.7A1.4,1.4,0,0,0,86.1,263.1Z"/><path class="cls-19" d="M81.2,264.5s2.1.7,2.2,1.5a2.5,2.5,0,0,1-1.1,2.7c-1,.9-3.2.4-3.8-.1A3.7,3.7,0,0,1,78,265C78.6,263.9,81.2,264.5,81.2,264.5Z"/><path class="cls-7" d="M81.9,266.1a3,3,0,0,1-.3,1.1l-1,.3a1.6,1.6,0,0,1-1.3-.6h-.1a3.9,3.9,0,0,1-.2-1.2,3.7,3.7,0,0,1,1.4-.2A7.2,7.2,0,0,1,81.9,266.1Z"/><path class="cls-7" d="M104.7,276.2c.8-.8,4.7-2.1,7.6-4.2a69.6,69.6,0,0,1,6.3-3.6,18.2,18.2,0,0,1,4.5,3.7c-4.4,2.1-9.1,4.1-9.9,4.8s-3.7,4.5-4.3,4.5-4.8-1.3-5.4-1.9S103.8,277,104.7,276.2Z"/><path class="cls-18" d="M118.6,268.4c3-1.7,6-3.5,6.3-5.2s-2-15.9-.6-18.4a18.4,18.4,0,0,1,4.7-4.5,4.3,4.3,0,0,1,2.8,3.3c.5,2.3-.4,22.3-.9,24.1s-3.7,4.3-7.6,6.1C122.1,272.3,120.3,269.4,118.6,268.4Z"/><path class="cls-7" d="M87,295.5l-12.3,3.2a38.5,38.5,0,0,1-5.2,3.1c-1.6.5-3.6,2.3-3.2,2.8s2.4-1.3,2.8-1.2-1.2,2.2-1.5,3.6-.7,2.9.1,2.8,1.4-3.4,1.4-3.4,1.3-2.4,1.5-2.1-.8,1.9-.8,1.9l-.4,2.5c-.1.5.4,1.9.7,1.4s.2-1.5.4-2.2a9.5,9.5,0,0,1,1.4-2.5s-.9,4.2-.3,4.3,1.1-3.4,1.1-3.4,1.4-2.8,2.1-3.1,2.3-1.3,3.6-1.8,6.7,1.1,9.1,1.1,6.3-1.5,6.7-3.4a2.4,2.4,0,0,0-.8-1.8A6.2,6.2,0,0,0,87,295.5Z"/><path class="cls-8" d="M85.9,272.2s3.7-.6,7.1,5.4,1.2,21.5,1.2,21.5L87,295.5Z"/><path class="cls-7" d="M102.4,277.4c-.4,0-2.7.2-3.1-.2s1.2-1.3,1.4-1.1.8-.2,1,0,.9,0,1.1.2S102.8,277.4,102.4,277.4Z"/><path class="cls-7" d="M125.3,234.1a30.3,30.3,0,0,0-.6,5.9c.2,1.7-.6,7.2-4,7.2s-1-5.7-.7-7.3.8-8.1.8-8.1Z"/><path class="cls-14" d="M120.6,234.2c.1-1.4.3-2.5.3-2.5l4.4,2.4s-.1.8-.3,1.9A4,4,0,0,1,120.6,234.2Z"/><path class="cls-7" d="M125.4,221.6a5.8,5.8,0,0,1,2.9,2.7c1.1,2.1,1.4,7.9-2.7,10.1s-6.9-1.9-6.7-5.5S120.3,220.4,125.4,221.6Z"/><path class="cls-7" d="M117.7,227.8c-.1,1,.2,1.8.7,1.8s1.1-.6,1.2-1.6-.3-1.7-.8-1.8S117.8,226.9,117.7,227.8Z"/><path class="cls-7" d="M128,229.4c-.4,1-.2,1.9.4,2.2s1.3-.3,1.7-1.2.2-1.9-.4-2.1S128.3,228.5,128,229.4Z"/><polygon class="cls-10" points="332.3 64.7 340.4 75.8 345.8 69.9 332.3 64.7"/><polygon class="cls-3" points="346.5 66.8 345.8 69.9 332.3 64.7 346.5 66.8"/><polygon class="cls-3" points="345.8 71.1 332.3 64.7 344.8 75.8 345.8 71.1"/><path class="cls-25" d="M354,84.4a12.9,12.9,0,0,1-5.5-2.1,9.3,9.3,0,0,1-4.1-5.7.3.3,0,0,1,.3-.3c.2,0,.4.1.4.3a8.9,8.9,0,0,0,3.8,5.1,12.4,12.4,0,0,0,5.1,2,.4.4,0,0,1,.4.4C354.3,84.3,354.2,84.5,354,84.4Zm-8.9-7.8Z"/><path class="cls-25" d="M368.7,87.7a36.8,36.8,0,0,1-11.9-4.6c-3.1-1.8-5.6-4.6-8.7-6.1-.2-.1-.3-.4-.2-.5a.4.4,0,0,1,.5-.2c3.2,1.6,5.7,4.4,8.7,6.2A36,36,0,0,0,368.9,87a21.9,21.9,0,0,0,5.3.3.4.4,0,1,1,0,.8A25.5,25.5,0,0,1,368.7,87.7Z"/><path class="cls-7" d="M190.7,215.4s-8.9-16-11.1-19.4-7.8-16.8-8-17.3,3.9-6.9,3-7.1-1.9,3.3-2.9,2.9-3.8-9.1-4.4-8.6,1.5,5.3,1,5.6-2.2-5-3.3-4.8,2,4.8,1.7,5.2-3.6-4-4.1-3,3,3.8,2.3,4.1-3.6-1.8-3.9-1.2,2.7,1.5,3.7,3.2,2.4,2.4,3.1,5.5,1.6,14.3,4.9,19.9l10.6,18Z"/><path class="cls-7" d="M230.3,292.2l-1-1.2-.9-1.6s-2.2-4.2-1.8-4.3,1.1.3,1.3.6l.7.6a.7.7,0,0,0,.9,0c.3-.3-.4-1.3-.8-1.6a35.2,35.2,0,0,0-4.5-3.3c-.4-.3-2.8-8.3-3.8-11h0c-1.6-4.5-3-9.1-3.2-9.6l-1-20.2-7.5-2.5s.8,22.4.9,23.5,4.6,10.6,4.6,10.6l5.1,9.8s.6,2.8.8,4.6a15.8,15.8,0,0,0,1.4,3.9,10.9,10.9,0,0,0,1.6,3.5c1.1,1.6.8-.4.8-.4s-1.5-3.2-1.2-3.3.9,1.8,2.1,3.5l.9,1.3c.7,1,1.5.9,1-.4s-.6-1.1-.9-1.6a5.5,5.5,0,0,1-.8-1.5l-.8-1.6c.1,0,.1-.3.5.2s1,1.9,1.6,2.7a14.8,14.8,0,0,1,1.1,1.4s1.3,1.4,1.4,1.3-.1-1.6-.7-2.1a9.3,9.3,0,0,0-1-1.5s-1.1-2.4-.8-2.5,4.1,4.9,4.6,4.6S230.3,292.2,230.3,292.2Z"/><path class="cls-19" d="M216.8,213.5a27.1,27.1,0,0,0-2.4-12.8c-1.7-3.6-5.9-5.6-9.8-5.6-12.1,0-13.7,16.1-21.4,22.3-2.4,1.9-5,3.4-7.2,5.4-8.3,7.6-4.6,21.5,3,28.1,5.3,4.6,13.5,7.2,20,3.6a19.5,19.5,0,0,0,7.8-8.3c2.6-4.9,4.3-10.5,6.1-15.6S216.6,219.4,216.8,213.5Z"/><path class="cls-7" d="M178.8,355.4s-.8,5.9-2.3,7.8a15.8,15.8,0,0,0-2,2.6c-.9,1.8-.4,4.5.3,6s-.1.7.7,1a4.9,4.9,0,0,0,5.9-2.8,12.8,12.8,0,0,0,1.1-5c.3-5.4,2-8.1,2-8.1Z"/><path class="cls-7" d="M204.6,358.1s.5,6.7.1,8.8-1.5,3.6-.9,4.7a2.2,2.2,0,0,0,1.2,1.3l15.2.3c.8,0,.3-.5-.4-1a24.9,24.9,0,0,0-5.4-3l-1.4-.9a9.3,9.3,0,0,1-2.2-1.9c-1.1-1.2-1.2-7.1-1.2-7.1Z"/><path class="cls-11" d="M216.5,269.3s1.9,10.8.6,17.9-7.3,73.1-7.3,73.1l-6.7.3s-1.4-27.5-1.1-31.3,2.2-10.3,2.2-10.3l-.7-22.2,8.5-29.2Z"/><path class="cls-12" d="M196.8,267s-5.3,7.9-6.6,14.5.9,26.7-1.5,35.3c-1.3,4.7-6.3,11.9-7,17.9s-3.7,21.8-3.7,21.8l6.7,1.3,15.6-39.4,12.2-35.6,3.1-18.3Z"/><path class="cls-2" d="M201,221.8s-7-.4-9.7,2.6,6.1,26.8,6.6,30.6-2.6,14.1-2.6,14.1,16.5,3.3,21.2.2c0,0,.5-27.6,0-30.3s-4.7-13.9-5.7-15S201,221.8,201,221.8Z"/><path class="cls-7" d="M203.4,212.5a1.5,1.5,0,0,0-.1.6c-.4,1.6-1.6,7.2-2.4,8.7s3.4,7.8,7.6,7.1c1.2-.2-1.1-5.5-1-6s.5-2.5.8-4,.3-1.7.5-2.4c.4-2.3.8-4.1.8-4.1Z"/><path class="cls-14" d="M203.3,213.1a1.5,1.5,0,0,1,.1-.6h6.2s-.4,1.8-.8,4.1c-.2.7-.3,1.6-.5,2.4a5.3,5.3,0,0,1-3-1.5,7.1,7.1,0,0,1-2.2-3.3A2.5,2.5,0,0,1,203.3,213.1Z"/><path class="cls-7" d="M207.6,198.3a5.7,5.7,0,0,0-4.8,2.1c-1.9,2.4-3.9,9.7.7,13.7s9.1-.5,9.8-5.3S214.2,198.1,207.6,198.3Z"/><path class="cls-7" d="M214.7,208.7c-.6,1.1-1.5,1.7-2.1,1.3s-.6-1.4-.1-2.5,1.5-1.6,2.1-1.3S215.2,207.7,214.7,208.7Z"/><path class="cls-19" d="M207.9,197.5s-3.9,7-6.8,7.4-3.1,4-3.1,4,1-8.6,3.7-10.2A10.4,10.4,0,0,1,207.9,197.5Z"/><path class="cls-10" d="M181.9,368.9a7.7,7.7,0,0,1-7.4-3.1c-.9,1.8-1.4,4.5-.7,6s2.4,1.3,3.7,1.3a3.6,3.6,0,0,0,3.4-2A23.5,23.5,0,0,0,181.9,368.9Z"/><path class="cls-10" d="M213,368.3a13.3,13.3,0,0,1-8.7-.3c-.4,1.2-.9,2.7-.6,3.6s.8,1.3,1.3,1.3l16.3.3a.4.4,0,0,0,.3-.7C220.9,371.6,213.3,368.5,213,368.3Z"/><path class="cls-7" d="M201.9,206.6c.2,1.3-.3,2.4-1.1,2.6s-1.6-.7-1.8-2,.2-2.4,1-2.5S201.6,205.4,201.9,206.6Z"/><path class="cls-18" d="M188.3,210.2s9.8,10.6,11.3,14.9-1.4,10.3-5.4,10.6-12.9-18.8-12.9-18.8Z"/><rect class="cls-3" x="181.7" y="62.9" width="21.3" height="14.79" rx="5" transform="translate(-10.5 42.5) rotate(-12.3)"/><polygon class="cls-3" points="182.5 72.3 177.8 80 185.1 76.9 182.5 72.3"/><path class="cls-16" d="M187.9,70.2l1.9-.5s1.9-2.3,1.9-2.9-.8-1.9-.4-2.1a1.1,1.1,0,0,1,1.7.1c.5.5.7,2.8.9,2.9l2.1-.4a1.3,1.3,0,0,1,1.3.5h.1a.7.7,0,0,1,0,.9l-.4.5.5.3a.9.9,0,0,1,.1,1.1l-.3.3.3.2a.9.9,0,0,1,.1,1.2l-.3.2h.1a.8.8,0,0,1,0,1l-.3.3-4.9,1.2a3.3,3.3,0,0,1-1.4,0l-1.9.2a.5.5,0,0,1-.4-.3l-1-4.4C187.6,70.4,187.7,70.2,187.9,70.2Z"/><path class="cls-25" d="M234.4,19.8c10,1.8,17.1,8.3,16,14.4-.6,3.1-3.1,5.5-6.8,6.9l2.4,9.8-7.2-8.6a31.4,31.4,0,0,1-8.6-.3c-9.9-1.9-17.1-8.4-16-14.5S224.4,17.9,234.4,19.8Z"/><path class="cls-2" d="M238.9,33.2a6.3,6.3,0,0,1-8.5,3,6.4,6.4,0,1,1,5.5-11.5A6.3,6.3,0,0,1,238.9,33.2Z"/><path class="cls-30" d="M229.6,29.9a3.5,3.5,0,0,0,1.6,4.6,3.4,3.4,0,0,0,4.6-1.6Z"/><polygon class="cls-3" points="380.4 204.1 378.1 204.3 377.4 200.8 374.1 200.7 373.1 198.2 371.8 198.7 373.2 202.1 376.3 202.2 377.1 205.8 380.4 205.5 380.4 204.1"/><polygon class="cls-6" points="367.6 148.3 362.5 146 361.3 149.6 359.6 149 361.4 143.6 366.5 145.8 367.8 141.6 372.5 143.6 374.5 139.4 376.1 140.2 373.4 145.9 368.9 144 367.6 148.3"/></svg>