<svg id="Layer_1" data-name="Layer 1" xmlns="http://www.w3.org/2000/svg" xmlns:xlink="http://www.w3.org/1999/xlink" viewBox="0 0 570 430"><defs><style>.cls-1,.cls-29,.cls-31,.cls-37,.cls-38,.cls-39,.cls-45{fill:none;}.cls-2{fill:#ffb6a6;}.cls-3{fill:#f85c3d;}.cls-4{fill:#e3eefe;}.cls-5{clip-path:url(#clip-path);}.cls-6,.cls-8{fill:#a4c4ff;}.cls-6{opacity:0.36;}.cls-7{fill:#81c2ff;}.cls-9{fill:#504f79;}.cls-10{fill:#38385d;}.cls-11{fill:#eecd76;}.cls-12{fill:#1a1a35;}.cls-13{clip-path:url(#clip-path-2);}.cls-14{fill:#ff8370;}.cls-15{clip-path:url(#clip-path-3);}.cls-16{clip-path:url(#clip-path-4);}.cls-17{fill:#df4930;}.cls-18{clip-path:url(#clip-path-5);}.cls-19{clip-path:url(#clip-path-6);}.cls-20{fill:#38385c;}.cls-21{clip-path:url(#clip-path-7);}.cls-22,.cls-32{fill:#fff;}.cls-23{fill:#1a2e35;}.cls-24{fill:#ffc19d;}.cls-25{fill:#ff9c6a;}.cls-26{fill:#375a64;}.cls-27{fill:#e1e1e1;}.cls-28{opacity:0.3;}.cls-29{stroke:#b5b5b5;}.cls-29,.cls-31,.cls-38,.cls-39,.cls-45{stroke-miterlimit:10;}.cls-30{fill:#7676a8;opacity:0.46;}.cls-31{stroke:#eecd76;stroke-width:2px;}.cls-32{font-size:12px;font-family:Mulish-Bold, Mulish;font-weight:700;}.cls-33,.cls-38{opacity:0.2;}.cls-34{fill:url(#linear-gradient);}.cls-35{fill:#6582db;}.cls-36{fill:#83b9f7;}.cls-37,.cls-39{stroke:#fff;}.cls-37{stroke-linecap:round;stroke-linejoin:round;stroke-width:1.94px;}.cls-38{stroke:#000;}.cls-38,.cls-45{stroke-width:0.42px;}.cls-39{stroke-width:0.53px;}.cls-40{fill:#ff005d;}.cls-41{fill:url(#linear-gradient-2);}.cls-42{fill:url(#linear-gradient-3);}.cls-43{fill:url(#linear-gradient-4);}.cls-44{fill:url(#linear-gradient-5);}.cls-45{stroke:#343947;}</style><clipPath id="clip-path"><path class="cls-1" d="M357.1,39.9C263.7,69.8,234.4,75.5,182.3,65.4c-48.2-9.5-84.1-2.7-132.8,37.9C-5.9,149.5-8.3,232.2,31.9,338.6c50.6,133.7,272.6,59,322.9,50,88.9-15.9,157.2,68.7,191.1-35.5C562.8,301,628.4-47,357.1,39.9Z"/></clipPath><clipPath id="clip-path-2"><path class="cls-2" d="M450.3,200.2c-7,1-36.4-6.3-43.7-7.8l-1.3,6.5c8.4,3.2,35.9,14.8,44.6,15.2Z"/></clipPath><clipPath id="clip-path-3"><path class="cls-3" d="M523.6,219.9l-24.1-18.5-.7-.5h0c-3.6-2.9-8.7-3.6-13.4-3.4s-30.3,1.1-35,1l-.6,19,18.2,2,4,38.9h41.5l-5.7-29.8Z"/></clipPath><clipPath id="clip-path-4"><path class="cls-2" d="M473.5,197.4c3.6,11.6,21.5,14.8,26.1,1.6l-12.2-2.7Z"/></clipPath><clipPath id="clip-path-5"><path class="cls-2" d="M472.9,174.8,468.6,188a4.1,4.1,0,0,0,3.3,5.3l6.8.9,1.4,9.4,10.6-.6-6.9-28.2Z"/></clipPath><clipPath id="clip-path-6"><path class="cls-2" d="M465.6,357.4v4.2s1.4,4.1,4.4,4.1,3.1-.9,3.1-.9l.7-7.4Z"/></clipPath><clipPath id="clip-path-7"><path class="cls-2" d="M508.7,357.4c1.4,2,2.7,8.3,6.4,8.3s3.1-.9,3.1-.9l-1.4-7.4Z"/></clipPath><linearGradient id="linear-gradient" x1="241.8" y1="60.65" x2="241.8" y2="25.92" gradientUnits="userSpaceOnUse"><stop offset="0" stop-color="#fff"/><stop offset="0.14" stop-color="#f8fbff"/><stop offset="0.35" stop-color="#e4f0fd"/><stop offset="0.61" stop-color="#c4ddfb"/><stop offset="0.89" stop-color="#97c4f8"/><stop offset="1" stop-color="#83b9f7"/></linearGradient><linearGradient id="linear-gradient-2" x1="231.55" y1="95.66" x2="231.55" y2="67.24" gradientUnits="userSpaceOnUse"><stop offset="0" stop-color="#ff8cb6"/><stop offset="1" stop-color="#ffca44"/></linearGradient><linearGradient id="linear-gradient-3" x1="243.09" y1="95.66" x2="243.09" y2="67.24" xlink:href="#linear-gradient-2"/><linearGradient id="linear-gradient-4" x1="254.64" y1="95.66" x2="254.64" y2="67.24" xlink:href="#linear-gradient-2"/><linearGradient id="linear-gradient-5" x1="266.18" y1="95.66" x2="266.18" y2="67.24" xlink:href="#linear-gradient-2"/></defs><path class="cls-4" d="M356.7,38.7c-93.4,30-95.6,43.1-147.7,33C160.8,62.2,114.6,58,65.9,98.6,10.4,144.7-8.7,231,31.5,337.4,82.1,471.1,163,413.9,333.1,408.5c91.7-2.9,177.9,24,212.4-56.6C567,301.6,628-48.1,356.7,38.7Z"/><g class="cls-5"><polygon class="cls-6" points="577.1 255.3 460.4 255.3 460.4 201.5 406.8 201.5 406.8 362 610.2 362 577.1 255.3"/><polygon class="cls-6" points="0.7 299 91.5 292.6 91.5 232.5 170 232.5 170 282.9 273.7 282.9 273.7 365.5 32.5 365.5 0.7 299"/></g><path class="cls-7" d="M386.7,307.1c1.8-6.2,9.7-1,12.1,2.1,4.7,6.1,9.7,21.5,10.2,26l2.1-4.3,4.3-7.8c-3.5-2.9-11.4-8.7-14.2-22.4-.3-2.3-.7-5.3,1.2-7.1s4.2,1,5.2,3.1c1.8,3.8,6.8,17,9.5,23l8.4-15.6c-5.6-6.8-12.5-15.1-12.3-24.5.2-6.2,6-3.6,8.4-.5,4.3,5.4,6,13.1,6.4,20.3,1.4-2.4,2.7-4.9,4-7.3l.8-1.3c-3.1-3.1-6.4-5.8-8.3-9.9a17.7,17.7,0,0,1-.2-12.6c.6-1.9,1-4.2,2.9-5.2s2.7,1.9,2.9,3.9c.5,4.3,1.3,8.5,2.2,12.7.5,2.3.9,4.5,1.2,6.7l.6,2.1c1.9-3.4,4-6.8,6.1-10.2-3.1-6.8-6.7-15-4.5-22.6,1.4-5,5.8-1.6,6.9,1.4,1.9,4.7,2,10.4,1.1,15.7l2.9-4.3c-1-8.8-2.2-19.5,3-27.2,3.3-4.8,6.8.5,7,4.2a26.8,26.8,0,0,1-1.6,11.2l1.4-1.8c1.1-1.5,2.3-2.9,3.5-4.3-1.8-7.3-4-16.1-.5-23.3,2.4-4.6,5.9-.5,6.6,2.7,1.1,5.1.1,10.8-1.7,16l6.1-5.8c-.6-6.1-1.3-13.5,2.5-18.8,2.5-3.5,4.8.3,5,3s-1.1,8-2.9,11.7l6.9-6.1c.7-2.7,1.7-5.5,2.5-7.9s2.7-5.7,5.7-6.7,6,1.1,5.1,5.1a9.2,9.2,0,0,1-2.6,4.6,8,8,0,0,1,4.6.1c1.4.6,2.1,1.3,2.2,2.1s-.9,3.1-2.5,4.2-6.5,2.1-9.8,2.7l-3,1c-1.3.5-2.6,1.1-4,1.5l-4.5,4h0c4.5-2.2,9.8-3.8,14.5-3.1,2.7.3,6.3,3,2.6,5.2-5.9,3.5-13.7,1.9-19.9.8v-.3l-2.1,1.9h-.1a107.3,107.3,0,0,0-9.9,10.4h0a25.3,25.3,0,0,1,4.9-1.4c3-.4,7.8,1.3,4.5,4.9s-10.8,6-17,6.8c-3.6,5.1-7.1,10.4-10.4,15.8,4.4-4,9.9-7.5,15.5-8.3,3.2-.5,8.3,1.4,4.8,5.2-5.8,6.1-15.3,7-22.9,7.8h-.2c-1.5,2.5-3,5.1-4.4,7.7s-1.5,2.6-2.1,3.8h-.2c6-5.6,13.4-10.6,20.8-12,4.2-.9,10.9,1.4,6.1,6.8-7.7,8.5-20.2,10.2-30.2,11.7h0c-2,3.6-3.9,7.3-5.8,10.9,6.9-3.2,20.9-10.6,25.6-12.7,2.2-.9,7.6-2.6,7.9,1.5.1,2.3-3.2,5.6-4.9,6.9-3.9,2.8-20.3,8-31.6,10h0l-4.2,7.7a19.1,19.1,0,0,0-1.5,2.8c9.7-5.6,29.7-15.3,35.2-15.7,2.9-.2,7.6.1,8.3,3.6s-4.4,5.4-6.8,7.1c-5.4,3.7-25.7,8.4-29.5,8.7s-6.2-.1-9.2,0h0c-1,2.2-2,4.4-2.9,6.6h.6c9.1-1.8,28.3-6.9,34.4-8,2.9-.6,9.8-1,9,3.9-.5,2.8-5.4,5.9-7.8,6.9-5,2.1-23.7,3.6-37.6,3.2h-.7c-2.7,7.3-4.9,14.7-7.8,22.2-.7,2.3-4.4,1.2-3.6-1.1,4-10.9,6.7-21.8,11.4-32.3C397.1,329.1,385.8,309.9,386.7,307.1Z"/><path class="cls-7" d="M185.4,337.3c4.7,10.5,7.4,21.4,11.4,32.3.8,2.3-2.8,3.4-3.6,1.1-2.8-7.5-5.1-14.9-7.7-22.2h-.8c-13.9.4-32.6-1.1-37.6-3.2-2.4-1-7.3-4.1-7.8-6.9-.8-4.9,6.1-4.5,9-3.9,6.2,1.1,25.3,6.2,34.4,8h.6c-.9-2.2-1.9-4.4-2.9-6.6h0c-3-.1-5.4.3-9.2,0s-24.1-5-29.5-8.7c-2.4-1.7-7.5-3.6-6.8-7.1s5.4-3.8,8.3-3.6c5.6.4,25.5,10.1,35.3,15.7-.4-.9-1-1.9-1.5-2.8l-4.2-7.7h0c-11.3-2-27.7-7.2-31.6-10-1.7-1.3-5-4.6-4.9-6.9.3-4.1,5.7-2.4,7.9-1.5,4.7,2.1,18.7,9.5,25.6,12.7-1.9-3.6-3.8-7.3-5.8-10.9h0c-10-1.5-22.6-3.2-30.3-11.7-4.8-5.4,1.9-7.7,6.1-6.8,7.4,1.4,14.8,6.4,20.8,12h-.1c-.6-1.2-.7-1.2-2.1-3.8s-2.9-5.2-4.4-7.7h-.2c-7.6-.8-17.2-1.7-22.9-7.8-3.5-3.8,1.6-5.7,4.8-5.2,5.6.8,11.1,4.3,15.5,8.3-3.3-5.4-6.8-10.7-10.4-15.8-6.2-.8-13.7-3.2-17-6.8s1.5-5.3,4.5-4.9a39.4,39.4,0,0,1,4.9,1.4h0a138.5,138.5,0,0,0-9.9-10.4h-.1l-2.1-1.9v.3c-6.2,1.1-14,2.7-19.9-.8-3.7-2.2-.1-4.9,2.6-5.2,4.7-.7,10,.9,14.5,3.1h0l-4.5-4c-1.4-.4-2.7-1-4-1.5l-3-1c-3.3-.6-8.2-1.6-9.8-2.7s-2.8-2.8-2.5-4.2.8-1.5,2.1-2.1a9,9,0,0,1,4.6-.1,10.5,10.5,0,0,1-2.6-4.6c-.9-4,2.1-6.1,5.1-5.1s4.9,4.3,5.7,6.7,1.8,5.2,2.5,7.9l6.9,6.1c-1.8-3.7-3.1-9-2.9-11.7s2.5-6.5,5-3c3.8,5.3,3.1,12.7,2.5,18.8l6.1,5.8c-1.8-5.2-2.8-10.9-1.7-16,.7-3.2,4.2-7.3,6.6-2.7,3.5,7.2,1.3,16-.5,23.3,1.2,1.4,2.4,2.8,3.5,4.3l1.4,1.8a30.1,30.1,0,0,1-1.6-11.2c.3-3.7,3.7-9,7-4.2,5.3,7.7,4,18.4,3,27.2l2.9,4.3c-.9-5.3-.8-11,1.1-15.7,1.2-3,5.5-6.4,6.9-1.4,2.3,7.6-1.4,15.8-4.5,22.6,2.1,3.4,4.2,6.8,6.1,10.2a6.5,6.5,0,0,0,.6-2.1c.3-2.2.7-4.4,1.2-6.7a105.2,105.2,0,0,0,2.2-12.7c.2-2,1-4.9,2.9-3.9s2.3,3.3,2.9,5.2a16.7,16.7,0,0,1-.2,12.6c-1.9,4.1-5.2,6.8-8.3,9.9l.8,1.3c1.3,2.4,2.6,4.9,4,7.3.4-7.2,2.2-14.9,6.4-20.3,2.4-3.1,8.3-5.7,8.4.5.2,9.4-6.7,17.7-12.3,24.5l8.4,15.6c2.7-6,7.7-19.2,9.5-23,1-2.1,3.4-4.9,5.3-3.1s1.5,4.8,1.1,7.1c-2.7,13.7-10.6,19.5-14.1,22.4l4.2,7.8,2.1,4.3c.5-4.5,5.5-19.9,10.2-26,2.4-3.1,10.3-8.3,12.1-2.1C208,310.6,196.7,329.8,185.4,337.3Z"/><polyline class="cls-8" points="270.6 373.3 270.6 248.2 240.4 248.2 240.4 334.7 224.7 334.7 224.7 373.3 270.6 373.3"/><rect class="cls-9" x="165.3" y="180.7" width="84.4" height="147.71"/><rect class="cls-10" x="249.7" y="180.7" width="35.9" height="147.71"/><rect class="cls-10" x="174.1" y="191.2" width="66.9" height="14.99"/><path class="cls-3" d="M229.2,199.3c.1-6.1,9.2-6.1,9.3,0S229.3,205.4,229.2,199.3Z"/><path class="cls-3" d="M216.4,199.3c.1-6.1,9.2-6.1,9.3,0S216.5,205.4,216.4,199.3Z"/><rect class="cls-9" x="184.7" y="193" width="2.9" height="11.9"/><rect class="cls-9" x="180.4" y="193" width="2.9" height="11.9"/><rect class="cls-9" x="176" y="193" width="2.9" height="11.9"/><rect class="cls-9" x="197.8" y="193" width="2.9" height="11.9"/><rect class="cls-9" x="193.4" y="193" width="2.9" height="11.9"/><rect class="cls-9" x="189" y="193" width="2.9" height="11.9"/><rect class="cls-9" x="210.8" y="193" width="2.9" height="11.9"/><rect class="cls-9" x="206.4" y="193" width="2.9" height="11.9"/><rect class="cls-9" x="202" y="193" width="2.9" height="11.9"/><rect class="cls-11" x="176" y="197.4" width="2.9" height="7.53"/><rect class="cls-11" x="180.4" y="199.7" width="2.9" height="5.23"/><rect class="cls-11" x="184.7" y="198.7" width="2.9" height="6.19"/><rect class="cls-11" x="189.1" y="199.7" width="2.9" height="5.23"/><rect class="cls-11" x="193.4" y="199.7" width="2.9" height="5.23"/><rect class="cls-11" x="197.8" y="196.5" width="2.9" height="8.39"/><rect class="cls-11" x="202" y="199.7" width="2.9" height="5.23"/><rect class="cls-11" x="206.4" y="199.7" width="2.9" height="5.23"/><rect class="cls-11" x="210.8" y="199.7" width="2.9" height="5.23"/><rect class="cls-10" x="174.1" y="213.4" width="66.9" height="14.99"/><path class="cls-3" d="M229.2,221.5c.1-6.1,9.2-6.1,9.3,0S229.3,227.6,229.2,221.5Z"/><path class="cls-3" d="M216.4,221.5c.1-6.1,9.2-6.1,9.3,0S216.5,227.6,216.4,221.5Z"/><rect class="cls-9" x="184.7" y="215.2" width="2.9" height="11.9"/><rect class="cls-9" x="180.4" y="215.2" width="2.9" height="11.9"/><rect class="cls-9" x="176" y="215.2" width="2.9" height="11.9"/><rect class="cls-9" x="197.8" y="215.2" width="2.9" height="11.9"/><rect class="cls-9" x="193.4" y="215.2" width="2.9" height="11.9"/><rect class="cls-9" x="189" y="215.2" width="2.9" height="11.9"/><rect class="cls-9" x="210.8" y="215.2" width="2.9" height="11.9"/><rect class="cls-9" x="206.4" y="215.2" width="2.9" height="11.9"/><rect class="cls-9" x="202" y="215.2" width="2.9" height="11.9"/><rect class="cls-11" x="176" y="224.9" width="2.9" height="2.16"/><rect class="cls-11" x="180.4" y="221.8" width="2.9" height="5.23"/><rect class="cls-11" x="184.7" y="220.9" width="2.9" height="6.19"/><rect class="cls-11" x="189" y="220.5" width="2.9" height="6.59"/><rect class="cls-11" x="193.4" y="221.8" width="2.9" height="5.23"/><rect class="cls-11" x="197.8" y="218.7" width="2.9" height="8.39"/><rect class="cls-11" x="202" y="221.8" width="2.9" height="5.23"/><rect class="cls-11" x="206.4" y="224.2" width="2.9" height="2.91"/><rect class="cls-11" x="210.8" y="221.8" width="2.9" height="5.23"/><rect class="cls-10" x="174.1" y="235.5" width="66.9" height="14.99"/><path class="cls-3" d="M229.2,243.6c.1-6.1,9.2-6.1,9.3,0S229.3,249.7,229.2,243.6Z"/><path class="cls-3" d="M216.4,243.6c.1-6.1,9.2-6.1,9.3,0S216.5,249.7,216.4,243.6Z"/><rect class="cls-9" x="184.7" y="237.3" width="2.9" height="11.9"/><rect class="cls-9" x="180.4" y="237.3" width="2.9" height="11.9"/><rect class="cls-9" x="176" y="237.3" width="2.9" height="11.9"/><rect class="cls-9" x="197.8" y="237.3" width="2.9" height="11.9"/><rect class="cls-9" x="193.4" y="237.3" width="2.9" height="11.9"/><rect class="cls-9" x="189" y="237.3" width="2.9" height="11.9"/><rect class="cls-9" x="210.8" y="237.3" width="2.9" height="11.9"/><rect class="cls-9" x="206.4" y="237.3" width="2.9" height="11.9"/><rect class="cls-9" x="202" y="237.3" width="2.9" height="11.9"/><rect class="cls-11" x="176" y="241.7" width="2.9" height="7.53"/><rect class="cls-11" x="180.4" y="244" width="2.9" height="5.23"/><rect class="cls-11" x="184.7" y="243" width="2.9" height="6.19"/><rect class="cls-9" x="189" y="239.1" width="2.9" height="10.13"/><rect class="cls-11" x="193.4" y="244" width="2.9" height="5.23"/><rect class="cls-11" x="197.8" y="242.2" width="2.9" height="7"/><rect class="cls-11" x="202" y="244" width="2.9" height="5.23"/><rect class="cls-11" x="206.4" y="244" width="2.9" height="5.23"/><rect class="cls-11" x="210.8" y="244" width="2.9" height="5.23"/><rect class="cls-10" x="174.1" y="257.7" width="66.9" height="14.99"/><path class="cls-3" d="M229.2,265.8c.1-6.1,9.2-6.1,9.3,0S229.3,271.9,229.2,265.8Z"/><path class="cls-3" d="M216.4,265.8c.1-6.1,9.2-6.1,9.3,0S216.5,271.9,216.4,265.8Z"/><rect class="cls-9" x="184.7" y="259.5" width="2.9" height="11.9"/><rect class="cls-9" x="180.4" y="259.5" width="2.9" height="11.9"/><rect class="cls-9" x="176" y="259.5" width="2.9" height="11.9"/><rect class="cls-9" x="197.8" y="259.5" width="2.9" height="11.9"/><rect class="cls-9" x="193.4" y="259.5" width="2.9" height="11.9"/><rect class="cls-9" x="189" y="259.5" width="2.9" height="11.9"/><rect class="cls-9" x="210.8" y="259.5" width="2.9" height="11.9"/><rect class="cls-9" x="206.4" y="259.5" width="2.9" height="11.9"/><rect class="cls-9" x="202" y="259.5" width="2.9" height="11.9"/><rect class="cls-11" x="176" y="263.8" width="2.9" height="7.53"/><rect class="cls-11" x="180.4" y="268.8" width="2.9" height="2.62"/><rect class="cls-11" x="184.7" y="268.5" width="2.9" height="2.91"/><rect class="cls-11" x="189" y="266.1" width="2.9" height="5.23"/><rect class="cls-11" x="193.4" y="266.1" width="2.9" height="5.23"/><rect class="cls-11" x="197.8" y="263" width="2.9" height="8.39"/><rect class="cls-11" x="202" y="268.3" width="2.9" height="3.09"/><rect class="cls-11" x="206.4" y="266.1" width="2.9" height="5.23"/><rect class="cls-11" x="210.8" y="266.1" width="2.9" height="5.23"/><rect class="cls-10" x="174.1" y="279.9" width="66.9" height="14.99"/><path class="cls-3" d="M229.2,288c.1-6.2,9.2-6.2,9.3,0S229.3,294.1,229.2,288Z"/><path class="cls-9" d="M216.4,288c.1-6.2,9.2-6.2,9.3,0S216.5,294.1,216.4,288Z"/><rect class="cls-9" x="184.7" y="281.6" width="2.9" height="11.9"/><rect class="cls-9" x="180.4" y="281.6" width="2.9" height="11.9"/><rect class="cls-9" x="176" y="281.6" width="2.9" height="11.9"/><rect class="cls-9" x="197.8" y="281.6" width="2.9" height="11.9"/><rect class="cls-9" x="193.4" y="281.6" width="2.9" height="11.9"/><rect class="cls-9" x="189" y="281.6" width="2.9" height="11.9"/><rect class="cls-9" x="210.8" y="281.6" width="2.9" height="11.9"/><rect class="cls-9" x="206.4" y="281.6" width="2.9" height="11.9"/><rect class="cls-9" x="202" y="281.6" width="2.9" height="11.9"/><rect class="cls-11" x="176" y="286" width="2.9" height="7.53"/><rect class="cls-11" x="180.4" y="288.3" width="2.9" height="5.23"/><rect class="cls-11" x="184.7" y="287.3" width="2.9" height="6.19"/><rect class="cls-11" x="189.1" y="288.3" width="2.9" height="5.23"/><rect class="cls-11" x="193.4" y="288.3" width="2.9" height="5.23"/><rect class="cls-11" x="197.8" y="285.1" width="2.9" height="8.39"/><rect class="cls-11" x="202" y="288.3" width="2.9" height="5.23"/><rect class="cls-11" x="206.4" y="288.3" width="2.9" height="5.23"/><rect class="cls-11" x="210.8" y="288.3" width="2.9" height="5.23"/><rect class="cls-10" x="174.1" y="300.6" width="18.6" height="3.12"/><rect class="cls-10" x="174.1" y="306.1" width="18.6" height="3.12"/><rect class="cls-10" x="174.1" y="311.6" width="18.6" height="3.12"/><rect class="cls-10" x="198.2" y="300.6" width="18.6" height="3.12"/><rect class="cls-10" x="198.2" y="306.1" width="18.6" height="3.12"/><rect class="cls-10" x="198.2" y="311.6" width="18.6" height="3.12"/><rect class="cls-10" x="222.4" y="300.6" width="18.6" height="3.12"/><rect class="cls-10" x="222.4" y="306.1" width="18.6" height="3.12"/><rect class="cls-10" x="222.4" y="311.6" width="18.6" height="3.12"/><rect class="cls-9" x="258.4" y="191.2" width="18.6" height="3.13"/><rect class="cls-9" x="258.4" y="196.7" width="18.6" height="3.13"/><rect class="cls-9" x="258.4" y="202.3" width="18.6" height="3.13"/><rect class="cls-9" x="258.4" y="213.6" width="18.6" height="3.13"/><rect class="cls-9" x="258.4" y="219.1" width="18.6" height="3.13"/><rect class="cls-9" x="258.4" y="224.6" width="18.6" height="3.13"/><rect class="cls-9" x="258.4" y="235.9" width="18.6" height="3.13"/><rect class="cls-9" x="258.4" y="241.5" width="18.6" height="3.13"/><rect class="cls-9" x="258.4" y="247" width="18.6" height="3.13"/><rect class="cls-9" x="258.4" y="258.1" width="18.6" height="3.13"/><rect class="cls-9" x="258.4" y="263.6" width="18.6" height="3.13"/><rect class="cls-9" x="258.4" y="269.2" width="18.6" height="3.13"/><rect class="cls-9" x="258.4" y="279.9" width="18.6" height="3.13"/><rect class="cls-9" x="258.4" y="285.5" width="18.6" height="3.13"/><rect class="cls-9" x="258.4" y="291" width="18.6" height="3.13"/><rect class="cls-9" x="293.7" y="180.7" width="84.4" height="147.71"/><rect class="cls-10" x="378" y="180.7" width="35.9" height="147.71"/><rect class="cls-10" x="302.4" y="191.2" width="66.9" height="14.99"/><path class="cls-3" d="M357.5,199.3c.1-6.1,9.2-6.1,9.3,0S357.6,205.4,357.5,199.3Z"/><path class="cls-3" d="M344.8,199.3c.1-6.1,9.1-6.1,9.2,0S344.9,205.4,344.8,199.3Z"/><rect class="cls-9" x="313.1" y="193" width="2.9" height="11.9"/><rect class="cls-9" x="308.7" y="193" width="2.9" height="11.9"/><rect class="cls-9" x="304.3" y="193" width="2.9" height="11.9"/><rect class="cls-9" x="326.1" y="193" width="2.9" height="11.9"/><rect class="cls-9" x="321.7" y="193" width="2.9" height="11.9"/><rect class="cls-9" x="317.4" y="193" width="2.9" height="11.9"/><rect class="cls-9" x="339.1" y="193" width="2.9" height="11.9"/><rect class="cls-9" x="334.8" y="193" width="2.9" height="11.9"/><rect class="cls-9" x="330.4" y="193" width="2.9" height="11.9"/><rect class="cls-11" x="304.3" y="197.4" width="2.9" height="7.53"/><rect class="cls-11" x="308.7" y="199.7" width="2.9" height="5.23"/><rect class="cls-11" x="313.1" y="198.7" width="2.9" height="6.19"/><rect class="cls-11" x="317.4" y="199.7" width="2.9" height="5.23"/><rect class="cls-11" x="321.7" y="199.7" width="2.9" height="5.23"/><rect class="cls-11" x="326.1" y="196.5" width="2.9" height="8.39"/><rect class="cls-11" x="330.4" y="199.7" width="2.9" height="5.23"/><rect class="cls-11" x="334.8" y="199.7" width="2.9" height="5.23"/><rect class="cls-11" x="339.1" y="199.7" width="2.9" height="5.23"/><rect class="cls-10" x="302.4" y="213.4" width="66.9" height="14.99"/><path class="cls-3" d="M357.5,221.5c.1-6.1,9.2-6.1,9.3,0S357.6,227.6,357.5,221.5Z"/><path class="cls-3" d="M344.8,221.5c.1-6.1,9.1-6.1,9.2,0S344.9,227.6,344.8,221.5Z"/><rect class="cls-9" x="313.1" y="215.2" width="2.9" height="11.9"/><rect class="cls-9" x="308.7" y="215.2" width="2.9" height="11.9"/><rect class="cls-9" x="304.3" y="215.2" width="2.9" height="11.9"/><rect class="cls-9" x="326.1" y="215.2" width="2.9" height="11.9"/><rect class="cls-9" x="321.7" y="215.2" width="2.9" height="11.9"/><rect class="cls-9" x="317.4" y="215.2" width="2.9" height="11.9"/><rect class="cls-9" x="339.1" y="215.2" width="2.9" height="11.9"/><rect class="cls-9" x="334.8" y="215.2" width="2.9" height="11.9"/><rect class="cls-9" x="330.4" y="215.2" width="2.9" height="11.9"/><rect class="cls-11" x="304.3" y="224.9" width="2.9" height="2.16"/><rect class="cls-11" x="308.7" y="221.8" width="2.9" height="5.23"/><rect class="cls-11" x="313.1" y="220.9" width="2.9" height="6.19"/><rect class="cls-11" x="317.4" y="220.5" width="2.9" height="6.59"/><rect class="cls-11" x="321.7" y="221.8" width="2.9" height="5.23"/><rect class="cls-11" x="326.1" y="218.7" width="2.9" height="8.39"/><rect class="cls-11" x="330.4" y="221.8" width="2.9" height="5.23"/><rect class="cls-11" x="334.8" y="224.2" width="2.9" height="2.91"/><rect class="cls-11" x="339.1" y="221.8" width="2.9" height="5.23"/><rect class="cls-10" x="302.4" y="235.5" width="66.9" height="14.99"/><path class="cls-3" d="M357.5,243.6c.1-6.1,9.2-6.1,9.3,0S357.6,249.7,357.5,243.6Z"/><path class="cls-3" d="M344.8,243.6c.1-6.1,9.1-6.1,9.2,0S344.9,249.7,344.8,243.6Z"/><rect class="cls-9" x="313.1" y="237.3" width="2.9" height="11.9"/><rect class="cls-9" x="308.7" y="237.3" width="2.9" height="11.9"/><rect class="cls-9" x="304.3" y="237.3" width="2.9" height="11.9"/><rect class="cls-9" x="326.1" y="237.3" width="2.9" height="11.9"/><rect class="cls-9" x="321.7" y="237.3" width="2.9" height="11.9"/><rect class="cls-9" x="317.4" y="237.3" width="2.9" height="11.9"/><rect class="cls-9" x="339.1" y="237.3" width="2.9" height="11.9"/><rect class="cls-9" x="334.8" y="237.3" width="2.9" height="11.9"/><rect class="cls-9" x="330.4" y="237.3" width="2.9" height="11.9"/><rect class="cls-11" x="304.3" y="241.7" width="2.9" height="7.53"/><rect class="cls-11" x="308.7" y="244" width="2.9" height="5.23"/><rect class="cls-11" x="313.1" y="243" width="2.9" height="6.19"/><rect class="cls-9" x="317.4" y="239.1" width="2.9" height="10.13"/><rect class="cls-11" x="321.7" y="244" width="2.9" height="5.23"/><rect class="cls-11" x="326.1" y="242.2" width="2.9" height="7"/><rect class="cls-11" x="330.4" y="244" width="2.9" height="5.23"/><rect class="cls-11" x="334.8" y="244" width="2.9" height="5.23"/><rect class="cls-11" x="339.1" y="244" width="2.9" height="5.23"/><rect class="cls-10" x="302.4" y="257.7" width="66.9" height="14.99"/><path class="cls-3" d="M357.5,265.8c.1-6.1,9.2-6.1,9.3,0S357.6,271.9,357.5,265.8Z"/><path class="cls-3" d="M344.8,265.8c.1-6.1,9.1-6.1,9.2,0S344.9,271.9,344.8,265.8Z"/><rect class="cls-9" x="313.1" y="259.5" width="2.9" height="11.9"/><rect class="cls-9" x="308.7" y="259.5" width="2.9" height="11.9"/><rect class="cls-9" x="304.3" y="259.5" width="2.9" height="11.9"/><rect class="cls-9" x="326.1" y="259.5" width="2.9" height="11.9"/><rect class="cls-9" x="321.7" y="259.5" width="2.9" height="11.9"/><rect class="cls-9" x="317.4" y="259.5" width="2.9" height="11.9"/><rect class="cls-9" x="339.1" y="259.5" width="2.9" height="11.9"/><rect class="cls-9" x="334.8" y="259.5" width="2.9" height="11.9"/><rect class="cls-9" x="330.4" y="259.5" width="2.9" height="11.9"/><rect class="cls-11" x="304.3" y="263.8" width="2.9" height="7.53"/><rect class="cls-11" x="308.7" y="268.8" width="2.9" height="2.62"/><rect class="cls-11" x="313.1" y="268.5" width="2.9" height="2.91"/><rect class="cls-11" x="317.4" y="266.1" width="2.9" height="5.23"/><rect class="cls-11" x="321.7" y="266.1" width="2.9" height="5.23"/><rect class="cls-11" x="326.1" y="263" width="2.9" height="8.39"/><rect class="cls-11" x="330.4" y="268.3" width="2.9" height="3.09"/><rect class="cls-11" x="334.8" y="266.1" width="2.9" height="5.23"/><rect class="cls-11" x="339.1" y="266.1" width="2.9" height="5.23"/><rect class="cls-10" x="302.4" y="279.9" width="66.9" height="14.99"/><path class="cls-3" d="M357.5,288c.1-6.2,9.2-6.2,9.3,0S357.6,294.1,357.5,288Z"/><path class="cls-9" d="M344.8,288c.1-6.2,9.1-6.2,9.2,0S344.9,294.1,344.8,288Z"/><rect class="cls-9" x="313.1" y="281.6" width="2.9" height="11.9"/><rect class="cls-9" x="308.7" y="281.6" width="2.9" height="11.9"/><rect class="cls-9" x="304.3" y="281.6" width="2.9" height="11.9"/><rect class="cls-9" x="326.1" y="281.6" width="2.9" height="11.9"/><rect class="cls-9" x="321.7" y="281.6" width="2.9" height="11.9"/><rect class="cls-9" x="317.4" y="281.6" width="2.9" height="11.9"/><rect class="cls-9" x="339.1" y="281.6" width="2.9" height="11.9"/><rect class="cls-9" x="334.8" y="281.6" width="2.9" height="11.9"/><rect class="cls-9" x="330.4" y="281.6" width="2.9" height="11.9"/><rect class="cls-11" x="304.3" y="286" width="2.9" height="7.53"/><rect class="cls-11" x="308.7" y="288.3" width="2.9" height="5.23"/><rect class="cls-11" x="313.1" y="287.3" width="2.9" height="6.19"/><rect class="cls-11" x="317.4" y="288.3" width="2.9" height="5.23"/><rect class="cls-11" x="321.7" y="288.3" width="2.9" height="5.23"/><rect class="cls-11" x="326.1" y="285.1" width="2.9" height="8.39"/><rect class="cls-11" x="330.4" y="288.3" width="2.9" height="5.23"/><rect class="cls-11" x="334.8" y="288.3" width="2.9" height="5.23"/><rect class="cls-11" x="339.1" y="288.3" width="2.9" height="5.23"/><rect class="cls-10" x="302.4" y="300.6" width="18.6" height="3.12"/><rect class="cls-10" x="302.4" y="306.1" width="18.6" height="3.12"/><rect class="cls-10" x="302.4" y="311.6" width="18.6" height="3.12"/><rect class="cls-10" x="326.6" y="300.6" width="18.6" height="3.12"/><rect class="cls-10" x="326.6" y="306.1" width="18.6" height="3.12"/><rect class="cls-10" x="326.6" y="311.6" width="18.6" height="3.12"/><rect class="cls-10" x="350.7" y="300.6" width="18.6" height="3.12"/><rect class="cls-10" x="350.7" y="306.1" width="18.6" height="3.12"/><rect class="cls-10" x="350.7" y="311.6" width="18.6" height="3.12"/><rect class="cls-9" x="386.7" y="191.2" width="18.6" height="3.13"/><rect class="cls-9" x="386.7" y="196.7" width="18.6" height="3.13"/><rect class="cls-9" x="386.7" y="202.3" width="18.6" height="3.13"/><rect class="cls-9" x="386.7" y="213.6" width="18.6" height="3.13"/><rect class="cls-9" x="386.7" y="219.1" width="18.6" height="3.13"/><rect class="cls-9" x="386.7" y="224.6" width="18.6" height="3.13"/><rect class="cls-9" x="386.7" y="235.9" width="18.6" height="3.13"/><rect class="cls-9" x="386.7" y="241.5" width="18.6" height="3.13"/><rect class="cls-9" x="386.7" y="247" width="18.6" height="3.13"/><rect class="cls-9" x="386.7" y="258.1" width="18.6" height="3.13"/><rect class="cls-9" x="386.7" y="263.6" width="18.6" height="3.13"/><rect class="cls-9" x="386.7" y="269.2" width="18.6" height="3.13"/><rect class="cls-9" x="386.7" y="279.9" width="18.6" height="3.13"/><rect class="cls-9" x="386.7" y="285.5" width="18.6" height="3.13"/><rect class="cls-9" x="386.7" y="291" width="18.6" height="3.13"/><rect class="cls-9" x="147.3" y="328.4" width="288.8" height="44"/><rect class="cls-10" x="360" y="328.4" width="76" height="44"/><rect class="cls-10" x="165.3" y="328" width="194.7" height="0.67"/><path class="cls-10" d="M472.7,258.4c-.8,5.2-12.6,51.3-11.6,55.3l1.3,43.7h13.1l6.3-42.2c-.4-1.4,18.2-54.3,18.8-56.8Z"/><polygon class="cls-10" points="512.3 258.4 519.6 357.4 506.5 357.4 481.5 258.4 512.3 258.4"/><path class="cls-12" d="M489.7,290.7l-4.6-17.9s-5.3,25.1-.3,32.5Z"/><path class="cls-2" d="M450.3,200.2c-7,1-36.4-6.3-43.7-7.8l-1.3,6.5c8.4,3.2,35.9,14.8,44.6,15.2Z"/><g class="cls-13"><polygon class="cls-14" points="448.2 199 444.2 215.8 453.7 216 454.6 199 448.2 199"/></g><path class="cls-3" d="M523.6,219.9l-24.1-18.5-.7-.5h0c-3.6-2.9-8.7-3.6-13.4-3.4s-30.3,1.1-35,1l-.6,19,18.2,2,4,38.9h41.5l-5.7-29.8Z"/><g class="cls-15"><path class="cls-2" d="M473.5,197.4c3.6,11.6,21.5,14.8,26.1,1.6l-12.2-2.7Z"/><g class="cls-16"><path class="cls-14" d="M475.3,197.4s2.8,9.8,14.8,10.6c-6.5,1.4-16.6-2.2-18.6-10.3l3.8-.3"/></g><path class="cls-17" d="M449.9,214.1a80.2,80.2,0,0,0,25.9,0c13,31.5,3.9,26.5,37.1,36.7,0,0,2.4,9.4,1.4,9.1s-46.7-.2-46.7-.2l-2-39.5-17.1-3,1.4-3.1"/></g><path class="cls-10" d="M522.5,242.6H479.8l4.6-25.9a2.3,2.3,0,0,1,2.3-1.8h39.4a1.1,1.1,0,0,1,1.1,1.3Z"/><path class="cls-9" d="M521.3,245.5c-.6-.5-66.5,1-66.4-.6s-.4-2.4.6-2.3h67C522.2,243.2,522.5,245.6,521.3,245.5Z"/><path class="cls-9" d="M507.2,230.5c-1.8,5.2-6.8,3.5-5-1.8S509,225.2,507.2,230.5Z"/><path class="cls-3" d="M461.5,272H402.8a3.4,3.4,0,0,1-3.4-3.4V191.8c2-2.6.1,76.9.7,76.8a2.8,2.8,0,0,0,2.7,2.7h58.7a2.8,2.8,0,0,0,2.7-2.7V244.3a.4.4,0,0,1,.8,0v24.3A3.5,3.5,0,0,1,461.5,272Z"/><path class="cls-2" d="M506.9,245.5c3.8-3.3,3.8-3.4,9.6-3.1,1.6.2-1.1,3.7-1.9,4a6,6,0,0,1-2.5,1.1c-1.1-.1-8.6-2-8.2-2Z"/><path class="cls-2" d="M472.9,174.8,468.6,188a4.1,4.1,0,0,0,3.3,5.3l6.8.9,1.4,9.4,10.6-.6-6.9-28.2Z"/><g class="cls-18"><path class="cls-14" d="M468.4,191.3a22.1,22.1,0,0,0,11.4-.6,7.8,7.8,0,0,0-1,4.2h0S469.2,194.6,468.4,191.3Z"/><path class="cls-14" d="M469.4,179.2c.3.1,4.4,4.4,15.4.9l-12.6-6.7Z"/></g><path class="cls-2" d="M465.6,357.4v4.2s1.4,4.1,4.4,4.1,3.1-.9,3.1-.9l.7-7.4Z"/><g class="cls-19"><path class="cls-14" d="M474.3,361.2s-7.6-1-9.6-2.9v-1.7l9.8.2Z"/></g><path class="cls-20" d="M473.1,364.8s-6.2,1.6-7.5-3.6L453.4,367a4.8,4.8,0,0,0-2.6,4.6h0l21.3-.3C475.1,371.2,473.1,366.4,473.1,364.8Z"/><path class="cls-2" d="M508.7,357.4c1.4,2,2.7,8.3,6.4,8.3s3.1-.9,3.1-.9l-1.4-7.4Z"/><g class="cls-21"><path class="cls-14" d="M517.7,361.2s-7.6-1-9.6-2.9v-1.7l9.8.2Z"/></g><path class="cls-20" d="M518.2,364.8s-6.2,1.6-7.5-3.6L498.6,367a4.5,4.5,0,0,0-2.6,4.6h0l21.2-.3C520.3,371.2,518.2,366.4,518.2,364.8Z"/><path class="cls-2" d="M407.6,192.6c-1.2-.7-3.8-4.3-5.5-3.5,0,.3-8.1,2.9-7.4,3.4a1.7,1.7,0,0,0,1.9,1l4.7-.9.9,5.8,4,.6Z"/><polygon class="cls-14" points="396.5 192.8 398.8 199 402.6 198.3 401.5 191.8 396.5 192.8"/><path class="cls-10" d="M472.8,176.2l8.4,2.8c-.5,1.8-1.9,4.6.5,6.3l1.1-2.7s3.5,3.6,0,5.4l5.2,4.4c4.1-5,3.1-9.3,2.7-15.2-.1-3.9-3.8-6.2-7.2-7.2l-13.1-4S466.1,174.7,472.8,176.2Z"/><path class="cls-22" d="M465.3,59.6H383.8a12,12,0,0,1,11.6-7.1c1.9-15.7,23.8-19.4,30.7-5.3,4.9-2.1,11.5.8,13.1,6C447.2,43.8,462,47.9,465.3,59.6Z"/><path class="cls-22" d="M163.9,117.1H82.5A11.8,11.8,0,0,1,94.1,110c1.9-15.7,23.7-19.4,30.7-5.3,4.9-2.2,11.4.8,13,6C145.9,101.3,160.7,105.3,163.9,117.1Z"/><path class="cls-8" d="M436.9,110c-.7,39.6-59.5,39.6-60.2,0S436.2,70.4,436.9,110Z"/><path class="cls-4" d="M415.3,137.1a.5.5,0,0,1-.5-.5V119.2H398v17.4a.5.5,0,0,1-.5.5.6.6,0,0,1-.6-.5V119.2h-9.5c-.5,0-.8-.5-.5-.8L397,102.7a.5.5,0,0,1,1,.3v15.1h16.8V103c0-.6.8-.8,1-.3l8.7,15.7a.4.4,0,0,1,0,.5c.1.6-8.4.2-8.6.3v17.4A.6.6,0,0,1,415.3,137.1Zm.6-19H423l-7.1-12.9Zm-27.5,0h8.5V104.9Z"/><path class="cls-10" d="M413.2,154.4c-18.4,0-20.5,2.2-19.7-17.9h26.6C419.7,142.4,422.5,154.2,413.2,154.4Z"/><rect class="cls-9" x="393.5" y="139" width="26.6" height="2.5"/><rect class="cls-9" x="393.5" y="143.3" width="26.6" height="2.5"/><path class="cls-8" d="M440.9,130.1l-4.8-2.8a17.4,17.4,0,0,0,1-1.9l5,2.6A11.3,11.3,0,0,1,440.9,130.1Zm-68.6-.7-1.2-2.2,5.1-2.4.9,1.9Zm73.9-15.5-5.6-.6a14.9,14.9,0,0,0,.2-2.1l5.6.2A21.1,21.1,0,0,1,446.2,113.9Zm-78.9-.8a20.1,20.1,0,0,1-.1-2.5h5.6a14.8,14.8,0,0,0,.1,2.1Zm71.6-14.3c-.2-.7-.5-1.3-.7-2l5.1-2.2.9,2.3Zm-64-.7-5.2-1.9a10.9,10.9,0,0,1,.9-2.3l5.1,2.3C375.4,96.8,375.2,97.5,374.9,98.1Zm56.3-11.8-1.5-1.4,3.8-4.2c.6.6,1.2,1.1,1.7,1.7Zm-48.3-.5-4-3.9,1.8-1.7,3.7,4.2ZM419,78.3l-2-.7,1.7-5.4,2.3.8ZM395.2,78l-1.9-5.3,2.4-.7,1.5,5.4Z"/><path class="cls-20" d="M512.8,374.1c-.9-.8-454.6,1.6-454.4-.8S517.9,370.2,512.8,374.1Z"/><path class="cls-23" d="M59.4,164.7a8,8,0,0,0-6,1.5,7.5,7.5,0,0,0-2.7,3.4,5.4,5.4,0,0,0,.2,4.3,6.5,6.5,0,0,0,3.5,2.8,8.2,8.2,0,0,0,3.8.6,4.4,4.4,0,0,0,3.1-2l2.5-5.1A5.4,5.4,0,0,0,59.4,164.7Z"/><path class="cls-23" d="M82.5,171.2h0a13.8,13.8,0,0,0-17.8-3.5l-1.8,1.1a14.5,14.5,0,0,0-5.6,12.4,15.9,15.9,0,0,0,6.7,12l18.6-4.5a37.7,37.7,0,0,0,2-10,6.1,6.1,0,0,0,.1-1.4A10.8,10.8,0,0,0,82.5,171.2Z"/><path class="cls-24" d="M61.7,178.7a7,7,0,0,1,5.2-6.3l9.3-2.4c4.1-.4,6.7,4.5,7,8.5a66,66,0,0,1,0,12.6c-1.1,6.7-6.3,7.6-6.3,7.6v13.7l-13.2-9.5-2.1-24.1Z"/><path class="cls-23" d="M82,183.9a.9.9,0,0,1-.9.9.9.9,0,0,1-.9-.8.9.9,0,0,1,.9-.8C81.5,183.1,81.9,183.5,82,183.9Z"/><path class="cls-23" d="M82.1,181.3c-.2.1-.8-.4-1.7-.4s-1.6.5-1.7.4,0-.3.3-.5a2.6,2.6,0,0,1,1.4-.4,2.2,2.2,0,0,1,1.3.4A1.1,1.1,0,0,1,82.1,181.3Z"/><path class="cls-23" d="M74,183.9a.9.9,0,0,1-.9.9.8.8,0,0,1-.9-.8.9.9,0,0,1,.9-.8C73.5,183.1,73.9,183.5,74,183.9Z"/><path class="cls-23" d="M73.4,181.5c-.1.1-.7-.4-1.7-.4s-1.6.5-1.7.4.1-.3.4-.5a2.5,2.5,0,0,1,1.3-.4,2.6,2.6,0,0,1,1.4.4C73.4,181.2,73.5,181.4,73.4,181.5Z"/><path class="cls-23" d="M76.3,188.5l1.5-.3a.5.5,0,0,0,.5-.3l-.2-.7-.7-1.8a25.9,25.9,0,0,1-1.6-4.7,33.1,33.1,0,0,1,2,4.6l.7,1.8a1.4,1.4,0,0,1,.1.9c-.1.2-.2.4-.4.4H76.3Z"/><path class="cls-25" d="M68,196.3s2.2,4.6,8.9,4v-1.6A16.8,16.8,0,0,1,68,196.3Z"/><path class="cls-23" d="M73.1,177.8c-.1.3-1,.1-2.1.3s-2,.4-2.1.2.1-.4.4-.6a4.9,4.9,0,0,1,1.6-.6l1.6.2C72.9,177.5,73.1,177.7,73.1,177.8Z"/><path class="cls-23" d="M81.1,177.9c-.2.3-.8,0-1.6,0s-1.4.2-1.6,0a.7.7,0,0,1,.4-.6,1.9,1.9,0,0,1,1.2-.3,2.2,2.2,0,0,1,1.3.4A.5.5,0,0,1,81.1,177.9Z"/><path class="cls-24" d="M62.7,183.6c-.1-.2-3.6-1.5-3.7,2.3s3.7,2.9,3.7,2.8Z"/><path class="cls-25" d="M61.6,187.3h-.7a1.6,1.6,0,0,1-.7-1.4,2,2,0,0,1,.2-.9c.1-.3.3-.5.5-.5s.3.1.3.2h.1c0,.1.1,0,0-.2v-.2h-.4c-.2,0-.5.3-.6.6a1.1,1.1,0,0,0-.2,1c0,.7.3,1.4.9,1.5h.5Z"/><path class="cls-22" d="M61.1,187.9a.9.9,0,0,0-.8.5.8.8,0,0,0,.5.9.9.9,0,0,0,.9-.4.8.8,0,0,0-.4-.9"/><path class="cls-23" d="M61.3,188a.7.7,0,0,1,.3.5.3.3,0,0,1-.1.5.6.6,0,0,1-.7.2.7.7,0,0,1-.4-.5.6.6,0,0,1,.2-.6l.5-.2h-.6a1.5,1.5,0,0,0-.3.7c.1.3.2.6.6.7a.8.8,0,0,0,.8-.3,1,1,0,0,0,.2-.7l-.3-.4Z"/><path class="cls-25" d="M72.8,190a1.3,1.3,0,0,1,1-.6,2.2,2.2,0,0,1,1.7.7,2.5,2.5,0,0,1,.1.8l-.2.2a3.6,3.6,0,0,1-1.2.8,1.4,1.4,0,0,1-1.4-.5A1.2,1.2,0,0,1,72.8,190Z"/><path class="cls-23" d="M72.9,188.8a3.5,3.5,0,0,0,1.1,1.6,4.7,4.7,0,0,0,1.9.7c.1.1-.2.2-.6.2a2,2,0,0,1-1.7-.5,1.9,1.9,0,0,1-.8-1.3C72.7,189,72.8,188.8,72.9,188.8Z"/><path class="cls-23" d="M78,169.5c-.2-.4-.8-.5-1.2-.6a19.2,19.2,0,0,0-17.1,7.4l1.1,6.2c-.5.8,1.6,2.4,2.5,2.3a2.2,2.2,0,0,0,1.9-1.7c.6-1.6.2-3.7,1.5-4.9a5.2,5.2,0,0,1,2.7-1,13.4,13.4,0,0,0,5.2-2.2,9.3,9.3,0,0,0,3.4-4.4A1.4,1.4,0,0,0,78,169.5Z"/><path class="cls-26" d="M58.6,186.6l-.3-.6a11.1,11.1,0,0,1-.7-2,14.1,14.1,0,0,1-.2-6.6,14.6,14.6,0,0,1,2.9-6l1.4-1.5.6-.4c.1,0-.8.7-1.8,2a16.2,16.2,0,0,0-2.8,5.9,15.8,15.8,0,0,0,.1,6.6C58.2,185.6,58.7,186.6,58.6,186.6Z"/><polygon class="cls-23" points="63.2 352.2 65.3 370.6 73.4 369.4 73.9 351.3 63.2 352.2"/><path class="cls-23" d="M73.4,365.7S68,370.3,65,367l-.2-.6-2.8,15a1.7,1.7,0,0,0,1,1.9,1.6,1.6,0,0,0,1.7-.5c2.2-2.4,10.2-11.9,10.2-11.9l-.3-2.4a9.4,9.4,0,0,0-1.2-2.8Z"/><path class="cls-27" d="M74.6,369.1,63.3,383.4a1.8,1.8,0,0,0,1.4-.6c6.1-6.9,10.2-11.9,10.2-11.9Z"/><path class="cls-26" d="M66.4,376.2c-.1.1-.5-.7-1.5-1.1a4.3,4.3,0,0,0-1.7-.2c-.1,0,.1-.2.5-.2a2.3,2.3,0,0,1,1.4.1,2.5,2.5,0,0,1,1.1.9A1,1,0,0,1,66.4,376.2Z"/><path class="cls-26" d="M65.4,378.4a7.6,7.6,0,0,0-1.4-.5,13.6,13.6,0,0,0-1.5-.1,1.8,1.8,0,0,1,1.6-.3C65,377.7,65.5,378.4,65.4,378.4Z"/><path class="cls-26" d="M68.2,373.4a13.4,13.4,0,0,0-2.1-1,17,17,0,0,0-2.3-.4,3.3,3.3,0,0,1,2.4,0A4.2,4.2,0,0,1,68.2,373.4Z"/><path class="cls-23" d="M68.2,369.6c0,.1-.9-.2-2-.1s-1.9.3-2,.2a3.6,3.6,0,0,1,2-.6C67.4,369.1,68.3,369.5,68.2,369.6Z"/><path class="cls-23" d="M95.1,366.7c-.2-.3-1.9-6.4-1.9-6.4l10.4-2.9,1.5,8.9Z"/><path class="cls-23" d="M104.7,363.7l.3,1.6s11.5,4.6,11.7,6.9l-22.7.2.3-8.4C97.6,365.6,100.8,365.4,104.7,363.7Z"/><path class="cls-27" d="M94,372.4v-1.9l21.8.5s1,.5.9,1.2Z"/><path class="cls-26" d="M105.1,365.3l-1.1.6c-.5.3-.8.8-.9.8s0-.7.7-1.2S105.1,365.2,105.1,365.3Z"/><path class="cls-26" d="M107.5,366.3c0,.2-.4.4-.8.9s-.5,1-.6,1-.2-.7.3-1.3S107.5,366.2,107.5,366.3Z"/><path class="cls-26" d="M108.9,369.3c-.1.1-.3-.5,0-1.2s.8-.9.8-.8-.2.5-.4,1S109,369.3,108.9,369.3Z"/><path class="cls-23" d="M88,255.5s5.8,25.8,10.6,55.6c4,24.5,5.8,51,5.8,51l-11.8.7s-7.2-30.4-12.7-52.2c-5.2-20.1-9.4-30.7-9.4-30.7l-2.4-26.6Z"/><path class="cls-23" d="M55.5,250.4s-10.3,14-9.5,28.5c.5,8.8,18.2,86.3,18.2,86.3l10.5-.3-3.4-82.4,3.6-27Z"/><path class="cls-23" d="M87.2,212.8a.6.6,0,0,1,.1.4,5.7,5.7,0,0,0,.1,1.2c.1,1.1.1,2.7.2,4.6,0,3.9-.2,9.3-.5,15.2s-.8,11.2-.8,15.1c-.1,2-.1,3.5-.1,4.6v1.7a1,1,0,0,0-.1-.4v-1.3c-.1-1.1-.1-2.6-.1-4.6,0-3.9.3-9.2.7-15.1s.6-11.3.6-15.2c0-1.9,0-3.5-.1-4.5v-1.7Z"/><path class="cls-24" d="M121.9,213.5l-6.3,2.3-6.9,9.4,1.9,3.2,1.8-1.7s7.1-1.3,7.6-2.4a1.8,1.8,0,0,0-.1-1.8,4.9,4.9,0,0,0,.1-2,1.4,1.4,0,0,0-.9-1,1,1,0,0,0,.5-1.3,1.9,1.9,0,0,0-1.1-1.2s4.3-2,4.6-2.5.1-.4,0-.6A1.1,1.1,0,0,0,121.9,213.5Z"/><path class="cls-24" d="M107.6,223.2l1.3-1.8,2.7-4.9,6.1-1.7s1.1.5-.3,2.3a4.1,4.1,0,0,1-3.5,1.5s.5,3.9-.6,5.7-4,1.9-4,1.9Z"/><path class="cls-25" d="M113.4,224.6a1.1,1.1,0,0,0,.2-.4,3.3,3.3,0,0,0,.5-1.2,6.7,6.7,0,0,0-.1-4.4v.2h.2a6.2,6.2,0,0,0,2.3-.7,2.7,2.7,0,0,0,1.4-1.4,2.6,2.6,0,0,0,.2-1.4l-.2-.5a1.2,1.2,0,0,1,.1.5,2.4,2.4,0,0,1-.3,1.3,2.7,2.7,0,0,1-1.3,1.3,7.7,7.7,0,0,1-2.3.6h-.3a7.9,7.9,0,0,1,.3,4.2C113.7,224,113.3,224.6,113.4,224.6Z"/><path class="cls-25" d="M118.9,219.7l-.6.3-1.7.6-1.1.5c-.2.2-.4.3-.5.6a.8.8,0,0,0,.1.9,1,1,0,0,0,.6.5h1.7l.8-.3.8-.3v-.2a4.7,4.7,0,0,0-1.4.8l-.6.4-.6.4a.8.8,0,0,0-.4.7c0,.1.1.2.1.3l.3.3h1.2a5.3,5.3,0,0,0,1.6-.4l.5-.3-.6.2a4.3,4.3,0,0,1-1.5.3,2.2,2.2,0,0,1-1.1-.1c-.2-.1-.3-.2-.3-.4a.5.5,0,0,1,.3-.5l.6-.4.6-.4,1.4-.8v-.2l-.8.3-.8.2h-1.5a1.2,1.2,0,0,1-.5-.5.5.5,0,0,1-.1-.6.7.7,0,0,1,.4-.5l1.1-.6,1.6-.7A1.4,1.4,0,0,0,118.9,219.7Z"/><path class="cls-25" d="M118.5,217.1l-1.3.4-1.3.8-.8.5a2,2,0,0,0-.6.9.5.5,0,0,0,.3.5c.1.2.3.2.4.3h.9l1.5-.4c.8-.2,1.3-.4,1.3-.5l-1.3.4-1.5.2a2.1,2.1,0,0,1-.8,0,.5.5,0,0,1-.5-.5c0-.3.3-.5.5-.7l.7-.5,1.2-.8Z"/><path class="cls-26" d="M95.9,228.4l-6.3-20.3a5.8,5.8,0,0,0-3.8-3.8l-3.8-.9,4.2,32.9,1,2.5c2.3,5,7.2,4.2,11.6,1.9l.4-.2L112,230.2l-4.2-7.6Z"/><path class="cls-23" d="M94.5,234.2c.1,0,.1-1.4.6-3a15.9,15.9,0,0,1,1-2.7,4.9,4.9,0,0,0-1.3,2.7A10.7,10.7,0,0,0,94.5,234.2Z"/><path class="cls-22" d="M56.3,213.9l4.2,39.9,23.7,1.7,1.9-1.6-.7-30.1-8.5-21.4h0c-1,1.9-2.9,2.5-5.3,2.3a9.1,9.1,0,0,1-4.4-1.6l-3.9-2.8Z"/><path class="cls-26" d="M63.3,200.3l-2.9,3.1-13.5,3.2L54.8,245l-6,14.8a45,45,0,0,0-1.6,4.8l-3.7,14.5s12.8,3.5,16.1,1.6,7.3-20.4,8.5-24.8,3.1-17.4,2.2-24.4-3-14.7-3.7-18.3S63.3,200.3,63.3,200.3Z"/><path class="cls-26" d="M49.3,240.3l3.1-11.8-5.5-21.9s-2.6,1.9-4.3,8.6-7.7,26.3-7.4,30.8,24.3,12.7,24.3,12.7l.9-12.5Z"/><path class="cls-26" d="M76.9,199.6l1.9,2.9,7.8,1.9s2,10.3,2,13.1-1.1,33.9-1.1,35.4,5.6,21.3,5.1,22.6-6.3,2-6.3,2-2.2-17.2-2.2-23-.3-20.3-1.5-27.4S77,202.5,77,202.5Z"/><path class="cls-23" d="M84.2,257.7h0v-2.1c0-1.4.1-3.5.1-6,.2-5.1.4-12.2.5-20v-2.8a24.6,24.6,0,0,0-.2-2.8c-.1-1.8-.3-3.6-.4-5.3s-.4-3.3-.6-4.7a20.9,20.9,0,0,0-1.2-4c-.9-2.4-1.9-4.2-2.5-5.5s-.6-1.1-.8-1.4l-.2-.4h0l.2.4.9,1.4a34.5,34.5,0,0,1,2.6,5.4,15.6,15.6,0,0,1,1.2,4c.3,1.5.5,3.1.7,4.8s.3,3.4.4,5.3a24.6,24.6,0,0,1,.2,2.8v2.8c-.1,7.8-.4,14.9-.5,20-.1,2.5-.2,4.6-.3,6a8.1,8.1,0,0,1-.1,1.7v.4Z"/><path class="cls-23" d="M69.7,246v-.4a12.3,12.3,0,0,1-.2-1.3c0-1.1-.1-2.7-.1-4.7s.1-2,.2-3.2a16.3,16.3,0,0,0-.5-3.6,51.2,51.2,0,0,0-2.8-8c-1.2-2.8-2.4-5.4-3.5-7.8a25.2,25.2,0,0,1-1.5-3.4,20.3,20.3,0,0,1-.8-3.1,43.8,43.8,0,0,1-.7-4.6,10.5,10.5,0,0,1-.2-1.3v-.4a1.6,1.6,0,0,0,.1.4,10.5,10.5,0,0,0,.2,1.3c.1,1,.4,2.6.8,4.5s.5,2.1.8,3.1a34,34,0,0,0,1.6,3.4c1.1,2.4,2.3,5,3.5,7.8a51.2,51.2,0,0,1,2.8,8,12.3,12.3,0,0,1,.4,3.7c-.1,1.2-.1,2.3-.1,3.3a34.7,34.7,0,0,0,0,4.6V246Z"/><path class="cls-23" d="M104.7,245.1l-6.6,9a1.4,1.4,0,0,1-1.2.4L68,249.1a1.2,1.2,0,0,1-.9-1.6l3.1-9.6a1.3,1.3,0,0,1,1.4-.8l32.4,6A1.2,1.2,0,0,1,104.7,245.1Z"/><path class="cls-23" d="M42.6,241.1a3.5,3.5,0,0,1,1-.8,5.9,5.9,0,0,1,2.9-.8,7.3,7.3,0,0,1,2.9.7,3.5,3.5,0,0,1,1,.8l-1.1-.6a7.3,7.3,0,0,0-2.8-.6,7.2,7.2,0,0,0-2.8.7Z"/><g class="cls-28"><polygon points="49.5 258.2 60.8 262.4 62 257.6 67.4 258.7 68.1 256 59.7 254.8 59.6 258.7 50.7 255.4 49.5 258.2"/></g><path class="cls-24" d="M60.4,247.2a25.5,25.5,0,0,1,3-2.4c.7-.4,3-2,4.1-1.8h1.1l-1,2.9s8.8-1.3,10,.1-1.3,1.7-2.6,1.9l-5.5.8s10.9-1.2,11.6,0-1,1.5-1,1.5l-7.2,2.9-.9.3-.8,1.1s-3,2-3.9,1.8-7.6-1.6-7.6-1.6Z"/><path class="cls-25" d="M68,252.1a5.2,5.2,0,0,1,1.6-.5,31.6,31.6,0,0,1,4.2-.8,25.3,25.3,0,0,1,4.3-.4h1.8l-1.8.2-4.2.5-4.2.7Z"/><path class="cls-25" d="M68.9,254.2l1.6-.6a4.2,4.2,0,0,1,1.7-.2l-1.6.5A3.4,3.4,0,0,1,68.9,254.2Z"/><path class="cls-23" d="M88.4,213.2a1,1,0,0,1,.1.4,5.7,5.7,0,0,0,.1,1.2c0,1,.1,2.4.1,4.2.1,3.6-.1,8.6-.4,14s-.7,10.4-.8,14v5.8a1,1,0,0,0-.1-.4v-1.2c-.1-1-.1-2.4-.1-4.2,0-3.6.3-8.6.7-14s.5-10.4.5-14c0-1.8,0-3.2-.1-4.2v-1.6Z"/><path class="cls-23" d="M53.3,227.2c-.1,0-.1-.3-.1-.8a20.3,20.3,0,0,0-.1-2.2,31,31,0,0,0-1.2-7,36.7,36.7,0,0,0-2.5-6.8,15.4,15.4,0,0,0-1-1.9c-.2-.5-.4-.7-.3-.7l.4.6c.3.5.7,1.1,1.1,1.9a30.3,30.3,0,0,1,2.6,6.8,26.2,26.2,0,0,1,1.1,7.1,8,8,0,0,1,0,2.2Z"/><rect class="cls-9" x="96.1" y="194" width="65.9" height="18.4" rx="9.2"/><rect class="cls-29" x="96.2" y="194.2" width="65.9" height="18.4" rx="9.2"/><path class="cls-30" d="M137.5,194,130,212.4H106.6s-12.3.3-9.9-12.6a10.4,10.4,0,0,1,10.2-5.9Z"/><rect class="cls-31" x="96.1" y="194" width="65.9" height="18.4" rx="9.2"/><text class="cls-32" transform="translate(104.4 207.1)">Activate</text><path class="cls-8" d="M259.5,179.2l-13.9-31.1h6.1l11.2,26.1H261l11.2-26.1h6l-13.9,31.1Z"/><path class="cls-8" d="M281.3,179.2V148.1h13.8q5.1,0,7.8,2.4a10,10,0,0,1,0,13.7c-1.8,1.6-4.4,2.5-7.8,2.5H287v12.5Zm5.7-17h7.4a6.7,6.7,0,0,0,4.3-1.3,4.6,4.6,0,0,0,1.4-3.6,4.5,4.5,0,0,0-1.4-3.5,6.1,6.1,0,0,0-4.3-1.3H287Z"/><path class="cls-8" d="M321.6,179.7a21.7,21.7,0,0,1-6.9-1,16.5,16.5,0,0,1-5.5-2.6l1.8-4.5a24.8,24.8,0,0,0,3.1,1.8,14.2,14.2,0,0,0,3.5,1.1,17.5,17.5,0,0,0,4,.4c2.3,0,4-.4,5-1.2a3.5,3.5,0,0,0,1.6-3,3.1,3.1,0,0,0-1.1-2.5,11.2,11.2,0,0,0-3.8-1.4l-5-1a12.4,12.4,0,0,1-6.4-3,7.4,7.4,0,0,1-2.1-5.5,8.5,8.5,0,0,1,1.5-5.1,9.8,9.8,0,0,1,4.3-3.4,16.7,16.7,0,0,1,6.5-1.2,17.5,17.5,0,0,1,6.2,1,11.4,11.4,0,0,1,4.7,2.7l-1.7,4.2a14.4,14.4,0,0,0-4.2-2.3,15.9,15.9,0,0,0-5-.8,8.4,8.4,0,0,0-4.9,1.2,3.8,3.8,0,0,0-1.8,3.3,3.7,3.7,0,0,0,1.1,2.7,9.3,9.3,0,0,0,3.7,1.5l5,.9a13.6,13.6,0,0,1,6.5,2.9,7.3,7.3,0,0,1,2.1,5.4,8.1,8.1,0,0,1-1.5,4.9,10,10,0,0,1-4.2,3.3A16.4,16.4,0,0,1,321.6,179.7Z"/><path class="cls-22" d="M257.1,179l-13.8-31.2h6.1L260.6,174h-1.9l11.2-26.2h5.9L262,179Z"/><path class="cls-22" d="M278.9,179V147.8h13.9c3.4,0,6,.8,7.8,2.5a8.7,8.7,0,0,1,2.7,6.8,8.8,8.8,0,0,1-2.7,6.8c-1.8,1.7-4.4,2.5-7.8,2.5h-8.2V179Zm5.7-17.1h7.5a6.7,6.7,0,0,0,4.3-1.2,5.3,5.3,0,0,0,0-7.2,6.7,6.7,0,0,0-4.3-1.2h-7.5Z"/><path class="cls-22" d="M319.3,179.4a25.3,25.3,0,0,1-7-.9,17.1,17.1,0,0,1-5.4-2.7l1.8-4.4a19.2,19.2,0,0,0,3.1,1.8,20.4,20.4,0,0,0,3.5,1.1,26,26,0,0,0,4,.3c2.3,0,4-.3,5-1.1a3.7,3.7,0,0,0,1.5-3,3,3,0,0,0-1-2.5,8.1,8.1,0,0,0-3.8-1.4l-5-1.1a11.6,11.6,0,0,1-6.4-2.9,7.6,7.6,0,0,1-2.1-5.6,9,9,0,0,1,1.5-5.1,10.3,10.3,0,0,1,4.3-3.3,16.7,16.7,0,0,1,6.5-1.2,20.6,20.6,0,0,1,6.2.9,15.3,15.3,0,0,1,4.7,2.7l-1.8,4.3a11.4,11.4,0,0,0-4.1-2.4,16,16,0,0,0-5.1-.8,7.4,7.4,0,0,0-4.8,1.3,3.8,3.8,0,0,0-1.8,3.3,3.3,3.3,0,0,0,1.1,2.6,6.8,6.8,0,0,0,3.7,1.5l4.9,1c3,.6,5.2,1.5,6.6,2.9a7,7,0,0,1,2.1,5.4A8.1,8.1,0,0,1,330,175a9.1,9.1,0,0,1-4.2,3.2A16.4,16.4,0,0,1,319.3,179.4Z"/><polygon class="cls-8" points="330.7 151 333 151.3 331.2 155.5 328.9 155.3 330.7 151"/><polygon class="cls-8" points="308.7 171.4 311 171.6 310.6 172.6 308.7 171.4"/><polygon class="cls-8" points="249.4 147.8 251.7 148.1 249.5 148.1 249.4 147.8"/><polygon class="cls-8" points="275.8 147.8 275.7 148.1 278.1 148.1 275.8 147.8"/><polygon class="cls-8" points="278.9 179 281.2 179.2 281.2 179 278.9 179"/><polygon class="cls-8" points="257.1 179 259.5 179.2 259.3 179 257.1 179"/><rect class="cls-33" x="182.6" y="35.5" width="123.5" height="84.51"/><rect class="cls-34" x="180.1" y="32.9" width="123.5" height="84.51"/><rect class="cls-35" x="180.1" y="43.1" width="32.8" height="74.32"/><rect class="cls-36" x="180.1" y="32.9" width="123.5" height="10.19"/><line class="cls-37" x1="186.7" y1="38" x2="191.9" y2="38"/><line class="cls-37" x1="198" y1="38" x2="203.2" y2="38"/><line class="cls-37" x1="209.2" y1="38" x2="214.4" y2="38"/><path class="cls-38" d="M261.4,55.3H222.2a3.1,3.1,0,0,1-3.1-3.1h0a3,3,0,0,1,3.1-3h39.2a3,3,0,0,1,3.1,3h0A3.1,3.1,0,0,1,261.4,55.3Z"/><line class="cls-39" x1="185.8" y1="48.1" x2="190.8" y2="48.1"/><line class="cls-39" x1="185.8" y1="50.1" x2="190.8" y2="50.1"/><line class="cls-39" x1="185.8" y1="52.1" x2="190.8" y2="52.1"/><path class="cls-33" d="M205.4,62.7H187.6a1.8,1.8,0,0,1-1.8-1.8h0a1.8,1.8,0,0,1,1.8-1.8h17.8a1.8,1.8,0,0,1,1.8,1.8h0A1.8,1.8,0,0,1,205.4,62.7Z"/><path class="cls-33" d="M205.4,73.2H187.6a1.8,1.8,0,0,1-1.8-1.8h0a1.8,1.8,0,0,1,1.8-1.7h17.8a1.8,1.8,0,0,1,1.8,1.7h0A1.8,1.8,0,0,1,205.4,73.2Z"/><path class="cls-33" d="M205.4,83.8H187.6a1.8,1.8,0,0,1-1.8-1.8h0a1.8,1.8,0,0,1,1.8-1.8h17.8a1.8,1.8,0,0,1,1.8,1.8h0A1.8,1.8,0,0,1,205.4,83.8Z"/><circle class="cls-40" cx="296.4" cy="49.9" r="3.1"/><rect class="cls-41" x="228.7" y="65.1" width="5.6" height="31.53"/><rect class="cls-42" x="240.3" y="83.1" width="5.6" height="13.47"/><rect class="cls-43" x="251.8" y="74.2" width="5.6" height="22.46"/><rect class="cls-44" x="263.4" y="82.2" width="5.6" height="14.46"/><rect class="cls-33" x="219.1" y="102.2" width="59.4" height="2.16" rx="0.9"/><rect class="cls-33" x="219.1" y="109.1" width="59.4" height="2.16" rx="0.9"/><line class="cls-38" x1="296.4" y1="57" x2="296.4" y2="109.7"/><rect class="cls-38" x="219.1" y="61.5" width="59.4" height="35.13"/><line class="cls-45" x1="212.8" y1="43.1" x2="212.8" y2="110.9"/><line class="cls-45" x1="187.4" y1="43.4" x2="295" y2="43.4"/></svg>