<svg id="Layer_1" data-name="Layer 1" xmlns="http://www.w3.org/2000/svg" viewBox="0 0 256 256"><defs><style>.cls-1{fill:none;stroke:#fff;stroke-miterlimit:10;stroke-width:11px;}.cls-2{fill:#fff;}</style></defs><circle class="cls-1" cx="128" cy="128" r="114.7"/><path class="cls-2" d="M161.8,165.7l4.6,8.5c2.5,4.4,5,8.7,7.4,13.1s1.3,4.7-1.9,6.4l-16,8c-3.3,1.6-4.7,1.2-6.5-2-3.8-6.8-7.6-13.7-11.5-20.5l-1.5-2.7-6.1,4.7-8.4,6.5c-1.3,1.1-2.8,2.2-4.5,1.2s-2-2.6-2-4.4,0-3.7,0-5.6V103.3a26.2,26.2,0,0,1,.1-2.8,3.5,3.5,0,0,1,2.1-3.3,3.3,3.3,0,0,1,3.7.9l1.1,1.1,59.3,59.2,1.5,1.6c1.7,2.2.8,4.7-1.9,5.3a13.1,13.1,0,0,1-2.8.1H164.3Z"/><path class="cls-2" d="M165.3,100.1a42,42,0,0,1-3.1,17.2,16.7,16.7,0,0,1-1.2,2.3,2.9,2.9,0,0,1-3.8,1.1,3.1,3.1,0,0,1-1.7-3.7c.5-1.9,1.2-3.8,1.8-5.7A40.2,40.2,0,1,0,98,134.5l3.6,2c2.3,1.3,3.1,2.8,2.3,4.5s-2.8,2.4-5.4,1.2A46.3,46.3,0,0,1,84.6,132a47.1,47.1,0,0,1-11.9-23.5,45.7,45.7,0,0,1,8.4-36.1C88.6,62.3,98.6,55.9,111.2,54s24.2.4,34.6,7.9S163.3,81,165.2,94.5a2.8,2.8,0,0,1,.1.9Z"/><path class="cls-2" d="M90.7,100.3c.5-11.2,5.3-19.8,15.4-25.2s24.3-3.3,32.7,5.3c6.1,6.3,9,14.1,7.7,23a49.5,49.5,0,0,1-2,7.8,3.3,3.3,0,0,1-3.3,2.5c-2.2-.1-3.4-1.9-2.8-4.3s1.4-4.8,1.7-7.3c1.4-10.7-6.5-21.2-17.1-23.2a21.6,21.6,0,0,0-25.7,23.6,20.7,20.7,0,0,0,9.8,15.7,19.4,19.4,0,0,1,2.4,1.5c2,1.3,2.4,2.8,1.4,4.5s-2.7,1.9-4.7.9a26.4,26.4,0,0,1-8.4-6.4A27.9,27.9,0,0,1,90.7,100.3Z"/></svg>