<svg id="Layer_1" data-name="Layer 1" xmlns="http://www.w3.org/2000/svg" viewBox="0 0 128 128"><defs><style>.cls-1{fill:#fff;}</style></defs><path class="cls-1" d="M64,118.1A54.2,54.2,0,0,1,25.7,25.7a54.2,54.2,0,0,1,76.6,76.6A53.8,53.8,0,0,1,64,118.1ZM64,13.9A50.1,50.1,0,1,0,114.1,64,50.2,50.2,0,0,0,64,13.9Z"/><polygon class="cls-1" points="87.2 31.1 87.2 31.1 87.2 31.1 87.2 31.1"/><path class="cls-1" d="M72.2,75.8l-2.2.4v.3l2.1-.4Zm6.4-.2v.3h1.9v-.3Zm7.6.9v.3l1.9.3v-.2Zm-4-.6v.3l1.9.2v-.3Zm-6.8-.4h-2v.2h2Zm15.3,2.8h.8l.7-.2v-.3Zm-34,2v.2h.2a7.4,7.4,0,0,1,4.4-1v-.2C60.1,79.1,58.6,79.4,56.7,80.3Zm17.4-1-1.6-.4a7.7,7.7,0,0,0-4.1,1.3,8.3,8.3,0,0,1-5.7,1.1.2.2,0,0,0-.2.2h1.3a8.9,8.9,0,0,0,4.7-1.2,6.6,6.6,0,0,1,4-1.3l1.5.3h.2A.1.1,0,0,0,74.1,79.3Z"/><path class="cls-1" d="M68.3,79.3c-2.6,1.3-4.6,1.5-5.8.7l-1.1-.4.2-.2a1.8,1.8,0,0,1,1,.4c1.2.7,3,.5,5.6-.7h.2C68.4,79.2,68.4,79.3,68.3,79.3Z"/><path class="cls-1" d="M91.3,78.4a7.6,7.6,0,0,0-1.8.9,9.2,9.2,0,0,1-4.8,1.2H83.6c-.1-.1-.1-.1-.1-.2h.1a9.3,9.3,0,0,0,5.7-1.1l1.3-.7Z"/><path class="cls-1" d="M95.1,78.2H95L93.9,78v-.3l1.1.3A.1.1,0,0,1,95.1,78.2Z"/><path class="cls-1" d="M88.6,77.1c0,.1-.1.1-.2.1h-.2v-.3h.2Z"/><path class="cls-1" d="M86,76.5v.3l-1.8-.4v-.3Z"/><path class="cls-1" d="M78.3,75.5v.3H75.7v-.3Z"/><path class="cls-1" d="M77,41.2h-.3a2.1,2.1,0,0,0-2.9-.5c-.1.1-.3,0-.4-.1s-.1-.4.1-.5a2.8,2.8,0,0,1,3.5.4,3,3,0,0,1,3.7-.4.4.4,0,0,1-.4.6,2.4,2.4,0,0,0-3.1.5Zm-2.5-3.6h-.2c-1.1-1.2-2.1-1.4-3.1-.8s-.3,0-.4-.1-.1-.4.1-.5,2.1-.8,3.6.7c1.2-1.2,2.4-1.4,3.6-.7s.2.3.1.5-.3.2-.4.1-2-.4-3.1.8Z"/><path class="cls-1" d="M21.6,72.5h3.1a2.5,2.5,0,0,1,2,.8,2.6,2.6,0,0,1,.4,2.2l-.3,1.1a2.7,2.7,0,0,1-.7.8,1.7,1.7,0,0,1-1,.7,3.4,3.4,0,0,1-1.5.2H22.3l-.4,2.1H20.3ZM23,73.8l-.5,3.3h.9a1.8,1.8,0,0,0,1.4-.4,1.9,1.9,0,0,0,.7-1.3,1.7,1.7,0,0,0-.2-1.3,1.7,1.7,0,0,0-1.2-.3H23m5.9-3.4h1.6l-.4,2.1h1.4a3.1,3.1,0,0,1,1.9.5,2.2,2.2,0,0,1,.3,1.7l-.6,3.6H31.5l.6-3.5A1.7,1.7,0,0,0,32,74a1.3,1.3,0,0,0-.8-.2H29.9l-.7,4.5H27.6l1.3-7.9m6.5,2.1h3.1a2.5,2.5,0,0,1,2,.8,2.6,2.6,0,0,1,.4,2.2,2.3,2.3,0,0,1-.3,1.1l-.6.8a2.3,2.3,0,0,1-1.1.7,3.4,3.4,0,0,1-1.5.2H36.1l-.4,2.1H34.1Zm1.4,1.3-.5,3.3h.9a2.1,2.1,0,0,0,1.5-.4,2.3,2.3,0,0,0,.6-1.3,1.7,1.7,0,0,0-.2-1.3,1.7,1.7,0,0,0-1.2-.3H36.8"/><polyline class="cls-1" points="43.6 68.8 46.7 68.8 48 76.1 51.7 68.8 54.8 68.8 53.2 78.3 51.2 78.3 52.6 70.9 48.8 78.3 46.6 78.3 45.2 70.8 44.2 78.3 42.1 78.3 43.6 68.8"/><path class="cls-1" d="M62.3,77.6l3.5-6.1-2.7.5-.9,5.5"/><path class="cls-1" d="M58.8,72.4h0a5.2,5.2,0,0,0,1,3.3l.6-3.5Z"/><path class="cls-1" d="M62.8,71.3V72l-.9,5.2v.9a5,5,0,0,1-.4,1.3v.2l-.5.6a3.6,3.6,0,0,1-2.2.7H54.8l.2-1.4h3.4a1.2,1.2,0,0,0,.9-.3,1,1,0,0,0,.4-.8H58a3.2,3.2,0,0,1-2.2-.6,2.3,2.3,0,0,1-.3-2.1l.7-4.3h1.9l-.7,4.2c-.1.5-.1.9.1,1s.4.3,1,.3H60l.2-1.1.5-3.5.2-.9Z"/><polygon class="cls-1" points="68.7 70.7 68.7 70.7 68.7 70.7 68.7 70.7"/><polygon class="cls-1" points="68.7 70.7 68.3 71.3 68.8 71.2 68.7 70.7"/><path class="cls-1" d="M83.8,68.2l1.9-34.6L88,37.3h0a43,43,0,0,1,2.1,16.1l.2.2,2.2,4h.1a27.1,27.1,0,0,0,11.6,6.1l1,1.7h.2L85.8,33.4v-.7h-.2a.1.1,0,0,0-.1.1l-2,35.5Z"/><path class="cls-1" d="M65.6,76.5l.7-.4h-.5Z"/><polygon class="cls-1" points="70.2 40.1 70.2 40 70.1 40 70 40 70 40.1 68.2 68.8 68.4 68.8 70.2 40.1"/><polygon class="cls-1" points="69.5 40.2 59.1 70.4 67.6 69.5 67.6 69.4 69.5 40.2"/><path class="cls-1" d="M82.9,67.9l2.3-34.6A119.7,119.7,0,0,1,69.4,68.7Z"/><path class="cls-1" d="M97.2,66.6,85.1,45.2q3.6,7.5,2.7,22.5Z"/><path class="cls-1" d="M72.2,76.1v-.3l-.4-1.4-1-3.4-.6-2.2H68l-.4.6h0l-1.3,2.1-3.7,6.1-.4.6h2.2l1.1-1.9.2-.4H70v.5l.4,1.8h2.4Zm-5.6-1.8,1.7-3,.4-.6v.5l.8,3.1Z"/><path class="cls-1" d="M69.9,76.5a13.7,13.7,0,0,0-5.2,2.3h-.2c-.1,0-.1-.1,0-.2a17,17,0,0,1,5.3-2.3Z"/><path class="cls-1" d="M74.4,72a5.7,5.7,0,0,1,1.3-.8,4.4,4.4,0,0,1,1.8-.2h1.6l.2-1.4-8.3,1,.9,3.4,1.5-.2a6.4,6.4,0,0,1,.2-.7A7.6,7.6,0,0,1,74.4,72Z"/><path class="cls-1" d="M79.7,68.8,79.5,70l-.2,1.3H77.7a4.2,4.2,0,0,0-1.8.3,2.6,2.6,0,0,0-1.3.8l-.8,1a6.4,6.4,0,0,1-.2.7c-.1.2-.1.4-.2.6v1.2a2.5,2.5,0,0,0,.5,1.5,3.3,3.3,0,0,0,2.5.9h3.7l.4-2.3h0v-.3l.3-1.5.7-4.5v-.9Zm-1.1,7.1-.2.9H77.1a2.1,2.1,0,0,1-1.5-.4c0-.1-.1-.2-.1-.3h0c0-.1-.1-.2-.1-.3v-.9a4.6,4.6,0,0,1,.3-.9,1.8,1.8,0,0,1,.5-.7,2.6,2.6,0,0,1,1.7-.5h1.2L78.9,74l-.3,1.6Z"/><path class="cls-1" d="M73.2,75.8l-.9.2v-.3l.9-.2Z"/><path class="cls-1" d="M82,75.9v.3L80.6,76v-.3Z"/><path class="cls-1" d="M90.6,73.3c-.1-.2-.3-.3-.8-.3h-.9l-.2,1.7,1.8.5.2-1.1C90.8,73.7,90.8,73.4,90.6,73.3Z"/><path class="cls-1" d="M84.9,73l-.2.9,1.6.3.2-1.2Z"/><path class="cls-1" d="M92.5,71.9a3.2,3.2,0,0,0-2.2-.6H82.9l-.4,2.5-.3,2.1v.3l-.3,2.1h1.9l.3-1.9v-.3l.4-2.1.2-1.2h2.2l-.2,1.6-.4,2.1v.3l-.3,1.5h2l.2-1.2v-.2l.4-2.1.3-2h1.1q.8,0,.9.3c.2.2.2.5.1,1l-.2,1.3-.5,2.9h2v-.5l.5-2.9.2-1A2.4,2.4,0,0,0,92.5,71.9Z"/><path class="cls-1" d="M93.8,77.5v.2h-.2a2,2,0,0,0-1,.2v-.3a2.2,2.2,0,0,1,1.1-.2Z"/><path class="cls-1" d="M82,68.9l-.7,4.5h.8l.4-2.5,8.4-.2a3.2,3.2,0,0,1,2.2.8,2.7,2.7,0,0,1,.3,2.1l-.2,1,.7-.2h.2c.1-.5.1-.7.2-1.2l.4-2.4h1.5l.8-.4H95.1l.3-1.7h2l-.2,1.6a19.9,19.9,0,0,1,3.3-2.4,22.1,22.1,0,0,1,6.6-1.8,3.2,3.2,0,0,0,1.9-.6Z"/><polygon class="cls-1" points="94.7 73.3 94 77.7 93.9 78 93.9 78.3 95.9 78.3 97 71.3 96.2 71.3 95 71.3 94.7 73.3"/><path class="cls-1" d="M98.7,71.3h3.6a3,3,0,0,1,2.2.6,2.1,2.1,0,0,1,.4,2l-.7,4.4h-1.9l.7-4.2a2.2,2.2,0,0,0-.1-1,1.3,1.3,0,0,0-1-.3h-1.6l-.8,5.5h-2l1.2-7"/></svg>