<svg id="Layer_1" data-name="Layer 1" xmlns="http://www.w3.org/2000/svg" viewBox="0 0 128 128"><defs><style>.cls-1{fill:#fff;}</style></defs><path class="cls-1" d="M64,118.1A54.2,54.2,0,0,1,25.7,25.7a54.2,54.2,0,0,1,76.6,76.6A53.8,53.8,0,0,1,64,118.1ZM64,13.9A50.1,50.1,0,1,0,114.1,64,50.2,50.2,0,0,0,64,13.9Z"/><polygon class="cls-1" points="91.2 85.1 91.2 85.1 91.2 85.1 91.2 85.1"/><path class="cls-1" d="M49.3,54.8h4.9a3.9,3.9,0,0,1,3.3,1.3,4,4,0,0,1,.7,3.5,6.9,6.9,0,0,1-.5,1.7,5.3,5.3,0,0,1-1.1,1.5,3.9,3.9,0,0,1-1.7,1.1,7.8,7.8,0,0,1-2.4.3H50.3l-.5,3.4H47.2Zm2.2,2-.9,5.4h1.6a2.8,2.8,0,0,0,3.3-2.8,2.5,2.5,0,0,0-.2-2,2.7,2.7,0,0,0-2-.6H51.5m9.6-5.4h2.6l-.6,3.4h2.3a4.3,4.3,0,0,1,3,.8,2.7,2.7,0,0,1,.6,2.6l-1,6H65.4l.9-5.7c.1-.6.1-1.1-.1-1.3a2.1,2.1,0,0,0-1.3-.3H62.8l-1.2,7.3H59l2.1-12.8m10.7,3.4h4.9A3.9,3.9,0,0,1,80,56.1a4,4,0,0,1,.7,3.5,6.9,6.9,0,0,1-.5,1.7,7.8,7.8,0,0,1-1,1.5,4.5,4.5,0,0,1-1.7,1.1,8.8,8.8,0,0,1-2.4.3H72.8l-.5,3.4H69.7Zm2.2,2-.8,5.4h1.5a3.8,3.8,0,0,0,2.4-.6,4.1,4.1,0,0,0,1-2.2,2.9,2.9,0,0,0-.3-2,2.7,2.7,0,0,0-2-.6H74"/><polygon class="cls-1" points="93.8 70.5 93.4 72.9 96 72.9 96.2 72.9 96.2 72.7 96.5 70.5 93.8 70.5"/><polyline class="cls-1" points="21.6 70.5 25.9 70.5 27.7 80.7 32.9 70.5 37.2 70.5 35 83.8 32.2 83.8 34.1 73.4 28.9 83.8 25.8 83.8 23.8 73.3 22.4 83.8 19.4 83.8 21.6 70.5"/><path class="cls-1" d="M48.4,74l-.2,1L47,82.3l-.2,1.3a4.8,4.8,0,0,1-.5,1.7c0,.1-.1.2-.2.3a2.7,2.7,0,0,1-.7.8,4,4,0,0,1-3,1H37.2l.3-2h4.8a1.6,1.6,0,0,0,1.2-.4,1.7,1.7,0,0,0,.6-1v-.2H41.7a4.8,4.8,0,0,1-3.1-.8,3.7,3.7,0,0,1-.5-2.9l1-6.1h2.7l-1,5.9c-.1.7-.1,1.2.1,1.4a2.1,2.1,0,0,0,1.4.4h2.2l.2-1.5.8-4.9.2-1.3Z"/><path class="cls-1" d="M61.6,80.7l-.2-.4-.5-2-1.3-4.7-.9-3.1H55.6l-.6.9h0l-1.7,3L48.1,83l-.5.8h3.1l1.4-2.7.3-.5h6v.6l.6,2.6h3.2Zm-7.9-2.4L56.1,74l.5-.9.2.8,1.1,4.4Z"/><path class="cls-1" d="M72,70.5l-.3,1.6L71.4,74H69.1a6.2,6.2,0,0,0-2.5.4,4.5,4.5,0,0,0-1.7,1.1A7.2,7.2,0,0,0,63.8,77l-.4.9a2.9,2.9,0,0,1-.2.9c0,.5-.1.9-.1,1.3s.1.3.1.4a2.8,2.8,0,0,0,.8,2,4,4,0,0,0,3.4,1.3h5.1l.6-3.2h0v-.4l.4-2.2,1-6.2.2-1.3Zm-1.6,9.9-.2,1.3H68.4a2.8,2.8,0,0,1-2.1-.6l-.2-.3h0c0-.1-.1-.2-.1-.4V79a5,5,0,0,1,.4-1.3,2.2,2.2,0,0,1,.7-.9,3.3,3.3,0,0,1,2.4-.7h1.6l-.3,1.7L70.5,80Z"/><path class="cls-1" d="M89.8,74.9c-.5-.6-1.6-.9-3.1-.9H76.5l-.6,3.4-.5,3v.4l-.5,3h2.7l.4-2.7v-.3l.4-3,.3-1.6h3.1l-.3,2.2-.5,2.9v.3l-.3,2.2h2.7l.3-1.7v-.3l.4-2.9.5-2.7h1.5a1.9,1.9,0,0,1,1.3.3c.2.2.2.7.1,1.4l-.3,1.8-.6,4.1h2.7v-.7l.6-4.1.3-1.4Q90.7,75.7,89.8,74.9Z"/><polygon class="cls-1" points="92.9 76.7 91.9 82.9 91.8 83.3 91.8 83.8 94.6 83.8 96.2 74 95.1 74 93.4 74 92.9 76.7"/><path class="cls-1" d="M98.5,74h5a5.1,5.1,0,0,1,3.2.8,3.4,3.4,0,0,1,.5,2.8l-1,6.2h-2.7l1-5.9a1.8,1.8,0,0,0-.2-1.4,1.9,1.9,0,0,0-1.3-.3h-2.2l-1.2,7.6H96.9L98.5,74"/><path class="cls-1" d="M62,24.7h-.1a1.3,1.3,0,0,0-1.8-.3c-.1,0-.3,0-.3-.1a.2.2,0,0,1,0-.3,1.8,1.8,0,0,1,2.2.3,2.1,2.1,0,0,1,2.4-.3.2.2,0,0,1,0,.3c0,.1-.2.1-.3.1s-1.2-.3-1.9.3Zm-1.5-2.3h-.2a1.5,1.5,0,0,0-1.9-.5h-.3c0-.1,0-.3.1-.3a1.8,1.8,0,0,1,2.3.4,1.6,1.6,0,0,1,2.2-.4.2.2,0,0,1,.1.3h-.3c-.6-.3-1.2-.2-1.9.5Z"/><path class="cls-1" d="M66.4,41.6l1.1-21.7L69,22.2h0a28.4,28.4,0,0,1,1.3,10.1v.2L71.8,35h.1a17.5,17.5,0,0,0,7.2,3.9l.7,1h.1L67.6,19.7v-.4h0a.1.1,0,0,1-.1-.1h-.1L66.2,41.6Z"/><polygon class="cls-1" points="57.8 24 57.8 23.9 57.7 23.9 57.7 23.9 57.6 24 56.5 42 56.7 42 57.8 24"/><polygon class="cls-1" points="57.4 24 50.8 43 56.1 42.4 56.1 42.4 57.4 24"/><path class="cls-1" d="M65.8,41.5l1.4-21.8A76.8,76.8,0,0,1,57.3,42Z"/><path class="cls-1" d="M74.8,40.6,67.2,27.2c1.5,3.1,2,7.8,1.6,14.1Z"/><path class="cls-1" d="M55.1,43.5l-3.2.4s-1.4.1,0,2.3a7.7,7.7,0,0,0,1.8,1.6c.7.3,4.5-3.6,14.5-1.8,0,0,4.3,1.5,5.2-.3s4.1-3.7,7-4.5,3.1-1.1,1.9-1Z"/><path class="cls-1" d="M68.9,47.8a13.8,13.8,0,0,0,4.6-.6l2.2-.9,1.2-.3h1.2a6.2,6.2,0,0,0-2.3.7l-2.1,1a6.7,6.7,0,0,1-2.4.4A9.9,9.9,0,0,1,68.9,47.8Z"/><path class="cls-1" d="M49.8,49.2a11.7,11.7,0,0,0,4.6-.5l2.2-1,1.2-.3H59a6.5,6.5,0,0,0-2.3.6l-2.1,1a6.7,6.7,0,0,1-2.4.4A6.6,6.6,0,0,1,49.8,49.2Z"/><path class="cls-1" d="M65.8,46.3a8.5,8.5,0,0,0-2.4.5l-1.2.5a2,2,0,0,1-1.3.2L62,47l1.2-.6A3.3,3.3,0,0,1,65.8,46.3Z"/></svg>