<svg xmlns="http://www.w3.org/2000/svg" xmlns:xlink="http://www.w3.org/1999/xlink" viewBox="0 0 500 500"><defs><style>.cls-1{isolation:isolate;}.cls-10,.cls-2,.cls-25,.cls-32,.cls-34,.cls-37,.cls-39,.cls-4,.cls-40,.cls-42,.cls-6,.cls-8{mix-blend-mode:multiply;}.cls-2{fill:url(#radial-gradient);}.cls-3{fill:url(#radial-gradient-2);}.cls-4{fill:url(#radial-gradient-3);}.cls-5{fill:#1b1b59;}.cls-6{fill:url(#radial-gradient-4);}.cls-7{fill:url(#radial-gradient-5);}.cls-8{fill:url(#radial-gradient-6);}.cls-9{fill:url(#radial-gradient-7);}.cls-10{fill:#9c91c1;}.cls-11{fill:url(#radial-gradient-8);}.cls-12{fill:url(#radial-gradient-9);}.cls-13{fill:url(#radial-gradient-10);}.cls-14{fill:url(#radial-gradient-11);}.cls-15{fill:url(#radial-gradient-12);}.cls-16{fill:#0d2042;}.cls-17{fill:url(#radial-gradient-13);}.cls-18{fill:url(#radial-gradient-14);}.cls-19{fill:url(#radial-gradient-15);}.cls-20{fill:url(#radial-gradient-16);}.cls-21{fill:url(#radial-gradient-17);}.cls-22{fill:url(#radial-gradient-18);}.cls-23{fill:url(#radial-gradient-19);}.cls-24{fill:url(#radial-gradient-20);}.cls-25{fill:#92a7c4;}.cls-26{fill:url(#radial-gradient-21);}.cls-27{fill:#fff;}.cls-28{fill:#dfceed;}.cls-29{fill:url(#radial-gradient-22);}.cls-30{fill:url(#radial-gradient-23);}.cls-31{fill:url(#radial-gradient-24);}.cls-32{fill:url(#radial-gradient-25);}.cls-33{fill:url(#radial-gradient-26);}.cls-34{fill:url(#radial-gradient-27);}.cls-35{fill:url(#radial-gradient-28);}.cls-36{fill:url(#radial-gradient-29);}.cls-37{fill:url(#radial-gradient-30);}.cls-38{fill:url(#radial-gradient-31);}.cls-39{fill:url(#radial-gradient-32);}.cls-40{fill:url(#radial-gradient-33);}.cls-41{fill:url(#radial-gradient-34);}.cls-42{fill:url(#radial-gradient-35);}.cls-43{fill:#8666dd;}.cls-44{fill:#0087cb;}</style><radialGradient id="radial-gradient" cx="-219.4" cy="-5421.99" r="138.34" gradientTransform="translate(554.9 2015.1) scale(1.31 0.29)" gradientUnits="userSpaceOnUse"><stop offset="0" stop-opacity="0.5"/><stop offset="1" stop-opacity="0"/></radialGradient><radialGradient id="radial-gradient-2" cx="355.37" cy="301.11" r="50.02" gradientUnits="userSpaceOnUse"><stop offset="0" stop-color="#fff"/><stop offset="1" stop-color="#4e4e91"/></radialGradient><radialGradient id="radial-gradient-3" cx="362.78" cy="321.28" r="36.49" xlink:href="#radial-gradient-2"/><radialGradient id="radial-gradient-4" cx="388.4" cy="325.2" r="18.98" xlink:href="#radial-gradient-2"/><radialGradient id="radial-gradient-5" cx="392.28" cy="294.14" r="37.85" xlink:href="#radial-gradient-2"/><radialGradient id="radial-gradient-6" cx="396.08" cy="315.69" r="23.53" xlink:href="#radial-gradient-2"/><radialGradient id="radial-gradient-7" cx="370.82" cy="299.13" r="17.13" xlink:href="#radial-gradient-2"/><radialGradient id="radial-gradient-8" cx="368" cy="354.48" r="75.66" xlink:href="#radial-gradient-2"/><radialGradient id="radial-gradient-9" cx="291.45" cy="328.44" r="81.19" gradientUnits="userSpaceOnUse"><stop offset="0" stop-color="#fff"/><stop offset="1" stop-color="#a5c4e7"/></radialGradient><radialGradient id="radial-gradient-10" cx="291.45" cy="328.44" r="81.19" xlink:href="#radial-gradient-2"/><radialGradient id="radial-gradient-11" cx="289.84" cy="323.21" r="42.78" xlink:href="#radial-gradient-2"/><radialGradient id="radial-gradient-12" cx="286.37" cy="359.46" r="30.09" xlink:href="#radial-gradient-2"/><radialGradient id="radial-gradient-13" cx="300.67" cy="302.98" r="22.02" gradientUnits="userSpaceOnUse"><stop offset="0" stop-color="#182442"/><stop offset="1" stop-color="#33215d"/></radialGradient><radialGradient id="radial-gradient-14" cx="298.96" cy="328.73" r="24.94" gradientTransform="translate(550.2 -37.8) rotate(76.7)" xlink:href="#radial-gradient-13"/><radialGradient id="radial-gradient-15" cx="284.84" cy="332.16" r="44.89" xlink:href="#radial-gradient-2"/><radialGradient id="radial-gradient-16" cx="298.96" cy="328.73" r="18.49" gradientTransform="translate(320 -115.1) rotate(45)" xlink:href="#radial-gradient-13"/><radialGradient id="radial-gradient-17" cx="273.02" cy="348.73" r="26.09" xlink:href="#radial-gradient-13"/><radialGradient id="radial-gradient-18" cx="321.98" cy="360.31" r="24.82" xlink:href="#radial-gradient-13"/><radialGradient id="radial-gradient-19" cx="351.99" cy="109.09" r="252.26" gradientTransform="matrix(1, 0, 0.03, 1, 21.68, 0)" xlink:href="#radial-gradient-9"/><radialGradient id="radial-gradient-20" cx="351.99" cy="109.09" r="252.26" gradientTransform="matrix(1, 0, 0.03, 1, 21.68, 0)" xlink:href="#radial-gradient-2"/><radialGradient id="radial-gradient-21" cx="381.49" cy="136.13" r="203.76" xlink:href="#radial-gradient-13"/><radialGradient id="radial-gradient-22" cx="199.2" cy="352.19" r="104.97" xlink:href="#radial-gradient-2"/><radialGradient id="radial-gradient-23" cx="265.38" cy="238.92" r="125.31" xlink:href="#radial-gradient-2"/><radialGradient id="radial-gradient-24" cx="209.94" cy="179.79" r="65.95" xlink:href="#radial-gradient-2"/><radialGradient id="radial-gradient-25" cx="211.05" cy="235.49" r="66.48" xlink:href="#radial-gradient-2"/><radialGradient id="radial-gradient-26" cx="257.32" cy="146.06" r="75.79" xlink:href="#radial-gradient-2"/><radialGradient id="radial-gradient-27" cx="208.93" cy="155.75" r="29.99" xlink:href="#radial-gradient-2"/><radialGradient id="radial-gradient-28" cx="172.37" cy="80.36" r="106.73" xlink:href="#radial-gradient-2"/><radialGradient id="radial-gradient-29" cx="107.66" cy="185.55" r="60.53" xlink:href="#radial-gradient-2"/><radialGradient id="radial-gradient-30" cx="147.62" cy="201.72" r="18.02" xlink:href="#radial-gradient-2"/><radialGradient id="radial-gradient-31" cx="114.3" cy="163.65" r="61.71" xlink:href="#radial-gradient-2"/><radialGradient id="radial-gradient-32" cx="149.81" cy="172.96" r="23.33" xlink:href="#radial-gradient-2"/><radialGradient id="radial-gradient-33" cx="184.83" cy="139.31" r="25.61" xlink:href="#radial-gradient-2"/><radialGradient id="radial-gradient-34" cx="132.22" cy="117.52" r="99.87" xlink:href="#radial-gradient-2"/><radialGradient id="radial-gradient-35" cx="161.05" cy="149.13" r="26.47" xlink:href="#radial-gradient-2"/></defs><g class="cls-1"><g id="Layer_1" data-name="Layer 1"><ellipse class="cls-2" cx="268.5" cy="443.8" rx="180.6" ry="40.1"/><path class="cls-3" d="M323.1,289.9s34.3,27.2,38.5,26.9,20.8-13.7,25-12.6,19.9,31,18.4,34.8-37.2,13.9-49.8,11.5-34.7-37.2-34.7-37.2Z"/><path class="cls-4" d="M355.2,350.5c12.6,2.4,48.2-7.8,49.8-11.5s-5.2-15.7-10.8-25.1c-13.4,3.1-33.2,7.6-36.5,7.1s-24-18.9-34.8-29.3l-2.4,21.6S342.6,348,355.2,350.5Z"/><path class="cls-5" d="M356.4,350.7a25.4,25.4,0,0,1-2-5.2,24.5,24.5,0,0,1-.5-6.6,41,41,0,0,1,1.2-7,36,36,0,0,1,2-6.6,35,35,0,0,1,4.6-8.5h-.1a3,3,0,0,1-1.6-.4,36,36,0,0,0-3.9,6.9,51.7,51.7,0,0,0-3.7,14,25.2,25.2,0,0,0,1.9,13l.9.2Z"/><ellipse class="cls-5" cx="354.1" cy="343.2" rx="5" ry="7.9" transform="translate(-113.5 499.9) rotate(-62.6)"/><path class="cls-6" d="M386.6,304.2c-2.3-.6-8.6,3.4-14.4,7a55,55,0,0,0,1,20.5c2.1,7.8,7.9,12.4,14.1,14.5,9.3-2.5,17-5.5,17.7-7.2C406.5,335.2,390.8,305.3,386.6,304.2Z"/><path class="cls-7" d="M373.9,307c-.2-1.8-1.2-4.8,1.5-9.4s20-16.7,26-13.3a11.8,11.8,0,0,1,6.2,9c.3.2,7.1,6.1,7.9,9.6a16,16,0,0,1,.1,6.5,21.8,21.8,0,0,1,2.8,6.8,10.9,10.9,0,0,1-.6,6.7,11.2,11.2,0,0,1,.8,7.5c-1.1,4-13.5,10.1-15.2,9.8s-12.7-1.3-13.1-4.7,1.8-9,1.8-9-5.6-.6-7.4-2.8-1.6-8.1-1.6-8.1S374.9,318.4,373.9,307Z"/><path class="cls-8" d="M393.5,331.2c.1-2.5,15.2-9.7,15.2-9.7s-7.5,1.4-11.4,2.5-10.1-2.4-10.5-4.1S402,309.5,403,308s-15.4,8.7-16.8,8.4-1-5,.6-9.1,12-9.2,13.8-10.8-11.9,4.7-12.9,5-4.2-.4-5.5-5.8a9.8,9.8,0,0,1,0-4.5c-3.2,2.4-5.8,4.8-6.8,6.4-2.7,4.6-1.7,7.6-1.5,9.4,1,11.4,9.2,8.6,9.2,8.6s-.1,5.9,1.6,8.1,7.4,2.8,7.4,2.8-2.3,5.7-1.8,9,11.5,4.3,13.1,4.7,14.1-5.8,15.2-9.8h0C410.7,333.5,393.4,333.4,393.5,331.2Z"/><path class="cls-9" d="M383.7,308.2c-.9-6.6-3.2-14.5-9.8-13.6s-12.7,6.9-12.2,12.4,3.8,11.9,9.7,12.4S384.6,314.3,383.7,308.2Z"/><path class="cls-10" d="M371.4,319.4c5.8.4,13.2-5.1,12.3-11.2s-2.1-10.6-5.6-12.7c0,8.4-1.3,20.7-8,20.9a8.6,8.6,0,0,1-6.4-2.8C365.3,316.7,367.8,319.1,371.4,319.4Z"/><path class="cls-11" d="M329.5,343.6c.5,0,34,24.6,38.8,32s-.3,53.8-4.1,55.2-22.7.4-26-2.5c-1.7-1.5-10.8-33.8-11.1-35.5-1.2-5.4-18.8-23.7-19.4-24.8S329.5,343.6,329.5,343.6Z"/><path class="cls-10" d="M350.6,423.5c-4.5-7.8-6.6-35.8,4.6-41.4-8.7,4.2-13.7,4-13.7,4s-18.7-11.8-19.5-23.6a87.9,87.9,0,0,1,.2-11.6c-6.6,6.6-15.2,15.7-14.5,17.1s18.2,19.4,19.4,24.8c.3,1.7,9.4,34,11.1,35.5,3.3,2.9,22.2,3.8,26,2.5a1.2,1.2,0,0,0,.5-.5C359.1,429.4,353,427.5,350.6,423.5Z"/><path class="cls-5" d="M368.3,377.4l.7-.3-.6-1.3c-6.7,2.8-13.5,5.5-20.3,8l-21.4,7.9a7.6,7.6,0,0,1,.4,1.1v.2c6.3-2.2,12.5-4.4,18.7-6.8S360.8,380.5,368.3,377.4Z"/><ellipse class="cls-5" cx="337.1" cy="388.6" rx="8.2" ry="9.9" transform="translate(-149.1 220.6) rotate(-30)"/><path class="cls-12" d="M329.7,293.3c-1.3-3.1-44.7-17.7-52.5-12.1s-29.2,48-29.6,59.6,13,35.2,27.7,35.7,34.7,1.3,38.3-2.4,22-20.2,21.7-35.5S333.3,301.4,329.7,293.3Z"/><path class="cls-13" d="M329.7,293.3c-1.3-3.1-44.7-17.7-52.5-12.1s-29.2,48-29.6,59.6,13,35.2,27.7,35.7,34.7,1.3,38.3-2.4,22-20.2,21.7-35.5S333.3,301.4,329.7,293.3Z"/><path class="cls-14" d="M329.7,293.3c-.7-1.7-13.7-6.7-26.7-10.1h0l-1-.3h-.1l-1-.2h-.1l-1-.3h-.1l-.9-.2h-.1l-1-.2h-.1l-1-.2h0l-1-.2h0c-2.1-.5-4.1-.8-5.9-1.1H278l-.3.2h-.1l-.4.3h0l-.3.2h-.1l-.3.2c0,.1-.1.1-.1.2l-.3.2H276a.8.8,0,0,1-.4.4c0,.1-.1.1-.1.2l-.3.3-.2.2-.2.2-.2.3-.2.2-1,1.2v.2c-.2.1-.3.3-.4.4h-.1l-.3.5h-.1c-9.4,13.2-24.6,44.6-24.9,54.3-.2,6.8,4.3,17.7,11,25.7-1.6-5.7-3.2-19.2,5.2-43.5a59.7,59.7,0,0,1,15.5-24.4c9,9.5,20.9,17.3,32.1,17.7s17.7-6.1,20.7-14.5A42.8,42.8,0,0,0,329.7,293.3Z"/><path class="cls-15" d="M284.3,365.7a53.5,53.5,0,0,1-36.7-23.8c.5,12,13.4,34.1,27.7,34.6s34.7,1.3,38.3-2.4a141.4,141.4,0,0,0,11.6-12.5C315.1,366,301.6,368.7,284.3,365.7Z"/><path class="cls-16" d="M292.8,330.7a135.7,135.7,0,0,0,28.5,2.8,129.5,129.5,0,0,0,13.9-.8,7.6,7.6,0,0,1-.1-1.5c-2.6.3-5.1.6-7.7.7a133.2,133.2,0,0,1-27.5-1.4,122.4,122.4,0,0,1-25.2-6.3,80.9,80.9,0,0,1-17.4-8.7l-.7-.5-.6,1.3a75.6,75.6,0,0,0,13.4,7.3A107.1,107.1,0,0,0,292.8,330.7Z"/><path class="cls-17" d="M328.9,292.5c-6.2-4.2-44.5-16.5-51.7-11.3C274.8,290.4,325.4,306.2,328.9,292.5Z"/><circle class="cls-18" cx="299" cy="328.7" r="24.9" transform="translate(-89.7 544.2) rotate(-76.7)"/><circle class="cls-19" cx="299" cy="328.7" r="23.3"/><circle class="cls-20" cx="299" cy="328.7" r="18.5" transform="translate(-144.9 307.7) rotate(-45)"/><path class="cls-21" d="M276,374.8c2-10-15-37.7-26.2-35a2.5,2.5,0,0,0-1.9,2.6c1,11.7,12.8,31.8,26.2,33.7A1.8,1.8,0,0,0,276,374.8Z"/><path class="cls-22" d="M334.5,344.7c-2.9,4.4-14.3,23.2-25.1,31.2a8.2,8.2,0,0,0,4.2-1.8C316.7,370.9,331,358,334.5,344.7Z"/><path class="cls-23" d="M258.6,271.9a13.2,13.2,0,0,1-5-6.4c-2.8-7.9-8.1-18.8-14.1-47.1-7.9-37.5-5.4-57.9,4.4-79.8,3.6-8.1,72.6-54.9,117.3-34.2s63.5,63.7,60.1,96.5-45.7,80.3-55.1,86.4S304.9,303.3,258.6,271.9Z"/><path class="cls-24" d="M258.6,271.9a13.2,13.2,0,0,1-5-6.4c-2.8-7.9-8.1-18.8-14.1-47.1-7.9-37.5-5.4-57.9,4.4-79.8,3.6-8.1,72.6-54.9,117.3-34.2s63.5,63.7,60.1,96.5-45.7,80.3-55.1,86.4S304.9,303.3,258.6,271.9Z"/><path class="cls-25" d="M345.8,254.4c-57.1-11.4-91.2-49.3-110.7-82.6-.9,12.7.4,27.4,4.4,46.6,6,28.3,11.3,39.2,14.1,47.1a13.2,13.2,0,0,0,5,6.4c46.3,31.4,98.4,21.3,107.6,15.4,3.9-2.6,13.6-12.4,23.9-25.4C377.1,260.2,362.5,257.7,345.8,254.4Z"/><path class="cls-26" d="M265.7,262.4c-14-13.4-14.9-90.5-5.6-106.6s54.4-29.9,59.1-27.3,11.8,9.7,15.1,11.2,36.9,9.9,39.5,7.3,14.6-6.9,17.5-6.5,29.1,30.5,27.3,49.1-26.6,76.7-49.9,88.2S291.2,286.8,265.7,262.4Z"/><path class="cls-25" d="M368.7,277.8c9.5-4.6,19.1-16.9,27.4-31.1-1.9-33.1-21.7-64.7-67.8-72.7-35.6-6.3-58.8,1.3-74,14-1.4,28.5,2.1,65.5,11.4,74.4C291.2,286.8,345.4,289.4,368.7,277.8Z"/><path class="cls-27" d="M304.4,248.2c8.2,8.6,19.4,14.9,31.6,12.6,2.3-.4,1.3-4-1-3.5-10.8,2.1-20.8-4.1-28-11.6-1.6-1.7-4.2.8-2.6,2.5Z"/><ellipse class="cls-27" cx="290.5" cy="205.8" rx="21.6" ry="27.9" transform="translate(-22.8 36.8) rotate(-7)"/><ellipse class="cls-28" cx="290.5" cy="205.8" rx="19" ry="24.6" transform="translate(-22.8 36.8) rotate(-7)"/><ellipse class="cls-27" cx="381.1" cy="221.6" rx="25" ry="17.2" transform="matrix(0.52, -0.86, 0.86, 0.52, -5.24, 433.87)"/><ellipse class="cls-28" cx="381.1" cy="221.6" rx="21.9" ry="15.1" transform="translate(-5.2 433.9) rotate(-59)"/><path class="cls-29" d="M247.9,342.4c3.6-1.8,22.5,13.4,26.2,33.7-23.4,25.7-78.3,74.3-84.6,75.5s-39.7,1.7-40.1-1.8,26.7-57.9,48.1-75.3S247.9,342.4,247.9,342.4Z"/><path class="cls-5" d="M240.8,406.3c-1.8-1.8-7,.5-11.7,5.2s-7.1,10-5.3,11.8a2,2,0,0,0,.8.4c5.5-4.8,11.2-10,16.8-15.3A2.4,2.4,0,0,0,240.8,406.3Z"/><path class="cls-5" d="M210.1,381.1a53.5,53.5,0,0,0-11.4-7.5l-1.2.9h-.1a46.4,46.4,0,0,1,9.9,6.1,61.7,61.7,0,0,1,13.8,15.4,85.5,85.5,0,0,1,9.3,20.1l.6,1.8,1.1-1a88.5,88.5,0,0,0-8.6-19.7A67.3,67.3,0,0,0,210.1,381.1Z"/><path class="cls-10" d="M274.1,376.1a45.1,45.1,0,0,0-4.2-12.2C264.4,375,230,407.8,230,407.8l-11.7-16.3s7.9,13.6,7.5,18.7-54.8,30.7-69.5,32.6a4,4,0,0,1-3.7-1.3c-2.1,4.6-3.3,7.6-3.2,8.3.4,3.5,33.8,2.9,40.1,1.8S250.7,401.8,274.1,376.1Z"/><path class="cls-30" d="M278,279.9s-56.5-134.8-69.4-133.6-65.3,43.1-61,60.7,111.8,99.3,118.8,97.6S282.2,293.1,278,279.9Z"/><path class="cls-31" d="M208.6,146.3c-12.8,1.2-65.3,43.1-61,60.7,1,3.9,7.2,11.1,16.2,19.9A116,116,0,0,0,189,215.1c21-12.9,34.3-25.1,42.8-35.8C221.7,160.1,212.9,145.9,208.6,146.3Z"/><path class="cls-32" d="M274.7,299c-6.8-2-21.6-10.2-52.9-38.8-28.2-25.8-40.2-64.3-45.4-93.9-16.1,13.6-31.2,30.9-28.8,40.7,4.3,17.5,111.8,99.3,118.8,97.6A15.4,15.4,0,0,0,274.7,299Z"/><path class="cls-33" d="M185.6,175.9c-2-10.1,16.3-58,32.6-55.4s26.5,25.9,25.2,34.9-12,29.8-28.2,34.1S188.3,189.2,185.6,175.9Z"/><path class="cls-34" d="M205.7,173.1c-.9-4.9,5.9-36.4,13.9-52.3l-1.4-.3c-16.3-2.6-34.6,45.3-32.6,55.4,2.7,13.3,13.3,17.9,29.6,13.6,6.8-1.8,12.6-6.5,17.2-12C222.4,177.6,206.4,177.2,205.7,173.1Z"/><path class="cls-35" d="M211.9,140.4c-.4-2.6-8-45.1-20-46.8s-35.1,14.6-34.1,24.9S178,164.3,190,163.3,212.9,147.1,211.9,140.4Z"/><path class="cls-36" d="M134.5,181.6c-4.6,7.3-6.6,30.2.7,35.8s26.6,6.3,27.5,0,.7-24.9-3.6-28.2S134.5,181.6,134.5,181.6Z"/><path class="cls-37" d="M159.1,189.2c-4.3-3.3-24.6-7.6-24.6-7.6A25.1,25.1,0,0,0,132,188c6.2,6.2,13,12.6,15.9,13.4,5.8,1.5,11.5.4,11.5,1.5s-2.9,13.4-6.9,19c5.3-.1,9.8-1.5,10.2-4.5C163.7,211.1,163.4,192.5,159.1,189.2Z"/><path class="cls-38" d="M142.5,147.4c-6,1-19.6,26.5-13.9,36.5s26.2,16.9,32.5,13.9,12.3-27.2,8.3-31.8S142.5,147.4,142.5,147.4Z"/><path class="cls-39" d="M169.4,166c-4-4.7-26.9-18.6-26.9-18.6-2.3.4-5.6,4.3-8.6,9.5,8.8,7,30.1,24.4,30,25.7s-4.5,13.7-8,13.7-17.3-7.1-27-11.8c6.2,9.6,26,16.3,32.2,13.3S173.4,170.6,169.4,166Z"/><path class="cls-40" d="M210.8,134.7c-4.9,4.9-17.5,17.3-20,18s-20.1-24.2-32.6-37.4a7.2,7.2,0,0,0-.4,3.2c1,10.3,20.2,45.8,32.2,44.8s22.9-16.2,21.9-22.9Z"/><path class="cls-41" d="M163.1,126.2c-1.3-1.7-6.7-8.3-12.6-2.7s-18.3,21.9-13.6,31.5,22.5,22.9,32.8,21.9S187,164.6,186,158.3,163.1,126.2,163.1,126.2Z"/><path class="cls-5" d="M254.8,227l-1.2-2.6h0c-.4,1.9-.8,3.8-1.4,5.7a40.6,40.6,0,0,1-5.5,11.5,37.4,37.4,0,0,1-9.2,9,55.4,55.4,0,0,1-24.2,8.5l-2.4.3-3.3-2.7c-6.5-4.7-13.3-7-16.5-5.7,8.7,7.2,17.8,14.4,26.6,21.2,1.7-2.3-.6-6.8-5.2-11.3a60.5,60.5,0,0,0,23.2-7.2,40.3,40.3,0,0,0,10.3-8.5,39.8,39.8,0,0,0,6.7-11.4c.8-2.2,1.5-4.5,2.1-6.8Z"/><path class="cls-42" d="M186,158.3c-1-6.3-22.9-32.1-22.9-32.1s-3.7-4.7-7.3-4.9c12.5,13.6,28.7,32.2,28,35.8-1.1,5.8-9.3,18.2-17.5,16.2-5.2-1.3-20.1-12.7-30.3-20.8a12.5,12.5,0,0,0,.9,2.5c4.6,9.6,22.5,22.9,32.8,21.9S187,164.6,186,158.3Z"/><path class="cls-43" d="M73.6,213.2q53.7,30.2,105.9,62.9c9.7,6,19.3,12.3,29.2,18,1.6,1,2.9-1.4,1.4-2.5-16.6-11.9-34.4-22.4-51.9-33.1s-35.2-21.1-52.9-31.4l-29.9-17a1.8,1.8,0,0,0-1.8,3.1Z"/><path class="cls-43" d="M170.3,299c8.5,4.2,17,8.6,25.7,12.2,1.4.5,2.2-1.6,1-2.3-8.1-4.7-16.6-8.6-25-12.8-1.9-.9-3.6,1.9-1.7,2.9Z"/><path class="cls-43" d="M182,18.2c11.2,23.8,21.5,47.9,32.1,71.9.4,1,2.1.3,1.7-.7-9.3-24.7-20.2-48.7-31.5-72.6-.7-1.5-3.1-.2-2.3,1.4Z"/><path class="cls-43" d="M215,49.7c6.1,14.8,11.5,29.8,17.2,44.7.6,1.8,3.5,1.1,2.9-.8-5.2-15.2-11.4-30.1-17.7-44.9-.5-1.3-2.9-.4-2.4,1Z"/><path class="cls-43" d="M51.4,140.8c16.8,11.1,33.3,22.7,50.6,33,1.2.8,2.2-1,1.1-1.8-16.4-11.7-33.6-22.3-50.5-33.2-1.3-.8-2.4,1.2-1.2,2Z"/><path class="cls-43" d="M92.2,104c4.5,4.2,8.8,8.6,13.5,12.6,1.2,1,2.8-.6,1.7-1.7-4.1-4.6-8.6-8.8-13-13.1-1.4-1.3-3.6.8-2.2,2.2Z"/><path class="cls-27" d="M295.8,324.2h8.1s4-2.4,4-5h3.8s1.5,3.7-6.4,7.9c0,0-5.4,4.2-5.7,6.5h-4.3a10.5,10.5,0,0,1,4.5-6.5h-7.3Z"/><path class="cls-44" d="M302.2,331.9l2.3-2.4h3.1v9.6H292.5s-9.9-.2-8.3-9,15.1-14.7,15.1-14.7,7.7-2.1,4.7,1.5c0,0-7.8,6.2-9.1,7.4s-8.5,5.8-6.5,9.8a5.3,5.3,0,0,0,4.4,1.6h11.9V332Z"/></g></g></svg>