<svg id="Layer_1" data-name="Layer 1" xmlns="http://www.w3.org/2000/svg" viewBox="0 0 256 256"><defs><style>.cls-1{fill:none;stroke:#fff;stroke-miterlimit:10;stroke-width:11px;}.cls-2{fill:#fff;}</style></defs><circle class="cls-1" cx="128" cy="126.1" r="114.7"/><path class="cls-2" d="M176.6,79l-4.5,8-1.8,3.3c-1,1.6-1.6,1.7-3.3.9s-4.3-2.2-6.6-3.2a64.2,64.2,0,0,0-12.8-4.3c-16.4-3.6-37-4-50.5,7.9-9.9,8.7-13.7,22-8.9,34.5s14,17.9,25.4,20.4l3.8.6c4.1,0,8.3.3,12.3-.1s7-.9,10-3,2.7-2.4,2.4-4.4-1.9-3.2-4.1-3.9-3.9,0-5.7-.1c-5-.3-10,1.2-15,.1a56.9,56.9,0,0,1-7-1.2c-11.2-3.5-16.4-16.4-12.2-27.2a21.5,21.5,0,0,1,11.8-11.7c22.1-8.5,49.7-2.8,65.8,14.8,14.6,16,14.6,41.6,1.3,58.5-9.2,11.6-22.7,18.3-37.1,20.8s-28.2,1.1-41.7-2.5c-7.9-2.1-15.3-6.7-22.3-11-1.8-1.1-3.7-2.1-5-4a1.5,1.5,0,0,0-.6-.5c-1.3-1-1.5-1.4-.5-2.7,2.6-3.3,5.3-6.5,8-9.8.6-.8,1.2-.7,1.9-.2a65,65,0,0,0,13.2,8.3,67.7,67.7,0,0,0,17.2,6,69.3,69.3,0,0,0,31.7-1.2c15.4-4.3,29.8-17.3,28.2-34.6-.9-10-7.7-19-16.4-23.9s-19.3-6.2-29.3-5a20.4,20.4,0,0,0-7.6,2c-1.6.8-3.1,2.3-3.2,4.1s1.4,3.8,3.3,4.5a14.7,14.7,0,0,0,5.9.5c3.5-.2,7-.4,10.5-.4,6.6,0,13.7.8,18.9,5a19.9,19.9,0,0,1,6.7,14.1,20.9,20.9,0,0,1-2.7,12.5c-4.2,6.8-12.3,10.2-20.1,11.7-20.4,3.8-43.9-1.5-56.9-18.6S65.6,104.4,78,87.9c7.4-10,17.3-16,29.1-19.7a76,76,0,0,1,11.7-2.5c16-1.9,31.3,1.2,46.1,7.3,3.4,1.4,6.7,3.2,9.9,4.8C175.4,78.1,175.9,78.6,176.6,79Z"/></svg>