<?xml version="1.0" encoding="UTF-8"?>
<svg id="Layer_1" data-name="Layer 1" xmlns="http://www.w3.org/2000/svg" viewBox="0 0 46 46">
  <defs>
    <style>
      .cls-1 {
        fill: #270069;
      }
    </style>
  </defs>
  <path class="cls-1" d="M4.86,41.7c-.37-.08-.97-.88-.96-1.3.22-3.6-.28-7.52,0-11.08.18-2.32,1.65-3.58,3.62-4.51,1.69-.8,5.76-1.46,6.09-3.51.18-1.08-.14-.9-.63-1.45-.87-.97-1.55-2.09-1.9-3.35-.15-.18-.68-.09-.97-.16-1.03-.25-1.73-1.24-1.81-2.26-.15-1.95-.19-6.9.44-8.62.84-2.31,2.86-3.82,5.11-4.62,1.83-.65,6.55-.71,8.65-.51.51.05.93.26,1.23.69.7,1-.12,1.59-.5,2.48.2,0,.4-.01.59.03,1.45.31,2.81.99,3.37,2.51.54,1.49.33,2.9.33,4.41,0,1.06.18,3.45-.07,4.34-.3,1.04-1.57,1.74-2.62,1.62-.35,1.31-.91,2.33-1.82,3.32-.53.59-.77.24-.69,1.36.15,2.21,3,2.35,4.53,3.18l-.02.37c-1.03.09-1.69.66-2.44,1.28-.24.78-.43,1.31-.36,2.17.02.24.22.63.19.79-.03.17-.38.29-.53.48-.78,1.02-.98,2.34-.38,3.51.16.31.76.9.8,1.02.08.3-.22.94-.22,1.33,0,.99.68,2.17,1.56,2.63.29.15,1.08.29,1.21.49s.19.79.35,1.12c.18.36.75.79.81,1,.11.36-.03.89.02,1.28h-7.46c.29-3.56-.95-6.94-1.6-10.38l-.15-.02c-.41.09-1.42-.19-1.62.2l-1.59,7.45.1,2.76h-4.07v-6.27c0-.52-1.07-.79-1.53-.52-.08.05-.39.47-.39.52v6.27h-4.69ZM17.54,8.27c-.61.13-1.53,1.03-2.23,1.27-1.09.37-2.53-.3-2.71,1.24-.16,1.33-.1,4.66.34,5.88,1.83,5.09,9.79,4.23,10.28-1.25.09-1.04.15-3.88,0-4.85-.18-1.12-1.66-.81-2.51-1-1.08-.25-1.98-1.54-3.17-1.29ZM24.92,11.41v3.11c0,.29.82.29.91-.67.07-.74.26-2.85-.91-2.43ZM10.91,11.41c-1.14-.22-.97,1.44-.9,2.2.06.65.11,1.15.9,1.08v-3.28ZM20.62,21.36c-1.8.56-3.51.57-5.31,0,.03.16-.11.36-.09.49.04.25,2.13,2.11,2.4,2.56.21.16.5.17.69,0l2.32-2.43v-.63ZM14.6,26.97c.11-.1.17-.29.32-.42.43-.39.93-.71,1.3-1.18-.33-.25-1.58-1.76-1.86-1.75-1.3.01-.29,2.84-.38,3.55.08.32.47-.06.62-.19ZM21.87,27.35l.43-3.09-.71-.64c-.35,0-1.49,1.5-1.86,1.76l2.14,1.98ZM18.41,26.51c-.08-.08-.12-.24-.23-.28-.45-.15-1.76,1.23-2.07,1.63.38.09.66,1.64.81,1.74.48-.05,1.86.2,2.12-.16.14-.19.61-1.46.58-1.68-.05-.3-.91-.98-1.2-1.24Z"/>
  <path class="cls-1" d="M38.11,24.11c.34.26.51,1.93.97,2.31.41.33,1.41.11,1.85.64.68.81-.26,1.8-.05,2.71.12.52.71.69.99,1.04,1.09,1.3-.92,1.86-1.11,2.86-.14.76.49,1.29.26,2.07-.28.95-1.82.64-2.39,1.34-.42.52-.08,1.44-.8,1.91-.85.56-1.8-.43-2.69-.09-.72.27-.76,1.41-1.92,1.24-.65-.1-1.31-1.35-1.81-1.41-.79-.1-1.69.64-2.31.23-.75-.49-.57-1.83-1.06-2.28s-1.56-.19-2-.77c-.58-.75.3-1.79.09-2.69-.16-.71-1.31-.89-1.32-1.83,0-.77,1.23-1.23,1.41-1.97.2-.85-.55-1.4-.19-2.22.32-.71,1.23-.62,1.82-.89,1.07-.5.62-1.46,1.19-2.21.07-.1.18-.01.25-.04.03-.01.03-.16.11-.17.74-.14,1.9.49,2.31.39.68-.16.98-1.44,1.95-1.41.79.02,1.3,1.32,2.07,1.44.82.13,1.48-.84,2.37-.17ZM30.02,35.12s.17-.06.26.02c4.43,3.73,10.3-1.45,7.41-6.27-2.98-4.94-10.97-1.29-8.76,4.47.11.28.91,1.61,1.09,1.78Z"/>
  <path class="cls-1" d="M37.24,41.02c-.14,1.32.18,2.97,0,4.24-.03.24-.09.35-.29.5l-3.39-2.38-3.51,2.36c-.06,0-.19-.14-.22-.2-.13-.29-.1-3.48-.06-4.01.02-.21.03-.41.14-.6,1.22-.42,1.13.17,1.86.64.89.57,2.12.65,3.06.15.26-.14,1.03-.87,1.1-.88.25-.03.93.33,1.3.18Z"/>
  <path class="cls-1" d="M36.19,29.19s.45.35.47.37c.05.08.12.34.12.44-.01.4-1.88,2.21-2.29,2.61-.59.58-1.23,1.54-2.1.99-.23-.15-1.93-1.88-1.99-2.08-.2-.62.12-1.18.8-1.15.6.03,1.51,1.41,1.79,1.36l2.5-2.48c.21-.15.48-.15.71-.07Z"/>
</svg>