<svg id="Layer_1" data-name="Layer 1" xmlns="http://www.w3.org/2000/svg" viewBox="0 0 256 256"><defs><style>.cls-1{fill:none;stroke:#fff;stroke-miterlimit:10;stroke-width:11px;}.cls-2{fill:#fff;}</style></defs><circle class="cls-1" cx="128" cy="128" r="114.7"/><path class="cls-2" d="M116.7,150.7c.4,1.2.7,2,.9,2.8,2,7.3,8.9,9.3,15.1,7.8s10.8-6,13.1-12.3a15.1,15.1,0,0,1,4-6c6.6-6.1,13.1-12.3,19.6-18.5l2.8-2.5c5.1,3.9,9.3,8.3,11.3,14.4,2.7,8.2-.6,19.4-9.9,24.3-6.2,3.2-12.7,3.6-19.4,2.8l-7.3-1.1a15.1,15.1,0,0,0-3-.1c-3.4.2-5.1,3.1-3.5,6.1a44.9,44.9,0,0,0,3.7,5.2c3.7,4.7,3.7,8.1-3.3,10.1a40.4,40.4,0,0,1-17.3.3c-10.2-1.7-19.8-5.1-28-11.6S83,157.6,83.6,147.1c.4-7.2,3.7-13.2,8.5-18.4,9.2-9.9,20.9-15,34-17a64.5,64.5,0,0,1,31.1,2.9l1.8.7c-3,3.2-5.7,6.2-8.6,9.1s-7.1,7.6-10.7,11.3a5.4,5.4,0,0,1-2.2,1.5c-3.6.9-6.1,3.3-8.1,6.3-.8,1.1-1.5,2.2-2.2,3.3a6.5,6.5,0,0,1-5.8,3.5Zm-15.9,9.9c2.5-.2,5.1-.7,7.1-2.6s2.3-4.9.2-7.2-11.3-3.8-14.8-.1a4.9,4.9,0,0,0,.5,7.5A11.4,11.4,0,0,0,100.8,160.6Zm0-28.2a7.8,7.8,0,0,0-5.6,2,3.8,3.8,0,0,0-.2,5.5c2.7,2.9,8.8,3,11.5.2s1.7-4.2-.2-5.8A7.7,7.7,0,0,0,100.8,132.4Zm11-2.5a5.9,5.9,0,0,0,3.2-.6c2.1-1,3.2-3.5,1.3-5.4s-6.8-2.2-9,0-1.1,3.9.9,5A7.5,7.5,0,0,0,111.8,129.9Zm13.3-7.4a5.9,5.9,0,0,0,2.9-.7,2.5,2.5,0,0,0,.7-4.1c-1.4-1.5-4.2-1.7-6-.9s-2.8,3.2-.9,4.6A5.7,5.7,0,0,0,125.1,122.5Z"/><path class="cls-2" d="M77.3,153.8a26.7,26.7,0,0,1-4,0,4.2,4.2,0,0,1-3.6-3.6,17.3,17.3,0,0,1-.3-3.2V101.8a15.3,15.3,0,0,1,.3-3,4.5,4.5,0,0,1,3.7-3.5,17.2,17.2,0,0,1,3.2-.2h73.2c5.4,0,7.4,1.6,7.3,7.3-.1,1.7,0,3.4,0,5.3l-1.9-.2a72.3,72.3,0,0,0-24-2.6c-15.2,1.1-28.9,6-40.4,16.3-6.7,6-11.4,13.2-12.9,22.2C77.4,146.7,77.5,150.1,77.3,153.8Z"/><path class="cls-2" d="M81.7,90.6c-1.1-5.1,1.6-7.5,5.8-7.5h75.3c4.3,0,6.1,1.8,6.2,6.1v13.9a4,4,0,0,1-.6,2.2c-2,2.3-4.2,4.5-6.6,7-.1-1-.2-1.6-.2-2.2v-13a10.1,10.1,0,0,0-.2-2.5,4.6,4.6,0,0,0-4.5-4.1H81.7Z"/><path class="cls-2" d="M93.6,78.7c-.7-5.2,1.1-7.5,5.9-7.5h75.4c4,0,5.9,1.9,6,5.9s0,9.9,0,14.8a2.8,2.8,0,0,1-.6,1.8c-1.8,1.8-3.8,3.6-5.7,5.3-.2.3-.5.4-1.1.8V84.5c0-4.1-1.7-5.8-5.9-5.8h-74Z"/><path class="cls-2" d="M154.4,133.4c-1.2-1.1-2.3-2.3-3.6-3.7a26.1,26.1,0,0,1,1.7-2L175.9,103a34.1,34.1,0,0,1,3.7-3.9,6.8,6.8,0,0,1,3.5-1.5,3.2,3.2,0,0,1,3.2,2.2,4,4,0,0,1-.7,4.2l-3.6,3.5L155,133Z"/><path class="cls-2" d="M122.2,153.9c4.4,0,6.8-2.6,8.8-6a38.2,38.2,0,0,1,3.5-4.7,6.1,6.1,0,0,1,2.6-1.8c2.7-1.3,4.7-.7,6.1,2a1.7,1.7,0,0,1,.1,1.4c-1.5,5.7-4.3,10.5-10.3,12.6-3.2,1.1-6.5,1-9.3-1.2l-1.7-1.7Z"/><path class="cls-2" d="M145.1,142l-3.1-3.1,7-7.4,3.2,3.4C151.6,136.4,148.7,139.4,145.1,142Z"/></svg>