<svg id="Layer_1" data-name="Layer 1" xmlns="http://www.w3.org/2000/svg" viewBox="0 0 626 417"><defs><style>.cls-1{fill:#e8f2fa;}.cls-2{fill:#f6fbff;}.cls-3{fill:#ff7b35;}.cls-4{fill:#ffb292;}.cls-43,.cls-5,.cls-6{opacity:0.5;}.cls-19,.cls-6,.cls-7{fill:#a9c2ff;}.cls-33,.cls-41,.cls-7{opacity:0.3;}.cls-8{fill:#ffae73;}.cls-9{fill:#ffc398;}.cls-10{fill:#ffa062;}.cls-11{fill:#ff912b;}.cls-12{fill:#fc7600;}.cls-13{fill:#f1f7ff;}.cls-14{fill:#9bd399;}.cls-15{fill:#c8daff;}.cls-16{fill:#0b3563;}.cls-17{fill:#1e3865;}.cls-18{fill:#26538a;}.cls-20{fill:#8aaff7;}.cls-21{fill:#f99352;}.cls-22{fill:#2a3967;}.cls-23{fill:#ff9490;}.cls-24{fill:#ffb2af;}.cls-25{fill:#28326f;}.cls-26{fill:#222956;}.cls-27{fill:#f24b46;}.cls-28{fill:#3e477e;}.cls-29{fill:#729bd6;}.cls-30{fill:#242e6c;}.cls-31{fill:#6b6b6b;}.cls-32{fill:#dfdcf7;}.cls-33,.cls-42{fill:#fd8857;}.cls-34{fill:#3f3f3f;}.cls-35{fill:#90b9f8;}.cls-36{fill:#638bba;}.cls-37{fill:#ff9c98;}.cls-38{fill:#e3e0f8;}.cls-39{fill:#d7e3fb;}.cls-40{fill:#c0d3f8;}.cls-41{fill:#f382a1;}.cls-43{fill:#9bf;}.cls-44{fill:#25468f;}</style></defs><path class="cls-1" d="M569.8,394.4H206.3c-94.1-.1-121.7-.8-121.7-.9S-1.9,348.9,66.8,256.9c34.6-46.2-4.8-96.6,24.7-140.7,41.7-62.5,110.7-25.9,158.1-45.7,8.3-3.5,16.7-9.1,25.1-17.7A98.5,98.5,0,0,1,290.2,40l2.6-1.6a102.6,102.6,0,0,1,10.3-5.6c2.4-1.1,4.8-2.2,7.3-3.1h0a121.9,121.9,0,0,1,12.1-3.9,130.2,130.2,0,0,1,18-3.5q4-.6,8.1-.9C401.5,17.5,461,39.7,491.8,72.2c6.2,6.6,34.3,40.5,12.1,87-14,29.4,44.7,57.5,65.5,91.1C622.4,335.6,570.2,393.3,569.8,394.4Z"/><path class="cls-2" d="M137.8,155.4s9.2-18.5,31.3-16.5c0,0,32.1-30.9,66.3-4.1,0,0,36.3-6.6,63.2,5.8,18,8.2,23.9,16.9,23.9,16.9Z"/><path class="cls-3" d="M396.7,123.9c-34.7-47.7-84,8.1-84,8.1s-46-58.6-83.5-13S309,257.9,309,257.9,431.5,171.6,396.7,123.9Z"/><path class="cls-4" d="M383.2,141.2a8.5,8.5,0,0,1-9.8-3.5c-2.2-3.5-5.8-7.5-11-8.7a6.5,6.5,0,0,1,2.9-12.7c11.3,2.6,17.7,11.6,20.9,17.6a5.2,5.2,0,0,1-3,7.3Z"/><path class="cls-4" d="M299.9,239.6c-6.5-6.3-24.1-25.8-24.1-25.8-2.8-2.7-6.9-9.3-4.2-12.2s10.7,4.4,13.6,7.2c0,0,12.7,15.5,19.9,20.7s11.1,10.1,8.3,13S305.6,245.1,299.9,239.6Z"/><g class="cls-5"><path class="cls-6" d="M250.8,303.8s-22-20.9-45.4-24.9a3.4,3.4,0,0,0-3.1,5.5c0,.1.1.1.1.2C206,288.6,233.8,295,250.8,303.8Z"/><path class="cls-6" d="M257.8,309.2S221.9,290.1,191,294a3.7,3.7,0,0,0-3.2,3.9c.1,1.2.9,2.6,3.1,4C196.7,305.7,233.6,304.1,257.8,309.2Z"/></g><g class="cls-5"><path class="cls-6" d="M389.4,273.3s17.5-16.7,36.2-19.8a2.7,2.7,0,0,1,2.4,4.4h0C425.1,261.2,402.9,266.3,389.4,273.3Z"/><path class="cls-6" d="M383.8,277.6s28.7-15.3,53.3-12.1a2.9,2.9,0,0,1,2.5,3c-.1,1-.7,2.2-2.5,3.3C432.5,274.8,403.1,273.5,383.8,277.6Z"/></g><path class="cls-7" d="M242.1,324.5s4.4,18.7.9,19.3-3.4-21.2-3.4-21.2-17.9-7.7-24.8-6.7c0,0,11.7,17.9,8.2,17.6s-16.7-18.3-16.7-18.3-18.1-2.6-20.5,8.2,2.5,15.9,5.2,16.5,19.8-.5,19.4,1.8-11.7,6.3-18.2,4.6c0,0,7.8,17.2,17.1,15.9s11.9-7.2,17.7-7.9,10,.6,7.2,2.3-12.6,1.1-17.1,5.3-8.2,6.9.6,8.1c23.9,3.6,29.8-14,29.8-14s16.3-10,7.9-22.3C255.4,333.7,248.9,326.2,242.1,324.5Z"/><path class="cls-6" d="M417.9,296.1c-2.1-10.9-20.4-8.8-20.4-8.8s-13.6,17.8-17.2,18,8.6-17.5,8.6-17.5c-6.8-1.1-25,6.1-25,6.1s-.4,21.9-4,21.2,1.4-19.4,1.4-19.4c-6.8,1.6-13.6,8.9-13.6,8.9-8.7,12.2,7.4,22.7,7.4,22.7a35.2,35.2,0,0,1-5.6,15.9h0a30.1,30.1,0,0,0-2.5,4.2h1.9a3.8,3.8,0,0,1,.6-1.3h0l.6-1.1h0l1.3-2.4h0c1.9-3.3,4.7-7.6,6.3-8.4a2.5,2.5,0,0,1-.3-.9l.3.9c2.7,6.9,18.2,9.1,27,7.9s5.2-3.9.8-8.2-14.3-3.9-17.1-5.7,1.6-3,7.3-2.2,8.3,6.9,17.6,8.4,17.6-15.5,17.6-15.5c-6.6,1.5-17.9-2.8-18.2-5.1s16.9-.8,19.6-1.3S420,307,417.9,296.1Z"/><path class="cls-6" d="M298.7,366.6c1,2.3,14.1,3.3,20.5-.3,0,0-3.5,20.3-13.6,21.6s-14.6-4.2-20.8-3.4-10.4,3.6-7,4.5,13.6-2.4,19.5.7c2.7,1.5,5.2,2.6,6.2,3.8H263.9l-.3-1.3s-19.9-6-14.6-21.4c0,0,4.8-9.7,11.4-13.4,0,0,.7,21,4.6,20.6s-2.4-23.3-2.4-23.3,16.7-13.1,24.2-14c0,0-7.3,22.2-3.6,20.9s12.3-24.1,12.3-24.1,18.4-7.7,23.9,2.9,1.9,17.5-.8,18.8S297.7,364.3,298.7,366.6Z"/><path class="cls-2" d="M277.9,91.6a25,25,0,0,1,24.2-12s24.8-22.4,51.2-3c0,0,28.1-4.8,48.9,4.2,13.8,6,18.4,12.3,18.4,12.3Z"/><path class="cls-2" d="M388.5,69.6a12.6,12.6,0,0,1,12.3-6.5s12.6-12.2,26.1-1.7c0,0,14.3-2.6,24.9,2.3,7.1,3.3,9.4,6.7,9.4,6.7Z"/><path class="cls-2" d="M124,107.4a12.6,12.6,0,0,1,12.3-6.5s12.7-12.1,26.1-1.6c0,0,14.4-2.6,25,2.3,7,3.2,9.4,6.7,9.4,6.7Z"/><path class="cls-8" d="M196.1,229.7a64.1,64.1,0,0,0,11.2,24.9c5.8,8,16.7,19.8,27.5,35.2l14.7,21.3a24.3,24.3,0,0,1,3.5,8.5l-18.5,55.8,44.1,3.8s16.6-58.1,16.7-82.4h0c0-2.8,0-5.8.1-9,.3-14.9,4.6-26.7-38.5-27.1l-.5-.2a26.9,26.9,0,0,1-8.1-4.9,26.1,26.1,0,0,1-2-1.7,89.4,89.4,0,0,0-11.9-8.9C214.8,232.8,195.1,225.4,196.1,229.7Z"/><path class="cls-8" d="M193.1,201.4c.6-7,5.8-29,5.8-29s5.1,1.1,7,4.4c5.5,9.6,3.7,28.4,3.4,28.5s8.9,17.2,10.4,28.2h0s23.6,12.8,28.6,22a7.7,7.7,0,0,1,.7,1.7,26,26,0,0,1,1,8c-.2,11.2-4.6,26.3-11.2,25.1-1.6-.3-39.6-42.8-41.2-50.3C197.2,238.2,192.7,205.1,193.1,201.4Z"/><path class="cls-8" d="M254.5,249.1s1.1,10.8-10.1,1.3l-.9,12.5,15.6,8.3,5.3-9.1Z"/><path class="cls-9" d="M200,183.2a2.8,2.8,0,0,0,.4-1.3s.6-4.3,1.1-7.4a4.2,4.2,0,0,0-1.9-4.1c-.5-.1-3.6,7.9-3.7,15.4A4.7,4.7,0,0,0,200,183.2Z"/><path class="cls-10" d="M219.7,233.5c5.1,1.7,36.2,22.8,37.9,23.5,3.9,4.9,4.5,12.1,2.6,13s-8.2-1.1-12.1-4.6-6.5-10.9-8.1-14.3c-.7-1.6-5.2-3.8-6.9-6.1C228.6,239.1,220.3,234,219.7,233.5Z"/><path class="cls-8" d="M279.2,253.7s-40.5-32.6-44.9-40.9c0,0-7.2,2.6-4.3,13.4s22.7,30.2,23.9,37.9c4.5,28.8,20.8,37.6,20.8,37.6S319.1,285.9,279.2,253.7Z"/><path class="cls-9" d="M236.9,224.9a5.2,5.2,0,0,1-1-1.1l-4.2-6.3a4.2,4.2,0,0,1,.9-5.5l.7-.5c1.9,1.7,7,4.9,10.4,11.7C241.8,224.5,238.2,225.9,236.9,224.9Z"/><path class="cls-11" d="M294,333.5s-.2,5.4-.5,13.9a1.5,1.5,0,0,1-.1.7c-.4,11.7-1.1,28.9-1.9,46.2H216.4c7.1-14.2,19.2-37.3,26.6-51.2l6.2-11.8h0a7.3,7.3,0,0,1,1.4-1.6,9.6,9.6,0,0,1,2.2-1.8c6.8-3.9,18.1-2,27.1.6a108.6,108.6,0,0,1,10.4,3.6l3.5,1.4Z"/><path class="cls-12" d="M293.5,348.1s-17.9,4.8-28.2,5l-3.8-7.1-3.4,6s-13-4-15.7-7.8l9.1-16.4,42.4.9Z"/><path class="cls-13" d="M292.7,319.6a99.2,99.2,0,0,1,6.7,28s-21.5,2.3-31.8,1.1l-4.5-17.8-6.5,15.4s-11.9-1.5-16-4.7c0,0,7.7-13.1,12.5-21.8C253.1,319.8,273.1,325.8,292.7,319.6Z"/><path class="cls-11" d="M279.7,344.1a2,2,0,0,0-.9-2.7,2.2,2.2,0,0,0-2.9.9,2,2,0,0,0,1,2.7A2.1,2.1,0,0,0,279.7,344.1Z"/><path class="cls-8" d="M421.8,229.7a61.9,61.9,0,0,1-11.1,24.9c-5.8,8-16.8,19.8-27.5,35.2l-14.7,21.3a22.8,22.8,0,0,0-3.6,8.5l18.6,55.8-44.2,3.8s-16.6-58.1-16.6-82.4h0c0-2.8,0-5.8-.1-9-.3-14.9-4.7-26.7,38.5-27.1l.5-.2a25.6,25.6,0,0,0,8-4.9,15.1,15.1,0,0,0,2-1.7,89.8,89.8,0,0,1,12-8.9C403.2,232.8,422.8,225.4,421.8,229.7Z"/><path class="cls-8" d="M424.9,201.4c-.6-7-5.9-29-5.9-29s-5.1,1.1-6.9,4.4c-5.5,9.6-3.7,28.4-3.4,28.5s-8.9,17.2-10.4,28.2h0s-23.7,12.8-28.7,22c-.3.6-.5,1.2-.7,1.7a23.5,23.5,0,0,0-.9,8c.2,11.2,4.6,26.3,11.1,25.1,1.7-.3,39.7-42.8,41.3-50.3C420.7,238.2,425.3,205.1,424.9,201.4Z"/><path class="cls-8" d="M363.5,249.1s-1.1,10.8,10.1,1.3l.9,12.5-15.6,8.3-5.3-9.1Z"/><path class="cls-9" d="M417.9,183.2a5,5,0,0,1-.4-1.3s-.6-4.3-1-7.4a4.2,4.2,0,0,1,1.9-4.1c.5-.1,3.5,7.9,3.7,15.4A4.9,4.9,0,0,1,417.9,183.2Z"/><path class="cls-10" d="M398.3,233.5c-5.2,1.7-36.2,22.8-37.9,23.5-3.9,4.9-4.6,12.1-2.7,13s8.3-1.1,12.1-4.6,6.6-10.9,8.1-14.3c.7-1.6,5.2-3.8,7-6.1C389.4,239.1,397.7,234,398.3,233.5Z"/><path class="cls-8" d="M338.8,253.7s40.4-32.6,44.9-40.9c0,0,7.1,2.6,4.3,13.4s-22.8,30.2-23.9,37.9c-4.5,28.8-20.8,37.6-20.8,37.6S298.9,285.9,338.8,253.7Z"/><path class="cls-9" d="M381.1,224.9a5.2,5.2,0,0,0,1-1.1l4.1-6.3a4.1,4.1,0,0,0-.9-5.5l-.6-.5c-2,1.7-7.3,5.2-10.7,12C375.6,224.2,379.8,225.9,381.1,224.9Z"/><path class="cls-11" d="M401.6,394.4H326.4c-.8-17.3-1.4-34.5-1.9-46.2v-.7c-.3-8.5-.5-13.9-.5-13.9h.2l3.4-1.4c2.6-1,6.3-2.4,10.4-3.6,9.1-2.6,20.4-4.5,27.2-.6a12.4,12.4,0,0,1,2.2,1.8,7.3,7.3,0,0,1,1.4,1.6h0L375,343C382.4,356.9,394.5,380.1,401.6,394.4Z"/><path class="cls-12" d="M324.5,348.1s17.9,4.8,28.2,5l3.8-7.1,3.3,6s13.1-4,15.7-7.8l-9.1-16.4-42.3.9Z"/><path class="cls-13" d="M325.2,319.6a97.2,97.2,0,0,0-6.6,28s21.5,2.3,31.7,1.1l4.5-17.8,6.6,15.4s11.8-1.5,15.9-4.7c0,0-7.6-13.1-12.5-21.8C364.8,319.8,344.9,325.8,325.2,319.6Z"/><path class="cls-11" d="M338.3,344.1a1.9,1.9,0,0,1,.9-2.7,2.1,2.1,0,0,1,2.8.9,1.9,1.9,0,0,1-.9,2.7A2.1,2.1,0,0,1,338.3,344.1Z"/><path class="cls-14" d="M388.7,373.7c1.4.6,6.6.1,6.8-.3s-3.2-4.4-4.7-4.9a2.7,2.7,0,0,0-3.6,1.5A2.8,2.8,0,0,0,388.7,373.7Z"/><path class="cls-14" d="M401.7,376.1c-.8,1.4-1.2,6.5-.8,6.7s4.8-2.4,5.6-3.7a2.8,2.8,0,0,0-4.8-3Z"/><path class="cls-14" d="M394.8,386.2c1.4.5,6.5-.4,6.7-.8s-3.6-4.1-5-4.5a2.8,2.8,0,0,0-3.6,1.8A2.9,2.9,0,0,0,394.8,386.2Z"/><path class="cls-14" d="M402.2,391.2c0-.1-.5-11.8-6.9-17.8h.1c6.5,6,7,17.8,7,17.9Z"/><path class="cls-14" d="M423.6,373.9a11.2,11.2,0,0,1-4.7.8,10.7,10.7,0,0,1,2.5-4,1.9,1.9,0,1,1,2.2,3.2Z"/><path class="cls-14" d="M415.1,377.4a10.9,10.9,0,0,1,1.5,4.4c-.3.2-3.6-1-4.4-1.8a1.9,1.9,0,0,1,.1-2.7A2,2,0,0,1,415.1,377.4Z"/><path class="cls-14" d="M421.2,383.3a11.6,11.6,0,0,1-4.7.4,10.8,10.8,0,0,1,2.8-3.8,1.9,1.9,0,0,1,1.9,3.4Z"/><path class="cls-14" d="M416.8,387.7c0-.1-1.2-8.1,2.3-13h-.2c-3.5,5-2.3,13-2.2,13.1Z"/><path class="cls-14" d="M410.5,390.5h-.4a128.2,128.2,0,0,0-8-35.8l.3-.2A123.6,123.6,0,0,1,410.5,390.5Z"/><path class="cls-15" d="M397.8,352.6c.7.9,4.4,2.3,4.7,2.1a13.2,13.2,0,0,0-1.5-4.9,2.1,2.1,0,1,0-3.2,2.8Z"/><path class="cls-15" d="M403.4,349.5c-.7,1-1.4,4.8-1.1,5s3.8-1.5,4.5-2.4a2.1,2.1,0,0,0-.5-3A2.1,2.1,0,0,0,403.4,349.5Z"/><path class="cls-15" d="M407.6,353.6c-1.2-.3-5,.6-5.1.9s2.8,3,3.9,3.3a2.2,2.2,0,1,0,1.2-4.2Z"/><path class="cls-15" d="M405,358.8a11.6,11.6,0,0,0-2.6-4.5,12.1,12.1,0,0,0-1.7,4.9,2.2,2.2,0,0,0,2.4,1.9A2.2,2.2,0,0,0,405,358.8Z"/><path class="cls-15" d="M399.2,358.5c1-.5,3.3-3.7,3.1-4s-4.1-.3-5.1.2a2.1,2.1,0,0,0-.9,2.9A2,2,0,0,0,399.2,358.5Z"/><path class="cls-16" d="M401.6,354.4c.1-.4.4-.7.8-.6a.6.6,0,0,1,.6.8.8.8,0,0,1-.8.6C401.8,355.1,401.5,354.7,401.6,354.4Z"/><path class="cls-14" d="M410.4,369.4c-1.2,1.4-2.5,7.4-2,7.7s6-2.1,7.1-3.5a3.2,3.2,0,0,0-.5-4.7A3.1,3.1,0,0,0,410.4,369.4Z"/><path class="cls-14" d="M387.4,392.6h-.3a79.4,79.4,0,0,0-8.4-23h.2A82.7,82.7,0,0,1,387.4,392.6Z"/><path class="cls-15" d="M375.7,368.6a8.2,8.2,0,0,0,3.2,1c.2-.2-.8-2.6-1.4-3.2a1.4,1.4,0,1,0-1.8,2.2Z"/><path class="cls-15" d="M379.1,366.1a7.1,7.1,0,0,0-.3,3.4,8.7,8.7,0,0,0,2.8-2,1.5,1.5,0,0,0-.6-2A1.4,1.4,0,0,0,379.1,366.1Z"/><path class="cls-15" d="M382.2,368.4a7.5,7.5,0,0,0-3.2,1,6.9,6.9,0,0,0,2.9,1.9,1.5,1.5,0,0,0,.3-2.9Z"/><path class="cls-15" d="M381,372.1a8.4,8.4,0,0,0-2.1-2.8,7.5,7.5,0,0,0-.7,3.4,1.5,1.5,0,0,0,1.7,1.1A1.4,1.4,0,0,0,381,372.1Z"/><path class="cls-15" d="M377.1,372.4c.6-.5,1.9-2.8,1.7-3a6.5,6.5,0,0,0-3.3.7,1.4,1.4,0,1,0,1.6,2.3Z"/><path class="cls-16" d="M378.4,369.4a.4.4,0,0,1,.4-.4.5.5,0,0,1,.5.4.5.5,0,0,1-.5.5C378.5,369.9,378.3,369.7,378.4,369.4Z"/><path class="cls-14" d="M385.5,378.6c-.7,1.1-1,5.1-.7,5.3s3.8-1.9,4.5-3a2.2,2.2,0,0,0-.8-3A2.1,2.1,0,0,0,385.5,378.6Z"/><path class="cls-14" d="M431.3,390.8h.4a114.6,114.6,0,0,1,7.1-31.9h-.3A112.6,112.6,0,0,0,431.3,390.8Z"/><path class="cls-15" d="M442.7,357.1c-.7.8-4,2-4.2,1.8a9.7,9.7,0,0,1,1.3-4.3,1.9,1.9,0,0,1,2.9,2.5Z"/><path class="cls-15" d="M437.7,354.3c.6.9,1.2,4.3.9,4.5s-3.3-1.3-4-2.2a1.9,1.9,0,0,1,3.1-2.3Z"/><path class="cls-15" d="M433.9,358a10.6,10.6,0,0,1,4.5.7c.1.3-2.5,2.7-3.5,3a2,2,0,0,1-2.3-1.4A1.9,1.9,0,0,1,433.9,358Z"/><path class="cls-15" d="M436.2,362.6a9.8,9.8,0,0,1,2.3-4c.3,0,1.6,3.3,1.5,4.3a1.9,1.9,0,0,1-2.1,1.7A1.9,1.9,0,0,1,436.2,362.6Z"/><path class="cls-15" d="M441.4,362.3a9.5,9.5,0,0,1-2.8-3.6,10.8,10.8,0,0,1,4.6.3,1.9,1.9,0,0,1,.8,2.5A1.9,1.9,0,0,1,441.4,362.3Z"/><path class="cls-16" d="M439.2,358.6c0-.3-.3-.5-.7-.5a.8.8,0,0,0-.5.7c.1.4.4.6.7.5A.5.5,0,0,0,439.2,358.6Z"/><path class="cls-14" d="M430.5,376.9c1,1.3,2.1,6.6,1.8,6.9s-5.4-1.9-6.4-3.1a3,3,0,1,1,4.6-3.8Z"/><path class="cls-14" d="M372.8,394.1s2.1-5.4,9.5-5.7,12.6,4,18.7,2,16.3-6.6,25.9-3.6,11.2,7.3,11.2,7.3Z"/><path class="cls-14" d="M98.5,394h12.8c.7-.6-.4-1.9-1.7-2l-1.9.3c-.2-2.4-1.2-12.9-5-12.5s0,4.6,1.2,7.1,1.8,4.5,2.3,5.7l-1.1.2c-.6-1.7-2.7-7.6-5.3-7.2s-1.9,2.7.3,4.1,3.6,2.5,4.6,3.2l-2.5.2A5.5,5.5,0,0,0,98.5,394Z"/><path class="cls-14" d="M231.6,393.7h12.8c.7-.6-.5-1.9-1.7-2a5,5,0,0,0-2,.2c-.1-2.3-1.1-12.9-4.9-12.5s0,4.7,1.2,7.1a57.5,57.5,0,0,1,2.2,5.7l-1,.2c-.6-1.7-2.7-7.5-5.4-7.2s-1.9,2.7.4,4.1l4.6,3.2a10.6,10.6,0,0,1-2.5.2C233.1,392.7,232,393.3,231.6,393.7Z"/><path class="cls-14" d="M242.8,392.3h.3a97.7,97.7,0,0,1,6.4-28.6h-.3A103,103,0,0,0,242.8,392.3Z"/><path class="cls-15" d="M252.9,362c-.6.7-3.5,1.9-3.7,1.7a9,9,0,0,1,1.2-3.9,1.7,1.7,0,0,1,2.4-.2A1.6,1.6,0,0,1,252.9,362Z"/><path class="cls-15" d="M248.5,359.6c.5.7,1.1,3.8.8,4a11.1,11.1,0,0,1-3.6-2,1.7,1.7,0,0,1,.4-2.4A1.7,1.7,0,0,1,248.5,359.6Z"/><path class="cls-15" d="M245.1,362.8c.9-.2,4,.4,4.1.7a8.8,8.8,0,0,1-3.2,2.6,1.7,1.7,0,0,1-2.1-1.2A1.8,1.8,0,0,1,245.1,362.8Z"/><path class="cls-15" d="M247.2,366.9a10.1,10.1,0,0,1,2-3.5c.3,0,1.5,2.9,1.4,3.9a1.7,1.7,0,0,1-3.4-.4Z"/><path class="cls-15" d="M251.8,366.7a9.3,9.3,0,0,1-2.5-3.2,9.8,9.8,0,0,1,4.1.2,1.6,1.6,0,0,1,.7,2.3A1.6,1.6,0,0,1,251.8,366.7Z"/><path class="cls-17" d="M249.9,363.4a.8.8,0,0,0-.7-.5.6.6,0,0,0-.4.7.4.4,0,0,0,.6.4A.6.6,0,0,0,249.9,363.4Z"/><path class="cls-14" d="M244.1,371.2c.8,1,1.7,5.2,1.4,5.4s-4.2-1.5-5-2.5a2.2,2.2,0,0,1,.3-3.2A2.3,2.3,0,0,1,244.1,371.2Z"/><path class="cls-14" d="M248.3,379.4c-1.5.7-4.6,4.9-4.4,5.3s5.5.6,6.9-.1a2.9,2.9,0,0,0,1.4-3.9A3,3,0,0,0,248.3,379.4Z"/><path class="cls-14" d="M561.3,393.6H548.5c-.7-.6.5-1.9,1.7-2a6.8,6.8,0,0,1,1.9.2c.2-2.3,1.2-12.9,5-12.4s0,4.6-1.2,7.1-1.8,4.4-2.3,5.6l1.1.3c.6-1.8,2.7-7.6,5.4-7.3s1.8,2.8-.4,4.2l-4.6,3.1a7.1,7.1,0,0,0,2.5.2C559.8,392.6,560.9,393.2,561.3,393.6Z"/><path class="cls-14" d="M153.1,392.7h-.3a84.7,84.7,0,0,0-5.6-24.9h.3A90.1,90.1,0,0,1,153.1,392.7Z"/><path class="cls-15" d="M144.2,366.3c.6.6,3.1,1.6,3.3,1.4a7.8,7.8,0,0,0-1-3.4,1.5,1.5,0,0,0-2.3,2Z"/><path class="cls-15" d="M148.1,364.1a7.4,7.4,0,0,0-.7,3.5c.2.2,2.6-1,3.1-1.7a1.5,1.5,0,0,0-.3-2.1A1.7,1.7,0,0,0,148.1,364.1Z"/><path class="cls-15" d="M151.1,367a8.7,8.7,0,0,0-3.6.6,8.6,8.6,0,0,0,2.8,2.3,1.5,1.5,0,0,0,1.8-1.1A1.4,1.4,0,0,0,151.1,367Z"/><path class="cls-15" d="M149.3,370.6a8.7,8.7,0,0,0-1.8-3.1c-.3,0-1.3,2.5-1.2,3.4a1.5,1.5,0,0,0,1.6,1.3A1.6,1.6,0,0,0,149.3,370.6Z"/><path class="cls-15" d="M145.2,370.4a8.3,8.3,0,0,0,2.2-2.8,7.7,7.7,0,0,0-3.6.2,1.5,1.5,0,0,0,1.4,2.6Z"/><path class="cls-17" d="M146.9,367.5a.5.5,0,0,1,.6-.4c.2,0,.4.3.4.6a.5.5,0,1,1-1-.2Z"/><path class="cls-14" d="M151.8,371.7c-.8,1-1.7,5.2-1.4,5.4s4.1-1.4,5-2.4a2.4,2.4,0,0,0-.4-3.3A2.2,2.2,0,0,0,151.8,371.7Z"/><path class="cls-14" d="M149.8,383.7c.8.4,2.7,2.9,2.5,3.1s-3.2.3-4-.1a1.7,1.7,0,1,1,1.5-3Z"/><path class="cls-14" d="M161.2,392.7h.3a100,100,0,0,1,6.4-28.6h-.3A96.5,96.5,0,0,0,161.2,392.7Z"/><path class="cls-15" d="M171.3,362.4c-.6.7-3.5,1.8-3.7,1.6a8.1,8.1,0,0,1,1.2-3.9,1.7,1.7,0,1,1,2.5,2.3Z"/><path class="cls-15" d="M166.8,359.9a8.8,8.8,0,0,1,.9,4c-.2.2-3-1.2-3.6-1.9a1.7,1.7,0,0,1,.4-2.4A1.6,1.6,0,0,1,166.8,359.9Z"/><path class="cls-15" d="M163.5,363.2c.9-.2,4,.4,4,.7a9.5,9.5,0,0,1-3.1,2.6,1.7,1.7,0,0,1-2.1-1.2A1.7,1.7,0,0,1,163.5,363.2Z"/><path class="cls-15" d="M165.6,367.3c.1-.9,1.7-3.6,2-3.5s1.4,2.9,1.4,3.8a1.7,1.7,0,1,1-3.4-.3Z"/><path class="cls-15" d="M170.2,367.1a9.3,9.3,0,0,1-2.5-3.2c.1-.3,3.3-.3,4.1.2a1.7,1.7,0,0,1,.7,2.3A1.8,1.8,0,0,1,170.2,367.1Z"/><path class="cls-17" d="M168.3,363.8a.8.8,0,0,0-.7-.5.6.6,0,0,0-.5.6c.1.4.4.6.7.5A.6.6,0,0,0,168.3,363.8Z"/><path class="cls-14" d="M161.3,375.8c.9,1.1,1.9,5.9,1.6,6.1s-4.8-1.6-5.8-2.8a2.7,2.7,0,0,1,.4-3.7A2.7,2.7,0,0,1,161.3,375.8Z"/><path class="cls-14" d="M165,382.4a9.4,9.4,0,0,0-3,3.6,11,11,0,0,0,4.7-.2,2,2,0,0,0,.9-2.5A1.9,1.9,0,0,0,165,382.4Z"/><path class="cls-14" d="M146.3,394s4-5.2,9.6-3.3,13.1.2,13.1,2.8Z"/><path class="cls-8" d="M452.7,232.7s-.8-3.8-2.6-5-4.7-.8-7.3-2.2-4.2-2.4-4-1.1,3,4.4,5,5.3,4.2,1.2,4.8,2.5a8.3,8.3,0,0,1,.7,2.5Z"/><path class="cls-8" d="M448.4,228.8s-4.3-3.3-4.7-4,1.9.1,3.2.8,3.2,2.1,3.2,2.1Z"/><path class="cls-12" d="M486,235.8c-.8.2-20,14-22.3,11.4-.7-.7-10.6-15.6-10.6-15.6s-4.3,1-5.1,4.5c0,0,5.9,21.7,13.8,24.7,5.3,2,25.8-7.5,25.8-7.5Z"/><path class="cls-18" d="M532.3,379.2s3.2,2.9,2.6,4.9-3.5,3.5-3.9,6-1.9,3.9-3.3,3.9H521s-1-1.8,1.5-2.3,3.4-3.5,3.2-6.3a54.5,54.5,0,0,1,.3-6.4l5.2-1.2Z"/><path class="cls-18" d="M493.3,386.7s.5,6.6-.9,7.3H474.6s0-2.1,2.8-2.6,8-2.1,8.8-5.9S493.3,386.7,493.3,386.7Z"/><path class="cls-19" d="M478.2,293.3s.9,11.6,2,25.5c1.5,19,3.3,42.2,3.5,46.6.3,7.6,1.6,19.9,1.6,19.9s2.9,2.9,8.8,1.6a194.1,194.1,0,0,0,6.8-35.9v-.9c1.4-18.8,3.5-58.4,3.5-58.4Z"/><path class="cls-20" d="M478.2,293.3s.9,11.6,2,25.5L500.9,351v-.9c1.4-18.8,3.5-58.4,3.5-58.4Z"/><path class="cls-19" d="M482.5,294.7s17,42,28.2,61.7,14.6,25.2,14.6,25.2,6.4-2.5,7-4.2c0,0-4.3-38.1-11.7-47.4-4.3-5.2-9.2-21-9.5-26.5s-1.5-16.4-1.5-16.4Z"/><path class="cls-8" d="M504.3,233.9s-11.9,4.5-18.3,1.9a13.8,13.8,0,0,1,2.8-2.2,3.5,3.5,0,0,0,1.8-3.3v-1.2a24.8,24.8,0,0,1,.1-3.8l4.6-2.8,4.5-3C498.6,228.9,504.3,233.9,504.3,233.9Z"/><path class="cls-11" d="M511.4,291.6c.1.7-1.4,1.6-2.1,1.9a45,45,0,0,1-14.6,4.5c-6.1.8-13.4-.4-15.9-.3a.9.9,0,0,1-.7-.3c-.2-.1-.5-7.5-.6-16.8v-1.3c0-3.6,0-7.4.1-11.2s.1-6,.3-8.7.4-6.6.8-9.2a22.4,22.4,0,0,1,.5-3.1,22.9,22.9,0,0,1,4.7-9.5,17.3,17.3,0,0,1,3.5-3.1l1.5-.9a9.8,9.8,0,0,0,6.6-1.1c2.6-1.3,5.5-2.8,5.9-2.4,3.6,2.4,6,8,7.5,15.3a76.9,76.9,0,0,1,1.3,13.3v.5a35.3,35.3,0,0,1,0,4.6v.9c-.1,3.7-.1,7.2,0,10.4,0,.5.1.9.1,1.4.2,4.8.6,8.9.8,11.7A27.5,27.5,0,0,1,511.4,291.6Z"/><path class="cls-21" d="M499.6,223.1s-3.4,5-9,6a46.4,46.4,0,0,1,.4-7.3l4.3.7Z"/><path class="cls-8" d="M487.6,222.8s9.8,5.3,13-.8,6.6-9.4.5-13-8.6-2-10.1-.2S485.2,221.3,487.6,222.8Z"/><path class="cls-22" d="M508.7,210.8q.2-.2.9,0a1.5,1.5,0,0,0-.8-.5,2.7,2.7,0,0,0-.9-2.8,1.6,1.6,0,0,1,.3,1.3c-.8-1.8-3.3-3.8-11.5-5.9-10.8-2.8-9.6,5.1-8.6,6.3s5.3.3,7.7,1.4,1.7,4.9,2.4,5.7.7-.2,2-.4.8,1.9,0,3,.3,3.3.3,3.3l2.2-1.1c2.2-1.2,6.3-8,6.1-9.9A.6.6,0,0,1,508.7,210.8Z"/><path class="cls-8" d="M520.7,290.7c-.1.2-2.9,4.3-2.5,7.6s5.1,7.6,4.9,4.7c-.4-6.5.9-5.8,1.8-10.7Z"/><path class="cls-8" d="M519.8,292.2s-4.1,2.8-3.5,3.2,3.1-1.1,3.1-1.1Z"/><path class="cls-12" d="M510.2,264.7c-.1,3.7-.1,7.2,0,10.4h0c-6.6-5.4-12.1-21.8-12.2-22.1l12.2,5.7v.5a35.3,35.3,0,0,1,0,4.6Z"/><path class="cls-11" d="M493.5,239.1c.8-6.1,7.9-9,10.4-6.7.1.1,15.2,15.2,20.3,29.7,3.6,10.2,1.4,30.3,1.4,30.3s-4.5.7-6.1-1.3c0,0-2.3-16.5-4.8-21s-22.9-20.4-21.9-25.9C493,242.7,493.3,240.9,493.5,239.1Z"/><path class="cls-3" d="M480.9,180.8c-11.6-12.5-23.8,5.2-23.8,5.2s-15.2-15.2-24.4-.9,27.6,37.1,27.6,37.1S492.5,193.3,480.9,180.8Z"/><path class="cls-4" d="M477.6,186.3a2.5,2.5,0,0,1-2.9-.7,5.3,5.3,0,0,0-3.5-2.1,2,2,0,0,1-1.7-2.1,2,2,0,0,1,2.1-1.7,9.7,9.7,0,0,1,6.6,4.3,1.6,1.6,0,0,1-.6,2.3Z"/><path class="cls-4" d="M457.1,217.3c-2.1-1.6-7.8-6.6-7.8-6.6s-2.3-2.4-1.6-3.3,3.2.9,4.1,1.6,4.2,4,6.4,5.2,3.5,2.6,2.8,3.5S458.9,218.7,457.1,217.3Z"/><rect class="cls-17" x="47.5" y="393.5" width="542.2" height="1.72" rx="0.7"/><path class="cls-23" d="M223.1,302.5c-.7,1.8-5.6,1.3-9.5-1.3s-9.2-4.9-12.2-7.1-4.8-7.5-6.6-11.2a18.3,18.3,0,0,0-1.3-2.2c-2.2-.7-2-3-4.1-3.8s-1.7-2.2-1.7-2.2a9.1,9.1,0,0,1,3.9-.5c.8.1,2.3,2.3,3.2,3.7l3,2.5a90.5,90.5,0,0,1,7.7,7.8c1.6,1.9,11.7,4.1,14.5,6.3C224.9,298.6,223.1,302.5,223.1,302.5Z"/><path class="cls-23" d="M205.5,330.5l10.7,59.2,3.7.2s2.9-25.7.4-34.6,4.3-20.2,2.4-27.9S205.5,330.5,205.5,330.5Z"/><path class="cls-24" d="M217.8,297.8l-9.3-1.5a19.3,19.3,0,0,1-.6-5.5c0-2.3.2-4.2.2-4.2l7.5-.7,3.3-.3C217.1,289.1,217.8,297.8,217.8,297.8Z"/><path class="cls-23" d="M218.1,287.4s-5,4.3-10.2,3.4c0-2.3.2-4.2.2-4.2l7.5-.7Z"/><path class="cls-24" d="M212.6,345.1c-1.9,5.2-3.6,10.6-2.7,14.9.2,1.3.4,2.7.5,4v3.8c-.4,10.4-4.4,20.9-5,22.5v.2l-3.3-.4L200.7,328s14.9-6.1,15.7,1.9C216.9,333.9,214.6,339.5,212.6,345.1Z"/><path class="cls-25" d="M221.5,348.6l-2.3.3a44.2,44.2,0,0,1-9.6.2c-1.3-.2-2-2.3-2.3-5.1-.8-6.2.3-15.9,1.3-16.3s14.4-.1,14.4-.1S225.8,334.5,221.5,348.6Z"/><path class="cls-26" d="M219.4,348.9a44.2,44.2,0,0,1-9.6.2c-1.3-.2-2-2.3-2.3-5.1l7.1-11.5,5.3-2.1A41.9,41.9,0,0,1,219.4,348.9Z"/><path class="cls-25" d="M200.6,327.8s-2.7,12.3-2.3,22a38.7,38.7,0,0,0,12.7,0s10.7-15.6,9.8-20.6S203.3,326.2,200.6,327.8Z"/><path class="cls-24" d="M205.7,285.1s8.7,6.9,12.9,1.4,8.1-8.2,2.8-12.9-8.1-3.3-9.9-1.8S203.6,283.2,205.7,285.1Z"/><path class="cls-26" d="M227.5,275.7a1.4,1.4,0,0,0-1,0h0a5.5,5.5,0,0,0,.2-3.3,3.8,3.8,0,0,1-.8,2.4c-.1-4.1-10.2-6.6-11.1-6.9s-.8-1.8-.8-1.8c-2,.4-4,2.9-4,5.3s2.1,7,3.4,7,.7,1.1-.2,2.5.3,5.3,1.8,6.7,2,.2,2.7-.2l.6-.2c2.9-.7,6-3.6,7.5-7.3a10.5,10.5,0,0,0,.7-3.7Z"/><path class="cls-27" d="M220.4,394h-2.1l-1.9-.3a2.3,2.3,0,0,0-1.7.3H206c-.3-.3,0-1,.2-1.4a1,1,0,0,1,.8-.7,10.3,10.3,0,0,0,4.4-1.8c1-.8,4.6-2.8,4.6-2.8h0c.1,0,.4.1,2.1,1.4s2.3-.9,2.3-.9l.5.5a3.7,3.7,0,0,1,.2,1.2,5.4,5.4,0,0,0,.6,2.9l.4.9S222.2,393.8,220.4,394Z"/><path class="cls-28" d="M220.9,388.4a8,8,0,0,1-2.3,1c-.9.1-2.6-2-2.6-2h0c.1,0,.4.1,2.1,1.4s2.3-.9,2.3-.9Z"/><path class="cls-28" d="M220.4,394h-2.1l-1.9-.3a2.3,2.3,0,0,0-1.7.3H206c-.3-.3,0-1,.2-1.4s.3.9.4,1,7.2.1,7.6-.2a4.9,4.9,0,0,1,3.3-.3,9.4,9.4,0,0,0,4.2-.7l.4.9S222.2,393.8,220.4,394Z"/><path class="cls-27" d="M206.3,394h-2.1l-1.9-.3a2.3,2.3,0,0,0-1.7.3h-8.7c-.3-.3,0-1,.2-1.4a1,1,0,0,1,.8-.7,10.3,10.3,0,0,0,4.4-1.8c1-.8,4.6-2.8,4.6-2.8h0c.1,0,.5.1,2.1,1.4s2.3-.9,2.3-.9l.5.5a2.2,2.2,0,0,1,.2,1.2,5.4,5.4,0,0,0,.6,2.9l.4.9S208.1,393.8,206.3,394Z"/><path class="cls-28" d="M206.8,388.4a8,8,0,0,1-2.3,1c-.9.1-2.6-2-2.6-2h0c.1,0,.5.1,2.1,1.4s2.3-.9,2.3-.9Z"/><path class="cls-28" d="M206.3,394h-2.1l-1.9-.3a2.3,2.3,0,0,0-1.7.3h-8.7c-.3-.3,0-1,.2-1.4s.3.9.5,1,7.1.1,7.5-.2a4.9,4.9,0,0,1,3.3-.3,9.4,9.4,0,0,0,4.2-.7l.4.9S208.1,393.8,206.3,394Z"/><path class="cls-20" d="M224.8,330.4a46.1,46.1,0,0,1-18.5.7,25.3,25.3,0,0,1-7.4-2.6l3-24.3.7-11.3a31.5,31.5,0,0,1,5.2-1.2s7.1.8,9.8.1c0,0,4,.8,5.1,4.6C225.1,304.1,225.9,313.7,224.8,330.4Z"/><path class="cls-24" d="M208.3,302.5c-.7,1.8-5.7,1.3-9.5-1.3l-1-.7c-3.7-2.3-8.5-4.4-11.3-6.4s-5.4-9.4-7.3-12.6a5.6,5.6,0,0,0-.5-.8c-2.2-.7-2.1-3-4.1-3.8s-1.8-2.2-1.8-2.2a9.8,9.8,0,0,1,4-.5c.8.1,2.3,2.3,3.2,3.7l2.1,1.7a86.3,86.3,0,0,1,8.6,8.6c1.1,1.4,6.7,2.9,10.7,4.4a22.1,22.1,0,0,1,3.8,1.9C210.1,298.6,208.3,302.5,208.3,302.5Z"/><path class="cls-29" d="M208.3,302.5c-.8,3.8-10.4-.8-10.8-1.1.5-5.6.5-8.7,2.1-9.7,3.1-.5,7.8-.3,8.8.1C216,294.5,208.3,302.5,208.3,302.5Z"/><path class="cls-30" d="M197.8,280.4a4.1,4.1,0,0,1-3,2.5,18.3,18.3,0,0,0-1.3-2.2c-2.2-.7-2-3-4.1-3.8s-1.7-2.2-1.7-2.2a9.1,9.1,0,0,1,3.9-.5c.8.1,2.3,2.3,3.2,3.7Z"/><path class="cls-31" d="M192.7,278.1c-.9.7-3.1,2.9-3.1,2.9l-5.1-6.6,3.5-2.3c.8-.6,3.1-2.8,3.1-2.8l5.2,6.6S193.5,277.5,192.7,278.1Z"/><path class="cls-31" d="M192.7,278.1c-.9.7-3.1,2.9-3.1,2.9l-3.6-4.6,3.5-2.4c.8-.6,3.1-2.8,3.1-2.8l3.7,4.7S193.5,277.5,192.7,278.1Z"/><rect class="cls-31" x="189.8" y="272" width="8.4" height="0.67" transform="translate(290.7 -47.7) rotate(52.3)"/><rect class="cls-31" x="182.6" y="277.6" width="8.4" height="0.67" transform="translate(292.3 -39.9) rotate(52.3)"/><path class="cls-32" d="M182.8,275.3l-6.8,8.4a2.4,2.4,0,0,1-3.3.3l-3.5-2.8a2.5,2.5,0,0,1-.3-3.5l6.8-8.3a4.3,4.3,0,0,1,4.6-1.4.7.7,0,0,0,.6-.3h.1l.4-.5,2.5,2.1-.3.5h-.2a.7.7,0,0,0-.1.6A4.4,4.4,0,0,1,182.8,275.3Z"/><path class="cls-33" d="M182.8,275.3l-6.8,8.4a2.4,2.4,0,0,1-3.3.3l-2.2-1.8a2.4,2.4,0,0,1-.3-3.4l6.7-8.3a4.5,4.5,0,0,1,4.7-1.5h.2a.5.5,0,0,0,.4-.2c0-.1,0-.1.1-.2l.4-.4,1.2,1-.3.5h-.2a.7.7,0,0,0-.1.6A4.4,4.4,0,0,1,182.8,275.3Z"/><path class="cls-32" d="M181.4,274.1l-6.8,8.4a2.4,2.4,0,0,1-3.3.4l-.8-.7a2.4,2.4,0,0,1-.3-3.4l6.7-8.3a4.5,4.5,0,0,1,4.7-1.5h.2c0,.1.1.1.1.2A4.4,4.4,0,0,1,181.4,274.1Z"/><rect class="cls-34" x="172" y="272.4" width="9.2" height="6.36" transform="translate(214 -49.6) rotate(39.2)"/><rect class="cls-34" x="181.1" y="267.4" width="3.7" height="0.87" transform="translate(209.9 -55.4) rotate(39.1)"/><path class="cls-30" d="M182.1,279.6a5.1,5.1,0,0,1-2.9,1.9,5.6,5.6,0,0,0-.5-.8c-2.2-.7-2.1-3-4.1-3.8s-1.8-2.2-1.8-2.2a9.8,9.8,0,0,1,4-.5c.8.1,2.3,2.3,3.2,3.7Z"/><path class="cls-24" d="M146.2,267.8l-.5,3.3H145l-7.5-.6c-5-.5-10.9-1.4-13.3-2.9s-9.5-8.9-13.4-15.7l-.3-.5c-2-3.5-3.4-7.1-3.5-9.9a13,13,0,0,1,.5-4.6,10,10,0,0,1,2-4,1,1,0,0,1,.4-.5,8.2,8.2,0,0,1,2.6-2.2c.7-.3,1.4,0,2.1.8h0a13.5,13.5,0,0,1,1.9,2.8h.1l.4.9h.1c.3.7.7,1.3,1,2,3.3,7.4,7,18.6,10,22,1.3,1.4,7.2,4.2,11.9,6.3Z"/><path class="cls-22" d="M101.3,194.2a7.2,7.2,0,0,0-6.8-5.6c-5.7-.3-12.5,4.3-11.9,10.3s-5.9,8.4-7.1,13.5,4.3,5,5.5,8.9-2.1,7.4,4.9,7.7,15.1-.9,16.7-4.8,2.5-19.8,2.5-19.8Z"/><path class="cls-24" d="M111.3,248.7a23.5,23.5,0,0,1-1.6,4.9c-.5,1.2-1.2,2.4-1.8,3.7-1.9,3.6-6.1,5.3-6.5,12.5a30.7,30.7,0,0,0,1.1,9.6c5,20-34.3,3-32.1-2.2C74.8,266.9,80.8,261,81,252.4h0v-3.1c-.1-3.6,0-9.4,0-12.3v-2.6c3.2-11.7,9.6-11.5,11.8-11.4l2.3.2c1.5-.7,4-4.3,5.4-10.2l.5.2,8.3,3.9s-.9,2.7-1.5,5.2-.9,4-.6,4.5l1,.5h0C108.4,227.6,112.9,239.3,111.3,248.7Z"/><path class="cls-19" d="M110,388.5l-3,1.5s-16.4-22.6-18.4-42a31.8,31.8,0,0,1,.5-9.8l-.8-5.1a11.8,11.8,0,0,1-.4-2c-.5-2.7-1-5.9-1.7-9.6l-2-11.4-4.1-22.6,1-.3,4.5-1.4,6.1-2,2.2-7,1.4-.4,6.5-1.7a12.1,12.1,0,0,1,.7,2.3,108.7,108.7,0,0,1,2.3,14.2q.2,1.5.3,3.3a135.5,135.5,0,0,1,0,35.7c-.3,2.8-.8,5.8-1.4,8.8a45.2,45.2,0,0,0-.3,8.6C104.2,363.4,110,388.5,110,388.5Z"/><path class="cls-35" d="M104.8,291.2,87.9,331.1c-.5-2.7-1-5.9-1.7-9.6l-2-11.4-1.6-16.8,3-7.5,3.7-9.7,6,.3,7.2.6A108.7,108.7,0,0,1,104.8,291.2Z"/><path class="cls-30" d="M152.9,276.7c-1.4,1.3-7.5-5-8-5.6l-7.5-.6a37.4,37.4,0,0,0,2.4-5.3l6.2,2.6s5.2.8,5.9,1.7C154.1,271.9,154.5,275.4,152.9,276.7Z"/><path class="cls-36" d="M151.3,272.1,129.9,271l14.2,15.1,31,6.6Z"/><path class="cls-23" d="M165.4,291.3c-.7,2.1-1.9,8.5-1.9,8.5l-16.4-5.4s2.5-5.8,3.3-8,2.1-8.4,2.1-8.4l16.4,5.4S166,289.3,165.4,291.3Z"/><path class="cls-37" d="M165.4,291.3c-.7,2.1-1.9,8.5-1.9,8.5L151.9,296s2.6-5.8,3.3-8,2.1-8.4,2.1-8.4l11.6,3.8S166,289.3,165.4,291.3Z"/><rect class="cls-37" x="152.3" y="279.4" width="17.3" height="1.38" transform="translate(95.1 -36.1) rotate(18.1)"/><rect class="cls-38" x="146.5" y="297.1" width="17.3" height="1.38" transform="matrix(0.95, 0.31, -0.31, 0.95, 100.31, -33.47)"/><path class="cls-39" d="M168.5,286.7l5.9,9.1a2.3,2.3,0,0,1-.7,3.2l-3.7,2.5a2.5,2.5,0,0,1-3.4-.7l-5.9-9a4.6,4.6,0,0,1,0-4.9c.2-.2.1-.4,0-.6s-.1-.1-.1-.2l-.3-.5,2.7-1.8.3.5c.1.1.1.2.2.2s.2.3.4.3A4.6,4.6,0,0,1,168.5,286.7Z"/><path class="cls-40" d="M168.5,286.7l5.9,9.1a2.3,2.3,0,0,1-.7,3.2l-2.3,1.6a2.5,2.5,0,0,1-3.4-.7l-5.9-9a4.6,4.6,0,0,1,0-4.9v-.2c0-.2,0-.3-.1-.4s-.1-.1-.1-.2l-.4-.5,1.4-.9.3.5c.1.1.1.2.2.2s.2.3.4.3A4.6,4.6,0,0,1,168.5,286.7Z"/><path class="cls-41" d="M166.9,287.7l6,9.1a2.3,2.3,0,0,1-.7,3.2l-.8.6a2.5,2.5,0,0,1-3.4-.7l-5.9-9a4.6,4.6,0,0,1,0-4.9v-.2h.2A4.5,4.5,0,0,1,166.9,287.7Z"/><rect class="cls-42" x="162.2" y="289.5" width="9.2" height="6.36" transform="translate(-132.8 138.7) rotate(-33.1)"/><rect class="cls-42" x="159.6" y="283.9" width="3.7" height="0.87" transform="translate(-129.4 135) rotate(-33.2)"/><path class="cls-39" d="M148.1,282.9l2.2,10.6a2.5,2.5,0,0,1-1.9,2.8l-4.3.9a2.6,2.6,0,0,1-2.9-1.9L139,284.8a4.5,4.5,0,0,1,1.8-4.6.5.5,0,0,0,.2-.6.3.3,0,0,1-.1-.2v-.5l3.3-.7v.8c0,.2.1.4.3.4A4.6,4.6,0,0,1,148.1,282.9Z"/><path class="cls-40" d="M148.1,282.9l2.2,10.6a2.5,2.5,0,0,1-1.9,2.8l-2.7.5a2.5,2.5,0,0,1-2.9-1.9l-2.2-10.5a4.5,4.5,0,0,1,1.8-4.5l.2-.2c0-.1.1-.3,0-.4v-.2l-.2-.6,1.7-.3v.8c0,.2.1.4.3.4A4.6,4.6,0,0,1,148.1,282.9Z"/><path class="cls-41" d="M146.3,283.3l2.2,10.6a2.4,2.4,0,0,1-1.9,2.7l-.9.2a2.5,2.5,0,0,1-2.9-1.9l-2.2-10.5a4.5,4.5,0,0,1,1.8-4.5l.2-.2h.2A4.5,4.5,0,0,1,146.3,283.3Z"/><rect class="cls-37" x="139.7" y="284.7" width="9.2" height="6.36" transform="translate(-55.4 35.3) rotate(-11.7)"/><rect class="cls-37" x="140.5" y="277.6" width="3.7" height="0.87" transform="translate(-53.9 35) rotate(-11.8)"/><path class="cls-43" d="M185.7,352.9l-3.5,22.3-1,6.4-2,12.9H151.9l-8.2-5.1c-7.9-5-18.9-11.9-20-13.2s-2-6.8-3.2-13.6c-1.7-9.6-3.4-20.9-3.4-20.9l10-18.7-8.6-20.6L129.9,271,144,286.1l31,6.6Z"/><polygon class="cls-36" points="145.2 348.8 142.1 366.4 165.4 350.2 145.2 348.8"/><path class="cls-36" d="M182.2,375.2l-3.1,19.3H151.9l-8.2-5.1-2.3-6.6,26.2-11.9,3.1-.2Z"/><path class="cls-35" d="M185.7,352.9l-3.5,22.3-1,6.4c-1.8-.8-14.1-7.2-13.6-10.7S185.7,352.9,185.7,352.9Z"/><path class="cls-35" d="M123.7,376.2s16.5,5,17.7,6.6,4.7,8.1,4.7,8.1Z"/><path class="cls-29" d="M145.2,348.8s13.1-3.8,14.3-5.5,9.7-12.2,9.7-12.2-2.3,17-3.8,19.1S145.2,348.8,145.2,348.8Z"/><path class="cls-35" d="M134.5,336.5l-14,26.1c-1.7-9.6-3.4-20.9-3.4-20.9l8-9.4Z"/><path class="cls-29" d="M134.5,336.5s-7.6-3-17.4,5.2l10-18.7Z"/><polygon class="cls-29" points="118.5 302.4 141.6 308.4 151.3 323.2 118.5 302.4"/><polygon class="cls-35" points="142.1 366.4 141.4 382.8 167.6 370.9 185.7 352.9 169.2 331.1 161.2 352.1 142.1 366.4"/><path class="cls-22" d="M116.8,200.1s-2.3-7.9-8.7-8.7-10.4,3.1-11.3,6.8-.2,13.6,3.7,14.8S116.8,200.1,116.8,200.1Z"/><path class="cls-19" d="M98.3,279.1l-.4-3.4c-6.6,1.8-24.4-4.9-24.4-4.9S67,276.4,67.9,290c.4,6.7.7,17.9.7,17.9h0c-.1,9.7.7,19.3,1.2,25.3.3,3,.6,5.2.7,6.1h0a1.9,1.9,0,0,1-.2.7,26.1,26.1,0,0,0-2.9,6.1c-4.6,15.1-1,38.1-1,38.1l4.5,7S76,363,80.1,350.5a23.8,23.8,0,0,1,2-4.8c1.8-2.9,3.4-7.7,5-13.3C89.9,321.8,98.3,279.1,98.3,279.1Z"/><path class="cls-23" d="M109.3,217.1s-.9,2.7-1.5,5.2c-4.9-1.3-6.3-6.4-6.8-9.1Z"/><path class="cls-24" d="M110.3,219.9s-11.6-2.6-9.8-9.8,1.5-12.4,9-11,8.2,4.5,8.1,7.1S113.3,220.4,110.3,219.9Z"/><path class="cls-22" d="M118.3,202.1c-1.2-2.6-2.7-2.5-3.6-2a8.4,8.4,0,0,0-10.8-.9,14.3,14.3,0,0,1-6.5,7s1.8,1.8,6.9,1.7a8.1,8.1,0,0,0,4.6-1.7,25.9,25.9,0,0,1-6,4.5c6.5-1.2,10.8-8.7,11.2-9.5a8.7,8.7,0,0,1,1.7,4c.1,2-.6,5.8.6,5.9S120.2,206,118.3,202.1Z"/><path class="cls-12" d="M114.9,230.8s2.8,4.9,3.2,6.1-3.6-.1-5.1,2.7C113,239.6,113.1,231.5,114.9,230.8Z"/><path class="cls-11" d="M113.9,245.3l-.3.7c-2.9,6.2-5.5,11.4-5.5,11.4s-.4,23.2-3.9,24.1A100.9,100.9,0,0,1,92.5,283a97.8,97.8,0,0,1-12.3,0c-6.2-.5-9.7-2-12.1-4.1-2.8-3.7,10.2-16.1,12-25a36.8,36.8,0,0,1,.2-3.9c.2-3.6.6-8.6.7-11.7v-1.5l1.8-1.3c1.8-1.3,3.2-2.4,3.3-3.9a9.1,9.1,0,0,0-.1-1.7,2.8,2.8,0,0,0-.1-.9,22.1,22.1,0,0,0-1.6-5.5c3-1.3,8.5-.5,8.5-.5v.8c0,2,0,7.1.6,8.1s15.5,6.5,16.2,4.8-1.3-9.1-1.4-9.4h0c4.9,1.9,6.7,3.5,6.7,3.5C111.9,232.7,116.2,239.2,113.9,245.3Z"/><path class="cls-12" d="M93.7,267.8C89.8,266,84,256.7,80.3,250c.2-3.6.6-8.6.7-11.7Z"/><path class="cls-24" d="M122.4,273.2l-1,3.5-3.1-.5-.9-.2-5.4-1.2h-.1c-3.4-.8-7.3-1.8-10.5-2.9a35.4,35.4,0,0,1-5.7-2.5l-.3-.3c-3.3-2.3-7.1-9.2-10.1-16.6l-1.2-3A98.3,98.3,0,0,1,81,239a25.9,25.9,0,0,1-.7-5,7.1,7.1,0,0,1-.1-1.4c.1-8,4.1-9.1,4.1-9.1h.2c.7-.1,1.4.4,2.2,1.3a23.4,23.4,0,0,1,2.9,5.2,127.1,127.1,0,0,1,4.8,12.7c.9,2.5,1.7,5,2.5,7.3s.9,2.8,1.4,4a33.3,33.3,0,0,0,2.3,5.4,13.6,13.6,0,0,0,3.4,3,108.2,108.2,0,0,0,10.9,6.8l4.2,2.4Z"/><path class="cls-12" d="M89.6,229.9c-5.3-1.5-9.4,2.7-9.4,2.7.1-8,4.1-9.1,4.1-9.1C85.9,222.8,87.7,225.6,89.6,229.9Z"/><path class="cls-30" d="M134,276.7c-1.8.8-4.3,3.4-8.2,1.8a52.8,52.8,0,0,0-7.4-2.2l-.9-.2-5.4-1.2a18.6,18.6,0,0,0,3-5.7l4.2,2.3c4,1.6,6.2,1.4,8.6.8s7.3,2.7,7.3,2.7S135.7,276,134,276.7Z"/><path class="cls-44" d="M83.1,393.1H65.2a7.7,7.7,0,0,1,.5-4.7c1.1-1.8.6-3.7.4-6.1a11.9,11.9,0,0,0,3,1.4,4.9,4.9,0,0,0,3.3-.6c.8.9,2.9,5.4,4,6.1S82.7,389.8,83.1,393.1Z"/><path class="cls-44" d="M119,393.1H101.2s-.7-2.8.5-4.7.6-3.7.4-6.1a10.5,10.5,0,0,0,3,1.4c1.2.2,2.8-.6,3.7-1.1a10,10,0,0,0,3.5,6.6C113.5,390.1,118.7,389.8,119,393.1Z"/></svg>