<svg id="Layer_1" data-name="Layer 1" xmlns="http://www.w3.org/2000/svg" viewBox="0 0 612 407"><defs><style>.cls-1{fill:#ebf3fa;}.cls-2{fill:#dceaff;}.cls-3{fill:#c0d8fb;}.cls-4{fill:#dfebfd;}.cls-5{fill:#afcdfb;opacity:0.5;}.cls-6{fill:#ed7d2b;}.cls-7{fill:#163560;}.cls-8{fill:#1c468a;}.cls-9{fill:#ffb27d;}.cls-10{fill:#f99746;}.cls-11{fill:#fca56b;}.cls-12{fill:#f9ddbf;}.cls-13{fill:#e5c1a1;}.cls-14{fill:#e2810e;}.cls-15{fill:#ffb93e;}.cls-16{fill:#ffa412;}.cls-17{fill:#ffeddc;}.cls-18{fill:#db6a1d;}.cls-19{fill:#699dee;}.cls-20{fill:#fff;}.cls-21{fill:#233862;}.cls-22{fill:#2b478b;}.cls-23{fill:#ed975d;}.cls-24{fill:#ebf3ff;}.cls-25{fill:#2c3a64;}.cls-26{fill:#ed985f;}.cls-27{fill:#f4d242;}.cls-28{fill:#59595b;}.cls-29{fill:#808183;}</style></defs><path class="cls-1" d="M73.5,347.6H553.3c2.4,0,7.6-21.1,8.1-23,13.9-51.2,20.5-115.9-12.7-160.8-17.5-23.7-43.9-37-71.1-42.9l-.8-.2c-23.7-5.1-39.1-20.5-56-37.7-21.9-22.2-47.6-34.3-77.5-39.2a321.6,321.6,0,0,0-87.1-2.6c-25.9,2.7-54.6,8-78.4,19.8-9.8,4.9-46.8,26.8-57.7,63.9a77,77,0,0,0-.8,39.5c12.3,51.8-19.6,48.9-42.9,73.6C45.3,270.9,48.5,324.8,73.5,347.6Z"/><polygon class="cls-2" points="292.2 188.6 255.6 232.1 197.6 183.3 197.6 183.3 173.2 162.8 209.8 119.3 255.4 157.7 292.2 188.6"/><path class="cls-3" d="M283.4,189.5,255,223.3l-74.1-62.4,28.4-33.7Zm-26,28.8,21.4-25.5a4,4,0,0,0-.4-5.7l-65.7-55.3a4.1,4.1,0,0,0-5.9.5l-21.4,25.3a4.2,4.2,0,0,0,.5,5.8l65.8,55.4A4.1,4.1,0,0,0,257.4,218.3Z"/><circle class="cls-3" cx="232.1" cy="175.2" r="11.9" transform="translate(24.5 378.9) rotate(-81.5)"/><polygon class="cls-2" points="326.4 157.8 281 183.5 246.7 123 246.7 123 232.2 97.5 277.6 71.8 304.6 119.4 326.4 157.8"/><path class="cls-3" d="M318.5,155.7l-35.2,20L239.4,98.4l35.3-20ZM287,172.2l26.6-15.1A3.7,3.7,0,0,0,315,152L276.1,83.5a3.8,3.8,0,0,0-5.2-1.5L244.4,97a3.8,3.8,0,0,0-1.4,5.2l38.9,68.6A3.7,3.7,0,0,0,287,172.2Z"/><circle class="cls-3" cx="279" cy="127.1" r="10.9" transform="translate(100.8 376.6) rotate(-79)"/><path class="cls-4" d="M541.2,223.8c-4.5-19.3-37.1-14.4-37.1-14.4s-23.1,32.9-29.5,33.5,14.2-32,14.2-32c-12.3-1.6-44.4,12.6-44.4,12.6s.7,39.2-5.6,38.2,1.1-34.8,1.1-34.8c-12.1,3.3-23.8,16.9-23.8,16.9-14.7,22.3,14.7,40.1,14.7,40.1s0,13.6-8.9,28.9h0a44.8,44.8,0,0,0-4.1,7.7h3.3a18.6,18.6,0,0,1,1-2.5h0l1-2.1h0a35.4,35.4,0,0,0,2.2-4.3h0c3.2-6.1,7.8-13.9,10.7-15.5a11,11,0,0,1-.6-1.6l.6,1.6c5.3,12.1,33.2,15,48.9,12.4s9-7.4.9-14.8-25.9-6.1-31-9,2.6-5.6,13-4.4S483,292,499.7,294.1s30.6-29,30.6-29c-11.7,3.2-32.3-3.9-33-7.9s30.1-2.6,35-3.7S545.8,243.2,541.2,223.8Z"/><path class="cls-5" d="M388.8,180.6c7.2-10.1,24.8.5,24.8.5s5.6,24.4,9.1,26.3-.6-21.8-.6-21.8c7.5,2,22.6,17.7,22.6,17.7s-9.7,22.5-5.8,23.4,7.6-20.3,7.6-20.3c6.2,4.7,9.7,15.3,9.7,15.3,3.2,16.4-18,19.7-18,19.7a39.6,39.6,0,0,0-1.7,18.8h0a29.1,29.1,0,0,1,.6,5.3l-1.9-.7v-1.7h0a8.2,8.2,0,0,0-.1-1.4h0c-.1-1.4-.2-2.4-.2-3.1h0c-.5-4.2-1.2-9.8-2.5-11.5l.7-.7-.7.7c-5.9,5.8-22.7.9-31.1-4.4s-3.5-6.3,2.9-8.7,16.4,2.6,20,2.1-.2-3.8-6.4-5.6-11.6,3.2-21.7.4S385.3,207,385.3,207c6,4.6,19.6,5.4,20.9,3.2s-16.7-8.6-19.3-10.4S381.6,190.7,388.8,180.6Z"/><path class="cls-4" d="M355.1,182.7c-11-12.4-32.9,4-32.9,4s-4.1,33.2-8.5,36.1-2.1-29-2.1-29c-9.7,3.7-27.7,26.6-27.7,26.6s16,28.5,10.9,30.3-12.8-26-12.8-26c-7.6,7.1-10.8,21.7-10.8,21.7-2.1,22.1,26.5,23.6,26.5,23.6s5.3,10,4.7,24.8h0a45.6,45.6,0,0,0,0,7.2l2.5-1.2-.3-2.3h0a14.2,14.2,0,0,0-.1-1.9h0c.1-1.9,0-3.2,0-4.1h0c-.1-5.7.2-13.3,1.7-15.6a4.4,4.4,0,0,1-1-.8l1,.8c8.6,6.9,30.2-1.9,40.7-10s3.8-8.9-5.1-11.2-21.3,5.7-26.2,5.5-.3-5,7.7-8.3,15.8,2.6,28.9-2.4,11-33.2,11-33.2c-7.3,6.9-25.2,9.8-27.2,7.1s21-13.7,24.2-16.3S366,195.1,355.1,182.7Z"/><path class="cls-6" d="M529.4,194.8s13.5,14,14.2,19.3-6.5,13.5-6.5,13.5Z"/><path class="cls-7" d="M523.3,340s-.5,7.4-1.9,7.5H505a3.1,3.1,0,0,1,2.8-2.7c2.6-.4,7.1-2.3,8.7-5.8S523.3,340,523.3,340Z"/><path class="cls-7" d="M543.5,340s-.5,7.5-1.9,7.6H525.2a2.9,2.9,0,0,1,2.8-2.6c2.6-.5,7-2.3,8.7-5.8S543.5,340,543.5,340Z"/><path class="cls-7" d="M513.5,260.1s2.3,15.2,11.1,42.1,9.9,38.6,9.9,38.6l9.5-.2s.2-29.5-3.9-43-.7-48.8-.7-48.8Z"/><path class="cls-8" d="M508.9,249.6a366,366,0,0,0,3.5,50.9c3.9,28,2.5,39.9,2.5,39.9l9.5.4s5.7-28.1,4.1-42.1,7.8-48.2,7.8-48.2Z"/><path class="cls-9" d="M527.3,196.1l-5,3.3L515,198c.1-.5.6-3,1-5.2,0-.1.1-.2.1-.4.4-1.9.7-3.5.7-3.5l6.8-3,2.5-1.1c0,.1-.2,2.1-.2,2.4A17.1,17.1,0,0,0,527.3,196.1Z"/><path class="cls-6" d="M516.8,194.4c.2,0,8.8-2.6,9.8-2.2s1.5,2.1,1.5,2.1l-14.2,3.1A7.2,7.2,0,0,1,516.8,194.4Z"/><path class="cls-10" d="M540,252.4c-1.5,6.7-25.9,7.5-32.1,1.4-.8-.7-.8-3.9-.5-8.3.5-8.4,2.3-21.2,2.3-27.7a57.6,57.6,0,0,1,1.1-9.3,72.1,72.1,0,0,1,3.1-11.1s11.9-3.8,14.2-3.1C538.8,197.5,541.5,245.8,540,252.4Z"/><path class="cls-6" d="M507.4,245.5c.5-8.4,2.3-21.2,2.3-27.7a57.6,57.6,0,0,1,1.1-9.3l7.2-1.2S524.9,235.9,507.4,245.5Z"/><path class="cls-9" d="M511.3,233.7a1.8,1.8,0,0,1-.5,2,3.2,3.2,0,0,0-1.5,3c.2.9,2.5,2.4,3.3,2.2s2.3-1.5,2.2-2,1-4.3-.9-5.7S511.3,233.7,511.3,233.7Z"/><path class="cls-10" d="M519.4,195.7s-7,1.3-12.6,9.5-9.2,14.3-8.2,17.3,10.3,13.2,11.9,13.2,4.2-1.2,4.4-3.8c0,0-6.6-9.9-5.3-11.4s8.6-7,9.7-4.1C521.2,221.2,519.4,195.7,519.4,195.7Z"/><path class="cls-11" d="M525.4,187.3c-1.5,2.5-7.1,4.7-9.4,5.5,0-.1.1-.2.1-.4.4-1.9.7-3.5.7-3.5l6.8-3C525.1,185.9,526,186.3,525.4,187.3Z"/><path class="cls-9" d="M514.2,188.5s11,3.5,13-3.4,4.8-11-2.1-13.5-9-.3-10.3,1.8S511.4,187.4,514.2,188.5Z"/><path class="cls-7" d="M515.3,172.8s.7,7.9,2.3,7.6,3.2-.6,2.9,1.8-2.5,5.2,2.6,5.6,12.4-12.6,11-15.1C530.1,165.5,509.5,164,515.3,172.8Z"/><path class="cls-12" d="M197.5,230.1s4.2,7.1,8,7.2,9.7-3.3,9.7-3.3,3.5-9.4,1.1-13.1a4.5,4.5,0,0,0-4.9,1,10.8,10.8,0,0,0-1.3,1.5,4.9,4.9,0,0,1-2,1.6c-2.7,1-5.9-1.3-7.2.9a12.9,12.9,0,0,1-2.1,3A7.4,7.4,0,0,1,197.5,230.1Z"/><path class="cls-12" d="M257.4,333.4s10.2-89.8-46.8-96.1c0,0-44.2,10.5-33.1,96.1Z"/><path class="cls-10" d="M217.9,238.6s-10.6,2.8-13.9,1.2c0,0-.5-5.4,4-4.6s5-1.3,6.2-2S218.4,236.4,217.9,238.6Z"/><path class="cls-13" d="M208.7,230.5c.6.6,2.7-8.6,2.7-8.6a10.8,10.8,0,0,0-1.3,1.5,4.9,4.9,0,0,1-2,1.6C208.1,225.3,208,229.9,208.7,230.5Z"/><path class="cls-13" d="M198.8,228.9c.2.1,5.1,3.7,5.8,3.7s-3.7-6.7-3.7-6.7A12.9,12.9,0,0,1,198.8,228.9Z"/><circle class="cls-14" cx="375.1" cy="139.3" r="20.1" transform="translate(26.8 336.3) rotate(-49.9)"/><path class="cls-15" d="M354.4,146.3a20.1,20.1,0,1,1,25.5,12.6A20.1,20.1,0,0,1,354.4,146.3Z"/><path class="cls-16" d="M379.4,157.4a17.9,17.9,0,0,1-14-.9,17.7,17.7,0,0,1-9.2-10.5,18,18,0,0,1,.9-14,18.7,18.7,0,0,1,10.5-9.2,18.3,18.3,0,0,1,22.3,25.4A18,18,0,0,1,379.4,157.4ZM368,123.8a17.2,17.2,0,1,0,21.8,10.8A17.3,17.3,0,0,0,368,123.8Z"/><path class="cls-16" d="M377.6,144.3a3,3,0,0,0-.4-1c-.2-.2-.4-.5-.7-.6l-1.1-.5-1.6-.3-2.9-.5a9.2,9.2,0,0,1-2.3-.9,4.6,4.6,0,0,1-1.7-1.4,4.8,4.8,0,0,1-.9-2.3,5.5,5.5,0,0,1-.1-2.2,4.8,4.8,0,0,1,.9-1.9,4.9,4.9,0,0,1,1.6-1.6,7,7,0,0,1,2.3-1.1l-.7-3,2.4-.5.7,3a9.3,9.3,0,0,1,2.4.2,5.1,5.1,0,0,1,2.1,1,5,5,0,0,1,1.5,1.7,6.4,6.4,0,0,1,1,2.4l-4.4.9a3.4,3.4,0,0,0-1.2-2.3,2.4,2.4,0,0,0-2.2-.4l-1.1.4a2.3,2.3,0,0,0-.7.7,4.6,4.6,0,0,0-.3.9,2.8,2.8,0,0,0,.1.9,1.9,1.9,0,0,0,.3.9,2.3,2.3,0,0,0,.7.7l1.1.5,1.6.3,2.9.5a6.9,6.9,0,0,1,2.3.9,5.6,5.6,0,0,1,2.7,3.7,4.5,4.5,0,0,1,0,2.3,4.6,4.6,0,0,1-.8,1.9,5,5,0,0,1-1.7,1.5,7,7,0,0,1-2.3,1.1l.6,2.8-2.4.5-.5-2.8a11.3,11.3,0,0,1-2.6,0,6.3,6.3,0,0,1-2.3-.8,5.5,5.5,0,0,1-1.8-1.6,10.3,10.3,0,0,1-1.2-2.8l4.4-.9a3.4,3.4,0,0,0,.6,1.6,3.8,3.8,0,0,0,.9.9,2.7,2.7,0,0,0,1.2.3h1.2l1.2-.4a1.9,1.9,0,0,0,.8-.7,3.6,3.6,0,0,0,.4-.9A1.7,1.7,0,0,0,377.6,144.3Z"/><circle class="cls-14" cx="438.8" cy="108.3" r="15.8" transform="translate(41 323) rotate(-42.2)"/><path class="cls-15" d="M422.5,113.9a15.8,15.8,0,1,1,20.1,9.9A15.8,15.8,0,0,1,422.5,113.9Z"/><path class="cls-16" d="M442.2,122.6a14.4,14.4,0,0,1-17.6-20,14.9,14.9,0,0,1,8.3-7.3,14.5,14.5,0,0,1,11,.8,14,14,0,0,1,7.3,8.2,14.4,14.4,0,0,1-.7,11A14.2,14.2,0,0,1,442.2,122.6Zm-9-26.5a13.6,13.6,0,1,0,17.2,8.5A13.6,13.6,0,0,0,433.2,96.1Z"/><path class="cls-16" d="M440.8,112.3l-.3-.8-.6-.5a1.9,1.9,0,0,0-.9-.4l-1.2-.2-2.3-.4a7.5,7.5,0,0,1-1.8-.7,4.7,4.7,0,0,1-1.3-1.1,4.9,4.9,0,0,1-.8-1.8,5.4,5.4,0,0,1,0-1.8,4.7,4.7,0,0,1,.6-1.5,4.9,4.9,0,0,1,1.3-1.2,5.1,5.1,0,0,1,1.8-.9l-.5-2.3,1.9-.4.5,2.3a6.5,6.5,0,0,1,2,.2,4.6,4.6,0,0,1,1.6.7,4.1,4.1,0,0,1,1.2,1.4,4.7,4.7,0,0,1,.7,1.9l-3.4.7a2.6,2.6,0,0,0-1-1.8,1.9,1.9,0,0,0-1.7-.4,2,2,0,0,0-.8.4,1,1,0,0,0-.6.5,1.9,1.9,0,0,0-.2.7c-.1.2,0,.5,0,.8l.3.7a1.2,1.2,0,0,0,.5.5l.9.4,1.3.2,2.3.5a6.7,6.7,0,0,1,1.8.7,3.3,3.3,0,0,1,1.3,1.1,4.5,4.5,0,0,1,.8,1.7,5.4,5.4,0,0,1,0,1.8,3.3,3.3,0,0,1-.7,1.6,5.1,5.1,0,0,1-1.3,1.2,7.5,7.5,0,0,1-1.8.8l.5,2.2-1.9.4-.5-2.2a6.1,6.1,0,0,1-1.9,0,4.8,4.8,0,0,1-1.8-.6,3.7,3.7,0,0,1-1.5-1.3,6.3,6.3,0,0,1-.9-2.2l3.4-.7a5,5,0,0,0,.5,1.3,4.6,4.6,0,0,0,.7.7l1,.2h.9a2.9,2.9,0,0,0,1-.3l.6-.5.3-.7Z"/><path class="cls-17" d="M243.5,249.9s-2.6,3.6-4.9,3.6-5.9-1.7-5.9-1.7-2.2-4.8-.7-6.6a3,3,0,0,1,3,.5l.8.7a1.8,1.8,0,0,0,1.2.8c1.7.6,3.7-.6,4.4.5a5,5,0,0,0,1.3,1.5Z"/><path class="cls-17" d="M210.2,275.8s9-21.9,25.3-22.3c0,0,15,1.7,15.8,22.3Z"/><path class="cls-18" d="M231,254.2s6.5,1.4,8.5.6c0,0,.3-2.8-2.4-2.4a5.3,5.3,0,0,1-3.8-1C232.3,250.9,230.7,253,231,254.2Z"/><path class="cls-13" d="M236.7,250.1c-.4.3-1.7-4.4-1.7-4.4l.8.7a1.8,1.8,0,0,0,1.2.8C237,247.4,237.1,249.8,236.7,250.1Z"/><path class="cls-13" d="M242.7,249.2a22.9,22.9,0,0,1-3.5,1.9c-.4,0,2.2-3.4,2.2-3.4A5,5,0,0,0,242.7,249.2Z"/><path class="cls-12" d="M219,269.7c-.2-.1,6.4-9.7,8.2-9.7s5.9,2,8.8,2.3,5.8-.5,6.3,1.2,2.1,7.9,1.2,8.9S222.6,272.8,219,269.7Z"/><path class="cls-19" d="M466.7,223.1,448,278.5a98.8,98.8,0,0,1-19.9,34.4,100.3,100.3,0,0,1-107,28.7,98.4,98.4,0,0,1-34.4-20,100.7,100.7,0,0,1-33.5-67.5,97.5,97.5,0,0,1,4.9-39.4l18.6-55.5,46.8,15.7-18.6,55.5a50.8,50.8,0,0,0,96.3,32.4l18.7-55.5Z"/><rect class="cls-20" x="284.3" y="112.7" width="49.4" height="55.9" transform="translate(60.9 -91.1) rotate(18.6)"/><rect class="cls-20" x="427.5" y="160.8" width="49.4" height="55.9" transform="translate(83.7 -134.2) rotate(18.6)"/><path class="cls-10" d="M336.9,294.8l-15.8,46.8a98.4,98.4,0,0,1-34.4-20,100.7,100.7,0,0,1-33.5-67.5,97.5,97.5,0,0,1,4.9-39.4l18.6-55.5,46.8,15.7-18.6,55.5a51,51,0,0,0,32,64.4Z"/><path class="cls-9" d="M383.6,333.5a1.5,1.5,0,0,0-.2,1.7h0a9.7,9.7,0,0,0,3.3,3.6l.5.5h.2c1.4,1.4.9,1.7,3.5,4.4s5,3.1,5.6,2.9-.5-1.9-1.6-3.8l-.2-.2c-.1-.3-.3-.5-.4-.8-1.3-2.2-1-3.2-.7-6.5s4.2-15,4.2-15l-5.7-1s-1.7,9.8-3.6,11.3-2.1.8-3.1,1.4l-.2.2A6.1,6.1,0,0,0,383.6,333.5Z"/><path class="cls-21" d="M383.6,333.5a1.5,1.5,0,0,0-.2,1.7h0a11.8,11.8,0,0,0,3.3,3.6l.5.5h.2c1.4,1.4.9,1.7,3.5,4.4s5,3.1,5.6,2.9-.5-1.9-1.6-3.8a12.2,12.2,0,0,1-5.3-3.9c-1.8-2.2-3-5.2-4.2-6.9l-.2.2A6.1,6.1,0,0,0,383.6,333.5Z"/><path class="cls-9" d="M429.5,330c.3,1.7,2.8,1.4,5.6.7s2.2.2,6.1-.3,5.2-1.9,5.4-2.5-1.9-.7-4-.9h-.8c-2.4-.3-4.1-1.9-6.3-3.1s-5.1-6.1-5.1-6.1l-5.5.4s2.9,4.4,4,6.3a6,6,0,0,1,.5,3.7A12.8,12.8,0,0,0,429.5,330Z"/><path class="cls-21" d="M435.1,330.7c2.8-.6,2.2.2,6.1-.3s5.2-1.9,5.4-2.5-1.9-.7-4-.9h0a11.4,11.4,0,0,1-5.7,1.8c-2.7,0-5.6-.7-7.5-.7a12.8,12.8,0,0,0,.1,1.9C429.8,331.7,432.3,331.4,435.1,330.7Z"/><path class="cls-21" d="M408.6,295.1l-5.1,13.7-6.7,17.9a10.1,10.1,0,0,1-3.5-.3,16.1,16.1,0,0,1-3.4-1.7s1.8-19.2,5.3-30.3a18.3,18.3,0,0,1,2.9-6.4C403.5,281.7,408.6,295.1,408.6,295.1Z"/><path class="cls-22" d="M403.4,273.3c-3.3-1.1-12.9.3-22.5,2.2l-2-3.3-20.6-1.7s-6.9,15.2-3.1,24.8a3.6,3.6,0,0,0,3.5,2.4h16.6c10.3,0,21.7-7.1,23.2-7.4s3.4,4.4,5.9,9.5,22.8,22.6,22.8,22.6a18.4,18.4,0,0,0,4.5-.5,5,5,0,0,0,1.9-1.2S410.9,275.7,403.4,273.3Z"/><path class="cls-21" d="M378.1,211.9c-2.6-1.3-6.6-1.5-7.3-1.6-7.8-1.1-12.6,10.3-12.8,13.8-.5,6.3-3.9,7.3-8.6,11.3-9.5,8-6.8,17.2-1.6,20.7,3.2,2.1,8.6,0,8.6,0l22.4-12.4C389.9,242.1,384.9,215.5,378.1,211.9Z"/><path class="cls-9" d="M372.7,240.2s-3.7,1.3-6.1.2-4.1-4.8-4-4.8,2.2-1,3.1-7l.4.2,7.5,2.7s-.6,2.4-.9,4.7S372.2,240,372.7,240.2Z"/><path class="cls-23" d="M373.6,231.5s-.6,2.4-.9,4.7c-4.3-.8-6-5.1-6.6-7.4Z"/><path class="cls-9" d="M374.7,233.9s-10.2-1.4-9.3-7.8.3-10.8,6.9-10.2,7.5,3.2,7.7,5.5S377.4,234.1,374.7,233.9Z"/><path class="cls-21" d="M379.6,217.9s-6.6,5.6-11,6.1-6.2-1-6.2-1a18,18,0,0,0,4.2-5.7,3.2,3.2,0,0,1,2.6-1.9C372.4,215.2,378.4,215,379.6,217.9Z"/><path class="cls-21" d="M375.5,217.4a16.9,16.9,0,0,1,2.9,3.6,13.5,13.5,0,0,1,.3,6.6s3.4-6.6,1.5-9.8S375.5,217.4,375.5,217.4Z"/><path class="cls-20" d="M381.3,255.3c-.3,20.8-.1,16.4-2.4,18.4-.5.5-2.1.8-4.1.9-6.3.4-17.5-.6-17.9-1.8-1.5-4.1-.5-5.3-1.7-11.6a20.9,20.9,0,0,0-.5-2.1c-1-4.3-2-5.8,1.6-12.6s6.7-11.3,7-11.1c8.7,5.1,9.4.8,9.4.8S381.4,245.2,381.3,255.3Z"/><path class="cls-22" d="M403.5,308.8l-6.7,17.9a10.1,10.1,0,0,1-3.5-.3,16.1,16.1,0,0,1-3.4-1.7s1.8-19.2,5.3-30.3Z"/><path class="cls-20" d="M372.7,236.2s8.9,1.5,10,5.3,7.2,26.4,7.2,26.4-4.6.9-6.7-1.2-7.2-19.5-7.2-19.5Z"/><path class="cls-24" d="M374.8,274.6c-6.3.4-17.5-.6-17.9-1.8-1.5-4.1-.5-5.3-1.7-11.6l3.1-8.6s-.5,9.6,2.3,12.1,11.6,4.9,13,7A7.4,7.4,0,0,1,374.8,274.6Z"/><path class="cls-9" d="M367.5,270.5s6.3-1.4,7.3-.8,3.5,2.6,3.8,3.3-2.2-.5-3.1-.8a9.6,9.6,0,0,0-2.6.6,8.9,8.9,0,0,1-4.8.5Z"/><path class="cls-20" d="M363.3,235.4s-8.4.5-11.3,4.6c-4.1,5.7-12.3,30.1-7.6,33.3s23.9,1,23.9,1,.7-2.9-.2-4.3-14.9-3.7-15.6-4.3,8.1-12.7,8.1-14.6S363.3,235.4,363.3,235.4Z"/><path class="cls-9" d="M375.1,271.4a10,10,0,0,0,1.8,1.9l.7.2-.9-1.6Z"/><path class="cls-9" d="M374.8,269.7l3.8,1.9s-.1.2-.6.2a6,6,0,0,1-1.6-.5Z"/><polygon class="cls-10" points="376.9 275.9 407.1 275.9 416.2 253.3 386 253.3 376.9 275.9"/><polygon class="cls-6" points="407.5 275.1 367.5 275.1 367.5 275.9 407.1 275.9 407.5 275.1"/><path class="cls-20" d="M399.5,264.6a1.1,1.1,0,0,0-1.1-1.4,1.9,1.9,0,0,0-1.8,1.4c-.2.8.2,1.5,1,1.5A2.3,2.3,0,0,0,399.5,264.6Z"/><path class="cls-15" d="M280.9,343v3.7a1.1,1.1,0,0,1-.3.8,1.6,1.6,0,0,1-.8.6H208.2a1.7,1.7,0,0,1-1.7-1.4.1.1,0,0,1-.1-.1V343c0-.1,0-.1.1-.1a1.6,1.6,0,0,1,1.7-1.4h71.6a1.6,1.6,0,0,1,.8.6A1.1,1.1,0,0,1,280.9,343Z"/><path class="cls-16" d="M246,348.2H208a1.5,1.5,0,0,1-1.5-1.4.1.1,0,0,1-.1-.1V343c0-.1,0-.1.1-.1a1.5,1.5,0,0,1,1.5-1.4h33.3A12,12,0,0,0,246,348.2Z"/><rect class="cls-16" x="271.4" y="341.5" width="0.8" height="6.63"/><rect class="cls-16" x="268.7" y="341.5" width="0.8" height="6.63"/><rect class="cls-16" x="265.4" y="341.5" width="0.8" height="6.63"/><rect class="cls-16" x="260.4" y="341.5" width="0.8" height="6.63"/><rect class="cls-16" x="255.1" y="341.5" width="0.8" height="6.63"/><rect class="cls-16" x="247" y="341.5" width="0.8" height="6.63"/><rect class="cls-16" x="239.3" y="341.5" width="0.8" height="6.63"/><rect class="cls-16" x="232.5" y="341.5" width="0.8" height="6.63"/><rect class="cls-16" x="274" y="341.5" width="0.8" height="6.63"/><rect class="cls-16" x="275.7" y="341.5" width="0.8" height="6.63"/><rect class="cls-16" x="277.4" y="341.5" width="0.8" height="6.63"/><path class="cls-16" d="M279.5,341.6v6.5h-.8v-6.7h.8Z"/><path class="cls-16" d="M280.6,342.2v5.3a1.6,1.6,0,0,1-.8.6v-6.5A1.6,1.6,0,0,1,280.6,342.2Z"/><path class="cls-15" d="M273.3,336.3v3.8a1.1,1.1,0,0,1-.3.8l-.8.5H200.6c-.9,0-1.7-.6-1.7-1.3h0v-3.8h0a1.6,1.6,0,0,1,1.7-1.4h71.7a.1.1,0,0,0,.1.1h.2a.1.1,0,0,1,.1.1h.3A1.3,1.3,0,0,1,273.3,336.3Z"/><path class="cls-16" d="M238.4,341.5h-38a1.4,1.4,0,0,1-1.5-1.3h0v-3.8h0a1.5,1.5,0,0,1,1.5-1.4h33.4v.2A11.8,11.8,0,0,0,238.4,341.5Z"/><rect class="cls-16" x="263.8" y="334.9" width="0.8" height="6.63"/><rect class="cls-16" x="261.1" y="334.9" width="0.8" height="6.63"/><rect class="cls-16" x="257.8" y="334.9" width="0.8" height="6.63"/><rect class="cls-16" x="252.8" y="334.9" width="0.8" height="6.63"/><rect class="cls-16" x="247.5" y="334.9" width="0.8" height="6.63"/><rect class="cls-16" x="239.4" y="334.9" width="0.8" height="6.63"/><rect class="cls-16" x="231.7" y="334.9" width="0.8" height="6.63"/><rect class="cls-16" x="224.9" y="334.9" width="0.8" height="6.63"/><rect class="cls-16" x="266.4" y="334.9" width="0.8" height="6.63"/><rect class="cls-16" x="268.2" y="334.9" width="0.8" height="6.63"/><rect class="cls-16" x="269.8" y="334.9" width="0.8" height="6.63"/><path class="cls-16" d="M271.9,334.9v6.6h-.8v-6.6h.8Z"/><path class="cls-16" d="M273,335.5v5.4l-.8.5V335Z"/><path class="cls-15" d="M277,329.9v3.7a1.9,1.9,0,0,1-.3.8,1.6,1.6,0,0,1-.8.6H204.2l-.7-.2a1.4,1.4,0,0,1-1-1.1h0v-3.7h0a1.6,1.6,0,0,1,1.7-1.4h71.7a1.6,1.6,0,0,1,.8.6A1.9,1.9,0,0,1,277,329.9Z"/><path class="cls-16" d="M242.1,335.1h-38l-.7-.2a1.4,1.4,0,0,1-.9-1.1h0v-3.7h0a1.5,1.5,0,0,1,1.6-1.4h33.3a11.5,11.5,0,0,0,4.5,6.5C241.9,335,242,335,242.1,335.1Z"/><rect class="cls-16" x="267.5" y="328.4" width="0.8" height="6.63"/><rect class="cls-16" x="264.8" y="328.4" width="0.8" height="6.63"/><rect class="cls-16" x="261.5" y="328.4" width="0.8" height="6.63"/><rect class="cls-16" x="256.5" y="328.4" width="0.8" height="6.63"/><rect class="cls-16" x="251.2" y="328.4" width="0.8" height="6.63"/><rect class="cls-16" x="243" y="328.4" width="0.8" height="6.63"/><rect class="cls-16" x="235.4" y="328.4" width="0.8" height="6.63"/><rect class="cls-16" x="228.6" y="328.4" width="0.8" height="6.63"/><rect class="cls-16" x="270.1" y="328.4" width="0.8" height="6.63"/><rect class="cls-16" x="271.8" y="328.4" width="0.8" height="6.63"/><rect class="cls-16" x="273.5" y="328.4" width="0.8" height="6.63"/><path class="cls-16" d="M275.5,328.5V335h-.8v-6.7h.8Z"/><path class="cls-16" d="M276.7,329.1v5.3a1.6,1.6,0,0,1-.8.6v-6.5A1.6,1.6,0,0,1,276.7,329.1Z"/><path class="cls-15" d="M278.7,323.3V327a1.9,1.9,0,0,1-.3.8l-.8.5H205.9a1.7,1.7,0,0,1-1.7-1.3h0v-3.7h0a1.7,1.7,0,0,1,1.5-1.4h71.9l.8.5A3.2,3.2,0,0,1,278.7,323.3Z"/><path class="cls-16" d="M243.8,328.4h-38a1.5,1.5,0,0,1-1.6-1.3h0v-3.7h0a1.6,1.6,0,0,1,1.4-1.4h33.5A11.5,11.5,0,0,0,243.8,328.4Z"/><rect class="cls-16" x="269.2" y="321.8" width="0.8" height="6.63"/><rect class="cls-16" x="266.5" y="321.8" width="0.8" height="6.63"/><rect class="cls-16" x="263.2" y="321.8" width="0.8" height="6.63"/><rect class="cls-16" x="258.2" y="321.8" width="0.8" height="6.63"/><rect class="cls-16" x="252.9" y="321.8" width="0.8" height="6.63"/><rect class="cls-16" x="244.7" y="321.8" width="0.8" height="6.63"/><rect class="cls-16" x="237.1" y="321.8" width="0.8" height="6.63"/><rect class="cls-16" x="230.3" y="321.8" width="0.8" height="6.63"/><rect class="cls-16" x="271.8" y="321.8" width="0.8" height="6.63"/><rect class="cls-16" x="273.5" y="321.8" width="0.8" height="6.63"/><rect class="cls-16" x="275.2" y="321.8" width="0.8" height="6.63"/><path class="cls-16" d="M277.2,321.8v6.6h-.8v-6.6h.8Z"/><path class="cls-16" d="M278.4,322.4v5.4l-.8.5v-6.4Z"/><path class="cls-15" d="M273.4,316.6v3.8a1.1,1.1,0,0,1-.3.8,1.6,1.6,0,0,1-.8.5H200.7a1.7,1.7,0,0,1-1.7-1.3h0v-3.8h0a1.7,1.7,0,0,1,1.3-1.3h72a1.6,1.6,0,0,1,.8.5A1.3,1.3,0,0,1,273.4,316.6Z"/><path class="cls-16" d="M238.6,321.8H200.5a1.5,1.5,0,0,1-1.5-1.3h0v-3.8h0a1.8,1.8,0,0,1,1.2-1.3h33.7a11.9,11.9,0,0,0,4.7,6.6Z"/><rect class="cls-16" x="264" y="315.2" width="0.8" height="6.63"/><rect class="cls-16" x="261.3" y="315.2" width="0.8" height="6.63"/><rect class="cls-16" x="258" y="315.2" width="0.8" height="6.63"/><rect class="cls-16" x="253" y="315.2" width="0.8" height="6.63"/><rect class="cls-16" x="247.7" y="315.2" width="0.8" height="6.63"/><rect class="cls-16" x="239.5" y="315.2" width="0.8" height="6.63"/><rect class="cls-16" x="231.9" y="315.2" width="0.8" height="6.63"/><rect class="cls-16" x="225.1" y="315.2" width="0.8" height="6.63"/><rect class="cls-16" x="266.6" y="315.2" width="0.8" height="6.63"/><rect class="cls-16" x="268.3" y="315.2" width="0.8" height="6.63"/><rect class="cls-16" x="270" y="315.2" width="0.8" height="6.63"/><path class="cls-16" d="M272,315.2v6.6h-.8v-6.6h.8Z"/><path class="cls-16" d="M273.1,315.8v5.4a1.6,1.6,0,0,1-.8.5v-6.4A1.6,1.6,0,0,1,273.1,315.8Z"/><path class="cls-15" d="M273.3,310.1v3.7a1.1,1.1,0,0,1-.3.8l-.8.5H200.3a1.5,1.5,0,0,1-1.4-1.3h0v-3.7h0a1.6,1.6,0,0,1,1.7-1.4h71.7c0,.1,0,.1.1.1h.2a.1.1,0,0,1,.1.1h.3A1.6,1.6,0,0,1,273.3,310.1Z"/><path class="cls-16" d="M238.4,315.2H200.2a1.4,1.4,0,0,1-1.3-1.3h0v-3.7h0a1.5,1.5,0,0,1,1.5-1.4h33.4v.2a11.8,11.8,0,0,0,4.6,6.4Z"/><rect class="cls-16" x="263.8" y="308.6" width="0.8" height="6.63"/><rect class="cls-16" x="261.1" y="308.6" width="0.8" height="6.63"/><rect class="cls-16" x="257.8" y="308.6" width="0.8" height="6.63"/><rect class="cls-16" x="252.8" y="308.6" width="0.8" height="6.63"/><rect class="cls-16" x="247.5" y="308.6" width="0.8" height="6.63"/><rect class="cls-16" x="239.4" y="308.6" width="0.8" height="6.63"/><rect class="cls-16" x="231.7" y="308.6" width="0.8" height="6.63"/><rect class="cls-16" x="224.9" y="308.6" width="0.8" height="6.63"/><rect class="cls-16" x="266.4" y="308.6" width="0.8" height="6.63"/><rect class="cls-16" x="268.2" y="308.6" width="0.8" height="6.63"/><rect class="cls-16" x="269.8" y="308.6" width="0.8" height="6.63"/><path class="cls-16" d="M271.9,308.6v6.6h-.8v-6.6h.8Z"/><path class="cls-16" d="M273,309.3v5.3l-.8.5v-6.4A1.6,1.6,0,0,1,273,309.3Z"/><path class="cls-15" d="M277,303.6v3.7a1.9,1.9,0,0,1-.3.8,1.6,1.6,0,0,1-.8.6H204.2l-.7-.2a1.4,1.4,0,0,1-1-1.1h0v-3.7h0a1.7,1.7,0,0,1,1.7-1.4h71.7a2.4,2.4,0,0,1,.8.6A1.9,1.9,0,0,1,277,303.6Z"/><path class="cls-16" d="M242.1,308.8h-38l-.7-.2a1.4,1.4,0,0,1-.9-1.1h0v-3.7h0a1.6,1.6,0,0,1,1.6-1.4h33.3a11.2,11.2,0,0,0,4.5,6.5Z"/><rect class="cls-16" x="267.5" y="302.1" width="0.8" height="6.63"/><rect class="cls-16" x="264.8" y="302.1" width="0.8" height="6.63"/><rect class="cls-16" x="261.5" y="302.1" width="0.8" height="6.63"/><rect class="cls-16" x="256.5" y="302.1" width="0.8" height="6.63"/><rect class="cls-16" x="251.2" y="302.1" width="0.8" height="6.63"/><rect class="cls-16" x="243" y="302.1" width="0.8" height="6.63"/><rect class="cls-16" x="235.4" y="302.1" width="0.8" height="6.63"/><rect class="cls-16" x="228.6" y="302.1" width="0.8" height="6.63"/><rect class="cls-16" x="270.1" y="302.1" width="0.8" height="6.63"/><rect class="cls-16" x="271.8" y="302.1" width="0.8" height="6.63"/><rect class="cls-16" x="273.5" y="302.1" width="0.8" height="6.63"/><path class="cls-16" d="M275.5,302.2v6.6h-.8v-6.7h.8Z"/><path class="cls-16" d="M276.7,302.8v5.3a1.6,1.6,0,0,1-.8.6v-6.5A2.4,2.4,0,0,1,276.7,302.8Z"/><path class="cls-15" d="M282.8,297v3.7a1.9,1.9,0,0,1-.3.8,2.4,2.4,0,0,1-.8.6H210a1.7,1.7,0,0,1-1.7-1.3h0V297h0a1.7,1.7,0,0,1,1.5-1.4h71.9a1.6,1.6,0,0,1,.8.6A1.9,1.9,0,0,1,282.8,297Z"/><path class="cls-16" d="M247.9,302.1h-38a1.5,1.5,0,0,1-1.6-1.3h0V297h0a1.6,1.6,0,0,1,1.4-1.4h33.5A11.5,11.5,0,0,0,247.9,302.1Z"/><rect class="cls-16" x="273.3" y="295.5" width="0.8" height="6.63"/><rect class="cls-16" x="270.6" y="295.5" width="0.8" height="6.63"/><rect class="cls-16" x="267.3" y="295.5" width="0.8" height="6.63"/><rect class="cls-16" x="262.3" y="295.5" width="0.8" height="6.63"/><rect class="cls-16" x="257" y="295.5" width="0.8" height="6.63"/><rect class="cls-16" x="248.8" y="295.5" width="0.8" height="6.63"/><rect class="cls-16" x="241.2" y="295.5" width="0.8" height="6.63"/><rect class="cls-16" x="234.4" y="295.5" width="0.8" height="6.63"/><rect class="cls-16" x="275.9" y="295.5" width="0.8" height="6.63"/><rect class="cls-16" x="277.6" y="295.5" width="0.8" height="6.63"/><rect class="cls-16" x="279.3" y="295.5" width="0.8" height="6.63"/><path class="cls-16" d="M281.3,295.5v6.6h-.8v-6.6h.8Z"/><path class="cls-16" d="M282.5,296.2v5.3a2.4,2.4,0,0,1-.8.6v-6.5A1.6,1.6,0,0,1,282.5,296.2Z"/><path class="cls-15" d="M273.4,290.3v3.8a1.1,1.1,0,0,1-.3.8,1.6,1.6,0,0,1-.8.5H200.7a1.7,1.7,0,0,1-1.7-1.3h0v-3.8h0a1.6,1.6,0,0,1,1.7-1.4H273a.1.1,0,0,1,.1.1h0A1.3,1.3,0,0,1,273.4,290.3Z"/><path class="cls-16" d="M238.6,295.5H200.5a1.5,1.5,0,0,1-1.5-1.3h0v-3.8h0a1.5,1.5,0,0,1,1.5-1.4h33.4v.2a11.5,11.5,0,0,0,4.7,6.4Z"/><rect class="cls-16" x="264" y="288.9" width="0.8" height="6.63"/><rect class="cls-16" x="261.3" y="288.9" width="0.8" height="6.63"/><rect class="cls-16" x="258" y="288.9" width="0.8" height="6.63"/><rect class="cls-16" x="253" y="288.9" width="0.8" height="6.63"/><rect class="cls-16" x="247.7" y="288.9" width="0.8" height="6.63"/><rect class="cls-16" x="239.5" y="288.9" width="0.8" height="6.63"/><rect class="cls-16" x="231.9" y="288.9" width="0.8" height="6.63"/><rect class="cls-16" x="225.1" y="288.9" width="0.8" height="6.63"/><rect class="cls-16" x="266.6" y="288.9" width="0.8" height="6.63"/><rect class="cls-16" x="268.3" y="288.9" width="0.8" height="6.63"/><rect class="cls-16" x="270" y="288.9" width="0.8" height="6.63"/><path class="cls-16" d="M272,288.9v6.6h-.8v-6.6h.8Z"/><path class="cls-16" d="M273.1,289.5v5.4a1.6,1.6,0,0,1-.8.5V289A1.6,1.6,0,0,1,273.1,289.5Z"/><path class="cls-15" d="M278.7,283.9v3.7a1.9,1.9,0,0,1-.3.8,1.6,1.6,0,0,1-.8.6H205.9l-.7-.2a1.5,1.5,0,0,1-1-1.2h0v-3.7h0a1.7,1.7,0,0,1,1.5-1.4h71.9a1.6,1.6,0,0,1,.8.6A1.9,1.9,0,0,1,278.7,283.9Z"/><path class="cls-16" d="M243.8,289.1h-38l-.7-.2a1.4,1.4,0,0,1-.9-1.2h0v-3.7h0a1.6,1.6,0,0,1,1.4-1.4h33.5a11.5,11.5,0,0,0,4.5,6.5C243.6,289,243.7,289,243.8,289.1Z"/><rect class="cls-16" x="269.2" y="282.4" width="0.8" height="6.63"/><rect class="cls-16" x="266.5" y="282.4" width="0.8" height="6.63"/><rect class="cls-16" x="263.2" y="282.4" width="0.8" height="6.63"/><rect class="cls-16" x="258.2" y="282.4" width="0.8" height="6.63"/><rect class="cls-16" x="252.9" y="282.4" width="0.8" height="6.63"/><rect class="cls-16" x="244.7" y="282.4" width="0.8" height="6.63"/><rect class="cls-16" x="237.1" y="282.4" width="0.8" height="6.63"/><rect class="cls-16" x="230.3" y="282.4" width="0.8" height="6.63"/><rect class="cls-16" x="271.8" y="282.4" width="0.8" height="6.63"/><rect class="cls-16" x="273.5" y="282.4" width="0.8" height="6.63"/><rect class="cls-16" x="275.2" y="282.4" width="0.8" height="6.63"/><path class="cls-16" d="M277.2,282.5V289h-.8v-6.7h.8Z"/><path class="cls-16" d="M278.4,283.1v5.3a1.6,1.6,0,0,1-.8.6v-6.5A1.6,1.6,0,0,1,278.4,283.1Z"/><path class="cls-15" d="M280.9,277.3V281a1.1,1.1,0,0,1-.3.8l-.8.5H208.2c-.9,0-1.7-.6-1.7-1.3h-.1v-3.7c0-.1,0-.1.1-.1a1.6,1.6,0,0,1,1.7-1.4h71.6l.8.5A1.6,1.6,0,0,1,280.9,277.3Z"/><path class="cls-16" d="M246,282.4H208a1.4,1.4,0,0,1-1.5-1.3h-.1v-3.7c0-.1,0-.1.1-.1a1.5,1.5,0,0,1,1.5-1.4h33.3a11.5,11.5,0,0,0,4.7,6.6Z"/><rect class="cls-16" x="271.4" y="275.8" width="0.8" height="6.63"/><rect class="cls-16" x="268.7" y="275.8" width="0.8" height="6.63"/><rect class="cls-16" x="265.4" y="275.8" width="0.8" height="6.63"/><rect class="cls-16" x="260.4" y="275.8" width="0.8" height="6.63"/><rect class="cls-16" x="255.1" y="275.8" width="0.8" height="6.63"/><rect class="cls-16" x="247" y="275.8" width="0.8" height="6.63"/><rect class="cls-16" x="239.3" y="275.8" width="0.8" height="6.63"/><rect class="cls-16" x="232.5" y="275.8" width="0.8" height="6.63"/><rect class="cls-16" x="274" y="275.8" width="0.8" height="6.63"/><rect class="cls-16" x="275.7" y="275.8" width="0.8" height="6.63"/><rect class="cls-16" x="277.4" y="275.8" width="0.8" height="6.63"/><path class="cls-16" d="M279.5,275.8v6.6h-.8v-6.6h.8Z"/><path class="cls-16" d="M280.6,276.4v5.4l-.8.5v-6.4Z"/><circle class="cls-14" cx="202.3" cy="314.4" r="33.7" transform="matrix(0.15, -0.99, 0.99, 0.15, -138.23, 468.79)"/><circle class="cls-15" cx="199.4" cy="314.4" r="33.7" transform="translate(-159 415.3) rotate(-73.3)"/><path class="cls-16" d="M199.4,345.6a30.9,30.9,0,0,1-30.8-30.8,30.2,30.2,0,0,1,9.1-21.7,30.7,30.7,0,1,1,21.7,52.5Zm0-59.7a28.9,28.9,0,1,0,28.9,28.9A28.9,28.9,0,0,0,199.4,285.9Z"/><path class="cls-16" d="M203.6,323.8a3.5,3.5,0,0,0-.1-1.8,2.6,2.6,0,0,0-.7-1.5,6.4,6.4,0,0,0-1.5-1.3,12.7,12.7,0,0,0-2.4-1.4,34.5,34.5,0,0,1-4.3-2.3,14.3,14.3,0,0,1-3.2-2.7,8,8,0,0,1-1.9-3.2,8.9,8.9,0,0,1-.3-4.1,8,8,0,0,1,1.1-3.5,7.8,7.8,0,0,1,2.4-2.7,11.9,11.9,0,0,1,3.4-1.6,14.5,14.5,0,0,1,4.3-.5l.6-5.1,4,.5-.6,5.2a12.3,12.3,0,0,1,3.9,1.6A9.6,9.6,0,0,1,211,302a8.6,8.6,0,0,1,1.6,3.5,12.9,12.9,0,0,1,.1,4.4l-7.3-.9a6.6,6.6,0,0,0-.8-4.4,4.5,4.5,0,0,0-3.2-1.8,6.4,6.4,0,0,0-2,.1,5.2,5.2,0,0,0-1.5.7,3.4,3.4,0,0,0-.9,1.2,4.9,4.9,0,0,0-.5,1.6,9.1,9.1,0,0,0,.1,1.7,3.1,3.1,0,0,0,.7,1.4,10,10,0,0,0,1.5,1.3l2.5,1.4c1.5.8,3,1.6,4.2,2.4a18.4,18.4,0,0,1,3.3,2.7,10.4,10.4,0,0,1,1.9,3.2,9.2,9.2,0,0,1,.3,4.1,9.6,9.6,0,0,1-1.2,3.6,7.8,7.8,0,0,1-2.4,2.7,8.8,8.8,0,0,1-3.4,1.5,14.5,14.5,0,0,1-4.3.5l-.5,4.7-4.1-.5.6-4.7a17.2,17.2,0,0,1-4-1.4,10,10,0,0,1-5.3-6.1,11.6,11.6,0,0,1-.4-5l7.4.9a8.4,8.4,0,0,0,.1,2.8,5.5,5.5,0,0,0,1.1,2,3.9,3.9,0,0,0,1.7,1.1,6.6,6.6,0,0,0,2,.6h2.1a4.4,4.4,0,0,0,1.7-.7,2.9,2.9,0,0,0,1-1.2A2.7,2.7,0,0,0,203.6,323.8Z"/><path class="cls-25" d="M172,197.9c.1-.4-8.8,4-9.3,4.5-4.1,4.6-3,10.7-.6,10.8s1.3,2.5,1.3,2.5l17.1-7.2S178.4,196.5,172,197.9Z"/><path class="cls-25" d="M174.1,198.8s.6-6.6-6.8-6.6a9,9,0,0,1,3.4,1.8s-4.7-2.8-9.9,1.5-2,15-3.5,17-7.7,2.5-7,9.1,19.4,14.8,18.2,20.3c0,0,7.4-10.8,2.1-15.7,0,0,2.6,2.4,2.8,5.3,0,0,.7-5.6-2.8-7.4s-5.7-7.3-5.5-8.4S174.1,198.8,174.1,198.8Z"/><path class="cls-26" d="M167.4,230.1c-1.2-5.5-8.4-7.2-11.7-2.7a5,5,0,0,0-1.2,2.9c-.8,6.3,9.2,31.8,10.7,34.2,2.6,4.2,18,18.6,18,18.6l2.8-1.7s-10.9-18.5-12.6-20.2S169.5,240.6,167.4,230.1Z"/><path class="cls-26" d="M182.1,281.4s4.1-2.7,5.7-2.6,6.1,1.5,6.2,2.2-5.1,1.1-5.4,1.4-3.8,2.7-5.1,2S182.1,281.4,182.1,281.4Z"/><path class="cls-22" d="M153.2,342.8l-3.7-.5a44.1,44.1,0,0,1-14.3-28.4,35.7,35.7,0,0,1-.1-5.7,1.3,1.3,0,0,0-.1-.6h0c-.4-.6-1.4-2.1-2.7-4.3s-3.6-6.2-6.1-10.8c-4.5-8.1-9.7-17.9-11.5-21-5.7-10-3-16.7-3-16.7s16-1.5,20.3-5.3l1.6,2.4s3.4,15.2,3.3,15.3a9.8,9.8,0,0,0,.5,1.6,267,267,0,0,1,7.6,27.5,51.8,51.8,0,0,1,1.2,11.8,24.4,24.4,0,0,0,.2,4.4C148,323.4,153.2,342.8,153.2,342.8Z"/><path class="cls-21" d="M161,347.5H145.5a8.8,8.8,0,0,1,.5-4.1c.7-1.8,1.8-1.8.1-4.5,1,1,4.1,1.4,6.4,1.1.3.5,1.7,3.4,2.7,4.1S160.7,344.6,161,347.5Z"/><path class="cls-21" d="M137.4,268.8c-1.4,7.4-4.5,19.8-11.2,23.7-4.5-8.1-9.7-17.9-11.5-21-5.7-10-3-16.7-3-16.7s16-1.5,20.3-5.3l1.6,2.4s3.4,15.2,3.3,15.3A9.8,9.8,0,0,0,137.4,268.8Z"/><path class="cls-6" d="M165.7,226.7a16.9,16.9,0,0,1,3.2,5s-3.5,10-11.6,11.3C157.3,243,163.7,226.7,165.7,226.7Z"/><path class="cls-22" d="M126.6,256v-2.9c-5.7.7-19.8-6.9-19.8-6.9s-6,4-6.8,15.5c-.4,5.5-3,29.1-3.3,36.2-.1,2.5-.1,4.3-.1,5.1h0a.9.9,0,0,1-.3.6,30.3,30.3,0,0,0-3.1,4.8c-8.8,16.3-4.2,38.5-4.2,38.5l2.1-.6s7.4-22.9,12.2-32.9a32.8,32.8,0,0,1,2.2-3.8c1.9-2.2,3.8-5.9,5.7-10.5,3.6-8.5,7-19.8,9.5-28.6C120.9,270.6,126.6,256,126.6,256Z"/><path class="cls-9" d="M160.2,236.7c-9.4-2.1-3.4-15.3-2.8-15.1s4.1-2.6,6.7-7l.3.3,5.8,5s-1.3,2-2.4,3.9-1.7,3-1.5,3.5S162.7,237.3,160.2,236.7Z"/><path class="cls-26" d="M170.2,219.9s-1.3,2-2.4,3.9c-3.6-2.2-3.6-6.6-3.4-8.9Z"/><path class="cls-9" d="M170.4,222.5s-8.7-4.9-5.6-10.3,4-9.6,9.7-6.7,5.6,5.5,5,7.6S172.7,223.6,170.4,222.5Z"/><path class="cls-25" d="M181,209.9c-.4-2.4-1.6-2.6-2.5-2.4a6.8,6.8,0,0,0-8.4-3.3,12.2,12.2,0,0,1-6.9,4.1s1,1.9,5.2,3.1a8.4,8.4,0,0,0,4.1-.3,23.2,23.2,0,0,1-5.9,2.2c5.5.5,10.7-4.5,11.2-5.1a8.1,8.1,0,0,1,.5,3.6c-.4,1.7-1.8,4.6-1,5S181.6,213.5,181,209.9Z"/><path class="cls-21" d="M101.3,347.5H85.9a8.2,8.2,0,0,1,.4-4.1c.8-1.8,2-2.5,1.7-4.6a5.6,5.6,0,0,0,4.8,1.8,18.4,18.4,0,0,0,2.7,3.5C96.5,344.8,101,344.6,101.3,347.5Z"/><path class="cls-10" d="M161.3,247.2a35.7,35.7,0,0,1-7.6,1.4c-4,.4-8.2.7-10.4,1.6s-1.4.7-1.5,1.2c-1,2.9-5.2,7.3-5.2,7.3-26.9-1.2-29.8-12.5-29.8-12.5,18.1-21,48.7-27.1,48.7-27.1s2.2-.9,7.7,3.5c3.7,2.9,3.2,4,3.2,4S167.2,245.2,161.3,247.2Z"/><path class="cls-6" d="M153.7,248.6c-4,.4-8.2.7-10.4,1.6a43,43,0,0,1,5.4-23.5S152.8,243.5,153.7,248.6Z"/><path class="cls-9" d="M157.9,224.1s-10.2,1-11,7.6,9.8,33.6,11.3,36c2.7,4.4,18.9,19.6,18.9,19.6l3-1.8s-11.5-19.4-13.3-21.3S161.3,226.4,157.9,224.1Z"/><path class="cls-10" d="M147.2,235.7c0,.2,9.4,3.1,15.4,0,0,0,1.3-13.9-5.9-13.1s-11.4,3-11.6,6.4A11.9,11.9,0,0,0,147.2,235.7Z"/><path class="cls-9" d="M176.2,285.4s3.7-3.3,5.2-3.4,6.3.5,6.5,1.1-4.8,1.9-5.1,2.3-3.4,3.3-4.7,2.8S176.2,285.4,176.2,285.4Z"/><path class="cls-27" d="M536.3,127a13.9,13.9,0,1,0-27.7.1,13.6,13.6,0,0,0,4,9.7,15.7,15.7,0,0,1,4.1,7l1.1,4.2h9.1l1.1-3.9a16,16,0,0,1,4.2-7.2A14,14,0,0,0,536.3,127Z"/><path class="cls-28" d="M524.6,152.8h-4.5a2.4,2.4,0,0,1-2.4-2.1l-.4-4.5h10.1l-.4,4.6A2.4,2.4,0,0,1,524.6,152.8Z"/><path class="cls-29" d="M526.5,148.1H518c-.2,0-.2.4.1.4h8.4A.3.3,0,0,0,526.5,148.1Z"/><path class="cls-29" d="M526.5,149.3H518c-.2,0-.2.4.1.4,2.8.1,5.6-.1,8.4,0A.3.3,0,0,0,526.5,149.3Z"/><path class="cls-27" d="M523.6,106.1c0,.9-.5,4.1-1.1,4.1s-1-3.2-1-4.1.4-1.6,1-1.6S523.6,105.2,523.6,106.1Z"/><path class="cls-27" d="M536.8,111c-.7.6-2.8,3.1-2.4,3.5s3.1-1.3,3.8-1.9.9-1.4.5-1.8S537.5,110.4,536.8,111Z"/><path class="cls-27" d="M542,125.4c-.9.1-4.2,0-4.2-.6s3-1.4,3.9-1.5,1.7.2,1.8.8A1.5,1.5,0,0,1,542,125.4Z"/><path class="cls-27" d="M509.4,110c.7.5,3,2.9,2.6,3.3s-3.2-1.1-3.9-1.7-1-1.3-.6-1.8S508.7,109.4,509.4,110Z"/><path class="cls-27" d="M502.7,123.1c.9.1,4.1,0,4.2-.6s-3-1.4-3.9-1.5-1.7.2-1.8.8A1.5,1.5,0,0,0,502.7,123.1Z"/><path class="cls-20" d="M528.4,134.1a2.9,2.9,0,0,1-1-1.2,4.9,4.9,0,0,0,.8-2.3,6.1,6.1,0,0,0,.1-1.4,1.4,1.4,0,0,0-.4-1.1.8.8,0,0,0-1.1.2,2.4,2.4,0,0,0-.6,1.1,7,7,0,0,0-.1,2.5c.1.3.1.5.2.8l-.6.4a1.4,1.4,0,0,1-1.7-.9l-.2-.3.2-.5a10.3,10.3,0,0,0,.5-2.4c0-.7,0-1.5-.6-1.8s-.4-.1-.6.1a5.1,5.1,0,0,0-.4,4.5,6.1,6.1,0,0,1-.5,1.2c-.3.4-.7,1-1.3.9s-.9-.7-1.1-1.1a4.1,4.1,0,0,1-.5-.9l.2-.5a15.5,15.5,0,0,0,.4-2.1c0-.6.1-1.5-.6-1.8s-.5,0-.6.2a6.9,6.9,0,0,0-.3,4,.1.1,0,0,0,.1.1,7.5,7.5,0,0,1-1.8,2.8c-.3.3.2.9.6.5a11.2,11.2,0,0,0,1.6-2.2l.4.6a2.3,2.3,0,0,0,1.7,1.2c.7.1,1.3-.5,1.7-1.1a2.2,2.2,0,0,0,.5-.8,2.3,2.3,0,0,0,1.6,1.1,2.5,2.5,0,0,0,1.7-.4,3.7,3.7,0,0,0,1.2,1.3C528.4,135.3,529,134.5,528.4,134.1Zm-4.7-5.8c0,.3-.1.8-.1,1a5.2,5.2,0,0,1-.2,1.1A3.6,3.6,0,0,1,523.7,128.3Zm3.2,2.1a3.6,3.6,0,0,1,.2-1l.2-.4h.1a6,6,0,0,1-.3,2.6v.2A6.1,6.1,0,0,1,526.9,130.4Z"/><path class="cls-20" d="M529.2,132.1c-1.4,4.5-3,9-4.7,13.4-.2.5.7.9.8.3,1.7-4.4,3.3-8.9,4.6-13.5C530.1,131.9,529.4,131.6,529.2,132.1Z"/><path class="cls-20" d="M515.8,131.8q1.8,6.9,3.3,13.8a.4.4,0,1,0,.8-.1c-1-4.7-2.1-9.3-3.3-13.9C516.4,131.2,515.7,131.3,515.8,131.8Z"/></svg>