<svg id="Layer_1" data-name="Layer 1" xmlns="http://www.w3.org/2000/svg" viewBox="0 0 612 407"><defs><style>.cls-1{fill:#e8f2fa;}.cls-2{opacity:0.5;isolation:isolate;}.cls-3{fill:#a9c2ff;}.cls-4{fill:#1c3a3e;}.cls-5{fill:#9bf;}.cls-6{fill:#0a1a66;}.cls-7{fill:#ff4b42;}.cls-8{fill:#e2810e;}.cls-9{fill:#ffa412;}.cls-10{fill:#fff;}.cls-11{fill:#c48d10;}.cls-12{fill:#f9ddbf;}.cls-13{fill:#dcf6f9;}.cls-14{fill:#27c16c;}.cls-15{fill:#ff7b35;}.cls-16{fill:#ffb27d;}.cls-17{fill:#233862;}.cls-18{fill:#2b478b;}.cls-19{fill:#ed975d;}.cls-20{fill:#d35e2a;}.cls-21{fill:#afafaf;}.cls-22{fill:#707070;}.cls-23{fill:#e0c6ad;opacity:0.62;}</style></defs><path class="cls-1" d="M101.1,353.2c-57.3,0-68.6-76.4-7-130.5,12.9-11.3,18.5-25.9,16.8-42s-13.8-34.3-7.8-51.2c14.7-41.3,59.7-41.2,79.6-47.1,35-10.3,34.4-16.3,67.7-29.9,86.6-35.4,185-12.1,245.3,53.7,24.5,26.7,34.1,57.3,25.3,91.9-16.8,65.8-9.5,74.4,6.4,96.1s13.2,59,3.5,59Z"/><g class="cls-2"><rect class="cls-3" x="160.3" y="255.8" width="33.7" height="52.54" rx="7.7"/><rect class="cls-3" x="203.9" y="219" width="33.7" height="89.34" rx="7.7"/><rect class="cls-3" x="247.5" y="179.1" width="33.7" height="129.27" rx="7.3"/><rect class="cls-3" x="291.1" y="139.3" width="33.7" height="169.04" rx="7.4"/><rect class="cls-3" x="334.7" y="111" width="33.7" height="197.34" rx="7.3"/></g><path class="cls-4" d="M247,127.7a1.5,1.5,0,0,1-1.1-.4,1.9,1.9,0,0,1-.7-1.2l-.3-2.5a1.7,1.7,0,0,0-1-1.3h-.5a1.6,1.6,0,0,0-1.6.4l-1.8,2a1.6,1.6,0,0,1-1.2.6,1.9,1.9,0,0,1-1.3-.5l-2.2-2a1.9,1.9,0,0,1-.1-2.6l1.6-1.7a1.5,1.5,0,0,0,.2-1.7h0a1.5,1.5,0,0,0-1.5-.7l-2.1.3a2.3,2.3,0,0,1-1.4-.4,1.9,1.9,0,0,1-.7-1.2l-.4-2.9a1.9,1.9,0,0,1,1.6-2.1l2.1-.3a1.6,1.6,0,0,0,1.3-1.1h0a1.6,1.6,0,0,0-.7-1.7l-1.9-1.2a1.8,1.8,0,0,1-.6-2.5l1.5-2.5a2,2,0,0,1,1.2-.8,1.3,1.3,0,0,1,1.3.2l2.3,1.4a1.5,1.5,0,0,0,1.6,0l.4-.3a1.6,1.6,0,0,0,.7-1.4l-.4-2.6a1.8,1.8,0,0,1,1.6-2l2.8-.4a1.7,1.7,0,0,1,1.4.3,2.1,2.1,0,0,1,.7,1.3l.2,1.8a1.5,1.5,0,0,0,1.3,1.3l1.6.4a1.4,1.4,0,0,0,1.5-.4l1.6-1.8a3.1,3.1,0,0,1,1.3-.6,2.1,2.1,0,0,1,1.3.5l2.1,2a1.8,1.8,0,0,1,.1,2.6l-1.1,1.3a1.4,1.4,0,0,0-.2,1.7l.2.4a1.8,1.8,0,0,0,1.5.8l1.5-.2a1.7,1.7,0,0,1,2,1.5l.4,2.9a1.7,1.7,0,0,1-1.5,2.1l-1.5.2a1.8,1.8,0,0,0-1.3,1.1.9.9,0,0,1-.1.5,1.4,1.4,0,0,0,.7,1.6l1.4.9a2,2,0,0,1,.6,2.6l-1.6,2.4a1.4,1.4,0,0,1-1.1.9,1.7,1.7,0,0,1-1.4-.3l-2-1.2a1.5,1.5,0,0,0-1.6,0l-1.4.8a1.5,1.5,0,0,0-.9,1.5l.3,1.9a1.9,1.9,0,0,1-1.6,2.1l-2.9.4Zm-4.1-5.9H244a1.9,1.9,0,0,1,1.2,1.5l.3,2.6a2.1,2.1,0,0,0,.6,1,1.4,1.4,0,0,0,1.1.2l2.9-.3a1.5,1.5,0,0,0,1.2-1.7l-.2-1.9a1.8,1.8,0,0,1,1-1.9l1.4-.8a1.8,1.8,0,0,1,2,0l2,1.2a1.4,1.4,0,0,0,1.1.2,1.5,1.5,0,0,0,.9-.6l1.6-2.5a1.6,1.6,0,0,0-.5-2.1l-1.4-.9a1.8,1.8,0,0,1-.8-2c0-.2.1-.3.1-.4a1.7,1.7,0,0,1,1.5-1.4l1.5-.2a1.6,1.6,0,0,0,1.3-1.7l-.4-2.9a1.7,1.7,0,0,0-.6-1,2,2,0,0,0-1.1-.3l-1.5.2a1.9,1.9,0,0,1-1.8-.9c-.1-.1-.1-.3-.2-.4a2,2,0,0,1,.2-2.2l1.2-1.2a1.5,1.5,0,0,0-.1-2.1l-2.1-2a1.5,1.5,0,0,0-1.1-.4,1.2,1.2,0,0,0-1,.5l-1.6,1.7a1.6,1.6,0,0,1-1.9.5l-1.6-.3a1.9,1.9,0,0,1-1.5-1.6l-.3-1.9a1.4,1.4,0,0,0-.5-1,2,2,0,0,0-1.1-.3l-2.9.4a1.5,1.5,0,0,0-1.2,1.7l.3,2.5a1.8,1.8,0,0,1-.8,1.8l-.4.3a1.8,1.8,0,0,1-2,0l-2.3-1.4a1.4,1.4,0,0,0-1.1-.2,1.5,1.5,0,0,0-.9.7l-1.5,2.4a1.6,1.6,0,0,0,.5,2.1l1.9,1.2a1.9,1.9,0,0,1,.8,2h0a1.9,1.9,0,0,1-1.5,1.4l-2.2.2a1.5,1.5,0,0,0-1.2,1.7l.4,2.9a1.2,1.2,0,0,0,.5,1,1.1,1.1,0,0,0,1.1.3l2.1-.3a1.9,1.9,0,0,1,1.9,1h0a1.7,1.7,0,0,1-.3,2.1l-1.5,1.7a1.6,1.6,0,0,0,.1,2.2l2.1,1.9a1.1,1.1,0,0,0,1,.4,1.5,1.5,0,0,0,1.1-.4l1.8-2A1.6,1.6,0,0,1,242.9,121.8Z"/><path class="cls-4" d="M247.5,117.8a7.1,7.1,0,0,1-4.1-1.6,7.9,7.9,0,0,1-3.2-5c-.5-3.5,2.9-6.7,6.1-7.1a5.2,5.2,0,0,1,3.9,1.1,8.2,8.2,0,0,1,3,5.4,6.1,6.1,0,0,1-5.1,7.1h-.6Zm-.5-13.4h-.6c-3.1.5-6.3,3.4-5.8,6.8a7,7,0,0,0,3,4.7,6.4,6.4,0,0,0,4.5,1.5h0c3.1-.4,5.2-3.4,4.8-6.8a8.2,8.2,0,0,0-2.9-5.1A5.3,5.3,0,0,0,247,104.4Z"/><path class="cls-4" d="M459.3,249.8a3.3,3.3,0,0,1-1.9-.6,3.2,3.2,0,0,1-1.2-2.1l-.6-4.4a2.7,2.7,0,0,0-1.8-2.3l-.8-.2a2.7,2.7,0,0,0-2.9.7l-3.2,3.5a2.8,2.8,0,0,1-2.1,1,2.7,2.7,0,0,1-2.2-.8l-3.7-3.5a3.1,3.1,0,0,1-.2-4.4l2.7-3a2.7,2.7,0,0,0,.4-3.2h0a2.5,2.5,0,0,0-2.7-1.4l-3.8.5a3.1,3.1,0,0,1-3.4-2.7l-.7-5.1a3,3,0,0,1,2.6-3.4l3.8-.6a2.7,2.7,0,0,0,2.3-2h0a3,3,0,0,0-1.2-3l-3.5-2.1a3.2,3.2,0,0,1-.9-4.3l2.7-4.4a2.6,2.6,0,0,1,1.9-1.3,2.7,2.7,0,0,1,2.3.4l4,2.5a2.6,2.6,0,0,0,2.9-.1l.7-.4a2.7,2.7,0,0,0,1.2-2.7l-.6-4.5a3.2,3.2,0,0,1,2.7-3.5l5-.6a3.1,3.1,0,0,1,3.4,2.6l.5,3.3a2.7,2.7,0,0,0,2.2,2.4,12.8,12.8,0,0,1,2.8.7,2.7,2.7,0,0,0,2.8-.8l2.9-3.1a2.8,2.8,0,0,1,2.1-1,3.5,3.5,0,0,1,2.2.8l3.7,3.5a3.1,3.1,0,0,1,.2,4.4l-2,2.2a2.6,2.6,0,0,0-.3,3.2l.3.7a2.7,2.7,0,0,0,2.7,1.4l2.7-.4a3.1,3.1,0,0,1,3.4,2.7l.7,5.1a3.2,3.2,0,0,1-2.6,3.5l-2.7.3a2.7,2.7,0,0,0-2.2,2.1,1.9,1.9,0,0,0-.2.7,2.8,2.8,0,0,0,1.2,3.1l2.5,1.5a3.2,3.2,0,0,1,.9,4.3l-2.7,4.4a3,3,0,0,1-1.9,1.4,3.7,3.7,0,0,1-2.3-.4l-3.5-2.3a2.8,2.8,0,0,0-2.9.1l-2.5,1.4a2.6,2.6,0,0,0-1.6,2.8l.4,3.3a3.1,3.1,0,0,1-2.6,3.5l-5,.7Zm-7.2-10.1a1.8,1.8,0,0,1,1,.2l.8.2a3.3,3.3,0,0,1,2.1,2.6l.6,4.4a2.8,2.8,0,0,0,3,2.4l5-.7a2.8,2.8,0,0,0,2.4-3.1l-.5-3.3a3.2,3.2,0,0,1,1.8-3.3l2.5-1.3a3,3,0,0,1,3.3-.1l3.5,2.3a2.4,2.4,0,0,0,2,.3,2.2,2.2,0,0,0,1.7-1.2l2.7-4.4a2.8,2.8,0,0,0-.8-3.8l-2.5-1.5a3.3,3.3,0,0,1-1.4-3.5,1.9,1.9,0,0,0,.2-.7,3,3,0,0,1,2.6-2.3l2.6-.4a2.8,2.8,0,0,0,2.4-3.1l-.7-5.1a2.7,2.7,0,0,0-1.1-1.8,2.9,2.9,0,0,0-2-.5l-2.6.3a3,3,0,0,1-3.1-1.5,1.6,1.6,0,0,0-.4-.7,3.4,3.4,0,0,1,.4-3.7l2-2.2a2.7,2.7,0,0,0-.1-3.8l-3.7-3.5a3.2,3.2,0,0,0-2-.8,3.4,3.4,0,0,0-1.9.9l-2.8,3.1a3.2,3.2,0,0,1-3.2.9l-2.7-.7a3.1,3.1,0,0,1-2.6-2.6l-.4-3.3a2.7,2.7,0,0,0-3.1-2.4l-5,.7a2.7,2.7,0,0,0-2.3,3.1l.6,4.4a3.4,3.4,0,0,1-1.4,3.1l-.7.4a3,3,0,0,1-3.3.1l-4-2.5a2.5,2.5,0,0,0-2.1-.4,2.5,2.5,0,0,0-1.6,1.2l-2.7,4.4a2.8,2.8,0,0,0,.8,3.8l3.5,2.2a3,3,0,0,1,1.3,3.3h0a3.1,3.1,0,0,1-2.6,2.4l-3.7.5a2.8,2.8,0,0,0-2.4,3.1l.7,5.1a2.7,2.7,0,0,0,1.1,1.8,2.4,2.4,0,0,0,2,.6l3.7-.6a3.2,3.2,0,0,1,3.1,1.6h0a3,3,0,0,1-.4,3.6l-2.7,3a2.7,2.7,0,0,0,.1,3.9l3.7,3.4a3.2,3.2,0,0,0,2,.8,3.4,3.4,0,0,0,1.9-.9l3.2-3.5A2.8,2.8,0,0,1,452.1,239.7Z"/><path class="cls-4" d="M460.2,232.4a12,12,0,0,1-7.2-2.7c-3-2.3-5.1-5.5-5.5-8.6-.8-6.2,4.9-11.6,10.6-12.4a9,9,0,0,1,6.6,1.9,15.1,15.1,0,0,1,5.4,9.4c.8,6.1-3.1,11.6-8.9,12.3h-1Zm-1-23.4h-1c-5.6.7-11.1,6-10.4,11.9a13.6,13.6,0,0,0,5.4,8.4,11.3,11.3,0,0,0,8,2.6c5.6-.8,9.3-6,8.5-12a13.7,13.7,0,0,0-5.2-9.1A8.6,8.6,0,0,0,459.2,209Z"/><g class="cls-2"><path class="cls-5" d="M190.7,149.1h5.9a4.2,4.2,0,0,0,3.9-4.3l-.2-7.2a4.2,4.2,0,0,0-4.2-4l-4.1.2a4,4,0,0,1-3.9-2.8,3,3,0,0,0-.4-1,4.2,4.2,0,0,1,1.2-4.5l2.8-2.5a4.2,4.2,0,0,0,.4-5.8l-4.7-5.4a4,4,0,0,0-5.7-.4l-2.8,2.5a4,4,0,0,1-4.5.6,3.1,3.1,0,0,0-1-.5,4.1,4.1,0,0,1-2.2-4.3l.7-4.2a4.2,4.2,0,0,0-3.4-4.7l-7-1.1a3.9,3.9,0,0,0-4.6,3.4l-.9,5.8a4.1,4.1,0,0,1-2.9,3.3l-3.8,1.4a3.9,3.9,0,0,1-4.7-1l-3.1-3.5a4,4,0,0,0-5.7-.4l-5.3,4.7a4.1,4.1,0,0,0-.4,5.8l4.1,4.7a4.4,4.4,0,0,1,.7,4.4l-.5,1.1a3.9,3.9,0,0,1-3.6,2.5l-6.6.2a4,4,0,0,0-3.9,4.2l.2,7.2a4,4,0,0,0,4.1,4h5.7a4,4,0,0,1,3.9,2.7h0a4.2,4.2,0,0,1-1.1,4.5l-4,3.6a4,4,0,0,0-.4,5.7l4.7,5.5a4,4,0,0,0,5.7.3l4-3.5a3.9,3.9,0,0,1,4.5-.5h.1a4.2,4.2,0,0,1,2.1,4.3l-.9,5.6a4,4,0,0,0,3.3,4.7l7,1.2a4.2,4.2,0,0,0,4.7-3.4l1-6.6a4,4,0,0,1,3-3.3l1.1-.3a4,4,0,0,1,4.2,1.2l4,4.7a4,4,0,0,0,5.7.4l5.4-4.7a4.2,4.2,0,0,0,.4-5.8l-3.1-3.5a4.2,4.2,0,0,1-.3-4.9,30.2,30.2,0,0,0,1.8-3.6A4,4,0,0,1,190.7,149.1Zm-19.3,3.4c-6.2,5.5-18.8,3.9-24.3-2.4s-3.2-16.9,3-22.4,16.8-2.6,22.2,3.7S177.6,147,171.4,152.5Z"/></g><path class="cls-6" d="M160.5,186h-.6l-7.1-1.1a4.3,4.3,0,0,1-3.4-4.9l.9-5.7a4,4,0,0,0-2.1-4.1h0a3.8,3.8,0,0,0-4.4.5l-4,3.5a3.9,3.9,0,0,1-3,1.1,4,4,0,0,1-2.9-1.5l-4.7-5.4a4.2,4.2,0,0,1,.4-5.9l4-3.6a4,4,0,0,0,1.1-4.4h0a3.9,3.9,0,0,0-3.8-2.6h-5.7a3.6,3.6,0,0,1-2.9-1.1,4.2,4.2,0,0,1-1.3-3l-.2-7.2a4.1,4.1,0,0,1,4-4.3l6.6-.2a3.9,3.9,0,0,0,3.6-2.5,4.2,4.2,0,0,1,.4-1,4.2,4.2,0,0,0-.7-4.3l-4-4.7a4.3,4.3,0,0,1,.4-6l5.3-4.7a4.1,4.1,0,0,1,3-1,3.8,3.8,0,0,1,2.9,1.4l3,3.5a4,4,0,0,0,4.6,1,24.6,24.6,0,0,1,3.8-1.4,4.2,4.2,0,0,0,2.8-3.2l.9-5.8a4.1,4.1,0,0,1,1.7-2.8,3.8,3.8,0,0,1,3.1-.7l7,1.1a4.1,4.1,0,0,1,3.4,4.8L172,114a4,4,0,0,0,2.1,4.2l1,.5a3.8,3.8,0,0,0,4.3-.6l2.9-2.5a4.1,4.1,0,0,1,3-1,3.8,3.8,0,0,1,2.8,1.4l4.7,5.4a4.4,4.4,0,0,1-.4,6l-2.8,2.5a3.9,3.9,0,0,0-1.1,4.3l.3,1a3.9,3.9,0,0,0,3.9,2.7h4.1a4.5,4.5,0,0,1,4.3,4.1v7.2a4.2,4.2,0,0,1-4,4.4h-5.8a4,4,0,0,0-3.5,2.4,30.4,30.4,0,0,1-1.9,3.6,4,4,0,0,0,.4,4.8l3,3.5a4.4,4.4,0,0,1-.4,6l-5.3,4.7a4,4,0,0,1-3.1,1,3.5,3.5,0,0,1-2.8-1.4l-4.1-4.7a3.7,3.7,0,0,0-4-1.2l-1.1.3a3.8,3.8,0,0,0-2.9,3.2l-1.1,6.6a4.2,4.2,0,0,1-1.7,2.8A4.1,4.1,0,0,1,160.5,186Zm-14.1-16.6a4.3,4.3,0,0,1,1.9.4h.1a4.2,4.2,0,0,1,2.1,4.4l-.9,5.7a3.9,3.9,0,0,0,3.3,4.5l7,1.2a4.3,4.3,0,0,0,2.9-.7,4.3,4.3,0,0,0,1.6-2.6l1-6.6a4.3,4.3,0,0,1,3.1-3.5l1.1-.3a4.4,4.4,0,0,1,4.3,1.3l4.1,4.8a3.9,3.9,0,0,0,2.7,1.3,3.7,3.7,0,0,0,2.8-1l5.3-4.7a4,4,0,0,0,.4-5.6l-3-3.5a4.4,4.4,0,0,1-.4-5.1,20.2,20.2,0,0,0,1.8-3.6,4.1,4.1,0,0,1,3.7-2.5h0l5.9-.2a3.9,3.9,0,0,0,3.8-4.1l-.2-7.2a4.4,4.4,0,0,0-1.2-2.8,3.7,3.7,0,0,0-2.8-1h-4.1a4.2,4.2,0,0,1-4.1-2.9l-.3-1a4.2,4.2,0,0,1,1.1-4.6l2.9-2.5a4.1,4.1,0,0,0,.3-5.6l-4.7-5.4a3.8,3.8,0,0,0-2.6-1.4,3.8,3.8,0,0,0-2.9,1l-2.8,2.5a4.3,4.3,0,0,1-4.7.6l-.9-.5a4.3,4.3,0,0,1-2.3-4.5l.7-4.1a4,4,0,0,0-3.3-4.6l-7-1.1a3.9,3.9,0,0,0-2.9.7,4.2,4.2,0,0,0-1.6,2.6l-.9,5.8a4.1,4.1,0,0,1-3,3.4L150,118a4.1,4.1,0,0,1-4.9-1l-3-3.5a4.2,4.2,0,0,0-2.7-1.4,3.6,3.6,0,0,0-2.8,1l-5.4,4.7a4.1,4.1,0,0,0-.4,5.6l4.1,4.8a4,4,0,0,1,.7,4.4c-.1.4-.3.8-.4,1.1a4,4,0,0,1-3.8,2.6l-6.6.2a4.1,4.1,0,0,0-3.8,4.1l.2,7.2a4,4,0,0,0,1.2,2.8,4.3,4.3,0,0,0,2.8,1.1l5.7-.2a4.2,4.2,0,0,1,4,2.8h0a4.2,4.2,0,0,1-1.1,4.6l-4,3.5a4.1,4.1,0,0,0-.4,5.7l4.7,5.4a3.5,3.5,0,0,0,2.7,1.3,3.7,3.7,0,0,0,2.8-.9l4-3.6A4.2,4.2,0,0,1,146.4,169.4Z"/><polygon class="cls-7" points="405.7 330.6 405.7 327.3 454.4 327 454.3 330.6 405.7 330.6"/><path class="cls-8" d="M407.6,327.2c4.5-3.8,14.6-7.1,32-4.8,11.3,1.5,17.2,5.9,13.9,9.8S438,338.5,421,337C409.2,335.9,402.1,331.9,407.6,327.2Z"/><path class="cls-9" d="M407.6,323.9c4.5-3.7,14.6-7,32-4.8,11.3,1.5,17.2,5.9,13.9,9.8s-15.5,6.4-32.5,4.8C409.2,332.7,402.1,328.6,407.6,323.9Z"/><path class="cls-10" d="M432,333.5c-2.9,0-6.2-.2-9.6-.5-7.4-.6-12.4-2.7-13.2-5.2-.3-.9-.2-2.2,1.6-3.8h0c2.4-2,9.8-6.4,27.5-4.1,6.8.8,11.7,3.1,12.7,5.7a3.2,3.2,0,0,1-.6,3.2C447.8,331.9,441.4,333.5,432,333.5Zm-20.7-8.9c-1.2,1-1.7,2-1.4,3s5.6,4,12.5,4.7c14.4,1.3,24.1-.1,27.4-4a2.2,2.2,0,0,0,.5-2.4c-.9-2.4-5.7-4.4-12.1-5.3a57,57,0,0,0-17.6.1c-5.1,1-7.8,2.7-9.3,3.9Z"/><path class="cls-10" d="M425.7,330.7l.3-.5c.1-.2-.2-.3-.7-.4a13,13,0,0,1-3.2-.6c-.4-.1-.5-.3-.3-.4h.2a2.2,2.2,0,0,1,1.6-.1l3.7.5c2.4.2,3.9-.2,4.3-.9s-.1-1-2.4-1.5-6.2-1.6-5.5-2.6,2.8-1.6,6.8-1.3a1.7,1.7,0,0,0,1-.3l.4-.6c.1-.2.7-.3,1.3-.2h0c.6,0,.9.2.8.4l-.3.4c-.1.2.2.4.7.5l2.5.4c.4.1.5.3.2.5h-.2a3.5,3.5,0,0,1-1.5.1,15.3,15.3,0,0,0-3.2-.5c-2.6-.2-3.9.3-4.2.7s1.4.8,4,1.4,5,1.6,4.5,2.7-2.8,1.7-7.3,1.6c-.4,0-.9.1-1,.3l-.4.6c-.1.2-.7.3-1.3.2h0C425.9,331.1,425.6,330.9,425.7,330.7Z"/><polygon class="cls-11" points="451.5 312.5 451.5 308.7 505.2 308.4 505.1 312.5 451.5 312.5"/><path class="cls-8" d="M453.6,308.6c4.9-4.2,16-7.9,35.2-5.4,12.5,1.7,19,6.7,15.4,11s-17.1,7.2-35.9,5.5C455.4,318.4,447.5,313.9,453.6,308.6Z"/><path class="cls-9" d="M453.6,305c4.9-4.2,16-7.9,35.2-5.4,12.5,1.6,19,6.6,15.4,11s-17.1,7.1-35.9,5.4C455.4,314.8,447.5,310.2,453.6,305Z"/><path class="cls-10" d="M480.6,315.7a101.6,101.6,0,0,1-10.7-.5c-8.1-.8-13.7-3-14.6-5.9-.3-.9-.2-2.5,1.8-4.2l.3.3-.3-.3c2.6-2.3,10.8-7.3,30.3-4.7,7.5,1,12.9,3.5,14,6.5a3.1,3.1,0,0,1-.7,3.5c-1.9,2.4-5.5,3.9-10.9,4.7A63.6,63.6,0,0,1,480.6,315.7Zm-3.3-15.2a45.5,45.5,0,0,0-9.4.9c-5.6,1.1-8.6,2.9-10.2,4.3s-1.9,2.3-1.6,3.4,6.2,4.5,13.8,5.3c3.9.3,7.5.5,10.7.5,10,0,16.8-1.7,19.5-5a2.8,2.8,0,0,0,.6-2.7c-1.1-2.7-6.3-5-13.4-6A91.9,91.9,0,0,0,477.3,300.5Z"/><path class="cls-10" d="M473.5,312.6l.4-.6c.1-.2-.2-.4-.8-.4a25.6,25.6,0,0,1-3.6-.7c-.4-.1-.5-.3-.2-.5h.2a2.7,2.7,0,0,1,1.8-.1,18.9,18.9,0,0,0,4,.6c2.7.2,4.3-.3,4.8-1s-.2-1.2-2.7-1.8-6.9-1.7-6.1-2.8,3.1-1.8,7.6-1.6a1.1,1.1,0,0,0,1.1-.3l.4-.6c.1-.2.8-.3,1.4-.3h0c.6.1,1,.3.9.5l-.3.5c-.2.2.2.4.7.5a14.3,14.3,0,0,1,2.8.5c.5.1.6.3.2.5h-.2a3.1,3.1,0,0,1-1.7.1,19.2,19.2,0,0,0-3.4-.5c-2.9-.2-4.4.3-4.8.8s1.6.9,4.5,1.6,5.4,1.8,5,3-3.2,1.9-8.1,1.8a2.1,2.1,0,0,0-1.1.3l-.4.7a2.4,2.4,0,0,1-1.4.3h-.1C473.8,313,473.4,312.8,473.5,312.6Z"/><polygon class="cls-11" points="447.4 305.9 447.4 302.1 501.1 301.8 501 305.9 447.4 305.9"/><path class="cls-8" d="M449.5,302c4.9-4.2,16-7.9,35.2-5.3,12.5,1.6,19,6.6,15.4,11s-17.1,7.1-35.9,5.4C451.3,311.9,443.4,307.3,449.5,302Z"/><path class="cls-9" d="M449.5,298.4c4.9-4.2,16-7.9,35.2-5.4,12.5,1.6,19,6.6,15.4,11s-17.1,7.2-35.9,5.4C451.3,308.2,443.4,303.6,449.5,298.4Z"/><path class="cls-10" d="M476.5,309.2a104.5,104.5,0,0,1-10.7-.6c-8.1-.7-13.7-3-14.6-5.9-.3-.9-.2-2.4,1.8-4.2h0c2.6-2.3,10.8-7.2,30.3-4.7,7.5,1,12.9,3.5,14.1,6.5a3.7,3.7,0,0,1-.7,3.6c-2,2.3-5.6,3.9-11,4.7A63.6,63.6,0,0,1,476.5,309.2Zm-22.9-10.1c-1.4,1.2-1.9,2.3-1.6,3.4s6.3,4.6,13.8,5.3c15.9,1.5,26.6-.1,30.2-4.5a2.8,2.8,0,0,0,.6-2.7c-1.1-2.7-6.3-5-13.4-5.9s-14-1-19.4.1-8.6,3-10.2,4.3Z"/><path class="cls-10" d="M469.4,306l.4-.5c.1-.2-.2-.4-.8-.5a25.6,25.6,0,0,1-3.6-.7c-.4-.1-.5-.3-.2-.5h.2a2.7,2.7,0,0,1,1.8-.1,29.6,29.6,0,0,0,4,.7c2.7.2,4.3-.4,4.8-1.1s-.2-1.1-2.7-1.7-6.9-1.7-6.1-2.9,3.1-1.8,7.6-1.5a2.1,2.1,0,0,0,1.1-.3l.4-.7c.1-.2.8-.3,1.4-.3h0c.7.1,1.1.3.9.5l-.3.5c-.2.2.2.4.7.5a14.3,14.3,0,0,1,2.8.5c.5.1.6.3.2.5h-.2a2.4,2.4,0,0,1-1.7.1,19.2,19.2,0,0,0-3.4-.5c-2.9-.2-4.4.3-4.8.8s1.6.9,4.5,1.6,5.5,1.8,5,3-3.2,2-8,1.8a1.5,1.5,0,0,0-1.2.4l-.4.6a1.7,1.7,0,0,1-1.4.3h-.1C469.7,306.5,469.3,306.2,469.4,306Z"/><polygon class="cls-11" points="452.7 300.3 452.7 296.5 506.4 296.1 506.3 300.3 452.7 300.3"/><path class="cls-8" d="M454.8,296.4c4.9-4.2,16-7.9,35.2-5.4,12.5,1.6,19,6.6,15.4,11s-17.1,7.2-35.9,5.4C456.6,306.2,448.7,301.6,454.8,296.4Z"/><path class="cls-9" d="M454.8,292.7c4.9-4.2,16-7.9,35.2-5.4,12.5,1.7,19,6.7,15.4,11s-17.1,7.2-35.9,5.4C456.6,302.5,448.7,298,454.8,292.7Z"/><path class="cls-10" d="M481.8,303.5c-3.3,0-6.9-.2-10.8-.5-8-.8-13.6-3.1-14.5-5.9-.3-1-.2-2.5,1.8-4.3s10.8-7.2,30.3-4.6c7.5.9,12.8,3.4,14,6.4a3.3,3.3,0,0,1-.7,3.6c-1.9,2.3-5.6,3.9-10.9,4.7A63.6,63.6,0,0,1,481.8,303.5Zm-3.4-15.2a52.8,52.8,0,0,0-9.3.8c-5.6,1.1-8.6,3-10.3,4.4h0c-1.3,1.1-1.8,2.3-1.5,3.3.8,2.5,6.2,4.6,13.8,5.3,15.9,1.5,26.6-.1,30.2-4.4a2.7,2.7,0,0,0,.5-2.8c-1-2.6-6.3-5-13.4-5.9A70.1,70.1,0,0,0,478.4,288.3Z"/><polygon class="cls-11" points="451.5 292.5 451.5 288.7 505.2 288.4 505.1 292.5 451.5 292.5"/><path class="cls-8" d="M453.6,288.6c4.9-4.2,16-7.9,35.2-5.4,12.5,1.7,19,6.7,15.4,11s-17.1,7.2-35.9,5.4C455.4,298.4,447.5,293.9,453.6,288.6Z"/><path class="cls-9" d="M453.6,285c4.9-4.3,16-8,35.2-5.4,12.5,1.6,19,6.6,15.4,11s-17.1,7.1-35.9,5.4C455.4,294.8,447.5,290.2,453.6,285Z"/><path class="cls-10" d="M480.6,295.7a102.8,102.8,0,0,1-10.7-.5c-8.1-.8-13.7-3-14.6-5.9-.3-1-.2-2.5,1.8-4.2h0c2.6-2.3,10.8-7.3,30.3-4.7,7.5,1,12.9,3.5,14.1,6.5a3.5,3.5,0,0,1-.7,3.5c-2,2.3-5.6,3.9-11,4.7A63.6,63.6,0,0,1,480.6,295.7Zm-22.9-10c-1.4,1.2-1.9,2.3-1.6,3.4s6.3,4.5,13.8,5.2c15.9,1.5,26.6-.1,30.2-4.4a2.8,2.8,0,0,0,.6-2.7c-1.1-2.7-6.3-5-13.4-6s-14-.9-19.4.2-8.6,2.9-10.2,4.3Z"/><path class="cls-10" d="M473.5,292.6l.4-.6c.1-.2-.2-.4-.8-.4a25.6,25.6,0,0,1-3.6-.7c-.4-.1-.5-.3-.2-.5h.2a2.7,2.7,0,0,1,1.8-.1,18.9,18.9,0,0,0,4,.6c2.7.2,4.3-.3,4.8-1s-.2-1.2-2.7-1.8-6.9-1.7-6.1-2.8,3.1-1.8,7.6-1.6a1.1,1.1,0,0,0,1.1-.3l.4-.6c.1-.2.8-.3,1.4-.3h0c.7.1,1.1.3.9.5l-.3.5c-.2.2.2.4.7.5l2.8.4c.5.2.6.4.2.6h-.2a3.1,3.1,0,0,1-1.7.1,19.2,19.2,0,0,0-3.4-.5c-2.9-.2-4.4.3-4.8.8s1.6.9,4.5,1.6,5.5,1.8,5,3-3.2,1.9-8.1,1.8c-.5,0-1,.1-1.1.3l-.4.7c-.1.2-.8.3-1.4.3h-.1C473.8,293,473.4,292.8,473.5,292.6Z"/><polygon class="cls-11" points="182.7 316.6 182.7 312.6 237.3 312.3 237.2 316.6 182.7 316.6"/><path class="cls-8" d="M184.8,312.5c5-4.4,16.3-8.3,35.8-5.6,12.7,1.7,19.3,6.9,15.7,11.5s-17.4,7.5-36.5,5.7C186.7,322.8,178.6,318,184.8,312.5Z"/><path class="cls-9" d="M184.8,308.7c5-4.5,16.3-8.3,35.8-5.7,12.7,1.7,19.3,7,15.7,11.6s-17.4,7.5-36.5,5.7C186.7,319,178.6,314.2,184.8,308.7Z"/><path class="cls-10" d="M212.3,320a108.3,108.3,0,0,1-10.9-.6c-8.2-.8-13.8-3.1-14.8-6.1-.3-1-.3-2.6,1.8-4.5h0c2.7-2.4,11-7.6,30.8-4.9,7.5,1,13,3.6,14.2,6.7a3.6,3.6,0,0,1-.6,3.8c-2,2.4-5.7,4.1-11.2,4.9A51.8,51.8,0,0,1,212.3,320Zm-23.6-10.9.3.3c-1.4,1.3-1.9,2.5-1.6,3.6.9,2.6,6.4,4.8,14,5.5,16.1,1.6,27-.1,30.7-4.6a3,3,0,0,0,.5-3c-1.1-2.8-6.4-5.2-13.5-6.1a58.6,58.6,0,0,0-19.7.1c-5.7,1.1-8.8,3.1-10.4,4.5Z"/><polygon class="cls-11" points="188.1 310.5 188.1 306.5 242.7 306.2 242.6 310.5 188.1 310.5"/><path class="cls-8" d="M190.3,306.4c4.9-4.4,16.2-8.3,35.7-5.6,12.7,1.7,19.3,6.9,15.7,11.5s-17.4,7.5-36.5,5.7C192.1,316.7,184,311.9,190.3,306.4Z"/><path class="cls-9" d="M190.3,302.6c4.9-4.4,16.2-8.3,35.7-5.7,12.7,1.8,19.3,7,15.7,11.6s-17.4,7.5-36.5,5.7C192.1,312.9,184,308.1,190.3,302.6Z"/><path class="cls-10" d="M217.7,313.9a108.3,108.3,0,0,1-10.9-.6c-8.2-.8-13.8-3.1-14.8-6.1-.3-1-.3-2.6,1.8-4.5l.3.3-.3-.3c2.7-2.4,11-7.6,30.8-4.9,7.5,1,13,3.6,14.3,6.7a3.8,3.8,0,0,1-.7,3.8c-2,2.5-5.7,4.1-11.2,5A64.1,64.1,0,0,1,217.7,313.9Zm-3.4-16a46.5,46.5,0,0,0-9.5.9c-5.7,1.1-8.8,3.1-10.4,4.6h0c-1.4,1.2-1.9,2.4-1.6,3.5.9,2.6,6.4,4.8,14,5.6,16.1,1.5,27-.2,30.7-4.7a2.8,2.8,0,0,0,.5-3c-1.1-2.7-6.4-5.2-13.5-6.1A74.7,74.7,0,0,0,214.3,297.9Z"/><polygon class="cls-11" points="185.3 303.1 185.3 299.1 239.9 298.7 239.8 303.1 185.3 303.1"/><path class="cls-8" d="M187.4,299c5-4.5,16.3-8.3,35.8-5.7,12.7,1.7,19.3,7,15.7,11.6s-17.4,7.5-36.5,5.6C189.3,309.3,181.2,304.5,187.4,299Z"/><path class="cls-9" d="M187.4,295.1c5-4.4,16.3-8.3,35.8-5.6,12.7,1.7,19.3,6.9,15.7,11.5s-17.4,7.5-36.5,5.7C189.3,305.4,181.2,300.6,187.4,295.1Z"/><path class="cls-10" d="M214.9,306.4c-3.3,0-7-.2-10.9-.5-8.2-.8-13.8-3.2-14.8-6.2-.3-1-.3-2.6,1.8-4.5h0c2.7-2.3,11-7.6,30.8-4.9,7.5,1.1,13,3.6,14.2,6.8a3.6,3.6,0,0,1-.6,3.8c-2,2.4-5.7,4.1-11.2,4.9A64.1,64.1,0,0,1,214.9,306.4Zm-23.6-10.8.3.3c-1.4,1.2-1.9,2.4-1.6,3.6s6.4,4.8,14,5.5c16.1,1.5,27-.1,30.7-4.7a2.8,2.8,0,0,0,.5-2.9c-1.1-2.8-6.4-5.2-13.5-6.2s-14.2-1-19.7.1-8.8,3.1-10.4,4.6Z"/><path class="cls-10" d="M207.7,303.1l.4-.5c.1-.3-.2-.5-.8-.5l-3.7-.7c-.4-.2-.5-.4-.2-.6h.2a2.7,2.7,0,0,1,1.8-.1,20.4,20.4,0,0,0,4.1.7c2.7.2,4.3-.3,4.8-1.1s-.1-1.2-2.7-1.9-7-1.7-6.2-2.9,3.2-2,7.7-1.7a1.1,1.1,0,0,0,1.1-.3l.5-.6c.1-.3.7-.4,1.4-.3h0c.7,0,1.1.2.9.5l-.3.5c-.2.2.2.4.7.5a14.3,14.3,0,0,1,2.8.5c.5.1.6.4.3.5l-.2.2a3.5,3.5,0,0,1-1.8.1,16.3,16.3,0,0,0-3.5-.6c-2.9-.2-4.4.3-4.8.9s1.6.9,4.6,1.7,5.5,1.9,5.1,3.1-3.3,2-8.2,1.9a2.2,2.2,0,0,0-1.2.3l-.4.7c-.2.3-.8.4-1.5.3h0C208,303.6,207.5,303.4,207.7,303.1Z"/><polygon class="cls-11" points="183.9 296.1 183.9 292.2 238.5 291.8 238.4 296.1 183.9 296.1"/><path class="cls-8" d="M186.1,292c5-4.4,16.3-8.3,35.8-5.6,12.6,1.7,19.3,7,15.6,11.5s-17.4,7.6-36.5,5.7C187.9,302.4,179.9,297.6,186.1,292Z"/><path class="cls-9" d="M186.1,288.2c5-4.4,16.3-8.3,35.8-5.6,12.6,1.7,19.3,6.9,15.6,11.5s-17.4,7.5-36.5,5.7C187.9,298.5,179.9,293.7,186.1,288.2Z"/><path class="cls-10" d="M213.5,299.5a108.3,108.3,0,0,1-10.9-.6c-8.1-.7-13.8-3.1-14.8-6.1-.3-1-.3-2.6,1.8-4.5l.3.4-.3-.4c2.7-2.3,11-7.6,30.8-4.9,7.6,1.1,13,3.6,14.3,6.7a3.6,3.6,0,0,1-.7,3.8c-1.9,2.5-5.7,4.1-11.1,5A66.5,66.5,0,0,1,213.5,299.5Zm-3.4-15.9a47.4,47.4,0,0,0-9.5.8c-5.6,1.2-8.7,3.1-10.4,4.6h0q-2.1,1.8-1.5,3.6c.8,2.6,6.3,4.7,14,5.5,16.1,1.5,27-.1,30.6-4.7a2.7,2.7,0,0,0,.6-2.9c-1.1-2.8-6.5-5.2-13.6-6.2A73.9,73.9,0,0,0,210.1,283.6Z"/><path class="cls-10" d="M206.3,296.2l.4-.6c.1-.2-.2-.4-.8-.4l-3.6-.7q-.7-.3-.3-.6h.2a2.7,2.7,0,0,1,1.8-.1,20.4,20.4,0,0,0,4.1.7c2.7.2,4.4-.4,4.9-1.1s-.2-1.2-2.7-1.9-7-1.8-6.3-2.9,3.2-2,7.7-1.7a1.2,1.2,0,0,0,1.2-.3l.4-.6c.1-.3.8-.4,1.4-.4h0c.7.1,1.1.3,1,.5l-.4.6c-.1.2.2.4.8.5l2.8.5c.5.1.6.3.2.5h-.2a2.4,2.4,0,0,1-1.7.2,17.6,17.6,0,0,0-3.5-.6c-3-.2-4.5.3-4.8.9s1.5.9,4.5,1.7,5.6,1.8,5.1,3.1-3.3,2-8.2,1.9c-.5,0-1,.1-1.1.3l-.5.7a1.7,1.7,0,0,1-1.4.3h-.1C206.6,296.7,206.2,296.5,206.3,296.2Z"/><polygon class="cls-11" points="189.3 290.2 189.3 286.2 243.9 285.8 243.8 290.2 189.3 290.2"/><path class="cls-8" d="M191.4,286.1c5-4.4,16.3-8.3,35.8-5.7,12.7,1.8,19.3,7,15.7,11.6s-17.4,7.5-36.5,5.7C193.2,296.4,185.2,291.6,191.4,286.1Z"/><path class="cls-9" d="M191.4,282.3c5-4.5,16.3-8.4,35.8-5.7,12.7,1.7,19.3,7,15.7,11.5s-17.4,7.6-36.5,5.7C193.2,292.6,185.2,287.8,191.4,282.3Z"/><path class="cls-10" d="M218.9,293.6c-3.3,0-7-.2-11-.6-8.1-.8-13.7-3.1-14.7-6.1-.3-1-.3-2.7,1.8-4.5h0c2.7-2.4,11-7.6,30.8-4.9,7.5,1,13,3.6,14.2,6.7a3.6,3.6,0,0,1-.6,3.8c-2,2.4-5.7,4.1-11.2,4.9A51.8,51.8,0,0,1,218.9,293.6Zm-23.6-10.9.3.3c-1.4,1.3-1.9,2.5-1.6,3.6s6.4,4.8,14,5.5c16.1,1.6,27-.1,30.7-4.7a2.8,2.8,0,0,0,.5-2.9c-1.1-2.8-6.4-5.2-13.6-6.2a60.5,60.5,0,0,0-19.6.2c-5.7,1.1-8.8,3.1-10.4,4.5Z"/><polygon class="cls-11" points="188.1 282 188.1 278.1 242.7 277.7 242.6 282 188.1 282"/><path class="cls-8" d="M190.3,277.9c4.9-4.4,16.2-8.3,35.7-5.6,12.7,1.7,19.3,7,15.7,11.5s-17.4,7.6-36.5,5.7C192.1,288.3,184,283.5,190.3,277.9Z"/><path class="cls-9" d="M190.3,274.1c4.9-4.4,16.2-8.3,35.7-5.6,12.7,1.7,19.3,6.9,15.7,11.5s-17.4,7.5-36.5,5.7C192.1,284.4,184,279.6,190.3,274.1Z"/><path class="cls-10" d="M217.7,285.4a108.3,108.3,0,0,1-10.9-.6c-8.2-.7-13.8-3.1-14.8-6.1-.3-1-.3-2.6,1.8-4.5h0c2.7-2.3,11-7.6,30.8-4.9,7.5,1,13,3.6,14.3,6.7a3.8,3.8,0,0,1-.7,3.8c-2,2.5-5.7,4.1-11.2,5A64.1,64.1,0,0,1,217.7,285.4Zm-23.3-10.5c-1.4,1.2-1.9,2.4-1.6,3.6s6.4,4.7,14,5.5c16.1,1.5,27-.1,30.7-4.7a2.7,2.7,0,0,0,.5-2.9c-1.1-2.8-6.4-5.2-13.5-6.2s-14.2-1-19.7.1-8.8,3.1-10.4,4.6Z"/><path class="cls-10" d="M210.5,282.1l.4-.6c.1-.2-.2-.4-.8-.5a28.6,28.6,0,0,1-3.7-.6c-.4-.2-.5-.4-.2-.6h.2a2.7,2.7,0,0,1,1.8-.1,31.4,31.4,0,0,0,4.1.7c2.7.2,4.3-.4,4.8-1.1s-.1-1.2-2.7-1.9-7-1.8-6.2-2.9,3.2-2,7.7-1.7a1.1,1.1,0,0,0,1.1-.3l.5-.6c.1-.3.8-.4,1.4-.4h0c.7.1,1.1.3.9.5l-.3.6c-.2.2.2.4.8.5a14.6,14.6,0,0,1,2.7.5c.5.1.6.3.3.5h-.2a2.5,2.5,0,0,1-1.7.2,18.9,18.9,0,0,0-3.6-.6c-2.9-.2-4.4.3-4.8.9s1.6.9,4.6,1.7,5.5,1.8,5.1,3.1-3.3,2-8.2,1.9a1.7,1.7,0,0,0-1.2.3l-.4.7a1.9,1.9,0,0,1-1.5.3h0C210.8,282.6,210.3,282.4,210.5,282.1Z"/><polygon class="cls-11" points="356.2 299.3 356.2 295.2 411.8 294.9 411.7 299.3 356.2 299.3"/><path class="cls-8" d="M358.4,295.1c5-4.5,16.6-8.4,36.4-5.7,13,1.7,19.7,7.1,16,11.7s-17.7,7.7-37.2,5.8C360.2,305.6,352,300.7,358.4,295.1Z"/><path class="cls-9" d="M358.4,291.2c5-4.5,16.6-8.5,36.4-5.8,13,1.8,19.7,7.2,16,11.8s-17.7,7.7-37.2,5.8C360.2,301.7,352,296.8,358.4,291.2Z"/><path class="cls-10" d="M386.3,302.7c-3.3,0-7.1-.2-11.1-.5-8.3-.8-14-3.2-15-6.3-.4-1-.3-2.7,1.8-4.6h0c2.7-2.4,11.2-7.7,31.4-5,7.7,1.1,13.3,3.7,14.5,6.9a3.8,3.8,0,0,1-.7,3.9c-2,2.4-5.8,4.1-11.3,5A68.5,68.5,0,0,1,386.3,302.7ZM362.6,292c-1.4,1.3-2,2.5-1.6,3.6.9,2.7,6.5,4.9,14.3,5.7,16.4,1.5,27.5-.1,31.2-4.8a2.9,2.9,0,0,0,.6-3c-1.1-2.8-6.6-5.3-13.9-6.3s-14.4-1-20,.2-8.9,3.1-10.6,4.6Z"/><polygon class="cls-11" points="356.2 294.8 356.2 290.8 411.8 290.4 411.7 294.8 356.2 294.8"/><path class="cls-8" d="M358.4,290.6c5-4.5,16.6-8.4,36.4-5.7,13,1.7,19.7,7.1,16,11.7s-17.7,7.7-37.2,5.8C360.2,301.2,352,296.3,358.4,290.6Z"/><path class="cls-9" d="M358.4,286.7c5-4.5,16.6-8.4,36.4-5.7,13,1.7,19.7,7.1,16,11.7s-17.7,7.7-37.2,5.8C360.2,297.2,352,292.4,358.4,286.7Z"/><path class="cls-10" d="M386.3,298.3c-3.3,0-7.1-.2-11.1-.6-8.3-.8-14-3.2-15-6.3-.4-1-.3-2.6,1.8-4.5h0c2.7-2.5,11.2-7.8,31.4-5.1,7.7,1.1,13.3,3.7,14.5,6.9a3.8,3.8,0,0,1-.7,3.9c-2,2.5-5.8,4.1-11.3,5A67.4,67.4,0,0,1,386.3,298.3Zm-23.7-10.8c-1.4,1.3-2,2.5-1.6,3.7s6.5,4.8,14.3,5.6c16.4,1.6,27.5-.1,31.2-4.8a2.9,2.9,0,0,0,.6-3c-1.1-2.8-6.6-5.3-13.9-6.3s-14.4-1-20,.2-8.9,3.1-10.6,4.6Z"/><polygon class="cls-11" points="359.5 288.6 359.5 284.5 415.1 284.2 415.1 288.6 359.5 288.6"/><path class="cls-8" d="M361.7,284.4c5.1-4.5,16.6-8.4,36.5-5.7,12.9,1.7,19.7,7.1,15.9,11.7s-17.7,7.7-37.2,5.8C363.5,295,355.4,290.1,361.7,284.4Z"/><path class="cls-9" d="M361.7,280.5c5.1-4.5,16.6-8.5,36.5-5.7,12.9,1.7,19.7,7.1,15.9,11.7s-17.7,7.7-37.2,5.8C363.5,291,355.4,286.1,361.7,280.5Z"/><path class="cls-10" d="M389.7,292.1c-3.4,0-7.1-.2-11.2-.6-8.3-.8-14-3.2-15-6.3-.4-1-.3-2.7,1.8-4.6h0c2.7-2.4,11.2-7.7,31.4-5,7.7,1.1,13.3,3.7,14.6,6.9a4,4,0,0,1-.7,3.9c-2,2.5-5.8,4.1-11.4,5A67.1,67.1,0,0,1,389.7,292.1Zm-3.5-16.3a48.5,48.5,0,0,0-9.7.9c-5.7,1.1-8.9,3.1-10.6,4.6s-1.9,2.5-1.6,3.7,6.5,4.8,14.3,5.6c16.4,1.6,27.5-.1,31.3-4.8a3,3,0,0,0,.5-3c-1.1-2.8-6.5-5.3-13.8-6.3A76.7,76.7,0,0,0,386.2,275.8Z"/><polygon class="cls-11" points="356.1 281.6 356.1 277.5 411.7 277.2 411.6 281.6 356.1 281.6"/><path class="cls-8" d="M358.2,277.4c5.1-4.5,16.6-8.5,36.5-5.8,12.9,1.8,19.7,7.2,16,11.8s-17.8,7.7-37.2,5.8C360.1,287.9,351.9,283,358.2,277.4Z"/><path class="cls-9" d="M358.2,273.5c5.1-4.5,16.6-8.5,36.5-5.8,12.9,1.8,19.7,7.1,16,11.8s-17.8,7.7-37.2,5.8C360.1,284,351.9,279.1,358.2,273.5Z"/><path class="cls-10" d="M386.2,285q-5.1,0-11.1-.6c-8.3-.8-14.1-3.1-15.1-6.2-.3-1-.3-2.7,1.9-4.6h0c2.7-2.4,11.2-7.7,31.3-5,7.7,1.1,13.3,3.7,14.6,6.9a3.6,3.6,0,0,1-.7,3.8q-3,3.8-11.4,5.1A66,66,0,0,1,386.2,285Zm-3.4-16.3a49.5,49.5,0,0,0-9.8.9c-5.7,1.2-8.9,3.2-10.5,4.7s-2,2.5-1.6,3.6c.8,2.7,6.4,4.9,14.2,5.7,16.5,1.5,27.6-.2,31.3-4.8a2.9,2.9,0,0,0,.6-3c-1.2-2.8-6.6-5.3-13.9-6.3A77.3,77.3,0,0,0,382.8,268.7Z"/><polygon class="cls-11" points="356.1 277.1 356.1 273 411.7 272.7 411.6 277.1 356.1 277.1"/><path class="cls-8" d="M358.2,272.9c5.1-4.5,16.6-8.4,36.5-5.7,12.9,1.7,19.7,7.1,16,11.7s-17.8,7.7-37.2,5.8C360.1,283.4,351.9,278.6,358.2,272.9Z"/><path class="cls-9" d="M358.2,269c5.1-4.5,16.6-8.5,36.5-5.7,12.9,1.7,19.7,7.1,16,11.7s-17.8,7.7-37.2,5.8C360.1,279.5,351.9,274.6,358.2,269Z"/><path class="cls-10" d="M386.2,280.5a110.3,110.3,0,0,1-11.1-.5c-8.3-.8-14.1-3.2-15.1-6.3-.3-1-.3-2.7,1.9-4.6h0c2.7-2.4,11.2-7.7,31.3-5,7.7,1.1,13.3,3.7,14.6,6.9a3.8,3.8,0,0,1-.7,3.9c-2,2.4-5.8,4.1-11.4,5A66,66,0,0,1,386.2,280.5Zm-3.4-16.2a49.5,49.5,0,0,0-9.8.9c-5.7,1.1-8.9,3.1-10.5,4.6s-2,2.5-1.6,3.6c.8,2.7,6.4,4.9,14.2,5.7,16.5,1.6,27.6-.1,31.3-4.8a2.9,2.9,0,0,0,.6-3c-1.2-2.8-6.6-5.3-13.9-6.3A76.4,76.4,0,0,0,382.8,264.3Z"/><polygon class="cls-11" points="356.1 270.9 356.1 266.8 411.7 266.5 411.6 270.9 356.1 270.9"/><path class="cls-8" d="M358.2,266.7c5.1-4.5,16.6-8.4,36.5-5.7,12.9,1.7,19.7,7.1,16,11.7s-17.8,7.7-37.2,5.8C360.1,277.2,351.9,272.4,358.2,266.7Z"/><path class="cls-9" d="M358.2,262.8c5.1-4.5,16.6-8.5,36.5-5.8,12.9,1.8,19.7,7.2,16,11.8s-17.8,7.7-37.2,5.8C360.1,273.3,351.9,268.4,358.2,262.8Z"/><path class="cls-10" d="M386.2,274.3c-3.4,0-7.1-.2-11.1-.5-8.3-.8-14.1-3.2-15.1-6.3-.3-1-.3-2.7,1.9-4.6h0c2.7-2.4,11.2-7.7,31.3-5,7.7,1.1,13.3,3.7,14.6,6.9a3.8,3.8,0,0,1-.7,3.9c-2,2.4-5.8,4.1-11.4,5A66,66,0,0,1,386.2,274.3Zm-3.4-16.2a49.5,49.5,0,0,0-9.8.9c-5.7,1.1-8.9,3.1-10.5,4.6s-2,2.5-1.6,3.6c.8,2.7,6.4,4.9,14.2,5.7,16.5,1.6,27.6-.1,31.3-4.8a2.9,2.9,0,0,0,.6-3c-1.2-2.8-6.6-5.3-13.9-6.3A76.4,76.4,0,0,0,382.8,258.1Z"/><polygon class="cls-11" points="356.7 263.3 356.7 259.2 412.3 258.9 412.3 263.3 356.7 263.3"/><path class="cls-8" d="M358.9,259.1c5.1-4.5,16.6-8.5,36.5-5.8,12.9,1.8,19.7,7.2,15.9,11.8s-17.7,7.7-37.2,5.8C360.7,269.6,352.6,264.7,358.9,259.1Z"/><path class="cls-9" d="M358.9,255.2c5.1-4.5,16.6-8.5,36.5-5.8,12.9,1.8,19.7,7.1,15.9,11.8s-17.7,7.7-37.2,5.8C360.7,265.7,352.6,260.8,358.9,255.2Z"/><path class="cls-10" d="M386.9,266.7c-3.4,0-7.1-.2-11.2-.6-8.3-.8-14-3.1-15-6.2-.4-1-.3-2.7,1.8-4.6h0c2.7-2.4,11.2-7.7,31.4-5,7.7,1.1,13.3,3.7,14.5,6.9a3.4,3.4,0,0,1-.7,3.8c-1.9,2.5-5.8,4.2-11.3,5.1A68,68,0,0,1,386.9,266.7ZM363.1,256c-1.4,1.3-2,2.5-1.6,3.6.9,2.7,6.5,4.9,14.3,5.7,16.4,1.5,27.5-.2,31.3-4.8a3,3,0,0,0,.5-3c-1.1-2.8-6.6-5.3-13.8-6.3s-14.5-1-20.1.1-8.9,3.2-10.6,4.7Z"/><path class="cls-10" d="M379.5,263.4l.4-.6c.2-.2-.2-.5-.8-.5a27.3,27.3,0,0,1-3.7-.7q-.7-.3-.3-.6h.3a2.7,2.7,0,0,1,1.8-.1,20.3,20.3,0,0,0,4.2.7c2.7.2,4.4-.3,4.9-1.1s-.2-1.3-2.8-1.9-7.1-1.8-6.3-3,3.2-2,7.9-1.7a2.1,2.1,0,0,0,1.1-.3l.4-.7a2,2,0,0,1,1.5-.3h0c.7,0,1.1.3.9.5l-.3.5c-.1.2.2.5.8.5l2.8.5q.8.3.3.6h-.2a2.7,2.7,0,0,1-1.8.1,20.6,20.6,0,0,0-3.6-.5c-3-.2-4.5.3-4.9.9s1.6.9,4.7,1.7,5.6,1.9,5.1,3.2-3.3,2.1-8.3,1.9a1.5,1.5,0,0,0-1.2.4l-.4.7a2.6,2.6,0,0,1-1.5.3h0C379.8,263.8,379.4,263.6,379.5,263.4Z"/><polygon class="cls-11" points="357.3 256.2 357.3 252.2 412.9 251.8 412.9 256.2 357.3 256.2"/><path class="cls-8" d="M359.5,252.1c5.1-4.5,16.6-8.5,36.5-5.8,12.9,1.8,19.7,7.1,15.9,11.8s-17.7,7.7-37.2,5.8C361.3,262.6,353.2,257.7,359.5,252.1Z"/><path class="cls-9" d="M359.5,248.1c5.1-4.5,16.6-8.4,36.5-5.7,12.9,1.7,19.7,7.1,15.9,11.8s-17.7,7.6-37.2,5.8C361.3,258.7,353.2,253.8,359.5,248.1Z"/><path class="cls-10" d="M387.5,259.7c-3.4,0-7.1-.2-11.2-.6-8.3-.8-14-3.2-15-6.2-.4-1.1-.3-2.7,1.8-4.6h0c2.7-2.4,11.2-7.8,31.4-5,7.7,1,13.3,3.6,14.5,6.8a3.7,3.7,0,0,1-.6,3.9c-2,2.5-5.9,4.2-11.4,5A54.9,54.9,0,0,1,387.5,259.7ZM384,243.4a48.5,48.5,0,0,0-9.7.9c-5.7,1.2-8.9,3.2-10.6,4.6s-1.9,2.5-1.6,3.7c.9,2.7,6.5,4.9,14.3,5.6,16.4,1.6,27.5-.1,31.3-4.8a2.8,2.8,0,0,0,.5-2.9c-1.1-2.9-6.5-5.4-13.8-6.3A78.8,78.8,0,0,0,384,243.4Z"/><path class="cls-10" d="M380.1,256.3l.4-.6c.2-.2-.2-.4-.8-.5a17.4,17.4,0,0,1-3.7-.7c-.5-.1-.6-.4-.3-.5l.3-.2a3.5,3.5,0,0,1,1.8-.1,20.3,20.3,0,0,0,4.2.7c2.7.3,4.4-.3,4.9-1.1s-.1-1.2-2.8-1.9-7.1-1.8-6.3-3,3.2-2,7.9-1.7a1.1,1.1,0,0,0,1.1-.3l.4-.6c.2-.3.8-.4,1.5-.4h0c.7.1,1.1.3.9.5l-.3.6c-.1.2.2.4.8.5a14.3,14.3,0,0,1,2.8.5c.5.1.6.4.3.6H393a3.5,3.5,0,0,1-1.8.1l-3.6-.6c-3-.2-4.5.4-4.9.9s1.6,1,4.7,1.7,5.6,2,5.1,3.2-3.3,2.1-8.3,2a1.7,1.7,0,0,0-1.2.3l-.4.7a2,2,0,0,1-1.5.3h0C380.4,256.8,380,256.6,380.1,256.3Z"/><polygon class="cls-11" points="370.2 247.4 370.2 243.3 425.8 243 425.7 247.4 370.2 247.4"/><path class="cls-8" d="M372.4,243.2c5.1-4.5,16.6-8.5,36.5-5.7,12.9,1.7,19.7,7.1,15.9,11.7s-17.7,7.7-37.2,5.8C374.2,253.7,366.1,248.8,372.4,243.2Z"/><path class="cls-9" d="M372.4,239.3c5.1-4.5,16.6-8.5,36.5-5.8,12.9,1.8,19.7,7.1,15.9,11.8s-17.7,7.7-37.2,5.8C374.2,249.8,366.1,244.9,372.4,239.3Z"/><path class="cls-10" d="M400.4,250.8c-3.4,0-7.1-.2-11.2-.6-8.3-.7-14-3.1-15-6.2-.4-1-.3-2.7,1.8-4.6h0c2.7-2.4,11.2-7.7,31.4-5,7.7,1.1,13.3,3.7,14.5,6.9a3.6,3.6,0,0,1-.7,3.9c-1.9,2.4-5.8,4.1-11.3,5A68,68,0,0,1,400.4,250.8Zm-3.5-16.2a57.7,57.7,0,0,0-9.7.8c-5.7,1.2-8.9,3.2-10.6,4.7h0c-1.4,1.3-2,2.5-1.6,3.6.9,2.7,6.5,4.9,14.3,5.7,16.4,1.5,27.5-.1,31.2-4.8a2.9,2.9,0,0,0,.6-3c-1.1-2.8-6.6-5.3-13.8-6.3A77.8,77.8,0,0,0,396.9,234.6Z"/><path class="cls-9" d="M375,295c0-13,5.8-26.8,24.4-26.8,12.1,0,22.5,11.1,23.7,24,1.5,15.7-7.4,25.2-24.9,27.1C386.1,320.6,375,311.2,375,295Z"/><path class="cls-10" d="M396.4,316.3a17.2,17.2,0,0,1-11.6-4.5c-4.4-3.9-6.9-10-6.9-17,0-4.4.8-10.8,4.6-15.9s9.4-7.5,16.8-7.5c10.4,0,19.8,9.4,20.9,21,1.3,13.6-6.5,22.1-21.8,23.8Zm2.9-43.6c-6,0-20,2.2-20,22.1,0,6.6,2.3,12.3,6.4,16a15.8,15.8,0,0,0,12.5,4c7.3-.8,12.8-3.1,16.3-6.9s4.9-9,4.3-15.4C417.8,281.6,409.1,272.7,399.3,272.7Z"/><path class="cls-10" d="M399.2,308.4l-.2-1.6a1.2,1.2,0,0,0-1.1-1,9,9,0,0,1-3.7-.5,1.1,1.1,0,0,1-.7-1.3v-.4a1.1,1.1,0,0,1,1.4-.9,8.8,8.8,0,0,0,4,.4c2.4-.4,3.3-2.4,3-4.5s-1.3-3.1-4-3.8-7.4-2.1-7.9-5.4a5.8,5.8,0,0,1,4.9-6.8,1,1,0,0,0,.6-1.2l-.2-1.8a1.1,1.1,0,0,1,.9-1.3h0a1,1,0,0,1,1.2,1l.2,1.4a1.2,1.2,0,0,0,1.1,1,11.4,11.4,0,0,1,2.8.3,1.3,1.3,0,0,1,.7,1.4v.3a1.1,1.1,0,0,1-1.4.9,8.8,8.8,0,0,0-3.4-.2c-2.6.5-3.4,2.4-3.2,3.9s2.2,1.8,5.4,2.7,6.3,2.9,7.1,6.2-.8,6.3-5,7.7a1.3,1.3,0,0,0-.7,1.3l.3,1.8a1.2,1.2,0,0,1-.9,1.4h0A1.2,1.2,0,0,1,399.2,308.4Z"/><path class="cls-9" d="M404.3,86.5c4.5-9.1,13.4-16.6,26.4-9.9,8.5,4.3,11.8,15.8,8.2,25.3-4.5,11.5-14,14.9-27,9.9C403,108.4,398.6,97.8,404.3,86.5Z"/><path class="cls-10" d="M422.4,111.6a25.2,25.2,0,0,1-9.2-1.9,13.5,13.5,0,0,1-8-8c-1.7-4.3-1.3-9.4,1.2-14.3h0c2.6-5.2,6.4-8.8,10.6-10.2s8.1-.7,12.6,1.6c7.2,3.7,10.5,13.7,7.2,22.1S429.1,111.6,422.4,111.6ZM407.3,87.9c-2.3,4.6-2.7,9.4-1.1,13.5a12.4,12.4,0,0,0,7.4,7.3c5.3,2.1,10,2.4,13.7,1s6.7-4.4,8.5-9.1c3.1-8,.1-17.4-6.7-20.9-4.2-2.2-8.2-2.7-11.7-1.5a14.3,14.3,0,0,0-5.9,3.7,26.7,26.7,0,0,0-4.2,6Z"/><path class="cls-10" d="M416.5,104.6l.4-1.2a.8.8,0,0,0-.4-1.1,6.1,6.1,0,0,1-2.4-1.7.8.8,0,0,1,0-1.1v-.3c.4-.4,1-.5,1.3-.1a7.3,7.3,0,0,0,2.7,1.7c1.9.6,3.1-.5,3.7-2.1s.2-2.5-1.5-4-4.4-4.2-3.6-6.7a4.5,4.5,0,0,1,5.8-3c.3.1.7-.2.9-.6l.4-1.3c.2-.5.6-.8,1.1-.6h0a.8.8,0,0,1,.5,1.1l-.4,1.1a1,1,0,0,0,.5,1.1,8.1,8.1,0,0,1,1.8,1.2.9.9,0,0,1,0,1.2v.2a.9.9,0,0,1-1.3.2,6.1,6.1,0,0,0-2.3-1.4,2.7,2.7,0,0,0-3.6,1.6c-.5,1.4.9,2,2.8,3.8s3.4,4.3,2.8,6.9-2.8,4.1-6.2,3.6c-.4-.1-.7.2-.9.6l-.4,1.4a.9.9,0,0,1-1.1.6H417A.9.9,0,0,1,416.5,104.6Z"/><path class="cls-9" d="M440.8,147c0-12.4,5.5-25.6,23.3-25.6,11.5,0,21.4,10.6,22.6,22.9,1.4,14.9-7.1,24-23.8,25.9C451.4,171.4,440.8,162.4,440.8,147Z"/><path class="cls-10" d="M461.2,167.3a16.4,16.4,0,0,1-11.1-4.3c-4.2-3.8-6.5-9.5-6.5-16.2,0-4.3.7-10.4,4.3-15.2s9-7.2,16.1-7.2c9.9,0,18.9,9,19.9,20,1.2,13.1-6.2,21.1-20.8,22.8Zm2.8-41.6c-5.7,0-19.1,2.1-19.1,21.1,0,6.3,2.2,11.7,6.1,15.2a15,15,0,0,0,12,3.9c6.9-.8,12.1-3,15.4-6.7s4.8-8.5,4.2-14.6C481.6,134.2,473.3,125.7,464,125.7Z"/><path class="cls-10" d="M463.9,159.7l-.2-1.5a1,1,0,0,0-1.1-.9,9.9,9.9,0,0,1-3.5-.5,1.1,1.1,0,0,1-.6-1.2v-.4a1,1,0,0,1,1.3-.9,8.4,8.4,0,0,0,3.9.4c2.3-.4,3.1-2.3,2.8-4.3s-1.1-2.9-3.7-3.6-7.1-2-7.6-5.2a5.5,5.5,0,0,1,4.7-6.5c.4-.1.6-.7.6-1.1l-.3-1.7a1.1,1.1,0,0,1,.9-1.3h0a.9.9,0,0,1,1.1.9l.3,1.4a1,1,0,0,0,1,1,6.9,6.9,0,0,1,2.6.3,1.1,1.1,0,0,1,.8,1.3v.3a1,1,0,0,1-1.3.8,8.2,8.2,0,0,0-3.2-.1c-2.6.4-3.3,2.2-3.1,3.6s2.1,1.8,5.1,2.6,6.1,2.8,6.8,5.9-.8,6.1-4.8,7.4a1.3,1.3,0,0,0-.6,1.2l.3,1.8a1.1,1.1,0,0,1-.9,1.3h0A1.1,1.1,0,0,1,463.9,159.7Z"/><path class="cls-12" d="M241.8,283c-7.2,9.4-23,34.8-17.3,43.5s40.3,6.7,46,3.5-8.6-43.5-13.2-48.6S246.9,276.5,241.8,283Z"/><path class="cls-10" d="M243.6,316.5l.3-1.4a.9.9,0,0,0-.6-1.1,9.5,9.5,0,0,1-2.8-1.7.9.9,0,0,1-.2-1.3l.2-.3a.9.9,0,0,1,1.4-.3,6.6,6.6,0,0,0,3.2,1.7c2.1.5,3.4-.8,3.8-2.6s-.1-2.9-2.1-4.5-5.5-4.3-4.9-7.1,2.5-4.7,6.1-3.9c.4.1.8-.4.9-.8l.3-1.5a.9.9,0,0,1,1.1-.8h0a.9.9,0,0,1,.7,1.2l-.2,1.3a1,1,0,0,0,.6,1.2,5.3,5.3,0,0,1,2.1,1.2.9.9,0,0,1,.2,1.3v.3a1,1,0,0,1-1.4.3,8.4,8.4,0,0,0-2.7-1.4c-2.3-.5-3.5.8-3.8,2.1s1.2,2.3,3.6,4.1,4.3,4.5,3.9,7.5-2.6,4.9-6.4,4.6a.9.9,0,0,0-.9.8l-.4,1.6a.9.9,0,0,1-1.1.8h0A1.1,1.1,0,0,1,243.6,316.5Z"/><path class="cls-12" d="M258.9,268.9s-7.3,1.1-8,5.7,6.4,1,11.2,2.2,2-2.4,1-4.9S262.1,268.6,258.9,268.9Z"/><path class="cls-13" d="M365.8,324.2s-7.2-7.1-4.7-11.2,6.7,8.7,6.7,8.7-2.2-15.1,2.3-15.4,0,15.4,0,15.4,1.6-3.6,3.2-3.9,1.2,3.2-1.7,6.4Z"/><path class="cls-14" d="M373.1,324.5c-.1,0-.2,0-.2-.1a.3.3,0,0,1,0-.4c2.5-2.9,3.2-5.6,2.8-6.5a.5.5,0,0,0-.6-.2c-1.4.2-3,3.1-3.5,4.2s-.2.2-.4.2a.5.5,0,0,1-.2-.4,58.7,58.7,0,0,0,1.7-7.2c.8-5,.8-8.2-.2-9.4a1.3,1.3,0,0,0-1.1-.5,1.9,1.9,0,0,0-1.4.7c-2.8,3.4-1,16.3-1,16.5s-.1.3-.2.3l-.4-.2c-.9-2.9-3.8-10.4-5.9-10.6-.1-.1-.6-.1-1.1.7-2.6,4.4,5.3,12.3,5.3,12.4a.2.2,0,0,1,0,.4.3.3,0,0,1-.4,0,29.1,29.1,0,0,1-3.7-4.7c-2.3-3.5-2.9-6.4-1.7-8.4a1.7,1.7,0,0,1,1.7-1c1.3.1,2.7,2,4.3,5.7a29.3,29.3,0,0,1,1.2,2.8c-.4-4-.8-11.6,1.4-14.2a2.4,2.4,0,0,1,1.8-1,1.8,1.8,0,0,1,1.7.7c1.9,2.4.2,10.8-.8,14.9h.1c.9-1.5,1.9-2.3,2.7-2.4a1,1,0,0,1,1.2.6c.6,1.1-.3,4.2-2.9,7.1C373.3,324.5,373.2,324.5,373.1,324.5Z"/><path class="cls-13" d="M499.5,328s-4.9-5-3.2-7.8,4.6,6,4.6,6-1.5-10.5,1.6-10.7,0,10.7,0,10.7,1.1-2.5,2.2-2.7.8,2.2-1.2,4.5Z"/><path class="cls-14" d="M504.6,328.2h-.2a.2.2,0,0,1,0-.3c1.8-2,2.3-3.9,2-4.5a.4.4,0,0,0-.5-.1c-.9.1-2,2.1-2.4,2.9h-.2a.2.2,0,0,1-.2-.2,43.5,43.5,0,0,0,1.2-5.1c.6-3.4.5-5.6-.1-6.5a1.1,1.1,0,0,0-.8-.3,1.4,1.4,0,0,0-1,.5c-1.9,2.4-.7,11.3-.7,11.4s0,.2-.1.2h-.3c-.6-2-2.6-7.2-4.1-7.4s-.4,0-.7.5c-1.8,3.1,3.6,8.6,3.7,8.6v.3h-.3a17.3,17.3,0,0,1-2.6-3.2c-1.6-2.5-2-4.5-1.2-5.9a1.4,1.4,0,0,1,1.2-.7c.9.1,1.9,1.4,3,4,.3.7.6,1.3.8,1.9-.3-2.8-.5-8,1-9.8a1.3,1.3,0,0,1,1.2-.7,1.1,1.1,0,0,1,1.2.5c1.3,1.7.2,7.4-.5,10.2,1-1.5,1.8-1.6,1.9-1.6s.7,0,.8.3-.2,2.9-2,5Z"/><path class="cls-13" d="M255.7,337.3s-6-6-3.9-9.4,5.5,7.3,5.5,7.3-1.8-12.7,2-12.9,0,12.9,0,12.9,1.3-3,2.7-3.2,1,2.6-1.4,5.3Z"/><path class="cls-14" d="M261.8,337.6h-.2a.2.2,0,0,1,0-.3c2.1-2.5,2.7-4.7,2.4-5.5a.6.6,0,0,0-.5-.2c-1.2.2-2.5,2.6-2.9,3.6h-.4a.2.2,0,0,1-.1-.3s.8-2.9,1.4-6.1.6-6.8-.2-7.8a1.2,1.2,0,0,0-1-.5,1.9,1.9,0,0,0-1.1.7c-2.3,2.8-.8,13.6-.8,13.7s-.1.3-.2.3-.3,0-.3-.2c-.8-2.4-3.2-8.7-5-8.9-.1,0-.4,0-.9.7-2.2,3.6,4.4,10.3,4.5,10.3a.3.3,0,0,1-.4.4,25.8,25.8,0,0,1-3.1-3.9c-2-3-2.4-5.4-1.4-7.1a1.7,1.7,0,0,1,1.4-.9c1.1.2,2.3,1.7,3.6,4.8a20.8,20.8,0,0,1,1,2.4c-.3-3.4-.6-9.7,1.2-11.9a2.4,2.4,0,0,1,1.5-.9,1.5,1.5,0,0,1,1.4.7c1.6,2,.2,9-.6,12.4h0c.8-1.3,1.6-2,2.3-2.1a1,1,0,0,1,1,.5c.5,1-.2,3.5-2.4,6Z"/><path class="cls-13" d="M166.6,325.9s-8-7.9-5.3-12.5,7.4,9.8,7.4,9.8-2.4-16.9,2.6-17.2,0,17.2,0,17.2,1.8-4.1,3.6-4.3,1.3,3.4-1.9,7Z"/><path class="cls-14" d="M174.7,326.3h-.3a.4.4,0,0,1,0-.5c2.9-3.2,3.7-6.2,3.1-7.2s-.2-.3-.6-.3-3.3,3.5-3.9,4.8-.2.2-.4.1-.3-.2-.2-.4a77.8,77.8,0,0,0,1.8-8.1c1-5.4.9-9.1-.2-10.4a1.5,1.5,0,0,0-1.3-.6,2,2,0,0,0-1.5.9c-3.1,3.8-1.1,18.1-1.1,18.3s-.1.3-.2.3-.4,0-.4-.2-1-2.9-2.3-5.9c-2.3-5-3.7-5.8-4.3-5.9s-.7-.1-1.2.8c-3,4.9,5.8,13.7,5.9,13.8a.4.4,0,0,1-.5.5c-.4-.4-9.2-9.3-6-14.6a1.9,1.9,0,0,1,1.9-1.2c1.4.2,3,2.3,4.8,6.4a26.9,26.9,0,0,1,1.3,3.2c-.4-4.5-.8-13,1.6-15.9a2.4,2.4,0,0,1,2-1.1,2,2,0,0,1,1.9.8c2.1,2.7.2,11.9-.9,16.5h0c1.1-1.7,2.2-2.6,3.1-2.7a1.1,1.1,0,0,1,1.3.6c.7,1.3-.3,4.7-3.2,8Z"/><path class="cls-13" d="M133.6,309s-6.6-6.6-4.3-10.4,6.1,8.1,6.1,8.1-2-14.1,2.2-14.3,0,14.3,0,14.3,1.5-3.4,3-3.6,1.1,2.9-1.6,5.9Z"/><path class="cls-14" d="M140.4,309.3h-.2c-.1-.1-.2-.3,0-.4,2.3-2.7,3-5.2,2.6-6a.5.5,0,0,0-.6-.2c-1.3.2-2.7,2.9-3.2,3.9s-.2.2-.4.1a.2.2,0,0,1-.1-.3s.9-3.2,1.5-6.7.7-7.6-.2-8.7a1.2,1.2,0,0,0-1-.5,2.1,2.1,0,0,0-1.3.7c-2.6,3.2-.9,15.1-.9,15.2a.3.3,0,1,1-.6.2c-.8-2.7-3.5-9.6-5.4-9.9-.2,0-.6,0-1,.7-2.5,4.1,4.8,11.4,4.9,11.5a.3.3,0,1,1-.4.4,29.3,29.3,0,0,1-3.5-4.4q-3.1-4.9-1.5-7.8a1.5,1.5,0,0,1,1.5-.9c1.2.1,2.5,1.8,4.1,5.3l1.1,2.6c-.4-3.7-.8-10.8,1.2-13.2a2.2,2.2,0,0,1,1.7-.9,1.9,1.9,0,0,1,1.6.7c1.8,2.2.2,9.9-.7,13.7h0c.9-1.4,1.8-2.2,2.5-2.3s.9.1,1.1.5-.2,3.9-2.6,6.7Z"/><polygon class="cls-15" points="132.3 254.2 125.1 247.1 184.3 187.2 211.3 187.2 282.5 115 307.3 115 344.2 77.5 351.4 84.6 311.5 125 286.8 125 215.6 197.3 188.5 197.3 132.3 254.2"/><polygon class="cls-15" points="336.9 72.9 356.1 91.8 356 72.7 336.9 72.9"/><path class="cls-16" d="M363.4,291.5a1.8,1.8,0,0,1,.4,2.1h0c-.5,1.5-2.2,3.1-4.2,4.7l-.7.5-.2.2h-.1c-1.9,1.7-1.2,2.1-4.5,5.6s-6.4,4-7.2,3.7.7-2.5,2.1-4.8c.1-.1.1-.2.2-.4l.6-.9c1.6-2.9,1.2-4.2.8-8.4s-5.3-19.3-5.3-19.3l7.3-1.2s2.2,12.5,4.6,14.5,2.7,1,4,1.8a.2.2,0,0,1,.2.2A5.3,5.3,0,0,1,363.4,291.5Z"/><path class="cls-17" d="M363.4,291.5a1.8,1.8,0,0,1,.4,2.1h0c-.6,1.5-2.3,3.1-4.2,4.7l-.7.5-.2.2h-.1c-1.9,1.7-1.2,2.1-4.5,5.6s-6.4,4-7.2,3.7.7-2.5,2.1-4.8a17.1,17.1,0,0,0,6.8-5c2.3-3,3.8-6.7,5.4-8.9a.2.2,0,0,1,.2.2A5.3,5.3,0,0,1,363.4,291.5Z"/><path class="cls-16" d="M304.5,286.9c-.4,2.3-3.7,1.9-7.3,1s-2.7.2-7.8-.4-6.7-2.5-6.8-3.2,2.4-.9,5.1-1.3h1c3.1-.4,5.3-2.3,8.1-4s6.5-7.8,6.5-7.8l7.1.6s-3.7,5.6-5.1,8a8.1,8.1,0,0,0-.7,4.8A9.7,9.7,0,0,1,304.5,286.9Z"/><path class="cls-17" d="M297.2,287.9c-3.5-.9-2.7.2-7.8-.4s-6.7-2.5-6.8-3.2,2.4-.9,5.1-1.3h0a14.4,14.4,0,0,0,7.3,2.3c3.5.1,7.2-.9,9.6-.9a9.7,9.7,0,0,1-.1,2.4C304.1,289.2,300.8,288.8,297.2,287.9Z"/><path class="cls-17" d="M331.4,242.1l6.5,17.6,8.6,23a11.8,11.8,0,0,0,4.5-.4,19.5,19.5,0,0,0,4.4-2.1s-2.3-24.8-6.8-39a25.2,25.2,0,0,0-3.8-8.2C337.9,224.9,331.4,242.1,331.4,242.1Z"/><path class="cls-18" d="M338,214c4.3-1.3,16.6.4,28.9,2.8l2.6-4.2,26.5-2.1s8.8,19.5,4,31.9a4.4,4.4,0,0,1-4.5,3H374.2c-13.2,0-28-9.1-29.9-9.5s-4.4,5.6-7.5,12.2-29.4,29.1-29.4,29.1a24.9,24.9,0,0,1-5.7-.6,5.2,5.2,0,0,1-2.4-1.6S328.4,217.2,338,214Z"/><path class="cls-17" d="M369.6,176c9.5,5.2,28.7,16,28.8,15.9s7,2.7,11.1,0c6.6-4.4,10.2-16.3-2-26.6-6.1-5.1-10.4-6.3-11.1-14.5-.3-4.5-6.4-19.1-16.5-17.7-.8.1-6,.3-9.4,2.1C361.8,139.8,355.4,174,369.6,176Z"/><path class="cls-16" d="M377.6,171.6c-.1,0,4.6,1.6,7.8.2s5.2-6.2,5.1-6.2-2.8-1.2-3.9-8.9l-.6.2-9.6,3.4s.7,3.1,1.1,6.1S378.1,171.2,377.6,171.6Z"/><path class="cls-19" d="M376.4,160.3s.7,3.1,1.1,6.1c5.5-1,7.7-6.5,8.5-9.5Z"/><path class="cls-16" d="M374.9,163.4s13.2-1.8,12-9.9-.4-14-8.9-13.2-9.6,4.2-9.8,7S371.5,163.7,374.9,163.4Z"/><path class="cls-17" d="M368.7,142.8s8.4,7.3,14.1,7.9,7.9-1.3,7.9-1.3a21.9,21.9,0,0,1-5.4-7.3,3.9,3.9,0,0,0-3.3-2.4C377.9,139.3,370.1,139.2,368.7,142.8Z"/><path class="cls-17" d="M373.9,142.2a21,21,0,0,0-3.7,4.7c-.8,2-1.1,6.6-.4,8.5,0,0-4.4-8.6-1.9-12.7S373.9,142.2,373.9,142.2Z"/><path class="cls-15" d="M366.5,191c.4,26.6.1,21,3,23.6.7.6,2.7,1,5.3,1.1,8.1.6,22.5-.8,23.1-2.3,1.9-5.2.5-6.8,2.1-14.8l.6-2.8c1.3-5.5,2.6-7.4-2.1-16.2s-8.6-14.5-9-14.3c-11.1,6.6-12,1.1-12,1.1S366.3,178,366.5,191Z"/><path class="cls-18" d="M337.9,259.7l8.6,23a11.8,11.8,0,0,0,4.5-.4,19.5,19.5,0,0,0,4.4-2.1s-2.3-24.8-6.8-39Z"/><path class="cls-15" d="M377.5,166.4s-11.5,1.9-12.8,6.9-9.3,33.9-9.3,33.9,5.9,1,8.6-1.7,9.3-24.9,9.3-24.9Z"/><path class="cls-20" d="M374.8,215.7c8.1.6,22.5-.8,23.1-2.3,1.9-5.2.5-6.8,2.1-14.8l-4-11.1s.7,12.3-2.9,15.6-15,6.2-16.7,9A8.5,8.5,0,0,0,374.8,215.7Z"/><path class="cls-16" d="M384.1,210.5s-8-1.8-9.3-1.1-4.5,3.4-4.9,4.3,2.9-.7,4-1,2.5.4,3.4.7a11.5,11.5,0,0,0,6.1.7Z"/><path class="cls-15" d="M389.5,165.3s10.9.7,14.6,5.9c5.3,7.4,15.8,38.7,9.8,42.9s-30.8,1.3-30.8,1.3-.8-3.8.3-5.6,19.2-4.7,20-5.5S393,188,393,185.5,389.5,165.3,389.5,165.3Z"/><path class="cls-16" d="M374.4,211.7s-1.7,2.2-2.3,2.4a1.3,1.3,0,0,1-.9.2l1.2-2Z"/><path class="cls-16" d="M374.8,209.4l-4.9,2.4a.7.7,0,0,0,.8.3,10.7,10.7,0,0,0,2.1-.5Z"/><polygon class="cls-21" points="372.1 217.5 333.3 217.5 321.6 188.4 360.4 188.4 372.1 217.5"/><polygon class="cls-22" points="332.8 216.3 384.1 216.3 384.1 217.5 333.3 217.5 332.8 216.3"/><path class="cls-10" d="M343.1,202.9a1.3,1.3,0,0,1,1.3-1.8,2.7,2.7,0,0,1,2.4,1.8,1.4,1.4,0,0,1-1.3,1.9A2.6,2.6,0,0,1,343.1,202.9Z"/><path class="cls-23" d="M225.3,315.8s1.8,9.7,9.7,13.6C235,329.4,222,329.3,225.3,315.8Z"/></svg>