<?xml version="1.0" encoding="UTF-8"?>
<svg id="Layer_1" data-name="Layer 1" xmlns="http://www.w3.org/2000/svg" viewBox="0 0 46 46">
  <defs>
    <style>
      .cls-1 {
        fill: #270069;
      }
    </style>
  </defs>
  <path class="cls-1" d="M17.43,39.82l-1.2-3.19c-1.7-.38-3.28-1.1-4.77-1.97l-3.18,1.32-3.66-3.75,1.34-3c-.82-1.53-1.61-3.11-1.96-4.83l-3.22-1.28.02-5.19,3.2-1.24c.34-1.73,1.13-3.3,1.95-4.83l-1.37-3.13,3.54-3.58.33-.05,2.99,1.33c1.45-.94,3.09-1.5,4.73-2.01l1.23-3.09,5.22-.04,1.36,3.17c1.66.41,3.24,1.07,4.7,1.94l3.24-1.3,3.6,3.63-1.34,3.12c.85,1.5,1.56,3.07,1.96,4.76l3.17,1.36v5.2s-1.03.37-1.03.37c-.36-.31-1.33-.91-1.78-.91h-4.95c1.16-6.58-3.42-12.84-10.04-13.67-5.61-.71-11.11,2.88-12.65,8.31-2.08,7.31,3.14,14.57,10.68,14.92.16.67.03,1.29.23,1.99.15.54.88,1.35.88,1.44v4.21h-3.24Z"/>
  <path class="cls-1" d="M22.14,36.86c2.32,1.11,4.93,1.47,7.48,1.67,1.02,3.52,5.99,3.48,7.05,0,2.51-.23,5.12-.52,7.38-1.68v6.61s-.28.53-.33.59c-.24.31-.71.61-1.1.66h-18.86c-.75.02-1.61-.9-1.61-1.62v-6.24Z"/>
  <path class="cls-1" d="M25.38,27.89v3.37c0,.15.38.89.51,1.07.6.79,1.44,1.04,2.4,1.11,2.72.19,6.99.19,9.71,0,1.04-.07,1.99-.38,2.54-1.34.11-.18.37-.85.37-1.02v-3.19h3.65c.15,0,.62.48.6.7-.12,1.5.19,3.33,0,4.79-.37,2.84-5.96,3.45-8.17,3.66-.31-.03-.22-.44-.32-.7-1.43-3.79-6.5-3.22-7.21.64l-.15.06c-2.21-.25-7.05-.71-8.01-3.09-.51-1.27.03-3.93-.16-5.37-.04-.16.45-.7.5-.7h3.74Z"/>
  <path class="cls-1" d="M25.08,14.97c1.77-.24,2.93,1.56,2.07,3.09l-7.81,7.81c-.82.47-1.63.22-2.37-.26-.63-.41-3.67-3.43-4-4.04-1.04-1.94,1.17-3.89,2.92-2.73.45.3,2.17,2.3,2.42,2.3l5.87-5.78c.24-.21.59-.35.9-.39Z"/>
  <path class="cls-1" d="M39.43,27.89v3.1c0,.29-.54.88-.88.87-3.28-.04-7.09.39-10.35.1-.4-.04-.8-.11-1.07-.41-.05-.06-.28-.44-.28-.46v-3.19h12.57Z"/>
  <path class="cls-1" d="M36.19,26.41l-.08-.59-5.79-.05c-.33.04-.22.4-.23.65h-1.66c-.09-1.22.52-2.22,1.8-2.32,1.97-.15,4.17.08,6.16.04.44.09,1,.52,1.22.91.12.22.44,1.36.12,1.36h-1.53Z"/>
  <path class="cls-1" d="M32.66,35.31c3.26-.55,3.61,4.2.61,4.41-2.71.19-3.22-3.97-.61-4.41Z"/>
</svg>