<svg xmlns="http://www.w3.org/2000/svg" xmlns:xlink="http://www.w3.org/1999/xlink" viewBox="0 0 500 500"><defs><style>.cls-1{fill:#6de0f6;}.cls-2{fill:none;}.cls-3{isolation:isolate;}.cls-4,.cls-57{opacity:0.5;}.cls-4,.cls-57,.cls-7,.cls-8{mix-blend-mode:lighten;}.cls-4{fill:url(#radial-gradient);}.cls-5{fill:#0b0244;}.cls-20,.cls-22,.cls-23,.cls-25,.cls-26,.cls-5,.cls-6{opacity:0.7;}.cls-7{fill:url(#Áåçûìÿííûé_ãðàäèåíò_254);}.cls-8{fill:url(#Áåçûìÿííûé_ãðàäèåíò_254-2);}.cls-9{fill:url(#linear-gradient);}.cls-10{fill:url(#linear-gradient-2);}.cls-11{fill:url(#linear-gradient-3);}.cls-12{fill:url(#linear-gradient-4);}.cls-13{fill:url(#linear-gradient-5);}.cls-14{fill:url(#linear-gradient-6);}.cls-15{fill:url(#linear-gradient-7);}.cls-16{fill:url(#linear-gradient-8);}.cls-17{fill:url(#linear-gradient-9);}.cls-18{fill:url(#linear-gradient-10);}.cls-19{fill:url(#linear-gradient-11);}.cls-20{fill:url(#linear-gradient-12);}.cls-21{fill:url(#linear-gradient-13);}.cls-22{fill:#fff;}.cls-23{fill:url(#linear-gradient-14);}.cls-24{fill:url(#linear-gradient-15);}.cls-25{fill:url(#linear-gradient-16);}.cls-26{fill:url(#linear-gradient-17);}.cls-27{fill:url(#Áåçûìÿííûé_ãðàäèåíò_377);}.cls-28{fill:#6ee8fc;}.cls-29{fill:url(#Áåçûìÿííûé_ãðàäèåíò_300);}.cls-30{fill:#d4088c;}.cls-31{fill:url(#Áåçûìÿííûé_ãðàäèåíò_302);}.cls-32{clip-path:url(#clip-path);}.cls-33{fill:#267fe5;}.cls-34{fill:#25bfec;}.cls-35{fill:#18d0f7;}.cls-36{fill:url(#Áåçûìÿííûé_ãðàäèåíò_377-2);}.cls-37{fill:url(#Áåçûìÿííûé_ãðàäèåíò_300-2);}.cls-38{fill:url(#Áåçûìÿííûé_ãðàäèåíò_302-2);}.cls-39{clip-path:url(#clip-path-2);}.cls-40{fill:url(#Áåçûìÿííûé_ãðàäèåíò_377-3);}.cls-41{fill:url(#linear-gradient-18);}.cls-42{fill:url(#Áåçûìÿííûé_ãðàäèåíò_302-3);}.cls-43{clip-path:url(#clip-path-3);}.cls-44{fill:url(#Áåçûìÿííûé_ãðàäèåíò_302-4);}.cls-45{fill:#370175;}.cls-46{fill:#480689;}.cls-47{fill:url(#Áåçûìÿííûé_ãðàäèåíò_377-4);}.cls-48{fill:url(#Áåçûìÿííûé_ãðàäèåíò_388);}.cls-49{fill:url(#Áåçûìÿííûé_ãðàäèåíò_300-3);}.cls-50{fill:url(#Áåçûìÿííûé_ãðàäèåíò_302-5);}.cls-51{clip-path:url(#clip-path-4);}.cls-52{fill:url(#Áåçûìÿííûé_ãðàäèåíò_377-5);}.cls-53{fill:url(#Áåçûìÿííûé_ãðàäèåíò_388-2);}.cls-54{fill:url(#Áåçûìÿííûé_ãðàäèåíò_300-4);}.cls-55{fill:url(#Áåçûìÿííûé_ãðàäèåíò_302-6);}.cls-56{clip-path:url(#clip-path-5);}.cls-57{fill:url(#radial-gradient-2);}</style><radialGradient id="radial-gradient" cx="-2112.1" cy="-340.71" r="194.38" gradientTransform="matrix(0.87, 0.5, -0.87, 0.5, 1772.16, 1574.5)" gradientUnits="userSpaceOnUse"><stop offset="0" stop-color="#42e8e0"/><stop offset="0.16" stop-color="#33adb8" stop-opacity="0.74"/><stop offset="0.32" stop-color="#267994" stop-opacity="0.52"/><stop offset="0.47" stop-color="#1b4f78" stop-opacity="0.33"/><stop offset="0.62" stop-color="#132e61" stop-opacity="0.19"/><stop offset="0.76" stop-color="#0d1651" stop-opacity="0.08"/><stop offset="0.89" stop-color="#090847" stop-opacity="0.02"/><stop offset="1" stop-color="#080344" stop-opacity="0"/></radialGradient><linearGradient id="Áåçûìÿííûé_ãðàäèåíò_254" x1="178.09" y1="353.63" x2="303.53" y2="353.63" gradientUnits="userSpaceOnUse"><stop offset="0" stop-color="#42e8e0"/><stop offset="0.15" stop-color="#43e3e0"/><stop offset="0.33" stop-color="#45d5df"/><stop offset="0.52" stop-color="#49bddd"/><stop offset="0.72" stop-color="#4e9cdb"/><stop offset="0.93" stop-color="#5472d8"/><stop offset="1" stop-color="#5761d7"/></linearGradient><linearGradient id="Áåçûìÿííûé_ãðàäèåíò_254-2" x1="87.75" y1="420.52" x2="393.57" y2="420.52" xlink:href="#Áåçûìÿííûé_ãðàäèåíò_254"/><linearGradient id="linear-gradient" x1="-516.11" y1="502.13" x2="-441.69" y2="502.13" gradientTransform="matrix(-0.81, 0.59, 0.59, 0.81, -514.49, 174.98)" gradientUnits="userSpaceOnUse"><stop offset="0.01" stop-color="#ffe4a7"/><stop offset="0.1" stop-color="#fac098"/><stop offset="0.2" stop-color="#f49587"/><stop offset="0.46" stop-color="#a142b5"/><stop offset="0.6" stop-color="#7c1dc9"/><stop offset="0.63" stop-color="#7926cb"/><stop offset="0.7" stop-color="#703ed1"/><stop offset="0.78" stop-color="#6165db"/><stop offset="0.87" stop-color="#4c9ce9"/><stop offset="0.97" stop-color="#32e1fa"/><stop offset="1" stop-color="#2af6ff"/></linearGradient><linearGradient id="linear-gradient-2" x1="331.77" y1="391.57" x2="406.2" y2="391.57" gradientTransform="translate(-216 12.2) rotate(-21)" xlink:href="#linear-gradient"/><linearGradient id="linear-gradient-3" x1="132.05" y1="308.2" x2="196.99" y2="308.2" gradientTransform="translate(14.4 -66.2) rotate(-13.2)" xlink:href="#linear-gradient"/><linearGradient id="linear-gradient-4" x1="-10.61" y1="259.78" x2="48.54" y2="259.78" gradientTransform="translate(176.7 -101.2) rotate(-7.8)" xlink:href="#linear-gradient"/><linearGradient id="linear-gradient-5" x1="85.12" y1="217.62" x2="135.08" y2="217.62" gradientTransform="translate(66 -79) rotate(-11.6)" xlink:href="#linear-gradient"/><linearGradient id="linear-gradient-6" x1="321.08" y1="205.31" x2="371.04" y2="205.31" gradientTransform="matrix(0.93, -0.36, 0.36, 0.93, -189.95, 3.12)" xlink:href="#linear-gradient"/><linearGradient id="linear-gradient-7" x1="-484.74" y1="421.87" x2="-417.38" y2="421.87" gradientTransform="matrix(-0.83, 0.56, 0.56, 0.83, -463.31, 145.88)" xlink:href="#linear-gradient"/><linearGradient id="linear-gradient-8" x1="-288.22" y1="286.67" x2="-230.64" y2="286.67" gradientTransform="matrix(-0.9, 0.43, 0.43, 0.9, -226.09, 39.78)" xlink:href="#linear-gradient"/><linearGradient id="linear-gradient-9" x1="-84.87" y1="192.04" x2="-34.16" y2="192.04" gradientTransform="matrix(-0.96, 0.29, 0.29, 0.96, 13.87, -28.69)" xlink:href="#linear-gradient"/><linearGradient id="linear-gradient-10" x1="364.3" y1="151.27" x2="411.72" y2="151.27" gradientTransform="matrix(-1, -0.01, -0.01, 1, 517.2, -57.29)" xlink:href="#linear-gradient"/><linearGradient id="linear-gradient-11" x1="1527.63" y1="1349.79" x2="1568.31" y2="1349.79" gradientTransform="matrix(-0.3, -0.96, -0.96, 0.3, 1922.9, 1119.59)" xlink:href="#linear-gradient"/><linearGradient id="linear-gradient-12" x1="616.6" y1="138.89" x2="812.04" y2="138.89" gradientTransform="matrix(-0.98, -0.21, -0.21, 0.98, 924.99, 184.36)" xlink:href="#linear-gradient"/><linearGradient id="linear-gradient-13" x1="-772.59" y1="501.58" x2="-681.23" y2="501.58" gradientTransform="matrix(0.8, 0.6, -0.6, 0.8, 1279.87, 293.09)" gradientUnits="userSpaceOnUse"><stop offset="0.04" stop-color="#ffa98c"/><stop offset="0.32" stop-color="#ffb892"/><stop offset="0.86" stop-color="#fee1a3"/><stop offset="1" stop-color="#feeca8"/></linearGradient><linearGradient id="linear-gradient-14" x1="-734.24" y1="231.6" x2="-670.2" y2="231.6" gradientTransform="translate(1065.1 289.9) rotate(26)" gradientUnits="userSpaceOnUse"><stop offset="0.04" stop-color="#9f19ab"/><stop offset="0.24" stop-color="#ae25b1"/><stop offset="0.65" stop-color="#d744bf"/><stop offset="1" stop-color="#ff63ce"/></linearGradient><linearGradient id="linear-gradient-15" x1="305.79" y1="177.3" x2="360.6" y2="204" gradientTransform="matrix(1, 0, 0, 1, 0, 0)" xlink:href="#linear-gradient-14"/><linearGradient id="linear-gradient-16" x1="-2003.2" y1="1438.6" x2="-1929.62" y2="1438.6" gradientTransform="matrix(-0.8, 0.6, 0.6, 0.8, -2341.4, 293.09)" gradientUnits="userSpaceOnUse"><stop offset="0.04" stop-color="#138bbd"/><stop offset="0.23" stop-color="#169ac7"/><stop offset="0.59" stop-color="#1fc3df"/><stop offset="1" stop-color="#2af6ff"/></linearGradient><linearGradient id="linear-gradient-17" x1="-2000.47" y1="1438.45" x2="-1930.41" y2="1438.45" xlink:href="#linear-gradient-16"/><linearGradient id="Áåçûìÿííûé_ãðàäèåíò_377" x1="1753" y1="274.54" x2="1975.55" y2="274.54" gradientTransform="translate(-1619.5)" gradientUnits="userSpaceOnUse"><stop offset="0" stop-color="#a31fa9"/><stop offset="0.07" stop-color="#8b17a0"/><stop offset="0.15" stop-color="#740f98"/><stop offset="0.24" stop-color="#640a92"/><stop offset="0.34" stop-color="#5b078f"/><stop offset="0.48" stop-color="#58068e"/><stop offset="0.63" stop-color="#4d22a3"/><stop offset="0.94" stop-color="#3168da"/><stop offset="1" stop-color="#2c75e4"/></linearGradient><linearGradient id="Áåçûìÿííûé_ãðàäèåíò_300" x1="1396.41" y1="-16.19" x2="1501.39" y2="-107.1" gradientTransform="matrix(0.87, 0.5, -1, 0.58, -1076.16, -482.93)" gradientUnits="userSpaceOnUse"><stop offset="0" stop-color="#8d139b"/><stop offset="0.17" stop-color="#851ba1"/><stop offset="0.43" stop-color="#6e33b2"/><stop offset="0.76" stop-color="#4958cd"/><stop offset="1" stop-color="#2979e4"/></linearGradient><linearGradient id="Áåçûìÿííûé_ãðàäèåíò_302" x1="1410.1" y1="-28.05" x2="1488.26" y2="-95.73" gradientTransform="matrix(0.87, 0.5, -1, 0.58, -1076.16, -482.93)" gradientUnits="userSpaceOnUse"><stop offset="0" stop-color="#630692"/><stop offset="0.23" stop-color="#5b0e94"/><stop offset="0.59" stop-color="#432399"/><stop offset="1" stop-color="#2142a1"/></linearGradient><clipPath id="clip-path"><path class="cls-1" d="M236.8,233.2,194.9,209c-3-1.7-2.6-4.7.8-6.7l40.2-23.2c3.5-2,8.7-2.2,11.6-.5l41.9,24.2c3,1.7,2.6,4.7-.8,6.7l-40.2,23.2C244.9,234.7,239.7,234.9,236.8,233.2Z"/></clipPath><linearGradient id="Áåçûìÿííûé_ãðàäèåíò_377-2" x1="1753" y1="204.33" x2="1975.55" y2="204.33" xlink:href="#Áåçûìÿííûé_ãðàäèåíò_377"/><linearGradient id="Áåçûìÿííûé_ãðàäèåíò_300-2" x1="1377.92" y1="-32.2" x2="1482.89" y2="-123.11" xlink:href="#Áåçûìÿííûé_ãðàäèåíò_300"/><linearGradient id="Áåçûìÿííûé_ãðàäèåíò_302-2" x1="1391.61" y1="-44.06" x2="1469.77" y2="-111.74" xlink:href="#Áåçûìÿííûé_ãðàäèåíò_302"/><clipPath id="clip-path-2"><path class="cls-1" d="M236.8,214.7l-41.9-24.2c-3-1.7-2.6-4.7.8-6.7l40.2-23.2c3.5-2,8.7-2.2,11.6-.4l41.9,24.1c3,1.7,2.6,4.7-.8,6.7l-40.2,23.2C244.9,216.2,239.7,216.4,236.8,214.7Z"/></clipPath><linearGradient id="Áåçûìÿííûé_ãðàäèåíò_377-3" x1="1753" y1="188.58" x2="1975.55" y2="188.58" xlink:href="#Áåçûìÿííûé_ãðàäèåíò_377"/><linearGradient id="linear-gradient-18" x1="150.81" y1="171.68" x2="333.48" y2="171.68" gradientUnits="userSpaceOnUse"><stop offset="0.01" stop-color="#2af6ff"/><stop offset="1" stop-color="#4e00d4"/></linearGradient><linearGradient id="Áåçûìÿííûé_ãðàäèåíò_302-3" x1="1375.86" y1="-57.7" x2="1454.01" y2="-125.38" xlink:href="#Áåçûìÿííûé_ãðàäèåíò_302"/><clipPath id="clip-path-3"><path class="cls-1" d="M236.8,199l-41.9-24.2c-3-1.7-2.6-4.7.8-6.7l40.2-23.2c3.5-2,8.7-2.2,11.6-.5l41.9,24.2c3,1.7,2.6,4.7-.8,6.7l-40.2,23.2C244.9,200.5,239.7,200.7,236.8,199Z"/></clipPath><linearGradient id="Áåçûìÿííûé_ãðàäèåíò_302-4" x1="105.5" y1="257.61" x2="315.65" y2="333.91" gradientTransform="matrix(1, 0, 0, 1, 0, 0)" xlink:href="#Áåçûìÿííûé_ãðàäèåíò_302"/><linearGradient id="Áåçûìÿííûé_ãðàäèåíò_377-4" x1="2197.51" y1="398.51" x2="2312.41" y2="398.51" gradientTransform="translate(-2109.4)" xlink:href="#Áåçûìÿííûé_ãðàäèåíò_377"/><linearGradient id="Áåçûìÿííûé_ãðàäèåíò_388" x1="2197.51" y1="411.66" x2="2312.41" y2="411.66" gradientTransform="translate(-2109.4)" gradientUnits="userSpaceOnUse"><stop offset="0" stop-color="#d4088c"/><stop offset="0.23" stop-color="#d4088c"/><stop offset="0.51" stop-color="#6ee1f8"/><stop offset="0.78" stop-color="#6ee8fc"/><stop offset="1" stop-color="#6ee8fc"/></linearGradient><linearGradient id="Áåçûìÿííûé_ãðàäèåíò_300-3" x1="1827.89" y1="-79.41" x2="1882.08" y2="-126.34" gradientTransform="matrix(0.87, 0.5, -1, 0.58, -1566.05, -482.93)" xlink:href="#Áåçûìÿííûé_ãðàäèåíò_300"/><linearGradient id="Áåçûìÿííûé_ãðàäèåíò_302-5" x1="1834.96" y1="-85.53" x2="1875.31" y2="-120.47" gradientTransform="matrix(0.87, 0.5, -1, 0.58, -1566.05, -482.93)" xlink:href="#Áåçûìÿííûé_ãðàäèåíò_302"/><clipPath id="clip-path-4"><path class="cls-2" d="M141.4,399.2l-21.6-12.4c-1.5-.9-1.3-2.5.5-3.5l20.7-12a6.7,6.7,0,0,1,6-.2l21.6,12.5c1.6.8,1.4,2.4-.4,3.4l-20.8,12A6.7,6.7,0,0,1,141.4,399.2Z"/></clipPath><linearGradient id="Áåçûìÿííûé_ãðàäèåíò_377-5" x1="2390.38" y1="398.51" x2="2505.28" y2="398.51" gradientTransform="translate(-2109.4)" xlink:href="#Áåçûìÿííûé_ãðàäèåíò_377"/><linearGradient id="Áåçûìÿííûé_ãðàäèåíò_388-2" x1="2390.38" y1="411.66" x2="2505.28" y2="411.66" xlink:href="#Áåçûìÿííûé_ãðàäèåíò_388"/><linearGradient id="Áåçûìÿííûé_ãðàäèåíò_300-4" x1="1939.25" y1="-175.84" x2="1993.44" y2="-222.77" gradientTransform="matrix(0.87, 0.5, -1, 0.58, -1566.05, -482.93)" xlink:href="#Áåçûìÿííûé_ãðàäèåíò_300"/><linearGradient id="Áåçûìÿííûé_ãðàäèåíò_302-6" x1="1946.32" y1="-181.96" x2="1986.67" y2="-216.9" gradientTransform="matrix(0.87, 0.5, -1, 0.58, -1566.05, -482.93)" xlink:href="#Áåçûìÿííûé_ãðàäèåíò_302"/><clipPath id="clip-path-5"><path class="cls-2" d="M334.3,399.2l-21.6-12.4c-1.5-.9-1.3-2.5.4-3.5l20.8-12a6.7,6.7,0,0,1,6-.2l21.6,12.5c1.5.8,1.3,2.4-.4,3.4l-20.8,12A6.7,6.7,0,0,1,334.3,399.2Z"/></clipPath><radialGradient id="radial-gradient-2" cx="243.24" cy="130.25" fy="311.02769261039396" r="180.87" gradientUnits="userSpaceOnUse"><stop offset="0" stop-color="#42e8e0"/><stop offset="0.18" stop-color="#35b3bc" stop-opacity="0.75"/><stop offset="0.4" stop-color="#267b96" stop-opacity="0.49"/><stop offset="0.59" stop-color="#1b4e77" stop-opacity="0.28"/><stop offset="0.77" stop-color="#132e61" stop-opacity="0.13"/><stop offset="0.91" stop-color="#0e1a54" stop-opacity="0.03"/><stop offset="1" stop-color="#0c134f" stop-opacity="0"/></radialGradient></defs><g class="cls-3"><g id="Layer_1" data-name="Layer 1"><ellipse class="cls-4" cx="238.1" cy="348.1" rx="238.1" ry="137.4"/><path class="cls-5" d="M230.8,392.3l-77.7-44.8c-5.5-3.2-4.8-8.7,1.6-12.4l74.5-43c6.4-3.7,16-4.1,21.5-.9L328.4,336c5.5,3.2,4.8,8.7-1.6,12.4l-74.5,43C245.9,395.1,236.3,395.5,230.8,392.3Z"/><g class="cls-6"><path class="cls-7" d="M179.3,355.5l28.6,16.6-21.1,12.1.5.8,21.5-12.5L238,389.4a6,6,0,0,0,2.7.6,6.4,6.4,0,0,0,3.3-.8l28.9-16.7L294.5,385l.4-.8L273.7,372,302,355.7a2.7,2.7,0,0,0,1.5-2.2,2,2,0,0,0-1.1-1.7l-58.8-34a6.4,6.4,0,0,0-6,.3l-57.9,33.4a2.8,2.8,0,0,0-1.6,2.2A2,2,0,0,0,179.3,355.5Zm.8-3.2,58-33.4a5.7,5.7,0,0,1,2.9-.8,4.3,4.3,0,0,1,2.1.5l58.8,34a1.1,1.1,0,0,1,.7.9c0,.5-.4,1-1.1,1.4l-58,33.5a5.2,5.2,0,0,1-5,.2l-58.8-33.9a1.3,1.3,0,0,1-.7-1A2,2,0,0,1,180.1,352.3Z"/><path class="cls-8" d="M390.8,404.3l-47.2-27.2c-3.6-2.1-9.9-1.9-14,.5l-45.3,26.2c-2.3,1.3-3.7,3.2-3.7,5.1a4.8,4.8,0,0,0,2.7,4L307.7,427l-63.1,36.5a7.8,7.8,0,0,1-7.8,0L173.6,427,197,413.5c2.4-1.4,3.7-3.2,3.7-5.1a4.9,4.9,0,0,0-2.7-4.1l-47.2-27.2c-3.6-2.1-9.9-1.9-14.1.5L91.4,403.8c-2.3,1.3-3.7,3.2-3.7,5.1s1,3,2.8,4l47.2,27.3a12.8,12.8,0,0,0,6.1,1.4,16.8,16.8,0,0,0,7.9-1.9l21-12.2,63.7,36.7a8.2,8.2,0,0,0,4.3,1.2,8.5,8.5,0,0,0,4.3-1.2l63.5-36.7h-.1l22.2,12.8a12.2,12.2,0,0,0,6.1,1.4,17.1,17.1,0,0,0,7.9-1.9l45.3-26.2c2.3-1.4,3.7-3.2,3.7-5.1A4.8,4.8,0,0,0,390.8,404.3ZM151.3,438.9a16.6,16.6,0,0,1-7.5,1.8,11.2,11.2,0,0,1-5.7-1.3L90.9,412.2a4.2,4.2,0,0,1-2.2-3.3c0-1.6,1.1-3.2,3.2-4.3l45.3-26.2a15.4,15.4,0,0,1,7.4-1.9,11.2,11.2,0,0,1,5.7,1.4l47.2,27.2c1.5.9,2.3,2,2.3,3.3s-1.2,3.1-3.2,4.3Zm238.1-26.2-45.3,26.2a15.9,15.9,0,0,1-7.4,1.8,11.2,11.2,0,0,1-5.7-1.3l-47.2-27.2a4.1,4.1,0,0,1-2.3-3.3c0-1.6,1.2-3.2,3.2-4.3l45.4-26.2a15.4,15.4,0,0,1,7.4-1.9,11.5,11.5,0,0,1,5.7,1.4l47.2,27.2c1.5.9,2.3,2,2.3,3.3S391.5,411.5,389.4,412.7Z"/></g><path class="cls-5" d="M458.1,308.4c1.5-7.4-2.4-12.7-9.8-15.5h0l-.5-.2h0a41.1,41.1,0,0,0-10.1-2c-10.5-.7-18.3,2.5-20.8,7.9a10,10,0,0,1-4.2,4.8,9.7,9.7,0,0,1-2.3,1.1h-.1a17.3,17.3,0,0,1-8.2.3c-8.2-1.3-15.8-.4-20.5,2.5-2.6,1.6-5.1,3.3-7.7,5.1-42.1,30.5-83.1,41.2-97.3,46.5a2.3,2.3,0,0,0-1.4,3.6h0l.2.3h0a10.3,10.3,0,0,0,6.8,3.4,343.1,343.1,0,0,0,35.1,2h.7c20.4,0,45.6-1.8,69.8-8.5l.9-.3h.5c5.1-1.8,8.1-5.1,8.5-9.1.1-1.7,1.2-3.4,3.6-5,5.5-3.8,14.2-4.7,22.8-5.2,5.2-.3,9.5-1.7,12.2-3.9h.1l3.2-2.7c.1-.1.2-.1.2-.2h0c11.3-9.7,17-18,18.3-24.6v-.2Z"/><path class="cls-5" d="M382.7,213.9c-.3-4.7-3.5-7.4-8.5-7.9h-.3a20.9,20.9,0,0,0-6.5.4c-6.5,1.2-10.8,4.5-11.4,8.2a7.5,7.5,0,0,1-1.8,3.7l-1.2.9h-.1a12.8,12.8,0,0,1-5,1.5c-5.2.6-9.7,2.3-12.1,4.9l-3.9,4.3c-20.7,25.5-44.1,38.7-51.8,44.2-1.1.8-1.1,1.7-.3,2.4h.1a6.3,6.3,0,0,0,4.7,1c4.5-.7,12.4-2.1,21.8-4.5h.4c12.5-3.3,27.6-8.5,41.3-16.5l.5-.4h.3c2.8-2,4.1-4.4,3.7-7-.2-1,.2-2.2,1.4-3.6,2.8-3.2,7.9-5.1,13.1-6.9,3.1-1,5.5-2.5,6.8-4.3h0l1.6-2.1V232h0c5.3-7.7,7.4-13.7,7.2-18Z"/><path class="cls-5" d="M236.1,250.1a5.1,5.1,0,0,0-4.1-.9,28.9,28.9,0,0,0-19.5,15.7c-6.1,13.1,3.4,22.1,5.4,23.8a75.5,75.5,0,0,1-5.2,6.6l-9.1-5.1c-5.2-2.9-10.6-6.1-16.4-9.5l-4.3-2.7-2.2-1.3-2.1-1.4-4.5-2.8-4.3-2.9c1.4-1.3,4.1-4.1,7.5-7.8,3.1.1,19.4.3,26-11.5,5.5-9.9,0-16.8-2.9-19.5a4.9,4.9,0,0,0-3.5-1.1c-4.2.6-13.8,2.8-20.6,11.7-8.1,10.4-1.2,18.7.2,20.1-3.2,3.6-5.9,6.3-7.3,7.7-2.9-1.8-5.7-3.7-8.5-5.7s-3-2-4.5-3.1l-4.5-3.2c-4.9-3.5-9.8-7.1-14.5-10.8l3.6-2.7,6.4-5c2.5.2,18,1.4,25.9-8.7,6.6-8.5,2.4-14.9.1-17.4a4.4,4.4,0,0,0-3.2-1.2,33.7,33.7,0,0,0-20.8,9.2c-8.8,8.6-3.9,16.1-2.7,17.7l-9.8,7.7-2.5-2c-7.9-6.3-15.3-12.7-22.1-19.1a67.4,67.4,0,0,0,8.4-5.7c.9-.6,1.8-1.4,2.8-2.2,2.5.1,15.1.4,20.5-8.4s.6-12.9-1.5-15a3.6,3.6,0,0,0-2.7-.8,25.2,25.2,0,0,0-16.4,8.6c-6.4,7.6-1.8,13.9-.6,15.3a74.4,74.4,0,0,1-11,7.7c-2.9-2.6-5.6-5.3-8.2-8L98.2,211h.1l-.4-.3-1.7-1.9c.5-.9,2.8-5,5.5-10.2,2.6-.1,14.3-1.2,17.1-10.7s-2.9-13.4-5.5-15.3a3.3,3.3,0,0,0-2.7-.6,19.4,19.4,0,0,0-13.2,10.6c-4.1,8.7,2.2,14.7,3.6,15.8-2.5,4.7-4.6,8.5-5.4,9.8A196.9,196.9,0,0,1,81.9,191l-2-2.7-1.8-2.7-.4-.7c1.1-.8,5.2-4.4.7-12.4a28.9,28.9,0,0,0-12.3-11.7,2.5,2.5,0,0,0-2.2-.1c-1.9,1-5.6,4-2.5,11.4S75.1,184.4,77.1,185l.4.7c.6.8,1.1,1.7,1.7,2.6a28.3,28.3,0,0,0,2,2.8,194.5,194.5,0,0,0,15.2,19.3l-19.9-3.2c-1.3-1.2-7.7-6.7-22.9-8.9-13.1-1.8-19.8.1-22.2,1.1-.8.2-.9.9-.4,1.5s7.2,6.7,21,9.4c16,3.2,23-1.5,24.4-2.6l20.5,3.2c1.7,1.9,3.5,3.9,5.4,5.8s6.4,6.6,10,10c-2.1.3-7.7,1.2-15.4,2-1.7-1-10.6-5.9-26-5-13.2.7-18.4,4.2-20.2,5.8s-.3,1.2.5,1.8c2.8,1.9,10.3,5.9,24.6,6,16.6.1,20.6-6.6,21.3-8.1,7.9-.8,13.7-1.7,15.6-2.1,6.2,5.9,12.9,11.7,20,17.5l4.6,3.7c-1.8.4-7.4,1.7-15.1,3.2-2.2-1.1-13.1-5.7-29.4-3.1-13.9,2.3-18.6,7-20,9.1s0,1.4,1,2c3.5,1.9,12.8,5.8,28.2,4.3,18.2-1.6,20.4-10.2,20.6-11.8l15.3-3.2L150,258l4.5,3.2,4.5,3.2,8.9,6.2a4.1,4.1,0,0,1,1.1.7c-1.2.6-4.8,2.1-10.5,4.2-2.6-1-16.1-5.4-33.5-.4-14.8,4.3-18.6,10.5-19.6,13.2-.3.8.5,1.7,1.8,2.3,4.4,1.9,15.8,5.5,32.4,2.1,20-4.2,19.6-15,19.4-16.8,5.8-2.1,9.4-3.7,10.6-4.2l2.8,1.8,4.4,2.9,2.2,1.4,2.1,1.4,4.3,2.6,16.3,9.8,9.9,5.6c-1.2.6-4.9,2.3-10.6,4.7-2.1-.8-17.6-6-36.9.3-16,5.1-19.7,12.1-20.6,15.1-.3.9.5,1.9,2,2.5,4.9,2,17.6,5.8,35.7,1.6,21.1-5,20.5-16.7,20.2-19,5.9-2.5,9.7-4.3,10.9-4.9,5.8,3.2,10.8,5.9,14.8,7.9l7.4,3.7,2.7,1.3,1.7-1.8-2.6-1.2-7.3-3.6c-4.2-2.1-9.5-4.9-15.6-8.2a74.4,74.4,0,0,0,5.2-6.7c2.8-.1,21.5-1.2,25.7-16.1C247.8,260.5,240,252.9,236.1,250.1Z"/><g class="cls-6"><path class="cls-9" d="M208.5,292.8s-8.7,24.2-41.3,27c-24.9,2.2-36.1-7.7-40-12.4a3.8,3.8,0,0,1-.1-4.8c3.8-4.7,14.6-15.4,38-19.7C195.5,277.4,208.5,292.8,208.5,292.8Z"/></g><g class="cls-6"><path class="cls-10" d="M240.3,275.6s25,5.8,45.1-19.9c15.5-19.7,13.3-34.5,11.5-40.3a3.8,3.8,0,0,0-4-2.6c-6.1.5-20.9,3.8-37.2,21C234.4,256.3,240.3,275.6,240.3,275.6Z"/></g><g class="cls-6"><path class="cls-11" d="M217.1,218.7s20.9,8,41.3-11.9c15.7-15.2,15.6-28.3,14.7-33.5a3.4,3.4,0,0,0-3.2-2.8c-5.3-.2-18.5.9-34.6,13.9C214.3,201.3,217.1,218.7,217.1,218.7Z"/></g><g class="cls-6"><path class="cls-12" d="M203.5,171.6s18.3,9,38.6-7.2c15.5-12.5,16.5-24.3,16.1-29.2a3.1,3.1,0,0,0-2.6-2.8c-4.8-.6-16.9-.8-32.6,9.6C202.5,155.6,203.5,171.6,203.5,171.6Z"/></g><g class="cls-6"><path class="cls-13" d="M195.7,128.7s15.9,6.6,32.1-8.2C240.1,109.1,240.3,99,239.7,95a2.5,2.5,0,0,0-2.3-2.2c-4.1-.3-14.3.3-27,9.9C193.9,115.3,195.7,128.7,195.7,128.7Z"/></g><g class="cls-6"><path class="cls-14" d="M187.4,92s16.8,3.9,30.4-13.3c10.4-13.2,8.9-23.2,7.7-27.1a2.6,2.6,0,0,0-2.7-1.8c-4,.4-14,2.6-25,14.1C183.5,79,187.4,92,187.4,92Z"/></g><g class="cls-6"><path class="cls-15" d="M183.5,237.1s-8.6,21.6-38.1,23.2c-22.7,1.2-32.5-8-35.9-12.5a3.5,3.5,0,0,1,.1-4.3c3.6-4.2,13.7-13.5,34.9-16.6C172.2,222.7,183.5,237.1,183.5,237.1Z"/></g><g class="cls-6"><path class="cls-16" d="M163.4,186.9s-10.1,17.1-35.3,14.7c-19.2-1.8-26.4-10.9-28.7-15.1a2.9,2.9,0,0,1,.6-3.6c3.6-3.1,13.3-9.7,31.7-9.6C155.6,173.3,163.4,186.9,163.4,186.9Z"/></g><g class="cls-6"><path class="cls-17" d="M154.7,141.7s-11,13.6-32.6,8.3c-16.5-4.1-21.6-13-23-16.9a2.6,2.6,0,0,1,1-3.1c3.5-2.2,12.8-6.7,28.8-4.3C149.8,128.9,154.7,141.7,154.7,141.7Z"/></g><g class="cls-6"><path class="cls-18" d="M150.7,100.2s-13.7,8.9-31.4-2c-13.6-8.4-15.6-17.7-15.7-21.7a2.4,2.4,0,0,1,1.8-2.4c3.7-1,13.3-2.3,26.8,4.4C149.9,87.3,150.7,100.2,150.7,100.2Z"/></g><g class="cls-6"><path class="cls-19" d="M172.1,62.8s-10.9-8.8-6.7-26.1c3.2-13.3,10.3-17.4,13.5-18.6a2,2,0,0,1,2.4.9c1.8,2.7,5.5,10.2,3.6,23.1C182.4,58.8,172.1,62.8,172.1,62.8Z"/></g><path class="cls-20" d="M147.3,303.8a.5.5,0,0,1,.4-.5A346.8,346.8,0,0,0,225,287.6c-2.1-3.7-4.2-7.8-6.4-12.1-3.2-6.3-6.6-13.3-10-20.8l-2.5-5.7c-.4-.9-.8-1.9-1.3-2.9l-1.2-2.9-2.5-6-1.5-3.8c-4.8,1.4-32,9.3-71.6,12.2a.5.5,0,1,1-.1-.9c39.4-2.9,66.4-10.7,71.4-12.2l-.6-1.5c-1.7-4.2-3.2-8.4-4.8-12.8-.8-2.1-1.5-4.3-2.3-6.5s-1.5-4.4-2.2-6.6c-2-6.2-3.9-12.5-5.6-18.9-5.3.4-38.3,2.8-70.1.8a.5.5,0,0,1-.4-.5c0-.2.3-.4.5-.4,31.3,2,64-.3,69.7-.8-.7-2.5-1.3-5-1.9-7.6-2.9-11.5-5.3-23.2-7.1-34.7-5.5,0-32.9-.3-60.1-6.7-.2,0-.3-.3-.3-.5s.3-.4.5-.3c26.9,6.3,54,6.6,59.7,6.6-1-6.5-1.8-13-2.4-19.4-.4-3.8-.7-7.5-.9-11.2-6.2-3.3-38.8-20.8-54.4-27.6a.4.4,0,0,1-.2-.6.5.5,0,0,1,.6-.2c15.2,6.6,46.6,23.4,53.9,27.3a294.1,294.1,0,0,1,0-36.4l.3-5.2c.1-1.7.3-3.4.5-5,.3-3.2.6-6.3.9-9.2s.9-5.5,1.3-8,.7-4.8,1.1-6.8c1.7-8.2,2.7-12.8,2.7-12.8h.3l-2.5,12.8c-.4,2-.7,4.3-1,6.8s-.8,5.1-1.2,8-.5,5.9-.8,9.2c-.1,1.6-.3,3.2-.4,4.9s-.2,3.5-.2,5.2a295.9,295.9,0,0,0,.2,32.5c5-4.9,30.4-29.8,44.3-44.8a.5.5,0,0,1,.7,0,.4.4,0,0,1,0,.6c-14.5,15.8-41.7,42.2-44.9,45.3.1,1.2.1,2.5.2,3.7a.5.5,0,0,1,.2.6h-.1c.3,3.5.6,7,1,10.5.6,5.2,1.3,10.4,2.1,15.7,4.8-1.9,29.4-12.4,53.2-34.7.2-.2.5-.2.6,0s.2.5,0,.6a187.7,187.7,0,0,1-38.6,27.8,129.9,129.9,0,0,1-15,7.2,367.8,367.8,0,0,0,8.1,38c.3,1.4.7,2.7,1.1,4.1,6.7-3.5,34-18.1,59-36.2.2-.1.5-.1.6.1a.4.4,0,0,1-.1.6c-19.9,14.5-41.4,26.7-52.7,32.8-3,1.7-5.2,2.8-6.6,3.5,2.1,7.5,4.4,14.9,6.8,22.2.8,2.2,1.6,4.4,2.3,6.6s1.5,4.3,2.4,6.4c1.5,4.1,3,8,4.6,11.9,7.8-5.1,34.3-23.2,58.1-45.4a.5.5,0,0,1,.6.1.4.4,0,0,1,0,.6c-24,22.4-50.7,40.5-58.3,45.6l2.4,5.9,2.6,6,1.2,2.9c.5.9.9,1.9,1.3,2.8s1.8,3.8,2.6,5.7c3.5,7.3,6.9,14.2,10.2,20.5l6,10.9c5-3.6,30.6-23,56.7-56.2.1-.2.4-.2.6-.1a.5.5,0,0,1,.1.6c-26.2,33.5-52.1,53-57,56.5,4.1,7.2,7.7,13.3,10.7,18s3.9,6.2,5.2,8l1.9,2.8-3.7,2.5-1.9-2.8-5.2-8.3c-2.8-4.5-6.2-10.4-10-17.3a341.5,341.5,0,0,1-77.6,15.8A.5.5,0,0,1,147.3,303.8Z"/><path class="cls-21" d="M471.2,239.9h.1c42-69.6,32.8-102.6,4.3-97-12.7,2.5-22.5,12.4-25.7,24.9a34.6,34.6,0,0,1-5.5,11.9,16.2,16.2,0,0,1-12.9,7A33.3,33.3,0,0,0,406.4,200c-3.2,4.3-6.4,9-9.6,13.8-53,81.3-103.5,119.9-121,136.7a7.8,7.8,0,0,0,6.3,13.3c20.2-2.5,76.1-12.9,128.7-54.9a34,34,0,0,0,12.6-24,25,25,0,0,1,4.7-12.1c7-10.2,17.5-15.4,28-19.9A32.5,32.5,0,0,0,471.2,239.9Z"/><path class="cls-22" d="M434.2,227.4l41.1,5.5.3-.6-41-5.5q20.3-27.5,39.9-59.9l24.8,6.3a1.5,1.5,0,0,1,.1-.7l-24.6-6.1c4.5-7.5,9.1-15.2,13.6-23.1l-.6-.2c-12.8,22.4-25.4,42.4-37.5,60.3l-8.5-20.9-.5.4,8.6,21.1a672.9,672.9,0,0,1-45.8,60.2l-13-41.7-.5.6,13,41.7c-24.3,28.2-45.7,47.4-62.9,60.3l-3.1,2.3-2.3-34.1-.6.7,2.3,33.8c-33.8,24.6-57,29.8-63.1,30.9a1.4,1.4,0,0,0,.2.6c4.5-.8,17.1-3.6,35.8-13.6l14.8,8.7h.8l-15-8.7A249.4,249.4,0,0,0,341,325.7a359.6,359.6,0,0,0,36.1-31.4L412,308l.6-.5-35-13.7a528.4,528.4,0,0,0,37.2-41.2C421.3,244.6,427.8,236.2,434.2,227.4Z"/><path class="cls-23" d="M380.4,164.7h0c20-53.4,9.5-74.9-9.5-67.4-8.4,3.3-13.8,11.5-14.5,20.5a22.8,22.8,0,0,1-2.2,8.9,11.8,11.8,0,0,1-8,6.5,23,23,0,0,0-15.6,12.4q-2.4,5.1-4.8,10.8c-26.1,62.7-55.9,95.8-65.8,109.7a5.4,5.4,0,0,0,6,8.3c13.6-4.3,50.8-18.7,81.7-54.3a23.9,23.9,0,0,0,5.5-18.2,18.1,18.1,0,0,1,1.7-8.9c3.5-7.9,10.1-12.9,16.8-17.4A22.9,22.9,0,0,0,380.4,164.7Z"/><path class="cls-24" d="M353.3,160.9l29-1.5c.1-.1.1-.3.2-.4l-29,1.4c6.9-14.3,13.5-29.8,19.8-46.3l17.9,1.1a.9.9,0,0,0-.1-.5l-17.7-1c2.2-5.8,4.3-11.7,6.4-17.7h-.4c-6,17.1-12,32.5-18.1,46.4L352.8,129l-.3.3,8.6,13.5a484.1,484.1,0,0,1-23.8,47.4L322.9,163a.8.8,0,0,1-.2.5L337,190.6c-13.1,22.6-25.4,38.5-35.6,49.7l-1.8,1.9-6-23.2-.3.5,5.9,23.1c-20.1,21.2-35.4,27.8-39.5,29.3a.5.5,0,0,0,.2.4c3-1.1,11.4-4.7,22.9-13.9l11.3,4h.2l.3-.2h.1L283.2,258a165.7,165.7,0,0,0,18.5-17.4,231.9,231.9,0,0,0,20.8-26.3l25.9,5,.3-.4-25.9-5a341.5,341.5,0,0,0,20.3-33.1C346.6,174.4,350,167.8,353.3,160.9Z"/><path class="cls-5" d="M192.3,352.9c-14.2-5.3-55.2-16-97.3-46.5-2.5-1.8-5.1-3.5-7.7-5.1-4.7-2.9-12.3-3.8-20.5-2.5a19.8,19.8,0,0,1-8.1-.3c-.1,0-.2,0-.2-.1a5.5,5.5,0,0,1-2.2-1,9.8,9.8,0,0,1-4.3-4.8c-2.4-5.4-10.3-8.6-20.8-7.9a36.9,36.9,0,0,0-10.1,2h0l-.5.2h0c-7.3,2.8-11.3,8.1-9.8,15.5h0v.2c1.4,6.6,7,14.9,18.3,24.6h0l.2.2,3.2,2.7h.1c2.8,2.2,7.1,3.6,12.2,3.9,8.7.5,17.3,1.4,22.8,5.2,2.4,1.6,3.5,3.3,3.7,5,.4,4,3.3,7.3,8.5,9.1h.4l.9.3c24.2,6.7,49.4,8.5,69.9,8.5h.6a320.2,320.2,0,0,0,35.1-1.9,10.2,10.2,0,0,0,6.8-3.4h0l.2-.3h0A2.3,2.3,0,0,0,192.3,352.9Z"/><path class="cls-25" d="M35.5,259.3h0C1.6,203.2,9,176.6,32,181.2a27.1,27.1,0,0,1,20.7,20,26.8,26.8,0,0,0,4.4,9.6,13.1,13.1,0,0,0,10.4,5.7,26.4,26.4,0,0,1,20.2,10.7c2.6,3.5,5.2,7.2,7.7,11.2,42.7,65.4,83.4,96.5,97.5,110.1a6.3,6.3,0,0,1-5.1,10.7c-16.2-2-61.3-10.5-103.7-44.2A28.1,28.1,0,0,1,74,295.6a19.3,19.3,0,0,0-3.8-9.8c-5.6-8.1-14-12.3-22.6-16A25.8,25.8,0,0,1,35.5,259.3Z"/><path class="cls-26" d="M65.3,249.3l-33.1,4.4-.3-.4L65,248.8c-10.8-14.7-21.6-30.9-32.1-48.2l-20,5a.9.9,0,0,0-.1-.5l19.8-5c-3.6-6-7.3-12.2-10.9-18.5l.5-.2q15.5,27,30.2,48.6l6.8-16.9.4.3-6.9,17.1A537.5,537.5,0,0,0,89.6,279l10.5-33.7.3.5L89.9,279.4c19.6,22.7,36.9,38.2,50.7,48.6l2.5,1.8,1.9-27.4.4.5-1.8,27.3c27.2,19.8,45.9,24,50.9,24.8-.1.2-.2.3-.2.5-3.6-.6-13.8-2.9-28.9-10.9l-11.9,7c0-.1-.1-.1-.2-.1h-.4l12-7.1a208.1,208.1,0,0,1-24.5-15.8,285.6,285.6,0,0,1-29.1-25.3l-28.1,11-.5-.4,28.2-11A412.4,412.4,0,0,1,81,269.6C75.7,263.1,70.5,256.4,65.3,249.3Z"/><path class="cls-27" d="M333.5,205.9H295l-42.9-24.7c-5.5-3.2-15.1-2.8-21.5.9l-41.3,23.8H150.8V317.3h0c-.1,2.2,1.1,4.2,3.7,5.8l77.7,44.8c5.5,3.2,15.1,2.8,21.5-.9l74.5-43c3.3-1.9,5.1-4.4,5.3-6.7h0Z"/><path class="cls-28" d="M332.4,205.9V318.5h-.1a6.5,6.5,0,0,1-1.3,3.4,7.9,7.9,0,0,0,2.5-4.6h0V205.9Z"/><path class="cls-29" d="M232.2,256.5l-77.7-44.8c-5.5-3.2-4.8-8.8,1.6-12.4l74.5-43.1c6.4-3.6,16-4,21.5-.9l77.7,44.9c5.5,3.1,4.8,8.7-1.6,12.4l-74.5,43C247.3,259.3,237.7,259.7,232.2,256.5Z"/><path class="cls-30" d="M233.7,256.5l-77.6-44.8c-5.5-3.2-4.9-8.8,1.5-12.4l74.5-43.1a24.5,24.5,0,0,1,11.4-3,25.8,25.8,0,0,0-12.9,3l-74.5,43.1c-6.4,3.6-7.1,9.2-1.6,12.4l77.7,44.8a18,18,0,0,0,10.1,2.1A19.2,19.2,0,0,1,233.7,256.5Z"/><path class="cls-28" d="M329.8,200.2l-77.7-44.9a20.2,20.2,0,0,0-10.2-2.1,18.8,18.8,0,0,1,8.6,2.1l77.7,44.9c5.5,3.1,4.8,8.7-1.6,12.4l-74.5,43a24.5,24.5,0,0,1-11.4,3,25,25,0,0,0,13-3l74.5-43C334.6,208.9,335.3,203.3,329.8,200.2Z"/><path class="cls-31" d="M234.7,243.6l-57.8-33.4c-4.1-2.4-3.6-6.5,1.2-9.2l55.5-32.1c4.7-2.7,11.9-3,16-.6l57.8,33.3c4.1,2.4,3.6,6.5-1.2,9.3l-55.5,32C246,245.7,238.8,246,234.7,243.6Z"/><path class="cls-1" d="M236.8,233.2,194.9,209c-3-1.7-2.6-4.7.8-6.7l40.2-23.2c3.5-2,8.7-2.2,11.6-.5l41.9,24.2c3,1.7,2.6,4.7-.8,6.7l-40.2,23.2C244.9,234.7,239.7,234.9,236.8,233.2Z"/><g class="cls-32"><path class="cls-33" d="M195.7,205.6l40.2-23.2c3.5-2,8.7-2.2,11.6-.5l41.9,24.2a4.9,4.9,0,0,1,1.5,1.3c1-1.6.6-3.4-1.5-4.6l-41.9-24.2c-2.9-1.7-8.1-1.5-11.6.5l-40.2,23.2c-2.7,1.6-3.5,3.7-2.3,5.4A6.8,6.8,0,0,1,195.7,205.6Z"/><path class="cls-34" d="M195.7,209.5l40.2-23.2c3.5-2,8.7-2.2,11.6-.5L289.4,210a4.3,4.3,0,0,1,1.2,1.1c1.4-1.8,1-3.7-1.2-5l-41.9-24.2c-2.9-1.7-8.1-1.5-11.6.5l-40.2,23.2c-2.8,1.6-3.5,4-2.1,5.7A9.8,9.8,0,0,1,195.7,209.5Z"/><path class="cls-35" d="M194.1,215.7a5.3,5.3,0,0,1,1.6-1.3l40.2-23.3c3.5-1.9,8.7-2.2,11.6-.4l41.9,24.1.8.6c1.8-1.8,1.6-4-.8-5.4l-41.9-24.2c-2.9-1.7-8.1-1.5-11.6.5l-40.2,23.2C192.6,211.3,192,213.9,194.1,215.7Z"/></g><path class="cls-36" d="M333.5,187.4H295l-42.9-24.7c-5.5-3.2-15.1-2.8-21.5.9l-41.3,23.8H150.8v8h0c-.1,2.1,1.1,4.2,3.7,5.8L232.2,246c5.5,3.2,15.1,2.8,21.5-.9L328.2,202c3.3-1.9,5.1-4.3,5.3-6.6h0Z"/><path class="cls-28" d="M332.4,187.4v9.2h-.1A6.9,6.9,0,0,1,331,200a8.2,8.2,0,0,0,2.5-4.6h0v-8Z"/><path class="cls-37" d="M232.2,238l-77.7-44.8c-5.5-3.2-4.8-8.7,1.6-12.4l74.5-43.1c6.4-3.6,16-4,21.5-.8l77.7,44.8c5.5,3.2,4.8,8.7-1.6,12.4l-74.5,43C247.3,240.8,237.7,241.2,232.2,238Z"/><path class="cls-30" d="M233.7,238l-77.6-44.8c-5.5-3.2-4.9-8.7,1.5-12.4l74.5-43.1a25.8,25.8,0,0,1,11.4-3,25.8,25.8,0,0,0-12.9,3l-74.5,43.1c-6.4,3.7-7.1,9.2-1.6,12.4L232.2,238a18,18,0,0,0,10.1,2.1A16.9,16.9,0,0,1,233.7,238Z"/><path class="cls-28" d="M329.8,181.7l-77.7-44.8a19.3,19.3,0,0,0-10.2-2.2,17.7,17.7,0,0,1,8.6,2.2l77.7,44.8c5.5,3.2,4.8,8.7-1.6,12.4l-74.5,43a24.5,24.5,0,0,1-11.4,3,24,24,0,0,0,13-3l74.5-43C334.6,190.4,335.3,184.9,329.8,181.7Z"/><path class="cls-38" d="M234.7,225.1l-57.8-33.4c-4.1-2.3-3.6-6.5,1.2-9.2l55.5-32.1c4.7-2.7,11.9-3,16-.6l57.8,33.3c4.1,2.4,3.6,6.6-1.2,9.3l-55.5,32C246,227.2,238.8,227.5,234.7,225.1Z"/><path class="cls-1" d="M236.8,214.7l-41.9-24.2c-3-1.7-2.6-4.7.8-6.7l40.2-23.2c3.5-2,8.7-2.2,11.6-.4l41.9,24.1c3,1.7,2.6,4.7-.8,6.7l-40.2,23.2C244.9,216.2,239.7,216.4,236.8,214.7Z"/><g class="cls-39"><path class="cls-33" d="M195.7,187.1l40.2-23.2c3.5-2,8.7-2.2,11.6-.5l41.9,24.2a4.9,4.9,0,0,1,1.5,1.3c1-1.6.6-3.4-1.5-4.6l-41.9-24.2c-2.9-1.7-8.1-1.5-11.6.5l-40.2,23.2c-2.7,1.6-3.5,3.7-2.3,5.4A6.8,6.8,0,0,1,195.7,187.1Z"/><path class="cls-34" d="M195.7,191.1l40.2-23.3c3.5-1.9,8.7-2.2,11.6-.4l41.9,24.1a4.3,4.3,0,0,1,1.2,1.1c1.4-1.8,1-3.7-1.2-5l-41.9-24.2c-2.9-1.7-8.1-1.5-11.6.5l-40.2,23.2c-2.8,1.6-3.5,4-2.1,5.7A7.4,7.4,0,0,1,195.7,191.1Z"/><path class="cls-35" d="M194.1,197.2a5.3,5.3,0,0,1,1.6-1.3l40.2-23.2c3.5-2,8.7-2.2,11.6-.5l41.9,24.2.8.5c1.8-1.8,1.6-4-.8-5.4l-41.9-24.1c-2.9-1.8-8.1-1.5-11.6.4l-40.2,23.3C192.6,192.8,192,195.4,194.1,197.2Z"/></g><path class="cls-40" d="M333.5,171.7H295l-42.9-24.8c-5.5-3.1-15.1-2.7-21.5.9l-41.3,23.9H150.8v7.9h0c-.1,2.2,1.1,4.3,3.7,5.8l77.7,44.8c5.5,3.2,15.1,2.8,21.5-.9l74.5-43c3.3-1.9,5.1-4.3,5.3-6.7h0Z"/><path class="cls-28" d="M332.4,171.7v9.2h-.1a6.5,6.5,0,0,1-1.3,3.3,7.6,7.6,0,0,0,2.5-4.6h0v-7.9Z"/><path class="cls-41" d="M232.2,222.3l-77.7-44.8c-5.5-3.2-4.8-8.8,1.6-12.5l74.5-43c6.4-3.7,16-4.1,21.5-.9l77.7,44.8c5.5,3.2,4.8,8.8-1.6,12.4l-74.5,43.1C247.3,225.1,237.7,225.4,232.2,222.3Z"/><path class="cls-30" d="M233.7,222.3l-77.6-44.8c-5.5-3.2-4.9-8.8,1.5-12.5l74.5-43a24.5,24.5,0,0,1,11.4-3,24.8,24.8,0,0,0-12.9,3l-74.5,43c-6.4,3.7-7.1,9.3-1.6,12.5l77.7,44.8a19.9,19.9,0,0,0,10.1,2.1A19.2,19.2,0,0,1,233.7,222.3Z"/><path class="cls-28" d="M329.8,165.9l-77.7-44.8a18.3,18.3,0,0,0-10.2-2.1,18.8,18.8,0,0,1,8.6,2.1l77.7,44.8c5.5,3.2,4.8,8.8-1.6,12.4l-74.5,43.1a25.8,25.8,0,0,1-11.4,3,26,26,0,0,0,13-3l74.5-43.1C334.6,174.7,335.3,169.1,329.8,165.9Z"/><path class="cls-42" d="M234.7,209.3,176.9,176c-4.1-2.4-3.6-6.5,1.2-9.3l55.5-32c4.7-2.8,11.9-3,16-.7l57.8,33.4c4.1,2.4,3.6,6.5-1.2,9.2l-55.5,32.1C246,211.4,238.8,211.7,234.7,209.3Z"/><path class="cls-1" d="M236.8,199l-41.9-24.2c-3-1.7-2.6-4.7.8-6.7l40.2-23.2c3.5-2,8.7-2.2,11.6-.5l41.9,24.2c3,1.7,2.6,4.7-.8,6.7l-40.2,23.2C244.9,200.5,239.7,200.7,236.8,199Z"/><g class="cls-43"><path class="cls-33" d="M195.7,171.4l40.2-23.3c3.5-1.9,8.7-2.2,11.6-.4l41.9,24.1a5.1,5.1,0,0,1,1.5,1.4c1-1.7.6-3.5-1.5-4.6l-41.9-24.2c-2.9-1.7-8.1-1.5-11.6.5l-40.2,23.2c-2.7,1.5-3.5,3.7-2.3,5.4A5.9,5.9,0,0,1,195.7,171.4Z"/><path class="cls-34" d="M195.7,175.3l40.2-23.2c3.5-2,8.7-2.2,11.6-.5l41.9,24.2a4,4,0,0,1,1.2,1c1.4-1.7,1-3.7-1.2-5l-41.9-24.1c-2.9-1.8-8.1-1.5-11.6.4l-40.2,23.3c-2.8,1.6-3.5,3.9-2.1,5.6A7.4,7.4,0,0,1,195.7,175.3Z"/><path class="cls-35" d="M194.1,181.4a7.5,7.5,0,0,1,1.6-1.3l40.2-23.2c3.5-2,8.7-2.2,11.6-.5l41.9,24.2.8.6c1.8-1.8,1.6-4-.8-5.4l-41.9-24.2c-2.9-1.7-8.1-1.5-11.6.5l-40.2,23.2C192.6,177.1,192,179.7,194.1,181.4Z"/></g><path class="cls-44" d="M226.5,351.1l-63.1-36.4a7.3,7.3,0,0,1-3-5.9V231.4c0-2.3,1.3-3.3,3-2.3l63.1,36.4a7.3,7.3,0,0,1,3,5.9v77.4C229.5,351,228.2,352.1,226.5,351.1Z"/><path class="cls-1" d="M217.2,333.2l-44.5-25.7a5.3,5.3,0,0,1-2.2-4.2V248.7c0-1.6,1-2.4,2.2-1.7l44.5,25.7a5.3,5.3,0,0,1,2.2,4.2v54.6C219.4,333.1,218.4,333.9,217.2,333.2Z"/><path class="cls-33" d="M175.8,305.4a5.1,5.1,0,0,1-2.2-4.1V247.5l-.9-.5c-1.2-.7-2.2.1-2.2,1.7v54.6a5.3,5.3,0,0,0,2.2,4.2l44.5,25.7c1.2.7,2.2-.1,2.2-1.7v-.9Z"/><polygon class="cls-33" points="187.6 270.5 178.5 265.3 178.5 263.7 187.6 269 187.6 270.5"/><polygon class="cls-35" points="194.8 274.7 190.3 272.1 190.3 270.5 194.8 273.1 194.8 274.7"/><polygon class="cls-33" points="201.7 278.7 197.2 276 197.2 274.5 201.7 277.1 201.7 278.7"/><polygon class="cls-33" points="208.6 282.6 204.1 280 204.1 278.5 208.6 281.1 208.6 282.6"/><polygon class="cls-33" points="187.6 274.2 178.5 269 178.5 267.4 187.6 272.7 187.6 274.2"/><polygon class="cls-35" points="194.8 278.4 190.3 275.8 190.3 274.2 194.8 276.8 194.8 278.4"/><polygon class="cls-33" points="201.7 282.4 197.2 279.7 197.2 278.2 201.7 280.8 201.7 282.4"/><polygon class="cls-33" points="208.6 286.3 204.1 283.7 204.1 282.2 208.6 284.8 208.6 286.3"/><polygon class="cls-33" points="187.6 277.9 178.5 272.7 178.5 271.1 187.6 276.4 187.6 277.9"/><polygon class="cls-33" points="198.3 282.5 197.2 281.9 190.3 277.9 190.3 279.4 197.2 283.4 198.3 284.1 201.7 286.1 201.7 284.5 198.3 282.5"/><polygon class="cls-33" points="208.6 290 204.1 287.4 204.1 285.9 208.6 288.5 208.6 290"/><polygon class="cls-33" points="211 282.5 211 286.2 211 287.7 211 289.9 211 290.3 211 291.4 215.5 294 215.5 292.9 215.5 292.5 215.5 290.3 215.5 288.8 215.5 285.1 211 282.5"/><polygon class="cls-35" points="187.6 281.6 178.5 276.4 178.5 274.8 187.6 280.1 187.6 281.6"/><polygon class="cls-33" points="194.8 285.8 190.3 283.1 190.3 281.6 194.8 284.2 194.8 285.8"/><polygon class="cls-33" points="201.7 288.2 200.5 287.5 197.2 285.6 197.2 287.1 200.5 289.1 201.7 289.8 208.6 293.7 208.6 292.2 201.7 288.2"/><polygon class="cls-33" points="215.5 297.7 211 295.1 211 293.6 215.5 296.2 215.5 297.7"/><polygon class="cls-33" points="187.6 292.7 178.5 287.5 178.5 285.9 187.6 291.2 187.6 292.7"/><polygon class="cls-33" points="194.8 296.9 190.3 294.2 190.3 292.7 194.8 295.3 194.8 296.9"/><polygon class="cls-33" points="201.7 299.3 200.5 298.6 197.2 296.7 197.2 298.2 200.5 300.2 201.7 300.9 208.6 304.8 208.6 303.3 201.7 299.3"/><polygon class="cls-33" points="215.5 308.8 211 306.2 211 304.7 215.5 307.3 215.5 308.8"/><polygon class="cls-33" points="187.6 296.4 178.5 291.2 178.5 289.6 187.6 294.9 187.6 296.4"/><polygon class="cls-33" points="194.8 300.6 190.3 297.9 190.3 296.4 194.8 299 194.8 300.6"/><polygon class="cls-33" points="215.5 312.5 211 309.9 211 308.4 215.5 311 215.5 312.5"/><polygon class="cls-33" points="187.6 300.1 178.5 294.9 178.5 293.3 187.6 298.6 187.6 300.1"/><polygon class="cls-33" points="194.8 304.3 190.3 301.6 190.3 300.1 194.8 302.7 194.8 304.3"/><polygon class="cls-35" points="201.7 303 200.5 302.3 197.2 300.4 197.2 301.5 197.2 301.9 197.2 305.6 200.5 307.6 201.7 308.3 208.6 312.2 208.6 308.5 208.6 308.1 208.6 307 201.7 303"/><polygon class="cls-33" points="215.5 316.2 211 313.6 211 312.1 215.5 314.7 215.5 316.2"/><polygon class="cls-33" points="187.6 285.3 178.5 280.1 178.5 278.5 187.6 283.8 187.6 285.3"/><polygon class="cls-35" points="194.8 289.5 190.3 286.8 190.3 285.3 194.8 287.9 194.8 289.5"/><polygon class="cls-33" points="208.6 297.4 204.1 294.8 204.1 293.3 208.6 295.9 208.6 297.4"/><polygon class="cls-33" points="215.5 301.4 211 298.8 211 297.3 215.5 299.9 215.5 301.4"/><polygon class="cls-33" points="187.6 289 178.5 283.8 178.5 282.2 187.6 287.5 187.6 289"/><polygon class="cls-33" points="194.8 293.2 190.3 290.5 190.3 289 194.8 291.6 194.8 293.2"/><polygon class="cls-35" points="197.2 289.3 197.2 290.1 197.2 290.8 197.2 294.5 201.7 297.2 201.7 293.5 201.7 292.7 201.7 291.9 197.2 289.3"/><polygon class="cls-33" points="208.6 301.1 204.1 298.5 204.1 297 208.6 299.6 208.6 301.1"/><polygon class="cls-33" points="215.5 305.1 211 302.5 211 301 215.5 303.6 215.5 305.1"/><path class="cls-45" d="M295.1,316l26.8-15.4c.6-.3,1,.1,1,.8h0a2.5,2.5,0,0,1-1,2l-26.8,15.4c-.6.3-1.1,0-1.1-.8h0A2.6,2.6,0,0,1,295.1,316Z"/><path class="cls-46" d="M322.2,300.6v.4a2.5,2.5,0,0,1-1,2l-26.9,15.4h-.2c.2.5.5.6,1,.4l26.8-15.4a2.5,2.5,0,0,0,1-2C322.9,300.8,322.6,300.5,322.2,300.6Z"/><path class="cls-45" d="M295.1,310.5l26.8-15.4c.6-.3,1.1,0,1.1.8h0a2.4,2.4,0,0,1-1.1,1.9l-26.8,15.4c-.6.4-1,0-1-.7h0A2.3,2.3,0,0,1,295.1,310.5Z"/><path class="cls-45" d="M295.1,305,322,289.6c.5-.4,1,0,1,.7h0a2.4,2.4,0,0,1-1.1,2l-26.8,15.4c-.6.3-1,0-1-.8h0A2.3,2.3,0,0,1,295.1,305Z"/><path class="cls-45" d="M295.1,299.4,322,284c.5-.3,1,0,1,.8h0a2.8,2.8,0,0,1-1,2l-26.9,15.4c-.6.3-1-.1-1-.8h0A2.8,2.8,0,0,1,295.1,299.4Z"/><path class="cls-45" d="M295.1,293.9,322,278.5c.6-.3,1,0,1,.8h0a2.6,2.6,0,0,1-1,1.9l-26.9,15.4c-.5.3-1,0-1-.8h0A2.6,2.6,0,0,1,295.1,293.9Z"/><path class="cls-46" d="M322.2,295v.5a2.3,2.3,0,0,1-1,1.9l-26.8,15.4h-.3a.6.6,0,0,0,1,.3l26.8-15.4a2.4,2.4,0,0,0,1.1-1.9C323,295.2,322.6,294.9,322.2,295Z"/><path class="cls-46" d="M322.2,289.5c0,.1.1.3.1.4a2.4,2.4,0,0,1-1.1,2l-26.8,15.4h-.3a.6.6,0,0,0,1,.3l26.8-15.4a2.4,2.4,0,0,0,1.1-1.9C323,289.7,322.6,289.4,322.2,289.5Z"/><path class="cls-46" d="M322.2,284c0,.1.1.2.1.4a2.6,2.6,0,0,1-1.1,2l-26.8,15.4h-.2a.6.6,0,0,0,.9.4L322,286.8a2.6,2.6,0,0,0,1-2C323,284.2,322.7,283.9,322.2,284Z"/><path class="cls-46" d="M322.2,278.4a.9.9,0,0,1,.1.5,2.6,2.6,0,0,1-1,1.9l-26.9,15.4h-.2a.6.6,0,0,0,.9.4L322,281.2a2.6,2.6,0,0,0,1-1.9C323,278.7,322.7,278.3,322.2,278.4Z"/><path class="cls-45" d="M260.9,335.7l26.8-15.4c.6-.4,1,0,1,.7h0a2.3,2.3,0,0,1-1,2l-26.8,15.4c-.6.3-1.1,0-1.1-.8h0A2.4,2.4,0,0,1,260.9,335.7Z"/><path class="cls-46" d="M287.9,320.2a.6.6,0,0,1,.1.4,2.3,2.3,0,0,1-1,2L260.1,338h-.2c.1.4.5.6,1,.3L287.7,323a2.3,2.3,0,0,0,1-2C288.7,320.4,288.4,320.1,287.9,320.2Z"/><path class="cls-45" d="M260.9,330.1l26.8-15.4c.6-.3,1.1.1,1.1.8h0a2.9,2.9,0,0,1-1.1,2l-26.8,15.4c-.6.3-1.1-.1-1.1-.8h0A2.6,2.6,0,0,1,260.9,330.1Z"/><path class="cls-45" d="M260.9,324.6l26.8-15.4c.6-.3,1.1,0,1.1.8h0a2.4,2.4,0,0,1-1.1,1.9l-26.8,15.4c-.6.4-1,0-1-.8h0A2.3,2.3,0,0,1,260.9,324.6Z"/><path class="cls-45" d="M260.9,319.1l26.9-15.4c.5-.4,1,0,1,.7h0a2.6,2.6,0,0,1-1,2l-26.9,15.4c-.6.3-1,0-1-.8h0A2.3,2.3,0,0,1,260.9,319.1Z"/><path class="cls-45" d="M260.9,313.5l26.9-15.4c.5-.3,1,0,1,.8h0a2.6,2.6,0,0,1-1,1.9l-26.9,15.4c-.6.4-1,0-1-.7h0A2.6,2.6,0,0,1,260.9,313.5Z"/><path class="cls-46" d="M288,314.7v.4a2.6,2.6,0,0,1-1,2l-26.9,15.4h-.2c.2.5.5.6,1,.4l26.8-15.4a2.9,2.9,0,0,0,1.1-2C288.8,314.9,288.4,314.6,288,314.7Z"/><path class="cls-46" d="M288,309.1v.5a2.3,2.3,0,0,1-1,1.9l-26.8,15.4h-.3a.6.6,0,0,0,1,.3l26.8-15.4a2.4,2.4,0,0,0,1.1-1.9C288.8,309.3,288.4,309,288,309.1Z"/><path class="cls-46" d="M288,303.6c0,.1.1.3.1.4a2.4,2.4,0,0,1-1.1,2l-26.8,15.4h-.3a.6.6,0,0,0,1,.3l26.9-15.4a2.6,2.6,0,0,0,1-1.9C288.8,303.8,288.4,303.5,288,303.6Z"/><path class="cls-46" d="M288,298.1c0,.1.1.2.1.4a2.6,2.6,0,0,1-1.1,2l-26.8,15.4H260a.6.6,0,0,0,.9.4l26.9-15.4a2.8,2.8,0,0,0,1-2C288.8,298.3,288.5,298,288,298.1Z"/><path class="cls-45" d="M295.1,283.6l26.8-15.4c.6-.3,1,0,1,.8h0a2.3,2.3,0,0,1-1,1.9L295,286.3c-.5.4-1,0-1-.7h0A2.4,2.4,0,0,1,295.1,283.6Z"/><path class="cls-46" d="M322.1,268.1a.9.9,0,0,1,.1.5,2.6,2.6,0,0,1-1,1.9l-26.9,15.4h-.2a.5.5,0,0,0,.9.3l26.9-15.4a2.3,2.3,0,0,0,1-1.9C322.9,268.3,322.6,268,322.1,268.1Z"/><path class="cls-45" d="M295.1,278.1l26.8-15.4c.6-.4,1,0,1,.7h0a2.3,2.3,0,0,1-1,2l-26.8,15.4c-.6.3-1.1,0-1.1-.8h0A2.4,2.4,0,0,1,295.1,278.1Z"/><path class="cls-45" d="M295.1,272.5l26.8-15.4c.6-.3,1.1,0,1.1.8h0a2.6,2.6,0,0,1-1.1,2l-26.8,15.4c-.6.3-1-.1-1-.8h0A2.5,2.5,0,0,1,295.1,272.5Z"/><path class="cls-45" d="M295.1,267,322,251.6c.5-.3,1,0,1,.8h0a2.4,2.4,0,0,1-1.1,1.9l-26.8,15.4c-.6.3-1,0-1-.8h0A2.3,2.3,0,0,1,295.1,267Z"/><path class="cls-45" d="M295.1,261.5,322,246c.5-.3,1,.1,1,.8h0a2.6,2.6,0,0,1-1,2l-26.9,15.4c-.6.3-1,0-1-.8h0A2.3,2.3,0,0,1,295.1,261.5Z"/><path class="cls-46" d="M322.2,262.6v.4a2.3,2.3,0,0,1-1,2l-26.9,15.4h-.2a.6.6,0,0,0,1,.3l26.8-15.4a2.3,2.3,0,0,0,1-1.9C322.9,262.8,322.6,262.5,322.2,262.6Z"/><path class="cls-46" d="M322.2,257.1v.4a2.5,2.5,0,0,1-1,2l-26.8,15.4h-.3c.2.5.5.6,1,.4l26.8-15.4a2.6,2.6,0,0,0,1.1-2C323,257.3,322.6,257,322.2,257.1Z"/><path class="cls-46" d="M322.2,251.5c0,.2.1.3.1.5a2.4,2.4,0,0,1-1.1,1.9l-26.8,15.4h-.3a.6.6,0,0,0,1,.3l26.8-15.4a2.4,2.4,0,0,0,1.1-1.9C323,251.7,322.6,251.4,322.2,251.5Z"/><path class="cls-46" d="M322.2,246v.4a2.4,2.4,0,0,1-1.1,2l-26.8,15.4h-.2a.5.5,0,0,0,.9.3L322,248.8a2.6,2.6,0,0,0,1-1.9C323,246.2,322.6,245.9,322.2,246Z"/><path class="cls-45" d="M260.8,303.2l26.9-15.4c.6-.3,1,.1,1,.8h0a2.5,2.5,0,0,1-1,2L260.8,306c-.5.3-1-.1-1-.8h0A2.8,2.8,0,0,1,260.8,303.2Z"/><path class="cls-46" d="M287.9,287.8c.1.1.1.2.1.4a2.6,2.6,0,0,1-1,1.9l-26.9,15.4h-.2a.6.6,0,0,0,.9.4l26.9-15.4a2.5,2.5,0,0,0,1-2C288.7,288,288.4,287.6,287.9,287.8Z"/><path class="cls-45" d="M260.9,297.7l26.8-15.4c.6-.3,1,0,1,.8h0a2.3,2.3,0,0,1-1,1.9l-26.9,15.4c-.5.4-1,0-1-.8h0A2.4,2.4,0,0,1,260.9,297.7Z"/><path class="cls-45" d="M260.9,292.2l26.8-15.4c.6-.4,1,0,1,.7h0a2.3,2.3,0,0,1-1,2l-26.8,15.4c-.6.3-1.1,0-1.1-.8h0A2.4,2.4,0,0,1,260.9,292.2Z"/><path class="cls-45" d="M260.9,286.6l26.8-15.4c.6-.3,1.1,0,1.1.8h0a2.4,2.4,0,0,1-1.1,1.9l-26.8,15.4c-.6.4-1,0-1-.7h0A2.3,2.3,0,0,1,260.9,286.6Z"/><path class="cls-45" d="M260.9,281.1l26.9-15.4c.5-.4,1,0,1,.8h0a2.4,2.4,0,0,1-1.1,1.9l-26.8,15.4c-.6.3-1,0-1-.8h0A2.3,2.3,0,0,1,260.9,281.1Z"/><path class="cls-46" d="M287.9,282.2a.9.9,0,0,1,.1.5,2.6,2.6,0,0,1-1,1.9L260.1,300h-.2a.5.5,0,0,0,.9.3L287.7,285a2.3,2.3,0,0,0,1-1.9C288.7,282.4,288.4,282.1,287.9,282.2Z"/><path class="cls-46" d="M288,276.7v.4a2.3,2.3,0,0,1-1,2l-26.9,15.4h-.2a.6.6,0,0,0,1,.3l26.8-15.4a2.3,2.3,0,0,0,1-2C288.7,276.9,288.4,276.6,288,276.7Z"/><path class="cls-46" d="M288,271.2v.4a2.3,2.3,0,0,1-1,1.9L260.2,289h-.3c.2.5.5.6,1,.4L287.7,274a2.6,2.6,0,0,0,1.1-2C288.8,271.4,288.4,271,288,271.2Z"/><path class="cls-46" d="M288,265.6c0,.2.1.3.1.5A2.4,2.4,0,0,1,287,268l-26.8,15.4h-.3a.6.6,0,0,0,1,.3l26.8-15.4a2.4,2.4,0,0,0,1.1-1.9C288.8,265.8,288.4,265.5,288,265.6Z"/><path class="cls-5" d="M116.1,446.6,76,423.5c-2.8-1.6-2.4-4.5.8-6.4l38.5-22.2c3.3-1.9,8.3-2.1,11.1-.5l40.1,23.1c2.9,1.7,2.5,4.6-.8,6.5l-38.5,22.2C123.9,448.1,119,448.3,116.1,446.6Z"/><path class="cls-47" d="M191.4,385.2H171.5l-22.1-12.8c-2.9-1.7-7.8-1.4-11.1.5l-21.4,12.3H97.1v13.3h0a3.2,3.2,0,0,0,1.9,3l40.1,23.1c2.8,1.7,7.8,1.5,11.1-.4l38.5-22.3a4.6,4.6,0,0,0,2.7-3.4h0Z"/><path class="cls-48" d="M188.7,401l-38.5,22.2c-3.3,1.9-8.3,2.1-11.1.5L99,400.6a3.2,3.2,0,0,1-1.9-3h0v.9h0a3.2,3.2,0,0,0,1.9,3l40.1,23.1c2.8,1.7,7.8,1.5,11.1-.4l38.5-22.3a4.6,4.6,0,0,0,2.7-3.4h0v-.9h0C191.3,398.8,190.4,400,188.7,401Z"/><path class="cls-30" d="M98.3,399.4h0V386.1h19.9l21.3-12.3c3.3-1.9,8.3-2.1,11.1-.5l22.2,12.8h18.6v-.9H171.5l-22.1-12.8c-2.9-1.7-7.8-1.4-11.1.5l-21.4,12.3H97.1v13.3h0a3.2,3.2,0,0,0,1.9,3h.2A3.1,3.1,0,0,1,98.3,399.4Z"/><path class="cls-28" d="M190.3,386.2v13.3h-.1a2.8,2.8,0,0,1-.9,2,4.2,4.2,0,0,0,2.1-3h0V385.3Z"/><path class="cls-49" d="M139.1,411.3,99,388.1c-2.9-1.6-2.5-4.5.8-6.4l38.5-22.2c3.3-1.9,8.2-2.1,11.1-.5l40.1,23.2c2.8,1.6,2.5,4.5-.8,6.4l-38.5,22.2C146.9,412.7,141.9,412.9,139.1,411.3Z"/><path class="cls-28" d="M189.5,382.2,149.4,359a10.1,10.1,0,0,0-5.6-1,9.8,9.8,0,0,1,4,1l40.1,23.2c2.8,1.6,2.5,4.5-.8,6.4l-38.5,22.2a12.6,12.6,0,0,1-5.5,1.6,13.3,13.3,0,0,0,7.1-1.6l38.5-22.2C192,386.7,192.3,383.8,189.5,382.2Z"/><path class="cls-50" d="M140.4,404.6l-29.8-17.2c-2.2-1.2-1.9-3.4.5-4.8l28.7-16.5a9.4,9.4,0,0,1,8.3-.4l29.8,17.2c2.1,1.3,1.9,3.4-.6,4.8l-28.6,16.6C146.2,405.7,142.5,405.8,140.4,404.6Z"/><path class="cls-1" d="M141.4,399.2l-21.6-12.4c-1.5-.9-1.3-2.5.5-3.5l20.7-12a6.7,6.7,0,0,1,6-.2l21.6,12.5c1.6.8,1.4,2.4-.4,3.4l-20.8,12A6.7,6.7,0,0,1,141.4,399.2Z"/><path class="cls-30" d="M140.9,411.3l-40.1-23.2c-2.9-1.6-2.5-4.5.8-6.4l38.5-22.2a12.1,12.1,0,0,1,5.4-1.5,12.5,12.5,0,0,0-7.2,1.5L99.8,381.7c-3.3,1.9-3.7,4.8-.8,6.4l40.1,23.2a11.2,11.2,0,0,0,5.7,1.1A9,9,0,0,1,140.9,411.3Z"/><g class="cls-51"><path class="cls-33" d="M120.3,385,141,373a6.7,6.7,0,0,1,6-.2l21.6,12.4a2.9,2.9,0,0,1,.8.7c.5-.8.3-1.7-.8-2.3L147,371.1a6.7,6.7,0,0,0-6,.2l-20.7,12c-1.4.8-1.8,1.9-1.2,2.8A2.6,2.6,0,0,1,120.3,385Z"/><path class="cls-34" d="M120.3,387,141,375a6.7,6.7,0,0,1,6-.2l21.6,12.5a1.8,1.8,0,0,1,.7.5c.7-.9.5-1.9-.7-2.6L147,372.8a6.7,6.7,0,0,0-6,.2l-20.7,12c-1.5.8-1.9,2-1.1,2.9A3.5,3.5,0,0,1,120.3,387Z"/><path class="cls-35" d="M119.4,390.2a3.5,3.5,0,0,1,.9-.7l20.7-12a6.7,6.7,0,0,1,6-.2l21.6,12.5.5.3a1.6,1.6,0,0,0-.5-2.8L147,374.8a6.7,6.7,0,0,0-6,.2l-20.7,12C118.7,387.9,118.4,389.3,119.4,390.2Z"/></g><path class="cls-5" d="M345.5,441.7l-40-23.1c-2.9-1.7-2.5-4.6.8-6.5l38.4-22.2c3.3-1.9,8.3-2.1,11.1-.4l40.1,23.1c2.9,1.6,2.5,4.5-.8,6.4l-38.5,22.2C353.4,443.1,348.4,443.3,345.5,441.7Z"/><path class="cls-52" d="M384.3,385.2H364.4l-22.1-12.8c-2.9-1.7-7.9-1.4-11.2.5l-21.3,12.3H289.9v13.3h.1a3.2,3.2,0,0,0,1.9,3l40,23.1c2.9,1.7,7.9,1.5,11.2-.4l38.4-22.3a4.6,4.6,0,0,0,2.7-3.4h.1Z"/><path class="cls-53" d="M381.5,401l-38.4,22.2c-3.3,1.9-8.3,2.1-11.2.5l-40-23.1a3.2,3.2,0,0,1-1.9-3h-.1v.9h.1a3.2,3.2,0,0,0,1.9,3l40,23.1c2.9,1.7,7.9,1.5,11.2-.4l38.4-22.3a4.6,4.6,0,0,0,2.7-3.4h.1v-.9h-.1C384.1,398.8,383.2,400,381.5,401Z"/><path class="cls-30" d="M291.2,399.4h0V386.1h19.9l21.3-12.3c3.3-1.9,8.3-2.1,11.1-.5l22.1,12.8h18.7v-.9H364.4l-22.1-12.8c-2.9-1.7-7.9-1.4-11.2.5l-21.3,12.3H289.9v13.3h.1a3.2,3.2,0,0,0,1.9,3h.2A2.7,2.7,0,0,1,291.2,399.4Z"/><path class="cls-28" d="M383.1,386.2v13.3h0a3.3,3.3,0,0,1-.9,2,3.8,3.8,0,0,0,2-3h.1V385.3Z"/><path class="cls-54" d="M331.9,411.3l-40-23.2c-2.9-1.6-2.5-4.5.8-6.4l38.4-22.2c3.3-1.9,8.3-2.1,11.2-.5l40,23.2c2.9,1.6,2.5,4.5-.8,6.4l-38.4,22.2C339.8,412.7,334.8,412.9,331.9,411.3Z"/><path class="cls-28" d="M382.3,382.2l-40-23.2a10.4,10.4,0,0,0-5.7-1,9.9,9.9,0,0,1,4.1,1l40.1,23.2c2.8,1.6,2.5,4.5-.8,6.4l-38.5,22.2a13,13,0,0,1-5.5,1.6,13.5,13.5,0,0,0,7.1-1.6l38.4-22.2C384.8,386.7,385.2,383.8,382.3,382.2Z"/><path class="cls-55" d="M333.3,404.6l-29.9-17.2c-2.1-1.2-1.8-3.4.6-4.8l28.7-16.5c2.4-1.4,6.1-1.6,8.2-.4l29.9,17.2c2.1,1.3,1.8,3.4-.6,4.8l-28.7,16.6A9.1,9.1,0,0,1,333.3,404.6Z"/><path class="cls-1" d="M334.3,399.2l-21.6-12.4c-1.5-.9-1.3-2.5.4-3.5l20.8-12a6.7,6.7,0,0,1,6-.2l21.6,12.5c1.5.8,1.3,2.4-.4,3.4l-20.8,12A6.7,6.7,0,0,1,334.3,399.2Z"/><path class="cls-30" d="M333.7,411.3l-40-23.2c-2.9-1.6-2.5-4.5.8-6.4l38.4-22.2a12.5,12.5,0,0,1,5.5-1.5,13,13,0,0,0-7.3,1.5l-38.4,22.2c-3.3,1.9-3.7,4.8-.8,6.4l40,23.2a11.4,11.4,0,0,0,5.7,1.1A9.8,9.8,0,0,1,333.7,411.3Z"/><g class="cls-56"><path class="cls-33" d="M313.1,385l20.8-12a6.7,6.7,0,0,1,6-.2l21.6,12.4.8.7c.5-.8.3-1.7-.8-2.3l-21.6-12.5a6.7,6.7,0,0,0-6,.2l-20.8,12c-1.4.8-1.8,1.9-1.2,2.8A4.3,4.3,0,0,1,313.1,385Z"/><path class="cls-34" d="M313.1,387l20.8-12a6.7,6.7,0,0,1,6-.2l21.6,12.5a1,1,0,0,1,.6.5,1.7,1.7,0,0,0-.6-2.6l-21.6-12.4a6.7,6.7,0,0,0-6,.2l-20.8,12c-1.4.8-1.8,2-1,2.9A4.5,4.5,0,0,1,313.1,387Z"/><path class="cls-35" d="M312.3,390.2l.8-.7,20.8-12a6.7,6.7,0,0,1,6-.2l21.6,12.5.4.3a1.7,1.7,0,0,0-.4-2.8l-21.6-12.5a6.7,6.7,0,0,0-6,.2l-20.8,12C311.5,387.9,311.2,389.3,312.3,390.2Z"/></g><path class="cls-57" d="M291.4,14.5H192.9V171.9h0a3.5,3.5,0,0,0,2,2.9L236.8,199c2.9,1.7,8.1,1.5,11.6-.5l40.2-23.2c1.7-1.1,2.7-2.4,2.8-3.6h0Z"/></g></g></svg>