<svg xmlns="http://www.w3.org/2000/svg" xmlns:xlink="http://www.w3.org/1999/xlink" viewBox="0 0 400 400"><defs><style>.cls-1{isolation:isolate;}.cls-2,.cls-63,.cls-64{opacity:0.4;}.cls-10,.cls-11,.cls-12,.cls-13,.cls-2,.cls-6,.cls-63,.cls-64,.cls-67,.cls-68,.cls-69,.cls-7,.cls-70,.cls-71,.cls-72,.cls-73,.cls-74,.cls-8,.cls-9{mix-blend-mode:lighten;}.cls-2{fill:url(#linear-gradient);}.cls-3{opacity:0.38;}.cls-4{fill:#6de0f6;}.cls-5{fill:#6ee8fc;}.cls-6,.cls-67,.cls-68,.cls-69,.cls-7,.cls-8{opacity:0.3;}.cls-6{fill:url(#radial-gradient);}.cls-7{fill:url(#radial-gradient-2);}.cls-8{fill:url(#radial-gradient-3);}.cls-9{fill:url(#Áåçûìÿííûé_ãðàäèåíò_26);}.cls-10{fill:url(#Áåçûìÿííûé_ãðàäèåíò_26-2);}.cls-11{fill:url(#Áåçûìÿííûé_ãðàäèåíò_26-3);}.cls-12{fill:url(#Áåçûìÿííûé_ãðàäèåíò_26-4);}.cls-13{fill:url(#Áåçûìÿííûé_ãðàäèåíò_26-5);}.cls-14{fill:#0b0244;}.cls-14,.cls-16,.cls-18,.cls-21,.cls-22,.cls-24,.cls-26,.cls-27,.cls-28,.cls-29,.cls-31,.cls-32,.cls-33,.cls-34,.cls-35,.cls-38,.cls-39,.cls-40,.cls-42,.cls-43,.cls-44,.cls-45,.cls-48,.cls-49,.cls-51,.cls-53,.cls-54,.cls-55,.cls-56,.cls-59,.cls-60{opacity:0.5;}.cls-15{fill:#312a91;}.cls-16{fill:url(#Áåçûìÿííûé_ãðàäèåíò_107);}.cls-17{fill:url(#Áåçûìÿííûé_ãðàäèåíò_59);}.cls-18{fill:url(#Áåçûìÿííûé_ãðàäèåíò_107-2);}.cls-19,.cls-34,.cls-61,.cls-62{fill:#5cfff3;}.cls-20{fill:#42e8e0;}.cls-21{fill:url(#Áåçûìÿííûé_ãðàäèåíò_107-3);}.cls-22{fill:url(#Áåçûìÿííûé_ãðàäèåíò_107-4);}.cls-23{fill:#fccc6b;}.cls-24{fill:url(#Áåçûìÿííûé_ãðàäèåíò_107-5);}.cls-25{fill:url(#Áåçûìÿííûé_ãðàäèåíò_59-2);}.cls-26{fill:url(#Áåçûìÿííûé_ãðàäèåíò_107-6);}.cls-27{fill:url(#Áåçûìÿííûé_ãðàäèåíò_107-7);}.cls-28{fill:url(#Áåçûìÿííûé_ãðàäèåíò_107-8);}.cls-29{fill:url(#Áåçûìÿííûé_ãðàäèåíò_107-9);}.cls-30{fill:url(#Áåçûìÿííûé_ãðàäèåíò_59-3);}.cls-31{fill:url(#Áåçûìÿííûé_ãðàäèåíò_107-10);}.cls-32{fill:url(#Áåçûìÿííûé_ãðàäèåíò_107-11);}.cls-33{fill:url(#Áåçûìÿííûé_ãðàäèåíò_107-12);}.cls-35{fill:url(#Áåçûìÿííûé_ãðàäèåíò_107-13);}.cls-36{fill:url(#Áåçûìÿííûé_ãðàäèåíò_59-4);}.cls-37{fill:url(#linear-gradient-2);}.cls-38{fill:url(#Áåçûìÿííûé_ãðàäèåíò_107-14);}.cls-39{fill:url(#Áåçûìÿííûé_ãðàäèåíò_107-15);}.cls-40{fill:url(#Áåçûìÿííûé_ãðàäèåíò_107-16);}.cls-41{fill:url(#Áåçûìÿííûé_ãðàäèåíò_59-5);}.cls-42{fill:url(#Áåçûìÿííûé_ãðàäèåíò_107-17);}.cls-43{fill:url(#Áåçûìÿííûé_ãðàäèåíò_107-18);}.cls-44{fill:url(#Áåçûìÿííûé_ãðàäèåíò_107-19);}.cls-45{fill:url(#Áåçûìÿííûé_ãðàäèåíò_107-20);}.cls-46{fill:url(#Áåçûìÿííûé_ãðàäèåíò_59-6);}.cls-47{fill:url(#linear-gradient-3);}.cls-48{fill:url(#Áåçûìÿííûé_ãðàäèåíò_107-21);}.cls-49{fill:url(#Áåçûìÿííûé_ãðàäèåíò_107-22);}.cls-50{fill:url(#linear-gradient-4);}.cls-51{fill:url(#Áåçûìÿííûé_ãðàäèåíò_107-23);}.cls-52{fill:url(#linear-gradient-5);}.cls-53{fill:url(#Áåçûìÿííûé_ãðàäèåíò_107-24);}.cls-54{fill:url(#Áåçûìÿííûé_ãðàäèåíò_107-25);}.cls-55{fill:url(#Áåçûìÿííûé_ãðàäèåíò_107-26);}.cls-56{fill:url(#Áåçûìÿííûé_ãðàäèåíò_107-27);}.cls-57{fill:url(#Áåçûìÿííûé_ãðàäèåíò_59-7);}.cls-58{fill:url(#linear-gradient-6);}.cls-59{fill:url(#Áåçûìÿííûé_ãðàäèåíò_107-28);}.cls-60{fill:url(#Áåçûìÿííûé_ãðàäèåíò_107-29);}.cls-61{opacity:0.2;}.cls-62{opacity:0.6;}.cls-63{fill:url(#linear-gradient-7);}.cls-64{fill:url(#linear-gradient-8);}.cls-65{opacity:0.1;}.cls-66{opacity:0.24;}.cls-67{fill:url(#radial-gradient-4);}.cls-68{fill:url(#radial-gradient-5);}.cls-69{fill:url(#Áåçûìÿííûé_ãðàäèåíò_26-6);}.cls-70{fill:url(#Áåçûìÿííûé_ãðàäèåíò_26-7);}.cls-71{fill:url(#Áåçûìÿííûé_ãðàäèåíò_26-8);}.cls-72{fill:url(#Áåçûìÿííûé_ãðàäèåíò_26-9);}.cls-73{fill:url(#Áåçûìÿííûé_ãðàäèåíò_26-10);}.cls-74{fill:url(#Áåçûìÿííûé_ãðàäèåíò_26-11);}.cls-75{fill:#0b0744;opacity:0.43;}.cls-76{fill:#fff;}.cls-77{fill:url(#linear-gradient-9);}.cls-78{fill:url(#linear-gradient-10);}.cls-79{fill:url(#linear-gradient-11);}.cls-80{fill:url(#linear-gradient-12);}.cls-81{fill:#26264f;}.cls-82{fill:url(#linear-gradient-13);}.cls-83{fill:url(#linear-gradient-14);}.cls-84{fill:url(#linear-gradient-15);}.cls-85{fill:url(#linear-gradient-16);}.cls-86,.cls-89{opacity:0.25;mix-blend-mode:multiply;}.cls-86{fill:url(#linear-gradient-17);}.cls-87{fill:#444b8c;}.cls-88{fill:url(#linear-gradient-18);}.cls-89{fill:url(#linear-gradient-19);}.cls-90{fill:url(#linear-gradient-20);}.cls-91{fill:url(#linear-gradient-21);}.cls-92{fill:url(#linear-gradient-22);}.cls-93{fill:url(#linear-gradient-23);}</style><linearGradient id="linear-gradient" x1="102.58" y1="209.49" x2="102.58" y2="42.86" gradientUnits="userSpaceOnUse"><stop offset="0.01" stop-color="#25bfec"/><stop offset="0.04" stop-color="#24b6e3" stop-opacity="0.95"/><stop offset="0.19" stop-color="#208bb7" stop-opacity="0.7"/><stop offset="0.34" stop-color="#1c6692" stop-opacity="0.49"/><stop offset="0.48" stop-color="#194773" stop-opacity="0.31"/><stop offset="0.62" stop-color="#16305c" stop-opacity="0.18"/><stop offset="0.76" stop-color="#141f4b" stop-opacity="0.08"/><stop offset="0.89" stop-color="#131440" stop-opacity="0.02"/><stop offset="1" stop-color="#13113d" stop-opacity="0"/></linearGradient><radialGradient id="radial-gradient" cx="-1252.77" cy="379.11" r="95.24" gradientTransform="matrix(0.87, 0.5, -0.87, 0.5, 1561.29, 611.07)" gradientUnits="userSpaceOnUse"><stop offset="0" stop-color="#42e8e0"/><stop offset="0.09" stop-color="#3fd6d5" stop-opacity="0.92"/><stop offset="0.29" stop-color="#36a7b9" stop-opacity="0.7"/><stop offset="0.56" stop-color="#275d8b" stop-opacity="0.36"/><stop offset="0.82" stop-color="#180d5b" stop-opacity="0"/></radialGradient><radialGradient id="radial-gradient-2" cx="-1057.51" cy="428.88" r="95.24" gradientTransform="matrix(0.87, 0.5, -0.87, 0.5, 1561.29, 611.07)" gradientUnits="userSpaceOnUse"><stop offset="0" stop-color="#42e8e0"/><stop offset="0.17" stop-color="#3abec7" stop-opacity="0.81"/><stop offset="0.56" stop-color="#265687" stop-opacity="0.33"/><stop offset="0.82" stop-color="#180d5b" stop-opacity="0"/></radialGradient><radialGradient id="radial-gradient-3" cx="-1251.34" cy="502.78" r="34.48" gradientTransform="matrix(0.87, 0.5, -0.87, 0.5, 1561.29, 611.07)" gradientUnits="userSpaceOnUse"><stop offset="0" stop-color="#42e8e0"/><stop offset="0.05" stop-color="#3fd8d7" stop-opacity="0.93"/><stop offset="0.44" stop-color="#2a6c95" stop-opacity="0.43"/><stop offset="0.7" stop-color="#1d286b" stop-opacity="0.12"/><stop offset="0.82" stop-color="#180d5b" stop-opacity="0"/></radialGradient><radialGradient id="Áåçûìÿííûé_ãðàäèåíò_26" cx="149.12" cy="176.66" r="10.65" gradientTransform="translate(168.6 -53.7) rotate(45)" gradientUnits="userSpaceOnUse"><stop offset="0" stop-color="#42e8e0"/><stop offset="0.02" stop-color="#3fd8d7"/><stop offset="0.1" stop-color="#36a9ba"/><stop offset="0.18" stop-color="#2e7fa0"/><stop offset="0.26" stop-color="#275c8b"/><stop offset="0.35" stop-color="#223f79"/><stop offset="0.44" stop-color="#1d296c"/><stop offset="0.54" stop-color="#1a1962"/><stop offset="0.66" stop-color="#19105d"/><stop offset="0.82" stop-color="#180d5b"/></radialGradient><radialGradient id="Áåçûìÿííûé_ãðàäèåíò_26-2" cx="41.76" cy="238.77" r="10.65" gradientTransform="translate(264.6 143.5) rotate(76.8)" xlink:href="#Áåçûìÿííûé_ãðàäèåíò_26"/><radialGradient id="Áåçûìÿííûé_ãðàäèåíò_26-3" cx="274.81" cy="296.54" r="10.65" gradientTransform="translate(290.2 -107.5) rotate(45)" xlink:href="#Áåçûìÿííûé_ãðàäèåíò_26"/><radialGradient id="Áåçûìÿííûé_ãðàäèåíò_26-4" cx="294.55" cy="284.91" r="10.65" gradientTransform="translate(504.2 -67.2) rotate(76.7)" xlink:href="#Áåçûìÿííûé_ãðàäèåíò_26"/><radialGradient id="Áåçûìÿííûé_ãðàäèåíò_26-5" cx="314.29" cy="273.45" r="10.65" gradientTransform="translate(508.2 -95.3) rotate(76.7)" xlink:href="#Áåçûìÿííûé_ãðàäèåíò_26"/><linearGradient id="Áåçûìÿííûé_ãðàäèåíò_107" x1="98.93" y1="183.91" x2="215.63" y2="183.91" gradientUnits="userSpaceOnUse"><stop offset="0" stop-color="#42e8e0"/><stop offset="0.1" stop-color="#3ccace"/><stop offset="0.34" stop-color="#2f87a5"/><stop offset="0.56" stop-color="#255385"/><stop offset="0.75" stop-color="#1e2d6e"/><stop offset="0.91" stop-color="#1a1660"/><stop offset="1" stop-color="#180d5b"/></linearGradient><linearGradient id="Áåçûìÿííûé_ãðàäèåíò_59" x1="183.08" y1="183.91" x2="241.43" y2="183.91" gradientUnits="userSpaceOnUse"><stop offset="0" stop-color="#2b237c"/><stop offset="1" stop-color="#180d5b"/></linearGradient><linearGradient id="Áåçûìÿííûé_ãðàäèåíò_107-2" x1="124.73" y1="171.02" x2="241.44" y2="171.02" xlink:href="#Áåçûìÿííûé_ãðàäèåíò_107"/><linearGradient id="Áåçûìÿííûé_ãðàäèåíò_107-3" x1="124.73" y1="171.02" x2="184.29" y2="171.02" xlink:href="#Áåçûìÿííûé_ãðàäèåíò_107"/><linearGradient id="Áåçûìÿííûé_ãðàäèåíò_107-4" x1="140.6" y1="204.98" x2="238.29" y2="141.13" xlink:href="#Áåçûìÿííûé_ãðàäèåíò_107"/><linearGradient id="Áåçûìÿííûé_ãðàäèåíò_107-5" x1="18.36" y1="230.49" x2="135.06" y2="230.49" xlink:href="#Áåçûìÿííûé_ãðàäèåíò_107"/><linearGradient id="Áåçûìÿííûé_ãðàäèåíò_59-2" x1="102.51" y1="230.49" x2="160.86" y2="230.49" xlink:href="#Áåçûìÿííûé_ãðàäèåíò_59"/><linearGradient id="Áåçûìÿííûé_ãðàäèåíò_107-6" x1="44.16" y1="217.6" x2="160.87" y2="217.6" xlink:href="#Áåçûìÿííûé_ãðàäèåíò_107"/><linearGradient id="Áåçûìÿííûé_ãðàäèåíò_107-7" x1="44.16" y1="217.6" x2="103.72" y2="217.6" xlink:href="#Áåçûìÿííûé_ãðàäèåíò_107"/><linearGradient id="Áåçûìÿííûé_ãðàäèåíò_107-8" x1="60.03" y1="251.56" x2="157.72" y2="187.71" xlink:href="#Áåçûìÿííûé_ãðàäèåíò_107"/><linearGradient id="Áåçûìÿííûé_ãðàäèåíò_107-9" x1="179.51" y1="230.1" x2="296.21" y2="230.1" xlink:href="#Áåçûìÿííûé_ãðàäèåíò_107"/><linearGradient id="Áåçûìÿííûé_ãðàäèåíò_59-3" x1="263.65" y1="230.1" x2="322" y2="230.1" xlink:href="#Áåçûìÿííûé_ãðàäèåíò_59"/><linearGradient id="Áåçûìÿííûé_ãðàäèåíò_107-10" x1="205.3" y1="217.21" x2="322.01" y2="217.21" xlink:href="#Áåçûìÿííûé_ãðàäèåíò_107"/><linearGradient id="Áåçûìÿííûé_ãðàäèåíò_107-11" x1="205.3" y1="217.21" x2="264.87" y2="217.21" xlink:href="#Áåçûìÿííûé_ãðàäèåíò_107"/><linearGradient id="Áåçûìÿííûé_ãðàäèåíò_107-12" x1="221.18" y1="251.17" x2="318.86" y2="187.32" xlink:href="#Áåçûìÿííûé_ãðàäèåíò_107"/><linearGradient id="Áåçûìÿííûé_ãðàäèåíò_107-13" x1="98.93" y1="148.64" x2="215.63" y2="148.64" xlink:href="#Áåçûìÿííûé_ãðàäèåíò_107"/><linearGradient id="Áåçûìÿííûé_ãðàäèåíò_59-4" x1="183.08" y1="148.63" x2="241.43" y2="148.63" xlink:href="#Áåçûìÿííûé_ãðàäèåíò_59"/><linearGradient id="linear-gradient-2" x1="124.73" y1="135.74" x2="241.44" y2="135.74" gradientUnits="userSpaceOnUse"><stop offset="0" stop-color="#2c75e4"/><stop offset="0.06" stop-color="#2f68df"/><stop offset="0.38" stop-color="#3d22c5"/><stop offset="0.53" stop-color="#4206bb"/><stop offset="0.66" stop-color="#4507ba"/><stop offset="0.74" stop-color="#4e09b9"/><stop offset="0.82" stop-color="#5e0db6"/><stop offset="0.9" stop-color="#7513b2"/><stop offset="0.97" stop-color="#921bac"/><stop offset="1" stop-color="#a31fa9"/></linearGradient><linearGradient id="Áåçûìÿííûé_ãðàäèåíò_107-14" x1="124.73" y1="135.75" x2="184.29" y2="135.75" xlink:href="#Áåçûìÿííûé_ãðàäèåíò_107"/><linearGradient id="Áåçûìÿííûé_ãðàäèåíò_107-15" x1="140.6" y1="169.7" x2="238.29" y2="105.85" xlink:href="#Áåçûìÿííûé_ãðàäèåíò_107"/><linearGradient id="Áåçûìÿííûé_ãðàäèåíò_107-16" x1="18.36" y1="195.22" x2="135.06" y2="195.22" xlink:href="#Áåçûìÿííûé_ãðàäèåíò_107"/><linearGradient id="Áåçûìÿííûé_ãðàäèåíò_59-5" x1="102.51" y1="195.21" x2="160.86" y2="195.21" xlink:href="#Áåçûìÿííûé_ãðàäèåíò_59"/><linearGradient id="Áåçûìÿííûé_ãðàäèåíò_107-17" x1="44.16" y1="182.32" x2="160.87" y2="182.32" xlink:href="#Áåçûìÿííûé_ãðàäèåíò_107"/><linearGradient id="Áåçûìÿííûé_ãðàäèåíò_107-18" x1="44.16" y1="182.33" x2="103.72" y2="182.33" xlink:href="#Áåçûìÿííûé_ãðàäèåíò_107"/><linearGradient id="Áåçûìÿííûé_ãðàäèåíò_107-19" x1="60.03" y1="216.29" x2="157.72" y2="152.44" xlink:href="#Áåçûìÿííûé_ãðàäèåíò_107"/><linearGradient id="Áåçûìÿííûé_ãðàäèåíò_107-20" x1="179.51" y1="194.82" x2="296.21" y2="194.82" xlink:href="#Áåçûìÿííûé_ãðàäèåíò_107"/><linearGradient id="Áåçûìÿííûé_ãðàäèåíò_59-6" x1="263.65" y1="194.82" x2="322" y2="194.82" xlink:href="#Áåçûìÿííûé_ãðàäèåíò_59"/><linearGradient id="linear-gradient-3" x1="205.3" y1="181.93" x2="322.01" y2="181.93" xlink:href="#linear-gradient-2"/><linearGradient id="Áåçûìÿííûé_ãðàäèåíò_107-21" x1="205.3" y1="181.93" x2="264.87" y2="181.93" xlink:href="#Áåçûìÿííûé_ãðàäèåíò_107"/><linearGradient id="Áåçûìÿííûé_ãðàäèåíò_107-22" x1="221.18" y1="215.89" x2="318.86" y2="152.04" xlink:href="#Áåçûìÿííûé_ãðàäèåíò_107"/><linearGradient id="linear-gradient-4" x1="124.73" y1="276.68" x2="241.43" y2="276.68" gradientUnits="userSpaceOnUse"><stop offset="0" stop-color="#a31fa9"/><stop offset="0.04" stop-color="#8132b8"/><stop offset="0.08" stop-color="#6441c5"/><stop offset="0.13" stop-color="#4d4ecf"/><stop offset="0.17" stop-color="#3d56d6"/><stop offset="0.23" stop-color="#345bda"/><stop offset="0.3" stop-color="#315ddb"/><stop offset="0.35" stop-color="#3770ea"/><stop offset="0.42" stop-color="#3d85f9"/><stop offset="0.46" stop-color="#3f8cff"/></linearGradient><linearGradient id="Áåçûìÿííûé_ãðàäèåíò_107-23" x1="98.93" y1="276.68" x2="215.63" y2="276.68" xlink:href="#Áåçûìÿííûé_ãðàäèåíò_107"/><linearGradient id="linear-gradient-5" x1="183.08" y1="276.68" x2="241.43" y2="276.68" xlink:href="#linear-gradient-2"/><linearGradient id="Áåçûìÿííûé_ãðàäèåíò_107-24" x1="124.73" y1="263.79" x2="241.44" y2="263.79" xlink:href="#Áåçûìÿííûé_ãðàäèåíò_107"/><linearGradient id="Áåçûìÿííûé_ãðàäèåíò_107-25" x1="124.73" y1="263.79" x2="184.29" y2="263.79" xlink:href="#Áåçûìÿííûé_ãðàäèåíò_107"/><linearGradient id="Áåçûìÿííûé_ãðàäèåíò_107-26" x1="140.6" y1="297.75" x2="238.29" y2="233.9" xlink:href="#Áåçûìÿííûé_ãðàäèåíò_107"/><linearGradient id="Áåçûìÿííûé_ãðàäèåíò_107-27" x1="98.93" y1="241.4" x2="215.63" y2="241.4" xlink:href="#Áåçûìÿííûé_ãðàäèåíò_107"/><linearGradient id="Áåçûìÿííûé_ãðàäèåíò_59-7" x1="183.08" y1="241.4" x2="241.43" y2="241.4" xlink:href="#Áåçûìÿííûé_ãðàäèåíò_59"/><linearGradient id="linear-gradient-6" x1="124.73" y1="228.51" x2="241.44" y2="228.51" xlink:href="#linear-gradient-2"/><linearGradient id="Áåçûìÿííûé_ãðàäèåíò_107-28" x1="124.73" y1="228.51" x2="184.29" y2="228.51" xlink:href="#Áåçûìÿííûé_ãðàäèåíò_107"/><linearGradient id="Áåçûìÿííûé_ãðàäèåíò_107-29" x1="140.6" y1="262.47" x2="238.29" y2="198.62" xlink:href="#Áåçûìÿííûé_ãðàäèåíò_107"/><linearGradient id="linear-gradient-7" x1="183.08" y1="252.52" x2="183.08" y2="100.9" xlink:href="#linear-gradient"/><linearGradient id="linear-gradient-8" x1="263.65" y1="206.36" x2="263.65" y2="54.75" xlink:href="#linear-gradient"/><radialGradient id="radial-gradient-4" cx="-1234.26" cy="284.01" r="42.27" gradientTransform="matrix(-0.48, 0.88, -0.5, -0.84, -200.21, 1458.22)" gradientUnits="userSpaceOnUse"><stop offset="0" stop-color="#42e8e0"/><stop offset="0.17" stop-color="#36a9ba" stop-opacity="0.71"/><stop offset="0.34" stop-color="#2b7298" stop-opacity="0.46"/><stop offset="0.5" stop-color="#23467e" stop-opacity="0.26"/><stop offset="0.63" stop-color="#1d276b" stop-opacity="0.12"/><stop offset="0.75" stop-color="#19145f" stop-opacity="0.03"/><stop offset="0.82" stop-color="#180d5b" stop-opacity="0"/></radialGradient><radialGradient id="radial-gradient-5" cx="-1148.85" cy="303.59" r="42.27" gradientTransform="matrix(0.87, 0.5, -0.87, 0.5, 1561.29, 611.07)" gradientUnits="userSpaceOnUse"><stop offset="0" stop-color="#42e8e0"/><stop offset="0.08" stop-color="#3cc9cd" stop-opacity="0.86"/><stop offset="0.23" stop-color="#3190ab" stop-opacity="0.6"/><stop offset="0.37" stop-color="#28618e" stop-opacity="0.39"/><stop offset="0.51" stop-color="#213d78" stop-opacity="0.22"/><stop offset="0.63" stop-color="#1c2368" stop-opacity="0.1"/><stop offset="0.74" stop-color="#19135e" stop-opacity="0.03"/><stop offset="0.82" stop-color="#180d5b" stop-opacity="0"/></radialGradient><radialGradient id="Áåçûìÿííûé_ãðàäèåíò_26-6" cx="-1235.61" cy="335.9" r="32.5" gradientTransform="matrix(0.87, 0.5, -0.87, 0.5, 1561.29, 611.07)" xlink:href="#Áåçûìÿííûé_ãðàäèåíò_26"/><radialGradient id="Áåçûìÿííûé_ãðàäèåíò_26-7" cx="248.02" cy="135.13" r="7.42" gradientTransform="matrix(1, 0, 0, 1, 0, 0)" xlink:href="#Áåçûìÿííûé_ãðàäèåíò_26"/><radialGradient id="Áåçûìÿííûé_ãðàäèåíò_26-8" cx="200.37" cy="162.7" r="7.42" gradientTransform="matrix(1, 0, 0, 1, 0, 0)" xlink:href="#Áåçûìÿííûé_ãðàäèåíò_26"/><radialGradient id="Áåçûìÿííûé_ãðàäèåíò_26-9" cx="298.81" cy="191.26" r="7.42" gradientTransform="matrix(1, 0, 0, 1, 0, 0)" xlink:href="#Áåçûìÿííûé_ãðàäèåíò_26"/><radialGradient id="Áåçûìÿííûé_ãðàäèåíò_26-10" cx="312.57" cy="183.15" r="7.42" gradientTransform="matrix(1, 0, 0, 1, 0, 0)" xlink:href="#Áåçûìÿííûé_ãðàäèåíò_26"/><radialGradient id="Áåçûìÿííûé_ãðàäèåíò_26-11" cx="326.32" cy="175.17" r="7.42" gradientTransform="matrix(1, 0, 0, 1, 0, 0)" xlink:href="#Áåçûìÿííûé_ãðàäèåíò_26"/><linearGradient id="linear-gradient-9" x1="340.75" y1="179.69" x2="337.53" y2="183.17" gradientUnits="userSpaceOnUse"><stop offset="0" stop-color="#ffc444"/><stop offset="1" stop-color="#f36f56"/></linearGradient><linearGradient id="linear-gradient-10" x1="390.69" y1="186.34" x2="385.83" y2="191.59" xlink:href="#linear-gradient-9"/><linearGradient id="linear-gradient-11" x1="371.25" y1="174.18" x2="392.29" y2="207.64" gradientUnits="userSpaceOnUse"><stop offset="0" stop-color="#ff9085"/><stop offset="1" stop-color="#fb6fbb"/></linearGradient><linearGradient id="linear-gradient-12" x1="379.33" y1="260.45" x2="379.33" y2="255.11" xlink:href="#linear-gradient-9"/><linearGradient id="linear-gradient-13" x1="363.05" y1="261.98" x2="363.05" y2="255.54" xlink:href="#linear-gradient-9"/><linearGradient id="linear-gradient-14" x1="-484.67" y1="-224.41" x2="-459.23" y2="-183.98" gradientTransform="translate(880.7 238.5) rotate(-19.2)" xlink:href="#linear-gradient-11"/><linearGradient id="linear-gradient-15" x1="359.45" y1="236.7" x2="380.5" y2="236.7" gradientUnits="userSpaceOnUse"><stop offset="0" stop-color="#311944"/><stop offset="1" stop-color="#893976"/></linearGradient><linearGradient id="linear-gradient-16" x1="358.78" y1="221" x2="373.95" y2="246.48" xlink:href="#linear-gradient-15"/><linearGradient id="linear-gradient-17" x1="364.75" y1="217.44" x2="379.92" y2="242.92" xlink:href="#linear-gradient-15"/><linearGradient id="linear-gradient-18" x1="352.75" y1="181.19" x2="377.7" y2="220.85" xlink:href="#linear-gradient-11"/><linearGradient id="linear-gradient-19" x1="342.94" y1="178.79" x2="371.88" y2="224.8" xlink:href="#linear-gradient-11"/><linearGradient id="linear-gradient-20" x1="373.25" y1="188.16" x2="369.1" y2="194.87" xlink:href="#linear-gradient-9"/><linearGradient id="linear-gradient-21" x1="370.61" y1="188.35" x2="376.82" y2="188.35" gradientUnits="userSpaceOnUse"><stop offset="0" stop-color="#311944"/><stop offset="1" stop-color="#6b3976"/></linearGradient><linearGradient id="linear-gradient-22" x1="-246.4" y1="-75.96" x2="-250.41" y2="-69.48" gradientTransform="translate(629.1 202.9) rotate(-13.7)" xlink:href="#linear-gradient-9"/><linearGradient id="linear-gradient-23" x1="368.9" y1="189.12" x2="372.47" y2="194.81" gradientUnits="userSpaceOnUse"><stop offset="0" stop-color="#e38ddd"/><stop offset="1" stop-color="#9571f6"/></linearGradient></defs><g class="cls-1"><g id="Layer_1" data-name="Layer 1"><path class="cls-2" d="M149.5,181.6V42.9H55.6V182.6h0a3.5,3.5,0,0,0,2,2.8l39.5,22.8c3,1.8,8.3,1.5,11.8-.5L146.7,186C148.9,184.7,149.9,183,149.5,181.6Z"/><g class="cls-3"><path class="cls-4" d="M80.4,189a2.9,2.9,0,0,1-2.9,2.9,3,3,0,0,1-3-2.9,3.1,3.1,0,0,1,3-3A3,3,0,0,1,80.4,189Z"/><circle class="cls-4" cx="99.7" cy="169.2" r="5"/><path class="cls-4" d="M94.8,166a1.3,1.3,0,1,1-1.3-1.3A1.3,1.3,0,0,1,94.8,166Z"/><circle class="cls-4" cx="115.5" cy="140.7" r="2.5"/><circle class="cls-4" cx="102.3" cy="119.3" r="1.8"/><path class="cls-4" d="M83.7,105.6a3.3,3.3,0,1,1-6.5,0,3.3,3.3,0,0,1,6.5,0Z"/><path class="cls-4" d="M91.7,78.6a1.8,1.8,0,1,1-1.8-1.8A1.8,1.8,0,0,1,91.7,78.6Z"/><circle class="cls-4" cx="103.5" cy="90.6" r="2.1"/><path class="cls-4" d="M107.2,86.2a1,1,0,0,1-2,0,1,1,0,1,1,2,0Z"/><path class="cls-4" d="M120.5,64.1a3,3,0,1,1-2.9-2.9A2.9,2.9,0,0,1,120.5,64.1Z"/></g><path class="cls-5" d="M183.2,344.6a24.6,24.6,0,0,1-12.1-2.8l-141-81.5c-3.2-1.8-4.9-4.3-4.9-7.1s2.5-6.7,6.8-9.2l137.2-79.2c8.2-4.7,20.6-5.2,27.8-1.1l141,81.4c3.2,1.9,4.9,4.4,4.9,7.2s-2.5,6.7-6.8,9.2L198.9,340.7A33.2,33.2,0,0,1,183.2,344.6Zm-11.8-3.3c7,4.1,19.2,3.5,27.3-1.1L335.8,261c4.2-2.4,6.6-5.6,6.6-8.7s-1.6-5-4.6-6.7L196.7,164.1c-7-4-19.2-3.5-27.3,1.2L32.3,244.5c-4.2,2.4-6.6,5.6-6.6,8.7s1.6,5,4.6,6.7Z"/><ellipse class="cls-6" cx="148.1" cy="174.2" rx="116.6" ry="67.3"/><ellipse class="cls-7" cx="274.1" cy="296.8" rx="116.6" ry="67.3"/><ellipse class="cls-8" cx="42.2" cy="236.8" rx="42.2" ry="24.4"/><circle class="cls-9" cx="149.1" cy="176.7" r="10.6" transform="translate(-81.2 157.2) rotate(-45)"/><circle class="cls-5" cx="149.1" cy="176.7" r="3"/><circle class="cls-10" cx="41.8" cy="238.8" r="10.6" transform="translate(-200.2 224.8) rotate(-76.8)"/><path class="cls-5" d="M44.8,238.8a3.1,3.1,0,0,1-6.1,0,3.1,3.1,0,1,1,6.1,0Z"/><circle class="cls-11" cx="274.8" cy="296.5" r="10.6" transform="translate(-129.2 281.2) rotate(-45)"/><circle class="cls-5" cx="274.8" cy="296.5" r="3"/><circle class="cls-12" cx="294.5" cy="284.9" r="10.6" transform="translate(-50.4 506.1) rotate(-76.7)"/><circle class="cls-5" cx="294.5" cy="284.9" r="3"/><circle class="cls-13" cx="314.3" cy="273.5" r="10.6" transform="translate(-24.1 516.5) rotate(-76.7)"/><path class="cls-5" d="M317.3,273.5a3,3,0,1,1-3-3.1A3,3,0,0,1,317.3,273.5Z"/><path class="cls-14" d="M177,235.5l-44.3-25.6c-3.4-2-3-5.4.9-7.6L176,177.8c3.9-2.2,9.8-2.5,13.2-.5l44.3,25.5c3.4,2,2.9,5.4-.9,7.6l-42.5,24.5C186.2,237.2,180.4,237.4,177,235.5Z"/><path class="cls-15" d="M241.4,180.2V171H217.8l-28-16.1c-3.7-2.2-10.2-1.9-14.5.6L148.4,171H124.7v9.7h0c-.1,1.5.8,2.9,2.5,3.9l49.1,28.3c3.8,2.2,10.3,1.9,14.6-.6l47-27.1C240.4,183.8,241.6,181.9,241.4,180.2Z"/><path class="cls-16" d="M241.4,180.2V171H217.8l-28-16.1c-3.7-2.2-10.2-1.9-14.5.6L148.4,171H124.7v9.7h0c-.1,1.5.8,2.9,2.5,3.9l49.1,28.3c3.8,2.2,10.3,1.9,14.6-.6l47-27.1C240.4,183.8,241.6,181.9,241.4,180.2Z"/><path class="cls-17" d="M189.8,154.9a13,13,0,0,0-6.7-1.5v61a17.5,17.5,0,0,0,7.8-2.1l47-27.1c2.5-1.4,3.7-3.3,3.5-5V171H217.8Z"/><path class="cls-15" d="M176.3,203.3l-49.1-28.4c-3.7-2.1-3.2-5.9,1.1-8.4l47-27.1c4.3-2.5,10.8-2.8,14.5-.6l49.1,28.3c3.8,2.2,3.3,5.9-1,8.4l-47,27.2C186.6,205.1,180.1,205.4,176.3,203.3Z"/><path class="cls-18" d="M176.3,203.3l-49.1-28.4c-3.7-2.1-3.2-5.9,1.1-8.4l47-27.1c4.3-2.5,10.8-2.8,14.5-.6l49.1,28.3c3.8,2.2,3.3,5.9-1,8.4l-47,27.2C186.6,205.1,180.1,205.4,176.3,203.3Z"/><path class="cls-19" d="M177.6,197l-39.5-22.8c-3-1.8-2.6-4.8.8-6.8l37.9-21.9c3.5-2,8.7-2.2,11.7-.5l39.6,22.9c3,1.7,2.6,4.7-.9,6.7l-37.8,21.9C185.9,198.5,180.6,198.7,177.6,197Z"/><path class="cls-20" d="M138.9,170.4l37.9-21.9c3.5-2,8.7-2.2,11.7-.5l39.6,22.8a7.8,7.8,0,0,1,1.6,1.5c.9-1.6.4-3.3-1.6-4.4L188.5,145c-3-1.7-8.2-1.5-11.7.5l-37.9,21.9c-2.6,1.5-3.4,3.6-2.4,5.3A5.4,5.4,0,0,1,138.9,170.4Z"/><path class="cls-21" d="M178,203.3l-49.1-28.4c-3.7-2.1-4.6-5.3,1-8.4l47-27.1a17,17,0,0,1,7.4-2,16.4,16.4,0,0,0-9,2l-47,27.1c-4.3,2.5-4.8,6.3-1.1,8.4l49.1,28.4a13.7,13.7,0,0,0,7.2,1.4A13.1,13.1,0,0,1,178,203.3Z"/><path class="cls-22" d="M237.9,179.6l-47,27.1c-4.3,2.5-10.8,2.8-14.6.6L127.2,179c-1.7-1-2.6-2.4-2.5-3.9h0v2h0c-.1,1.5.8,2.9,2.5,3.9l49.1,28.4c3.8,2.1,10.3,1.8,14.6-.6l47-27.2c2.5-1.4,3.7-3.3,3.5-5v-2C241.6,176.3,240.4,178.2,237.9,179.6Z"/><path class="cls-23" d="M229.4,176.9c.5.4.5.9,0,1.2a2.3,2.3,0,0,1-2,0c-.5-.3-.5-.8,0-1.2A2.3,2.3,0,0,1,229.4,176.9Z"/><path class="cls-23" d="M232.4,175.2a.6.6,0,0,1,0,1.1,2.3,2.3,0,0,1-2,0,.6.6,0,0,1,0-1.1A2.3,2.3,0,0,1,232.4,175.2Z"/><path class="cls-23" d="M235.4,173.5a.6.6,0,0,1,0,1.1,2.1,2.1,0,0,1-1.9,0c-.6-.3-.6-.8,0-1.1A1.7,1.7,0,0,1,235.4,173.5Z"/><path class="cls-14" d="M96.4,282.1,52.1,256.5c-3.4-2-2.9-5.4.9-7.6l42.5-24.5c3.9-2.3,9.7-2.5,13.1-.6l44.3,25.6c3.4,2,3,5.4-.9,7.6l-42.4,24.5C105.7,283.8,99.8,284,96.4,282.1Z"/><path class="cls-15" d="M160.8,226.8v-9.2H137.2l-27.9-16.1c-3.8-2.2-10.3-1.9-14.6.6L67.8,217.6H44.2v9.7h0c-.1,1.4.7,2.8,2.5,3.9l49.1,28.3c3.7,2.2,10.2,1.9,14.5-.6l47-27.1C159.8,230.4,161,228.5,160.8,226.8Z"/><path class="cls-24" d="M160.8,226.8v-9.2H137.2l-27.9-16.1c-3.8-2.2-10.3-1.9-14.6.6L67.8,217.6H44.2v9.7h0c-.1,1.4.7,2.8,2.5,3.9l49.1,28.3c3.7,2.2,10.2,1.9,14.5-.6l47-27.1C159.8,230.4,161,228.5,160.8,226.8Z"/><path class="cls-25" d="M109.3,201.5a13.4,13.4,0,0,0-6.8-1.5v61a17.1,17.1,0,0,0,7.8-2.1l47-27.1c2.5-1.4,3.7-3.3,3.5-5v-9.2H137.2Z"/><path class="cls-15" d="M95.8,249.8,46.7,221.5c-3.8-2.2-3.3-5.9,1-8.4l47-27.1c4.3-2.5,10.8-2.8,14.6-.6l49,28.3c3.8,2.2,3.3,5.9-1,8.4l-47,27.1C106,251.7,99.5,252,95.8,249.8Z"/><path class="cls-26" d="M95.8,249.8,46.7,221.5c-3.8-2.2-3.3-5.9,1-8.4l47-27.1c4.3-2.5,10.8-2.8,14.6-.6l49,28.3c3.8,2.2,3.3,5.9-1,8.4l-47,27.1C106,251.7,99.5,252,95.8,249.8Z"/><path class="cls-19" d="M97.1,243.6,57.5,220.7c-3-1.7-2.6-4.7.9-6.7l37.8-21.9c3.5-2,8.7-2.2,11.8-.5l39.5,22.9c3,1.7,2.6,4.7-.8,6.7l-37.9,21.9C105.3,245.1,100.1,245.3,97.1,243.6Z"/><path class="cls-20" d="M58.4,216.9l37.8-21.8c3.5-2,8.7-2.2,11.8-.5l39.5,22.8a4.7,4.7,0,0,1,1.6,1.5c.9-1.6.4-3.3-1.6-4.4L108,191.6c-3.1-1.7-8.3-1.5-11.8.5L58.4,214c-2.6,1.5-3.5,3.6-2.5,5.3A6.4,6.4,0,0,1,58.4,216.9Z"/><path class="cls-27" d="M97.4,249.8,48.3,221.5c-3.7-2.2-4.6-5.3,1.1-8.4l47-27.1a16.3,16.3,0,0,1,7.3-2.1,17.3,17.3,0,0,0-9,2.1l-47,27.1c-4.3,2.5-4.8,6.2-1,8.4l49.1,28.3a13.5,13.5,0,0,0,7.1,1.5A12.1,12.1,0,0,1,97.4,249.8Z"/><path class="cls-28" d="M157.3,226.2l-47,27.1c-4.3,2.5-10.8,2.8-14.5.6L46.7,225.6a4.2,4.2,0,0,1-2.5-3.9h0v2h0c-.1,1.5.7,2.9,2.5,3.9l49.1,28.3c3.7,2.2,10.2,1.9,14.5-.6l47-27.1c2.5-1.4,3.7-3.3,3.5-5v-2C161,222.9,159.8,224.8,157.3,226.2Z"/><path class="cls-23" d="M148.8,223.5a.6.6,0,0,1,0,1.1,1.8,1.8,0,0,1-2,0,.6.6,0,0,1,0-1.1A2.3,2.3,0,0,1,148.8,223.5Z"/><path class="cls-23" d="M151.8,221.8a.6.6,0,0,1,0,1.1,2.1,2.1,0,0,1-1.9,0c-.6-.3-.6-.8,0-1.1A2.1,2.1,0,0,1,151.8,221.8Z"/><path class="cls-23" d="M154.8,220c.6.3.6.8,0,1.2a2.1,2.1,0,0,1-1.9,0c-.6-.4-.6-.9,0-1.2A2.1,2.1,0,0,1,154.8,220Z"/><path class="cls-14" d="M257.6,281.7l-44.4-25.6c-3.3-2-2.9-5.4,1-7.6L256.6,224c3.9-2.3,9.8-2.5,13.2-.6L314.1,249c3.3,2,2.9,5.4-1,7.6l-42.4,24.5C266.8,283.4,260.9,283.6,257.6,281.7Z"/><path class="cls-15" d="M322,226.4v-9.2H298.4l-28-16.1c-3.7-2.2-10.2-1.9-14.5.6L229,217.2H205.3v9.7h0a4.2,4.2,0,0,0,2.5,3.9l49.1,28.3c3.7,2.2,10.2,1.9,14.6-.6l46.9-27.1C320.9,230,322.1,228.1,322,226.4Z"/><path class="cls-29" d="M322,226.4v-9.2H298.4l-28-16.1c-3.7-2.2-10.2-1.9-14.5.6L229,217.2H205.3v9.7h0a4.2,4.2,0,0,0,2.5,3.9l49.1,28.3c3.7,2.2,10.2,1.9,14.6-.6l46.9-27.1C320.9,230,322.1,228.1,322,226.4Z"/><path class="cls-30" d="M270.4,201.1a13,13,0,0,0-6.7-1.5v61a17.5,17.5,0,0,0,7.8-2.1l46.9-27.1c2.5-1.4,3.7-3.3,3.6-5v-9.2H298.4Z"/><path class="cls-15" d="M256.9,249.4l-49.1-28.3c-3.7-2.1-3.2-5.9,1.1-8.4l47-27.1c4.3-2.5,10.8-2.8,14.5-.6l49.1,28.3c3.7,2.2,3.3,5.9-1.1,8.4l-46.9,27.1C267.1,251.3,260.6,251.6,256.9,249.4Z"/><path class="cls-31" d="M256.9,249.4l-49.1-28.3c-3.7-2.1-3.2-5.9,1.1-8.4l47-27.1c4.3-2.5,10.8-2.8,14.5-.6l49.1,28.3c3.7,2.2,3.3,5.9-1.1,8.4l-46.9,27.1C267.1,251.3,260.6,251.6,256.9,249.4Z"/><path class="cls-19" d="M258.2,243.2l-39.5-22.9c-3-1.7-2.7-4.7.8-6.7l37.9-21.9c3.4-2,8.7-2.2,11.7-.5l39.5,22.9c3,1.7,2.7,4.7-.8,6.7l-37.9,21.9C266.5,244.7,261.2,244.9,258.2,243.2Z"/><path class="cls-20" d="M219.5,216.5l37.9-21.8c3.4-2,8.7-2.2,11.7-.5L308.6,217a6.5,6.5,0,0,1,1.7,1.5c.8-1.6.3-3.3-1.7-4.4l-39.5-22.9c-3-1.7-8.3-1.5-11.7.5l-37.9,21.9c-2.6,1.5-3.5,3.6-2.4,5.3A5.5,5.5,0,0,1,219.5,216.5Z"/><path class="cls-32" d="M258.6,249.4l-49.1-28.3c-3.8-2.1-4.7-5.3,1-8.4l47-27.1a16.7,16.7,0,0,1,7.4-2.1,17.1,17.1,0,0,0-9,2.1l-47,27.1c-4.3,2.5-4.8,6.3-1.1,8.4l49.1,28.3a13.7,13.7,0,0,0,7.2,1.5A11.8,11.8,0,0,1,258.6,249.4Z"/><path class="cls-33" d="M318.4,225.8l-46.9,27.1c-4.4,2.5-10.9,2.8-14.6.6l-49.1-28.3c-1.8-1-2.6-2.4-2.5-3.9h0v2h0c-.1,1.5.7,2.9,2.5,3.9l49.1,28.3c3.7,2.2,10.2,1.9,14.6-.6l46.9-27.1c2.5-1.4,3.7-3.3,3.6-5v-2C322.1,222.5,320.9,224.4,318.4,225.8Z"/><path class="cls-23" d="M309.9,223.1c.6.3.6.8,0,1.1a1.7,1.7,0,0,1-1.9,0,.6.6,0,0,1,0-1.1A2.1,2.1,0,0,1,309.9,223.1Z"/><path class="cls-23" d="M312.9,221.4c.6.3.6.8,0,1.1a2.1,2.1,0,0,1-1.9,0,.6.6,0,0,1,0-1.1A2.1,2.1,0,0,1,312.9,221.4Z"/><path class="cls-23" d="M316,219.6c.5.4.5.9,0,1.2a2.3,2.3,0,0,1-2,0c-.5-.3-.5-.8,0-1.2A2.3,2.3,0,0,1,316,219.6Z"/><path class="cls-14" d="M178.8,191.5l-31-17.9c-2.4-1.4-2.1-3.8.7-5.4l29.7-17.1a10.3,10.3,0,0,1,9.2-.4l31,17.9c2.3,1.4,2,3.8-.7,5.3L188,191.1A10.3,10.3,0,0,1,178.8,191.5Z"/><path class="cls-34" d="M241.4,171V144.9l-40.6.2-11-6.3c-3.7-2.2-10.2-1.9-14.5.6l-10.2,5.8-40.4.2V171h.1c-.2,1.5.7,2.9,2.5,3.9l49,28.3c3.8,2.2,10.3,1.9,14.6-.6l47-27.1c2.2-1.3,3.4-2.9,3.5-4.5Z"/><path class="cls-15" d="M241.4,144.9v-9.2H217.8l-28-16.1c-3.7-2.1-10.2-1.9-14.5.6l-26.9,15.5H124.7v9.7h0c-.1,1.5.8,2.9,2.5,3.9l49.1,28.4c3.8,2.1,10.3,1.8,14.6-.6l47-27.2C240.4,148.5,241.6,146.6,241.4,144.9Z"/><path class="cls-35" d="M241.4,144.9v-9.2H217.8l-28-16.1c-3.7-2.1-10.2-1.9-14.5.6l-26.9,15.5H124.7v9.7h0c-.1,1.5.8,2.9,2.5,3.9l49.1,28.4c3.8,2.1,10.3,1.8,14.6-.6l47-27.2C240.4,148.5,241.6,146.6,241.4,144.9Z"/><path class="cls-36" d="M189.8,119.6a13,13,0,0,0-6.7-1.4v60.9a17.4,17.4,0,0,0,7.8-2l47-27.2c2.5-1.4,3.7-3.3,3.5-5v-9.2H217.8Z"/><path class="cls-15" d="M176.3,168l-49.1-28.4c-3.7-2.1-3.2-5.9,1.1-8.4l47-27.1c4.3-2.5,10.8-2.7,14.5-.6l49.1,28.3c3.8,2.2,3.3,6-1,8.4l-47,27.2C186.6,169.9,180.1,170.1,176.3,168Z"/><path class="cls-37" d="M176.3,168l-49.1-28.4c-3.7-2.1-3.2-5.9,1.1-8.4l47-27.1c4.3-2.5,10.8-2.7,14.5-.6l49.1,28.3c3.8,2.2,3.3,6-1,8.4l-47,27.2C186.6,169.9,180.1,170.1,176.3,168Z"/><path class="cls-38" d="M178,168l-49.1-28.4c-3.7-2.1-4.6-5.3,1-8.4l47-27.1a17,17,0,0,1,7.4-2,16.4,16.4,0,0,0-9,2l-47,27.1c-4.3,2.5-4.8,6.3-1.1,8.4L176.3,168a13.7,13.7,0,0,0,7.2,1.4A13.1,13.1,0,0,1,178,168Z"/><path class="cls-39" d="M237.9,144.3l-47,27.2c-4.3,2.5-10.8,2.7-14.6.6l-49.1-28.4c-1.7-1-2.6-2.4-2.5-3.9h0v2h0c-.1,1.5.8,2.9,2.5,3.9l49.1,28.4c3.8,2.1,10.3,1.9,14.6-.6l47-27.2c2.5-1.4,3.7-3.2,3.5-5v-2C241.6,141,240.4,142.9,237.9,144.3Z"/><path class="cls-14" d="M98.2,238l-31-17.9c-2.3-1.3-2-3.7.7-5.3l29.7-17.1c2.7-1.6,6.8-1.8,9.2-.4l31,17.9c2.4,1.4,2.1,3.7-.7,5.3l-29.7,17.2C104.7,239.2,100.6,239.4,98.2,238Z"/><path class="cls-34" d="M160.8,217.6a.5.5,0,0,0,0-.5V191.5l-40.6.2-10.9-6.3c-3.8-2.2-10.3-1.9-14.6.6l-10.1,5.8-40.4.2v25.6h0c-.1,1.5.7,2.9,2.5,3.9l49.1,28.3c3.7,2.2,10.2,1.9,14.5-.6l47-27.1c2.2-1.3,3.4-2.9,3.5-4.5Z"/><path class="cls-15" d="M160.8,191.5v-9.2H137.2l-27.9-16.1c-3.8-2.2-10.3-1.9-14.6.6L67.8,182.3H44.2V192h0c-.1,1.5.7,2.9,2.5,3.9l49.1,28.3c3.7,2.2,10.2,1.9,14.5-.6l47-27.1C159.8,195.1,161,193.2,160.8,191.5Z"/><path class="cls-40" d="M160.8,191.5v-9.2H137.2l-27.9-16.1c-3.8-2.2-10.3-1.9-14.6.6L67.8,182.3H44.2V192h0c-.1,1.5.7,2.9,2.5,3.9l49.1,28.3c3.7,2.2,10.2,1.9,14.5-.6l47-27.1C159.8,195.1,161,193.2,160.8,191.5Z"/><path class="cls-41" d="M109.3,166.2a14.5,14.5,0,0,0-6.8-1.5v61a17.1,17.1,0,0,0,7.8-2.1l47-27.1c2.5-1.4,3.7-3.3,3.5-5v-9.2H137.2Z"/><path class="cls-15" d="M95.8,214.6,46.7,186.2c-3.8-2.1-3.3-5.9,1-8.4l47-27.1c4.3-2.5,10.8-2.8,14.6-.6l49,28.3c3.8,2.2,3.3,5.9-1,8.4l-47,27.2C106,216.4,99.5,216.7,95.8,214.6Z"/><path class="cls-42" d="M95.8,214.6,46.7,186.2c-3.8-2.1-3.3-5.9,1-8.4l47-27.1c4.3-2.5,10.8-2.8,14.6-.6l49,28.3c3.8,2.2,3.3,5.9-1,8.4l-47,27.2C106,216.4,99.5,216.7,95.8,214.6Z"/><path class="cls-19" d="M97.1,208.3,57.5,185.5c-3-1.8-2.6-4.8.9-6.8l37.8-21.9c3.5-2,8.7-2.2,11.8-.4l39.5,22.8c3,1.7,2.6,4.7-.8,6.8l-37.9,21.8C105.3,209.8,100.1,210,97.1,208.3Z"/><path class="cls-20" d="M58.4,181.7l37.8-21.9c3.5-2,8.7-2.2,11.8-.5l39.5,22.8a5.9,5.9,0,0,1,1.6,1.5c.9-1.6.4-3.3-1.6-4.4L108,156.4c-3.1-1.8-8.3-1.6-11.8.4L58.4,178.7c-2.6,1.5-3.5,3.6-2.5,5.3A5.6,5.6,0,0,1,58.4,181.7Z"/><path class="cls-43" d="M97.4,214.6,48.3,186.2c-3.7-2.1-4.6-5.3,1.1-8.4l47-27.1a16.2,16.2,0,0,1,7.3-2,16.4,16.4,0,0,0-9,2l-47,27.1c-4.3,2.5-4.8,6.3-1,8.4l49.1,28.4a13.5,13.5,0,0,0,7.1,1.4A13.5,13.5,0,0,1,97.4,214.6Z"/><path class="cls-44" d="M157.3,190.9l-47,27.2c-4.3,2.4-10.8,2.7-14.5.6L46.7,190.3c-1.8-1-2.6-2.4-2.5-3.9h0v2h0c-.1,1.5.7,2.9,2.5,3.9l49.1,28.4c3.7,2.1,10.2,1.8,14.5-.6l47-27.2c2.5-1.4,3.7-3.3,3.5-5v-2C161,187.6,159.8,189.5,157.3,190.9Z"/><path class="cls-23" d="M148.8,188.2c.5.4.5.9,0,1.2a2.3,2.3,0,0,1-2,0c-.5-.3-.5-.8,0-1.2A2.3,2.3,0,0,1,148.8,188.2Z"/><path class="cls-23" d="M151.8,186.5a.6.6,0,0,1,0,1.1,2.1,2.1,0,0,1-1.9,0c-.6-.3-.6-.8,0-1.1A2.1,2.1,0,0,1,151.8,186.5Z"/><path class="cls-23" d="M154.8,184.8c.6.3.6.8,0,1.1a2.1,2.1,0,0,1-1.9,0c-.6-.3-.6-.8,0-1.1A2.1,2.1,0,0,1,154.8,184.8Z"/><path class="cls-14" d="M259.4,237.7l-31-18c-2.4-1.3-2.1-3.7.6-5.3l29.7-17.1c2.7-1.6,6.9-1.8,9.2-.4l31,17.9c2.4,1.4,2.1,3.8-.6,5.3l-29.7,17.2C265.9,238.8,261.7,239,259.4,237.7Z"/><path class="cls-34" d="M322,217.2V191.1l-40.7.2L270.4,185c-3.7-2.2-10.2-1.9-14.5.6l-10.2,5.9H205.3v25.6h0c-.1,1.5.7,2.9,2.5,3.9l49.1,28.4c3.7,2.1,10.3,1.9,14.6-.6l47-27.2c2.2-1.3,3.4-2.9,3.5-4.5Z"/><path class="cls-15" d="M322,191.1v-9.2H298.4l-28-16.1c-3.7-2.2-10.2-1.9-14.5.6L229,181.9H205.3v9.7h0c-.1,1.5.7,2.9,2.5,3.9l49.1,28.4c3.7,2.1,10.2,1.8,14.6-.7l46.9-27.1C320.9,194.7,322.1,192.8,322,191.1Z"/><path class="cls-45" d="M322,191.1v-9.2H298.4l-28-16.1c-3.7-2.2-10.2-1.9-14.5.6L229,181.9H205.3v9.7h0c-.1,1.5.7,2.9,2.5,3.9l49.1,28.4c3.7,2.1,10.2,1.8,14.6-.7l46.9-27.1C320.9,194.7,322.1,192.8,322,191.1Z"/><path class="cls-46" d="M270.4,165.8a13,13,0,0,0-6.7-1.4v60.9a17.5,17.5,0,0,0,7.8-2.1l46.9-27.1c2.5-1.4,3.7-3.3,3.6-5v-9.2H298.4Z"/><path class="cls-15" d="M256.9,214.2l-49.1-28.4c-3.7-2.1-3.2-5.9,1.1-8.4l47-27.1c4.3-2.5,10.8-2.8,14.5-.6L319.5,178c3.7,2.2,3.3,5.9-1.1,8.4l-46.9,27.2C267.1,216.1,260.6,216.3,256.9,214.2Z"/><path class="cls-47" d="M256.9,214.2l-49.1-28.4c-3.7-2.1-3.2-5.9,1.1-8.4l47-27.1c4.3-2.5,10.8-2.8,14.5-.6L319.5,178c3.7,2.2,3.3,5.9-1.1,8.4l-46.9,27.2C267.1,216.1,260.6,216.3,256.9,214.2Z"/><path class="cls-48" d="M258.6,214.2l-49.1-28.4c-3.8-2.1-4.7-5.3,1-8.4l47-27.1a16.6,16.6,0,0,1,7.4-2,16.2,16.2,0,0,0-9,2l-47,27.1c-4.3,2.5-4.8,6.3-1.1,8.4l49.1,28.4a13.7,13.7,0,0,0,7.2,1.4A13.1,13.1,0,0,1,258.6,214.2Z"/><path class="cls-49" d="M318.4,190.5l-46.9,27.2c-4.4,2.4-10.9,2.7-14.6.6l-49.1-28.4c-1.8-1-2.6-2.4-2.5-3.9h0v2h0c-.1,1.5.7,2.9,2.5,3.9l49.1,28.4c3.7,2.1,10.2,1.9,14.6-.6l46.9-27.2c2.5-1.4,3.7-3.3,3.6-5v-2C322.1,187.2,320.9,189.1,318.4,190.5Z"/><path class="cls-14" d="M177,328.2l-44.3-25.5c-3.4-2-3-5.4.9-7.6L176,270.6c3.9-2.3,9.8-2.5,13.2-.6l44.3,25.6c3.4,2,2.9,5.4-.9,7.6l-42.5,24.5C186.2,329.9,180.4,330.2,177,328.2Z"/><path class="cls-50" d="M241.4,273v-9.2H217.8l-28-16.1c-3.7-2.2-10.2-1.9-14.5.6l-26.9,15.5H124.7v9.7h0c-.1,1.4.8,2.8,2.5,3.9l49.1,28.3c3.8,2.2,10.3,1.9,14.6-.6l47-27.1C240.4,276.5,241.6,274.7,241.4,273Z"/><path class="cls-51" d="M241.4,273v-9.2H217.8l-28-16.1c-3.7-2.2-10.2-1.9-14.5.6l-26.9,15.5H124.7v9.7h0c-.1,1.4.8,2.8,2.5,3.9l49.1,28.3c3.8,2.2,10.3,1.9,14.6-.6l47-27.1C240.4,276.5,241.6,274.7,241.4,273Z"/><path class="cls-52" d="M189.8,247.7a12.1,12.1,0,0,0-6.7-1.5v60.9a16.2,16.2,0,0,0,7.8-2l47-27.1c2.5-1.5,3.7-3.3,3.5-5v-9.2H217.8Z"/><path class="cls-15" d="M176.3,296l-49.1-28.3c-3.7-2.2-3.2-5.9,1.1-8.4l47-27.1c4.3-2.5,10.8-2.8,14.5-.6l49.1,28.3c3.8,2.1,3.3,5.9-1,8.4l-47,27.1C186.6,297.9,180.1,298.2,176.3,296Z"/><path class="cls-53" d="M176.3,296l-49.1-28.3c-3.7-2.2-3.2-5.9,1.1-8.4l47-27.1c4.3-2.5,10.8-2.8,14.5-.6l49.1,28.3c3.8,2.1,3.3,5.9-1,8.4l-47,27.1C186.6,297.9,180.1,298.2,176.3,296Z"/><path class="cls-19" d="M177.6,289.8l-39.5-22.9c-3-1.7-2.6-4.7.8-6.7l37.9-21.9c3.5-2,8.7-2.2,11.7-.5l39.6,22.8c3,1.8,2.6,4.8-.9,6.8l-37.8,21.9C185.9,291.3,180.6,291.5,177.6,289.8Z"/><path class="cls-20" d="M138.9,263.1l37.9-21.8c3.5-2,8.7-2.3,11.7-.5l39.6,22.8a4.6,4.6,0,0,1,1.6,1.5c.9-1.6.4-3.3-1.6-4.5l-39.6-22.8c-3-1.7-8.2-1.5-11.7.5l-37.9,21.9c-2.6,1.5-3.4,3.6-2.4,5.2A6.7,6.7,0,0,1,138.9,263.1Z"/><path class="cls-54" d="M178,296l-49.1-28.3c-3.7-2.2-4.6-5.3,1-8.4l47-27.1a15.8,15.8,0,0,1,7.4-2.1,17.3,17.3,0,0,0-9,2.1l-47,27.1c-4.3,2.5-4.8,6.2-1.1,8.4L176.3,296a13.7,13.7,0,0,0,7.2,1.5A11.8,11.8,0,0,1,178,296Z"/><path class="cls-55" d="M237.9,272.4l-47,27.1c-4.3,2.5-10.8,2.8-14.6.6l-49.1-28.3c-1.7-1.1-2.6-2.5-2.5-3.9h0v2h0a4.4,4.4,0,0,0,2.5,3.9l49.1,28.3c3.8,2.2,10.3,1.9,14.6-.6l47-27.1c2.5-1.4,3.7-3.3,3.5-5v-2C241.6,269.1,240.4,270.9,237.9,272.4Z"/><path class="cls-23" d="M229.4,269.7a.6.6,0,0,1,0,1.1,2.3,2.3,0,0,1-2,0,.6.6,0,0,1,0-1.1A2.3,2.3,0,0,1,229.4,269.7Z"/><path class="cls-23" d="M232.4,268a.6.6,0,0,1,0,1.1,2.3,2.3,0,0,1-2,0,.6.6,0,0,1,0-1.1A2.3,2.3,0,0,1,232.4,268Z"/><path class="cls-23" d="M235.4,266.2a.6.6,0,0,1,0,1.1,1.7,1.7,0,0,1-1.9,0c-.6-.3-.6-.8,0-1.1A2.1,2.1,0,0,1,235.4,266.2Z"/><path class="cls-14" d="M178.8,284.2l-31-17.9c-2.4-1.3-2.1-3.7.7-5.3l29.7-17.1c2.7-1.6,6.8-1.8,9.2-.4l31,17.9c2.3,1.4,2,3.7-.7,5.3L188,283.9C185.3,285.4,181.2,285.6,178.8,284.2Z"/><path class="cls-34" d="M241.4,263.8V237.7l-40.6.2-11-6.3c-3.7-2.2-10.2-1.9-14.5.6L165.1,238l-40.4.2v25.6h0a4.4,4.4,0,0,0,2.5,3.9L176.3,296c3.8,2.2,10.3,1.9,14.6-.6l47-27.1c2.2-1.3,3.4-2.9,3.5-4.5Z"/><path class="cls-15" d="M241.4,237.7v-9.2H217.8l-28-16.1c-3.7-2.2-10.2-1.9-14.5.6l-26.9,15.5H124.7v9.7h0c-.1,1.5.8,2.9,2.5,3.9l49.1,28.3c3.8,2.2,10.3,1.9,14.6-.6l47-27.1C240.4,241.3,241.6,239.4,241.4,237.7Z"/><path class="cls-56" d="M241.4,237.7v-9.2H217.8l-28-16.1c-3.7-2.2-10.2-1.9-14.5.6l-26.9,15.5H124.7v9.7h0c-.1,1.5.8,2.9,2.5,3.9l49.1,28.3c3.8,2.2,10.3,1.9,14.6-.6l47-27.1C240.4,241.3,241.6,239.4,241.4,237.7Z"/><path class="cls-57" d="M189.8,212.4a13,13,0,0,0-6.7-1.5v61a17.5,17.5,0,0,0,7.8-2.1l47-27.1c2.5-1.4,3.7-3.3,3.5-5v-9.2H217.8Z"/><path class="cls-15" d="M176.3,260.8l-49.1-28.4c-3.7-2.1-3.2-5.9,1.1-8.4l47-27.1c4.3-2.5,10.8-2.8,14.5-.6l49.1,28.3c3.8,2.2,3.3,5.9-1,8.4l-47,27.1C186.6,262.6,180.1,262.9,176.3,260.8Z"/><path class="cls-58" d="M176.3,260.8l-49.1-28.4c-3.7-2.1-3.2-5.9,1.1-8.4l47-27.1c4.3-2.5,10.8-2.8,14.5-.6l49.1,28.3c3.8,2.2,3.3,5.9-1,8.4l-47,27.1C186.6,262.6,180.1,262.9,176.3,260.8Z"/><path class="cls-59" d="M178,260.8l-49.1-28.4c-3.7-2.1-4.6-5.3,1-8.4l47-27.1a18.6,18.6,0,0,1,7.4-2.1,17.3,17.3,0,0,0-9,2.1l-47,27.1c-4.3,2.5-4.8,6.3-1.1,8.4l49.1,28.4a14.7,14.7,0,0,0,7.2,1.4A13.1,13.1,0,0,1,178,260.8Z"/><path class="cls-60" d="M237.9,237.1l-47,27.1c-4.3,2.5-10.8,2.8-14.6.6l-49.1-28.3c-1.7-1-2.6-2.4-2.5-3.9h0v2h0c-.1,1.5.8,2.9,2.5,3.9l49.1,28.3c3.8,2.2,10.3,1.9,14.6-.6l47-27.1c2.5-1.4,3.7-3.3,3.5-5v-2C241.6,233.8,240.4,235.7,237.9,237.1Z"/><path class="cls-61" d="M179.2,230.6c1,.6,1,1.5,0,2.1a4,4,0,0,1-3.7,0c-1-.6-1-1.5,0-2.1A4,4,0,0,1,179.2,230.6Z"/><path class="cls-62" d="M184.9,227.2a1.2,1.2,0,0,1,0,2.2,4,4,0,0,1-3.7,0,1.2,1.2,0,0,1,0-2.2A4.7,4.7,0,0,1,184.9,227.2Z"/><path class="cls-19" d="M190.7,223.9a1.2,1.2,0,0,1,0,2.2,4.8,4.8,0,0,1-3.7,0,1.2,1.2,0,0,1,0-2.2A4,4,0,0,1,190.7,223.9Z"/><path class="cls-14" d="M182.8,253.8a10.4,10.4,0,0,1-4.9-1.1l-36.3-21a3.4,3.4,0,0,1-2-3c0-1.4,1-2.8,2.8-3.8l34.7-20.1c3.3-1.9,8.3-2.1,11.2-.4l36.3,20.9a3.5,3.5,0,0,1,2,3c0,1.4-1,2.8-2.8,3.9l-34.8,20A12.2,12.2,0,0,1,182.8,253.8Zm-4.5-1.8c2.6,1.6,7.3,1.4,10.4-.4l34.7-20.1c1.6-.9,2.5-2,2.5-3.2a3,3,0,0,0-1.7-2.4L187.9,205c-2.7-1.5-7.3-1.3-10.4.4l-34.7,20.1c-1.6.9-2.5,2.1-2.5,3.2a2.9,2.9,0,0,0,1.7,2.4Z"/><path class="cls-14" d="M263.3,207.6a10.3,10.3,0,0,1-4.8-1.1l-36.3-21a3.5,3.5,0,0,1-2.1-3c0-1.4,1.1-2.8,2.9-3.8l34.7-20.1c3.3-1.9,8.3-2.1,11.1-.4l36.3,20.9a3.8,3.8,0,0,1,2.1,3c0,1.4-1.1,2.8-2.8,3.9l-34.8,20A12.3,12.3,0,0,1,263.3,207.6Zm-4.5-1.8c2.7,1.6,7.4,1.4,10.4-.4L304,185.3c1.5-.9,2.4-2,2.4-3.2a2.8,2.8,0,0,0-1.6-2.3l-36.3-21c-2.7-1.5-7.3-1.3-10.4.5l-34.8,20c-1.5.9-2.4,2.1-2.4,3.2a2.9,2.9,0,0,0,1.7,2.4Z"/><path class="cls-14" d="M182.8,161.2a9.7,9.7,0,0,1-5-1.2l-36.3-20.9a3.8,3.8,0,0,1-2.1-3.2c0-1.4,1.1-2.9,2.9-3.9l34.8-20.1c3.3-1.9,8.3-2.1,11.2-.4l36.3,20.9a3.8,3.8,0,0,1,2.2,3.2c0,1.4-1.1,2.9-2.9,3.9l-34.8,20.1A13.4,13.4,0,0,1,182.8,161.2Zm-4.4-2.1c2.6,1.5,7.2,1.3,10.2-.4l34.7-20.1c1.5-.9,2.4-2,2.4-3a2.8,2.8,0,0,0-1.6-2.3l-36.3-20.9c-2.6-1.5-7.2-1.3-10.2.4l-34.8,20.1a3.8,3.8,0,0,0-2.3,3,2.6,2.6,0,0,0,1.6,2.3Z"/><polygon class="cls-20" points="130.3 186.3 97.5 167.3 99.9 166 132.7 184.9 130.3 186.3"/><polygon class="cls-20" points="125.3 189.2 92.5 170.2 94.8 168.9 127.6 187.8 125.3 189.2"/><polygon class="cls-20" points="120.2 192.1 87.5 173.1 89.8 171.8 122.6 190.7 120.2 192.1"/><polygon class="cls-20" points="115.2 195 82.4 176.1 84.8 174.7 117.6 193.6 115.2 195"/><polygon class="cls-20" points="110.2 197.9 77.4 179 79.7 177.6 112.5 196.5 110.2 197.9"/><polygon class="cls-20" points="105.1 200.8 72.3 181.9 74.7 180.5 107.5 199.4 105.1 200.8"/><path class="cls-61" d="M259.8,184.2c1,.6,1,1.5,0,2.1a4,4,0,0,1-3.7,0c-1.1-.6-1.1-1.5,0-2.1A4,4,0,0,1,259.8,184.2Z"/><path class="cls-62" d="M265.5,180.9c1,.6,1,1.5,0,2.1a4,4,0,0,1-3.7,0c-1-.6-1-1.5,0-2.1A4,4,0,0,1,265.5,180.9Z"/><path class="cls-19" d="M271.3,177.5a1.2,1.2,0,0,1,0,2.2,4,4,0,0,1-3.7,0c-1.1-.6-1.1-1.6,0-2.2A4.7,4.7,0,0,1,271.3,177.5Z"/><path class="cls-61" d="M179.2,138c1,.6,1,1.5,0,2.1a4,4,0,0,1-3.7,0c-1-.6-1-1.5,0-2.1A4,4,0,0,1,179.2,138Z"/><path class="cls-62" d="M184.9,134.7c1,.6,1,1.5,0,2.1a4,4,0,0,1-3.7,0c-1-.6-1-1.5,0-2.1A4,4,0,0,1,184.9,134.7Z"/><path class="cls-19" d="M190.7,131.4c1,.5,1,1.5,0,2.1a4,4,0,0,1-3.7,0c-1-.6-1-1.6,0-2.1A4,4,0,0,1,190.7,131.4Z"/><path class="cls-63" d="M225.8,227.1V100.9H140.3V228h0a3.5,3.5,0,0,0,1.8,2.6l36,20.8c2.8,1.5,7.5,1.3,10.7-.5l34.5-19.9C225.2,230,226.1,228.5,225.8,227.1Z"/><path class="cls-64" d="M306.4,180.9V54.7H220.9V181.9h0a3.1,3.1,0,0,0,1.8,2.5l36,20.8c2.7,1.6,7.5,1.4,10.7-.4L303.8,185C305.8,183.8,306.7,182.3,306.4,180.9Z"/><g class="cls-65"><path class="cls-4" d="M174.3,227.5a2.9,2.9,0,0,1-2.9,3,3,3,0,1,1,0-5.9A2.9,2.9,0,0,1,174.3,227.5Z"/><circle class="cls-4" cx="193.7" cy="207.7" r="5"/><path class="cls-4" d="M188.7,204.5a1.3,1.3,0,0,1-1.3,1.3,1.3,1.3,0,1,1,0-2.6A1.3,1.3,0,0,1,188.7,204.5Z"/><circle class="cls-4" cx="209.5" cy="179.2" r="2.5"/><circle class="cls-4" cx="196.2" cy="157.8" r="1.8"/><path class="cls-4" d="M177.6,144.2a3.3,3.3,0,0,1-6.5,0,3.3,3.3,0,1,1,6.5,0Z"/><path class="cls-4" d="M185.6,117.2a1.8,1.8,0,1,1-1.8-1.8A1.8,1.8,0,0,1,185.6,117.2Z"/><circle class="cls-4" cx="197.4" cy="129.1" r="2.1"/><path class="cls-4" d="M201.1,124.7a1,1,0,1,1-2,0,1,1,0,0,1,2,0Z"/><path class="cls-4" d="M214.4,102.7a3,3,0,0,1-5.9,0,3,3,0,1,1,5.9,0Z"/></g><g class="cls-66"><path class="cls-4" d="M252.3,181.4a3,3,0,0,1-5.9,0,3,3,0,1,1,5.9,0Z"/><circle class="cls-4" cx="271.6" cy="161.6" r="5"/><path class="cls-4" d="M266.7,158.4a1.3,1.3,0,1,1-1.3-1.3A1.3,1.3,0,0,1,266.7,158.4Z"/><circle class="cls-4" cx="287.4" cy="133.1" r="2.5"/><circle class="cls-4" cx="274.1" cy="111.7" r="1.8"/><path class="cls-4" d="M255.5,98a3.2,3.2,0,1,1-6.4,0,3.2,3.2,0,1,1,6.4,0Z"/><path class="cls-4" d="M263.6,71a1.8,1.8,0,1,1-1.8-1.8A1.8,1.8,0,0,1,263.6,71Z"/><circle class="cls-4" cx="275.4" cy="83" r="2.1"/><path class="cls-4" d="M279.1,78.6a1.1,1.1,0,0,1-1,1,1.1,1.1,0,0,1-1.1-1,1.1,1.1,0,0,1,1.1-1.1A1.1,1.1,0,0,1,279.1,78.6Z"/><path class="cls-4" d="M292.4,56.5a3,3,0,1,1-5.9,0,3,3,0,0,1,5.9,0Z"/></g><path class="cls-5" d="M263.2,209.7a11.1,11.1,0,0,1-5.4-1.2l-62.7-36.2a3.8,3.8,0,0,1-2.2-3.2c0-1.5,1.2-3,3.1-4.1l60.9-35.2c3.6-2.1,9.2-2.3,12.4-.5l62.6,36.2a3.8,3.8,0,0,1,2.2,3.2c0,1.5-1.1,3-3.1,4.1L270.2,208A15.1,15.1,0,0,1,263.2,209.7Zm.7-81.3a14,14,0,0,0-6.8,1.7l-60.9,35.2c-1.8,1-2.9,2.4-2.9,3.8a3.4,3.4,0,0,0,2,2.9L258,208.2c3,1.7,8.4,1.5,12-.5l60.8-35.2c1.9-1.1,2.9-2.4,2.9-3.8a3.4,3.4,0,0,0-2-2.9l-62.6-36.2A10.8,10.8,0,0,0,263.9,128.4Z"/><ellipse class="cls-67" cx="247" cy="135" rx="29.2" ry="51.4" transform="translate(105.6 378.4) rotate(-88.5)"/><ellipse class="cls-68" cx="303.5" cy="188.4" rx="51.8" ry="29.9"/><ellipse class="cls-69" cx="200.4" cy="161.2" rx="39.8" ry="23"/><circle class="cls-70" cx="248" cy="135.1" r="7.4"/><path class="cls-5" d="M250.1,135.1a2.1,2.1,0,0,1-2.1,2.1,2.1,2.1,0,0,1-2.1-2.1A2.2,2.2,0,0,1,248,133,2.1,2.1,0,0,1,250.1,135.1Z"/><path class="cls-71" d="M207.8,162.7a7.4,7.4,0,0,1-7.4,7.4,7.4,7.4,0,1,1,0-14.8A7.4,7.4,0,0,1,207.8,162.7Z"/><path class="cls-5" d="M202.5,162.7a2.1,2.1,0,0,1-2.1,2.1,2.1,2.1,0,1,1,0-4.2A2.1,2.1,0,0,1,202.5,162.7Z"/><path class="cls-72" d="M306.2,191.3a7.4,7.4,0,1,1-14.8,0,7.4,7.4,0,1,1,14.8,0Z"/><path class="cls-5" d="M300.9,191.3a2.1,2.1,0,1,1-4.2,0,2.1,2.1,0,1,1,4.2,0Z"/><path class="cls-73" d="M320,183.2a7.4,7.4,0,0,1-7.4,7.4,7.5,7.5,0,0,1-7.5-7.4,7.6,7.6,0,0,1,7.5-7.5A7.5,7.5,0,0,1,320,183.2Z"/><path class="cls-5" d="M314.7,183.2a2.2,2.2,0,0,1-4.3,0,2.2,2.2,0,1,1,4.3,0Z"/><circle class="cls-74" cx="326.3" cy="175.2" r="7.4"/><path class="cls-5" d="M328.4,175.2a2.1,2.1,0,0,1-2.1,2.1,2.2,2.2,0,0,1-2.1-2.1,2.1,2.1,0,0,1,2.1-2.1A2.1,2.1,0,0,1,328.4,175.2Z"/><ellipse class="cls-75" cx="369.7" cy="265.9" rx="27.4" ry="5.3"/><path class="cls-76" d="M368.7,196.5c-17.5-.4-31.2-14.1-31.1-31.4a31.2,31.2,0,1,1,62.4.2C399.9,182.7,386.2,196.2,368.7,196.5Zm14-14.8c.2-.6.4-.8.5-1.1,1.1-3.8,2.2-7.7,3.5-11.5a15.3,15.3,0,0,0-2.1-14.2c-.2-.4-.5-.8-.6-1.1a14.6,14.6,0,0,1-1.2-3.3,4.7,4.7,0,0,1,3.1-5.8l1.4-.6c-8-6.5-16.6-8.4-26.2-5.9-6.4,1.7-14.1,7.6-15.1,11.5a26.1,26.1,0,0,0,2.8,0l5.4-.3c1,0,1.7.5,1.7,1.2s-.8,1.2-1.5,1.3l-2.7.2,10.1,30.1c2-5.9,3.8-11.4,5.6-16.9a3.7,3.7,0,0,0,.2-2.1c-1.3-3.7-2.7-7.4-4.1-11.1l-2.4-.2c-.8-.1-1.5-.4-1.5-1.3s.7-1.2,1.5-1.2h.9a52.3,52.3,0,0,0,12.5,0h.9c.7,0,1.3.2,1.4,1s-.5,1.3-1.3,1.4a20,20,0,0,1-2.8.3Zm-4.7,9.8c-2.9-7.8-5.7-15.5-8.7-23.5-2.8,6.6-7.9,22.3-7.9,23.9C365.6,193.6,372.4,193.5,378,191.5Zm-34.8-37.4c-6.7,14.7,1.9,31.6,13.1,35.7C351.9,177.9,347.6,166.2,343.2,154.1Zm50.6-.9c-.2,1.6-.2,3.3-.5,4.9a42.1,42.1,0,0,1-1.2,4.8L384,186.4l-.9,2.6C396.8,181.2,399.8,163.4,393.8,153.2Z"/><path class="cls-77" d="M341,182.1l-1.2-1.2a3.1,3.1,0,0,1-.3-2.8c.6-1.6,1.4-1.2,1.4-1.2l-.2,1.2a1.9,1.9,0,0,0,.5,1.6,8.5,8.5,0,0,1,.8,2Z"/><path class="cls-78" d="M390,186.6l1.3-1.2.6-2.1s1.6.6.8,2.7a16.9,16.9,0,0,0-2.6,2.7C389.5,189.7,390,186.6,390,186.6Z"/><path class="cls-79" d="M376.9,201.3a90,90,0,0,0,7.9-5.3,65.2,65.2,0,0,0,6.3-7.8c.3-.6-1.2-1.9-1.2-1.9s-7.4,9.2-16.6,6.5Z"/><path class="cls-80" d="M377.9,255.5s1.1,3,.8,4.3l2.1-.2a18.1,18.1,0,0,1-.6-2c-.1-.9-.1-2.4-.1-2.4Z"/><path class="cls-81" d="M365,262.4a.8.8,0,0,1,.2.5v.4c-.2.5-.5.6-.9,1.1s-.1.5-.3.6l-.8.3-1.9-.2,1.3-1.6.6-.7,1.3-.4Z"/><path class="cls-82" d="M364,256.4s-.7,3.7.2,4.7-.4.3-.4.3l-1.3,1.2-.8,1.4a23.9,23.9,0,0,0,.5-5l-.3-2.4Z"/><path class="cls-83" d="M367.5,192.7c-3.5-.5-8.4,1.2-14-1.8a30.4,30.4,0,0,1-10.8-10.1l-2.5,1.2a42.5,42.5,0,0,0,9.2,11.4c5.5,4.6,11,4.8,13.9,8.6C364.7,200.6,369.1,193,367.5,192.7Z"/><path class="cls-84" d="M361.3,216.3s-1.9,1.7-1.9,8.6.9,22.1.9,22.1l1.5,10.8a8.7,8.7,0,0,0,2.5-.2c.8-4.1,2.3-11,1.6-16.8s2.5-14.1,2.5-14.1,2.4,8,4.1,12,4.9,16.4,5.2,17.3a4.2,4.2,0,0,0,2.8-.4s-1.3-13.4-2.5-18.4-1.1-17.3-3-20.8C370.5,214.6,361.3,216.3,361.3,216.3Z"/><path class="cls-85" d="M361.3,216.3s-1.9,1.7-1.9,8.6.9,22.1.9,22.1l1.5,10.8a8.7,8.7,0,0,0,2.5-.2c.8-4.1,2.3-11,1.6-16.8s2.5-14.1,2.5-14.1,2.4,8,4.1,12,4.9,16.4,5.2,17.3a4.2,4.2,0,0,0,2.8-.4s-1.3-13.4-2.5-18.4-1.1-17.3-3-20.8C370.5,214.6,361.3,216.3,361.3,216.3Z"/><path class="cls-86" d="M371.2,229c.5,3.9,1.7,5.9,4.7,8.6s.6,5.6,1.4,8.5c.3.9,1.2,1.8,1.5,2.7s.1,4.8.6,7.2a2,2,0,0,0,1.1-.4s-1.3-13.4-2.5-18.4-1.1-17.3-3-20.8c-4.5-1.8-13.7-.1-13.7-.1s-1.9,1.7-1.9,8.6c0,.6.1,1.2.1,1.9a7.2,7.2,0,0,0,8.4.2l.5-.2h0C369.5,226.6,370.9,228,371.2,229Z"/><path class="cls-81" d="M378.4,260.9s-.3,0-.2.4a1.4,1.4,0,0,0,1.3,1.7h1.8l-.4-1.3-.5-.6h-2Z"/><path class="cls-87" d="M381.7,262.2a3.4,3.4,0,0,0-.4-1.2c-.3-.6,0-.8-.3-1.4l-.3-.5a2.5,2.5,0,0,0-1.1-.4h-.5a1,1,0,0,0-.4.5c-.2.2-.1.3-.4,1a.8.8,0,0,1-.1.4v.3a7.8,7.8,0,0,1,2.2.3,1.2,1.2,0,0,1,.5,1c0,.4.2.6.4.6S381.8,262.5,381.7,262.2Z"/><path class="cls-87" d="M363.8,260.6c.3,0,.6.3.8.9s1,1.2,0,1.1-1.8,1.3-2.1,1.8-1.4,1.1-1.4.5.5-.7.6-1.3S363,260.6,363.8,260.6Z"/><path class="cls-88" d="M370.8,192.5c-1.7,0-5.9-.5-7.9,1.5s0,4.5-.3,7.8-.2,3.6-.6,7.3c-.1.8-.3,1.6-.5,2.6-.6,2.5-1.6,7.2-2.1,8.4a20.2,20.2,0,0,0,11.3,1.7,19.9,19.9,0,0,0,5.7-1.9,25.4,25.4,0,0,1-.6-11.7,38.6,38.6,0,0,1,4-11.3c.7-1.6-1.1-.7-2.3-2.1S372.5,192.6,370.8,192.5Z"/><path class="cls-89" d="M365.8,203a5.7,5.7,0,0,0-.4-3.5,4.3,4.3,0,0,0-1.2-1.6c-1.5-1.4-3.4-1.3-5.5-1.5a31.8,31.8,0,0,1-6.7-1.2c4.1,2.7,8,3.5,10.6,6v.6c-.3,2.3-.2,3.6-.6,7.3-.1.8-.3,1.6-.5,2.6-.6,2.5-1.6,7.2-2.1,8.4a20.2,20.2,0,0,0,11.3,1.7,19.9,19.9,0,0,0,5.7-1.9,16.7,16.7,0,0,1-.9-4,16.5,16.5,0,0,1-7.6-1.8c-1.6-.8-2.4-1.2-2.9-2.1S365.2,208.6,365.8,203Z"/><path class="cls-90" d="M369.4,189.1a4.1,4.1,0,0,1,1.4-2.3c.9-.7,1.1-.8,1.4-.8h.5l1.1.4c.5.3.2,2.5-1.2,5.2,0,.3-.1.5-.1.7s1.4.4,1.4.6-1.2.8-2.4.9-3.1-.6-3-1.1.3-.4,1.3-.7l.5-.7C370.2,191,369.3,190,369.4,189.1Z"/><path class="cls-91" d="M372.2,185.1a1.7,1.7,0,0,0-.4,1.8c.1.3.2.4.1.6s-1.1.9-1.1,1.2.7.1.8.4-.6.6-.9,1.4-.3.8.1,1.2,1,.4,1.8.3l1.7-.5a3.8,3.8,0,0,0,1.7-1.2,2.8,2.8,0,0,0,.8-2.3,3.6,3.6,0,0,0-2.9-3.3A2.1,2.1,0,0,0,372.2,185.1Z"/><path class="cls-92" d="M371.2,188.6c.4-.2.6.2.5.6a.8.8,0,0,1-1.1.4C370.3,189.4,370.8,188.9,371.2,188.6Z"/><path class="cls-93" d="M367.8,192.5l.9-.2s.2,1.1,2.8,1.2a3.8,3.8,0,0,0,2.4-.8l.6.3a4.6,4.6,0,0,1-3.2,1.6A4.2,4.2,0,0,1,367.8,192.5Z"/></g></g></svg>