<?xml version="1.0" encoding="UTF-8"?>
<svg id="Layer_1" data-name="Layer 1" xmlns="http://www.w3.org/2000/svg" viewBox="0 0 46 46">
  <defs>
    <style>
      .cls-1 {
        fill: #270069;
      }
    </style>
  </defs>
  <path class="cls-1" d="M8.99,34.68l6.39-3.57c2.27-1.01,4.78.59,7.01,1.26.95.29,2.2.46,3.06.77,1.32.48,1.29,2.41-.16,2.64-1.33.21-3.91-1.09-5.32-1.26-.62-.02-.91.76-.4,1.14,3,.8,6.34,2.41,9.35.94,2.36-1.15,7.61-5.06,9.87-5.19,1.65-.1,2.26,1.5,1.29,2.7l-13.25,8.17c-1.08.52-1.91.55-3.08.33-3.05-.58-6.22-1.88-9.3-2.49-.73-.12-1.3.58-1.95.83l-3.51-6.26Z"/>
  <path class="cls-1" d="M26.46,9.93c8.16-.61,13.82,8.08,9.89,15.31-3.63,6.67-13.12,7.25-17.52,1.06-4.67-6.56-.38-15.77,7.63-16.37ZM33.49,26.45c5.21-4.98,2.18-13.92-4.92-14.95-8.43-1.22-13.5,8.88-7.66,14.95.56-1.03,1.06-1.94,1.97-2.71,3.55-3,9.01-1.63,10.61,2.71Z"/>
  <path class="cls-1" d="M6.26,33.2c.32-.06.41.12.57.33l5.8,10.29.02.26c0,.09-.05.13-.1.19-.08.1-2.09,1.23-2.22,1.25-.11.02-.18,0-.26-.07l-6.06-10.6c-.07-.21.07-.36.22-.49s1.91-1.14,2.03-1.16ZM5.98,34.51c-1.06.14-.86,1.67.07,1.67,1.19,0,.97-1.81-.07-1.67Z"/>
  <path class="cls-1" d="M28.37,2.96c.24.24,1.97.06,2.45.12.31.04.5.22.39.56-.13.42-1.89,1.26-2.01,1.65-.17.58.94,2.2.55,2.7-.06.08-.15.12-.25.13-.47.04-1.74-1.38-2.25-1.41-.46-.02-1.55,1.2-2.01,1.36-1.4.49.19-2.31.06-2.76-.27-.54-2.03-1.27-2.03-1.82,0-.11.03-.21.09-.29.28-.35,2.15.05,2.63-.18.34-.16.61-1.91.9-2.36.08-.12.12-.17.28-.19.21,0,.39.15.48.32.21.39.46,1.92.7,2.16Z"/>
  <path class="cls-1" d="M36.36,5.52c.12-.02.24-.03.36-.01.43.08,1.48,1.63,1.88,1.69.53.08,1.95-1.08,2.42-1.03.1,0,.19.06.25.13.43.55-1.04,1.98-.95,2.62.06.39,1.46,1.34,1.64,1.74.07.15.11.51-.04.61-.65.27-2.2-.44-2.72-.19-.23.11-.87,1.73-1.17,2.1s-.63.2-.75-.18c-.14-.43-.19-2.14-.45-2.35-.49-.3-2.75-.12-2.68-.87.25-.61,2.07-.96,2.29-1.46.17-.38-.21-1.67-.24-2.19,0-.17-.06-.53.16-.6Z"/>
  <path class="cls-1" d="M20.29,9.54c.05.09.04.37,0,.48-.15.44-2.22.29-2.61.66-.32.31-.27,1.89-.49,2.41-.12.3-.49.35-.7.14-.25-.24-.89-2.02-1.14-2.17-.42-.26-2.3.51-2.77.15l-.14-.25c-.04-.42,1.61-1.55,1.77-2.07.07-.44-1.02-1.79-1.06-2.26-.02-.21.18-.46.38-.48.47-.05,1.89,1.11,2.42,1.03.39-.06,1.34-1.46,1.74-1.64,1.27-.59.14,2.29.34,2.73.18.39,2.09.99,2.25,1.26Z"/>
  <path class="cls-1" d="M26.93,14.42c3.86-.41,5.15,5.14,1.65,6.51-4.9,1.91-6.7-5.97-1.65-6.51Z"/>
</svg>