<svg xmlns="http://www.w3.org/2000/svg" viewBox="0 0 300 30"><defs><style>.cls-1{fill:#fff;}</style></defs><g id="Layer_18" data-name="Layer 18"><path class="cls-1" d="M99.18,8.94,90,19.37v5.14H85.11V19.33L75.61,8.94H81.8l3.73,4.31c.49.56,1.79,2,2.16,2.45.3-.44.84-1.08,2-2.47l3.54-4.31Z"/><path class="cls-1" d="M120.44,16.71c0,5.56-3.82,8.05-11.38,8.05s-11.39-2.49-11.39-8,3.8-8,11.39-8S120.44,11.15,120.44,16.71Zm-4.8,0c0-3.35-1.74-4-6.58-4s-6.59.62-6.59,4,1.75,4,6.59,4S115.64,20.06,115.64,16.71Z"/><path class="cls-1" d="M142.52,17.71q0,7-9.7,7.05c-7.5,0-10.73-2.35-10.73-7V8.94h4.8v8.77c0,2.3,1,3.05,5.93,3.05,3.69,0,4.86-.86,4.86-3.05V8.94h4.84Z"/><path class="cls-1" d="M159.09,15.15c3.8,0,5.84,1.42,5.84,4.26,0,3.24-1.93,5.1-6.68,5.1h-14.5l3.11-4h11.77c1.08,0,1.65-.32,1.65-1.13s-.52-1.08-1.65-1.08h-8.47c-4,0-5.85-1.79-5.85-4.46,0-2.94,2-4.84,6.69-4.84h13.52l-3,4H150.69c-1.07,0-1.65.28-1.65,1.08s.54,1.08,1.65,1.08Z"/><path class="cls-1" d="M184.44,8.94,181.32,13h-5.57V24.51h-4.82V13h-7.3l3.12-4Z"/><path class="cls-1" d="M196.59,20.54c-.42-.56-1.08-1.52-1.59-2.26l-2.79-4.12L184.9,24.5h-5.71l10-14.08a3.75,3.75,0,0,1,3.13-1.74,3.61,3.61,0,0,1,3.06,1.75l9.7,14.08h-5.63Z"/><path class="cls-1" d="M226.25,20c0,2.58-1.41,4.54-6.33,4.54H206.24V15H220c.7,0,1.35-.26,1.35-1.08s-.67-1-1.35-1h-8.94v2.56h-4.86V8.94h13.6c3.72,0,6.11,1.44,6.11,4.31a3.24,3.24,0,0,1-2.16,3.24A3.42,3.42,0,0,1,226.25,20Zm-15.17-1.58v2.15H220c1.07,0,1.48-.36,1.48-1.08S221,18.39,220,18.39Z"/><path class="cls-1" d="M245,20.54l-3.12,4H228.1V8.94h4.82v11.6Z"/><path class="cls-1" d="M264.07,20.54l-3.09,4H246V8.94h18L260.91,13H250.83v1.87h12.33l-2.77,3.53h-9.56v2.15Z"/><path class="cls-1" d="M63.57,15.84H61.33c0-3.61-3.41-6.55-7.61-6.55s-7.61,2.94-7.61,6.55H43.87c0-4.81,4.42-8.73,9.85-8.73S63.57,11,63.57,15.84Z"/><path class="cls-1" d="M45,20.05a2.52,2.52,0,1,1,2.59-2.51A2.55,2.55,0,0,1,45,20.05Zm0-3.39a.88.88,0,1,0,0,1.76.88.88,0,1,0,0-1.76Z"/><path class="cls-1" d="M62.45,20.05A2.52,2.52,0,1,1,65,17.54,2.56,2.56,0,0,1,62.45,20.05Zm0-3.39a.88.88,0,1,0,.9.88A.89.89,0,0,0,62.45,16.66Z"/><path class="cls-1" d="M63.23,28.45a2.51,2.51,0,1,1,2.58-2.51A2.55,2.55,0,0,1,63.23,28.45Zm0-3.39a.88.88,0,1,0,.9.88A.89.89,0,0,0,63.23,25.06Z"/><path class="cls-1" d="M46.25,22.85V21.08L49.18,21l6.47-.13,6.6-.14c2,0,4.44.43,6.09-.82,2.63-2,1.4-5.66-1.2-7a2.36,2.36,0,0,0-.69-.19c-.14,0-1.42-.09-1.42-.09l-1.22-1.56.69,0c4.58-.67,8.54,4.23,6.48,8.43a5.12,5.12,0,0,1-3.32,2.73,15.94,15.94,0,0,1-3.9.26c-1.36,0-2.72.09-4.09.11l-7.22.12-5.39.09Z"/><path class="cls-1" d="M61.32,26.72H46.85c-1.79,0-3.29-1-3.29-2.69a3.07,3.07,0,0,1,3.51-3L47,22.83a1.26,1.26,0,0,0-1.07.72,1,1,0,0,0,.85,1.16H61.27Z"/><path class="cls-1" d="M52.46,5.91a10.72,10.72,0,0,1,9.1-1.25,8.68,8.68,0,0,1,6,7.34c0,.41-.45.08-.36.49.27-.05,2.47,1.38,2.45,1.09-.4-4.81-1.9-7.5-4.89-9.59-4-2.79-11-1.81-14.28,1.47-.21.22-.41.44-.6.67"/></g></svg>