<?xml version="1.0" encoding="utf-8"?>
<svg version="1.1" id="Layer_1" xmlns="http://www.w3.org/2000/svg" xmlns:xlink="http://www.w3.org/1999/xlink" x="0px" y="0px"
	 viewBox="0 0 457 336.1" style="enable-background:new 0 0 457 336.1;" xml:space="preserve">
<style type="text/css">
	.st0{fill:#85C525;}
	.st1{fill:#73AB1E;}
	.st2{filter:url(#filter-2);}
	.st3{fill:#FFFFFF;}
	.st4{fill:none;}
	.st5{fill:#FDB334;}
	.st6{filter:url(#filter-4);}
	.st7{enable-background:new    ;}
	.st8{fill:#253745;}
</style>
	<filter  filterUnits="objectBoundingBox" height="129.1%" id="filter-4" width="104.5%" x="-2.3%" y="-7.3%">
	<feMorphology  in="SourceAlpha" operator="erode" radius="2" result="shadowSpreadOuter1"></feMorphology>
		<feOffset  dx="0" dy="4" in="shadowSpreadOuter1" result="shadowOffsetOuter1"></feOffset>
		<feGaussianBlur  in="shadowOffsetOuter1" result="shadowBlurOuter1" stdDeviation="4"></feGaussianBlur>
		<feColorMatrix  in="shadowBlurOuter1" type="matrix" values="0 0 0 0 0   0 0 0 0 0   0 0 0 0 0  0 0 0 0.5 0"></feColorMatrix>
</filter>
	<filter  filterUnits="objectBoundingBox" height="104.0%" id="filter-2" width="104.2%" x="-2.1%" y="-1.4%">
	<feOffset  dx="0" dy="2" in="SourceAlpha" result="shadowOffsetOuter1"></feOffset>
		<feGaussianBlur  in="shadowOffsetOuter1" result="shadowBlurOuter1" stdDeviation="2"></feGaussianBlur>
		<feColorMatrix  in="shadowBlurOuter1" type="matrix" values="0 0 0 0 0   0 0 0 0 0   0 0 0 0 0  0 0 0 0.5 0"></feColorMatrix>
</filter>
	<g id="best-offer">
	<g id="Flags" transform="translate(0.000000, 171.000000)">
		<polygon id="Rectangle" class="st0" points="366,20.1 457,20.1 424,47.1 457,75.1 366,75.1 		"/>
		<polygon id="Rectangle-Copy" class="st0" points="91,75.1 0,75.1 33,48.1 0,20.1 91,20.1 		"/>
		<polygon id="Rectangle_1_" class="st1" points="52,3.1 91,20.1 91,75.1 52,58.1 		"/>
		<polygon id="Rectangle_2_" class="st1" points="366,20.1 407,3.1 407,58.1 366,75.1 		"/>
	</g>
		<g id="Badge" transform="translate(65.000000, 0.000000)">
		<g id="Star">
			<g class="st2">
				<polygon id="path-1_2_" points="165,324 154.6,332.7 145.5,322.8 134.1,330.1 126.2,319.1 114,325 107.6,313.1 94.7,317.4 
					89.9,304.7 76.6,307.4 73.3,294.2 59.8,295.2 58.2,281.7 44.7,281 44.8,267.5 31.5,265 33.3,251.6 20.4,247.6 23.9,234.5 
					11.6,228.8 16.7,216.3 5.2,209.1 11.8,197.3 1.3,188.7 9.4,177.9 0,168.1 9.4,158.3 1.3,147.4 11.8,138.8 5.2,127 16.7,119.9 
					11.6,107.3 23.9,101.7 20.4,88.6 33.3,84.5 31.5,71.1 44.8,68.7 44.7,55.1 58.2,54.4 59.8,40.9 73.3,41.9 76.6,28.7 89.9,31.4 
					94.7,18.8 107.6,23.1 114,11.1 126.2,17 134.1,6 145.5,13.3 154.6,3.4 165,12.1 175.4,3.4 184.5,13.3 195.9,6 203.8,17 
					216,11.1 222.4,23.1 235.3,18.8 240.1,31.4 253.4,28.7 256.7,41.9 270.2,40.9 271.8,54.4 285.3,55.1 285.2,68.7 298.5,71.1 
					296.7,84.5 309.6,88.6 306.1,101.7 318.4,107.3 313.3,119.9 324.8,127 318.2,138.8 328.7,147.4 320.6,158.3 330,168.1 
					320.6,177.9 328.7,188.7 318.2,197.3 324.8,209.1 313.3,216.3 318.4,228.8 306.1,234.5 309.6,247.6 296.7,251.6 298.5,265 
					285.2,267.5 285.3,281 271.8,281.7 270.2,295.2 256.7,294.2 253.4,307.4 240.1,304.7 235.3,317.4 222.4,313.1 216,325 
					203.8,319.1 195.9,330.1 184.5,322.8 175.4,332.7 				"/>
			</g>
			<g>
				<polygon id="path-1_1_" class="st3" points="165,324 154.6,332.7 145.5,322.8 134.1,330.1 126.2,319.1 114,325 107.6,313.1 
					94.7,317.4 89.9,304.7 76.6,307.4 73.3,294.2 59.8,295.2 58.2,281.7 44.7,281 44.8,267.5 31.5,265 33.3,251.6 20.4,247.6 
					23.9,234.5 11.6,228.8 16.7,216.3 5.2,209.1 11.8,197.3 1.3,188.7 9.4,177.9 0,168.1 9.4,158.3 1.3,147.4 11.8,138.8 5.2,127 
					16.7,119.9 11.6,107.3 23.9,101.7 20.4,88.6 33.3,84.5 31.5,71.1 44.8,68.7 44.7,55.1 58.2,54.4 59.8,40.9 73.3,41.9 76.6,28.7 
					89.9,31.4 94.7,18.8 107.6,23.1 114,11.1 126.2,17 134.1,6 145.5,13.3 154.6,3.4 165,12.1 175.4,3.4 184.5,13.3 195.9,6 
					203.8,17 216,11.1 222.4,23.1 235.3,18.8 240.1,31.4 253.4,28.7 256.7,41.9 270.2,40.9 271.8,54.4 285.3,55.1 285.2,68.7 
					298.5,71.1 296.7,84.5 309.6,88.6 306.1,101.7 318.4,107.3 313.3,119.9 324.8,127 318.2,138.8 328.7,147.4 320.6,158.3 
					330,168.1 320.6,177.9 328.7,188.7 318.2,197.3 324.8,209.1 313.3,216.3 318.4,228.8 306.1,234.5 309.6,247.6 296.7,251.6 
					298.5,265 285.2,267.5 285.3,281 271.8,281.7 270.2,295.2 256.7,294.2 253.4,307.4 240.1,304.7 235.3,317.4 222.4,313.1 
					216,325 203.8,319.1 195.9,330.1 184.5,322.8 175.4,332.7 				"/>
			</g>
		</g>
			<circle id="Oval" class="st4" cx="165" cy="168.1" r="145"/>
			<g id="stars" transform="translate(70.000000, 242.000000)">
			<polygon id="Star-Copy-4" class="st5" points="16,25.8 6.6,32 9.6,21.1 0.8,14.1 12.1,13.6 16,3.1 19.9,13.6 31.2,14.1 
				22.4,21.1 25.4,32 			"/>
				<polygon id="Star-Copy-5" class="st5" points="55,25.8 45.6,32 48.6,21.1 39.8,14.1 51.1,13.6 55,3.1 58.9,13.6 70.2,14.1
				61.4,21.1 64.4,32 			"/>
				<polygon id="Star-Copy-6" class="st5" points="95,25.8 85.6,32 88.6,21.1 79.8,14.1 91.1,13.6 95,3.1 98.9,13.6 110.2,14.1
				101.4,21.1 104.4,32 			"/>
				<polygon id="Star-Copy-7" class="st5" points="135,25.8 125.6,32 128.6,21.1 119.8,14.1 131.1,13.6 135,3.1 138.9,13.6
				150.2,14.1 141.4,21.1 144.4,32 			"/>
				<polygon id="Star-Copy-8" class="st5" points="174,25.8 164.6,32 167.6,21.1 158.8,14.1 170.1,13.6 174,3.1 177.9,13.6
				189.2,14.1 180.4,21.1 183.4,32 			"/>
		</g>
	</g>
		<g id="ribbon" transform="translate(52.000000, 171.000000)">
		<g>
			<g class="st6">
				<rect id="path-3_2_" y="3.1" width="355" height="55"/>
			</g>
			<g>
				<rect id="path-3_1_" y="3.1" class="st0" width="355" height="55"/>
			</g>
		</g>
			<g class="st7">
			<path class="st3" d="M77.8,21.5h-8.6v-3.1H90v3.1h-8.6v22.1h-3.6V21.5z"/>
				<path class="st3" d="M98.1,42.2c-2-1.1-3.6-2.7-4.8-4.6c-1.2-2-1.7-4.2-1.7-6.6s0.6-4.6,1.7-6.6c1.2-2,2.8-3.5,4.8-4.6
				c2-1.1,4.3-1.7,6.9-1.7c2.5,0,4.8,0.6,6.8,1.7c2,1.1,3.6,2.7,4.8,4.6c1.2,2,1.7,4.2,1.7,6.6c0,2.4-0.6,4.6-1.7,6.6
				c-1.2,2-2.7,3.5-4.8,4.6c-2,1.1-4.3,1.7-6.8,1.7C102.4,43.9,100.1,43.3,98.1,42.2z M109.9,39.4c1.5-0.8,2.6-2,3.5-3.5
				c0.9-1.5,1.3-3.1,1.3-4.9c0-1.8-0.4-3.5-1.3-5c-0.9-1.5-2-2.6-3.5-3.5c-1.5-0.8-3.1-1.3-5-1.3s-3.5,0.4-5,1.3
				c-1.5,0.8-2.7,2-3.5,3.5c-0.9,1.5-1.3,3.1-1.3,5c0,1.8,0.4,3.5,1.3,4.9c0.9,1.5,2,2.6,3.5,3.5s3.2,1.3,5,1.3
				S108.4,40.2,109.9,39.4z"/>
				<path class="st3" d="M141.3,20.7c1.9,1.6,2.8,3.7,2.8,6.4s-0.9,4.9-2.8,6.4c-1.9,1.6-4.4,2.3-7.7,2.3h-6.2v7.6h-3.6V18.4h9.8
				C136.9,18.4,139.5,19.1,141.3,20.7z M138.7,31.3c1.2-1,1.8-2.4,1.8-4.2c0-1.8-0.6-3.2-1.8-4.2c-1.2-1-2.9-1.5-5.2-1.5h-6.1v11.3
				h6.1C135.8,32.8,137.5,32.3,138.7,31.3z"/>
				<path class="st3" d="M176.3,43.6l-5.4-7.7c-0.7,0-1.2,0.1-1.6,0.1h-6.2v7.7h-3.6V18.4h9.8c3.3,0,5.8,0.8,7.7,2.3
				c1.9,1.6,2.8,3.7,2.8,6.4c0,1.9-0.5,3.6-1.4,5c-1,1.4-2.3,2.4-4.1,3l6,8.5H176.3z M174.4,31.4c1.2-1,1.8-2.4,1.8-4.2
				c0-1.8-0.6-3.2-1.8-4.2c-1.2-1-2.9-1.5-5.2-1.5h-6.1v11.3h6.1C171.5,32.8,173.2,32.3,174.4,31.4z"/>
				<path class="st3" d="M201.7,37.3h-13.4l-2.8,6.3h-3.7l11.4-25.2h3.6l11.4,25.2h-3.8L201.7,37.3z M200.4,34.4L195,22l-5.4,12.3
				H200.4z"/>
				<path class="st3" d="M215.7,21.5h-8.6v-3.1h20.8v3.1h-8.6v22.1h-3.6V21.5z"/>
				<path class="st3" d="M250.2,40.4v3.1h-18.3V18.4h17.8v3.1h-14.2v7.7h12.6v3.1h-12.6v8.1H250.2z"/>
				<path class="st3" d="M256,18.4h10.6c2.7,0,5,0.5,7.1,1.6c2.1,1.1,3.7,2.5,4.8,4.4c1.1,1.9,1.7,4.1,1.7,6.6s-0.6,4.7-1.7,6.6
				c-1.1,1.9-2.7,3.4-4.8,4.4c-2.1,1.1-4.4,1.6-7.1,1.6H256V18.4z M266.4,40.4c2,0,3.8-0.4,5.4-1.2s2.7-1.9,3.6-3.3
				c0.8-1.4,1.3-3.1,1.3-4.9c0-1.9-0.4-3.5-1.3-5c-0.8-1.4-2-2.5-3.6-3.3s-3.3-1.2-5.4-1.2h-6.8v18.9H266.4z"/>
		</g>
	</g>
		<g class="st7">
		<path class="st8" d="M185.5,96.6c1.5,2,2.3,4.5,2.3,7.4c0,4.2-1.6,7.4-4.9,9.6c-3.2,2.2-8,3.4-14.2,3.4h-24.6V69.5h23.3
			c5.8,0,10.3,1.1,13.4,3.3c3.1,2.2,4.7,5.2,4.7,9c0,2.3-0.6,4.4-1.7,6.2c-1.1,1.8-2.7,3.2-4.7,4.3
			C181.8,93.2,183.9,94.6,185.5,96.6z M155.1,77.8V89H166c2.7,0,4.8-0.5,6.2-1.4c1.4-1,2.1-2.4,2.1-4.2c0-1.9-0.7-3.3-2.1-4.2
			c-1.4-0.9-3.5-1.4-6.2-1.4H155.1z M174.5,107.3c1.5-1,2.2-2.4,2.2-4.4c0-3.9-2.9-5.9-8.8-5.9h-12.9v11.8h12.9
			C170.8,108.8,173,108.3,174.5,107.3z"/>
			<path class="st8" d="M233,108.2v8.8h-36.9V69.5h36v8.8h-25v10.3h22.1v8.6h-22.1v11H233z"/>
			<path class="st8" d="M246.5,116.3c-3.5-1-6.3-2.3-8.5-4l3.7-8.3c2,1.5,4.5,2.7,7.3,3.6c2.8,0.9,5.6,1.4,8.4,1.4
			c3.1,0,5.4-0.5,6.9-1.4c1.5-0.9,2.2-2.2,2.2-3.7c0-1.1-0.4-2.1-1.3-2.8s-2-1.3-3.4-1.8c-1.4-0.5-3.3-1-5.6-1.5
			c-3.6-0.9-6.6-1.7-8.9-2.6c-2.3-0.9-4.3-2.2-6-4.1c-1.7-1.9-2.5-4.4-2.5-7.6c0-2.8,0.7-5.3,2.2-7.5c1.5-2.2,3.8-4,6.8-5.3
			c3-1.3,6.7-2,11-2c3,0,6,0.4,8.9,1.1c2.9,0.7,5.4,1.8,7.6,3.1l-3.4,8.4c-4.4-2.5-8.8-3.7-13.2-3.7c-3.1,0-5.4,0.5-6.8,1.5
			c-1.5,1-2.2,2.3-2.2,3.9s0.8,2.8,2.5,3.6c1.7,0.8,4.3,1.6,7.8,2.3c3.6,0.9,6.6,1.7,8.9,2.6c2.3,0.9,4.3,2.2,6,4.1
			c1.7,1.9,2.5,4.4,2.5,7.5c0,2.7-0.8,5.2-2.3,7.4c-1.5,2.2-3.8,4-6.8,5.3c-3,1.3-6.7,2-11.1,2C253.6,117.9,250,117.4,246.5,116.3z"
			/>
			<path class="st8" d="M294.3,78.4h-15.2v-9h41.5v9h-15.2v38.6h-11V78.4z"/>
	</g>
		<g class="st7">
		<path class="st8" d="M119.9,136.6l-7.7,17.5h-2.5l-7.7-17.5h2.7l6.3,14.4l6.4-14.4H119.9z"/>
			<path class="st8" d="M132.7,149.7h-9.3l-1.9,4.4h-2.6l7.9-17.5h2.5l8,17.5h-2.6L132.7,149.7z M131.8,147.7l-3.8-8.6l-3.8,8.6
			H131.8z"/>
			<path class="st8" d="M139.8,136.6h2.5v15.3h9.5v2.2h-12V136.6z"/>
			<path class="st8" d="M156.2,152.3c-1.3-1.3-1.9-3.2-1.9-5.8v-10h2.5v9.8c0,3.8,1.6,5.6,4.9,5.6c1.6,0,2.8-0.5,3.7-1.4
			c0.8-0.9,1.3-2.3,1.3-4.2v-9.8h2.4v10c0,2.5-0.6,4.4-1.9,5.8c-1.3,1.3-3.1,2-5.5,2C159.3,154.3,157.5,153.6,156.2,152.3z"/>
			<path class="st8" d="M186.9,151.9v2.2h-12.7v-17.5h12.4v2.2h-9.9v5.4h8.8v2.1h-8.8v5.7H186.9z"/>
			<path class="st8" d="M200.1,138.7v6.1h8.8v2.1h-8.8v7.1h-2.5v-17.5H210v2.2H200.1z"/>
			<path class="st8" d="M216.4,153.1c-1.4-0.8-2.5-1.8-3.3-3.2c-0.8-1.4-1.2-2.9-1.2-4.6s0.4-3.2,1.2-4.6c0.8-1.4,1.9-2.4,3.3-3.2
			c1.4-0.8,3-1.2,4.8-1.2c1.8,0,3.3,0.4,4.8,1.2c1.4,0.8,2.5,1.8,3.3,3.2c0.8,1.4,1.2,2.9,1.2,4.6s-0.4,3.2-1.2,4.6
			c-0.8,1.4-1.9,2.4-3.3,3.2c-1.4,0.8-3,1.2-4.8,1.2C219.5,154.3,217.9,153.9,216.4,153.1z M224.7,151.2c1-0.6,1.8-1.4,2.4-2.4
			c0.6-1,0.9-2.2,0.9-3.4s-0.3-2.4-0.9-3.4c-0.6-1-1.4-1.8-2.4-2.4c-1-0.6-2.2-0.9-3.5-0.9c-1.3,0-2.4,0.3-3.5,0.9
			c-1,0.6-1.9,1.4-2.5,2.4c-0.6,1-0.9,2.2-0.9,3.4s0.3,2.4,0.9,3.4c0.6,1,1.4,1.8,2.5,2.4c1,0.6,2.2,0.9,3.5,0.9
			C222.5,152,223.7,151.7,224.7,151.2z"/>
			<path class="st8" d="M246,154.1l-3.8-5.4c-0.5,0-0.8,0-1.1,0h-4.3v5.3h-2.5v-17.5h6.8c2.3,0,4,0.5,5.3,1.6c1.3,1.1,2,2.6,2,4.5
			c0,1.4-0.3,2.5-1,3.5s-1.6,1.6-2.8,2.1l4.1,5.9H246z M244.7,145.6c0.8-0.7,1.2-1.7,1.2-2.9c0-1.3-0.4-2.2-1.2-2.9s-2-1-3.6-1h-4.2
			v7.9h4.2C242.7,146.6,243.9,146.3,244.7,145.6z"/>
			<path class="st8" d="M275.4,154.1l0-12.8l-6.3,10.6h-1.1l-6.3-10.5v12.7h-2.4v-17.5h2l7.3,12.3l7.2-12.3h2.1l0,17.5H275.4z"/>
			<path class="st8" d="M286.2,153.1c-1.4-0.8-2.5-1.8-3.3-3.2c-0.8-1.4-1.2-2.9-1.2-4.6s0.4-3.2,1.2-4.6c0.8-1.4,1.9-2.4,3.3-3.2
			c1.4-0.8,3-1.2,4.8-1.2c1.8,0,3.3,0.4,4.8,1.2c1.4,0.8,2.5,1.8,3.3,3.2c0.8,1.4,1.2,2.9,1.2,4.6s-0.4,3.2-1.2,4.6
			c-0.8,1.4-1.9,2.4-3.3,3.2c-1.4,0.8-3,1.2-4.8,1.2C289.2,154.3,287.6,153.9,286.2,153.1z M294.5,151.2c1-0.6,1.8-1.4,2.4-2.4
			c0.6-1,0.9-2.2,0.9-3.4s-0.3-2.4-0.9-3.4c-0.6-1-1.4-1.8-2.4-2.4c-1-0.6-2.2-0.9-3.5-0.9c-1.3,0-2.4,0.3-3.5,0.9
			c-1,0.6-1.9,1.4-2.5,2.4c-0.6,1-0.9,2.2-0.9,3.4s0.3,2.4,0.9,3.4c0.6,1,1.4,1.8,2.5,2.4c1,0.6,2.2,0.9,3.5,0.9
			C292.3,152,293.4,151.7,294.5,151.2z"/>
			<path class="st8" d="M319.1,136.6v17.5h-2l-10.5-13v13h-2.5v-17.5h2l10.5,13v-13H319.1z"/>
			<path class="st8" d="M337.1,151.9v2.2h-12.7v-17.5h12.4v2.2h-9.9v5.4h8.8v2.1h-8.8v5.7H337.1z"/>
			<path class="st8" d="M347.6,148v6h-2.5V148l-7-11.4h2.7l5.6,9.2l5.6-9.2h2.5L347.6,148z"/>
	</g>
</g>
</svg>
