<svg xmlns="http://www.w3.org/2000/svg" xml:space="preserve" version="1.0" viewBox="0 0 160 42"><radialGradient id="a" cx="22954.449" cy="-58909.395" r="265.168" gradientTransform="matrix(.05915 -.09055 .05415 .0357 1857.556 4203.837)" gradientUnits="userSpaceOnUse"><stop offset=".427" stop-color="#2199ff"/><stop offset=".562" stop-color="#2b8af3"/><stop offset=".822" stop-color="#4462d3"/><stop offset=".918" stop-color="#4e51c6"/></radialGradient><path fill="url(#a)" d="M37.865 14.044c-2.174-6.675-8.296-4.425-8.616-4.354-9.603 3.406-12.44 27.053-12.44 27.053s-.158 1.219.541 1.255c0 0 .608.102 1.021-1.031a1.1 1.1 0 0 0 .045-.162c.284-1.423 4.381-21.121 13.422-21.573 0 0 2.242-.216 4.424.909l.06.033c.111.066.679.373 1.155-.064.085-.079.175-.202.204-.248.274-.447.458-.844.184-1.818z"/><radialGradient id="b" cx="25021.781" cy="74596.508" r="156.731" gradientTransform="matrix(.07982 .04797 .08115 -.14058 -8024.751 9310.354)" gradientUnits="userSpaceOnUse"><stop offset="0" stop-color="#2199ff"/><stop offset=".213" stop-color="#2396fd"/><stop offset=".372" stop-color="#298cf5"/><stop offset=".514" stop-color="#337ce8"/><stop offset=".645" stop-color="#4166d6"/><stop offset=".737" stop-color="#4e51c6"/></radialGradient><path fill="url(#b)" d="M18.495 36.423c5.672-34.618 17.842-20.396 17.842-20.396-.181-.078-1.46-.729-3.124-.921-2.412-.28-5.399.523-8.194 4.738 0 0-3.093 3.858-5.425 12.774l-1.1 3.805z"/><radialGradient id="c" cx="22997.576" cy="-58873.855" r="247.018" gradientTransform="matrix(.0681 -.08437 .05327 .04412 1600.598 4564.535)" gradientUnits="userSpaceOnUse"><stop offset=".334" stop-color="#2199ff"/><stop offset=".648" stop-color="#485bce"/><stop offset=".697" stop-color="#4e51c6"/></radialGradient><path fill="url(#c)" d="M33.127 22.704c-4.783-.978-11.027 13.79-11.027 13.79-.412.868-.863.68-.863.68-.515-.116-.295-.986-.295-.986s4.004-17.517 10.61-18.078c0 0 4.333-.469 4.461 4.497 0 0 .01 1.565-1.31.892 0 0-.836-.64-1.576-.795z"/><radialGradient id="d" cx="25634.854" cy="74277.656" r="86.477" gradientTransform="matrix(.08897 .03259 .07312 -.22125 -7683.04 15629.587)" gradientUnits="userSpaceOnUse"><stop offset="0" stop-color="#2199ff"/><stop offset=".291" stop-color="#2297fd"/><stop offset=".424" stop-color="#278ff7"/><stop offset=".525" stop-color="#2f83ed"/><stop offset=".61" stop-color="#3a71df"/><stop offset=".684" stop-color="#4959cd"/><stop offset=".705" stop-color="#4e51c6"/></radialGradient><path fill="url(#d)" d="M34.61 23.437s-.785-.599-1.53-.75C28.39 21.76 22.1 36.494 22.1 36.494s3.137-10.85 7.998-14.798c0 0 3.006-2.257 4.511 1.74z"/><radialGradient id="e" cx="22865.045" cy="-58975.348" r="332.671" gradientTransform="matrix(.04931 -.09701 .04522 .02342 1555.153 3614.678)" gradientUnits="userSpaceOnUse"><stop offset=".183" stop-color="#2199ff"/><stop offset=".366" stop-color="#2395fc"/><stop offset=".534" stop-color="#2a8af3"/><stop offset=".697" stop-color="#3678e5"/><stop offset=".855" stop-color="#465ed0"/><stop offset=".918" stop-color="#4e51c6"/></radialGradient><path fill="url(#e)" d="M27.775 5.18s-1.85-1.938-5.006-.847c0 0-3.281.975-4.428 5.631 0 0-.765 3.032-1.242 5.92-.478 3.14-1.533 6.045-1.533 6.045-2.802 8.494-5.953 8.43-5.953 8.43-2.644 0-4.046-3.537-4.046-3.537-.146-.364-.67-.908-1.237-.516a.771.771 0 0 0-.235.343c-.072.242-.157.774-.028 1.689.955 5.992 4.622 6.967 4.622 6.967 5.766 1.769 7.932-8.555 7.932-8.555.032-.11 2.105-10.233 6.561-15.583 0 0 1.06-1.578 2.907-2.76.192-.123.473-.29.685-.406.194-.107.333-.196.531-.281.354-.176.613-.304.83-.526.31-.318.325-1.371-.36-2.014z"/><radialGradient id="f" cx="27059.832" cy="73604.555" r="151.777" gradientTransform="matrix(.07928 .05029 .06188 -.0994 -6680.208 5988.592)" gradientUnits="userSpaceOnUse"><stop offset="0" stop-color="#4e51c6"/><stop offset=".175" stop-color="#4263d5"/><stop offset=".507" stop-color="#3081ec"/><stop offset=".793" stop-color="#2593fa"/><stop offset="1" stop-color="#2199ff"/></radialGradient><path fill="url(#f)" d="M15.583 21.956c-2.665 7.464-5.904 7.172-5.904 7.172s-2.328.112-4.112-2.306c0 0 1.404 3.605 4.048 3.606 0 0 3.556.282 5.968-8.472z"/><radialGradient id="g" cx="27085.258" cy="73794.07" r="281.499" gradientTransform="matrix(.05307 -.07787 -.05036 -.03498 2300.786 4705.47)" gradientUnits="userSpaceOnUse"><stop offset="0" stop-color="#2199ff"/><stop offset=".132" stop-color="#2494fb"/><stop offset=".283" stop-color="#2d86f0"/><stop offset=".443" stop-color="#3b70de"/><stop offset=".604" stop-color="#4e51c6"/></radialGradient><path fill="url(#g)" d="M17.762 22.367c2.842-20.185 9.89-14.828 9.89-14.828a7.741 7.741 0 0 1-.347.18c-2.433 1.13-4.124 3.392-4.123 3.391-2.223 2.371-5.42 11.257-5.42 11.257z"/><path fill="#152031" d="M66.834 22.56c-4.97 0-10.33 4.96-10.33 9.845 0 1.86 1.087 3.178 3.495 3.178 5.825 0 10.019-6.667 10.019-10.31.078-2.016-1.165-2.714-3.184-2.714zm-4.815 10.388h-.079a.776.776 0 0 1-.699-.93c0-3.257 3.806-7.676 5.903-7.676.544 0 .777.31.777.93-.078 2.637-3.107 7.676-5.902 7.676zm54.522-11.241a2.095 2.095 0 0 0 2.096-2.094 2.095 2.095 0 0 0-2.096-2.093 2.096 2.096 0 0 0-2.098 2.093c0 1.156.94 2.094 2.098 2.094zm-38.601.697c-3.65 0-6.68 2.946-6.68 4.884 0 1.938 1.398 3.411 1.398 4.652a1.9 1.9 0 0 1-1.863 2.093 1.747 1.747 0 0 1-1.632-1.318 1.651 1.651 0 0 0-1.242 1.473c0 .775.776 1.318 2.485 1.318 3.496 0 6.213-2.403 6.213-4.264s-1.164-3.178-1.164-4.651c0-1.473.776-2.636 2.097-2.636a1.747 1.747 0 0 1 1.63 1.24 1.55 1.55 0 0 0 1.243-1.473c0-.698-.699-1.318-2.485-1.318zm-14.524-6.977a4.364 4.364 0 0 0-2.407-.698 4.744 4.744 0 0 0-3.185 1.163c-1.475 1.318-3.806 4.807-5.592 8.373-1.932.232-3.88.31-5.825.232 1.398-3.178 2.563-6.124 2.563-7.21 0-2.247-1.864-2.48-3.495-2.403a51.264 51.264 0 0 1-3.339 8.916 9.056 9.056 0 0 1-2.408-1.318 1.848 1.848 0 0 0-.389 1.085 2.49 2.49 0 0 0 1.787 2.403A68.845 68.845 0 0 1 36 34.963a4.33 4.33 0 0 0 2.64.776c1.71 0 2.408-.62 3.418-2.404 1.01-1.783 2.33-4.419 3.417-6.822a37.748 37.748 0 0 0 5.903-.388c-1.243 2.791-2.097 5.427-2.097 7.288 0 2.248 2.175 3.566 3.806 3.566.155-7.52 6.368-18.063 10.33-21.552zm50.018 7.365c-1.244 3.1-4.583 7.287-4.583 10.233a3.328 3.328 0 0 0 3.184 3.334v-.31c0-4.73 4.661-8.373 4.661-10.931 0-2.171-2.02-2.326-3.262-2.326zm40.076-.388c-3.65 0-6.68 2.946-6.68 4.884 0 1.938 1.32 3.411 1.32 4.652 0 1.24-.698 2.093-1.786 2.093a1.747 1.747 0 0 1-1.63-1.318 1.651 1.651 0 0 0-1.243 1.473c0 .775.699 1.318 2.485 1.318 3.494 0 6.213-2.403 6.213-4.264s-1.165-3.178-1.165-4.651c0-1.473.777-2.636 2.098-2.636a1.747 1.747 0 0 1 1.63 1.24 1.55 1.55 0 0 0 1.243-1.473c.078-.698-.7-1.318-2.485-1.318zm-24.414.31a1.895 1.895 0 0 0-.207 0c-2.33 0-4.35 1.706-6.369 3.644a4.274 4.274 0 0 0 .777-1.938c0-1.938-1.942-2.016-3.106-2.016-1.088 4.342-4.894 7.753-4.894 10.466v.078a2.461 2.461 0 0 0 2.642 2.325c1.864-4.884 6.6-9.845 8.154-9.845.235.024.407.23.388.465 0 1.628-2.873 5.272-2.873 7.287a3.056 3.056 0 0 0 3.107 3.256c.776-4.806 4.194-8.217 4.194-11.706a1.916 1.916 0 0 0-1.813-2.016zm-20.245-.62c-.931 3.256-4.272 10.466-6.68 10.466h-.077a.58.58 0 0 1-.388-.543c0-1.86 2.796-6.202 2.796-7.675 0-1.473-1.398-1.938-3.03-2.015-1.397 3.643-6.057 10-7.766 10h-.155a.441.441 0 0 1-.31-.542c.077-1.938 2.174-5.97 4.581-8.838a3.267 3.267 0 0 0-2.02-.62 4.18 4.18 0 0 0-3.416 1.318c-2.252 2.48-3.805 7.365-3.805 9.845 0 1.008.388 1.86 1.786 1.86 3.106 0 5.902-3.1 7.922-5.426a8.304 8.304 0 0 0-.777 3.101c0 1.24.621 2.248 1.942 2.248 5.28 0 11.183-8.45 11.183-11.24a2.149 2.149 0 0 0-1.786-1.939zm43.26-6.59s-.465-.62-1.942-.62c-2.95 0-4.892 2.791-7.533 7.675h-.777c-6.678 0-11.65 5.427-11.65 10.156 0 1.706.932 2.636 2.33 2.636 2.951 0 5.515-3.334 6.136-4.031a1.915 1.915 0 0 0-.078.93c0 2.093 1.088 3.799 3.185 3.799.233-7.133 6.213-16.978 10.33-20.544zm-16.853 16.668c-.233 0-.466-.232-.466-.62 0-2.326 2.874-7.442 6.602-7.442l.62.077c-1.63 2.636-4.737 7.985-6.756 7.985zm-43.726-9.148H88.58a22.718 22.718 0 0 1 2.873-3.256 4.331 4.331 0 0 0-5.126.466 18.738 18.738 0 0 0-2.097 2.79h-1.398a1.621 1.621 0 0 0-1.63 1.551h2.096c-1.398 2.558-2.64 5.039-2.64 7.597s1.786 3.644 3.494 3.567c-.232-3.102 1.476-7.675 3.495-11.164H89.9a1.623 1.623 0 0 0 1.632-1.55z"/></svg>